<?xml version="1.0" encoding="utf-8"?>
<!-- Generator: Adobe Illustrator 16.0.0, SVG Export Plug-In . SVG Version: 6.00 Build 0)  -->
<!DOCTYPE svg PUBLIC "-//W3C//DTD SVG 1.1//EN" "http://www.w3.org/Graphics/SVG/1.1/DTD/svg11.dtd">
<svg version="1.1" id="Capa_1" xmlns="http://www.w3.org/2000/svg" xmlns:xlink="http://www.w3.org/1999/xlink" x="0px" y="0px"
	 width="217.3px" height="41.7px" viewBox="0 0 217.3 41.7" style="enable-background:new 0 0 217.3 41.7;" xml:space="preserve">
<style type="text/css">
<![CDATA[
	.st0{fill:none;stroke:#f2f2f2;stroke-width:0.4}
]]>
</style>
<line class="st0" x1="214.6" y1="8.1" x2="200.3" y2="2.1"/>
<line class="st0" x1="209.8" y1="13" x2="187.5" y2="2.1"/>
<line class="st0" x1="173.8" y1="2.1" x2="204.4" y2="19.4"/>
<line class="st0" x1="160.7" y1="2.1" x2="203.9" y2="30.9"/>
<line class="st0" x1="147.3" y1="2.1" x2="177.9" y2="30.9"/>
<line class="st0" x1="134.2" y1="2.1" x2="157.8" y2="34.8"/>
<line class="st0" x1="121" y1="2.1" x2="134" y2="39.1"/>
<line class="st0" x1="215.3" y1="4" x2="0" y2="4"/>
<line class="st0" x1="215.3" y1="5.2" x2="0" y2="5.3"/>
<line class="st0" x1="215.3" y1="6.6" x2="0" y2="6.7"/>
<line class="st0" x1="214.5" y1="8" x2="0.8" y2="8.1"/>
<line class="st0" x1="213.7" y1="9.5" x2="1.6" y2="9.5"/>
<line class="st0" x1="210.3" y1="11.3" x2="5" y2="11.3"/>
<line class="st0" x1="210.5" y1="13.1" x2="4.8" y2="13"/>
<line class="st0" x1="205.6" y1="15" x2="9.7" y2="14.9"/>
<line class="st0" x1="203.2" y1="17" x2="12.1" y2="16.9"/>
<line class="st0" x1="198.4" y1="19.3" x2="16.9" y2="19.2"/>
<line class="st0" x1="194.8" y1="21.7" x2="20.5" y2="21.6"/>
<line class="st0" x1="187.1" y1="24.6" x2="28.2" y2="24.5"/>
<line class="st0" x1="181.8" y1="27.7" x2="33.5" y2="27.6"/>
<line class="st0" x1="172" y1="31.1" x2="43.3" y2="31"/>
<line class="st0" x1="160.8" y1="34.7" x2="54.5" y2="34.7"/>
<line class="st0" x1="148.5" y1="39.1" x2="66.8" y2="39"/>
<line class="st0" x1="215.3" y1="3.1" x2="0" y2="3.1"/>
<line class="st0" x1="215.3" y1="2.1" x2="0" y2="2.1"/>
<line class="st0" x1="0.7" y1="8.1" x2="15.1" y2="2.1"/>
<line class="st0" x1="5.5" y1="13" x2="27.8" y2="2.1"/>
<line class="st0" x1="41.6" y1="2.1" x2="11" y2="19.4"/>
<line class="st0" x1="54.6" y1="2.1" x2="11.4" y2="30.9"/>
<line class="st0" x1="68" y1="2.1" x2="37.5" y2="30.9"/>
<line class="st0" x1="81.1" y1="2.1" x2="57.5" y2="34.8"/>
<line class="st0" x1="94.4" y1="2.1" x2="81.3" y2="39.1"/>
<line class="st0" x1="107.7" y1="2.1" x2="107.7" y2="41.7"/>
</svg>
