<?xml version="1.0" encoding="utf-8"?>
<!-- Generator: Adobe Illustrator 16.0.0, SVG Export Plug-In . SVG Version: 6.00 Build 0)  -->
<!DOCTYPE svg PUBLIC "-//W3C//DTD SVG 1.1//EN" "http://www.w3.org/Graphics/SVG/1.1/DTD/svg11.dtd">
<svg version="1.1" id="Capa_1" xmlns="http://www.w3.org/2000/svg" xmlns:xlink="http://www.w3.org/1999/xlink" x="0px" y="0px"
	 width="172.9px" height="50.1px" viewBox="0 0 172.9 50.1" style="enable-background:new 0 0 172.9 50.1;" xml:space="preserve">
<style type="text/css">
<![CDATA[
	.st0{fill:#EBECEC;}
	.st1{fill-rule:evenodd;clip-rule:evenodd;fill:#EBECEC;}
	.st2{fill-rule:evenodd;clip-rule:evenodd;}
	.st3{fill-rule:evenodd;clip-rule:evenodd;fill:#009933;}
]]>
</style>
<path class="st1" d="M151.8,31.9c9,0,16.2,3.1,16.2,7c0,3.7-6.5,6.7-14.8,7c0.5,0,0.9,0,1.4,0c9,0,16.2-3.4,16.2-7.6
	c0-4.2-7.3-7.6-16.2-7.6c-4.4,0-8.3,0.8-11.3,2.1C145.8,32.3,148.7,31.9,151.8,31.9"/>
<path class="st1" d="M116.1,22.7c3.6,0,7.2,0,10.8,0v1.7h-2.7v10.2h-5.4V24.4h-2.7V22.7z"/>
<path class="st1" d="M128.7,22.7h5.9v10.2h1.8V22.7h5.8v8.7c0,1.8-1.5,3.2-3.4,3.2h-6.6c-1.9,0-3.4-1.5-3.4-3.2V22.7z"/>
<rect x="118.8" y="36.7" class="st1" width="1.6" height="6.8"/>
<path class="st1" d="M121.1,36.7h1.4h0.1h1.5c0.9,0,1.7,0.5,2.1,1.1v-1.1h1.9c1.4,0,2.5,1.1,2.5,2.4v4.4h-1.5v-4.1
	c0-0.7-0.6-1.3-1.4-1.3h-1.4c0.1,0.3,0.2,0.6,0.2,1v4.4h-1.5v-4.1c0-0.7-0.6-1.3-1.4-1.3h-1.1v5.4h-1.5V36.7z"/>
<path class="st1" d="M155.7,36.7h1.4h0.1h2.3c1.4,0,2.5,1.1,2.5,2.4v4.4h-1.5v-4.1c0-0.7-0.6-1.3-1.4-1.3h-2v5.4h-1.5V36.7z"/>
<path class="st1" d="M134.4,36.6h1.3c1.7,0,3.1,1.3,3.1,2.9v5.9h-1.6v-3.3v-2.6c0-0.8-0.7-1.4-1.5-1.4h-1.3c-0.8,0-1.5,0.6-1.5,1.4
	v1h3.4v1.6H133h-1.4h-0.2v-2.6C131.3,37.9,132.7,36.6,134.4,36.6"/>
<path class="st1" d="M139.5,40.8v-1.2c0-1.6,1.4-2.9,3.1-2.9h5v1.5h-5c-0.8,0-1.5,0.6-1.5,1.4v1.3c0,0.8,0.7,1.4,1.5,1.4h3.4V39h1.6
	v3.2v0.9v0.6h-5C140.9,43.7,139.5,42.4,139.5,40.8"/>
<path class="st1" d="M154.4,40.4h-3.7c-1.3,0-1.3,1.9,0,1.9h3.7v1.5h-4.1c-2,0-2.8-2.4-1.3-3.5c0,0,0.3-0.4,0-0.7
	c-1.4-0.8-0.7-2.9,0.9-2.9h4.6v1.2h-4c-0.9,0-0.9,1.3,0,1.3h4V40.4z"/>
<path class="st0" d="M119.6,46.3v2.5c0,0.1-0.8,0.2-0.8,0l0-2.5C118.8,46.1,119.6,46.1,119.6,46.3"/>
<path class="st0" d="M120.7,48c-0.1,0.7,1,0.9,1.4,0.4l0-0.8C121.8,47.5,120.8,47.5,120.7,48 M123,46.3l-0.1,2.6
	c-0.1,0.5-0.8,0-0.9,0c-0.4,0-0.6,0.2-1.2,0.2c-0.4,0-1.1-0.4-1.1-0.8c0-0.9,1.6-1,2.3-1l0-0.9C122.3,46,123,46,123,46.3z"/>
<path class="st0" d="M124.1,48.1c0,0,0.9-0.3,1-0.4C125.2,47.7,124.1,47.1,124.1,48.1 M125.9,47.8l-1.7,0.6c0.2,0.6,1.1,0.4,1.5,0.1
	c0,0,0.3,0,0.3,0.1c-0.7,0.6-2.5,0.6-2.8-0.3c-0.2-0.8,1.2-1.2,1.8-1.2C125.7,47.2,126,47.7,125.9,47.8z"/>
<path class="st0" d="M127,48.4c0,0.5,1.1,0.3,1.1,0C128.1,48.1,127,48.1,127,48.4 M129.1,47.5l-0.1,1.3c-0.1,0.4-0.8,0.1-1,0
	c-0.6,0.2-1.8,0.5-1.8-0.4c0-0.7,1.6-0.7,2-0.7c0.8-0.7-1.3-0.2-1.4-0.2c-0.2,0-0.2-0.2-0.1-0.2C127.3,47,128.4,47,129.1,47.5z"/>
<path class="st0" d="M130.1,47.5c-0.4,0.2,1.5,0.6,1.3,1.1c-0.2,0.7-1.7,0.4-2.2,0.2c-0.2-0.2,0.1-0.4,0.4-0.3
	c0.2,0.2,1,0.3,1.1,0.2c0.2-0.3-1.4-0.4-1.4-0.9c0-0.6,2-0.7,2-0.3C131.4,47.9,130.5,47.3,130.1,47.5"/>
<path class="st0" d="M135.4,46.4c-1.4,0-1.2,2.5,0.2,2.3C136.9,48.5,136.6,46.4,135.4,46.4 M135.5,49c-2.7,0.1-2.4-3.1,0.3-2.9
	C138,46.3,138,48.9,135.5,49z"/>
<path class="st0" d="M138.4,47.4l0.6-0.2c0.1,0.1,0.3,0.2,0.3,0.3c-0.2,0.1-0.9,0.3-0.9,0.4l0,1c-0.1,0.2-0.7,0.2-0.7,0v-1.6
	C137.9,47.1,138.3,47.1,138.4,47.4"/>
<path class="st0" d="M140,46.1c0.3,0,0.6,0.4,0.1,0.5C139.5,46.6,139.5,46.2,140,46.1"/>
<path class="st0" d="M141.9,47.4c-0.7,0.3,0,1,0.5,1.1C144,48.7,143,47,141.9,47.4 M143.9,47.2c0.2,0,0.3,0.3-0.1,0.3
	c1.4,0.7-2,1.6-2.2,1.9c-0.1,0.2,1.5,1.2,0.9-0.2c0.1-0.3,0.7-0.2,0.8-0.1c0.2,0.1,0.3,0.3,0.4,0.5c0,0.8-3.2,0.8-3.1-0.1
	c0-0.3,1.2-0.6,1.3-0.6l0-0.1c-0.1,0-1.3-0.2-1.1-0.8C141.2,46.8,142.9,47.2,143.9,47.2z"/>
<path class="st0" d="M146.1,47.4c0.6-0.1,1.7-0.4,2,0.4l-0.1,1.2c-0.1,0.2-0.7,0.2-0.8,0v-1.2c0-0.3-1.1-0.3-1.1,0.2l-0.1,0.9
	c-0.1,0.2-0.7,0.2-0.7,0c0-0.5,0-1,0-1.5C145.5,47,145.9,47.2,146.1,47.4"/>
<path class="st0" d="M140.4,47.4v1.4c0,0.1-0.8,0.2-0.8,0l0-1.4C139.6,47.2,140.4,47.2,140.4,47.4"/>
<path class="st0" d="M144.7,46.1c0.3,0,0.6,0.4,0.1,0.5C144.2,46.6,144.2,46.2,144.7,46.1"/>
<path class="st0" d="M145.1,47.4v1.4c0,0.1-0.8,0.2-0.8,0l0-1.4C144.3,47.2,145.1,47.2,145.1,47.4"/>
<path class="st0" d="M149.1,48.4c0,0.5,1.1,0.3,1.1,0C150.2,48.1,149.1,48.1,149.1,48.4 M151.2,47.5l-0.1,1.3c-0.1,0.4-0.8,0.1-1,0
	c-0.6,0.2-1.8,0.5-1.8-0.4c0-0.7,1.6-0.7,2-0.7c0.8-0.7-1.3-0.2-1.4-0.2c-0.2,0-0.2-0.2-0.1-0.2C149.4,47,150.6,46.9,151.2,47.5z"/>
<path class="st0" d="M153.4,48.1c0,0,0.9-0.3,1-0.4C154.4,47.7,153.4,47,153.4,48.1 M155.2,47.8l-1.7,0.6c0.2,0.6,1.1,0.4,1.5,0.2
	c0,0,0.3,0,0.3,0.1c-0.7,0.6-2.5,0.6-2.8-0.2c-0.2-0.8,1.2-1.2,1.8-1.2C155,47.2,155.3,47.7,155.2,47.8z"/>
<path class="st0" d="M156.3,47.5c-0.4,0.2,1.5,0.6,1.3,1.1c-0.2,0.7-1.7,0.4-2.2,0.2c-0.2-0.2,0.1-0.4,0.4-0.3
	c0.2,0.2,1,0.3,1.1,0.2c0.2-0.2-1.4-0.4-1.4-0.9c0-0.6,2-0.7,2-0.3C157.6,47.9,156.7,47.3,156.3,47.5"/>
<path class="st0" d="M152.2,46.3v2.5c0,0.1-0.8,0.2-0.8,0l0-2.5C151.4,46,152.2,46.1,152.2,46.3"/>
<path class="st2" d="M138.1,5.8c0,0.1,0,0.1,0,0.2l0,0.1c-0.1,0.6-0.5,1-1.1,1.4c-0.5,0.3-1.1,0.4-1.8,0.4c-0.2,0-0.6,0-0.9-0.1
	c-0.4-0.1-0.7-0.2-0.8-0.3c0,0-0.1-0.1-0.1-0.2c0-0.2,0-0.3,0.1-0.4c0.1-0.2,0.2-0.2,0.3-0.2c0.1,0,0.2,0,0.3,0
	c0.5,0.1,0.9,0.2,1.3,0.2c0.3,0,0.6,0,0.9-0.1c0.3-0.1,0.6-0.2,0.8-0.4c0.2-0.2,0.3-0.3,0.3-0.4c0-0.1-0.1-0.1-0.2-0.2
	c-0.3-0.2-0.8-0.3-1.5-0.3c-0.2,0-0.5,0-0.9,0.1c-0.4,0.1-0.7,0.1-0.9,0.1h-0.1c-0.1,0-0.2,0-0.3-0.1c-0.1-0.1-0.1-0.2-0.1-0.3V2.9
	c0-0.1,0-0.2,0.1-0.4c0.1-0.1,0.2-0.2,0.3-0.2c1.6-0.1,2.4-0.1,2.4-0.1c0.2,0,0.3,0,0.3,0.1c0.1,0.1,0.1,0.2,0.1,0.3
	c0,0.2,0,0.4-0.1,0.5c-0.1,0.1-0.1,0.2-0.3,0.3c-0.1,0.1-0.2,0.1-0.4,0.1c-0.2,0-0.3-0.1-0.4-0.2l-1.2,0v1.1
	c0.4-0.1,0.9-0.1,1.3-0.1c0.6,0,1.2,0.1,1.6,0.2C137.8,4.9,138.1,5.3,138.1,5.8 M132.6,5.8c0,0.1,0,0.1,0,0.2l0,0.1
	c-0.1,0.6-0.5,1-1.1,1.4c-0.5,0.3-1.1,0.4-1.8,0.4c-0.2,0-0.6,0-0.9-0.1c-0.4-0.1-0.7-0.2-0.8-0.3c0,0-0.1-0.1-0.1-0.2
	c0-0.2,0-0.3,0.1-0.4c0.1-0.2,0.2-0.2,0.3-0.2c0.1,0,0.2,0,0.3,0c0.5,0.1,0.9,0.2,1.3,0.2c0.3,0,0.6,0,0.9-0.1
	c0.3-0.1,0.6-0.2,0.8-0.4c0.2-0.2,0.3-0.3,0.3-0.4c0-0.1-0.1-0.1-0.2-0.2c-0.3-0.2-0.8-0.3-1.5-0.3c-0.2,0-0.5,0-0.9,0.1
	c-0.4,0.1-0.7,0.1-0.8,0.1h-0.1c-0.1,0-0.2,0-0.3-0.1c-0.1-0.1-0.1-0.2-0.1-0.3V2.9c0-0.1,0-0.2,0.1-0.4c0.1-0.1,0.2-0.2,0.3-0.2
	c1.6-0.1,2.4-0.1,2.4-0.1c0.2,0,0.3,0,0.3,0.1s0.1,0.2,0.1,0.3c0,0.2,0,0.4-0.1,0.5c-0.1,0.1-0.1,0.2-0.3,0.3
	c-0.1,0.1-0.2,0.1-0.4,0.1c-0.2,0-0.3-0.1-0.4-0.2l-1.2,0v1.1c0.4-0.1,0.9-0.1,1.3-0.1c0.6,0,1.2,0.1,1.6,0.2
	C132.3,4.9,132.6,5.3,132.6,5.8z M126.5,5.9c0-0.2-0.2-0.4-0.6-0.5c-0.3-0.1-0.5-0.1-0.8-0.1c-0.7,0-1.2,0.1-1.7,0.4
	c-0.3,0.2-0.4,0.3-0.4,0.4c0,0.2,0.2,0.4,0.5,0.5c0.3,0.1,0.5,0.1,0.8,0.1c0.7,0,1.2-0.1,1.7-0.4C126.4,6.1,126.5,6,126.5,5.9z
	 M126.2,3.5c0-0.2-0.2-0.3-0.6-0.4C125.5,3,125.2,3,124.9,3c-0.6,0-1,0.1-1.4,0.4c-0.2,0.2-0.3,0.3-0.3,0.4c0,0.2,0.2,0.3,0.5,0.4
	c0.2,0.1,0.5,0.1,0.8,0.1c0.6,0,1.1-0.1,1.5-0.4C126.1,3.7,126.2,3.6,126.2,3.5L126.2,3.5z M127.3,5.8c0,0.6-0.3,1.1-1,1.5
	c-0.6,0.3-1.2,0.5-1.8,0.5c-0.5,0-1-0.1-1.5-0.3c-0.5-0.3-0.8-0.7-0.8-1.2c0-0.5,0.2-0.9,0.7-1.3c-0.4-0.3-0.7-0.6-0.7-1.1
	c0-0.6,0.3-1.1,0.9-1.4c0.5-0.3,1.1-0.4,1.7-0.4c0.5,0,1,0.1,1.4,0.3c0.5,0.3,0.7,0.6,0.7,1.1c0,0.4-0.2,0.8-0.6,1.1
	C127,4.9,127.3,5.3,127.3,5.8z M116.8,4.4c0-0.4-0.2-0.7-0.7-0.9c-0.4-0.2-0.8-0.3-1.2-0.3c-0.5,0-1,0.1-1.6,0.3
	c-0.5,0.2-1,0.5-1.3,0.8c-0.3,0.4-0.5,0.7-0.5,1c0,0.4,0.2,0.7,0.7,0.9c0.3,0.2,0.7,0.2,1.2,0.2c0.7,0,1.3-0.2,2-0.5
	c0.7-0.3,1.2-0.8,1.4-1.4C116.8,4.7,116.8,4.6,116.8,4.4z M117.6,4.4c0,0.6-0.2,1.2-0.7,1.8c-0.4,0.5-1,0.9-1.7,1.1
	c-0.7,0.3-1.3,0.4-1.9,0.4c-0.7,0-1.3-0.2-1.8-0.5c-0.5-0.4-0.8-0.9-0.8-1.6c0-0.6,0.2-1.2,0.7-1.8c0.4-0.5,1-0.8,1.7-1.1
	c0.7-0.3,1.3-0.4,1.9-0.4c0.7,0,1.3,0.2,1.8,0.5C117.4,3.2,117.6,3.7,117.6,4.4z M108.9,3.6c-0.1-0.3-0.6-0.5-1.6-0.5
	c-0.6,0-1.2,0-1.9,0.1c0,0.8,0,1.5,0.1,1.9c0.9,0,1.7-0.2,2.4-0.6C108.5,4.3,108.8,3.9,108.9,3.6L108.9,3.6z M110,7
	c0,0.2-0.1,0.4-0.2,0.5s-0.3,0.2-0.5,0.2c-0.2,0-0.5-0.1-0.8-0.2c-0.3-0.1-0.5-0.3-0.8-0.4c-0.6-0.3-0.9-0.4-1.1-0.5
	c-0.4-0.2-0.8-0.3-1.1-0.3c0,0.1,0,0.2,0,0.5c0,0.2,0,0.4,0,0.5c0,0.2,0,0.4-0.1,0.5c-0.1,0.1-0.2,0.2-0.5,0.2c-0.1,0-0.2,0-0.3-0.1
	c0-0.1-0.1-0.8-0.1-2.1c0-0.8-0.1-1.6-0.1-2.3h0c-0.2,0-0.3-0.1-0.3-0.4c0-0.2,0-0.4,0.1-0.5c0.1-0.1,0.5-0.2,1.2-0.2
	c0.5-0.1,0.9-0.1,1.3-0.1c0.7,0,1.3,0.1,1.8,0.2c0.7,0.2,1.1,0.6,1.1,1.2c0,0.3-0.1,0.7-0.4,1c-0.4,0.5-1,1-1.9,1.3
	c0.3,0.2,0.6,0.3,0.9,0.5c0.4,0.2,0.7,0.3,0.9,0.4c0.1-0.1,0.2-0.1,0.3-0.1C109.8,6.5,110,6.7,110,7z M103.5,3
	c0,0.1-0.1,0.2-0.2,0.4s-0.2,0.2-0.3,0.2c-0.1,0-0.3,0-0.4-0.1c-0.2-0.1-0.2-0.2-0.2-0.3c-0.2,0-0.3,0-0.5,0c-0.4,0-1,0-1.8,0.1
	c-0.9,0.1-1.5,0.1-1.8,0.1c0,0.4,0,0.8,0,1.2c1.1-0.2,2.2-0.3,3.4-0.3c0.3,0,0.6,0,0.7,0.1c0.3,0.1,0.4,0.2,0.4,0.4
	c0,0.1,0,0.3-0.1,0.4c-0.1,0.1-0.2,0.2-0.3,0.2c0,0,0,0-0.1,0c-0.1,0-0.1,0-0.2,0c-0.1,0-0.3,0-0.4-0.1c-1.1,0-2.3,0.1-3.4,0.3
	c0,0.5,0,1,0,1.3h0.1c0.4,0,1,0,1.6-0.1c0.4-0.1,1.1-0.1,2-0.3c0.1-0.2,0.3-0.2,0.5-0.2c0.3,0,0.5,0.2,0.5,0.7
	c0,0.2-0.1,0.3-0.4,0.4c-0.3,0.1-1,0.2-2.1,0.4c-1.1,0.1-1.8,0.2-2.3,0.2c-0.3,0-0.5,0-0.5,0c-0.2-0.1-0.2-0.2-0.3-0.4
	c0,0,0-0.7-0.1-2.2L97.5,3c0-0.1,0-0.2,0.1-0.4c0.1-0.1,0.2-0.2,0.3-0.2c0.2,0,0.4,0,0.8,0c1.7-0.1,2.8-0.2,3.2-0.2
	c0.7,0,1.1,0.1,1.4,0.4C103.4,2.7,103.5,2.8,103.5,3z M96.8,7c0,0.1,0,0.3-0.1,0.4c-0.1,0.2-0.2,0.2-0.3,0.2c0,0-0.1,0-0.2-0.1
	c-0.1-0.1-0.2-0.1-0.3-0.1c-0.4,0-0.9,0-1.5,0.2c-0.8,0.1-1.3,0.2-1.5,0.2h0c-0.2,0-0.3-0.4-0.4-1.2c0-0.2,0-0.7-0.1-1.5
	c0-1.4-0.1-2.1-0.1-2.1c0-0.3,0-0.5,0-0.6c0.1-0.1,0.2-0.2,0.5-0.2c0.1,0,0.2,0,0.2,0.1c0,0.1,0.1,0.5,0.1,1.2c0,0.9,0,1.3,0,1.4
	l0.2,1.5c0,0,0,0.1,0,0.1c0.8-0.2,1.6-0.3,2.3-0.3c0.6,0,1,0.1,1.1,0.4C96.8,6.9,96.8,7,96.8,7z M91.3,7c0,0.1,0,0.3-0.1,0.4
	c-0.1,0.2-0.2,0.2-0.3,0.2c0,0-0.1,0-0.2-0.1c-0.1-0.1-0.2-0.1-0.3-0.1c-0.4,0-0.9,0-1.5,0.2c-0.8,0.1-1.3,0.2-1.5,0.2h0
	c-0.2,0-0.3-0.4-0.4-1.2c0-0.2,0-0.7-0.1-1.5c0-1.4-0.1-2.1-0.1-2.1c0-0.3,0-0.5,0-0.6c0.1-0.1,0.2-0.2,0.5-0.2c0.1,0,0.2,0,0.2,0.1
	c0.1,0.1,0.1,0.5,0.1,1.2c0,0.9,0,1.3,0,1.4l0.2,1.5c0,0,0,0.1,0,0.1c0.8-0.2,1.6-0.3,2.3-0.3c0.6,0,1,0.1,1.1,0.4
	C91.3,6.9,91.3,7,91.3,7z M84.6,5.4c-0.4-0.6-0.8-1.2-1.2-1.8c-0.2,0.4-0.7,1-1.4,1.8c0,0-0.1,0.1-0.1,0.1L84.6,5.4z M86.2,7
	c0,0.1,0,0.3-0.1,0.4c-0.1,0.2-0.2,0.3-0.3,0.3c-0.1,0-0.2-0.1-0.3-0.2c-0.1-0.1-0.2-0.2-0.2-0.3c0-0.1,0-0.2,0.1-0.4
	c-0.1-0.1-0.1-0.2-0.3-0.4c-0.9,0-2.3,0.1-4.2,0.3c-0.1,0.1-0.2,0.2-0.2,0.3c0.1,0.1,0.1,0.3,0.1,0.4c0,0.1-0.1,0.2-0.2,0.3
	c-0.1,0.1-0.2,0.2-0.3,0.2c-0.1,0-0.2-0.1-0.3-0.2C80,7.4,80,7.3,80,7.2c0-0.3,0.2-0.8,0.7-1.4c0.1-0.1,0.5-0.7,1.3-1.7
	c0.5-0.7,0.9-1.2,1-1.5c0.1-0.2,0.2-0.3,0.4-0.3c0.1,0,0.2,0,0.3,0.1c0.6,0.6,1.2,1.5,1.9,2.8c0,0.1,0.1,0.2,0.2,0.3
	c0,0,0.1,0.1,0.1,0.2c0.1,0.2,0.2,0.4,0.3,0.7C86.1,6.6,86.2,6.8,86.2,7z M78.5,6.2c-0.3-0.4-1.2-0.7-2.8-0.7c0.1,0-0.3,0-0.9,0
	l0.1,1.3c0.2,0,0.5,0,0.7,0c1.3,0,2.2-0.2,2.8-0.6C78.4,6.3,78.5,6.3,78.5,6.2z M78.3,3.6c-0.1-0.3-0.6-0.4-1.7-0.4
	c-0.6,0-1.2,0-1.9,0.1c0,0.3,0,0.7,0.1,1.3c1,0,1.9-0.2,2.6-0.5c0.2-0.1,0.4-0.2,0.5-0.2C78.2,3.7,78.3,3.6,78.3,3.6z M79.4,6.1
	c0,0.7-0.5,1.2-1.6,1.5c-0.6,0.2-1.5,0.3-2.4,0.3c-0.7,0-1.1,0-1.3-0.1c-0.1,0-0.1-0.1-0.1-0.3c0-0.1,0-0.3,0.1-0.4l-0.2-3.7
	c0,0,0,0-0.1,0c-0.2,0-0.3-0.1-0.3-0.4c0-0.2,0.1-0.4,0.2-0.5c0.3-0.2,1-0.3,2.4-0.3c2.1,0,3.1,0.4,3.1,1.3c0,0.5-0.4,0.9-1.1,1.3
	C78.9,5.1,79.4,5.5,79.4,6.1z M71.7,5.4c-0.4-0.6-0.8-1.2-1.2-1.8c-0.2,0.4-0.7,1-1.4,1.8c0,0-0.1,0.1-0.1,0.1L71.7,5.4z M73.3,7
	c0,0.1,0,0.3-0.1,0.4c-0.1,0.2-0.2,0.3-0.3,0.3c-0.1,0-0.2-0.1-0.3-0.2c-0.1-0.1-0.2-0.2-0.2-0.3c0-0.1,0-0.2,0.1-0.4
	c-0.1-0.1-0.1-0.2-0.3-0.4c-0.9,0-2.3,0.1-4.2,0.3c-0.1,0.1-0.2,0.2-0.2,0.3c0.1,0.1,0.1,0.3,0.1,0.4c0,0.1-0.1,0.2-0.2,0.3
	c-0.1,0.1-0.2,0.2-0.3,0.2c-0.1,0-0.2-0.1-0.3-0.2c-0.1-0.1-0.1-0.3-0.1-0.4c0-0.3,0.2-0.8,0.7-1.4c0.1-0.1,0.5-0.7,1.3-1.7
	c0.5-0.7,0.9-1.2,1-1.5c0.1-0.2,0.2-0.3,0.4-0.3c0.1,0,0.2,0,0.3,0.1c0.6,0.6,1.2,1.5,1.9,2.8c0,0.1,0.1,0.2,0.2,0.3
	c0,0,0.1,0.1,0.1,0.2c0.1,0.2,0.2,0.4,0.3,0.7C73.2,6.6,73.3,6.8,73.3,7z M66.6,6.4c0,0.1,0,0.1,0,0.2c-0.1,0.4-0.6,0.8-1.4,1
	c-0.7,0.2-1.3,0.3-1.9,0.3c-0.9,0-1.6-0.2-2.2-0.5c-0.7-0.4-1.1-1-1.1-1.8c0-0.6,0.2-1.2,0.6-1.8c0.4-0.6,0.9-1,1.5-1.4
	C62.8,2.2,63.4,2,64,2c0.3,0,0.6,0.1,0.9,0.2c0.3,0.2,0.6,0.4,0.7,0.6c0,0.1,0.1,0.2,0.1,0.4c0,0.2-0.1,0.3-0.2,0.4
	c-0.1,0.1-0.3,0.2-0.4,0.2c-0.1,0-0.2,0-0.3-0.1c-0.1-0.1-0.1-0.2-0.1-0.3c0-0.1,0-0.1,0-0.2C64.4,3.1,64.1,3,63.9,3
	c-0.6,0-1.3,0.3-2,0.8c-0.7,0.6-1.1,1.2-1.1,1.8c0,0.5,0.3,0.9,1,1.1c0.5,0.1,1,0.2,1.7,0.2c0.9,0,1.6-0.1,2-0.4
	c0-0.2,0.1-0.3,0.2-0.4C65.8,6,66,5.9,66.1,5.9c0.1,0,0.2,0,0.3,0.1C66.5,6.2,66.6,6.3,66.6,6.4z M55,7.1c0,0.2,0,0.3-0.1,0.4
	c-0.1,0.1-0.2,0.1-0.4,0.1c-0.6,0.1-0.9,0.1-1,0.1c-0.1,0-0.2,0-0.3-0.1c0-0.1-0.1-0.2-0.1-0.3c0-0.2,0-0.3,0.1-0.4
	c0.1-0.1,0.2-0.1,0.4-0.1c0.6-0.1,0.9-0.1,1-0.1c0.1,0,0.2,0,0.3,0.1C55,6.9,55,7,55,7.1z M52.4,7c0,0.1,0,0.3-0.1,0.4
	c-0.1,0.2-0.2,0.2-0.3,0.2c0,0-0.1,0-0.2-0.1c-0.1-0.1-0.2-0.1-0.3-0.1c-0.4,0-0.9,0-1.5,0.2c-0.8,0.1-1.3,0.2-1.5,0.2h0
	c-0.2,0-0.3-0.4-0.4-1.2c0-0.2,0-0.7-0.1-1.5c0-1.4-0.1-2.1-0.1-2.1c0-0.3,0-0.5,0-0.6c0.1-0.1,0.2-0.2,0.5-0.2c0.1,0,0.2,0,0.2,0.1
	c0,0.1,0.1,0.5,0.1,1.2c0,0.9,0,1.3,0,1.4l0.2,1.5c0,0,0,0.1,0,0.1c0.8-0.2,1.6-0.3,2.3-0.3c0.6,0,1,0.1,1.1,0.4
	C52.4,6.9,52.4,7,52.4,7z M45.6,5.4c-0.4-0.6-0.8-1.2-1.2-1.8c-0.2,0.4-0.7,1-1.4,1.8c0,0-0.1,0.1-0.1,0.1L45.6,5.4z M47.2,7
	c0,0.1,0,0.3-0.1,0.4c-0.1,0.2-0.2,0.3-0.3,0.3c-0.1,0-0.2-0.1-0.3-0.2c-0.1-0.1-0.2-0.2-0.2-0.3c0-0.1,0-0.2,0.1-0.4
	c-0.1-0.1-0.1-0.2-0.3-0.4c-0.9,0-2.3,0.1-4.2,0.3c-0.1,0.1-0.2,0.2-0.2,0.3c0.1,0.1,0.1,0.3,0.1,0.4c0,0.1-0.1,0.2-0.2,0.3
	c-0.1,0.1-0.2,0.2-0.3,0.2c-0.1,0-0.2-0.1-0.3-0.2C41.1,7.4,41,7.3,41,7.2c0-0.3,0.2-0.8,0.7-1.4c0.1-0.1,0.5-0.7,1.3-1.7
	c0.5-0.7,0.9-1.2,1-1.5c0.1-0.2,0.2-0.3,0.4-0.3c0.1,0,0.2,0,0.3,0.1c0.6,0.6,1.2,1.5,1.9,2.8c0,0.1,0.1,0.2,0.2,0.3
	c0,0,0.1,0.1,0.1,0.2c0.1,0.2,0.2,0.4,0.3,0.7C47.2,6.6,47.2,6.8,47.2,7z M39.5,3.6c-0.1-0.3-0.6-0.5-1.6-0.5c-0.6,0-1.2,0-1.9,0.1
	c0,0.8,0,1.5,0.1,1.9c0.9,0,1.7-0.2,2.4-0.6C39.2,4.3,39.5,3.9,39.5,3.6L39.5,3.6z M40.6,7c0,0.2-0.1,0.4-0.2,0.5
	c-0.1,0.1-0.3,0.2-0.5,0.2c-0.2,0-0.5-0.1-0.8-0.2c-0.3-0.1-0.5-0.3-0.8-0.4c-0.6-0.3-0.9-0.4-1.1-0.5c-0.4-0.2-0.8-0.3-1.1-0.3
	c0,0.1,0,0.2,0,0.5c0,0.2,0,0.4,0,0.5c0,0.2,0,0.4-0.1,0.5c-0.1,0.1-0.2,0.2-0.4,0.2c-0.1,0-0.2,0-0.3-0.1c0-0.1-0.1-0.8-0.1-2.1
	c0-0.8-0.1-1.6-0.1-2.3h0c-0.2,0-0.3-0.1-0.3-0.4c0-0.2,0-0.4,0.1-0.5c0.1-0.1,0.5-0.2,1.2-0.2c0.5-0.1,0.9-0.1,1.3-0.1
	c0.7,0,1.3,0.1,1.8,0.2C40,2.6,40.3,3,40.3,3.5c0,0.3-0.1,0.7-0.4,1c-0.4,0.5-1,1-1.9,1.3C38.4,6,38.7,6.2,39,6.3
	c0.4,0.2,0.7,0.3,0.9,0.4c0.1-0.1,0.2-0.1,0.3-0.1C40.5,6.5,40.6,6.7,40.6,7z M34.3,4.7c0,0.2,0,0.5,0,0.9c0,0.4,0,0.7,0,0.9l0,0
	c0,0.3-0.5,0.6-1.3,0.8c-0.5,0.2-1.1,0.3-1.6,0.4c-0.4,0.1-0.9,0.1-1.3,0.1c-0.8,0-1.4-0.1-1.9-0.4c-0.6-0.3-0.9-0.9-0.9-1.6
	c0-0.5,0.2-1.1,0.6-1.7c0.4-0.6,0.8-1,1.4-1.4c0.6-0.4,1.2-0.6,1.7-0.6c0.3,0,0.5,0.1,0.7,0.2c0.2,0.1,0.4,0.3,0.5,0.6
	c0,0,0,0.1,0,0.1c0,0.1,0,0.2-0.1,0.3c-0.1,0.2-0.2,0.3-0.3,0.3c-0.1,0.1-0.2,0.1-0.4,0.1c-0.1,0-0.2,0-0.3-0.1
	c-0.1-0.1-0.1-0.2-0.1-0.3c0-0.1,0-0.1,0-0.2c-0.1,0-0.1,0-0.2,0c-0.5,0-1.1,0.3-1.8,0.9c-0.7,0.6-1,1.2-1,1.7c0,0.5,0.3,0.8,1,1
	c0.4,0.1,0.9,0.2,1.5,0.2c0.4,0,0.9,0,1.3-0.1c0.5-0.1,1-0.3,1.3-0.5c0.2-0.1,0.2-0.3,0.3-0.5c0-0.1,0-0.3,0-0.6
	c-0.5,0.1-1.3,0.2-2.3,0.4C31,5.9,30.7,6,30.5,6c-0.2,0-0.3,0-0.3-0.1S30,5.8,30,5.7c0-0.2-0.1-0.3-0.1-0.4c0-0.1,0-0.2,0.1-0.3
	c0.1-0.1,0.7-0.3,1.8-0.5c1-0.2,1.7-0.3,2-0.3C34.1,4.2,34.3,4.4,34.3,4.7z"/>
<path class="st2" d="M103.4,23.5c0.2,0.1,0.3,0.2,0.3,0.3c-0.1,1.5-0.2,2.9-0.3,4.1c0,0.5-0.1,1-0.1,1.5c0,0.5-0.1,0.9-0.1,1.3
	c0,0.4-0.1,0.7-0.1,1c0,0.2,0,0.4-0.1,0.4c0,0-0.1,0.1-0.2,0.1c-0.1,0-0.2,0-0.4,0c-0.1,0-0.3-0.1-0.4-0.2c-0.1-0.1-0.2-0.2-0.3-0.3
	c0-0.1-0.1-0.2-0.1-0.5c0-0.3-0.1-0.6-0.1-1s0-0.9,0-1.3c0-0.5,0-1,0-1.5c0-0.5,0-1,0-1.4c0-0.5,0-0.8,0-1.2
	c-0.2,0.1-0.4,0.2-0.6,0.3c-0.2,0.1-0.4,0.2-0.6,0.3c-0.2,0.1-0.3,0.1-0.4,0s-0.2-0.1-0.3-0.3s-0.1-0.2-0.1-0.4
	c0-0.1,0.1-0.2,0.3-0.3c0.6-0.3,1.1-0.6,1.7-0.9c0.5-0.3,1.1-0.7,1.6-1c0.1-0.1,0.3-0.1,0.4-0.1c0.1,0,0.2,0.1,0.3,0.2
	c0.1,0.1,0.1,0.3,0.1,0.4c0,0.1-0.1,0.3-0.2,0.4C103.5,23.5,103.5,23.5,103.4,23.5C103.5,23.5,103.4,23.5,103.4,23.5 M99,25.7
	c-0.1,0.6-0.3,1.1-0.7,1.6c-0.4,0.5-0.8,0.9-1.3,1.3c0.3,0.1,0.6,0.2,0.9,0.4c0.2,0.2,0.4,0.5,0.5,0.8c0.1,0.3,0.1,0.6,0,0.9
	s-0.3,0.6-0.5,0.8c-0.3,0.2-0.6,0.4-1,0.5c-0.4,0.1-0.7,0.2-1.1,0.2c-0.1,0-0.3,0-0.4,0c-0.1,0-0.3,0-0.4,0c-0.1,0-0.3,0-0.4-0.1
	c-0.1,0-0.2-0.1-0.2-0.1c0,0-0.1-0.1-0.1-0.1c0-0.1,0-0.1,0-0.2c0-0.1,0-0.2,0.1-0.2s0.1-0.1,0.2-0.1c0,0,0.1,0,0.2,0
	c0.1,0,0.2,0,0.3,0c0.3,0,0.7,0,1-0.1c0.4-0.1,0.7-0.2,0.9-0.4c0.1-0.1,0.2-0.3,0.2-0.4c0-0.1-0.1-0.2-0.3-0.3
	c-0.1-0.1-0.3-0.1-0.4-0.1c-0.2,0-0.3-0.1-0.5-0.1c-0.2,0-0.3,0-0.5,0c-0.2,0-0.3,0-0.5,0.1c-0.1,0-0.3,0-0.4-0.1
	c-0.1-0.1-0.1-0.3-0.2-0.5s0-0.4,0.1-0.5c0.1-0.2,0.1-0.3,0.3-0.3c0.3-0.1,0.5-0.3,0.8-0.5s0.6-0.4,0.8-0.6c0.2-0.2,0.5-0.5,0.6-0.8
	c0.2-0.3,0.3-0.6,0.3-0.9c0-0.4,0-0.7-0.2-0.9s-0.4-0.3-0.7-0.4s-0.6-0.1-0.9,0s-0.6,0.1-0.8,0.2c-0.1,0-0.1,0-0.2,0
	c-0.1,0-0.1-0.1-0.2-0.1c-0.1-0.1-0.1-0.1-0.2-0.2c0,0-0.1-0.1-0.1-0.1c0,0-0.1-0.1-0.1-0.2c0-0.1-0.1-0.1-0.1-0.3
	c0-0.1-0.1-0.2-0.1-0.3c0-0.1,0-0.2,0.1-0.3c0-0.1,0.2-0.2,0.3-0.2c0.2-0.1,0.4-0.1,0.6-0.1s0.4,0,0.6,0s0.4,0,0.5,0
	c0.4,0,0.8,0.1,1.2,0.3s0.7,0.4,1,0.6c0.3,0.3,0.5,0.6,0.6,0.9S99,25.2,99,25.7z M92.9,22.9c0.1,0,0.3,0,0.4,0.1
	c0.2,0.1,0.3,0.1,0.5,0.2s0.2,0.2,0.3,0.4c0.1,0.1,0,0.3-0.1,0.4c-0.6,1-1.1,2.1-1.7,3.2c-0.5,1.1-1,2.2-1.6,3.4
	c-0.2,0.4-0.3,0.7-0.5,0.9c-0.1,0.2-0.2,0.4-0.3,0.4C90,32,89.9,32,89.7,32.1c-0.1,0-0.3,0-0.4,0c-0.1,0-0.3,0-0.4-0.1
	c-0.1,0-0.2-0.1-0.2-0.2c0,0,0-0.2,0.1-0.5c0.1-0.3,0.2-0.6,0.4-1.1c0.4-1.1,0.8-2.2,1.2-3.2c0.4-1,0.9-2.1,1.4-3.2
	c-0.5,0-1,0-1.5-0.1c-0.5,0-1,0-1.5-0.1c-0.2,0-0.3-0.1-0.4-0.2c-0.1-0.1-0.1-0.2-0.1-0.4c0-0.1,0-0.3,0.1-0.4
	c0.1-0.1,0.2-0.2,0.4-0.2c0.7,0,1.4,0,2,0.1C91.6,22.8,92.2,22.8,92.9,22.9z M82.9,27.6c0.2,0.1,0.3,0.2,0.5,0.4s0.3,0.3,0.3,0.5
	c0,0.4,0,0.8-0.1,1.2c-0.1,0.4-0.3,0.8-0.5,1.1c-0.2,0.3-0.5,0.6-0.8,0.9s-0.7,0.4-1.1,0.4c-0.5,0-0.9,0-1.2-0.2
	c-0.4-0.2-0.7-0.5-0.9-0.9c-0.3-0.5-0.5-1-0.7-1.6s-0.2-1.3-0.3-2c0-0.7,0.1-1.3,0.2-2c0.2-0.6,0.4-1.2,0.8-1.7
	c0.2-0.3,0.5-0.6,0.8-0.8c0.3-0.2,0.7-0.3,1.2-0.3c0.4,0,0.8,0.1,1.1,0.2s0.6,0.4,0.8,0.6c0.2,0.3,0.4,0.6,0.5,0.9
	c0.1,0.3,0.2,0.7,0.3,1c0.1,0.3,0.1,0.7,0,1c0,0.3-0.1,0.6-0.1,0.8c-0.1,0.2-0.2,0.3-0.3,0.4C83.2,27.6,83.1,27.6,82.9,27.6
	c-0.1-0.1-0.3-0.1-0.4-0.2c-0.1-0.1-0.2-0.2-0.3-0.4c0,0,0,0,0,0s0,0,0-0.1c0,0,0,0,0-0.1c0-0.3,0-0.7,0-1c0-0.3,0-0.6-0.1-0.9
	c-0.1-0.3-0.2-0.5-0.3-0.6c-0.2-0.2-0.4-0.2-0.6-0.2c-0.3,0-0.5,0.1-0.7,0.3c-0.2,0.2-0.3,0.5-0.5,0.8c-0.1,0.3-0.2,0.7-0.3,1.1
	c-0.1,0.4-0.1,0.8-0.1,1.3c0,0.4,0,0.8,0.1,1.2c0.1,0.4,0.1,0.7,0.2,1c0.1,0.4,0.3,0.6,0.5,0.8c0.2,0.2,0.4,0.2,0.7,0.2
	c0.2,0,0.4-0.2,0.6-0.4c0.2-0.3,0.4-0.6,0.5-1.1c0.1-0.3,0.1-0.6,0.1-0.9c0-0.3,0-0.5,0-0.7c0-0.1,0.1-0.2,0.2-0.2
	C82.7,27.6,82.8,27.6,82.9,27.6z M73.1,26.8c-0.2,0.3-0.4,0.7-0.5,1.1c-0.1,0.4-0.1,0.8-0.1,1.2s0.2,0.7,0.4,1
	c0.2,0.3,0.5,0.4,0.9,0.5c0.2,0,0.4,0,0.6-0.1c0.2-0.1,0.4-0.2,0.6-0.3c0.2-0.2,0.4-0.3,0.5-0.5c0.1-0.2,0.2-0.4,0.3-0.7
	c0.1-0.3,0.1-0.6,0-0.8s-0.2-0.4-0.4-0.6c-0.2-0.1-0.4-0.3-0.6-0.3c-0.2-0.1-0.5-0.1-0.8-0.1c-0.2,0-0.3,0-0.4,0S73.5,27,73.4,27
	c0,0-0.1-0.1-0.1-0.1C73.2,26.9,73.2,26.9,73.1,26.8z M75.2,25.8c0.5,0.2,0.9,0.5,1.2,0.8c0.3,0.3,0.5,0.7,0.6,1.1s0.2,0.9,0.1,1.3
	c0,0.5-0.2,0.9-0.4,1.3c-0.3,0.5-0.6,0.9-1,1.2c-0.4,0.3-0.8,0.4-1.3,0.5c-0.5,0.1-0.9,0-1.4-0.1c-0.5-0.1-0.9-0.3-1.2-0.6
	c-0.4-0.3-0.6-0.6-0.9-1.1c-0.2-0.4-0.3-0.9-0.3-1.4c0-0.5,0.1-1.1,0.4-1.7c0.2-0.6,0.5-1.2,0.9-1.7c0.3-0.6,0.7-1.1,1.2-1.6
	c0.4-0.5,0.9-0.9,1.3-1.2c0.3-0.2,0.5-0.2,0.7-0.1c0.1,0.1,0.2,0.2,0.1,0.4c0,0-0.1,0.2-0.2,0.3s-0.2,0.4-0.4,0.6
	c-0.2,0.2-0.3,0.5-0.5,0.8c-0.2,0.3-0.3,0.6-0.5,0.8c0.3,0,0.5,0,0.8,0.1C74.7,25.6,75,25.7,75.2,25.8z M68,26.5
	c0.1,0,0.3,0.1,0.4,0.3c0,0.1,0,0.1,0.1,0.2c0.2-0.3,0.3-0.7,0.3-1c0-0.3,0-0.6-0.1-0.9c-0.1-0.1-0.2-0.3-0.3-0.4
	c-0.1-0.1-0.3-0.2-0.4-0.3c-0.2-0.1-0.3-0.2-0.5-0.2c-0.2,0-0.4,0-0.5,0c-0.3,0-0.5,0.1-0.6,0.3s-0.2,0.3-0.2,0.5
	c0,0.2,0.1,0.4,0.2,0.6c0.1,0.2,0.3,0.4,0.5,0.5c0.2,0.1,0.4,0.2,0.5,0.3s0.4,0.1,0.6,0.1C67.9,26.5,68,26.5,68,26.5L68,26.5z
	 M68.3,27.9c-0.5,0-1,0-1.4-0.1c-0.5-0.1-0.8-0.3-1.2-0.5c-0.3-0.2-0.6-0.5-0.8-0.9c-0.2-0.4-0.2-0.8-0.2-1.3
	c0.1-0.6,0.3-1.1,0.6-1.5c0.3-0.4,0.7-0.7,1.1-0.8s0.9-0.2,1.4-0.2c0.5,0,0.9,0.2,1.3,0.4c0.4,0.2,0.7,0.6,1,1s0.4,0.9,0.4,1.5
	c0,0.4-0.1,1-0.4,1.6c-0.3,0.6-0.6,1.2-1,1.8c-0.4,0.6-0.8,1.2-1.3,1.7c-0.5,0.5-0.9,1-1.3,1.4c-0.2,0.2-0.3,0.2-0.4,0.2
	s-0.2,0-0.4-0.1s-0.2-0.1-0.3-0.2c-0.1-0.1-0.1-0.2,0-0.3c0.3-0.2,0.5-0.5,0.8-0.8c0.3-0.3,0.5-0.6,0.8-0.9c0.2-0.3,0.5-0.6,0.7-1
	C67.9,28.6,68.1,28.3,68.3,27.9z M59.9,23.5c0.2,0.1,0.3,0.2,0.3,0.3c-0.1,1.5-0.2,2.9-0.3,4.1c0,0.5-0.1,1-0.1,1.5
	c0,0.5-0.1,0.9-0.1,1.3s-0.1,0.7-0.1,1c0,0.2,0,0.4-0.1,0.4c0,0-0.1,0.1-0.2,0.1s-0.2,0-0.4,0c-0.1,0-0.3-0.1-0.4-0.2
	s-0.2-0.2-0.3-0.3c0-0.1-0.1-0.2-0.1-0.5s-0.1-0.6-0.1-1s0-0.9,0-1.3c0-0.5,0-1,0-1.5c0-0.5,0-1,0-1.4c0-0.5,0-0.8,0-1.2
	c-0.2,0.1-0.4,0.2-0.6,0.3c-0.2,0.1-0.4,0.2-0.6,0.3c-0.2,0.1-0.3,0.1-0.4,0s-0.2-0.1-0.3-0.3s-0.1-0.2-0.1-0.4
	c0-0.1,0.1-0.2,0.3-0.3c0.6-0.3,1.1-0.6,1.7-0.9c0.5-0.3,1.1-0.7,1.6-1c0.1-0.1,0.3-0.1,0.4-0.1c0.1,0,0.2,0.1,0.3,0.2
	c0.1,0.1,0.1,0.3,0.1,0.4c0,0.1-0.1,0.3-0.2,0.4C60,23.5,60,23.5,59.9,23.5C60,23.5,60,23.5,59.9,23.5z M50.8,27.8
	c-0.2,0.2-0.4,0.5-0.6,0.9c-0.1,0.4-0.2,0.8-0.1,1.1c0,0.2,0.1,0.4,0.3,0.6c0.1,0.2,0.3,0.3,0.5,0.4c0.2,0.1,0.4,0.2,0.7,0.2
	s0.4,0,0.6,0c0.2-0.1,0.4-0.1,0.5-0.3s0.2-0.3,0.2-0.6c0-0.3-0.1-0.6-0.2-0.8s-0.3-0.4-0.5-0.6s-0.4-0.3-0.7-0.5S51,27.9,50.8,27.8z
	 M53.8,27.7c0-0.1-0.1-0.1-0.1-0.2c0-0.1,0-0.1,0-0.2c0-0.1,0-0.1,0-0.2c0-0.1,0.1-0.2,0.1-0.3c0.2-0.4,0.4-0.8,0.5-1.1
	c0.1-0.3,0.2-0.6,0.2-0.9c0-0.3-0.1-0.5-0.3-0.7c-0.2-0.2-0.4-0.3-0.7-0.3c-0.3-0.1-0.6-0.1-0.9,0c-0.3,0.1-0.6,0.2-0.9,0.3
	c-0.4,0.3-0.7,0.5-0.8,0.7c-0.1,0.2-0.1,0.5,0,0.7c0.1,0.2,0.3,0.4,0.5,0.7c0.2,0.2,0.5,0.4,0.8,0.6c0.3,0.2,0.6,0.4,0.9,0.5
	s0.5,0.3,0.7,0.4C53.8,27.8,53.8,27.7,53.8,27.7z M49.8,24c0.3-0.3,0.6-0.5,1-0.7c0.4-0.2,0.8-0.3,1.3-0.4c0.5-0.1,0.9-0.1,1.4,0
	c0.5,0.1,0.9,0.2,1.2,0.4c0.3,0.2,0.6,0.5,0.8,0.9c0.2,0.4,0.2,0.8,0.1,1.4c0,0.2-0.1,0.4-0.2,0.6c-0.1,0.2-0.2,0.5-0.3,0.7
	c-0.1,0.2-0.2,0.4-0.4,0.6c-0.1,0.2-0.3,0.4-0.4,0.5C54.3,28,54.2,28,54.1,28c0.2,0.2,0.3,0.3,0.4,0.5c0.1,0.2,0.2,0.3,0.3,0.5
	c0.2,0.5,0.2,0.9,0,1.3c-0.2,0.4-0.4,0.7-0.7,1s-0.7,0.5-1.2,0.6C52.5,32,52.1,32,51.7,32c-0.3,0-0.6,0-0.9-0.1
	c-0.3-0.1-0.5-0.1-0.8-0.3c-0.2-0.1-0.5-0.3-0.6-0.4c-0.2-0.2-0.3-0.4-0.4-0.6c-0.1-0.3-0.2-0.6-0.2-0.9c0-0.3,0-0.6,0.1-0.9
	c0.1-0.3,0.2-0.6,0.3-0.9c0.1-0.3,0.3-0.6,0.4-0.8c-0.2-0.2-0.3-0.5-0.3-0.8c-0.1-0.3-0.1-0.6-0.1-0.8c0-0.3,0.1-0.5,0.2-0.8
	C49.5,24.4,49.7,24.2,49.8,24z M46,26.5c0.1,0,0.3,0.1,0.4,0.3c0,0.1,0,0.1,0.1,0.2c0.2-0.3,0.3-0.7,0.3-1c0-0.3,0-0.6-0.1-0.9
	c-0.1-0.1-0.2-0.3-0.3-0.4c-0.1-0.1-0.3-0.2-0.5-0.3c-0.2-0.1-0.3-0.2-0.5-0.2c-0.2,0-0.4,0-0.5,0c-0.3,0-0.5,0.1-0.6,0.3
	c-0.1,0.2-0.2,0.3-0.2,0.5s0.1,0.4,0.2,0.6c0.1,0.2,0.3,0.4,0.5,0.5c0.2,0.1,0.4,0.2,0.5,0.3s0.4,0.1,0.6,0.1
	C45.9,26.5,45.9,26.5,46,26.5L46,26.5z M46.2,27.9c-0.5,0-1,0-1.4-0.1s-0.8-0.3-1.2-0.5c-0.3-0.2-0.6-0.5-0.8-0.9
	c-0.2-0.4-0.2-0.8-0.2-1.3c0.1-0.6,0.3-1.1,0.6-1.5c0.3-0.4,0.7-0.7,1.1-0.8s0.9-0.2,1.4-0.2c0.5,0,0.9,0.2,1.3,0.4
	c0.4,0.2,0.7,0.6,1,1c0.3,0.4,0.4,0.9,0.4,1.5c0,0.4-0.1,1-0.4,1.6s-0.6,1.2-1,1.8c-0.4,0.6-0.8,1.2-1.3,1.7s-0.9,1-1.3,1.4
	c-0.2,0.2-0.3,0.2-0.4,0.2c-0.1,0-0.2,0-0.4-0.1s-0.2-0.1-0.3-0.2c-0.1-0.1-0.1-0.2,0-0.3c0.3-0.2,0.5-0.5,0.8-0.8
	c0.3-0.3,0.5-0.6,0.8-0.9c0.2-0.3,0.5-0.6,0.7-1C45.9,28.6,46.1,28.3,46.2,27.9z M41.1,27.6c0.2,0.1,0.3,0.2,0.5,0.4
	s0.3,0.3,0.3,0.5c0,0.4,0,0.8-0.1,1.2c-0.1,0.4-0.3,0.8-0.5,1.1c-0.2,0.3-0.5,0.6-0.8,0.9s-0.7,0.4-1.1,0.4c-0.4,0-0.9,0-1.2-0.2
	c-0.4-0.2-0.7-0.5-0.9-0.9c-0.3-0.5-0.5-1-0.7-1.6s-0.2-1.3-0.3-2c0-0.7,0.1-1.3,0.2-2c0.2-0.6,0.4-1.2,0.8-1.7
	c0.2-0.3,0.5-0.6,0.8-0.8c0.3-0.2,0.7-0.3,1.2-0.3c0.4,0,0.8,0.1,1.1,0.2s0.6,0.4,0.8,0.6c0.2,0.3,0.4,0.6,0.5,0.9
	c0.1,0.3,0.2,0.7,0.3,1c0.1,0.3,0.1,0.7,0,1c0,0.3-0.1,0.6-0.1,0.8c-0.1,0.2-0.2,0.3-0.3,0.4C41.5,27.6,41.3,27.6,41.1,27.6
	c-0.1-0.1-0.3-0.1-0.4-0.2c-0.1-0.1-0.2-0.2-0.3-0.4c0,0,0,0,0,0s0,0,0-0.1c0,0,0,0,0-0.1c0-0.3,0-0.7,0-1c0-0.3,0-0.6-0.1-0.9
	c-0.1-0.3-0.2-0.5-0.3-0.6c-0.2-0.2-0.4-0.2-0.6-0.2c-0.3,0-0.5,0.1-0.7,0.3c-0.2,0.2-0.3,0.5-0.5,0.8c-0.1,0.3-0.2,0.7-0.3,1.1
	c-0.1,0.4-0.1,0.8-0.1,1.3c0,0.4,0,0.8,0.1,1.2c0.1,0.4,0.1,0.7,0.2,1c0.1,0.4,0.3,0.6,0.5,0.8c0.2,0.2,0.4,0.2,0.7,0.2
	c0.2,0,0.4-0.2,0.6-0.4s0.4-0.6,0.5-1.1c0.1-0.3,0.1-0.6,0.1-0.9c0-0.3,0-0.5,0-0.7c0-0.1,0.1-0.2,0.2-0.2
	C40.9,27.6,41,27.6,41.1,27.6z"/>
<path class="st3" d="M26.8,31.6c-1,0-1.8-0.3-2.6-0.8l-1.8,0.6l0.6-1.7c-0.6-0.8-0.9-1.7-0.9-2.7c0-0.2,0-0.3,0-0.4
	c0.2-2.4,2.2-4.2,4.7-4.2c2.5,0,4.5,1.9,4.7,4.3c0,0.1,0,0.2,0,0.4C31.5,29.5,29.4,31.6,26.8,31.6 M29.3,28
	c-0.1-0.1-0.8-0.4-0.9-0.4c-0.1,0-0.2-0.1-0.3,0.1c-0.1,0.1-0.4,0.4-0.4,0.5c-0.1,0.1-0.2,0.1-0.3,0c-0.1-0.1-0.6-0.2-1.1-0.7
	c-0.4-0.4-0.7-0.8-0.8-0.9c-0.1-0.1,0-0.2,0.1-0.3c0.1-0.1,0.1-0.2,0.2-0.2c0,0,0,0,0-0.1c0-0.1,0.1-0.1,0.1-0.2c0-0.1,0-0.2,0-0.2
	c0-0.1-0.3-0.7-0.4-1c-0.1-0.3-0.2-0.2-0.3-0.2c-0.1,0-0.2,0-0.3,0c-0.1,0-0.2,0-0.4,0.2C24.4,24.7,24,25,24,25.7
	c0,0.2,0,0.3,0.1,0.5c0.1,0.5,0.4,0.9,0.5,0.9c0.1,0.1,0.9,1.5,2.3,2.1c1.4,0.5,1.4,0.4,1.7,0.3s0.8-0.3,0.9-0.6
	c0.1-0.3,0.1-0.6,0.1-0.6C29.6,28.1,29.5,28.1,29.3,28z M32.4,26.8c-0.1-3-2.5-5.4-5.6-5.4c-3,0-5.5,2.3-5.6,5.3c0,0.1,0,0.2,0,0.2
	c0,1,0.3,2,0.8,2.9l-1,3l3.1-1c0.8,0.4,1.7,0.7,2.7,0.7c3.1,0,5.6-2.5,5.6-5.6C32.4,26.8,32.4,26.8,32.4,26.8z"/>
<path class="st2" d="M153.5,10.1c0,0.2-0.1,0.3-0.2,0.5c-0.1,0.1-0.3,0.2-0.5,0.2c-0.1,0-0.3,0-0.4-0.1l-1,0.1
	c0.1,0.9,0.1,2.3,0.2,4.1v0c0,0.2,0,0.3-0.1,0.4c-0.1,0.1-0.2,0.1-0.4,0.1c-0.1,0-0.2,0-0.2-0.1c0-0.1-0.1-0.8-0.1-2.1
	c0-0.8-0.1-1.6-0.1-2.4l-1,0.1c-0.1,0.1-0.3,0.2-0.5,0.2c-0.1,0-0.2,0-0.3-0.1c-0.1-0.1-0.1-0.2-0.1-0.3c0,0,0-0.1,0-0.1
	c0-0.3,0.1-0.5,0.1-0.5c0.1-0.1,0.2-0.2,0.4-0.2l3.8-0.3c0.2,0,0.3,0,0.4,0.1C153.4,9.7,153.5,9.9,153.5,10.1 M148.2,14.8
	c0,0.2-0.1,0.3-0.2,0.4c-0.1,0.1-0.3,0.2-0.5,0.2c-0.1,0-0.2,0-0.3-0.1c-0.1-0.1-0.1-0.2-0.1-0.3c0-0.1,0-0.1,0-0.2
	c0-0.4-0.1-1.9-0.2-4.4c0,0,0-0.1,0-0.1c0-0.2,0.1-0.3,0.2-0.4c0.1-0.1,0.3-0.2,0.4-0.2c0.1,0,0.2,0,0.3,0.1
	c0.1,0.1,0.1,0.2,0.1,0.3c0,0.2-0.1,0.3-0.3,0.5c0,0.9,0.1,2.2,0.2,3.9C148.1,14.5,148.2,14.7,148.2,14.8z M145.8,9.9
	c0,0.1,0,0.1,0,0.2c0,0.1-0.1,1.3-0.2,3.4c0,0.3,0,0.6,0,1.2c0,0.3-0.2,0.4-0.5,0.4c-0.1,0-0.2-0.1-0.3-0.2
	c-0.1-0.3-0.3-0.6-0.6-0.9c-0.2-0.2-0.6-0.6-1.2-1.1c-0.5-0.5-0.9-0.8-1.1-1.1c0,0.2,0,0.5,0,0.9c0,0.5,0,0.8,0,0.9
	c0,0.1,0,0.3,0,0.6c0,0.3,0,0.5,0,0.6c0,0.2,0,0.4-0.1,0.4c-0.1,0.1-0.2,0.1-0.4,0.1c-0.1,0-0.2,0-0.3-0.1c0-0.1-0.1-0.4-0.1-1.1
	c0-0.3,0-0.8,0-1.4c0-0.7,0-1.2,0-1.4c0-0.1,0-0.3,0-0.6c0-0.3,0-0.5,0-0.6c0-0.3,0.2-0.4,0.5-0.4c0.2,0,0.3,0.1,0.3,0.3
	c0,0.2,0.2,0.4,0.5,0.8c0.2,0.2,0.6,0.6,1.2,1.2c0.5,0.5,0.9,0.9,1.2,1.2c0-0.3,0-0.8,0.1-1.4c0-0.6,0.1-1.1,0.1-1.4
	c-0.2-0.1-0.3-0.2-0.3-0.3c0-0.2,0.1-0.3,0.2-0.4s0.3-0.2,0.5-0.2C145.6,9.5,145.8,9.7,145.8,9.9z M139.8,10.4
	c0,0.1-0.1,0.2-0.2,0.4c-0.1,0.1-0.2,0.2-0.3,0.2c-0.1,0-0.3,0-0.4-0.1c-0.2-0.1-0.2-0.2-0.2-0.3c-0.2,0-0.3,0-0.5,0
	c-0.5,0-1,0-1.8,0.1c-0.9,0.1-1.5,0.1-1.8,0.1c0,0.4,0,0.8,0,1.2c1.1-0.2,2.2-0.3,3.4-0.3c0.3,0,0.6,0,0.7,0.1
	c0.3,0.1,0.4,0.2,0.4,0.4c0,0.1,0,0.3-0.1,0.4c-0.1,0.1-0.2,0.2-0.3,0.2c0,0,0,0-0.1,0c-0.1,0-0.1,0-0.2,0c-0.1,0-0.3,0-0.4-0.1
	c-1.1,0-2.3,0.1-3.4,0.3c0,0.5,0,1,0,1.3h0.1c0.4,0,1,0,1.6-0.1c0.4-0.1,1.1-0.1,2-0.3c0.1-0.2,0.3-0.2,0.5-0.2
	c0.3,0,0.5,0.2,0.5,0.7c0,0.2-0.1,0.3-0.4,0.4c-0.3,0.1-1,0.2-2.1,0.4c-1.1,0.1-1.8,0.2-2.3,0.2c-0.3,0-0.5,0-0.5,0
	c-0.2-0.1-0.2-0.2-0.3-0.4c0,0,0-0.7-0.1-2.2l-0.1-2.2c0-0.1,0-0.2,0.1-0.4c0.1-0.1,0.2-0.2,0.3-0.2c0.2,0,0.4,0,0.8,0
	c1.7-0.1,2.8-0.2,3.2-0.2c0.7,0,1.1,0.1,1.4,0.4C139.7,10.2,139.8,10.3,139.8,10.4z M131.9,13.7c-0.3-0.4-1.2-0.7-2.8-0.7
	c0.1,0-0.3,0-0.9,0l0.1,1.3c0.2,0,0.5,0,0.7,0c1.3,0,2.2-0.2,2.8-0.6C131.8,13.7,131.8,13.7,131.9,13.7z M131.7,11
	c-0.1-0.3-0.6-0.4-1.7-0.4c-0.6,0-1.2,0-1.9,0.1c0,0.3,0,0.7,0.1,1.3c1-0.1,1.9-0.2,2.6-0.5c0.2-0.1,0.4-0.2,0.5-0.2
	C131.5,11.2,131.7,11.1,131.7,11z M132.7,13.6c0,0.7-0.5,1.2-1.6,1.5c-0.6,0.2-1.5,0.3-2.4,0.3c-0.7,0-1.1,0-1.3-0.1
	c-0.1,0-0.1-0.1-0.1-0.3c0-0.1,0-0.3,0.1-0.4l-0.2-3.7c0,0,0,0-0.1,0c-0.2,0-0.3-0.1-0.3-0.4c0-0.2,0.1-0.4,0.2-0.5
	c0.3-0.2,1-0.3,2.4-0.3c2.1,0,3.1,0.4,3.1,1.3c0,0.5-0.4,0.9-1.1,1.3C132.3,12.6,132.7,13,132.7,13.6z M121.9,14.6
	c0,0.2,0,0.3-0.1,0.4c-0.1,0.1-0.2,0.1-0.4,0.1c-0.6,0.1-0.9,0.1-1,0.1c-0.1,0-0.2,0-0.3-0.1c0-0.1-0.1-0.2-0.1-0.3
	c0-0.2,0-0.3,0.1-0.4c0.1-0.1,0.2-0.1,0.4-0.1c0.6-0.1,0.9-0.1,1-0.1c0.1,0,0.3,0,0.3,0.1C121.9,14.3,121.9,14.4,121.9,14.6z
	 M119,10.4c0,0.1-0.1,0.2-0.2,0.4c-0.1,0.1-0.2,0.2-0.3,0.2c-0.1,0-0.3,0-0.4-0.1c-0.2-0.1-0.2-0.2-0.2-0.3c-0.2,0-0.3,0-0.5,0
	c-0.5,0-1,0-1.8,0.1c-0.9,0.1-1.5,0.1-1.8,0.1c0,0.4,0,0.8,0,1.2c1.1-0.2,2.2-0.3,3.4-0.3c0.3,0,0.6,0,0.7,0.1
	c0.3,0.1,0.4,0.2,0.4,0.4c0,0.1,0,0.3-0.1,0.4c-0.1,0.1-0.2,0.2-0.3,0.2c0,0,0,0-0.1,0c-0.1,0-0.1,0-0.2,0c-0.1,0-0.3,0-0.4-0.1
	c-1.1,0-2.3,0.1-3.4,0.3c0,0.5,0,1,0,1.3h0.1c0.4,0,1,0,1.6-0.1c0.4-0.1,1.1-0.1,2-0.3c0.1-0.2,0.3-0.2,0.5-0.2
	c0.3,0,0.5,0.2,0.5,0.7c0,0.2-0.1,0.3-0.4,0.4s-1,0.2-2.1,0.4c-1.1,0.1-1.8,0.2-2.3,0.2c-0.3,0-0.5,0-0.5,0
	c-0.2-0.1-0.2-0.2-0.3-0.4c0,0,0-0.7-0.1-2.2l-0.1-2.2c0-0.1,0-0.2,0.1-0.4c0.1-0.1,0.2-0.2,0.3-0.2c0.2,0,0.4,0,0.8,0
	c1.7-0.1,2.8-0.2,3.2-0.2c0.7,0,1.1,0.1,1.4,0.4C118.9,10.2,119,10.3,119,10.4z M112.5,10.1c0,0.2-0.1,0.3-0.2,0.5
	c-0.1,0.1-0.3,0.2-0.5,0.2c-0.1,0-0.3,0-0.4-0.1l-1,0.1c0.1,0.9,0.1,2.3,0.2,4.1v0c0,0.2,0,0.3-0.1,0.4c-0.1,0.1-0.2,0.1-0.4,0.1
	c-0.1,0-0.2,0-0.2-0.1c0-0.1-0.1-0.8-0.1-2.1c0-0.8-0.1-1.6-0.1-2.4l-1,0.1c-0.1,0.1-0.3,0.2-0.5,0.2c-0.1,0-0.2,0-0.3-0.1
	s-0.1-0.2-0.1-0.3c0,0,0-0.1,0-0.1c0-0.3,0.1-0.5,0.1-0.5c0.1-0.1,0.2-0.2,0.4-0.2l3.8-0.3c0.2,0,0.3,0,0.4,0.1
	C112.5,9.7,112.5,9.9,112.5,10.1z M107.7,10.1c0,0.2-0.1,0.3-0.2,0.5c-0.1,0.1-0.3,0.2-0.5,0.2c-0.1,0-0.3,0-0.4-0.1l-1,0.1
	c0.1,0.9,0.1,2.3,0.2,4.1v0c0,0.2,0,0.3-0.1,0.4c-0.1,0.1-0.2,0.1-0.4,0.1c-0.1,0-0.2,0-0.2-0.1c0-0.1-0.1-0.8-0.1-2.1
	c0-0.8-0.1-1.6-0.1-2.4l-1,0.1c-0.1,0.1-0.3,0.2-0.5,0.2c-0.1,0-0.2,0-0.3-0.1c-0.1-0.1-0.1-0.2-0.1-0.3c0,0,0-0.1,0-0.1
	c0.1-0.3,0.1-0.5,0.1-0.5c0.1-0.1,0.2-0.2,0.5-0.2l3.8-0.3c0.2,0,0.3,0,0.4,0.1C107.7,9.7,107.7,9.9,107.7,10.1z M98.8,10.2
	c0,0.1,0,0.1,0,0.1c0,0.1-0.3,0.3-0.6,0.6c-0.5,0.4-0.7,0.6-0.7,0.6c-0.3,0.3-0.6,0.6-0.8,0.9l0,2.4c0,0.2,0,0.3-0.1,0.4
	c-0.1,0.1-0.2,0.1-0.4,0.1c-0.2,0-0.3,0-0.3-0.1c0-0.1,0-0.2,0-0.3l0-2.4c-0.9-0.7-1.6-1.3-2.1-2.1c-0.1-0.2-0.2-0.3-0.2-0.4
	c0-0.2,0.1-0.3,0.2-0.4c0.1-0.1,0.3-0.2,0.5-0.2c0.3,0,0.5,0.1,0.5,0.4c0,0.1,0,0.1,0,0.2c0.4,0.5,0.9,1,1.6,1.5
	c0.3-0.3,0.6-0.7,1.1-1.1c0.6-0.6,1-0.9,1.2-0.9c0.1,0,0.2,0.1,0.3,0.2C98.7,9.9,98.8,10,98.8,10.2z M88.2,11.9
	c0-0.4-0.2-0.7-0.7-0.9c-0.4-0.2-0.8-0.3-1.2-0.3c-0.5,0-1,0.1-1.6,0.3c-0.5,0.2-1,0.5-1.3,0.8c-0.3,0.4-0.5,0.7-0.5,1
	c0,0.4,0.2,0.7,0.7,0.9c0.3,0.2,0.7,0.2,1.2,0.2c0.7,0,1.3-0.2,2-0.5c0.7-0.3,1.2-0.8,1.4-1.4C88.1,12.1,88.2,12,88.2,11.9z
	 M89,11.8c0,0.6-0.2,1.2-0.7,1.8c-0.4,0.5-1,0.9-1.7,1.1c-0.7,0.3-1.3,0.4-1.9,0.4c-0.7,0-1.3-0.2-1.8-0.5c-0.5-0.4-0.8-0.9-0.8-1.6
	c0-0.6,0.2-1.2,0.7-1.8c0.4-0.5,1-0.8,1.7-1.1c0.7-0.3,1.3-0.4,1.9-0.4c0.7,0,1.3,0.2,1.8,0.5C88.7,10.6,89,11.2,89,11.8z
	 M81.7,10.1c0,0.2-0.1,0.3-0.2,0.5c-0.1,0.1-0.3,0.2-0.5,0.2c-0.1,0-0.3,0-0.4-0.1l-1,0.1c0.1,0.9,0.1,2.3,0.2,4.1v0
	c0,0.2,0,0.3-0.1,0.4c-0.1,0.1-0.2,0.1-0.4,0.1c-0.1,0-0.2,0-0.2-0.1c0-0.1-0.1-0.8-0.1-2.1c0-0.8-0.1-1.6-0.1-2.4l-1,0.1
	c-0.1,0.1-0.3,0.2-0.5,0.2c-0.1,0-0.2,0-0.3-0.1c-0.1-0.1-0.1-0.2-0.1-0.3c0,0,0-0.1,0-0.1c0-0.3,0.1-0.5,0.1-0.5
	c0.1-0.1,0.2-0.2,0.4-0.2l3.8-0.3c0.2,0,0.3,0,0.4,0.1C81.7,9.7,81.7,9.9,81.7,10.1z M76.6,12.6c0,0.5-0.2,1-0.7,1.5
	c-0.4,0.4-1,0.7-1.6,1c-0.6,0.2-1.2,0.3-1.7,0.3c-0.7,0-1.2-0.3-1.4-0.8c0,0,0-0.1,0-0.1c0-0.2,0.1-0.3,0.2-0.4
	c0.2-0.1,0.3-0.2,0.5-0.2c0.1,0,0.2,0,0.3,0.1c0.1,0.1,0.1,0.2,0.1,0.3c0.1,0,0.2,0,0.3,0c0.5,0,1.1-0.1,1.7-0.4
	c0.7-0.3,1.2-0.7,1.3-1.1c-0.5,0-1.1,0.1-1.8,0.2c-0.6,0.1-1.2,0.1-1.8,0.2c-0.6,0.1-1.1,0.1-1.4,0.1c-0.2,0-0.3-0.1-0.4-0.2
	c0-0.1-0.1-0.2-0.1-0.5c0-0.8,0.3-1.5,1-2.1c0.7-0.6,1.4-0.9,2.1-0.9c0.3,0,0.6,0.1,0.9,0.2c0.3,0.1,0.5,0.3,0.7,0.5
	c0.1,0.2,0.2,0.3,0.2,0.5c0,0.1-0.1,0.3-0.2,0.4c-0.1,0.1-0.3,0.2-0.4,0.2c-0.1,0-0.2,0-0.3-0.1c-0.1-0.1-0.2-0.2-0.2-0.3
	c0-0.1,0-0.1,0-0.2c-0.2-0.1-0.4-0.2-0.7-0.2c-0.5,0-0.9,0.2-1.4,0.5c-0.5,0.3-0.7,0.7-0.9,1.2c0.5,0,1.4-0.1,2.6-0.2
	c1.1-0.1,1.9-0.2,2.6-0.2C76.4,11.8,76.6,12.1,76.6,12.6z M68.8,11.9c0-0.4-0.2-0.7-0.7-0.9c-0.4-0.2-0.8-0.3-1.2-0.3
	c-0.5,0-1,0.1-1.6,0.3c-0.5,0.2-1,0.5-1.3,0.8c-0.3,0.4-0.5,0.7-0.5,1c0,0.4,0.2,0.7,0.7,0.9c0.3,0.2,0.7,0.2,1.2,0.2
	c0.7,0,1.3-0.2,2-0.5c0.7-0.3,1.2-0.8,1.4-1.4C68.8,12.1,68.8,12,68.8,11.9z M69.7,11.8c0,0.6-0.2,1.2-0.7,1.8
	c-0.4,0.5-1,0.9-1.7,1.1c-0.7,0.3-1.3,0.4-1.9,0.4c-0.7,0-1.3-0.2-1.8-0.5c-0.5-0.4-0.8-0.9-0.8-1.6c0-0.6,0.2-1.2,0.7-1.8
	c0.4-0.5,1-0.8,1.7-1.1c0.7-0.3,1.3-0.4,1.9-0.4c0.7,0,1.3,0.2,1.8,0.5C69.4,10.6,69.7,11.2,69.7,11.8z M61.9,12.2
	c0,0.2,0,0.5,0,0.9c0,0.4,0,0.7,0,0.9l0,0c0,0.3-0.5,0.6-1.3,0.8c-0.5,0.2-1.1,0.3-1.6,0.4c-0.4,0.1-0.9,0.1-1.3,0.1
	c-0.8,0-1.4-0.1-1.9-0.4c-0.6-0.3-0.9-0.9-0.9-1.6c0-0.5,0.2-1.1,0.6-1.7c0.4-0.6,0.8-1,1.4-1.4c0.6-0.4,1.2-0.6,1.7-0.6
	c0.3,0,0.5,0.1,0.7,0.2c0.2,0.1,0.4,0.3,0.5,0.6c0,0,0,0.1,0,0.1c0,0.1,0,0.2-0.1,0.3c-0.1,0.2-0.2,0.3-0.3,0.3
	c-0.1,0.1-0.2,0.1-0.4,0.1c-0.1,0-0.2,0-0.3-0.1c-0.1-0.1-0.1-0.2-0.1-0.3c0-0.1,0-0.1,0-0.2c-0.1,0-0.1,0-0.2,0
	c-0.5,0-1.1,0.3-1.8,0.9c-0.7,0.6-1,1.2-1,1.7c0,0.5,0.3,0.8,1,1c0.4,0.1,0.9,0.2,1.5,0.2c0.4,0,0.9,0,1.3-0.1
	c0.5-0.1,1-0.3,1.3-0.5c0.2-0.1,0.2-0.3,0.3-0.5c0-0.1,0-0.3,0-0.6c-0.5,0.1-1.3,0.2-2.3,0.4c-0.1,0.3-0.3,0.4-0.6,0.4
	c-0.2,0-0.3,0-0.3-0.1c-0.1-0.1-0.1-0.2-0.1-0.3c0-0.2-0.1-0.3-0.1-0.4c0-0.1,0-0.2,0.1-0.3c0.1-0.1,0.7-0.3,1.8-0.5
	c1-0.2,1.7-0.3,2-0.3C61.8,11.7,61.9,11.8,61.9,12.2z M53.1,12.9c-0.4-0.6-0.8-1.2-1.2-1.8c-0.2,0.4-0.7,1-1.4,1.8
	c0,0-0.1,0.1-0.1,0.1L53.1,12.9z M54.7,14.5c0,0.1,0,0.3-0.1,0.4c-0.1,0.2-0.2,0.3-0.3,0.3c-0.1,0-0.2-0.1-0.3-0.2
	c-0.1-0.1-0.2-0.2-0.2-0.3c0-0.1,0-0.2,0.1-0.4c-0.1-0.1-0.1-0.2-0.3-0.4c-0.9,0-2.3,0.1-4.2,0.3c-0.1,0.1-0.2,0.2-0.2,0.3
	c0.1,0.1,0.1,0.3,0.1,0.4c0,0.1-0.1,0.2-0.2,0.3c-0.1,0.1-0.2,0.2-0.3,0.2c-0.1,0-0.2-0.1-0.3-0.2c-0.1-0.1-0.1-0.3-0.1-0.4
	c0-0.3,0.2-0.8,0.7-1.4c0.1-0.1,0.5-0.7,1.3-1.7c0.5-0.7,0.9-1.2,1-1.5c0.1-0.2,0.2-0.3,0.4-0.3c0.1,0,0.2,0,0.3,0.1
	c0.6,0.6,1.2,1.5,1.9,2.8c0,0.1,0.1,0.2,0.2,0.3c0,0,0.1,0.1,0.1,0.2c0.1,0.2,0.2,0.4,0.3,0.7C54.7,14,54.7,14.3,54.7,14.5z
	 M43.8,10.4c0,0.1-0.1,0.2-0.2,0.4c-0.1,0.1-0.2,0.2-0.3,0.2c-0.1,0-0.3,0-0.4-0.1c-0.2-0.1-0.2-0.2-0.2-0.3c-0.2,0-0.3,0-0.5,0
	c-0.4,0-1,0-1.8,0.1c-0.9,0.1-1.5,0.1-1.8,0.1c0,0.4,0,0.8,0,1.2c1.1-0.2,2.2-0.3,3.4-0.3c0.3,0,0.6,0,0.7,0.1
	c0.3,0.1,0.4,0.2,0.4,0.4c0,0.1,0,0.3-0.1,0.4c-0.1,0.1-0.2,0.2-0.3,0.2c0,0,0,0-0.1,0c-0.1,0-0.1,0-0.2,0c-0.1,0-0.3,0-0.4-0.1
	c-1.1,0-2.3,0.1-3.4,0.3c0,0.5,0,1,0,1.3h0.1c0.4,0,1,0,1.6-0.1c0.4-0.1,1.1-0.1,2-0.3c0.1-0.2,0.3-0.2,0.5-0.2
	c0.3,0,0.5,0.2,0.5,0.7c0,0.2-0.1,0.3-0.4,0.4c-0.3,0.1-1,0.2-2.1,0.4c-1.1,0.1-1.8,0.2-2.3,0.2c-0.3,0-0.5,0-0.5,0
	c-0.2-0.1-0.2-0.2-0.3-0.4c0,0,0-0.7-0.1-2.2l-0.1-2.2c0-0.1,0-0.2,0.1-0.4c0.1-0.1,0.2-0.2,0.3-0.2c0.2,0,0.4,0,0.8,0
	c1.7-0.1,2.8-0.2,3.2-0.2c0.7,0,1.1,0.1,1.4,0.4C43.8,10.2,43.8,10.3,43.8,10.4z M36.2,11.8c0-0.3-0.1-0.5-0.4-0.7
	c-0.5-0.4-1.2-0.6-2.2-0.6c-0.5,0-1,0-1.5,0.1c0.2,1.2,0.3,2.4,0.3,3.7c0.8-0.2,1.5-0.4,2.1-0.7c0.8-0.4,1.4-0.8,1.6-1.3
	C36.1,12.1,36.2,11.9,36.2,11.8z M37,11.7c0,0.6-0.3,1.3-1,1.9c-0.6,0.5-1.3,1-2.1,1.3c-0.8,0.3-1.5,0.5-2.1,0.5
	c-0.1,0-0.2,0-0.3-0.1c-0.1-0.1-0.1-0.2-0.1-0.3c0,0,0-0.1,0-0.2c0-0.1,0-0.4,0-0.7c0-1.2-0.1-2.3-0.3-3.3c-0.3,0-0.4-0.2-0.4-0.4
	c0-0.4,0.2-0.6,0.6-0.7c0.7-0.2,1.4-0.3,2.1-0.3c0.9,0,1.6,0.2,2.3,0.5C36.6,10.3,37,10.9,37,11.7z M25.4,11.9
	c0-0.4-0.2-0.7-0.7-0.9c-0.4-0.2-0.8-0.3-1.2-0.3c-0.5,0-1,0.1-1.6,0.3c-0.5,0.2-1,0.5-1.3,0.8c-0.3,0.4-0.5,0.7-0.5,1
	c0,0.4,0.2,0.7,0.7,0.9c0.3,0.2,0.7,0.2,1.2,0.2c0.7,0,1.3-0.2,2-0.5c0.7-0.3,1.2-0.8,1.4-1.4C25.4,12.1,25.4,12,25.4,11.9z
	 M26.3,11.8c0,0.6-0.2,1.2-0.7,1.8c-0.4,0.5-1,0.9-1.7,1.1c-0.7,0.3-1.3,0.4-1.9,0.4c-0.7,0-1.3-0.2-1.8-0.5
	c-0.5-0.4-0.8-0.9-0.8-1.6c0-0.6,0.2-1.2,0.7-1.8c0.4-0.5,1-0.8,1.7-1.1c0.7-0.3,1.3-0.4,1.9-0.4c0.7,0,1.3,0.2,1.8,0.5
	C26,10.6,26.3,11.2,26.3,11.8z M18.6,14.5c0,0.1,0,0.3-0.1,0.4c-0.1,0.2-0.2,0.2-0.3,0.2c-0.1,0-0.2,0-0.3,0c-0.1,0-0.2,0-0.3,0
	c-0.5,0-1.1,0-1.8,0.1c0,0-0.2,0-0.4,0.1c-0.2,0-0.3,0.1-0.4,0.1c-0.2,0-0.3-0.2-0.3-0.5c0-0.2,0-0.3,0.1-0.4
	c0.1-0.1,0.4-0.2,0.8-0.3c0.3,0,0.5-0.1,0.8-0.1c0-0.3,0-0.9,0-1.5c0-0.7,0-1.2,0-1.5c-0.2,0.1-0.3,0.1-0.5,0.2
	c-0.2,0.1-0.4,0.1-0.5,0.1c-0.2,0-0.3-0.2-0.3-0.5c0-0.1,0-0.3,0.1-0.3c0.1-0.1,0.2-0.1,0.3-0.2c0.9-0.3,1.3-0.5,1.4-0.5
	c0.2,0,0.3,0.1,0.4,0.4c0,0.1,0,0.3,0,0.7c0,0.3,0,0.8-0.1,1.4c0,0.6,0,1.1,0,1.4V14c0.3,0,0.4,0,0.5,0C18.2,14,18.6,14.2,18.6,14.5
	z"/>
<path class="st2" d="M165.3,14.1c0,0,0,0.1,0,0.2c0,0.1,0,0.1,0,0.2c0,0.2,0,0.3-0.1,0.4c-0.3,0.2-1.2,0.3-2.8,0.3
	c-0.6,0-0.9,0-1.1,0c-0.2,0-0.4-0.2-0.4-0.5c0-0.1,0-0.2,0.1-0.3c0.6-1.3,1.5-2.5,2.5-3.6c-0.1,0-0.3,0-0.6,0c-0.3,0-0.5,0-0.6,0
	c-0.3,0-0.5,0-0.8,0c-0.1,0.2-0.2,0.3-0.3,0.3c-0.1,0-0.2-0.1-0.3-0.2c-0.1-0.1-0.1-0.2-0.1-0.3c0-0.1,0.1-0.2,0.2-0.4
	c0.2-0.3,1.1-0.4,2.6-0.4c0.1,0,0.3,0,0.6,0c0.3,0,0.5,0,0.6,0c0.3,0,0.4,0.2,0.4,0.5c0,0.2-0.1,0.3-0.2,0.4
	c-1.2,1.1-2.1,2.2-2.7,3.4c0.2,0,0.5,0,0.7,0c0.6,0,1.1,0,1.6-0.1c0.1-0.2,0.3-0.3,0.6-0.3c0.1,0,0.2,0,0.3,0.1S165.3,14,165.3,14.1
	 M159.9,10.4c0,0.1-0.1,0.2-0.2,0.4c-0.1,0.1-0.2,0.2-0.3,0.2c-0.1,0-0.3,0-0.4-0.1c-0.2-0.1-0.2-0.2-0.2-0.3c-0.2,0-0.3,0-0.5,0
	c-0.4,0-1,0-1.8,0.1c-0.9,0.1-1.5,0.1-1.8,0.1c0,0.4,0,0.8,0,1.2c1.1-0.2,2.2-0.3,3.4-0.3c0.3,0,0.6,0,0.7,0.1
	c0.3,0.1,0.4,0.2,0.4,0.4c0,0.1,0,0.3-0.1,0.4c-0.1,0.1-0.2,0.2-0.3,0.2c0,0,0,0-0.1,0c-0.1,0-0.1,0-0.2,0c-0.1,0-0.3,0-0.4-0.1
	c-1.1,0-2.3,0.1-3.4,0.3c0,0.5,0,1,0,1.3h0.1c0.4,0,1,0,1.6-0.1c0.4-0.1,1.1-0.1,2-0.3c0.1-0.2,0.3-0.2,0.5-0.2
	c0.3,0,0.5,0.2,0.5,0.7c0,0.2-0.1,0.3-0.4,0.4c-0.3,0.1-1,0.2-2.1,0.4c-1.1,0.1-1.8,0.2-2.3,0.2c-0.3,0-0.5,0-0.5,0
	c-0.2-0.1-0.2-0.2-0.3-0.4c0,0,0-0.7-0.1-2.2l-0.1-2.2c0-0.1,0-0.2,0.1-0.4c0.1-0.1,0.2-0.2,0.3-0.2c0.2,0,0.4,0,0.8,0
	c1.7-0.1,2.8-0.2,3.2-0.2c0.7,0,1.1,0.1,1.4,0.4C159.8,10.2,159.9,10.3,159.9,10.4z"/>
<path class="st2" d="M10.2,9.5c0,0.1,0,0.2-0.1,0.4l-2.7,5.5c-0.1,0.2-0.2,0.3-0.3,0.3c-0.1,0-0.2,0-0.3-0.1
	c-0.1-0.1-0.2-0.2-0.2-0.3c0-0.1,0-0.2,0.1-0.4l2.7-5.5c0.1-0.2,0.2-0.3,0.3-0.3c0.1,0,0.2,0,0.3,0.1C10.1,9.3,10.2,9.4,10.2,9.5
	 M6,10.4c0,0.1-0.1,0.2-0.2,0.4C5.7,10.9,5.6,11,5.5,11c-0.1,0-0.3,0-0.4-0.1c-0.2-0.1-0.2-0.2-0.2-0.3c-0.2,0-0.3,0-0.5,0
	c-0.4,0-1,0-1.8,0.1c-0.9,0.1-1.5,0.1-1.8,0.1c0,0.4,0,0.8,0,1.2c1.1-0.2,2.2-0.3,3.4-0.3c0.3,0,0.6,0,0.7,0.1
	c0.3,0.1,0.4,0.2,0.4,0.4c0,0.1,0,0.3-0.1,0.4c-0.1,0.1-0.2,0.2-0.3,0.2c0,0,0,0-0.1,0c-0.1,0-0.1,0-0.2,0c-0.1,0-0.3,0-0.4-0.1
	c-1.1,0-2.3,0.1-3.4,0.3c0,0.5,0,1,0,1.3h0.1c0.4,0,1,0,1.6-0.1c0.4-0.1,1.1-0.1,2-0.3c0.1-0.2,0.3-0.2,0.5-0.2
	c0.3,0,0.5,0.2,0.5,0.7c0,0.2-0.1,0.3-0.4,0.4c-0.3,0.1-1,0.2-2.1,0.4c-1.1,0.1-1.8,0.2-2.3,0.2c-0.3,0-0.5,0-0.5,0
	c-0.2-0.1-0.2-0.2-0.3-0.4c0,0,0-0.7-0.1-2.2L0,10.4c0-0.1,0-0.2,0.1-0.4c0.1-0.1,0.2-0.2,0.3-0.2c0.2,0,0.4,0,0.8,0
	C3,9.7,4.1,9.6,4.5,9.6c0.7,0,1.1,0.1,1.4,0.4C6,10.2,6,10.3,6,10.4z"/>
</svg>
