<?xml version="1.0" encoding="utf-8"?>
<!-- Generator: Adobe Illustrator 16.0.0, SVG Export Plug-In . SVG Version: 6.00 Build 0)  -->
<!DOCTYPE svg PUBLIC "-//W3C//DTD SVG 1.1//EN" "http://www.w3.org/Graphics/SVG/1.1/DTD/svg11.dtd">
<svg version="1.1" id="Capa_1" xmlns="http://www.w3.org/2000/svg" xmlns:xlink="http://www.w3.org/1999/xlink" x="0px" y="0px"
	 width="107.9px" height="55px" viewBox="0 0 107.9 55" style="enable-background:new 0 0 107.9 55;" xml:space="preserve">
<style type="text/css">
<![CDATA[
	.st0{fill-rule:evenodd;clip-rule:evenodd;}
	.st1{fill:#FF6600;}
	.st2{fill-rule:evenodd;clip-rule:evenodd;fill:#FF6600;}
]]>
</style>
<path class="st2" d="M69.1,19.7c17.3,0,31.4,6.1,31.4,13.5c0,7.1-12.6,12.9-28.6,13.5c0.9,0,1.8,0.1,2.7,0.1
	c17.3,0,31.4-6.5,31.4-14.6c0-8.1-14.1-14.6-31.4-14.6c-8.5,0-16.2,1.6-21.8,4.1C57.5,20.4,63.1,19.7,69.1,19.7"/>
<path class="st2" d="M0,2c7,0,13.9,0,20.9,0v3.3h-5.2V25H5.2V5.3H0V2z"/>
<path class="st2" d="M24.3,2h11.5v19.7h3.5V2h11.1v16.8c0,3.4-3,6.3-6.6,6.3H30.9c-3.6,0-6.6-2.8-6.6-6.3V2z"/>
<rect x="5.3" y="29" class="st0" width="3.1" height="13.1"/>
<path class="st0" d="M9.7,29h2.7h0.2h2.9c1.7,0,3.3,0.9,4.1,2.2V29h3.7c2.7,0,4.9,2.1,4.9,4.6v8.5h-2.9v-7.9c0-1.4-1.2-2.5-2.6-2.5
	h-2.7c0.3,0.6,0.4,1.2,0.4,1.9v8.5h-2.9v-7.9c0-1.4-1.2-2.5-2.6-2.5h-2.2v10.4H9.7V29z"/>
<path class="st0" d="M76.6,29h2.7h0.2H84c2.7,0,4.9,2.1,4.9,4.6v8.5h-2.9v-7.9c0-1.4-1.2-2.5-2.6-2.5h-3.8v10.4h-2.9V29z"/>
<path class="st0" d="M35.4,28.9H38c3.3,0,6,2.5,6,5.6v11.4h-3.2v-6.4v-5c0-1.5-1.3-2.7-2.8-2.7h-2.6c-1.5,0-2.8,1.2-2.8,2.7v2h6.5v3
	h-6.5h-2.7h-0.4v-5C29.5,31.4,32.1,28.9,35.4,28.9"/>
<path class="st0" d="M45.3,36.9v-2.4c0-3.1,2.7-5.6,6-5.6h9.7v3h-9.7c-1.5,0-2.8,1.2-2.8,2.7v2.4c0,1.5,1.3,2.7,2.8,2.7h6.6v-6.2
	h3.1v6.2v1.7v1.2h-9.7C47.9,42.6,45.3,40,45.3,36.9"/>
<path class="st0" d="M74,36.2h-7.2c-2.5,0-2.5,3.6,0,3.6H74v2.8h-8c-3.8,0-5.5-4.6-2.5-6.8c0,0,0.6-0.7-0.1-1.3
	c-2.6-1.6-1.4-5.6,1.7-5.6H74v2.3h-7.8c-1.7,0-1.7,2.5,0,2.5H74V36.2z"/>
<path class="st1" d="M6.9,47.6v4.9c0,0.3-1.6,0.3-1.6,0l0-4.9C5.2,47.1,6.8,47.1,6.9,47.6"/>
<path class="st1" d="M8.9,50.9c-0.2,1.3,1.9,1.7,2.8,0.9l0.1-1.6C11,49.9,9,50,8.9,50.9 M13.4,47.5l-0.1,5c-0.2,1-1.6,0-1.7,0
	c-0.7-0.1-1.2,0.5-2.2,0.3c-0.8-0.1-2.1-0.7-2.1-1.5c0-1.8,3.1-2,4.5-2l0.1-1.8C12.1,47.1,13.3,47,13.4,47.5z"/>
<path class="st1" d="M15.5,51.2c0.1,0,1.7-0.6,1.8-0.7C17.5,50.3,15.5,49.1,15.5,51.2 M19,50.4l-3.2,1.2c0.4,1.1,2.1,0.7,2.9,0.3
	c0.1,0,0.5-0.1,0.5,0.2c-1.4,1.1-4.8,1.1-5.3-0.5c-0.5-1.5,2.2-2.3,3.4-2.2C18.6,49.4,19.2,50.3,19,50.4z"/>
<path class="st1" d="M21,51.7c0,1,2.2,0.6,2.2,0C23.2,51,21,51.1,21,51.7 M25.1,50l-0.2,2.5c-0.1,0.7-1.6,0.1-1.9,0
	c-1.1,0.3-3.4,0.9-3.4-0.7c0-1.3,3.1-1.3,3.8-1.3c1.5-1.4-2.5-0.4-2.7-0.4c-0.4,0.1-0.4-0.4-0.3-0.4C21.7,49,23.9,48.9,25.1,50z"/>
<path class="st1" d="M27.2,49.9C26.3,50.3,30,51,29.6,52c-0.4,1.3-3.2,0.8-4.2,0.4c-0.4-0.4,0.3-0.9,0.7-0.7
	c0.4,0.4,1.9,0.7,2.1,0.4c0.3-0.5-2.6-0.8-2.6-1.8c0-1.2,3.8-1.3,3.9-0.5C29.6,50.7,27.9,49.6,27.2,49.9"/>
<path class="st1" d="M37.4,47.9c-2.6,0-2.2,4.8,0.4,4.4C40.3,51.9,39.6,47.9,37.4,47.9 M37.4,52.9c-5.2,0.2-4.6-6,0.6-5.6
	C42.3,47.6,42.3,52.7,37.4,52.9z"/>
<path class="st1" d="M43.2,49.7l1.2-0.4c0.3,0.1,0.5,0.4,0.5,0.7c-0.4,0.2-1.7,0.5-1.7,0.8l-0.1,1.9c-0.2,0.5-1.4,0.3-1.4-0.1v-3
	C42.1,49.2,42.9,49.1,43.2,49.7"/>
<path class="st1" d="M46.3,47.3c0.6,0,1.2,0.8,0.1,0.9C45.3,48.3,45.3,47.4,46.3,47.3"/>
<path class="st1" d="M49.9,49.8c-1.4,0.6,0,2,1,2.1C54,52.3,52,48.9,49.9,49.8 M53.7,49.3c0.3,0,0.5,0.6-0.2,0.6
	c2.8,1.3-3.9,3.1-4.2,3.7c-0.2,0.4,3,2.4,1.8-0.5c0.1-0.6,1.3-0.4,1.5-0.2c0.3,0.2,0.6,0.6,0.8,0.9c0,1.5-6.3,1.5-6-0.1
	c0.1-0.6,2.4-1.2,2.5-1.2l0.1-0.1c-0.2,0-2.5-0.5-2.1-1.6C48.6,48.6,51.9,49.3,53.7,49.3z"/>
<path class="st1" d="M58.1,49.6c1.1-0.2,3.2-0.8,3.8,0.7l-0.1,2.3c-0.1,0.4-1.3,0.3-1.5-0.1v-2.2c0-0.6-2.2-0.7-2.2,0.4l-0.1,1.8
	c-0.2,0.5-1.4,0.4-1.4,0c0-1,0-1.9,0-2.9C56.9,49,57.7,49.3,58.1,49.6"/>
<path class="st1" d="M47,49.8v2.7c0,0.3-1.6,0.3-1.6,0l0-2.7C45.4,49.3,47,49.3,47,49.8"/>
<path class="st1" d="M55.4,47.3c0.6,0,1.2,0.8,0.1,0.9C54.3,48.3,54.4,47.4,55.4,47.3"/>
<path class="st1" d="M56.1,49.8v2.7c0,0.3-1.6,0.3-1.6,0l0-2.7C54.5,49.3,56.1,49.3,56.1,49.8"/>
<path class="st1" d="M63.8,51.6c0,1,2.2,0.6,2.2,0C66,51,63.8,51.1,63.8,51.6 M67.9,50l-0.2,2.5c-0.1,0.7-1.6,0.1-1.9,0
	c-1.1,0.3-3.4,0.9-3.4-0.7c0-1.3,3.1-1.3,3.8-1.3c1.5-1.4-2.5-0.4-2.7-0.4c-0.4,0.1-0.4-0.4-0.3-0.4C64.5,49,66.7,48.9,67.9,50z"/>
<path class="st1" d="M72.1,51.1c0.1,0,1.7-0.6,1.8-0.7C74.1,50.3,72.1,49,72.1,51.1 M75.5,50.4l-3.2,1.2c0.4,1.1,2.1,0.7,2.9,0.3
	c0.1,0,0.5-0.1,0.5,0.2c-1.4,1.1-4.8,1.1-5.3-0.5c-0.5-1.5,2.2-2.3,3.4-2.2C75.2,49.4,75.8,50.3,75.5,50.4z"/>
<path class="st1" d="M77.8,49.9C77,50.3,80.7,51,80.3,52c-0.4,1.3-3.2,0.8-4.2,0.4c-0.4-0.4,0.3-0.9,0.7-0.7
	c0.4,0.4,1.9,0.7,2.1,0.4c0.3-0.5-2.6-0.8-2.6-1.8c0-1.2,3.8-1.3,3.9-0.5C80.3,50.7,78.6,49.6,77.8,49.9"/>
<path class="st1" d="M69.9,47.6v4.9c0,0.3-1.6,0.3-1.6,0l0-4.9C68.2,47.1,69.8,47.1,69.9,47.6"/>
</svg>
