<?xml version="1.0" encoding="utf-8"?>
<!-- Generator: Adobe Illustrator 16.0.0, SVG Export Plug-In . SVG Version: 6.00 Build 0)  -->
<!DOCTYPE svg PUBLIC "-//W3C//DTD SVG 1.1//EN" "http://www.w3.org/Graphics/SVG/1.1/DTD/svg11.dtd">
<svg version="1.1" id="Capa_1" xmlns="http://www.w3.org/2000/svg" xmlns:xlink="http://www.w3.org/1999/xlink" x="0px" y="0px"
	 width="147.3px" height="69.2px" viewBox="0 0 147.3 69.2" style="enable-background:new 0 0 147.3 69.2;" xml:space="preserve">
<style type="text/css">
<![CDATA[
	.st0{clip-path:url(#SVGID_2_);fill:url(#SVGID_3_);}
	.st1{clip-path:url(#SVGID_11_);fill:url(#SVGID_12_);}
	.st2{clip-path:url(#SVGID_14_);fill:url(#SVGID_15_);}
	.st3{clip-path:url(#SVGID_5_);fill:url(#SVGID_6_);}
	.st4{fill:#FEFEFE;}
	.st5{fill-rule:evenodd;clip-rule:evenodd;fill:#FEFEFE;}
	.st6{clip-path:url(#SVGID_8_);fill:url(#SVGID_9_);}
]]>
</style>
<g>
	<defs>
		<path id="SVGID_1_" d="M0,0.4h147.3v68.8H0C45.1,69.2,45.1,0.4,0,0.4"/>
	</defs>
	<clipPath id="SVGID_2_">
		<use xlink:href="#SVGID_1_"  style="overflow:visible;"/>
	</clipPath>
	<linearGradient id="SVGID_3_" gradientUnits="userSpaceOnUse" x1="0" y1="34.7939" x2="147.3438" y2="34.7939">
		<stop  offset="0" style="stop-color:#E3E3E3"/>
		<stop  offset="1" style="stop-color:#FEFEFE"/>
	</linearGradient>
	<rect y="0.4" class="st0" width="147.3" height="68.8"/>
</g>
<path class="st4" d="M59.6,28.1H49.3c-2.2,0-4,1.8-4,4.1v10.4c0,2.2,1.8,4.1,4,4.1h10.4c2.2,0,4.1-1.8,4.1-4.1V32.2
	C63.7,29.9,61.9,28.1,59.6,28.1"/>
<g>
	<defs>
		<path id="SVGID_4_" d="M49.3,28h10.4c2.2,0,4.1,1.8,4.1,4.1v10.4c0,2.2-1.8,4.1-4.1,4.1H49.3c-2.2,0-4.1-1.8-4.1-4.1V32.1
			C45.2,29.8,47,28,49.3,28"/>
	</defs>
	<clipPath id="SVGID_5_">
		<use xlink:href="#SVGID_4_"  style="overflow:visible;"/>
	</clipPath>
	<linearGradient id="SVGID_6_" gradientUnits="userSpaceOnUse" x1="54.4546" y1="46.5244" x2="54.4546" y2="28.0015">
		<stop  offset="0" style="stop-color:#FF6600"/>
		<stop  offset="1" style="stop-color:#7D0000"/>
	</linearGradient>
	<rect x="45.2" y="28" class="st3" width="18.5" height="18.5"/>
</g>
<path class="st4" d="M57.2,43.6h-5.4c-2,0-3.6-1.6-3.6-3.6v-5.4c0-2,1.6-3.6,3.6-3.6h5.4c2,0,3.6,1.6,3.6,3.6V40
	C60.8,42,59.1,43.6,57.2,43.6 M51.7,32c-1.4,0-2.5,1.1-2.5,2.5V40c0,1.4,1.1,2.5,2.5,2.5h5.4c1.4,0,2.5-1.1,2.5-2.5v-5.4
	c0-1.4-1.1-2.5-2.5-2.5H51.7z"/>
<path class="st4" d="M54.5,40.5c-1.8,0-3.2-1.4-3.2-3.2s1.4-3.2,3.2-3.2c1.8,0,3.2,1.4,3.2,3.2S56.2,40.5,54.5,40.5 M54.5,35.1
	c-1.2,0-2.1,1-2.1,2.1s1,2.1,2.1,2.1c1.2,0,2.1-1,2.1-2.1S55.6,35.1,54.5,35.1z"/>
<path class="st4" d="M58.6,33.8c0,0.4-0.3,0.8-0.8,0.8c-0.4,0-0.8-0.3-0.8-0.8c0-0.4,0.3-0.8,0.8-0.8C58.3,33.1,58.6,33.4,58.6,33.8
	"/>
<path class="st4" d="M83,28.1H72.6c-2.2,0-4.1,1.8-4.1,4.1v10.4c0,2.2,1.8,4.1,4.1,4.1H83c2.2,0,4.1-1.8,4.1-4.1V32.2
	C87.1,29.9,85.2,28.1,83,28.1"/>
<g>
	<defs>
		<path id="SVGID_7_" d="M72.6,28H83c2.2,0,4.1,1.8,4.1,4.1v10.4c0,2.2-1.8,4.1-4.1,4.1H72.6c-2.2,0-4.1-1.8-4.1-4.1V32.1
			C68.6,29.8,70.4,28,72.6,28"/>
	</defs>
	<clipPath id="SVGID_8_">
		<use xlink:href="#SVGID_7_"  style="overflow:visible;"/>
	</clipPath>
	<linearGradient id="SVGID_9_" gradientUnits="userSpaceOnUse" x1="77.8076" y1="46.5244" x2="77.8076" y2="28.001">
		<stop  offset="0" style="stop-color:#FF6600"/>
		<stop  offset="1" style="stop-color:#7D0000"/>
	</linearGradient>
	<rect x="68.6" y="28" class="st6" width="18.5" height="18.5"/>
</g>
<path class="st5" d="M78.7,35.2v-0.9c0-0.4,0.3-0.5,0.5-0.5c0.2,0,1.2,0,1.2,0v-1.9h-1.7c-1.9,0-2.3,1.4-2.3,2.3v1h-1.1v2.2h1.1
	c0,2.5,0,5.6,0,5.6h2.2c0,0,0-3.1,0-5.6h1.7l0.1-0.9l0.1-1.4H78.7z"/>
<path class="st4" d="M106.3,28.1H96c-2.2,0-4.1,1.8-4.1,4.1v10.4c0,2.2,1.9,4.1,4.1,4.1h10.4c2.2,0,4-1.8,4-4.1V32.2
	C110.4,29.9,108.6,28.1,106.3,28.1"/>
<g>
	<defs>
		<path id="SVGID_10_" d="M96,28h10.4c2.2,0,4.1,1.8,4.1,4.1v10.4c0,2.2-1.8,4.1-4.1,4.1H96c-2.2,0-4.1-1.8-4.1-4.1V32.1
			C91.9,29.8,93.7,28,96,28"/>
	</defs>
	<clipPath id="SVGID_11_">
		<use xlink:href="#SVGID_10_"  style="overflow:visible;"/>
	</clipPath>
	<linearGradient id="SVGID_12_" gradientUnits="userSpaceOnUse" x1="101.1641" y1="46.5244" x2="101.1641" y2="28.001">
		<stop  offset="0" style="stop-color:#FF6600"/>
		<stop  offset="1" style="stop-color:#7D0000"/>
	</linearGradient>
	<rect x="91.9" y="28" class="st1" width="18.5" height="18.5"/>
</g>
<path class="st5" d="M101.3,41.4c-0.9,0-1.8-0.3-2.5-0.8L97,41.2l0.6-1.7c-0.5-0.7-0.9-1.7-0.9-2.7c0-0.1,0-0.3,0-0.4
	c0.2-2.3,2.2-4.1,4.6-4.1c2.4,0,4.4,1.9,4.6,4.2c0,0.1,0,0.2,0,0.4C105.9,39.4,103.8,41.4,101.3,41.4 M103.8,37.9
	c-0.1-0.1-0.8-0.4-0.9-0.4c-0.1,0-0.2-0.1-0.3,0.1c-0.1,0.1-0.3,0.4-0.4,0.5c-0.1,0.1-0.2,0.1-0.3,0c-0.1-0.1-0.6-0.2-1.1-0.7
	c-0.4-0.4-0.7-0.8-0.7-0.9c-0.1-0.1,0-0.2,0.1-0.3c0.1-0.1,0.1-0.1,0.2-0.2c0,0,0,0,0-0.1c0-0.1,0.1-0.1,0.1-0.2c0-0.1,0-0.2,0-0.2
	c0-0.1-0.3-0.7-0.4-1c-0.1-0.3-0.2-0.2-0.3-0.2c-0.1,0-0.2,0-0.3,0c-0.1,0-0.2,0-0.4,0.2c-0.1,0.1-0.5,0.4-0.5,1.1
	c0,0.1,0,0.3,0.1,0.4c0.1,0.5,0.4,0.9,0.5,0.9c0.1,0.1,0.9,1.5,2.3,2c1.4,0.5,1.4,0.4,1.6,0.3s0.8-0.3,0.9-0.6
	c0.1-0.3,0.1-0.6,0.1-0.6C104,38,103.9,38,103.8,37.9z M106.7,36.7c-0.1-2.9-2.5-5.3-5.5-5.3c-2.9,0-5.3,2.3-5.5,5.2
	c0,0.1,0,0.2,0,0.2c0,1,0.3,2,0.8,2.8l-1,2.9l3-1c0.8,0.4,1.7,0.7,2.6,0.7c3,0,5.5-2.4,5.5-5.4C106.7,36.8,106.7,36.8,106.7,36.7z"
	/>
<g>
	<defs>
		<path id="SVGID_13_" d="M119.3,28.1h10.4c2.2,0,4.1,1.8,4.1,4.1v10.4c0,2.2-1.8,4.1-4.1,4.1h-10.4c-2.2,0-4.1-1.8-4.1-4.1V32.1
			C115.2,29.9,117.1,28.1,119.3,28.1"/>
	</defs>
	<clipPath id="SVGID_14_">
		<use xlink:href="#SVGID_13_"  style="overflow:visible;"/>
	</clipPath>
	<linearGradient id="SVGID_15_" gradientUnits="userSpaceOnUse" x1="124.4922" y1="46.5938" x2="124.4922" y2="28.0703">
		<stop  offset="0" style="stop-color:#FF6600"/>
		<stop  offset="1" style="stop-color:#7D0000"/>
	</linearGradient>
	<rect x="115.2" y="28.1" class="st2" width="18.5" height="18.5"/>
</g>
<path class="st5" d="M124.5,31c-2.3,0-4.2,1.9-4.2,4.2c0,2.3,4.2,8.4,4.2,8.4s4.2-6.1,4.2-8.4C128.7,32.9,126.8,31,124.5,31
	 M126.5,35c0,1.1-0.9,2-2,2c-1.1,0-2-0.9-2-2c0-1.1,0.9-2,2-2C125.6,33.1,126.5,33.9,126.5,35z"/>
</svg>
