<?xml version="1.0" encoding="utf-8"?>
<!-- Generator: Adobe Illustrator 16.0.0, SVG Export Plug-In . SVG Version: 6.00 Build 0)  -->
<!DOCTYPE svg PUBLIC "-//W3C//DTD SVG 1.1//EN" "http://www.w3.org/Graphics/SVG/1.1/DTD/svg11.dtd">
<svg version="1.1" id="Capa_1" xmlns="http://www.w3.org/2000/svg" xmlns:xlink="http://www.w3.org/1999/xlink" x="0px" y="0px"
	 width="91.1px" height="37.3px" viewBox="0 0 91.1 37.3" style="enable-background:new 0 0 91.1 37.3;" xml:space="preserve">
<style type="text/css">
<![CDATA[
	.st0{fill-rule:evenodd;clip-rule:evenodd;}
]]>
</style>
<path class="st0" d="M64.3,34.3c0.2,0,0.3-0.2,0.4-0.7c0.2-0.7,0.4-1.6,0.8-2.7c0.4-1.1,0.7-1.9,0.9-2.4c0.3-0.9,0.5-1.7,0.7-2.4
	c0.1-0.6,0.2-1,0.2-1.4c0-0.6-0.2-0.9-0.5-0.9c-0.5,0-0.9,0.6-1.3,1.7c-0.2,0.5-0.4,1.1-0.5,1.8c-0.3,1.3-0.5,2.8-0.7,4.4
	C64.1,32.5,64,33,64,33.4C64,34,64.1,34.3,64.3,34.3 M66.8,23.2c0.3,0,0.7-0.4,1.2-1.2c0.1-0.2,0.2-0.4,0.3-0.5c0-0.1,0-0.1,0-0.2
	c0-0.1,0-0.2-0.1-0.3c-0.1-0.2-0.3-0.2-0.5-0.2c-0.1,0-0.2,0-0.4,0.1c-0.4,0.1-0.7,0.3-0.8,0.6c0,0.1-0.1,0.2-0.1,0.3
	c0,0.1,0,0.3,0,0.4c0,0.1,0,0.2,0,0.2C66.5,22.9,66.6,23.2,66.8,23.2z M60.2,34.9c0.7,0,1.3-0.2,1.8-0.6c0.6-0.5,1.1-0.9,1.5-1.3
	c0.1-0.1,0.2-0.2,0.2-0.3l0,0c0-0.1,0-0.1-0.1-0.1c-0.1,0-0.3,0.1-0.4,0.2c-1.2,0.8-2,1.2-2.5,1.2c-0.3,0-0.4-0.1-0.5-0.4
	C60.1,33.3,60,33,60,32.8c0-0.2,0-0.3,0-0.5c0.1-0.3,0.1-0.7,0.2-1c0.2-1,0.5-2.2,1-3.5c0.6-1.9,1.1-3.3,1.3-4.2
	c0-0.1,0.1-0.3,0.1-0.4c0-0.1,0-0.2,0-0.3c0-0.3-0.1-0.5-0.2-0.6c-0.1-0.1-0.2-0.2-0.3-0.2c-0.2,0-0.5,0.2-0.8,0.7
	c-0.5,0.8-1.1,2.1-1.6,3.7c-0.3,0.9-0.5,1.8-0.7,2.7c-0.1,0.4-0.2,0.8-0.2,1.2c-0.2,1-0.2,1.7-0.2,2.3c0,0.3,0,0.6,0.1,0.9
	C58.8,34.4,59.3,34.9,60.2,34.9z M55,22.5c0.3,0,0.9-0.3,1.7-0.9c0.4-0.3,0.7-0.6,0.8-0.9c0.1-0.1,0.1-0.2,0.1-0.3c0,0,0-0.1,0-0.1
	c0-0.1-0.1-0.3-0.2-0.4c-0.1-0.1-0.3-0.2-0.4-0.2c-0.1,0-0.2,0.1-0.4,0.2c-0.3,0.2-0.7,0.7-1.1,1.5c-0.1,0.1-0.1,0.2-0.2,0.4
	c-0.3,0.4-0.4,0.7-0.4,0.7c0,0,0,0,0,0C54.9,22.5,54.9,22.5,55,22.5z M56.1,35.4c0.1,0,0.2-0.1,0.2-0.2c0,0,0-0.1,0-0.2
	c0-0.5,0.1-1.3,0.3-2.2c0.1-0.6,0.3-1.4,0.6-2.4c0.3-1.4,0.7-2.7,0.9-3.9c0.3-1.2,0.4-2.1,0.4-2.7c0-0.4-0.1-0.7-0.2-0.8
	c-0.1,0-0.1-0.1-0.2-0.1c-0.1,0-0.2,0-0.4,0.1c-0.3,0.2-0.7,0.7-0.9,1.3c-0.4-0.2-0.8-0.4-1.3-0.4c-0.8,0-1.5,0.2-2.1,0.5
	c-1,0.5-1.9,1.2-2.7,2.1c-0.8,0.9-1.5,2-1.9,3.1c-0.2,0.4-0.3,0.8-0.4,1.2c-0.1,0.3-0.1,0.7-0.1,1c0,0.3,0,0.6,0.1,0.8
	c0.2,0.9,0.6,1.4,1.4,1.6c0.2,0.1,0.4,0.1,0.6,0.1c0.6,0,1.2-0.2,1.8-0.6c1.3-0.8,2.5-2.4,3.6-4.9c-0.2,1.7-0.3,3-0.3,4.1
	c0,0.5,0,0.9,0.1,1.3C55.7,35.1,55.9,35.4,56.1,35.4z M51,33c-0.2,0-0.4-0.1-0.5-0.2c-0.2-0.2-0.3-0.4-0.3-0.8c0-0.2,0-0.4,0.1-0.7
	c0.3-1.2,1-2.6,2-3.8c0.6-0.7,1.2-1.2,1.7-1.5c0.6-0.3,1.5-0.7,2.7-1c-1.7,4.2-3.3,6.8-4.9,7.7C51.5,32.9,51.2,33,51,33z M45.9,35.7
	c0.1,0,0.2-0.2,0.3-0.4c0.2-1.1,0.6-2.6,1.1-4.3c0.8-2.7,1.4-4.7,1.7-6l0.1-0.7c2-0.5,3-1,3.1-1.3v0c0-0.1-0.4-0.2-1.1-0.2
	c-0.5,0-1.1,0-1.8,0.1c-0.1-0.4-0.2-0.5-0.4-0.5c-0.2,0-0.5,0.2-0.8,0.7c-0.6,0.1-1.3,0.2-2,0.4c-0.9,0.2-1.4,0.5-1.5,1
	c0,0,0,0.1,0,0.1c0,0.3,0.4,0.5,1.2,0.5c0.3,0,0.8-0.1,1.5-0.2c-0.2,0.7-0.5,1.5-0.7,2.4c-0.3,1.2-0.5,2.5-0.7,3.9
	c-0.2,1.5-0.3,2.6-0.3,3.4c0,0.6,0.1,1,0.2,1.1C45.8,35.7,45.9,35.7,45.9,35.7z M38.4,34.8c1.4,0,2.7-0.7,3.9-2.1
	c0.8-0.9,1.2-1.5,1.3-1.9c0,0,0,0,0-0.1c0-0.1,0-0.1-0.1-0.1c-0.1,0-0.5,0.4-1.1,1.1c-0.3,0.3-0.6,0.7-1,0.9c-0.9,0.7-1.7,1-2.5,1
	c-0.4,0-0.7-0.1-1.1-0.3C37.3,33,37,32.4,37,31.7v-0.2c0-0.3,0-0.7,0.1-1.1c1.2-0.2,2.5-0.7,3.9-1.4c1-0.5,1.9-1.3,2.5-2.3
	c0.3-0.4,0.4-0.9,0.5-1.4c0.1-0.3,0.1-0.5,0.1-0.7c0-0.3,0-0.6-0.1-0.8c-0.2-0.4-0.5-0.8-0.9-0.9c-0.2-0.1-0.4-0.1-0.6-0.1
	c-0.4,0-0.7,0.1-0.8,0.4v0c0,0.1,0.1,0.3,0.2,0.5c0.2,0.4,0.3,0.8,0.3,1.2c0,0.2,0,0.4-0.1,0.6c-0.4,1.9-2,3.3-4.9,4.3
	c0.3-1,0.8-2,1.5-3.1c0.7-1,1.3-1.7,1.9-2.2c0.7-0.5,1-0.8,1.1-1c0,0,0,0,0,0c0-0.1-0.1-0.1-0.2-0.2c-0.1,0-0.3-0.1-0.4-0.1
	c-0.5,0-1.2,0.2-1.9,0.7c-0.9,0.7-1.7,1.6-2.4,2.7c-0.6,1-1,2.1-1.3,3.2c-0.1,0.6-0.2,1.1-0.2,1.6c0,0.8,0.1,1.4,0.5,1.9
	C36.3,34.3,37.2,34.8,38.4,34.8z M31.5,37.3c0.4,0,1.1-1.8,2.1-5.3c0.5-1.9,1-3.7,1.3-5.4c0.1-0.6,0.2-1.3,0.3-2c0-0.3,0-0.6,0-0.8
	c0-1.4-0.4-2.3-1.2-2.8c-0.3-0.2-0.6-0.3-0.9-0.3c-0.9,0-1.8,0.6-2.7,1.9c-0.8,1.1-1.5,2.5-2.2,4.1l-0.1-1.1c-0.1-2-0.5-3.3-1.2-4
	c-0.2-0.2-0.3-0.2-0.5-0.2c-0.5,0-0.9,0.3-1.3,0.9c-1,1.3-1.7,3.3-2.2,5.8c-0.3,1.3-0.5,2.8-0.6,4.2c-0.1,0.6-0.1,1.1-0.1,1.5
	c0,0.4,0,0.7,0.1,1c0.1,0.4,0.2,0.6,0.4,0.6c0.1,0,0.2-0.2,0.3-0.5c0.1-0.4,0.2-0.9,0.2-1.2c0.3-1.3,0.8-3.2,1.5-5.6
	c0.5-1.6,0.8-2.9,1.1-4c0.5,2.1,0.9,4.2,1.1,6.4c0,0.2,0,0.4,0,0.7v0.1c0,0.8,0.1,1.2,0.4,1.2c0.1,0,0.2-0.1,0.3-0.2
	c0.2-0.3,0.7-1.4,1.5-3.3c0.5-1.2,1-2.3,1.5-3.2c0.6-1.2,1.2-2.2,1.8-2.9c0.1-0.2,0.3-0.2,0.4-0.2c0.1,0,0.2,0,0.2,0.1
	c0.3,0.4,0.4,1.1,0.4,2c0,1.3-0.2,3.1-0.7,5.3c-0.2,1-0.5,2.1-0.9,3.5c-0.3,1-0.5,1.7-0.6,2.2c-0.1,0.3-0.1,0.6-0.1,0.8
	C31.2,37.1,31.3,37.3,31.5,37.3z M72.8,15.8c0,0.1,0.1,0.1,0.3,0.1c0.4,0,0.9-0.2,1.7-0.6c0.8-0.4,1.5-0.9,2-1.5
	c0.6-0.6,1-1.3,1.1-2.2C78,11.5,78,11.2,78,11c0-0.3,0-0.6-0.1-0.9c-0.2-0.5-0.4-1-0.7-1.6c-0.5-0.7-0.7-1.3-0.7-1.7
	c0-0.1,0-0.1,0-0.2c0.1-0.5,0.5-1,1.2-1.7c0.1-0.1,0.3-0.3,0.5-0.4c0.8-0.7,1.2-1.2,1.3-1.6c0,0,0,0,0,0c0-0.1-0.1-0.1-0.2-0.1
	c-0.3,0-0.7,0.1-1,0.2c-1.4,0.7-2.5,1.5-3.1,2.5c-0.2,0.3-0.4,0.7-0.4,1c0,0.2-0.1,0.3-0.1,0.5c0,0.1,0,0.2,0,0.3
	c0.1,0.8,0.5,1.5,1,2.2c0.3,0.5,0.6,1,0.8,1.5c0.1,0.2,0.1,0.5,0.1,0.7c0,0.2,0,0.3-0.1,0.5c-0.1,0.6-0.5,1.2-1,1.7
	c-0.6,0.5-1.3,1-2.2,1.4C73,15.5,72.8,15.6,72.8,15.8L72.8,15.8z M71.4,15.9c0.1,0,0.2-0.1,0.2-0.2c0,0,0-0.1,0-0.2
	c0-0.5,0.1-1.3,0.3-2.2c0.1-0.6,0.3-1.4,0.6-2.4c0.3-1.4,0.7-2.7,0.9-3.9c0.3-1.2,0.4-2.1,0.4-2.7c0-0.4-0.1-0.7-0.2-0.7
	c-0.1,0-0.1-0.1-0.2-0.1c-0.1,0-0.2,0-0.4,0.1c-0.3,0.2-0.7,0.7-0.9,1.3c-0.4-0.2-0.8-0.4-1.3-0.4c-0.8,0-1.5,0.2-2.1,0.5
	c-1,0.5-1.9,1.2-2.7,2.1c-0.8,0.9-1.5,2-1.9,3.1c-0.2,0.4-0.3,0.8-0.4,1.2c-0.1,0.3-0.1,0.7-0.1,1c0,0.3,0,0.6,0.1,0.8
	c0.2,0.9,0.6,1.4,1.4,1.6c0.2,0.1,0.4,0.1,0.6,0.1c0.6,0,1.2-0.2,1.8-0.6c1.3-0.8,2.5-2.4,3.6-4.9c-0.2,1.7-0.3,3-0.3,4.1
	c0,0.5,0,0.9,0.1,1.3C71.1,15.6,71.2,15.9,71.4,15.9z M66.3,13.5c-0.2,0-0.4-0.1-0.5-0.2c-0.2-0.2-0.3-0.4-0.3-0.8
	c0-0.2,0-0.4,0.1-0.7c0.3-1.2,1-2.6,2-3.8c0.6-0.7,1.2-1.2,1.7-1.5c0.6-0.3,1.5-0.7,2.7-1c-1.7,4.2-3.3,6.8-4.9,7.7
	C66.8,13.4,66.6,13.5,66.3,13.5z M57.5,14.7c0.1,0,0.3-0.3,0.4-0.9c0.3-1,0.6-2,0.9-3c0.2,0.4,0.6,0.9,1.1,1.4
	c0.5,0.5,1.1,1,1.6,1.4c0.7,0.5,1.2,0.8,1.5,0.8c0.1,0,0.2,0,0.2-0.1v0c0-0.1-0.1-0.3-0.4-0.6c-0.4-0.5-0.8-1-1.2-1.5
	c-0.7-1-1.3-1.7-1.8-2.2c1.2-0.3,2.4-0.7,3.3-1.4c0.5-0.3,0.9-0.7,1.4-1.2c0.4-0.5,0.7-1,0.8-1.5c0-0.2,0.1-0.4,0.1-0.6
	c0-0.4-0.1-0.8-0.4-1.1c-0.5-0.5-1.3-0.8-2.5-0.8c-0.7,0-1.4,0.1-2,0.3c-0.1-0.1-0.2-0.2-0.3-0.2c-0.2,0-0.4,0.2-0.7,0.6
	c-1,0.4-1.6,0.8-1.7,1.2c0,0,0,0,0,0.1c0,0.2,0.3,0.3,0.8,0.4c-0.4,0.9-0.8,2.1-1.1,3.5c-0.1,0.3-0.2,0.9-0.3,1.7
	c-0.2,0.8-0.2,1.6-0.2,2.3c0,0.2,0,0.4,0,0.6c0,0.2,0,0.3,0.1,0.5C57.3,14.6,57.4,14.7,57.5,14.7z M59.3,9.5c0.6-1.7,1-3,1.2-4
	c0.3,0,0.5-0.1,0.8-0.1c0.4-0.1,0.9-0.1,1.3-0.1c0.3,0,0.6,0,0.9,0.1c0.3,0.1,0.4,0.2,0.4,0.5c0,0.1,0,0.1,0,0.2
	c-0.1,0.5-0.5,1.1-1.2,1.7c-0.7,0.6-1.4,1-2,1.3c-0.3,0.1-0.6,0.2-0.9,0.3C59.6,9.4,59.5,9.5,59.3,9.5L59.3,9.5z M54.5,15.2
	c0.2,0,0.4-0.4,0.5-1.1c0.3-1.2,0.6-2.4,0.9-3.6c0.4-1.3,0.7-2.4,0.9-3.3c0.2-0.9,0.3-1.8,0.4-2.7c0-0.1,0-0.1,0-0.2
	c0-0.4-0.1-0.6-0.4-0.6c-0.4,0-0.9,0.8-1.6,2.3c-0.6,1.3-1,2.2-1.3,2.7c-0.6,1.2-1.2,2.1-1.8,3c-0.3,0.3-0.6,0.6-0.9,0.9
	c-0.2,0.1-0.4,0.2-0.5,0.2c-0.4,0-0.5-0.4-0.5-1.1c0-0.1,0-0.3,0-0.4c0.1-0.7,0.2-1.8,0.5-3.1C50.8,7.6,50.9,7,51,6.5
	c0.1-0.4,0.2-0.7,0.3-1.1c0.1-0.5,0.2-0.9,0.2-1.1c0-0.2,0-0.4-0.1-0.6c-0.1-0.1-0.1-0.2-0.2-0.2c-0.3,0-0.7,0.6-1.2,1.8
	c-0.6,1.4-1,2.7-1.3,3.8c-0.2,0.9-0.3,1.7-0.3,2.3c0,0.1,0,0.2,0,0.3c0.1,1.3,0.5,2.1,1.2,2.4c0.2,0.1,0.4,0.1,0.6,0.1
	c1.6,0,3-1.6,4.3-4.8c-0.2,1-0.3,2-0.4,3.2c0,0.4,0,0.7,0,1c0,0.6,0.1,1.1,0.2,1.3C54.3,15.2,54.4,15.2,54.5,15.2z M44.3,16.2
	c0.1,0,0.2-0.2,0.3-0.4c0.2-1.1,0.6-2.6,1.1-4.3c0.8-2.7,1.4-4.7,1.7-6l0.1-0.7c2-0.5,3-1,3.1-1.3v0c0-0.1-0.4-0.2-1.1-0.2
	c-0.5,0-1.1,0-1.8,0.1c-0.1-0.4-0.2-0.5-0.4-0.5c-0.2,0-0.5,0.2-0.8,0.7c-0.6,0.1-1.3,0.2-2,0.4c-0.9,0.2-1.4,0.5-1.5,1
	c0,0,0,0.1,0,0.1c0,0.3,0.4,0.5,1.2,0.5c0.3,0,0.8-0.1,1.5-0.2c-0.2,0.7-0.5,1.5-0.7,2.4c-0.3,1.2-0.5,2.5-0.7,3.9
	C44,13,43.9,14.2,43.9,15c0,0.6,0.1,1,0.2,1.1C44.2,16.2,44.2,16.2,44.3,16.2z M37.2,14.9c0.6,0,1.4-0.2,2.2-0.5
	c0.1,0,0.3-0.1,0.5-0.3c0.5-0.3,0.7-0.5,0.8-0.7c0,0,0,0,0-0.1c0-0.1,0-0.1-0.1-0.1c-0.1,0-0.4,0.1-0.7,0.3
	c-0.6,0.3-1.2,0.4-1.9,0.4c-0.9,0-1.5-0.4-1.8-1.2c-0.1-0.3-0.1-0.6-0.1-1c0-0.3,0-0.6,0.1-0.9c0.2-1.1,0.7-2.2,1.5-3.3
	c0.9-1.3,2-2.2,3.4-2.7c0.4-0.1,0.7-0.2,1.1-0.2c0.3,0,0.5-0.1,0.6-0.3c0,0,0-0.1,0-0.1c0-0.2-0.1-0.3-0.3-0.4
	c-0.3-0.1-0.6-0.2-1-0.2c-1,0-2,0.3-2.9,1c-1.1,0.8-2.1,1.8-2.7,3c-0.5,0.8-0.8,1.7-1,2.6c-0.1,0.5-0.2,1-0.2,1.4c0,0.2,0,0.3,0,0.5
	c0.1,1.3,0.6,2.2,1.5,2.6C36.4,14.8,36.8,14.9,37.2,14.9z M32,15.2c0.2,0,0.4-0.4,0.5-1.1c0.3-1.2,0.6-2.4,0.9-3.6
	c0.4-1.3,0.7-2.4,0.9-3.3c0.2-0.9,0.3-1.8,0.4-2.7c0-0.1,0-0.1,0-0.2c0-0.4-0.1-0.6-0.4-0.6c-0.4,0-0.9,0.8-1.6,2.3
	c-0.6,1.3-1,2.2-1.3,2.7c-0.6,1.2-1.2,2.1-1.8,3c-0.3,0.3-0.6,0.6-0.9,0.9c-0.2,0.1-0.4,0.2-0.5,0.2c-0.4,0-0.5-0.4-0.5-1.1
	c0-0.1,0-0.3,0-0.4c0.1-0.7,0.2-1.8,0.5-3.1c0.1-0.6,0.3-1.2,0.4-1.7c0.1-0.4,0.2-0.7,0.3-1.1C28.9,4.9,29,4.5,29,4.4
	c0-0.2,0-0.4-0.1-0.6c-0.1-0.1-0.1-0.2-0.2-0.2c-0.3,0-0.7,0.6-1.2,1.8c-0.6,1.4-1,2.7-1.3,3.8c-0.2,0.9-0.3,1.7-0.3,2.3
	c0,0.1,0,0.2,0,0.3c0.1,1.3,0.5,2.1,1.2,2.4c0.2,0.1,0.4,0.1,0.6,0.1c1.6,0,3-1.6,4.3-4.8c-0.2,1-0.3,2-0.4,3.2c0,0.4,0,0.7,0,1
	c0,0.6,0.1,1.1,0.2,1.3C31.9,15.2,31.9,15.2,32,15.2z M18.2,14.7c0.1,0,0.3-0.3,0.4-0.9c0.3-1,0.6-2,0.9-3c0.2,0.4,0.6,0.9,1.1,1.4
	c0.5,0.5,1.1,1,1.6,1.4c0.7,0.5,1.2,0.8,1.5,0.8c0.1,0,0.2,0,0.2-0.1v0c0-0.1-0.1-0.3-0.4-0.6c-0.4-0.5-0.8-1-1.2-1.5
	c-0.7-1-1.3-1.7-1.8-2.2c1.2-0.3,2.4-0.7,3.3-1.4C24.6,8.4,25,8,25.5,7.5c0.4-0.5,0.7-1,0.8-1.5c0-0.2,0.1-0.4,0.1-0.6
	c0-0.4-0.1-0.8-0.4-1.1c-0.5-0.5-1.3-0.8-2.5-0.8c-0.7,0-1.4,0.1-2,0.3c-0.1-0.1-0.2-0.2-0.3-0.2c-0.2,0-0.4,0.2-0.7,0.6
	c-1,0.4-1.6,0.8-1.7,1.2c0,0,0,0,0,0.1c0,0.2,0.3,0.3,0.8,0.4c-0.4,0.9-0.8,2.1-1.1,3.5c-0.1,0.3-0.2,0.9-0.3,1.7
	c-0.2,0.8-0.2,1.6-0.2,2.3c0,0.2,0,0.4,0,0.6c0,0.2,0,0.3,0.1,0.5C18,14.6,18.1,14.7,18.2,14.7z M20,9.5c0.6-1.7,1-3,1.2-4
	c0.3,0,0.5-0.1,0.8-0.1c0.4-0.1,0.9-0.1,1.3-0.1c0.3,0,0.6,0,0.9,0.1c0.3,0.1,0.4,0.2,0.4,0.5c0,0.1,0,0.1,0,0.2
	c-0.1,0.5-0.5,1.1-1.2,1.7c-0.7,0.6-1.4,1-2,1.3c-0.3,0.1-0.6,0.2-0.9,0.3C20.4,9.4,20.2,9.5,20,9.5L20,9.5z M13.7,16.2
	c0.1,0,0.2-0.2,0.3-0.4c0.2-1.1,0.6-2.6,1.1-4.3c0.8-2.7,1.4-4.7,1.7-6L17,4.8c2-0.5,3-1,3.1-1.3v0c0-0.1-0.4-0.2-1.1-0.2
	c-0.5,0-1.1,0-1.8,0.1C17,3,16.9,2.8,16.7,2.8c-0.2,0-0.5,0.2-0.8,0.7c-0.6,0.1-1.3,0.2-2,0.4c-0.9,0.2-1.4,0.5-1.5,1
	c0,0,0,0.1,0,0.1c0,0.3,0.4,0.5,1.2,0.5c0.3,0,0.8-0.1,1.5-0.2c-0.2,0.7-0.5,1.5-0.7,2.4c-0.3,1.2-0.5,2.5-0.7,3.9
	c-0.2,1.5-0.3,2.6-0.3,3.4c0,0.6,0.1,1,0.2,1.1C13.7,16.2,13.7,16.2,13.7,16.2z M6.4,15.8c0,0.1,0.1,0.1,0.3,0.1
	c0.4,0,0.9-0.2,1.7-0.6c0.8-0.4,1.5-0.9,2-1.5c0.6-0.6,1-1.3,1.1-2.2c0.1-0.3,0.1-0.5,0.1-0.8c0-0.3,0-0.6-0.1-0.9
	c-0.2-0.5-0.4-1-0.7-1.6c-0.5-0.7-0.7-1.3-0.7-1.7c0-0.1,0-0.1,0-0.2c0.1-0.5,0.5-1,1.2-1.7c0.1-0.1,0.3-0.3,0.5-0.4
	c0.8-0.7,1.2-1.2,1.3-1.6c0,0,0,0,0,0c0-0.1-0.1-0.1-0.2-0.1c-0.3,0-0.7,0.1-1,0.2c-1.4,0.7-2.5,1.5-3.1,2.5c-0.2,0.3-0.4,0.7-0.4,1
	c0,0.2-0.1,0.3-0.1,0.5c0,0.1,0,0.2,0,0.3c0.1,0.8,0.5,1.5,1,2.2c0.3,0.5,0.6,1,0.8,1.5c0.1,0.2,0.1,0.5,0.1,0.7
	c0,0.2,0,0.3-0.1,0.5c-0.1,0.6-0.5,1.2-1,1.7c-0.6,0.5-1.3,1-2.2,1.4C6.6,15.5,6.4,15.6,6.4,15.8L6.4,15.8z M2.3,15.2
	c0.9,0,2.1-0.5,3.3-1.3c0.6-0.4,1.1-0.8,1.5-1.2c0.2-0.2,0.4-0.4,0.4-0.6c0,0,0,0,0,0c0-0.1,0-0.1-0.1-0.1c-0.1,0-0.2,0.1-0.4,0.2
	c-0.2,0.1-0.4,0.3-0.6,0.4c-1,0.6-1.9,1-2.7,1.2c-0.2,0.1-0.4,0.1-0.6,0.1c-0.2,0-0.4-0.1-0.7-0.2c-0.3-0.1-0.4-0.5-0.4-1.1
	c0-0.5,0.1-1,0.2-1.8c0.1-0.4,0.2-0.8,0.3-1.4C3,9.5,3.7,9.3,4.4,9.1C6,8.7,7,8.3,7.6,7.9c0.2-0.1,0.3-0.2,0.3-0.3v0
	c0-0.1-0.1-0.1-0.2-0.1c-0.2,0-0.9,0.1-2.5,0.2C4.4,7.8,3.7,7.9,2.9,8l0.2-0.7C3.7,5.8,4,4.7,4.2,4c0.6-0.1,1.2-0.3,2-0.5
	c0.6-0.2,1.1-0.3,1.4-0.4c0.5-0.1,1-0.2,1.5-0.4c0.5-0.1,0.9-0.3,1.1-0.5c0,0,0.1-0.1,0.1-0.1v0C10.3,2,10.1,2,9.9,2
	c-1,0-2.2,0-3.7,0.1C4.3,2.2,2.9,2.6,1.9,3.2C1.6,3.4,1.4,3.6,1.4,3.7c0,0,0,0,0,0.1c0,0.2,0.1,0.3,0.4,0.3c0.2,0,0.3,0.1,0.5,0.1
	l0.2,0c-0.8,1.5-1.4,3-1.7,4.3C0.3,8.8,0,9,0,9.1c0,0,0,0,0,0.1c0,0.2,0.2,0.3,0.5,0.4c-0.2,1.1-0.3,2-0.3,2.7c0,0.4,0,0.7,0.1,1
	C0.5,14.4,1.1,15,2,15.1C2.1,15.2,2.2,15.2,2.3,15.2z"/>
<path class="st0" d="M82.5,35.3c0,0.1,0.1,0.1,0.3,0.1c0.4,0,0.9-0.2,1.7-0.6c0.8-0.4,1.5-0.9,2-1.5c0.6-0.6,1-1.3,1.1-2.2
	c0.1-0.3,0.1-0.5,0.1-0.8c0-0.3,0-0.6-0.1-0.9c-0.2-0.5-0.4-1-0.7-1.6c-0.5-0.8-0.7-1.3-0.7-1.7c0-0.1,0-0.1,0-0.2
	c0.1-0.5,0.5-1,1.2-1.7c0.1-0.1,0.3-0.3,0.5-0.4c0.8-0.7,1.2-1.2,1.3-1.6c0,0,0,0,0,0c0-0.1-0.1-0.1-0.2-0.1c-0.3,0-0.7,0.1-1,0.2
	c-1.4,0.7-2.5,1.5-3.1,2.5c-0.2,0.3-0.4,0.7-0.4,1c0,0.2-0.1,0.3-0.1,0.5c0,0.1,0,0.2,0,0.3c0.1,0.8,0.5,1.5,1,2.2
	c0.3,0.5,0.6,1,0.8,1.5c0.1,0.2,0.1,0.5,0.1,0.7c0,0.2,0,0.3-0.1,0.5c-0.1,0.6-0.5,1.2-1,1.7c-0.6,0.5-1.3,1-2.2,1.4
	C82.7,34.9,82.5,35.1,82.5,35.3L82.5,35.3z M81.2,35.4c0.1,0,0.2-0.1,0.2-0.2c0,0,0-0.1,0-0.2c0-0.5,0.1-1.3,0.3-2.2
	c0.1-0.6,0.3-1.4,0.6-2.4c0.3-1.4,0.7-2.7,0.9-3.9c0.3-1.2,0.4-2.1,0.4-2.7c0-0.4-0.1-0.7-0.2-0.8c-0.1,0-0.1-0.1-0.2-0.1
	c-0.1,0-0.2,0-0.4,0.1c-0.3,0.2-0.7,0.7-0.9,1.3c-0.4-0.2-0.8-0.4-1.3-0.4c-0.8,0-1.5,0.2-2.1,0.5c-1,0.5-1.9,1.2-2.7,2.1
	c-0.8,0.9-1.5,2-1.9,3.1c-0.2,0.4-0.3,0.8-0.4,1.2c-0.1,0.3-0.1,0.7-0.1,1c0,0.3,0,0.6,0.1,0.8c0.2,0.9,0.6,1.4,1.4,1.6
	c0.2,0.1,0.4,0.1,0.6,0.1c0.6,0,1.2-0.2,1.8-0.6c1.3-0.8,2.5-2.4,3.6-4.9c-0.2,1.7-0.3,3-0.3,4.1c0,0.5,0,0.9,0.1,1.3
	C80.8,35.1,80.9,35.4,81.2,35.4z M76,33c-0.2,0-0.4-0.1-0.5-0.2c-0.2-0.2-0.3-0.4-0.3-0.8c0-0.2,0-0.4,0.1-0.7c0.3-1.2,1-2.6,2-3.8
	c0.6-0.7,1.2-1.2,1.7-1.5c0.6-0.3,1.5-0.7,2.7-1c-1.7,4.2-3.3,6.8-4.9,7.7C76.6,32.9,76.3,33,76,33z M69.7,34.4
	c0.6,0,1.4-0.2,2.2-0.5c0.1,0,0.3-0.1,0.5-0.3c0.5-0.3,0.7-0.5,0.8-0.7c0,0,0,0,0-0.1c0-0.1,0-0.1-0.1-0.1c-0.1,0-0.4,0.1-0.7,0.3
	c-0.6,0.3-1.2,0.4-1.9,0.4c-0.9,0-1.5-0.4-1.8-1.2c-0.1-0.3-0.1-0.6-0.1-1c0-0.3,0-0.6,0.1-0.9c0.2-1.1,0.7-2.2,1.5-3.3
	c0.9-1.3,2-2.2,3.4-2.7c0.4-0.1,0.7-0.2,1.1-0.2c0.3,0,0.5-0.1,0.6-0.3c0,0,0-0.1,0-0.1c0-0.2-0.1-0.3-0.3-0.4
	c-0.3-0.1-0.6-0.2-1-0.2c-1,0-2,0.3-2.9,1c-1.1,0.8-2.1,1.8-2.7,3c-0.5,0.8-0.8,1.7-1,2.6c-0.1,0.5-0.2,1-0.2,1.4c0,0.2,0,0.3,0,0.5
	c0.1,1.3,0.6,2.2,1.5,2.6C68.9,34.3,69.3,34.4,69.7,34.4z"/>
</svg>
