<?xml version="1.0" encoding="utf-8"?>
<!-- Generator: Adobe Illustrator 16.0.0, SVG Export Plug-In . SVG Version: 6.00 Build 0)  -->
<!DOCTYPE svg PUBLIC "-//W3C//DTD SVG 1.1//EN" "http://www.w3.org/Graphics/SVG/1.1/DTD/svg11.dtd">
<svg version="1.1" id="Capa_1" xmlns="http://www.w3.org/2000/svg" xmlns:xlink="http://www.w3.org/1999/xlink" x="0px" y="0px"
	 width="109.3px" height="25.5px" viewBox="0 0 109.3 25.5" style="enable-background:new 0 0 109.3 25.5;" xml:space="preserve">
<style type="text/css">
<![CDATA[
	.st0{fill-rule:evenodd;clip-rule:evenodd;}
]]>
</style>
<path class="st0" d="M96.9,24.9c0,0.1,0.1,0.2,0.4,0.2c0.6,0,1.5-0.3,2.7-0.9c1.2-0.6,2.3-1.4,3.2-2.3c0.9-0.9,1.5-2.1,1.8-3.4
	c0.1-0.4,0.1-0.8,0.1-1.2c0-0.5-0.1-1-0.2-1.4c-0.3-0.8-0.6-1.6-1.1-2.4c-0.7-1.2-1.1-2.1-1.1-2.7c0-0.1,0-0.2,0-0.3
	c0.2-0.7,0.8-1.6,1.9-2.7c0.2-0.2,0.5-0.4,0.7-0.7c1.2-1.1,1.8-1.9,2-2.4c0,0,0-0.1,0-0.1c0-0.1-0.1-0.2-0.4-0.2
	c-0.5,0-1,0.1-1.5,0.4c-2.3,1.1-3.9,2.4-4.9,3.9c-0.3,0.5-0.6,1-0.7,1.6c-0.1,0.3-0.1,0.5-0.1,0.8c0,0.2,0,0.3,0,0.5
	c0.2,1.3,0.8,2.4,1.6,3.4c0.5,0.7,1,1.5,1.3,2.3c0.1,0.4,0.2,0.7,0.2,1.2c0,0.3,0,0.5-0.1,0.8c-0.2,1-0.7,1.8-1.6,2.6
	c-0.9,0.8-2,1.6-3.4,2.2C97.2,24.3,96.9,24.6,96.9,24.9L96.9,24.9z M89.5,23.3c1.7,0,3.2-0.5,4.4-1.6c1.2-1.1,2.2-2.4,3-3.9
	c0.6-1.3,1-2.5,1.3-3.8c0.3-1.2,0.4-2.2,0.4-3.2c0-1.7-0.4-2.9-1.2-3.7c-0.5-0.5-1.3-0.8-2.2-0.8c-0.4,0-0.7,0-1,0.1
	c0-0.1,0.1-0.2,0.1-0.3c0,0,0-0.1,0-0.1c0-0.2-0.2-0.3-0.5-0.3c-0.4,0-0.9,0.2-1.5,0.5c-1.1,0.7-2.1,1.7-2.9,3
	c-0.9,1.3-1.6,2.6-2.1,4c-0.5,1.2-0.8,2.3-1,3.3c-0.2,0.9-0.3,1.8-0.3,2.5c0,1.4,0.3,2.5,1,3.3C87.5,23,88.3,23.3,89.5,23.3z
	 M90.2,20.8c-1,0-1.5-0.7-1.5-1.9c0-0.5,0.1-1.1,0.2-1.9c0.2-1.1,0.6-2.3,1.1-3.6c0.7-1.7,1.4-3.1,2-4.2C92.5,8.7,93,8,93.5,7.3
	c0.4-0.2,0.8-0.2,1.3-0.2c1.1,0,1.8,0.6,2.2,1.7c0.2,0.5,0.2,1,0.2,1.6c0,0.7-0.1,1.4-0.3,2.2c-0.2,0.9-0.5,1.9-0.9,2.9
	c-0.4,1.1-1,2.1-1.8,3c-0.8,1-1.6,1.6-2.6,2C91,20.7,90.6,20.8,90.2,20.8z M75.1,22.1c0.2-0.8,0.6-2.3,1.3-4.4c1-3,1.6-5.4,2-7.1
	c0.3-1.3,0.4-2.3,0.4-3.1c0.7,0.1,1.4,0.3,2,0.4c1,0.3,1.7,1,2.1,2c0.3,0.6,0.4,1.2,0.4,1.9c0,0.4,0,0.8-0.1,1.3
	c-0.4,1.7-1.1,3.2-2.3,4.7c-1.4,1.8-3,3-4.6,3.7C76.1,21.8,75.7,21.9,75.1,22.1z M74.4,24.1c0.1,0,0.1-0.1,0.2-0.2
	c0.1-0.1,0.1-0.3,0.2-0.7c3.6-0.8,6.7-2.9,9-6.1c1-1.5,1.7-3.1,2.1-4.7c0.1-0.6,0.2-1.2,0.2-1.8c0-0.9-0.2-1.7-0.4-2.5
	c-0.5-1.3-1.5-2.2-3.1-2.8c-0.8-0.3-1.8-0.5-3-0.5c-1.6,0-2.9,0.3-3.9,0.9c-0.4,0.2-0.7,0.5-0.7,0.7c0,0,0,0.1,0,0.1
	c0,0.4,0.6,0.6,1.9,0.7C76.3,8.1,76,9,75.7,9.8c-0.2,0.8-0.5,1.6-0.7,2.6c-0.3,1.2-0.5,2.9-0.9,5.1c-0.2,1.6-0.3,3-0.3,4.2
	c0,0.3,0,0.5,0,0.7c-0.7,0.3-1.1,0.5-1.1,0.7v0c0,0.1,0.2,0.2,0.6,0.2c0.2,0,0.4,0,0.7,0C74.1,23.9,74.2,24.1,74.4,24.1z M69.6,25.1
	c0.2,0,0.3-0.1,0.4-0.3c0-0.1,0-0.2,0-0.3c0-0.8,0.2-2,0.5-3.5c0.2-1,0.5-2.3,0.9-3.8c0.5-2.2,1-4.3,1.4-6.2
	c0.4-1.9,0.6-3.3,0.6-4.3c0-0.6-0.1-1-0.3-1.2c-0.1-0.1-0.2-0.1-0.3-0.1c-0.2,0-0.3,0.1-0.6,0.2c-0.5,0.4-1,1.1-1.5,2.1
	c-0.6-0.4-1.2-0.6-2-0.6c-1.2,0-2.3,0.3-3.3,0.7c-1.5,0.7-3,1.9-4.3,3.3c-1.3,1.5-2.3,3.1-3,4.8c-0.3,0.7-0.5,1.3-0.6,1.9
	c-0.1,0.5-0.2,1.1-0.2,1.6c0,0.5,0,0.9,0.1,1.3c0.3,1.4,1,2.3,2.2,2.6c0.3,0.1,0.6,0.1,1,0.1c0.9,0,1.8-0.3,2.9-1
	c2-1.3,3.9-3.8,5.6-7.6c-0.3,2.6-0.4,4.8-0.4,6.5c0,0.8,0,1.4,0.1,2C69,24.6,69.2,25.1,69.6,25.1z M61.5,21.2
	c-0.3,0-0.6-0.1-0.8-0.3c-0.3-0.3-0.5-0.7-0.5-1.3c0-0.3,0-0.6,0.1-1c0.4-1.9,1.5-4.1,3.2-6.1c0.9-1,1.8-1.8,2.7-2.4
	c0.9-0.5,2.3-1,4.2-1.5c-2.7,6.6-5.2,10.7-7.7,12.2C62.4,21,62,21.2,61.5,21.2z M48.6,24.1c2.3,0,4.3-1.1,6.2-3.3
	c1.2-1.4,1.9-2.4,2-3c0,0,0-0.1,0-0.1c0-0.1-0.1-0.1-0.2-0.1c-0.2,0-0.7,0.6-1.7,1.7c-0.5,0.5-1,1-1.6,1.5c-1.4,1.1-2.7,1.6-3.9,1.6
	c-0.6,0-1.1-0.2-1.7-0.5c-0.9-0.6-1.4-1.5-1.5-2.7v-0.3c0-0.5,0.1-1.1,0.2-1.7c1.9-0.4,4-1.1,6.1-2.2c1.6-0.9,3-2.1,3.9-3.6
	c0.4-0.7,0.7-1.4,0.8-2.2c0.1-0.4,0.1-0.8,0.1-1.2c0-0.5-0.1-0.9-0.2-1.3C57,6,56.5,5.5,55.8,5.3c-0.3-0.1-0.6-0.2-0.9-0.2
	c-0.7,0-1.1,0.2-1.2,0.6v0.1c0,0.2,0.1,0.4,0.3,0.8c0.4,0.6,0.5,1.2,0.5,1.9c0,0.3,0,0.6-0.1,0.9c-0.6,3-3.2,5.2-7.7,6.7
	c0.5-1.5,1.2-3.1,2.3-4.8c1-1.6,2-2.7,2.9-3.4c1.1-0.8,1.6-1.3,1.7-1.6c0,0,0,0,0-0.1c0-0.1-0.1-0.2-0.3-0.3
	c-0.2-0.1-0.5-0.1-0.7-0.1c-0.7,0-1.9,0.3-2.9,1.1c-1.5,1-2.7,2.5-3.8,4.3c-1,1.6-1.6,3.4-2,5.1c-0.2,0.9-0.3,1.7-0.3,2.5
	c0,1.2,0.2,2.2,0.7,3.1C45.3,23.4,46.7,24.1,48.6,24.1z M39.1,25.5c0.2,0,0.3-0.2,0.4-0.7c0.4-1.8,1-4,1.8-6.8
	c1.3-4.3,2.2-7.4,2.6-9.5l0.2-1.1C47.2,6.7,48.8,6,49,5.4v0C49,5.1,48.4,5,47.2,5c-0.8,0-1.8,0.1-2.9,0.2c-0.1-0.6-0.3-0.8-0.6-0.8
	c-0.3,0-0.7,0.4-1.2,1.1c-1,0.2-2.1,0.4-3.1,0.6c-1.5,0.4-2.3,0.9-2.4,1.5c0,0,0,0.1,0,0.1c0,0.5,0.6,0.7,1.9,0.7
	c0.5,0,1.3-0.1,2.3-0.3c-0.4,1.1-0.7,2.3-1,3.8c-0.4,1.8-0.8,3.9-1.1,6.2c-0.4,2.4-0.5,4.2-0.5,5.4c0,0.9,0.1,1.5,0.3,1.8
	C38.9,25.4,39,25.5,39.1,25.5z M27.6,23.3c1.7,0,3.2-0.5,4.4-1.6c1.2-1.1,2.2-2.4,3-3.9c0.6-1.3,1-2.5,1.3-3.8
	c0.3-1.2,0.4-2.2,0.4-3.2c0-1.7-0.4-2.9-1.2-3.7c-0.5-0.5-1.3-0.8-2.2-0.8c-0.4,0-0.7,0-1,0.1c0-0.1,0.1-0.2,0.1-0.3
	c0,0,0-0.1,0-0.1c0-0.2-0.2-0.3-0.5-0.3c-0.4,0-0.9,0.2-1.5,0.5c-1.1,0.7-2.1,1.7-2.9,3c-0.9,1.3-1.6,2.6-2.1,4
	c-0.5,1.2-0.8,2.3-1,3.3c-0.2,0.9-0.3,1.8-0.3,2.5c0,1.4,0.3,2.5,1,3.3C25.7,23,26.5,23.3,27.6,23.3z M28.4,20.8
	c-1,0-1.5-0.7-1.5-1.9c0-0.5,0.1-1.1,0.2-1.9c0.2-1.1,0.6-2.3,1.1-3.6c0.7-1.7,1.4-3.1,2-4.2c0.4-0.6,0.8-1.2,1.4-1.9
	c0.4-0.2,0.8-0.2,1.3-0.2c1.1,0,1.8,0.6,2.2,1.7c0.2,0.5,0.2,1,0.2,1.6c0,0.7-0.1,1.4-0.3,2.2c-0.2,0.9-0.5,1.9-0.9,2.9
	c-0.4,1.1-1,2.1-1.8,3c-0.8,1-1.6,1.6-2.6,2C29.2,20.7,28.8,20.8,28.4,20.8z M18.3,24.2c1,0,2-0.3,2.8-1c1-0.7,1.8-1.4,2.3-2.1
	c0.2-0.2,0.3-0.3,0.3-0.4l0-0.1c0-0.1-0.1-0.1-0.2-0.1c-0.2,0-0.4,0.1-0.6,0.2c-1.9,1.3-3.2,1.9-3.9,1.9c-0.4,0-0.7-0.2-0.8-0.6
	c-0.1-0.4-0.2-0.7-0.2-1.1c0-0.3,0-0.5,0.1-0.8c0.1-0.5,0.2-1.1,0.3-1.6c0.3-1.6,0.9-3.5,1.5-5.5c1-3,1.7-5.3,2-6.7
	c0-0.2,0.1-0.5,0.1-0.6c0-0.2,0-0.4,0-0.5c0-0.4-0.1-0.7-0.3-1c-0.2-0.2-0.3-0.3-0.5-0.3c-0.4,0-0.8,0.4-1.2,1.1
	c-0.8,1.3-1.7,3.3-2.5,5.9c-0.5,1.5-0.8,2.9-1.1,4.2c-0.1,0.7-0.3,1.3-0.4,1.9c-0.2,1.5-0.4,2.7-0.4,3.7c0,0.5,0,1,0.1,1.3
	C16.2,23.5,17,24.2,18.3,24.2z M4.5,13.9c0.8-2.6,1.5-5,2.1-7.4C7.4,6.3,8.2,6,9,5.8c0.5-0.1,1.1-0.3,2-0.4c0.8-0.2,1.7-0.2,2.5-0.2
	c0.8,0,1.4,0.2,1.7,0.5c0.1,0.1,0.2,0.3,0.2,0.5c0,0.1,0,0.2,0,0.2c-0.1,0.6-0.7,1.4-1.6,2.3c-1.3,1.2-2.8,2.3-4.5,3.3
	c-0.9,0.5-1.7,0.9-2.6,1.2C5.8,13.3,5.1,13.6,4.5,13.9L4.5,13.9z M1.4,24.3c0.2,0,0.4-0.4,0.6-1.2c0.1-0.4,0.3-1.3,0.4-2.1
	c0.2-1,0.7-2.9,1.6-5.5c1.8-0.4,4.1-1.3,7-2.6c1.4-0.6,2.8-1.6,4.2-2.7C15.8,9.6,16.4,9,17,8.2c0.6-0.8,1-1.7,1.2-2.5
	c0-0.2,0.1-0.4,0.1-0.6c0-0.5-0.2-1-0.5-1.4c-0.5-0.8-1.3-1.3-2.4-1.5c-0.6-0.1-1.2-0.2-1.9-0.2c-1.8,0-3.9,0.4-6.3,1.1V3.1
	c0-0.4-0.1-0.8-0.4-1C6.7,2,6.6,2,6.5,2C5.9,2,5.3,2.8,4.6,4.3C3.8,4.7,3,5.2,2.2,5.7C1.4,6.3,0.9,6.8,0.8,7.2c0,0,0,0.1,0,0.1
	c0,0.1,0.1,0.2,0.2,0.3c0.1,0.1,0.3,0.2,0.5,0.2c0.3,0,0.9-0.1,1.9-0.3c-0.4,1.4-0.8,3-1.2,4.9C2,13.2,1.8,14,1.7,14.7L0.5,15
	C0.2,15.1,0,15.2,0,15.3v0c0,0.1,0.1,0.2,0.4,0.3c0.2,0.1,0.6,0.2,1.1,0.2c-0.1,0.8-0.3,1.6-0.4,2.5c-0.2,1.5-0.3,2.7-0.3,3.7
	c0,0.5,0,1,0.1,1.4C1,24,1.1,24.3,1.4,24.3z"/>
</svg>
