<?xml version="1.0" encoding="utf-8"?>
<!-- Generator: Adobe Illustrator 16.0.0, SVG Export Plug-In . SVG Version: 6.00 Build 0)  -->
<!DOCTYPE svg PUBLIC "-//W3C//DTD SVG 1.1//EN" "http://www.w3.org/Graphics/SVG/1.1/DTD/svg11.dtd">
<svg version="1.1" id="Capa_1" xmlns="http://www.w3.org/2000/svg" xmlns:xlink="http://www.w3.org/1999/xlink" x="0px" y="0px"
	 width="96.9px" height="37.2px" viewBox="0 0 96.9 37.2" style="enable-background:new 0 0 96.9 37.2;" xml:space="preserve">
<style type="text/css">
<![CDATA[
	.st0{fill-rule:evenodd;clip-rule:evenodd;}
]]>
</style>
<path class="st0" d="M88.2,36.5c0,0.1,0.1,0.1,0.3,0.1c0.4,0,0.9-0.2,1.7-0.6c0.8-0.4,1.5-0.9,2.1-1.5c0.6-0.6,1-1.3,1.2-2.2
	c0.1-0.3,0.1-0.5,0.1-0.8c0-0.3,0-0.6-0.1-0.9c-0.2-0.5-0.4-1.1-0.7-1.6c-0.5-0.8-0.7-1.3-0.7-1.8c0-0.1,0-0.1,0-0.2
	c0.1-0.5,0.5-1.1,1.2-1.7c0.1-0.1,0.3-0.3,0.5-0.4c0.8-0.7,1.2-1.2,1.3-1.6c0,0,0,0,0,0c0-0.1-0.1-0.1-0.2-0.1c-0.3,0-0.7,0.1-1,0.2
	c-1.5,0.7-2.5,1.6-3.2,2.6c-0.2,0.3-0.4,0.7-0.4,1c0,0.2-0.1,0.3-0.1,0.5c0,0.1,0,0.2,0,0.3c0.1,0.9,0.5,1.6,1,2.2
	c0.4,0.5,0.6,1,0.8,1.5c0.1,0.2,0.1,0.5,0.1,0.7c0,0.2,0,0.3-0.1,0.5c-0.1,0.6-0.5,1.2-1,1.7c-0.6,0.5-1.3,1-2.2,1.4
	C88.4,36.2,88.2,36.3,88.2,36.5L88.2,36.5z M86.9,36.7c0.1,0,0.2-0.1,0.3-0.2c0,0,0-0.1,0-0.2c0-0.5,0.1-1.3,0.3-2.3
	c0.1-0.6,0.3-1.5,0.6-2.5c0.4-1.4,0.7-2.8,0.9-4c0.3-1.2,0.4-2.2,0.4-2.8c0-0.4-0.1-0.7-0.2-0.8c-0.1,0-0.1-0.1-0.2-0.1
	c-0.1,0-0.2,0-0.4,0.1c-0.4,0.3-0.7,0.7-0.9,1.4c-0.4-0.3-0.8-0.4-1.3-0.4c-0.8,0-1.5,0.2-2.2,0.5c-1,0.5-1.9,1.2-2.8,2.2
	c-0.8,1-1.5,2-1.9,3.1c-0.2,0.4-0.3,0.8-0.4,1.2c-0.1,0.4-0.1,0.7-0.1,1c0,0.3,0,0.6,0.1,0.9c0.2,0.9,0.6,1.5,1.4,1.7
	c0.2,0.1,0.4,0.1,0.6,0.1c0.6,0,1.2-0.2,1.9-0.6c1.3-0.8,2.5-2.5,3.7-5c-0.2,1.7-0.3,3.1-0.3,4.2c0,0.5,0,0.9,0.1,1.3
	C86.5,36.3,86.6,36.7,86.9,36.7z M81.6,34.1c-0.2,0-0.4-0.1-0.5-0.2c-0.2-0.2-0.3-0.4-0.3-0.8c0-0.2,0-0.4,0.1-0.7
	c0.3-1.2,1-2.7,2.1-3.9c0.6-0.7,1.2-1.2,1.8-1.5c0.6-0.3,1.5-0.7,2.7-1c-1.7,4.3-3.4,6.9-5,7.9C82.2,34.1,81.9,34.1,81.6,34.1z
	 M73.2,36.1c1.5,0,2.8-0.7,4-2.2c0.8-0.9,1.2-1.6,1.3-1.9c0,0,0,0,0-0.1c0-0.1,0-0.1-0.1-0.1c-0.1,0-0.5,0.4-1.1,1.1
	c-0.3,0.4-0.6,0.7-1,0.9c-0.9,0.7-1.7,1-2.5,1c-0.4,0-0.7-0.1-1.1-0.3c-0.6-0.4-0.9-1-1-1.7v-0.2c0-0.3,0-0.7,0.1-1.1
	c1.3-0.3,2.6-0.7,4-1.4c1.1-0.6,1.9-1.3,2.5-2.3c0.3-0.4,0.4-0.9,0.5-1.4c0.1-0.3,0.1-0.5,0.1-0.7c0-0.3,0-0.6-0.1-0.9
	c-0.2-0.5-0.5-0.8-0.9-0.9c-0.2-0.1-0.4-0.1-0.6-0.1c-0.5,0-0.7,0.1-0.8,0.4v0c0,0.1,0.1,0.3,0.2,0.5c0.2,0.4,0.3,0.8,0.3,1.2
	c0,0.2,0,0.4-0.1,0.6c-0.4,1.9-2.1,3.4-5,4.4c0.3-1,0.8-2,1.5-3.1c0.7-1.1,1.3-1.8,1.9-2.2c0.7-0.5,1.1-0.8,1.1-1c0,0,0,0,0,0
	c0-0.1-0.1-0.1-0.2-0.2c-0.1,0-0.3-0.1-0.5-0.1c-0.5,0-1.2,0.2-1.9,0.7c-1,0.7-1.8,1.6-2.5,2.8c-0.6,1.1-1.1,2.2-1.3,3.3
	c-0.1,0.6-0.2,1.1-0.2,1.6c0,0.8,0.2,1.4,0.5,2C71.1,35.6,72,36.1,73.2,36.1z M63,35.4c0.1,0,0.3-0.3,0.5-0.9c0.3-1,0.6-2.1,0.9-3.1
	c0.2,0.4,0.6,0.9,1.2,1.4c0.5,0.5,1.1,1,1.7,1.4c0.7,0.5,1.2,0.8,1.6,0.8c0.1,0,0.2,0,0.2-0.1v0c0-0.1-0.1-0.3-0.4-0.6
	c-0.4-0.5-0.8-1-1.2-1.5c-0.7-1-1.4-1.8-1.8-2.3c1.3-0.3,2.4-0.7,3.4-1.4c0.5-0.3,1-0.8,1.4-1.3c0.4-0.5,0.7-1,0.8-1.5
	c0-0.2,0.1-0.4,0.1-0.6c0-0.4-0.1-0.8-0.4-1.1c-0.5-0.6-1.4-0.8-2.6-0.8c-0.7,0-1.4,0.1-2.1,0.3C66.1,24.1,66,24,65.9,24
	c-0.2,0-0.5,0.2-0.7,0.6c-1,0.4-1.6,0.8-1.7,1.2c0,0,0,0,0,0.1c0,0.2,0.3,0.3,0.8,0.4c-0.4,1-0.8,2.2-1.1,3.6
	c-0.1,0.3-0.2,0.9-0.3,1.7c-0.2,0.9-0.2,1.6-0.2,2.4c0,0.2,0,0.4,0,0.6c0,0.2,0,0.3,0.1,0.5C62.8,35.3,62.9,35.4,63,35.4z
	 M64.8,30.1c0.6-1.7,1-3,1.2-4c0.3,0,0.5-0.1,0.8-0.1c0.5-0.1,0.9-0.1,1.3-0.1c0.3,0,0.6,0,0.9,0.1c0.3,0.1,0.4,0.3,0.4,0.5
	c0,0.1,0,0.1,0,0.2c-0.1,0.5-0.5,1.1-1.2,1.7c-0.7,0.6-1.4,1.1-2,1.3c-0.3,0.1-0.6,0.2-0.9,0.3C65.2,30,65,30.1,64.8,30.1L64.8,30.1
	z M58.9,23.5c0.3,0,0.9-0.3,1.7-0.9c0.4-0.3,0.7-0.6,0.9-0.9c0.1-0.1,0.1-0.2,0.1-0.3c0,0,0-0.1,0-0.1c0-0.1-0.1-0.3-0.2-0.4
	c-0.1-0.1-0.3-0.2-0.4-0.2c-0.1,0-0.3,0.1-0.4,0.2c-0.3,0.2-0.7,0.7-1.2,1.5c-0.1,0.1-0.1,0.2-0.2,0.4c-0.3,0.4-0.4,0.7-0.4,0.7v0
	C58.7,23.4,58.8,23.5,58.9,23.5z M56.3,35.5c1.1,0,2-0.3,2.9-1c0.8-0.7,1.4-1.5,1.9-2.5c0.4-0.8,0.7-1.6,0.9-2.5
	c0.2-0.8,0.2-1.4,0.2-2c0-1.1-0.3-1.9-0.8-2.4c-0.3-0.3-0.8-0.5-1.4-0.5c-0.2,0-0.4,0-0.6,0c0-0.1,0.1-0.1,0.1-0.2c0,0,0-0.1,0-0.1
	c0-0.2-0.1-0.2-0.3-0.2c-0.3,0-0.6,0.1-0.9,0.4c-0.7,0.5-1.3,1.1-1.9,1.9c-0.6,0.8-1,1.7-1.4,2.6c-0.3,0.8-0.5,1.5-0.7,2.2
	c-0.1,0.6-0.2,1.1-0.2,1.6c0,0.9,0.2,1.6,0.7,2.2C55,35.3,55.5,35.5,56.3,35.5z M56.8,33.9c-0.6,0-0.9-0.4-0.9-1.3
	c0-0.3,0.1-0.7,0.2-1.2c0.1-0.7,0.4-1.5,0.7-2.3c0.4-1.1,0.9-2,1.3-2.7c0.2-0.4,0.5-0.8,0.9-1.2c0.2-0.1,0.5-0.1,0.8-0.1
	c0.7,0,1.2,0.4,1.4,1.1c0.1,0.3,0.1,0.7,0.1,1c0,0.4-0.1,0.9-0.2,1.4c-0.1,0.6-0.3,1.2-0.6,1.9c-0.3,0.7-0.7,1.3-1.2,2
	c-0.5,0.6-1.1,1-1.7,1.3C57.3,33.8,57,33.9,56.8,33.9z M48.1,31.7c0.7-2.4,1.2-4.2,1.5-5.5c0.7,0,1.2,0.1,1.6,0.1
	c1,0.1,1.5,0.5,1.5,1.2c0,0.1,0,0.2,0,0.3c-0.1,0.6-0.5,1.2-1,1.8c-0.5,0.6-1.1,1.1-1.8,1.4c-0.7,0.4-1.1,0.5-1.5,0.5L48.1,31.7z
	 M46.5,37.2c0.1,0,0.2-0.2,0.3-0.5c0.2-1.1,0.6-2.6,1.1-4.3h0.2c0.7,0,1.4-0.2,2.3-0.5c0.8-0.3,1.7-0.9,2.4-1.7
	c0.5-0.5,0.9-1,1.2-1.6c0.2-0.3,0.3-0.6,0.3-1c0-0.2,0.1-0.4,0.1-0.5c0-0.1,0-0.2,0-0.3c-0.1-0.7-0.4-1.3-0.8-1.6
	c-0.7-0.5-1.6-0.7-2.7-0.7c-0.3,0-0.6,0-1,0.1c0-0.5-0.2-1-0.4-1c-0.2,0-0.5,0.2-0.7,0.6c-0.2,0.3-0.3,0.5-0.4,0.8
	c-0.2,0.1-0.3,0.2-0.4,0.2c-0.2,0.1-0.3,0.3-0.3,0.4c0,0,0,0,0,0.1c0,0.1,0.1,0.3,0.4,0.4c-0.3,0.7-0.5,1.5-0.7,2.5
	c-0.3,1.2-0.5,2.5-0.7,4c-0.2,1.5-0.4,2.7-0.4,3.5c0,0.6,0.1,1,0.2,1.2C46.4,37.1,46.4,37.2,46.5,37.2z M38.6,35.4
	c0.1,0,0.3-0.3,0.5-0.9c0.3-1,0.6-2.1,0.9-3.1c0.2,0.4,0.6,0.9,1.2,1.4c0.5,0.5,1.1,1,1.7,1.4c0.7,0.5,1.2,0.8,1.6,0.8
	c0.1,0,0.2,0,0.2-0.1v0c0-0.1-0.1-0.3-0.4-0.6c-0.4-0.5-0.8-1-1.2-1.5c-0.7-1-1.4-1.8-1.8-2.3c1.3-0.3,2.4-0.7,3.4-1.4
	c0.5-0.3,1-0.8,1.4-1.3c0.4-0.5,0.7-1,0.8-1.5c0-0.2,0.1-0.4,0.1-0.6c0-0.4-0.1-0.8-0.4-1.1c-0.5-0.6-1.4-0.8-2.6-0.8
	c-0.7,0-1.4,0.1-2.1,0.3c-0.1-0.1-0.2-0.2-0.3-0.2c-0.2,0-0.5,0.2-0.7,0.6c-1,0.4-1.6,0.8-1.7,1.2c0,0,0,0,0,0.1
	c0,0.2,0.3,0.3,0.8,0.4c-0.4,1-0.8,2.2-1.1,3.6c-0.1,0.3-0.2,0.9-0.3,1.7c-0.2,0.9-0.2,1.6-0.2,2.4c0,0.2,0,0.4,0,0.6
	c0,0.2,0,0.3,0.1,0.5C38.4,35.3,38.5,35.4,38.6,35.4z M40.4,30.1c0.6-1.7,1-3,1.2-4c0.3,0,0.5-0.1,0.8-0.1c0.5-0.1,0.9-0.1,1.3-0.1
	c0.3,0,0.6,0,0.9,0.1c0.3,0.1,0.4,0.3,0.4,0.5c0,0.1,0,0.1,0,0.2c-0.1,0.5-0.5,1.1-1.2,1.7c-0.7,0.6-1.4,1.1-2,1.3
	c-0.3,0.1-0.6,0.2-0.9,0.3C40.8,30,40.6,30.1,40.4,30.1L40.4,30.1z M31.9,35.5c1.1,0,2-0.3,2.9-1c0.8-0.7,1.4-1.5,1.9-2.5
	c0.4-0.8,0.7-1.6,0.9-2.5c0.2-0.8,0.2-1.4,0.2-2c0-1.1-0.3-1.9-0.8-2.4c-0.3-0.3-0.8-0.5-1.4-0.5c-0.2,0-0.4,0-0.6,0
	c0-0.1,0.1-0.1,0.1-0.2c0,0,0-0.1,0-0.1c0-0.1-0.1-0.2-0.3-0.2c-0.3,0-0.6,0.1-0.9,0.3c-0.7,0.5-1.3,1.1-1.9,1.9
	c-0.6,0.8-1,1.7-1.4,2.6c-0.3,0.8-0.5,1.5-0.7,2.2c-0.1,0.6-0.2,1.1-0.2,1.6c0,0.9,0.2,1.6,0.7,2.2C30.6,35.3,31.1,35.5,31.9,35.5z
	 M32.4,33.9c-0.6,0-0.9-0.4-0.9-1.3c0-0.3,0.1-0.7,0.2-1.2c0.1-0.7,0.4-1.5,0.7-2.3c0.4-1.1,0.9-2,1.3-2.7c0.2-0.4,0.5-0.8,0.9-1.2
	c0.2-0.1,0.5-0.1,0.8-0.1c0.7,0,1.2,0.4,1.4,1.1c0.1,0.3,0.1,0.7,0.1,1c0,0.4-0.1,0.9-0.2,1.4c-0.1,0.6-0.3,1.2-0.6,1.9
	c-0.3,0.7-0.7,1.3-1.2,2c-0.5,0.6-1.1,1-1.7,1.3C32.9,33.8,32.6,33.9,32.4,33.9z M26.4,36c0.6,0,1.2-0.1,1.7-0.4
	c0.5-0.3,0.8-0.5,1-0.8c0.1-0.2,0.2-0.3,0.3-0.4c0,0,0,0,0,0c0-0.1,0-0.1-0.1-0.1c-0.1,0-0.4,0.1-0.8,0.3c-0.5,0.3-1.1,0.5-1.6,0.5
	c-0.9,0-1.6-0.3-2-0.9c-0.3-0.5-0.5-1.2-0.5-2c0-0.5,0.1-1.1,0.2-1.7c0.3-1.5,0.9-2.8,1.8-4.1c0.6-0.9,1.3-1.6,2.1-2
	c0.4-0.2,0.8-0.4,1.1-0.4c0,0,0.3,0,1,0.2c0.3,0.1,0.5,0.2,0.7,0.2c0.2,0,0.3-0.1,0.3-0.3c0,0,0-0.1,0-0.1c0-0.1,0-0.2,0-0.3
	c0-0.2-0.1-0.4-0.2-0.6c-0.3-0.5-0.7-0.8-1.3-0.8c-0.1,0-0.3,0-0.4,0c-0.4,0-0.9,0.1-1.4,0.3c-0.5,0.2-1,0.5-1.5,0.8
	c-1.1,0.9-2,2-2.7,3.5c-0.4,0.9-0.7,1.8-0.9,2.7c-0.2,0.9-0.3,1.7-0.3,2.4c0,1.3,0.3,2.3,0.9,3C24.4,35.6,25.3,36,26.4,36z
	 M38.4,16.7c0,0.1,0.1,0.1,0.3,0.1c0.4,0,0.9-0.2,1.7-0.6c0.8-0.4,1.5-0.9,2.1-1.5c0.6-0.6,1-1.3,1.2-2.2c0.1-0.3,0.1-0.5,0.1-0.8
	c0-0.3,0-0.6-0.1-0.9c-0.2-0.5-0.4-1.1-0.7-1.6c-0.5-0.8-0.7-1.3-0.7-1.8c0-0.1,0-0.1,0-0.2c0.1-0.5,0.5-1.1,1.2-1.7
	c0.1-0.1,0.3-0.3,0.5-0.4c0.8-0.7,1.2-1.2,1.3-1.6c0,0,0,0,0,0c0-0.1-0.1-0.1-0.2-0.1c-0.3,0-0.7,0.1-1,0.2
	c-1.5,0.7-2.5,1.6-3.2,2.6c-0.2,0.3-0.4,0.7-0.4,1c0,0.2-0.1,0.3-0.1,0.5c0,0.1,0,0.2,0,0.3c0.1,0.9,0.5,1.6,1,2.2
	c0.4,0.5,0.6,1,0.8,1.5c0.1,0.2,0.1,0.5,0.1,0.7c0,0.2,0,0.3-0.1,0.5c-0.1,0.6-0.5,1.2-1,1.7c-0.6,0.5-1.3,1-2.2,1.4
	C38.6,16.3,38.4,16.5,38.4,16.7L38.4,16.7z M37,16.8c0.1,0,0.2-0.1,0.3-0.2c0,0,0-0.1,0-0.2c0-0.5,0.1-1.3,0.3-2.3
	c0.1-0.6,0.3-1.5,0.6-2.5c0.4-1.4,0.7-2.8,0.9-4c0.3-1.2,0.4-2.2,0.4-2.8c0-0.4-0.1-0.7-0.2-0.8c-0.1,0-0.1-0.1-0.2-0.1
	c-0.1,0-0.2,0-0.4,0.1c-0.4,0.3-0.7,0.7-0.9,1.4c-0.4-0.3-0.8-0.4-1.3-0.4c-0.8,0-1.5,0.2-2.2,0.5c-1,0.5-1.9,1.2-2.8,2.2
	c-0.8,1-1.5,2-1.9,3.1c-0.2,0.4-0.3,0.8-0.4,1.2c-0.1,0.4-0.1,0.7-0.1,1c0,0.3,0,0.6,0.1,0.9c0.2,0.9,0.6,1.5,1.4,1.7
	c0.2,0.1,0.4,0.1,0.6,0.1c0.6,0,1.2-0.2,1.9-0.6c1.3-0.8,2.5-2.5,3.7-5c-0.2,1.7-0.3,3.1-0.3,4.2c0,0.5,0,0.9,0.1,1.3
	C36.7,16.5,36.8,16.8,37,16.8z M31.8,14.3c-0.2,0-0.4-0.1-0.5-0.2c-0.2-0.2-0.3-0.4-0.3-0.8c0-0.2,0-0.4,0.1-0.7
	c0.3-1.2,1-2.7,2.1-3.9c0.6-0.7,1.2-1.2,1.8-1.5c0.6-0.3,1.5-0.7,2.7-1c-1.7,4.3-3.4,6.9-5,7.9C32.4,14.2,32.1,14.3,31.8,14.3z
	 M22.8,15.5c0.1,0,0.3-0.3,0.5-0.9c0.3-1,0.6-2.1,0.9-3.1c0.2,0.4,0.6,0.9,1.2,1.4c0.5,0.5,1.1,1,1.7,1.4c0.7,0.5,1.2,0.8,1.6,0.8
	c0.1,0,0.2,0,0.2-0.1v0c0-0.1-0.1-0.3-0.4-0.6c-0.4-0.5-0.8-1-1.2-1.5c-0.7-1-1.4-1.8-1.8-2.3c1.3-0.3,2.4-0.7,3.4-1.4
	c0.5-0.3,1-0.8,1.4-1.3c0.4-0.5,0.7-1,0.8-1.5C31,6.4,31,6.2,31,6c0-0.4-0.1-0.8-0.4-1.1c-0.5-0.6-1.4-0.8-2.6-0.8
	c-0.7,0-1.4,0.1-2.1,0.3c-0.1-0.1-0.2-0.2-0.3-0.2c-0.2,0-0.5,0.2-0.7,0.6c-1,0.4-1.6,0.8-1.7,1.2c0,0,0,0,0,0.1
	c0,0.2,0.3,0.3,0.8,0.4c-0.4,1-0.8,2.2-1.1,3.6c-0.1,0.3-0.2,0.9-0.3,1.7c-0.2,0.9-0.2,1.6-0.2,2.4c0,0.2,0,0.4,0,0.6
	c0,0.2,0,0.3,0.1,0.5C22.6,15.4,22.7,15.5,22.8,15.5z M24.6,10.3c0.6-1.7,1-3,1.2-4c0.3,0,0.5-0.1,0.8-0.1c0.5-0.1,0.9-0.1,1.3-0.1
	c0.3,0,0.6,0,0.9,0.1c0.3,0.1,0.4,0.3,0.4,0.5c0,0.1,0,0.1,0,0.2c-0.1,0.5-0.5,1.1-1.2,1.7c-0.7,0.6-1.4,1.1-2,1.3
	c-0.3,0.1-0.6,0.2-0.9,0.3C25,10.2,24.8,10.2,24.6,10.3L24.6,10.3z M18.2,17.1c0.1,0,0.2-0.2,0.3-0.5c0.2-1.1,0.6-2.6,1.2-4.4
	c0.8-2.8,1.4-4.8,1.7-6.1l0.1-0.7c2-0.5,3-1,3.1-1.4v0c0-0.1-0.4-0.2-1.2-0.2c-0.5,0-1.2,0-1.9,0.1c-0.1-0.4-0.2-0.5-0.4-0.5
	c-0.2,0-0.5,0.2-0.8,0.7c-0.7,0.1-1.3,0.2-2,0.4c-0.9,0.2-1.5,0.6-1.5,1c0,0,0,0.1,0,0.1c0,0.3,0.4,0.5,1.2,0.5
	c0.4,0,0.9-0.1,1.5-0.2c-0.2,0.7-0.5,1.5-0.7,2.5c-0.3,1.2-0.5,2.5-0.7,4c-0.2,1.5-0.4,2.7-0.4,3.5c0,0.6,0.1,1,0.2,1.2
	C18.1,17,18.2,17.1,18.2,17.1z M10.5,16.2c1.5,0,2.8-0.7,4-2.2c0.8-0.9,1.2-1.6,1.3-1.9c0,0,0,0,0-0.1c0-0.1,0-0.1-0.1-0.1
	c-0.1,0-0.5,0.4-1.1,1.1c-0.3,0.4-0.6,0.7-1,0.9c-0.9,0.7-1.7,1-2.5,1c-0.4,0-0.7-0.1-1.1-0.3c-0.6-0.4-0.9-1-1-1.7v-0.2
	c0-0.4,0-0.7,0.1-1.1c1.3-0.3,2.6-0.7,4-1.4c1.1-0.6,1.9-1.3,2.5-2.3c0.3-0.4,0.4-0.9,0.6-1.4c0.1-0.3,0.1-0.5,0.1-0.7
	c0-0.3,0-0.6-0.1-0.9c-0.2-0.5-0.5-0.8-0.9-0.9c-0.2-0.1-0.4-0.1-0.6-0.1c-0.5,0-0.7,0.1-0.8,0.4v0c0,0.1,0.1,0.3,0.2,0.5
	c0.2,0.4,0.4,0.8,0.4,1.2c0,0.2,0,0.4-0.1,0.6c-0.4,1.9-2.1,3.4-5,4.4c0.3-1,0.8-2,1.5-3.1c0.7-1.1,1.3-1.8,1.9-2.2
	c0.7-0.5,1.1-0.8,1.1-1c0,0,0,0,0,0c0-0.1-0.1-0.1-0.2-0.2c-0.1,0-0.3-0.1-0.5-0.1c-0.5,0-1.2,0.2-1.9,0.7c-1,0.7-1.8,1.6-2.5,2.8
	C8.2,8.9,7.8,10,7.5,11.1c-0.1,0.6-0.2,1.1-0.2,1.6c0,0.8,0.2,1.4,0.5,2C8.4,15.7,9.3,16.2,10.5,16.2z M1.9,17.1
	c0.9,0,1.9-0.4,3.1-1.3c0.6-0.4,1.1-0.9,1.5-1.4C6.8,14.1,7,13.8,7,13.7c0,0,0,0,0,0c0-0.1,0-0.1-0.1-0.1c-0.1,0-0.4,0.1-0.7,0.4
	c-0.4,0.3-0.8,0.6-1.3,0.9c-0.8,0.5-1.5,0.8-2.1,0.8c-0.6,0-0.9-0.3-0.9-0.8c0-0.5,0-0.8,0-0.9c0-0.8,0.1-1.6,0.3-2.4
	c0.2-0.9,0.5-1.9,0.8-3c0.5-1.6,0.9-3.3,1.3-5c0.1-0.4,0.1-0.7,0.1-0.8c0-0.2-0.1-0.4-0.2-0.5C4.2,2.1,4.1,2,4,2
	C3.5,2,2.7,3.4,1.7,6.1c-0.5,1.4-1,2.9-1.3,4.5C0.1,11.9,0,13,0,13.9c0,1.4,0.3,2.3,0.9,2.8C1.2,17,1.5,17.1,1.9,17.1z"/>
</svg>
