<?xml version="1.0" encoding="utf-8"?>
<!-- Generator: Adobe Illustrator 16.0.0, SVG Export Plug-In . SVG Version: 6.00 Build 0)  -->
<!DOCTYPE svg PUBLIC "-//W3C//DTD SVG 1.1//EN" "http://www.w3.org/Graphics/SVG/1.1/DTD/svg11.dtd">
<svg version="1.1" id="Capa_1" xmlns="http://www.w3.org/2000/svg" xmlns:xlink="http://www.w3.org/1999/xlink" x="0px" y="0px"
	 width="109.2px" height="22.4px" viewBox="0 0 109.2 22.4" style="enable-background:new 0 0 109.2 22.4;" xml:space="preserve">
<style type="text/css">
<![CDATA[
	.st0{fill-rule:evenodd;clip-rule:evenodd;}
]]>
</style>
<path class="st0" d="M98.2,21.6c0,0.1,0.1,0.2,0.4,0.2c0.5,0,1.3-0.3,2.3-0.8c1.1-0.5,2-1.2,2.8-2c0.8-0.8,1.3-1.8,1.6-2.9
	c0.1-0.4,0.1-0.7,0.1-1c0-0.4-0.1-0.8-0.2-1.2c-0.2-0.7-0.5-1.4-1-2.1c-0.6-1-0.9-1.8-0.9-2.3c0-0.1,0-0.2,0-0.3
	c0.1-0.6,0.7-1.4,1.6-2.3c0.2-0.2,0.4-0.4,0.6-0.6c1-0.9,1.6-1.6,1.7-2.1c0,0,0,0,0-0.1c0-0.1-0.1-0.2-0.3-0.2
	c-0.4,0-0.9,0.1-1.3,0.3c-1.9,0.9-3.4,2.1-4.3,3.4c-0.3,0.4-0.5,0.9-0.6,1.4c0,0.2-0.1,0.5-0.1,0.7c0,0.1,0,0.3,0,0.4
	c0.1,1.1,0.7,2.1,1.4,2.9c0.5,0.6,0.8,1.3,1.1,2c0.1,0.3,0.2,0.6,0.2,1c0,0.2,0,0.5-0.1,0.7c-0.2,0.8-0.6,1.6-1.4,2.3
	c-0.8,0.7-1.7,1.4-2.9,1.9C98.5,21.1,98.3,21.4,98.2,21.6L98.2,21.6z M92.2,21c1.9,0,3.7-1,5.3-2.9c1-1.2,1.6-2.1,1.7-2.6
	c0,0,0,0,0-0.1c0-0.1,0-0.1-0.1-0.1c-0.2,0-0.6,0.5-1.5,1.4c-0.4,0.5-0.8,0.9-1.4,1.3c-1.2,0.9-2.3,1.4-3.4,1.4
	c-0.5,0-1-0.1-1.4-0.4c-0.8-0.5-1.2-1.3-1.3-2.3v-0.3c0-0.5,0-1,0.2-1.5c1.7-0.3,3.4-1,5.3-1.9c1.4-0.7,2.5-1.8,3.3-3.1
	c0.3-0.6,0.6-1.2,0.7-1.9c0.1-0.3,0.1-0.7,0.1-1c0-0.4-0.1-0.8-0.2-1.1c-0.2-0.6-0.6-1-1.3-1.3c-0.2-0.1-0.5-0.1-0.8-0.1
	c-0.6,0-1,0.2-1,0.5v0c0,0.1,0.1,0.4,0.3,0.7c0.3,0.5,0.5,1.1,0.5,1.6c0,0.2,0,0.5-0.1,0.8c-0.5,2.6-2.8,4.5-6.6,5.8
	c0.4-1.3,1.1-2.7,2-4.1c0.9-1.4,1.7-2.4,2.5-2.9c0.9-0.7,1.4-1.1,1.5-1.4c0,0,0,0,0-0.1c0-0.1-0.1-0.2-0.3-0.3
	c-0.2-0.1-0.4-0.1-0.6-0.1c-0.6,0-1.6,0.3-2.5,0.9C92,7,90.9,8.3,89.9,9.8c-0.8,1.4-1.4,2.9-1.7,4.4C88.1,15,88,15.7,88,16.4
	c0,1,0.2,1.9,0.6,2.6C89.4,20.3,90.6,21,92.2,21z M83.2,21c0.2,0,0.5-0.2,0.7-0.7c1.9-3.8,3.1-6.9,3.6-9.1c0.2-1.1,0.3-2.1,0.3-3.1
	V8c0-1.2-0.2-2.1-0.7-2.7c-0.4-0.5-0.8-0.7-1.3-0.7c-0.3,0-0.5,0.1-0.6,0.2c-0.1,0.1-0.1,0.2-0.1,0.3c0,0.1,0,0.2,0,0.4
	c0,0.2,0,0.4,0,0.7c0.1,0.8,0.2,1.7,0.2,2.6c0,1.8-0.2,3.7-0.7,5.8c-0.4,1.7-0.8,3.4-1.4,4.9c-0.3-1.9-0.5-3.5-0.6-4.8
	c-0.2-2.4-0.4-4.8-1.2-7.2c-0.1-0.3-0.2-0.6-0.4-1c-0.5-0.8-1-1.2-1.5-1.2c-0.6,0-1,0.2-1.3,0.7c-0.8,1.2-1.5,2.9-1.9,5.2
	c-0.5,2.4-0.8,4.4-0.8,6.1c0,0.6,0,1.1,0.1,1.6c0,0.1,0.1,0.3,0.1,0.4c0.1,0.2,0.2,0.4,0.4,0.4c0.1,0,0.3-0.3,0.4-0.8
	c0.7-3.1,1.6-6.3,2.7-9.4c0.8,3.1,1.2,5,1.4,5.5c0.8,3,1.6,5,2.2,5.8C82.9,21,83,21,83.2,21z M67.2,20.3c1.5,0,2.7-0.5,3.8-1.4
	c1.1-0.9,1.9-2,2.6-3.4c0.5-1.1,0.9-2.2,1.1-3.3c0.2-1,0.3-1.9,0.3-2.7c0-1.4-0.4-2.5-1.1-3.2c-0.5-0.5-1.1-0.7-1.9-0.7
	c-0.3,0-0.6,0-0.8,0.1c0-0.1,0.1-0.2,0.1-0.2c0,0,0-0.1,0-0.1c0-0.2-0.1-0.3-0.4-0.3c-0.3,0-0.8,0.2-1.3,0.5
	c-0.9,0.6-1.8,1.5-2.5,2.6c-0.7,1.1-1.3,2.3-1.8,3.5c-0.4,1-0.7,2-0.9,2.9c-0.2,0.8-0.3,1.5-0.3,2.1c0,1.2,0.3,2.2,0.9,2.9
	C65.5,20,66.2,20.3,67.2,20.3z M67.8,18.1c-0.8,0-1.3-0.6-1.3-1.7c0-0.4,0.1-1,0.2-1.6c0.2-0.9,0.5-2,1-3.1c0.6-1.5,1.2-2.7,1.8-3.6
	c0.3-0.5,0.7-1,1.2-1.7c0.3-0.1,0.7-0.2,1.1-0.2c0.9,0,1.6,0.5,1.9,1.4c0.1,0.4,0.2,0.9,0.2,1.4c0,0.6-0.1,1.2-0.2,1.9
	c-0.2,0.8-0.4,1.6-0.8,2.5c-0.4,0.9-0.9,1.8-1.6,2.6c-0.7,0.8-1.4,1.4-2.3,1.7C68.5,18,68.1,18.1,67.8,18.1z M60.5,20.3
	c0.2,0,0.4-0.3,0.5-0.9c0.2-1,0.6-2.2,1.1-3.6c0.5-1.4,0.9-2.5,1.2-3.3c0.4-1.3,0.7-2.3,0.9-3.2c0.2-0.8,0.2-1.4,0.2-1.9
	c0-0.8-0.2-1.2-0.7-1.2c-0.6,0-1.2,0.8-1.8,2.3c-0.3,0.7-0.5,1.5-0.7,2.4c-0.4,1.8-0.7,3.8-0.9,5.9c-0.1,0.9-0.2,1.6-0.2,2.2
	C60.2,19.9,60.3,20.3,60.5,20.3z M63.9,5.3c0.4,0,0.9-0.5,1.7-1.6c0.2-0.3,0.3-0.5,0.3-0.7c0-0.1,0-0.1,0-0.2c0-0.2,0-0.3-0.1-0.4
	C65.7,2.1,65.4,2,65.1,2c-0.2,0-0.3,0-0.5,0.1c-0.6,0.2-0.9,0.4-1.1,0.8c0,0.1-0.1,0.3-0.1,0.4c0,0.2,0,0.4,0,0.5c0,0.1,0,0.2,0,0.3
	C63.5,4.9,63.6,5.3,63.9,5.3z M51.9,21.6c0,0.1,0.1,0.2,0.4,0.2c0.5,0,1.3-0.3,2.3-0.8c1.1-0.5,2-1.2,2.8-2c0.8-0.8,1.3-1.8,1.6-2.9
	c0.1-0.4,0.1-0.7,0.1-1c0-0.4-0.1-0.8-0.2-1.2c-0.2-0.7-0.5-1.4-1-2.1c-0.6-1-0.9-1.8-0.9-2.3c0-0.1,0-0.2,0-0.3
	c0.1-0.6,0.7-1.4,1.6-2.3c0.2-0.2,0.4-0.4,0.6-0.6c1-0.9,1.6-1.6,1.7-2.1c0,0,0,0,0-0.1c0-0.1-0.1-0.2-0.3-0.2
	c-0.4,0-0.9,0.1-1.3,0.3c-1.9,0.9-3.4,2.1-4.3,3.4c-0.3,0.4-0.5,0.9-0.6,1.4c0,0.2-0.1,0.5-0.1,0.7c0,0.1,0,0.3,0,0.4
	c0.1,1.1,0.7,2.1,1.4,2.9c0.5,0.6,0.8,1.3,1.1,2c0.1,0.3,0.2,0.6,0.2,1c0,0.2,0,0.5-0.1,0.7c-0.2,0.8-0.6,1.6-1.4,2.3
	c-0.8,0.7-1.7,1.4-2.9,1.9C52.2,21.1,52,21.4,51.9,21.6L51.9,21.6z M45.9,21c1.9,0,3.7-1,5.3-2.9c1-1.2,1.6-2.1,1.7-2.6
	c0,0,0,0,0-0.1c0-0.1,0-0.1-0.1-0.1c-0.2,0-0.6,0.5-1.5,1.4c-0.4,0.5-0.8,0.9-1.4,1.3c-1.2,0.9-2.3,1.4-3.4,1.4
	c-0.5,0-1-0.1-1.4-0.4c-0.8-0.5-1.2-1.3-1.3-2.3v-0.3c0-0.5,0-1,0.2-1.5c1.7-0.3,3.4-1,5.3-1.9c1.4-0.7,2.5-1.8,3.3-3.1
	c0.3-0.6,0.6-1.2,0.7-1.9c0.1-0.3,0.1-0.7,0.1-1c0-0.4-0.1-0.8-0.2-1.1c-0.2-0.6-0.6-1-1.3-1.3c-0.2-0.1-0.5-0.1-0.8-0.1
	c-0.6,0-1,0.2-1,0.5v0c0,0.1,0.1,0.4,0.3,0.7C50.9,6.3,51,6.9,51,7.5C51,7.7,51,8,51,8.2c-0.5,2.6-2.8,4.5-6.6,5.8
	c0.4-1.3,1.1-2.7,2-4.1c0.9-1.4,1.7-2.4,2.5-2.9c0.9-0.7,1.4-1.1,1.5-1.4c0,0,0,0,0-0.1c0-0.1-0.1-0.2-0.3-0.3
	c-0.2-0.1-0.4-0.1-0.6-0.1c-0.6,0-1.6,0.3-2.5,0.9c-1.3,0.9-2.4,2.1-3.3,3.7c-0.8,1.4-1.4,2.9-1.7,4.4c-0.2,0.8-0.2,1.5-0.2,2.1
	c0,1,0.2,1.9,0.6,2.6C43.1,20.3,44.3,21,45.9,21z M32.3,20.1c0.2,0,0.4-0.4,0.6-1.2c0.4-1.4,0.8-2.7,1.2-4.1
	c0.3,0.6,0.8,1.2,1.5,1.9c0.7,0.7,1.4,1.3,2.2,1.9c0.9,0.7,1.6,1.1,2.1,1.1c0.1,0,0.2,0,0.2-0.1v0c0-0.1-0.2-0.4-0.5-0.8
	c-0.6-0.6-1.1-1.3-1.6-2c-1-1.3-1.8-2.4-2.4-3c1.7-0.4,3.2-1,4.5-1.9c0.7-0.4,1.3-1,1.8-1.7c0.6-0.7,0.9-1.4,1.1-2
	c0.1-0.3,0.1-0.6,0.1-0.8c0-0.6-0.2-1.1-0.5-1.4c-0.7-0.7-1.8-1.1-3.4-1.1c-1,0-1.9,0.1-2.8,0.3C36.4,5.1,36.3,5,36.1,5
	c-0.3,0-0.6,0.2-1,0.8c-1.4,0.6-2.1,1.1-2.2,1.6c0,0,0,0.1,0,0.1c0,0.3,0.4,0.5,1.1,0.5c-0.6,1.3-1,2.9-1.5,4.8
	c-0.1,0.4-0.2,1.2-0.5,2.3c-0.2,1.1-0.3,2.2-0.3,3.1c0,0.3,0,0.5,0,0.8c0,0.2,0.1,0.5,0.1,0.7C32,20,32.1,20.1,32.3,20.1z
	 M34.8,13.1c0.8-2.2,1.3-4,1.6-5.4c0.3,0,0.7-0.1,1.1-0.2c0.6-0.1,1.2-0.2,1.7-0.2c0.4,0,0.8,0,1.3,0.2C40.8,7.6,41,7.9,41,8.2
	c0,0.1,0,0.2,0,0.3c-0.1,0.7-0.7,1.4-1.6,2.3c-0.9,0.8-1.8,1.4-2.7,1.8c-0.4,0.2-0.8,0.3-1.3,0.4C35.2,13,35,13,34.8,13.1L34.8,13.1
	z M23.5,15.1c1-3.2,1.6-5.6,2-7.3c0.9,0.1,1.6,0.1,2.1,0.2c1.3,0.2,2,0.7,2,1.6c0,0.1,0,0.3,0,0.4c-0.2,0.8-0.6,1.6-1.4,2.4
	c-0.7,0.8-1.5,1.4-2.3,1.9c-0.9,0.5-1.5,0.6-2,0.7L23.5,15.1z M21.4,22.4c0.2,0,0.3-0.2,0.4-0.6c0.3-1.5,0.8-3.4,1.5-5.7h0.3
	c0.9,0,1.9-0.2,3-0.7c1.1-0.5,2.2-1.2,3.3-2.2c0.6-0.6,1.2-1.4,1.6-2.2c0.2-0.4,0.4-0.8,0.5-1.3c0-0.2,0.1-0.5,0.1-0.7
	c0-0.1,0-0.3,0-0.4c-0.1-1-0.5-1.7-1.1-2.2c-0.9-0.7-2.1-1-3.6-1c-0.4,0-0.9,0-1.3,0.1c0-0.7-0.2-1.3-0.6-1.3
	c-0.3,0-0.6,0.3-0.9,0.8c-0.2,0.3-0.4,0.7-0.6,1c-0.2,0.1-0.4,0.2-0.6,0.3c-0.3,0.2-0.4,0.4-0.5,0.5c0,0,0,0,0,0.1
	c0,0.2,0.2,0.3,0.5,0.5c-0.3,0.9-0.6,2.1-0.9,3.3c-0.3,1.6-0.7,3.4-0.9,5.3c-0.3,2.1-0.5,3.6-0.5,4.7c0,0.8,0.1,1.3,0.3,1.5
	C21.2,22.4,21.3,22.4,21.4,22.4z M16.7,20.8c0.3,0,0.9-1.1,1.7-3.2c1-2.6,1.7-4.7,2-6.4c0.2-1,0.3-1.8,0.3-2.5c0-0.5,0-1-0.2-1.4
	c-0.3-1.3-1.2-2-2.5-2c-1.6,0-3.2,1.4-4.7,4.2c-0.5,1-1.1,2.5-1.6,4.6c0-0.3,0-0.7,0-1c0-1.2,0-2.2-0.1-3c-0.1-1.7-0.6-3.1-1.4-4.1
	C9.9,5.3,9.4,5,8.8,5C8.1,5,7.4,5.7,6.6,7.1c-0.8,1.4-1.4,3.1-1.8,5.1c-0.4,1.7-0.5,3.1-0.5,4.4c0,1,0.1,1.8,0.3,2.5
	c0.1,0.2,0.2,0.4,0.3,0.5c0.1,0.1,0.2,0.2,0.3,0.2c0.1,0,0.2-0.1,0.2-0.2c0-0.1,0-0.2,0-0.4v-0.2c0-0.7,0.1-1.4,0.2-2
	c0.6-2.9,1.6-6,3-9.4c0.8,2.3,1.3,4.7,1.5,7.2c0.1,1.2,0.2,2.1,0.2,2.8c0,0.2,0,0.3,0,0.4c0,0.2,0,0.4,0,0.6c0,1.1,0.1,1.6,0.4,1.6
	c0.4,0,1-0.9,1.8-2.8c0.4-0.8,0.7-1.6,1-2.2c0.4-0.9,0.8-2,1.3-3.1c1.3-3,2.3-4.5,3.1-4.5c0.6,0,0.9,0.7,0.9,2c0,0.2,0,0.3,0,0.5
	c-0.1,1.2-0.2,2.4-0.4,3.4c-0.2,1.1-0.5,2.2-0.9,3.3c-0.3,1-0.6,2.1-0.8,3c-0.1,0.3-0.1,0.6-0.1,0.8C16.5,20.7,16.6,20.8,16.7,20.8z
	 M0.8,20.8c0.2,0,0.4-0.2,0.5-0.7c0-0.1,0-0.2,0-0.3c0-0.8,0.2-1.7,0.4-2.7c0.3-1.3,0.7-3.1,1.4-5.6c0.3-1,0.6-2.4,1-4
	C4.3,7,4.4,6.6,4.5,6.2c0.2-1.1,0.3-1.9,0.3-2.5c0-0.6-0.2-1-0.5-1c-0.3,0-0.6,0.2-1,0.6C2.5,4.1,1.8,5.9,1.2,8.6
	c-0.5,2.3-0.8,4.5-1.1,6.6C0,16.2,0,17,0,17.8c0,0.7,0,1.3,0.1,1.9c0,0.1,0,0.3,0.1,0.5C0.4,20.6,0.5,20.8,0.8,20.8z"/>
</svg>
