<?xml version="1.0" encoding="utf-8"?>
<!-- Generator: Adobe Illustrator 16.0.0, SVG Export Plug-In . SVG Version: 6.00 Build 0)  -->
<!DOCTYPE svg PUBLIC "-//W3C//DTD SVG 1.1//EN" "http://www.w3.org/Graphics/SVG/1.1/DTD/svg11.dtd">
<svg version="1.1" id="Capa_1" xmlns="http://www.w3.org/2000/svg" xmlns:xlink="http://www.w3.org/1999/xlink" x="0px" y="0px"
	 width="109.3px" height="22px" viewBox="0 0 109.3 22" style="enable-background:new 0 0 109.3 22;" xml:space="preserve">
<style type="text/css">
<![CDATA[
	.st0{fill-rule:evenodd;clip-rule:evenodd;}
]]>
</style>
<path class="st0" d="M98.4,21.5c0,0.1,0.1,0.2,0.4,0.2c0.5,0,1.2-0.3,2.3-0.8c1.1-0.5,2-1.2,2.7-2c0.8-0.8,1.3-1.8,1.5-2.9
	c0.1-0.4,0.1-0.7,0.1-1c0-0.4-0.1-0.8-0.2-1.2c-0.2-0.7-0.5-1.4-1-2.1c-0.6-1-0.9-1.8-0.9-2.3c0-0.1,0-0.2,0-0.3
	c0.1-0.6,0.7-1.4,1.6-2.3c0.2-0.2,0.4-0.4,0.6-0.6c1-0.9,1.6-1.6,1.7-2.1c0,0,0,0,0-0.1c0-0.1-0.1-0.2-0.3-0.2
	c-0.4,0-0.9,0.1-1.3,0.3c-1.9,0.9-3.3,2.1-4.2,3.4c-0.3,0.4-0.5,0.9-0.6,1.4c0,0.2-0.1,0.5-0.1,0.7c0,0.1,0,0.3,0,0.4
	c0.1,1.1,0.7,2.1,1.4,2.9c0.5,0.6,0.8,1.3,1.1,2c0.1,0.3,0.2,0.6,0.2,1c0,0.2,0,0.5-0.1,0.7c-0.2,0.8-0.6,1.6-1.4,2.3
	c-0.8,0.7-1.7,1.3-2.9,1.9C98.7,21,98.4,21.2,98.4,21.5L98.4,21.5z M96.6,21.7c0.2,0,0.3-0.1,0.3-0.3c0-0.1,0-0.1,0-0.2
	c0-0.7,0.2-1.7,0.4-3c0.2-0.8,0.4-1.9,0.8-3.3c0.5-1.9,0.9-3.6,1.2-5.3C99.7,8,99.9,6.7,99.9,6c0-0.5-0.1-0.9-0.3-1
	c-0.1-0.1-0.2-0.1-0.3-0.1c-0.1,0-0.3,0.1-0.5,0.2C98.5,5.4,98,6,97.7,6.8c-0.5-0.3-1.1-0.5-1.7-0.5c-1,0-2,0.2-2.9,0.6
	c-1.3,0.6-2.5,1.6-3.6,2.9c-1.1,1.3-2,2.6-2.6,4.1c-0.2,0.6-0.4,1.1-0.5,1.6c-0.1,0.5-0.1,0.9-0.1,1.4c0,0.4,0,0.8,0.1,1.1
	c0.3,1.2,0.9,1.9,1.8,2.2c0.3,0.1,0.5,0.1,0.8,0.1c0.8,0,1.6-0.3,2.4-0.8c1.7-1.1,3.3-3.3,4.8-6.5c-0.2,2.2-0.4,4.1-0.4,5.6
	c0,0.7,0,1.2,0.1,1.7C96.1,21.2,96.3,21.7,96.6,21.7z M89.7,18.3c-0.3,0-0.5-0.1-0.7-0.3c-0.3-0.2-0.4-0.6-0.4-1.1
	c0-0.2,0-0.5,0.1-0.9c0.3-1.6,1.3-3.5,2.7-5.2c0.8-0.9,1.6-1.6,2.3-2c0.8-0.5,2-0.9,3.6-1.3c-2.3,5.7-4.5,9.1-6.6,10.4
	C90.4,18.2,90.1,18.3,89.7,18.3z M83,20.2c0.2,0,0.4-0.3,0.5-0.9c0.2-1,0.6-2.1,1.1-3.6c0.5-1.4,0.9-2.5,1.2-3.3
	c0.4-1.2,0.7-2.3,0.9-3.2c0.2-0.8,0.2-1.4,0.2-1.9c0-0.8-0.2-1.2-0.7-1.2c-0.6,0-1.2,0.8-1.8,2.3c-0.3,0.7-0.5,1.5-0.7,2.4
	c-0.4,1.8-0.7,3.8-0.9,5.9c-0.1,0.9-0.2,1.6-0.2,2.2C82.7,19.8,82.8,20.2,83,20.2z M86.4,5.2c0.4,0,0.9-0.5,1.6-1.6
	c0.2-0.3,0.3-0.5,0.3-0.7c0-0.1,0-0.1,0-0.2c0-0.2,0-0.3-0.1-0.4C88.2,2.1,87.9,2,87.6,2c-0.2,0-0.3,0-0.5,0.1
	c-0.6,0.2-0.9,0.4-1.1,0.8C86,3,86,3.1,85.9,3.3c0,0.2,0,0.4,0,0.5c0,0.1,0,0.2,0,0.3C86,4.9,86.1,5.2,86.4,5.2z M72.6,20
	c0.2,0,0.4-0.4,0.6-1.2c0.4-1.4,0.8-2.7,1.2-4c0.3,0.6,0.8,1.2,1.5,1.9c0.7,0.7,1.4,1.3,2.2,1.9c0.9,0.7,1.6,1.1,2.1,1.1
	c0.1,0,0.2,0,0.2-0.1v0c0-0.1-0.2-0.4-0.5-0.8c-0.6-0.6-1.1-1.3-1.6-2c-1-1.3-1.8-2.3-2.4-3c1.7-0.4,3.2-1,4.5-1.9
	c0.7-0.4,1.3-1,1.8-1.7c0.6-0.7,0.9-1.4,1.1-2c0.1-0.3,0.1-0.6,0.1-0.8c0-0.6-0.2-1.1-0.5-1.4c-0.7-0.7-1.8-1.1-3.4-1.1
	c-1,0-1.9,0.1-2.8,0.3C76.7,5.1,76.5,5,76.4,5c-0.3,0-0.6,0.2-1,0.7c-1.4,0.6-2.1,1.1-2.2,1.6c0,0,0,0.1,0,0.1
	c0,0.3,0.4,0.5,1.1,0.5c-0.6,1.3-1,2.8-1.4,4.8c-0.1,0.4-0.2,1.2-0.5,2.3c-0.2,1.1-0.3,2.2-0.3,3.1c0,0.3,0,0.5,0,0.8
	c0,0.2,0.1,0.5,0.1,0.7C72.3,19.9,72.4,20,72.6,20z M75,13c0.7-2.2,1.3-4,1.6-5.3c0.3,0,0.7-0.1,1.1-0.2c0.6-0.1,1.2-0.2,1.7-0.2
	c0.4,0,0.8,0,1.2,0.2c0.4,0.1,0.6,0.3,0.6,0.7c0,0.1,0,0.2,0,0.3c-0.1,0.7-0.7,1.4-1.6,2.3c-0.9,0.8-1.8,1.4-2.7,1.7
	c-0.4,0.2-0.8,0.3-1.2,0.4C75.4,12.9,75.2,13,75,13L75,13z M64,20.9c1.9,0,3.7-0.9,5.3-2.9c1-1.2,1.6-2.1,1.7-2.6c0,0,0,0,0-0.1
	c0-0.1,0-0.1-0.1-0.1c-0.2,0-0.6,0.5-1.5,1.4c-0.4,0.5-0.8,0.9-1.3,1.2c-1.2,0.9-2.3,1.4-3.3,1.4c-0.5,0-1-0.1-1.4-0.4
	c-0.8-0.5-1.2-1.3-1.3-2.3v-0.3c0-0.5,0-0.9,0.2-1.5c1.7-0.3,3.4-1,5.2-1.9c1.4-0.7,2.5-1.8,3.3-3.1c0.3-0.6,0.6-1.2,0.7-1.8
	c0.1-0.3,0.1-0.7,0.1-1c0-0.4-0.1-0.8-0.2-1.1c-0.2-0.6-0.6-1-1.2-1.2c-0.2-0.1-0.5-0.1-0.8-0.1c-0.6,0-0.9,0.2-1,0.5v0
	c0,0.1,0.1,0.4,0.3,0.7c0.3,0.5,0.5,1.1,0.5,1.6c0,0.2,0,0.5-0.1,0.8c-0.5,2.6-2.7,4.5-6.6,5.8c0.4-1.3,1-2.7,2-4.1
	c0.9-1.4,1.7-2.3,2.5-2.9c0.9-0.7,1.4-1.1,1.5-1.4c0,0,0,0,0-0.1c0-0.1-0.1-0.2-0.3-0.3c-0.2-0.1-0.4-0.1-0.6-0.1
	c-0.6,0-1.6,0.3-2.5,0.9c-1.3,0.9-2.3,2.1-3.3,3.7c-0.8,1.4-1.4,2.9-1.7,4.4c-0.2,0.8-0.2,1.5-0.2,2.1c0,1,0.2,1.9,0.6,2.6
	C61.2,20.2,62.4,20.9,64,20.9z M54.8,20.9c0.9,0,1.7-0.3,2.4-0.8c0.8-0.6,1.5-1.2,2-1.8c0.2-0.2,0.2-0.3,0.2-0.4l0-0.1
	c0-0.1,0-0.1-0.2-0.1c-0.2,0-0.3,0.1-0.5,0.2c-1.6,1.1-2.7,1.7-3.3,1.7c-0.3,0-0.6-0.2-0.7-0.5c-0.1-0.3-0.1-0.6-0.1-0.9
	c0-0.2,0-0.4,0.1-0.7c0.1-0.5,0.2-0.9,0.3-1.4c0.3-1.4,0.7-3,1.3-4.7c0.9-2.6,1.4-4.5,1.7-5.7c0-0.2,0.1-0.4,0.1-0.6
	c0-0.2,0-0.3,0-0.5c0-0.4-0.1-0.6-0.3-0.8c-0.1-0.2-0.3-0.3-0.4-0.3c-0.3,0-0.6,0.3-1,0.9c-0.7,1.1-1.4,2.8-2.1,5
	c-0.4,1.2-0.7,2.5-0.9,3.6c-0.1,0.6-0.2,1.1-0.3,1.6c-0.2,1.3-0.3,2.3-0.3,3.2c0,0.5,0,0.8,0.1,1.2C53,20.3,53.7,20.9,54.8,20.9z
	 M44.9,20.9c1.9,0,3.7-0.9,5.3-2.9c1-1.2,1.6-2.1,1.7-2.6c0,0,0,0,0-0.1c0-0.1,0-0.1-0.1-0.1c-0.2,0-0.6,0.5-1.5,1.4
	c-0.4,0.5-0.8,0.9-1.3,1.2c-1.2,0.9-2.3,1.4-3.3,1.4c-0.5,0-1-0.1-1.4-0.4c-0.8-0.5-1.2-1.3-1.3-2.3v-0.3c0-0.5,0-0.9,0.2-1.5
	c1.7-0.3,3.4-1,5.2-1.9c1.4-0.7,2.5-1.8,3.3-3.1c0.3-0.6,0.6-1.2,0.7-1.8c0.1-0.3,0.1-0.7,0.1-1c0-0.4-0.1-0.8-0.2-1.1
	c-0.2-0.6-0.6-1-1.2-1.2c-0.2-0.1-0.5-0.1-0.8-0.1c-0.6,0-0.9,0.2-1,0.5v0c0,0.1,0.1,0.4,0.3,0.7C49.9,6.3,50,6.8,50,7.4
	c0,0.2,0,0.5-0.1,0.8c-0.5,2.6-2.7,4.5-6.6,5.8c0.4-1.3,1-2.7,2-4.1c0.9-1.4,1.7-2.3,2.5-2.9c0.9-0.7,1.4-1.1,1.5-1.4c0,0,0,0,0-0.1
	c0-0.1-0.1-0.2-0.3-0.3c-0.2-0.1-0.4-0.1-0.6-0.1c-0.6,0-1.6,0.3-2.5,0.9c-1.3,0.9-2.3,2.1-3.3,3.7c-0.8,1.4-1.4,2.9-1.7,4.4
	c-0.2,0.8-0.2,1.5-0.2,2.1c0,1,0.2,1.9,0.6,2.6C42.1,20.2,43.3,20.9,44.9,20.9z M36.8,22c0.2,0,0.3-0.2,0.4-0.6
	c0.3-1.5,0.8-3.4,1.5-5.8c1.1-3.6,1.9-6.4,2.2-8.1l0.2-0.9c2.6-0.7,4-1.3,4.1-1.8v0c0-0.2-0.5-0.3-1.5-0.3c-0.7,0-1.5,0-2.5,0.2
	c-0.1-0.5-0.3-0.7-0.5-0.7c-0.3,0-0.6,0.3-1,0.9C38.8,5,37.9,5.2,37,5.4c-1.2,0.3-1.9,0.7-2,1.3c0,0,0,0.1,0,0.1
	c0,0.4,0.5,0.6,1.6,0.6c0.5,0,1.1-0.1,2-0.3c-0.3,0.9-0.6,2-0.9,3.3c-0.3,1.6-0.7,3.3-0.9,5.3c-0.3,2-0.5,3.6-0.5,4.6
	c0,0.8,0.1,1.3,0.3,1.5C36.7,22,36.7,22,36.8,22z M23.4,20c0.2,0,0.4-0.4,0.6-1.2c0.4-1.4,0.8-2.7,1.2-4c0.3,0.6,0.8,1.2,1.5,1.9
	c0.7,0.7,1.4,1.3,2.2,1.9c0.9,0.7,1.6,1.1,2.1,1.1c0.1,0,0.2,0,0.2-0.1v0c0-0.1-0.2-0.4-0.5-0.8c-0.6-0.6-1.1-1.3-1.6-2
	c-1-1.3-1.8-2.3-2.4-3c1.7-0.4,3.2-1,4.5-1.9c0.7-0.4,1.3-1,1.8-1.7c0.6-0.7,0.9-1.4,1.1-2c0.1-0.3,0.1-0.6,0.1-0.8
	c0-0.6-0.2-1.1-0.5-1.4c-0.7-0.7-1.8-1.1-3.4-1.1c-1,0-1.9,0.1-2.8,0.3C27.5,5.1,27.4,5,27.2,5c-0.3,0-0.6,0.2-1,0.7
	c-1.4,0.6-2.1,1.1-2.2,1.6c0,0,0,0.1,0,0.1c0,0.3,0.4,0.5,1.1,0.5c-0.6,1.3-1,2.8-1.4,4.8c-0.1,0.4-0.2,1.2-0.5,2.3
	c-0.2,1.1-0.3,2.2-0.3,3.1c0,0.3,0,0.5,0,0.8c0,0.2,0.1,0.5,0.1,0.7C23.1,19.9,23.3,20,23.4,20z M25.8,13c0.7-2.2,1.3-4,1.6-5.3
	c0.3,0,0.7-0.1,1.1-0.2c0.6-0.1,1.2-0.2,1.7-0.2c0.4,0,0.8,0,1.2,0.2C31.8,7.6,32,7.8,32,8.2c0,0.1,0,0.2,0,0.3
	c-0.1,0.7-0.7,1.4-1.6,2.3c-0.9,0.8-1.8,1.4-2.7,1.7c-0.4,0.2-0.8,0.3-1.2,0.4C26.3,12.9,26.1,13,25.8,13L25.8,13z M19.3,21.7
	c0.2,0,0.3-0.1,0.3-0.3c0-0.1,0-0.1,0-0.2c0-0.7,0.2-1.7,0.4-3c0.2-0.8,0.4-1.9,0.8-3.3c0.5-1.9,0.9-3.6,1.2-5.3
	C22.5,8,22.7,6.7,22.7,6c0-0.5-0.1-0.9-0.3-1c-0.1-0.1-0.2-0.1-0.3-0.1c-0.1,0-0.3,0.1-0.5,0.2c-0.5,0.3-0.9,0.9-1.2,1.8
	c-0.5-0.3-1.1-0.5-1.7-0.5c-1,0-2,0.2-2.9,0.6c-1.3,0.6-2.5,1.6-3.6,2.9c-1.1,1.3-2,2.6-2.6,4.1c-0.2,0.6-0.4,1.1-0.5,1.6
	C9,16.1,9,16.5,9,17c0,0.4,0,0.8,0.1,1.1c0.3,1.2,0.9,1.9,1.8,2.2c0.3,0.1,0.5,0.1,0.8,0.1c0.8,0,1.6-0.3,2.4-0.8
	c1.7-1.1,3.3-3.3,4.8-6.5c-0.2,2.2-0.4,4.1-0.4,5.6c0,0.7,0,1.2,0.1,1.7C18.8,21.2,19,21.7,19.3,21.7z M12.5,18.3
	c-0.3,0-0.5-0.1-0.7-0.3c-0.3-0.2-0.4-0.6-0.4-1.1c0-0.2,0-0.5,0.1-0.9c0.3-1.6,1.3-3.5,2.7-5.2c0.8-0.9,1.6-1.6,2.3-2
	c0.8-0.5,2-0.9,3.6-1.3c-2.3,5.7-4.5,9.1-6.6,10.4C13.2,18.2,12.8,18.3,12.5,18.3z M4.7,20.8c0.9,0,1.6-0.2,2.2-0.5
	c0.6-0.4,1.1-0.7,1.4-1.1c0.2-0.2,0.3-0.4,0.4-0.6c0,0,0,0,0-0.1c0-0.1,0-0.1-0.1-0.1c-0.2,0-0.5,0.2-1,0.5
	c-0.7,0.4-1.4,0.6-2.1,0.6c-1.2,0-2.1-0.4-2.6-1.2c-0.4-0.7-0.6-1.6-0.6-2.7c0-0.7,0.1-1.4,0.3-2.3c0.4-2,1.2-3.8,2.3-5.4
	c0.8-1.2,1.8-2.1,2.8-2.6C8.1,5,8.6,4.9,8.9,4.9c0,0,0.4-0.1,1.3,0.3c0.4,0.2,0.7,0.3,1,0.3c0.2,0,0.4-0.1,0.4-0.4c0,0,0-0.1,0-0.1
	c0-0.1,0-0.2-0.1-0.4c-0.1-0.3-0.2-0.5-0.3-0.8c-0.4-0.6-0.9-1-1.7-1.1c-0.2,0-0.4,0-0.6,0C8.5,2.6,7.9,2.8,7.2,3
	c-0.7,0.2-1.4,0.6-2,1.1C3.7,5.3,2.5,6.8,1.6,8.7C1,9.9,0.6,11,0.4,12.2C0.1,13.4,0,14.5,0,15.4c0,1.7,0.4,3,1.2,3.9
	C2.1,20.3,3.2,20.8,4.7,20.8z"/>
</svg>
