<?xml version="1.0" encoding="utf-8"?>
<!-- Generator: Adobe Illustrator 16.0.0, SVG Export Plug-In . SVG Version: 6.00 Build 0)  -->
<!DOCTYPE svg PUBLIC "-//W3C//DTD SVG 1.1//EN" "http://www.w3.org/Graphics/SVG/1.1/DTD/svg11.dtd">
<svg version="1.1" id="Capa_1" xmlns="http://www.w3.org/2000/svg" xmlns:xlink="http://www.w3.org/1999/xlink" x="0px" y="0px"
	 width="177.4px" height="211.4px" viewBox="0 0 177.4 211.4" style="enable-background:new 0 0 177.4 211.4;" xml:space="preserve"
	>
<linearGradient id="gradCar" x1="0%" y1="0%" x2="100%" y2="0%" gradientTransform="rotate(45)">
	<stop offset="10%" style="stop-color:rgb(255,255,255);stop-opacity:1" />
	<stop offset="100%" style="stop-color:rgb(220,220,220);stop-opacity:1" />
</linearGradient>
<style type="text/css">
<![CDATA[
	.CarLine{
		fill:none;
		stroke:black;
		stroke:transparent;
		stroke-width:0.3;
		stroke-dasharray:550px;
		stroke-dashoffset:0;
		animation: CarLine 1s forwards 6s;
	}
	@keyframes CarLine{
		0%{
			stroke-dashoffset:550px;
			stroke:#000000;	
		}75%{
			stroke-dashoffset:0px;
			stroke:#000000;
		}100%{
			stroke-dashoffset:0px;
			stroke:#000000;
	}}

	.CarCuerpo{		
		fill:gray;
		opacity:0;
		animation: CarColor 1s forwards 6s;
	}	
	.CarSombra{
		fill:#B3B3B3;
		opacity:0;
		animation: CarColor 1s forwards 6s;
	}
	.CarLogoNegro{
		fill-rule:evenodd;
		clip-rule:evenodd;
		fill:black;
		opacity:0;
		animation: CarColor 1s forwards 6s;
	}
	.CarLuces{
		fill:white;
		opacity:0;
		animation: CarColor 1s forwards 6s;
	}
	.Carcolor{
		fill: url(#gradCar);
		opacity:0;
		animation: CarColor 1s forwards 6s;
	}
	.CarLogoNaranja{		
		fill:#FF6600;
		opacity:0;
		animation: CarColor 1s forwards 6s;
	}
	@keyframes CarColor{
		0%{
			opacity:0;
		}75%{
			opacity:0;
		}100%{
			opacity:1;
	}}
]]>
</style>
<path class="CarSombra" d="M163,31l-7.1,3.8l8.1,11.4l6.9-3.6L163,31z M9,190.5l144.8-81.5l-1.7-99.1l-7.9-4.5L0.8,87.7l-0.5,99.7L9,190.5
	z M104.3,156.2l1.6,41.8c-3,13.5-36.2,13.3-36.4,0.9l-0.4-22.4l-49.6,28.6L9.4,200L152,116.2l9.5,7L104.3,156.2z"/>
<polygon class="Carcolor" points="156.4,9.7 15.1,94.2 13.2,190.3 158,108.7 "/>
<polygon class="CarLine" points="156.4,9.7 15.1,94.2 13.2,190.3 158,108.7 "/>
<path class="Carcolor" d="M108.5,156l1.6,41.8c-3,13.5-36.2,13.3-36.4,0.9l-0.4-22.4L108.5,156z"/>
<path class="CarLine" d="M108.5,156l1.6,41.8c-3,13.5-36.2,13.3-36.4,0.9l-0.4-22.4L108.5,156z"/>
<polyline class="CarLine" points="140.9,18.9 160.2,27.6 164.3,32.4 "/>
<polygon class="CarLuces" points="167.2,30.8 160.1,34.6 168.2,46 175.2,42.4 "/>
<polygon class="CarLine" points="167.2,30.8 160.1,34.6 168.2,46 175.2,42.4 "/>
<polyline class="CarLine" points="106.1,39.7 125.4,48.4 129.5,53.1 "/>
<polygon class="Carcolor" points="13.6,199.9 23.8,204.9 165.7,123 156.2,116 "/>
<polygon class="CarLine" points="13.6,199.9 23.8,204.9 165.7,123 156.2,116 "/>
<polyline class="CarLine" points="136.7,127.5 137.1,120.5 143.4,123.5 "/>
<polyline class="CarLine" points="121,129.6 120.5,137 113.4,133.9 "/>
<polyline class="CarLine" points="89.6,147.3 89.2,155.4 81.3,151.9 "/>
<polyline class="CarLine" points="100.3,148.9 100.6,141.1 107.9,144.4 "/>
<polyline class="CarLine" points="71.2,166 71.1,157.7 79,161.4 "/>
<polyline class="CarLine" points="63.1,162.2 62.6,171 54.4,167.1 "/>
<polyline class="CarLine" points="44.4,181.8 44.7,172.5 53,176.7 "/>
<polyline class="CarLine" points="34,178.6 33,188.4 23.6,184.2 "/>
<polygon class="CarCuerpo" points="15.1,94.2 5,87.5 4.4,187.2 13.2,190.3 "/>
<polygon class="CarLine" points="15.1,94.2 5,87.5 4.4,187.2 13.2,190.3 "/>
<polygon class="CarCuerpo" points="156.4,9.7 148.4,5.1 5,87.5 15.1,94.2 "/>
<polygon class="CarLine" points="156.4,9.7 148.4,5.1 5,87.5 15.1,94.2 "/>
<path class="CarLogoNaranja" d="M108.4,78.8c18.7-11.9,33.3-12.5,32.6-1.3c-0.7,10.6-14.9,27.8-32.3,39.8c1-0.6,1.9-1.1,2.9-1.8
	c18.7-11.9,34.6-31.3,35.4-43.4c0.8-12-13.7-12.2-32.5-0.3c-9.2,5.8-17.6,13.4-24,21.1C95.8,87.8,101.9,82.9,108.4,78.8"/>
<path class="CarLogoNaranja" d="M35.5,99.8c7.5-4.8,15-9.5,22.6-14.3l-0.3,4.9L52,94l-2,29.4l-11.3,7.2l2-29.4l-5.6,3.6L35.5,99.8z"/>
<path class="CarLogoNaranja" d="M61.7,83.1l12.4-7.9l-2,29.4l3.8-2.4l2-29.4l12-7.6l-1.7,25c-0.3,5.1-3.9,11.4-7.8,13.9l-13.9,8.8
	c-3.9,2.5-6.9,0.3-6.5-4.8L61.7,83.1z"/>
<polygon class="CarLogoNegro" points="38.5,136.5 41.9,134.3 40.5,153.9 37.2,156.1 "/>
<path class="CarLogoNegro" d="M43.2,133.5l2.9-1.8l0.2-0.1l3.2-2c1.9-1.2,3.5-0.9,4.3,0.4l0.2-3.3l4-2.6c2.9-1.8,5-0.2,4.8,3.5l-0.9,12.7
	l-3.2,2l0.8-11.8c0.1-2.1-1-2.9-2.6-1.9l-3,1.9c0.2,0.7,0.3,1.5,0.3,2.5l-0.9,12.7l-3.2,2L51,136c0.1-2.1-1-2.9-2.6-1.9l-2.4,1.5
	l-1,15.5l-3.1,2L43.2,133.5z"/>
<path class="CarLogoNegro" d="M115.6,87.5l2.9-1.8l0.2-0.1l4.9-3.1c2.9-1.8,5-0.2,4.8,3.5l-0.9,12.7l-3.2,2l0.8-11.8c0.1-2.1-1-2.9-2.6-1.9
	l-4.1,2.6l-1,15.5l-3.1,2L115.6,87.5z"/>
<path class="CarLogoNegro" d="M71.1,115.6l2.8-1.8c3.5-2.3,6.2-0.3,5.9,4.3l-1.1,17l-3.4,2.2l0.6-9.5l0.5-7.5c0.1-2.2-1.1-3.1-2.8-2l-2.8,1.8
	c-1.7,1.1-3.2,3.7-3.3,5.9l-0.2,3l7.1-4.5L74,129l-7.1,4.5l-2.9,1.9l-0.5,0.3l0.5-7.5C64.4,123.5,67.5,117.8,71.1,115.6"/>
<path class="CarLogoNegro" d="M80.9,120.9l0.2-3.6c0.3-4.6,3.5-10.3,7-12.5l10.5-6.7l-0.3,4.5l-10.5,6.7c-1.7,1.1-3.2,3.7-3.3,5.9l-0.2,3.6
	c-0.1,2.2,1.1,3.1,2.8,2l7.1-4.5l0.6-9.2l3.4-2.2l-0.6,9.2l-0.2,2.6l-0.1,1.9l-10.5,6.7C83.2,127.4,80.6,125.5,80.9,120.9"/>
<path class="CarLogoNegro" d="M112.1,99.9l-7.7,4.9c-2.7,1.7-3.1,7.1-0.4,5.3l7.7-4.9l-0.3,4.2l-8.6,5.5c-4.2,2.6-5.4-3.1-2-8.4
	c0,0,0.7-1.4,0-1.9c-2.7-0.6-1-7.3,2.4-9.5l9.5-6.1l-0.2,3.4l-8.4,5.3c-1.9,1.2-2.1,4.9-0.2,3.7l8.4-5.3L112.1,99.9z"/>
<polygon class="CarLuces" points="53.5,99.1 46.4,102.9 54.6,114.3 61.5,110.6 "/>
<polygon class="CarLine" points="53.5,99.1 46.4,102.9 54.6,114.3 61.5,110.6 "/>
<polygon class="CarLuces" points="92.4,76.4 85.3,80.3 93.4,91.6 100.4,88 "/>
<polygon class="CarLine" points="92.4,76.4 85.3,80.3 93.4,91.6 100.4,88 "/>
<polygon class="CarLuces" points="132.3,51.6 125.2,55.5 133.4,66.8 140.3,63.2 "/>
<polygon class="CarLine" points="132.3,51.6 125.2,55.5 133.4,66.8 140.3,63.2 "/>
<polyline class="CarLine" points="27.3,87.2 46.6,95.9 50.7,100.6 "/>
<polyline class="CarLine" points="66.1,64.6 85.4,73.2 89.6,78 "/>
</svg>
