<?xml version="1.0" encoding="utf-8"?>
<!-- Generator: Adobe Illustrator 16.0.0, SVG Export Plug-In . SVG Version: 6.00 Build 0)  -->
<!DOCTYPE svg PUBLIC "-//W3C//DTD SVG 1.1//EN" "http://www.w3.org/Graphics/SVG/1.1/DTD/svg11.dtd">
<svg version="1.1" id="Capa_1" xmlns="http://www.w3.org/2000/svg" xmlns:xlink="http://www.w3.org/1999/xlink" x="0px" y="0px"
	 width="229.4px" height="161px" viewBox="0 0 229.4 161" style="enable-background:new 0 0 229.4 161;" xml:space="preserve">
<linearGradient id="gradHerr" x1="0%" y1="0%" x2="100%" y2="0%" gradientTransform="rotate(45)">
	<stop offset="10%" style="stop-color:rgb(255,255,255);stop-opacity:1" />
	<stop offset="100%" style="stop-color:rgb(220,220,220);stop-opacity:1" />
</linearGradient>
<style type="text/css">
<![CDATA[
	.st0{
		fill:none;
		stroke:black;		
		stroke-width:0.3;
		stroke:transparent;
		stroke-dasharray:300px;
		stroke-dashoffset:0;
		animation: CarLine 1s forwards 4s;
	}
	@keyframes CarLine{
		0%{
			stroke-dashoffset:300px;
			stroke:#000000;	
		}90%{
			stroke-dashoffset:0px;
			stroke:#000000;
		}100%{
			stroke-dashoffset:0px;
			stroke:#000000;
	}}	
	.st2{
		fill: url(#gradHerr);
		opacity:0;
		animation: CarColor 1s forwards 4s;
	}
	@keyframes CarColor{
		0%{
			opacity:0;
		}90%{
			opacity:0;
		}100%{
			opacity:1;
	}}
]]>
</style>
<polygon class="st2" points="222.1,67 224.7,67.4 224.7,134.3 221.8,133.3 "/>
<polygon class="st0" points="222.1,67 224.7,67.4 224.7,134.3 221.8,133.3 "/>
<polygon class="st2" points="224.7,66.8 227.1,65.8 227.1,133.6 224.7,134.3 "/>
<polygon class="st0" points="224.7,66.8 227.1,65.8 227.1,133.6 224.7,134.3 "/>
<polygon class="st2" points="90.6,23.5 93.2,23.9 93.2,90.8 90.4,89.8 "/>
<polygon class="st0" points="90.6,23.5 93.2,23.9 93.2,90.8 90.4,89.8 "/>
<polygon class="st2" points="93.2,23.2 95.6,22.3 95.6,90.1 93.2,90.8 "/>
<polygon class="st0" points="93.2,23.2 95.6,22.3 95.6,90.1 93.2,90.8 "/>
<polygon class="st2" points="126.5,35.4 129,35.8 129.1,102.7 126.2,101.7 "/>
<polygon class="st0" points="126.5,35.4 129,35.8 129.1,102.7 126.2,101.7 "/>
<polygon class="st2" points="129,35.1 131.4,34.1 131.4,102 129,102.7 "/>
<polygon class="st0" points="129,35.1 131.4,34.1 131.4,102 129,102.7 "/>
<polygon class="st2" points="156.1,45.2 158.7,45.6 158.8,112.5 155.9,111.5 "/>
<polygon class="st0" points="156.1,45.2 158.7,45.6 158.8,112.5 155.9,111.5 "/>
<polygon class="st2" points="158.7,44.9 161.1,44 161.1,111.8 158.7,112.5 "/>
<polygon class="st0" points="158.7,44.9 161.1,44 161.1,111.8 158.7,112.5 "/>
<polygon class="st2" points="190.1,56.4 192.6,56.8 192.7,123.7 189.8,122.8 "/>
<polygon class="st0" points="190.1,56.4 192.6,56.8 192.7,123.7 189.8,122.8 "/>
<polygon class="st2" points="192.6,56.2 195.1,55.2 195.1,123 192.6,123.7 "/>
<polygon class="st0" points="192.6,56.2 195.1,55.2 195.1,123 192.6,123.7 "/>
<polygon class="st2" points="64.9,83.7 67.2,84.5 67.2,138.8 64.9,138 "/>
<polygon class="st0" points="64.9,83.7 67.2,84.5 67.2,138.8 64.9,138 "/>
<path class="st2" d="M67.2,84.5l2.4,0.8v52.8l-2.4,0.7C67.2,138.8,67.2,84.5,67.2,84.5z"/>
<path class="st0" d="M67.2,84.5l2.4,0.8v52.8l-2.4,0.7C67.2,138.8,67.2,84.5,67.2,84.5z"/>
<polygon class="st2" points="67.2,97.6 67.2,99.5 83,89.7 81.1,89.1 "/>
<polygon class="st0" points="67.2,97.6 67.2,99.5 83,89.7 81.1,89.1 "/>
<polygon class="st2" points="67.2,99.5 69.6,98.8 83.9,90 83,89.7 "/>
<polygon class="st0" points="67.2,99.5 69.6,98.8 83.9,90 83,89.7 "/>
<polygon class="st2" points="64.9,98.4 64.9,96.3 52.6,79.7 50.5,79 "/>
<polygon class="st0" points="64.9,98.4 64.9,96.3 52.6,79.7 50.5,79 "/>
<polygon class="st2" points="64.9,93.9 64.9,96.3 52.6,79.7 55,80.5 "/>
<polygon class="st0" points="64.9,93.9 64.9,96.3 52.6,79.7 55,80.5 "/>
<polygon class="st2" points="130.5,105.4 133.3,106.3 133.3,160.7 130.5,159.7 "/>
<polygon class="st0" points="130.5,105.4 133.3,106.3 133.3,160.7 130.5,159.7 "/>
<polygon class="st2" points="133.3,106.3 135.7,105.6 135.7,160 133.3,160.7 "/>
<polygon class="st0" points="133.3,106.3 135.7,105.6 135.7,160 133.3,160.7 "/>
<polygon class="st2" points="130.5,120.3 130.5,118.1 118.2,101.4 116.1,100.7 "/>
<polygon class="st0" points="130.5,120.3 130.5,118.1 118.2,101.4 116.1,100.7 "/>
<polygon class="st2" points="130.5,115.8 130.5,118.1 118.2,101.4 120.7,102.2 "/>
<polygon class="st0" points="130.5,115.8 130.5,118.1 118.2,101.4 120.7,102.2 "/>
<polygon class="st2" points="0.6,62.5 3.2,63.3 3.2,117.6 0.6,116.7 "/>
<polygon class="st0" points="0.6,62.5 3.2,63.3 3.2,117.6 0.6,116.7 "/>
<polygon class="st2" points="3.2,63.3 5.5,64.1 5.5,116.9 3.2,117.6 "/>
<polygon class="st0" points="3.2,63.3 5.5,64.1 5.5,116.9 3.2,117.6 "/>
<polygon class="st2" points="3.2,76.4 3.2,78.3 19,68.5 17,67.9 "/>
<polygon class="st0" points="3.2,76.4 3.2,78.3 19,68.5 17,67.9 "/>
<polygon class="st2" points="3.2,78.3 5.6,77.6 19.9,68.8 19,68.5 "/>
<polygon class="st0" points="3.2,78.3 5.6,77.6 19.9,68.8 19,68.5 "/>
<polygon class="st2" points="224.7,80 224.7,78 92.1,34.7 92.1,36.1 "/>
<polygon class="st0" points="224.7,80 224.7,78 92.1,34.7 92.1,36.1 "/>
<polygon class="st2" points="133.3,106.3 133.3,105 0.6,61.1 0.6,62.5 "/>
<polygon class="st0" points="133.3,106.3 133.3,105 0.6,61.1 0.6,62.5 "/>
<polygon class="st2" points="133.3,105 133.3,106.3 135.7,105.6 135.7,104.3 "/>
<polygon class="st0" points="133.3,105 133.3,106.3 135.7,105.6 135.7,104.3 "/>
<polygon class="st2" points="0.6,61.1 3.1,60.4 135.7,104.3 133.3,105 "/>
<polygon class="st0" points="0.6,61.1 3.1,60.4 135.7,104.3 133.3,105 "/>
<polygon class="st2" points="67.3,83.2 67.3,82.4 158.7,56 158.7,56.8 "/>
<polygon class="st0" points="67.3,83.2 67.3,82.4 158.7,56 158.7,56.8 "/>
<polygon class="st2" points="157.8,55.8 158.7,56.1 67.3,82.4 66.2,82 "/>
<polygon class="st0" points="157.8,55.8 158.7,56.1 67.3,82.4 66.2,82 "/>
<polygon class="st2" points="66.2,82 67.3,82.4 67.3,83.2 66.2,82.8 "/>
<polygon class="st0" points="66.2,82 67.3,82.4 67.3,83.2 66.2,82.8 "/>
<polygon class="st2" points="66.2,81.3 67.3,81.7 67.3,82.4 66.2,82 "/>
<polygon class="st0" points="66.2,81.3 67.3,81.7 67.3,82.4 66.2,82 "/>
<polygon class="st2" points="67.4,81.7 161.1,44 161.1,44.6 67.3,82.4 "/>
<polygon class="st0" points="67.4,81.7 161.1,44 161.1,44.6 67.3,82.4 "/>
<polygon class="st2" points="160.1,43.6 161.1,44 67.5,81.7 66.2,81.4 "/>
<polygon class="st0" points="160.1,43.6 161.1,44 67.5,81.7 66.2,81.4 "/>
<polygon class="st2" points="158.7,45.6 152.5,57.8 151.5,58.1 142.8,52.9 139,61.7 138.1,62 131,57.9 127.9,64.9 127,65.2 
	120.9,61.8 118.6,67.6 117.2,68 112.7,65.5 110.7,69.9 109.4,70.3 104.4,67.5 105.8,66.9 109.7,69 111.8,64.5 112.7,64.1 
	117.2,66.5 119.7,61.3 121.4,60.6 126.7,63.8 129.9,57.2 131.5,56.6 137.8,60.2 141.7,52.4 143.3,51.8 151.3,56.4 156.3,46.6 "/>
<polygon class="st0" points="158.7,45.6 152.5,57.8 151.5,58.1 142.8,52.9 139,61.7 138.1,62 131,57.9 127.9,64.9 127,65.2 
	120.9,61.8 118.6,67.6 117.2,68 112.7,65.5 110.7,69.9 109.4,70.3 104.4,67.5 105.8,66.9 109.7,69 111.8,64.5 112.7,64.1 
	117.2,66.5 119.7,61.3 121.4,60.6 126.7,63.8 129.9,57.2 131.5,56.6 137.8,60.2 141.7,52.4 143.3,51.8 151.3,56.4 156.3,46.6 "/>
<polygon class="st2" points="37.6,73.3 37.6,72.6 129,46.2 129,47 "/>
<polygon class="st0" points="37.6,73.3 37.6,72.6 129,46.2 129,47 "/>
<polygon class="st2" points="128.1,46 129,46.3 37.6,72.6 36.5,72.2 "/>
<polygon class="st0" points="128.1,46 129,46.3 37.6,72.6 36.5,72.2 "/>
<polygon class="st2" points="36.5,72.2 37.6,72.6 37.6,73.3 36.5,73 "/>
<polygon class="st0" points="36.5,72.2 37.6,72.6 37.6,73.3 36.5,73 "/>
<polygon class="st2" points="36.5,71.5 37.6,71.8 37.6,72.6 36.5,72.2 "/>
<polygon class="st0" points="36.5,71.5 37.6,71.8 37.6,72.6 36.5,72.2 "/>
<polygon class="st2" points="37.7,71.9 131.4,34.1 131.4,34.8 37.6,72.6 "/>
<polygon class="st0" points="37.7,71.9 131.4,34.1 131.4,34.8 37.6,72.6 "/>
<polygon class="st2" points="130.4,33.8 131.4,34.1 37.8,71.9 36.5,71.6 "/>
<polygon class="st0" points="130.4,33.8 131.4,34.1 37.8,71.9 36.5,71.6 "/>
<polygon class="st2" points="129,35.8 122.8,48 121.8,48.3 113.1,43.1 109.3,51.9 108.4,52.2 101.3,48.1 98.2,55.1 97.3,55.4 
	91.2,52 88.9,57.8 87.5,58.2 83,55.6 81,60.1 79.7,60.4 74.7,57.7 76.1,57.1 80,59.2 82.1,54.6 83,54.3 87.5,56.7 90,51.5 
	91.7,50.8 97,53.9 100.2,47.4 101.8,46.7 108.1,50.4 112,42.6 113.6,42 121.6,46.5 126.6,36.8 "/>
<polygon class="st0" points="129,35.8 122.8,48 121.8,48.3 113.1,43.1 109.3,51.9 108.4,52.2 101.3,48.1 98.2,55.1 97.3,55.4 
	91.2,52 88.9,57.8 87.5,58.2 83,55.6 81,60.1 79.7,60.4 74.7,57.7 76.1,57.1 80,59.2 82.1,54.6 83,54.3 87.5,56.7 90,51.5 
	91.7,50.8 97,53.9 100.2,47.4 101.8,46.7 108.1,50.4 112,42.6 113.6,42 121.6,46.5 126.6,36.8 "/>
<polygon class="st2" points="1.8,61.5 1.8,60.7 93.2,34.4 93.2,35.1 "/>
<polygon class="st0" points="1.8,61.5 1.8,60.7 93.2,34.4 93.2,35.1 "/>
<polygon class="st2" points="92.2,34.1 93.2,34.4 1.8,60.7 0.6,60.3 "/>
<polygon class="st0" points="92.2,34.1 93.2,34.4 1.8,60.7 0.6,60.3 "/>
<polygon class="st2" points="0.6,60.3 1.8,60.7 1.8,61.5 0.6,61.1 "/>
<polygon class="st0" points="0.6,60.3 1.8,60.7 1.8,61.5 0.6,61.1 "/>
<polygon class="st2" points="0.6,59.6 1.8,60 1.8,60.7 0.6,60.4 "/>
<polygon class="st0" points="0.6,59.6 1.8,60 1.8,60.7 0.6,60.4 "/>
<polygon class="st2" points="1.9,60 95.6,22.3 95.6,22.9 1.8,60.7 "/>
<polygon class="st0" points="1.9,60 95.6,22.3 95.6,22.9 1.8,60.7 "/>
<polygon class="st2" points="94.5,21.9 95.6,22.3 1.9,60 0.6,59.7 "/>
<polygon class="st0" points="94.5,21.9 95.6,22.3 1.9,60 0.6,59.7 "/>
<polygon class="st2" points="93.2,23.9 86.9,36.2 86,36.4 77.3,31.2 73.4,40 72.5,40.3 65.5,36.2 62.4,43.2 61.4,43.5 55.4,40.2 
	53,45.9 51.7,46.3 47.2,43.8 45.2,48.2 43.8,48.6 38.8,45.8 40.3,45.2 44.2,47.3 46.3,42.8 47.2,42.4 51.6,44.8 54.2,39.6 
	55.9,38.9 61.2,42.1 64.4,35.5 66,34.9 72.2,38.6 76.2,30.8 77.8,30.1 85.8,34.7 90.7,24.9 "/>
<polygon class="st0" points="93.2,23.9 86.9,36.2 86,36.4 77.3,31.2 73.4,40 72.5,40.3 65.5,36.2 62.4,43.2 61.4,43.5 55.4,40.2 
	53,45.9 51.7,46.3 47.2,43.8 45.2,48.2 43.8,48.6 38.8,45.8 40.3,45.2 44.2,47.3 46.3,42.8 47.2,42.4 51.6,44.8 54.2,39.6 
	55.9,38.9 61.2,42.1 64.4,35.5 66,34.9 72.2,38.6 76.2,30.8 77.8,30.1 85.8,34.7 90.7,24.9 "/>
<polygon class="st2" points="133.3,105 133.3,104.2 224.7,77.9 224.7,78.6 "/>
<polygon class="st0" points="133.3,105 133.3,104.2 224.7,77.9 224.7,78.6 "/>
<polygon class="st2" points="223.7,77.7 224.7,78 133.3,104.2 132.1,103.9 "/>
<polygon class="st0" points="223.7,77.7 224.7,78 133.3,104.2 132.1,103.9 "/>
<polygon class="st2" points="132.1,103.9 133.3,104.2 133.3,105 132.1,104.6 "/>
<polygon class="st0" points="132.1,103.9 133.3,104.2 133.3,105 132.1,104.6 "/>
<polygon class="st2" points="132.1,103.1 133.3,103.5 133.3,104.2 132.1,103.9 "/>
<polygon class="st0" points="132.1,103.1 133.3,103.5 133.3,104.2 132.1,103.9 "/>
<polygon class="st2" points="133.3,103.5 227.1,65.8 227.1,66.5 133.3,104.2 "/>
<polygon class="st0" points="133.3,103.5 227.1,65.8 227.1,66.5 133.3,104.2 "/>
<polygon class="st2" points="226,65.4 227.1,65.8 133.4,103.5 132.1,103.2 "/>
<polygon class="st0" points="226,65.4 227.1,65.8 133.4,103.5 132.1,103.2 "/>
<polygon class="st2" points="224.7,67.4 218.4,79.7 217.5,79.9 208.8,74.7 204.9,83.6 204,83.8 197,79.7 193.8,86.8 192.9,87 
	186.9,83.7 184.5,89.4 183.2,89.8 178.7,87.3 176.7,91.7 175.3,92.1 170.3,89.3 171.7,88.7 175.7,90.8 177.8,86.3 178.7,85.9 
	183.1,88.3 185.7,83.1 187.4,82.4 192.7,85.6 195.9,79 197.5,78.4 203.7,82.1 207.7,74.3 209.3,73.6 217.3,78.2 222.2,68.4 "/>
<polygon class="st0" points="224.7,67.4 218.4,79.7 217.5,79.9 208.8,74.7 204.9,83.6 204,83.8 197,79.7 193.8,86.8 192.9,87 
	186.9,83.7 184.5,89.4 183.2,89.8 178.7,87.3 176.7,91.7 175.3,92.1 170.3,89.3 171.7,88.7 175.7,90.8 177.8,86.3 178.7,85.9 
	183.1,88.3 185.7,83.1 187.4,82.4 192.7,85.6 195.9,79 197.5,78.4 203.7,82.1 207.7,74.3 209.3,73.6 217.3,78.2 222.2,68.4 "/>
<polygon class="st2" points="101.3,94.4 101.3,93.6 192.7,67.3 192.7,68 "/>
<polygon class="st0" points="101.3,94.4 101.3,93.6 192.7,67.3 192.7,68 "/>
<polygon class="st2" points="191.7,67.1 192.6,67.4 101.3,93.6 100.1,93.3 "/>
<polygon class="st0" points="191.7,67.1 192.6,67.4 101.3,93.6 100.1,93.3 "/>
<polygon class="st2" points="100.1,93.3 101.3,93.6 101.3,94.4 100.1,94 "/>
<polygon class="st0" points="100.1,93.3 101.3,93.6 101.3,94.4 100.1,94 "/>
<polygon class="st2" points="100.1,92.5 101.3,92.9 101.3,93.6 100.1,93.3 "/>
<polygon class="st0" points="100.1,92.5 101.3,92.9 101.3,93.6 100.1,93.3 "/>
<polygon class="st2" points="101.3,92.9 195.1,55.2 195.1,55.9 101.3,93.6 "/>
<polygon class="st0" points="101.3,92.9 195.1,55.2 195.1,55.9 101.3,93.6 "/>
<polygon class="st2" points="194,54.8 195.1,55.2 101.4,92.9 100.1,92.6 "/>
<polygon class="st0" points="194,54.8 195.1,55.2 101.4,92.9 100.1,92.6 "/>
<polygon class="st2" points="192.6,56.8 186.4,69.1 185.5,69.3 176.8,64.1 172.9,73 172,73.2 165,69.1 161.8,76.2 160.9,76.4 
	154.9,73.1 152.5,78.9 151.2,79.2 146.6,76.7 144.7,81.1 143.3,81.5 138.3,78.7 139.7,78.1 143.6,80.2 145.8,75.7 146.7,75.4 
	151.1,77.8 153.7,72.5 155.4,71.9 160.7,75 163.9,68.4 165.5,67.8 171.7,71.5 175.7,63.7 177.3,63 185.3,67.6 190.2,57.8 "/>
<polygon class="st0" points="192.6,56.8 186.4,69.1 185.5,69.3 176.8,64.1 172.9,73 172,73.2 165,69.1 161.8,76.2 160.9,76.4 
	154.9,73.1 152.5,78.9 151.2,79.2 146.6,76.7 144.7,81.1 143.3,81.5 138.3,78.7 139.7,78.1 143.6,80.2 145.8,75.7 146.7,75.4 
	151.1,77.8 153.7,72.5 155.4,71.9 160.7,75 163.9,68.4 165.5,67.8 171.7,71.5 175.7,63.7 177.3,63 185.3,67.6 190.2,57.8 "/>
<path class="st2" d="M41.5,40.3c-13.9,2.6-27.6,8-41.2,16.7l0.3,2.4C15.2,50.1,30,44.5,45,42.2C69.7,38.3,94.6,43,120,53v-2.3
	c-24.3-9.6-48.4-14.3-72.2-11.3C45.8,39.6,43.6,39.9,41.5,40.3z"/>
<path class="st0" d="M41.5,40.3c-13.9,2.6-27.6,8-41.2,16.7l0.3,2.4C15.2,50.1,30,44.5,45,42.2C69.7,38.3,94.6,43,120,53v-2.3
	c-24.3-9.6-48.4-14.3-72.2-11.3C45.8,39.6,43.6,39.9,41.5,40.3z"/>
<path class="st2" d="M47.9,39.3c23.7-3,47.8,1.8,72.2,11.3L151.8,39C130.9,27.4,86.2,19.6,47.9,39.3z"/>
<path class="st0" d="M47.9,39.3c23.7-3,47.8,1.8,72.2,11.3L151.8,39C130.9,27.4,86.2,19.6,47.9,39.3z"/>
<path class="st2" d="M47.9,39.3c38.3-19.7,83-11.9,103.9-0.4l2.5-0.9c-18.2-10-43-15.6-71.3-11.1c-2.3,0.4-4.7,0.8-7,1.3
	c-11.1,2.4-22.7,6.3-34.5,12.1C43.6,39.9,45.8,39.6,47.9,39.3z"/>
<path class="st0" d="M47.9,39.3c38.3-19.7,83-11.9,103.9-0.4l2.5-0.9c-18.2-10-43-15.6-71.3-11.1c-2.3,0.4-4.7,0.8-7,1.3
	c-11.1,2.4-22.7,6.3-34.5,12.1C43.6,39.9,45.8,39.6,47.9,39.3z"/>
<path class="st2" d="M83.1,26.9c28.2-4.4,53.1,1.2,71.3,11.1l32.6-12C162.1,15.7,125.4,5.9,83.1,26.9z"/>
<path class="st0" d="M83.1,26.9c28.2-4.4,53.1,1.2,71.3,11.1l32.6-12C162.1,15.7,125.4,5.9,83.1,26.9z"/>
<path class="st2" d="M83.1,26.9c42.4-21,79-11.2,103.8-0.9l2.5-0.9c-18.5-10.1-44.1-15.4-73-10.3c-1.8,0.3-3.6,0.7-5.4,1.1
	c-11.3,2.4-23,6.4-35,12.3C78.4,27.7,80.8,27.3,83.1,26.9z"/>
<path class="st0" d="M83.1,26.9c42.4-21,79-11.2,103.8-0.9l2.5-0.9c-18.5-10.1-44.1-15.4-73-10.3c-1.8,0.3-3.6,0.7-5.4,1.1
	c-11.3,2.4-23,6.4-35,12.3C78.4,27.7,80.8,27.3,83.1,26.9z"/>
<path class="st2" d="M116.6,14.8c28.9-5,54.4,0.2,72.8,10.3l31.9-11.8C196.6,3.1,158.8-6,116.6,14.8z"/>
<path class="st0" d="M116.6,14.8c28.9-5,54.4,0.2,72.8,10.3l31.9-11.8C196.6,3.1,158.8-6,116.6,14.8z"/>
</svg>
