<?xml version="1.0" encoding="utf-8"?>
<!-- Generator: Adobe Illustrator 16.0.0, SVG Export Plug-In . SVG Version: 6.00 Build 0)  -->
<!DOCTYPE svg PUBLIC "-//W3C//DTD SVG 1.1//EN" "http://www.w3.org/Graphics/SVG/1.1/DTD/svg11.dtd">
<svg version="1.1" id="Capa_1" xmlns="http://www.w3.org/2000/svg" xmlns:xlink="http://www.w3.org/1999/xlink" x="0px" y="0px"
	 width="229.4px" height="146.6px" viewBox="0 0 229.4 146.6" style="enable-background:new 0 0 229.4 146.6;" xml:space="preserve"
	>
<linearGradient id="gradPlot" x1="0%" y1="0%" x2="100%" y2="0%" gradientTransform="rotate(0)">
	<stop offset="10%" style="stop-color:rgb(220,220,220);stop-opacity:1" />
	<stop offset="100%" style="stop-color:rgb(255,255,255);stop-opacity:1" />
</linearGradient>
<style type="text/css">
<![CDATA[
	.plotLineas{
		fill:none;
		stroke:black;
		stroke-width:0.3;
		stroke:transparent;
		stroke-dasharray:650px;
		stroke-dashoffset:0;
		animation: CarLine 1s forwards ;
	}
	@keyframes CarLine{
		0%{
			stroke-dashoffset:650px;
			stroke:#000000;	
		}90%{
			stroke-dashoffset:0px;
			stroke:#000000;
		}100%{
			stroke-dashoffset:0px;
			stroke:#000000;
	}}	
	.plotVidr{
		fill-rule:evenodd;
		clip-rule:evenodd;
		fill:black;
		opacity:0;
		animation: CarColor 1s forwards ;
	}
	.plotNuma{
		fill:#FF6600;
		opacity:0;
		animation: CarColor 1s forwards ;
	}	
	.plotLogoN{
		fill:black;
		opacity:0;
		animation: CarColor 1s forwards ;
	}
	.plotLogoB{
		fill:white;
		opacity:0;
		animation: CarColor 1s forwards ;
	}
	.plotLogoNar{
		fill:#FF6600;
		opacity:0;
		animation: CarColor 1s forwards ;
	}	
	.plotLineasAt{
		fill:none;
		stroke:#FF6600;
		stroke-width:0.3;
		opacity:0;
		animation: CarColor 1s forwards ;
	}
	.plotColor{
		fill: url(#gradPlot);
		opacity:0;
		animation: CarColor 1s forwards ;
	}
	@keyframes CarColor{
		0%{
			opacity:0;
		}80%{
			opacity:0;
		}100%{
			opacity:1;
	}}
]]>
</style>
<path class="plotColor" d="M9.3,81.2c-3.4-7-4.6-15.4-2.9-25.5c0.1-2-3.1-43.3,4-46.7l62-3.5c22.8,0,52.8,2.2,78.1,5.1l37.8,35.5
	c6.3,5.9,11.2,10.7,15.1,14.6c0.3,0.3,0.8,0.1,1.1,0.4c8.6,8.2,11.4,14.7,10.8,18.7l0.1,2.9c3.9,3.7,5.8,6.9,6.2,9.6
	c0.5,15.3-1.5,27.6-10.1,31.9c-13.2,6.7-32,11.5-57,14.4c-4.9,0.3-9.7,0.3-14.4-0.4l-16.8-3.1c-4.1-39.1-34.1-69.1-39.7-19.3
	L24.3,88.5C20.7,63.2,11.6,55.1,9.3,81.2z"/>
<path class="plotLineas" d="M9.3,81.2c-3.4-7-4.6-15.4-2.9-25.5c0.1-2-3.1-43.3,4-46.7l62-3.5c22.8,0,52.8,2.2,78.1,5.1l37.8,35.5
	c6.3,5.9,11.2,10.7,15.1,14.6c0.3,0.3,0.8,0.1,1.1,0.4c8.6,8.2,11.4,14.7,10.8,18.7l0.1,2.9c3.9,3.7,5.8,6.9,6.2,9.6
	c0.5,15.3-1.5,27.6-10.1,31.9c-13.2,6.7-32,11.5-57,14.4c-4.9,0.3-9.7,0.3-14.4-0.4l-16.8-3.1c-4.1-39.1-34.1-69.1-39.7-19.3
	L24.3,88.5C20.7,63.2,11.6,55.1,9.3,81.2z"/>
<path class="plotLineas" d="M96.2,36.5c-4-0.4-4.7,27.4-5.4,57.5"/>
<path class="plotLineas" d="M162.4,90.8c-37.9,1.6-51.6-31.8-22.1-24.4c8.9,1.8,13.6,9,20.3,18.8C161.3,86.4,164.1,90.8,162.4,90.8z"/>
<path class="plotLineas" d="M210.1,84.6c1.8-0.5,3.7-1.4,5.2-4.8c0-6.8-4.5-12.9-10.8-18.7c-2.2-0.3-3.1,0.8-2.6,3.4
	C205.8,70.3,209.4,76.3,210.1,84.6z"/>
<path class="plotLineas" d="M163.3,85.6l5.1,7.5l19.9-1.1c3.2,1.3,2.9,2.1,4.3-0.7l13.1-3.5l1.5-7.6C193.5,83,178.5,84.4,163.3,85.6z"/>
<polyline class="plotLineas" points="111.8,50.4 111.7,52.1 129,65.8 "/>
<path class="plotLineas" d="M132.1,82.8l-4.7,4.9c-6.1,3.2-10,9.6-15,14.4"/>
<path class="plotLineas" d="M127.5,87.7c18.8,14.3,89.7,11.3,87.9-5"/>
<path class="plotLineas" d="M7.6,13.9L42.8,13c3.7,0,5.6,0.6,5,3.7l-1.5,46.5c-0.8,2.4-3.2,4.1-5.1,3.6L6,59.4"/>
<path class="plotLineas" d="M50.7,100.7c-0.4-3.4-2-9.7,0-10.1l0.5-11.1l2-67.9c0.1-2.2,1.9-4.3,4.5-5.3"/>
<line class="plotLineas" x1="18.5" y1="68.1" x2="90.8" y2="94"/>
<path class="plotLineas" d="M10.7,71.8l-0.9-0.4c-1.9-1-3.1-5.1-4-10.7 M85.2,106.6L22.1,77.2"/>
<path class="plotLineas" d="M147.8,107c29.7-0.1,56.4-2.6,73.9-12.5l0,4.4c-12.8,9.1-40.3,12.5-73.9,13.6
	C146.4,112.8,144.5,107.7,147.8,107z"/>
<path class="plotLineas" d="M170.3,111.3l-1.3-4.9c-6.8,0.4-13.9,0.6-21.2,0.6c-3.3,0.7-1.4,5.8,0,5.5C155.7,112.2,163.2,111.8,170.3,111.3
	z"/>
<path class="plotLineas" d="M213.1,98.5l0,4.8c3.3-1.3,6.2-2.8,8.6-4.5l0-4.4c0,0,0,0,0,0C219,96,216.1,97.3,213.1,98.5z"/>
<path class="plotLineas" d="M183.5,112.4l22.7-5c1.1-0.3,1.3,7-0.5,7.4l-22.5,5.1L183.5,112.4z"/>
<path class="plotLineas" d="M220.4,110.9c-21.2,8.3-42.1,11.8-62.9,13.8c-14.1,0-14.6,12.4-3.9,12c20.9-2.9,41.4-6.8,60.4-14"/>
<path class="plotLineas" d="M153,126.9c2.4,0,4.3,2,4.3,4.3s-1.9,4.1-4.3,4.1c-2.4,0-4.3-2-4.3-4.3C148.7,128.7,150.6,126.9,153,126.9z"/>
<polygon class="plotLineas" points="175.1,124.9 182.3,123.7 182.3,125.3 175.1,126.4 "/>
<polygon class="plotLineas" points="175.1,128.3 182.3,127.1 182.3,128.7 175.1,129.8 "/>
<polygon class="plotLineas" points="183.7,123.5 190.9,121.8 190.9,123.4 183.7,125 "/>
<polygon class="plotLineas" points="183.7,126.9 190.9,125.2 190.9,126.8 183.7,128.4 "/>
<polygon class="plotLineas" points="192.5,121.3 199.4,120.1 199.4,121.6 192.5,122.9 "/>
<polygon class="plotLineas" points="192.5,124.7 199.4,123.5 199.4,125 192.5,126.3 "/>
<polygon class="plotLineas" points="200.5,119.6 205.9,118.3 205.9,119.8 200.5,121.1 "/>
<polygon class="plotLineas" points="200.5,123 205.9,121.7 205.9,123.2 200.5,124.5 "/>
<polygon class="plotVidr" points="169,54.7 188.1,53.5 192,57.5 173.8,59.2 "/>
<path class="plotVidr" d="M76.8,8.3c23.3-0.2,47.1,1.4,74,5.1l37.6,34.9c1.3,1.2,2.2,1.6-0.7,2c-2.9,0.3-50.6,2.9-75.8,0.1
	C96.8,42.6,88.3,22.7,76.8,8.3z"/>
<path class="plotVidr" d="M80.5,57L58,42.3c-1.3-1.6-2-3.4-2-5.5V15.2c0-4.4,4.5-5.9,11.4-5.7C74.2,10,82,21.7,88.2,34.7l-1.5,21.5
	C86.5,57.8,83.2,58.6,80.5,57z"/>
<path class="plotVidr" d="M53.3,49.5l0.4,9.9c0.6,3.4,2.8,3.3,2.9,1.1l-0.4-10.7C56.1,47.5,53.1,47.2,53.3,49.5z"/>
<path class="plotVidr" d="M9.3,81.2l0.8,5.8c0,0.2,0.2,0.5,0.4,0.6l2.6,1.1c0.7,5.9,2.7,10.2,5.1,10.2c0.2,0,0.3,0,0.5,0l7.9-0.4
	c0.2,0,0.4,0,0.5,0l0,0.2l57.8,22l1.2,4.7l4.2-0.7c1.6,8.9,6.7,15.6,12.9,15.7l0,0c0.1,0,0.2,0,0.3,0l0,0c0.1,0,0.2,0,0.3,0h0
	c0.1,0,0.1,0,0.2,0l16.4-0.5c27.4,8.4,70.9-0.6,88.8-14.3c-4.7,4.4-41.3,12.3-54.7,13.2c-4.9,0.3-9.7,0.3-14.4-0.4l-16.8-3.1
	c-1.3-12.9-5.5-24.9-10.7-33.3c-6.9-11.1-15.5-15.9-21.7-8.8c0,0.3,0,0.5,0,0.8l-0.5-0.2c-2.1,2.7-3.9,6.9-5.2,12.8
	c-0.6,2.7-1.1,5.8-1.5,9.3l0,0l-33-15.2L28.8,90.6l-4.6-2.1c-0.2-1.7-0.5-3.3-0.8-4.8l0,0v0c-1-5.4-2.3-9.8-3.6-12.9
	c-0.4-1-0.9-1.9-1.4-2.7C14.8,61.9,10.7,65,9.3,81.2z"/>
<path class="plotLogoB" d="M128,12.7c3.8,0.1,6.9,1.5,6.9,3.1c0,1.6-2.8,2.8-6.3,2.9c0.2,0,0.4,0,0.6,0c3.8,0.1,6.9-1.3,6.9-3.1
	c0-1.8-3.1-3.3-6.9-3.4c-1.9,0-3.6,0.3-4.8,0.8C125.4,12.8,126.6,12.7,128,12.7"/>
<polyline class="plotLineasAt" points="42.2,52.4 39.3,52 38.6,54 37.2,53.8 34.7,46.7 31.8,46.1 30.8,49.2 27.6,48.7 26.7,51.7 23.9,51.2 
	"/>
<polyline class="plotLineasAt" points="26.3,47.5 24.5,53 18.9,52.2 18.1,54.9 "/>
<polyline class="plotLineasAt" points="30.5,49.1 29.8,51.4 28.2,51.2 "/>
<polyline class="plotLineasAt" points="36.2,39.8 34.4,45.5 31.2,45 30.2,48.1 21.3,46.7 "/>
<polyline class="plotLineasAt" points="37.7,46 36.3,45.8 35.8,44.1 31.3,43.4 30.5,45.9 28.9,45.6 27.8,42.3 26,42 24.6,46.5 20.6,45.8 
	19.6,49.1 19.1,49 18.4,51.2 17,51 15.4,55.8 "/>
<polyline class="plotLineasAt" points="42.1,39 40.7,38.8 39.5,42.5 38.4,42.3 "/>
<polyline class="plotLineasAt" points="44.8,36 41.4,35.5 41,36.7 39.8,36.5 38.5,40.3 32.1,39.2 30.7,43.7 "/>
<polyline class="plotLineasAt" points="32.4,41.8 31.6,39.4 30.9,39.2 30.2,41.6 27.2,41.1 26.2,38.1 24.9,37.9 24.1,40.5 21.7,40.1 "/>
<polyline class="plotLineasAt" points="30,39.2 29.3,37.1 27.6,36.9 "/>
<polyline class="plotLineasAt" points="25.6,40 24.3,44 19.6,43.3 18.4,47 15.8,46.6 14.8,49.6 13.5,49.4 12.5,52.3 10.8,52 "/>
<polyline class="plotLineasAt" points="25,39.4 23.8,42.9 21.3,42.5 20.5,40.1 19,39.8 17.9,43.1 15.1,42.6 "/>
<polyline class="plotLineasAt" points="22.9,38.4 21.3,38.1 20.6,36.2 18.4,35.8 17,40 14.6,39.6 "/>
<polyline class="plotLineasAt" points="24.5,37.2 23.8,35 18.3,34.1 17.5,31.7 "/>
<polyline class="plotLineasAt" points="17.5,34 16.3,37.6 12.7,37 11.8,39.8 "/>
<polyline class="plotLineasAt" points="16.4,33.9 15.6,33.8 15.1,32.4 13,32 12.5,33.5 11.4,33.4 10,37.7 "/>
<polyline class="plotLineasAt" points="16.9,31.6 15.4,31.4 14.3,28.2 12.8,27.9 12.3,29.6 11.2,29.4 10.7,27.8 9.6,27.6 8.6,24.6 "/>
<polyline class="plotLineasAt" points="31.5,34 29.8,33.7 29.1,35.9 27.3,35.6 26.2,32.3 23.5,31.8 23.1,33 22.7,33 22.1,31.4 20.2,31.1 
	19.8,32.4 18.8,32.2 18.2,30.5 16.5,30.2 15.1,26.2 11.3,25.5 "/>
<polyline class="plotLineasAt" points="34,32.8 31.7,32.5 31.2,31 27.6,30.4 26.6,27.5 24.9,27.2 23.8,30.5 21.3,30.1 20.2,26.8 19.1,26.6 
	18.4,28.8 17.3,28.6 16.2,25.5 11.1,24.7 "/>
<polyline class="plotLineasAt" points="37.6,30.8 35.4,30.5 35,31.8 32,31.3 31.4,29.5 30.1,29.3 29.9,29.9 27.8,29.6 26.7,26.1 24.5,25.8 
	23.7,28.5 21.7,28.2 20.4,24.3 19.2,24.1 18.3,26.9 17.5,26.8 16,22.1 15.1,22 13.8,18.2 "/>
<polyline class="plotLineasAt" points="24.8,24.5 20.9,23.9 19.1,18.5 14.7,17.8 "/>
<polyline class="plotLineasAt" points="15.6,23.8 14.1,23.5 13,20.1 11.6,19.9 11.3,19.1 9,18.7 "/>
<polyline class="plotLineasAt" points="12.9,23.2 11.3,22.9 10.6,20.9 "/>
<path class="plotLogoNar" d="M180.3,63.6c6.7-0.8,14.1,0.7,16.5,3.3c2.3,2.5-0.8,5.2-6.8,6.1c0.4,0,0.7-0.1,1.1-0.1
	c6.7-0.8,10.1-3.8,7.5-6.7c-2.6-2.9-10.1-4.5-16.9-3.7c-3.3,0.4-5.8,1.3-7.2,2.5C176.1,64.4,178,63.9,180.3,63.6"/>
<path class="plotLogoNar" d="M147.8,60.6c2.7-0.3,5.4-0.7,8.1-1l1.1,1.2l-2,0.2l6.3,7l-4,0.5l-6.3-7l-2,0.2L147.8,60.6z"/>
<path class="plotLogoNar" d="M157.3,59.4l4.5-0.5l6.3,7l1.4-0.2l-6.3-7l4.3-0.5l5.4,5.9c1.1,1.2,0.8,2.4-0.6,2.5l-5,0.6
	c-1.4,0.2-3.5-0.7-4.6-1.9L157.3,59.4z"/>
<polygon class="plotLogoN" points="158.5,69.9 159.7,69.7 163.9,74.4 162.7,74.6 "/>
<path class="plotLogoN" d="M160.2,69.7l1-0.1l0.1,0l1.1-0.1c0.7-0.1,1.6,0.2,2.3,0.6l-0.7-0.8l1.5-0.2c1-0.1,2.5,0.5,3.4,1.4l2.7,3
	l-1.1,0.1l-2.5-2.8c-0.4-0.5-1.3-0.8-1.8-0.8l-1.1,0.1c0.3,0.2,0.6,0.4,0.8,0.6l2.7,3l-1.1,0.1l-2.5-2.8c-0.4-0.5-1.3-0.8-1.8-0.8
	l-0.9,0.1l3.3,3.7l-1.1,0.1L160.2,69.7z"/>
<path class="plotLogoN" d="M186.2,66.5l1-0.1l0.1,0l1.8-0.2c1-0.1,2.5,0.5,3.4,1.4l2.7,3l-1.1,0.1l-2.5-2.8c-0.4-0.5-1.3-0.8-1.8-0.8
	l-1.5,0.2l3.3,3.7l-1.1,0.1L186.2,66.5z"/>
<path class="plotLogoN" d="M170.2,68.4l1-0.1c1.3-0.2,3.1,0.6,4.1,1.7l3.6,4.1l-1.2,0.1l-2-2.3l-1.6-1.8c-0.5-0.5-1.3-0.9-1.9-0.8l-1,0.1
	c-0.6,0.1-0.7,0.6-0.2,1.1l0.6,0.7l2.5-0.3l1,1.1l-2.5,0.3l-1.1,0.1l-0.2,0l-1.6-1.8C168.7,69.6,168.9,68.6,170.2,68.4"/>
<path class="plotLogoN" d="M176.6,70.8l-0.8-0.9c-1-1.1-0.8-2.1,0.5-2.3l3.8-0.5l1,1.1l-3.8,0.5c-0.6,0.1-0.7,0.6-0.2,1.1l0.8,0.9
	c0.5,0.5,1.3,0.9,1.9,0.8l2.5-0.3l-2-2.2l1.2-0.1l2,2.2l0.6,0.6l0.4,0.4l-3.8,0.5C179.4,72.7,177.6,71.9,176.6,70.8"/>
<path class="plotLogoN" d="M187.5,69.2l-2.8,0.3c-1,0.1,0.2,1.4,1.1,1.3l2.8-0.3l0.9,1l-3.1,0.4c-1.5,0.2-3.6-1.4-3.1-2.3
	c0,0,0-0.3-0.5-0.5c-1.6-0.5-2.3-1.9-1.1-2.1l3.4-0.4l0.7,0.8l-3,0.4c-0.7,0.1,0.1,1,0.8,0.9l3-0.4L187.5,69.2z"/>
<path class="plotNuma" d="M129.7,99.8c4.8,0.1,8.8,3.9,8.8,8.4c0,4.6-3.9,8.2-8.8,8.1c-4.8-0.1-8.8-3.9-8.8-8.124.8,99.7,129.7,99.8"/>
<path class="plotLogoB" d="M134.7,104.9v6.5l-1.8,0v-4.3c-0.3,0.2-0.6,0.4-0.8,0.5c-0.3,0.1-0.6,0.3-1,0.4v-1.5c0.6-0.2,1.1-0.4,1.4-0.7
	c0.3-0.3,0.6-0.6,0.8-1L134.7,104.9z M126.4,108c0,0.8,0.1,1.4,0.2,1.7s0.4,0.5,0.6,0.5c0.2,0,0.3-0.1,0.5-0.2
	c0.1-0.1,0.2-0.3,0.3-0.6c0.1-0.3,0.1-0.7,0.1-1.3c0-0.9-0.1-1.4-0.2-1.7c-0.1-0.3-0.4-0.4-0.7-0.5c-0.3,0-0.5,0.1-0.6,0.4
	S126.4,107.2,126.4,108z M124.7,108c0-1.2,0.2-2.1,0.7-2.5c0.4-0.5,1.1-0.7,2-0.7c0.4,0,0.8,0.1,1.1,0.2c0.3,0.1,0.5,0.3,0.7,0.4
	c0.2,0.2,0.3,0.4,0.4,0.5c0.1,0.2,0.2,0.4,0.2,0.7c0.1,0.5,0.2,1,0.2,1.5c0,1.2-0.2,2-0.6,2.5c-0.4,0.5-1.1,0.8-2,0.8
	c-0.5,0-1-0.1-1.3-0.3c-0.3-0.2-0.6-0.4-0.8-0.8c-0.2-0.2-0.3-0.6-0.4-1C124.7,108.9,124.7,108.4,124.7,108z"/>
<path class="plotLogoNar" d="M77.7,71.9c4.7,1.8,8.4,5.4,8.2,8c-0.2,2.5-3.8,3.2-8.2,1.8c0.2,0.1,0.5,0.2,0.7,0.3c4.7,1.8,8.8,1,9-1.9
	c0.2-2.8-3.5-6.6-8.2-8.4c-2.3-0.9-4.5-1.1-6.1-0.8C74.5,70.9,76.1,71.2,77.7,71.9"/>
<path class="plotLogoNar" d="M59.3,58.4c1.9,0.7,3.8,1.5,5.7,2.2l-0.1,1.2l-1.4-0.5L63,68.1L60.1,67l0.5-6.9l-1.4-0.5L59.3,58.4z"/>
<path class="plotLogoNar" d="M65.9,60.9l3.1,1.2l-0.5,6.9l1,0.4l0.5-6.9l3,1.2l-0.4,5.9c-0.1,1.2-1,1.9-2,1.5l-3.5-1.3
	c-1-0.4-1.7-1.7-1.7-2.9L65.9,60.9z"/>
<polygon class="plotLogoN" points="60,68.5 60.9,68.8 60.5,73.4 59.7,73.1 "/>
<path class="plotLogoN" d="M61.2,68.9l0.7,0.3l0.1,0l0.8,0.3c0.5,0.2,0.9,0.7,1.1,1.2l0.1-0.8l1,0.4c0.7,0.3,1.3,1.2,1.2,2.1l-0.2,3
	l-0.8-0.3l0.2-2.8c0-0.5-0.3-1-0.7-1.2l-0.7-0.3c0.1,0.2,0.1,0.5,0.1,0.7l-0.2,3L63,74.3l0.2-2.8c0-0.5-0.3-1-0.7-1.2l-0.6-0.2
	l-0.3,3.7l-0.8-0.3L61.2,68.9z"/>
<path class="plotLogoN" d="M79.5,75.9l0.7,0.3l0.1,0l1.2,0.5c0.7,0.3,1.3,1.2,1.2,2.1l-0.2,3l-0.8-0.3l0.2-2.8c0-0.5-0.3-1-0.7-1.2l-1-0.4
	L80,80.8l-0.8-0.3L79.5,75.9z"/>
<path class="plotLogoN" d="M68.3,71.6l0.7,0.3c0.9,0.3,1.6,1.5,1.5,2.6l-0.3,4l-0.9-0.3l0.2-2.2l0.1-1.8c0-0.5-0.3-1.1-0.7-1.2l-0.7-0.3
	c-0.4-0.2-0.8,0.1-0.8,0.6L67.3,74l1.8,0.7L69,75.7L67.2,75l-0.7-0.3l-0.1,0l0.1-1.8C66.6,71.8,67.4,71.2,68.3,71.6"/>
<path class="plotLogoN" d="M70.8,75.4l0.1-0.8c0.1-1.1,0.9-1.7,1.8-1.4l2.7,1l-0.1,1l-2.7-1c-0.4-0.2-0.8,0.1-0.8,0.6l-0.1,0.8
	c0,0.5,0.3,1.1,0.7,1.2l1.8,0.7l0.2-2.2l0.9,0.3L75,78l0,0.6l0,0.4l-2.7-1C71.3,77.7,70.7,76.5,70.8,75.4"/>
<path class="plotLogoN" d="M78.6,78.2l-2-0.7c-0.7-0.3-0.8,1-0.1,1.3l2,0.7l-0.1,1l-2.2-0.8c-1.1-0.4-1.4-2.2-0.5-2.7c0,0,0.2-0.2,0-0.5
	c-0.7-0.9-0.3-2.1,0.6-1.8l2.4,0.9l-0.1,0.8l-2.1-0.8c-0.5-0.2-0.5,0.7-0.1,0.9l2.1,0.8L78.6,78.2z"/>
<path class="plotLogoB" d="M105.4,14.2c0.9,0,1.8,0,2.8,0v0.4l-0.7,0v2.6l-1.4,0v-2.6l-0.7,0V14.2z"/>
<path class="plotLogoB" d="M108.6,14.2l1.5,0v2.6l0.5,0v-2.6l1.5,0v2.2c0,0.5-0.4,0.8-0.9,0.8l-1.7,0c-0.5,0-0.9-0.4-0.9-0.8V14.2z"/>
<polygon class="plotLogoB" points="112.6,14.4 113.3,14.4 113.3,17.3 112.6,17.3 "/>
<path class="plotLogoB" d="M113.6,14.4l0.6,0l0,0l0.6,0c0.4,0,0.7,0.2,0.9,0.5v-0.5l0.8,0c0.6,0,1.1,0.5,1.1,1v1.9l-0.6,0v-1.7
	c0-0.3-0.3-0.6-0.6-0.6l-0.6,0c0.1,0.1,0.1,0.3,0.1,0.4v1.9l-0.6,0v-1.7c0-0.3-0.3-0.6-0.6-0.6l-0.5,0v2.3l-0.6,0V14.4z"/>
<path class="plotLogoB" d="M128.4,14.7l0.6,0l0,0l1,0c0.6,0,1.1,0.5,1.1,1v1.9l-0.6,0v-1.7c0-0.3-0.3-0.6-0.6-0.6l-0.8,0v2.3l-0.6,0V14.7z
	"/>
<path class="plotLogoB" d="M119.3,14.5l0.6,0c0.7,0,1.3,0.6,1.3,1.3v2.5l-0.7,0v-1.4v-1.1c0-0.3-0.3-0.6-0.6-0.6l-0.6,0
	c-0.3,0-0.6,0.3-0.6,0.6v0.4l1.4,0v0.7l-1.4,0l-0.6,0l-0.1,0v-1.1C118,15.1,118.6,14.5,119.3,14.5"/>
<path class="plotLogoB" d="M121.5,16.3v-0.5c0-0.7,0.6-1.2,1.3-1.2l2.1,0v0.7l-2.1,0c-0.3,0-0.6,0.3-0.6,0.6v0.5c0,0.3,0.3,0.6,0.6,0.6
	l1.4,0v-1.4l0.7,0V17v0.4v0.3l-2.1,0C122.1,17.6,121.5,17,121.5,16.3"/>
<path class="plotLogoB" d="M127.8,16.3l-1.6,0c-0.6,0-0.6,0.8,0,0.8l1.6,0v0.6l-1.8,0c-0.9,0-1.2-1-0.6-1.5c0,0,0.1-0.2,0-0.3
	c-0.6-0.4-0.3-1.2,0.4-1.2l2,0v0.5l-1.7,0c-0.4,0-0.4,0.5,0,0.5l1.7,0V16.3z"/>
</svg>
