<?xml version="1.0" encoding="utf-8"?>
<!-- Generator: Adobe Illustrator 16.0.0, SVG Export Plug-In . SVG Version: 6.00 Build 0)  -->
<!DOCTYPE svg PUBLIC "-//W3C//DTD SVG 1.1//EN" "http://www.w3.org/Graphics/SVG/1.1/DTD/svg11.dtd">
<svg version="1.1" id="Capa_1" xmlns="http://www.w3.org/2000/svg" xmlns:xlink="http://www.w3.org/1999/xlink" x="0px" y="0px"
	 width="66.8px" height="45.2px" viewBox="0 0 66.8 45.2" style="enable-background:new 0 0 66.8 45.2;" xml:space="preserve">
<style type="text/css">
<![CDATA[
	.st0{fill:#E31E24;}
	.st1{fill:none;stroke:#2B2A29;stroke-width:4.067576e-002;stroke-miterlimit:22.9256;}
	.st2{fill:#EBECEC;}
	.st3{fill-rule:evenodd;clip-rule:evenodd;fill:#E31E24;}
	.st4{fill-rule:evenodd;clip-rule:evenodd;}
	.st5{fill-rule:evenodd;clip-rule:evenodd;fill:#C5C6C6;}
	.st6{fill-rule:evenodd;clip-rule:evenodd;fill:#FF6600;}
	.st7{fill:#D9DADA;}
	.st8{fill:none;stroke:#000000;stroke-width:2.746540e-002;stroke-linecap:round;stroke-linejoin:round;stroke-miterlimit:22.9256;}
]]>
</style>
<polygon class="st0" points="12.1,6.1 9,6.1 0.6,15.2 0.6,24.5 0,24.5 0,15 8.7,5.5 12.1,5.5 "/>
<rect x="12.1" y="3.9" class="st3" width="7.5" height="2.2"/>
<path class="st3" d="M55.5,5.2c0,1.2,1.7,1.2,1.7,0C57.2,4,55.5,4,55.5,5.2 M57.2,3.7h0.8v3.1h-0.8V6.4c-1,0.9-2.4,0.1-2.4-1.2
	c0-1.4,1.4-2.2,2.4-1.2V3.7z M53.9,2h0.9l-1,1.1h-0.6L53.9,2z M53.4,3.7h0.8v3.1h-0.8V3.7z M51.5,3.7h0.7v0.4c0.2-0.4,0.6-0.6,1-0.4
	l-0.2,0.7c-0.2-0.1-0.4-0.1-0.5,0.2c-0.2,0.3-0.1,1.9-0.1,2.3h-0.8V3.7z M50.2,4.8c-0.2-0.7-1.3-0.8-1.7,0H50.2z M51,5.4h-2.5
	c0.1,0.8,1.1,0.9,1.6,0.4l0.6,0.3c-0.9,1.2-3,0.7-3-0.9C47.8,3.1,51,3,51,5.3L51,5.4z M46.5,2.5h0.8v4.3h-0.8V2.5z M45.1,4.8
	c-0.2-0.7-1.3-0.8-1.7,0H45.1z M45.9,5.4h-2.5c0.1,0.8,1.1,0.9,1.6,0.4l0.6,0.3c-0.9,1.3-3,0.7-3-0.9c0-2.2,3.2-2.2,3.2,0.1
	L45.9,5.4z M41.2,2.5H42v1.1h0.5v0.7H42v2.4h-0.8V4.3h-0.4V3.7h0.4V2.5z M39.1,3.7h0.7v0.4c0.2-0.4,0.6-0.6,1-0.4l-0.2,0.7
	c-0.2-0.1-0.4-0.1-0.5,0.2c-0.2,0.3-0.1,1.9-0.1,2.3h-0.8V3.7z M36,5.2c0,1.2,1.7,1.2,1.7,0C37.7,4,36,4,36,5.2z M37.7,3.7h0.8v3.1
	h-0.8V6.4c-1,1-2.4,0.1-2.4-1.2c0-1.4,1.4-2.2,2.4-1.2V3.7z M34.8,3.3l-0.6,0.5c-1-1-2.7-0.6-2.7,0.8c0,1.5,1.6,1.9,2.7,0.8l0.5,0.6
	c-1.5,1.5-4,0.9-4-1.4C30.8,2.5,33.5,1.8,34.8,3.3z M26.9,4.9h1.4v0.7h-1.4V4.9z"/>
<polygon class="st2" points="60.7,13.5 29.6,27 29.2,42.4 61,29.3 "/>
<polygon class="st8" points="60.7,13.5 29.6,27 29.2,42.4 61,29.3 "/>
<path class="st7" d="M50.1,36.9l0.4,6.7c-0.7,2.2-8,2.1-8,0.1l-0.1-3.6L50.1,36.9z"/>
<path class="st8" d="M50.1,36.9l0.4,6.7c-0.7,2.2-8,2.1-8,0.1l-0.1-3.6L50.1,36.9z"/>
<polygon class="st7" points="29.3,43.9 31.5,44.7 62.7,31.6 60.6,30.5 "/>
<polygon class="st8" points="29.3,43.9 31.5,44.7 62.7,31.6 60.6,30.5 "/>
<polygon class="st5" points="29.6,27 27.4,26 27.2,41.9 29.2,42.4 "/>
<polygon class="st1" points="29.6,27 27.4,26 27.2,41.9 29.2,42.4 "/>
<polygon class="st5" points="60.7,13.5 58.9,12.8 27.4,26 29.6,27 "/>
<polygon class="st1" points="60.7,13.5 58.9,12.8 27.4,26 29.6,27 "/>
<path class="st6" d="M50.1,24.6c4.1-1.9,7.3-2,7.2-0.2c-0.2,1.7-3.3,4.4-7.1,6.3c0.2-0.1,0.4-0.2,0.6-0.3c4.1-1.9,7.6-5,7.8-6.9
	c0.2-1.9-3-1.9-7.1,0c-2,0.9-3.9,2.1-5.3,3.4C47.3,26,48.7,25.2,50.1,24.6"/>
<path class="st6" d="M34.1,27.9c1.7-0.8,3.3-1.5,5-2.3L39,26.4L37.7,27l-0.4,4.7l-2.5,1.1l0.4-4.7L34,28.7L34.1,27.9z"/>
<path class="st6" d="M39.8,25.3l2.7-1.3l-0.4,4.7l0.8-0.4l0.4-4.7l2.6-1.2l-0.4,4c-0.1,0.8-0.8,1.8-1.7,2.2L40.9,30
	c-0.9,0.4-1.5,0.1-1.4-0.8L39.8,25.3z"/>
<polygon class="st4" points="34.7,33.8 35.5,33.4 35.2,36.6 34.4,36.9 "/>
<path class="st4" d="M35.8,33.3l0.6-0.3l0,0l0.7-0.3c0.4-0.2,0.8-0.1,0.9,0.1l0-0.5l0.9-0.4c0.6-0.3,1.1,0,1.1,0.6l-0.2,2l-0.7,0.3
	l0.2-1.9c0-0.3-0.2-0.5-0.6-0.3l-0.7,0.3c0.1,0.1,0.1,0.2,0.1,0.4l-0.2,2l-0.7,0.3l0.2-1.9c0-0.3-0.2-0.5-0.6-0.3l-0.5,0.2l-0.2,2.5
	l-0.7,0.3L35.8,33.3z"/>
<path class="st4" d="M51.7,26l0.6-0.3l0,0l1.1-0.5c0.6-0.3,1.1,0,1.1,0.6l-0.2,2l-0.7,0.3l0.2-1.9c0-0.3-0.2-0.5-0.6-0.3l-0.9,0.4
	l-0.2,2.5l-0.7,0.3L51.7,26z"/>
<path class="st4" d="M41.9,30.4l0.6-0.3c0.8-0.4,1.4,0,1.3,0.7l-0.3,2.7l-0.8,0.3l0.1-1.5l0.1-1.2c0-0.3-0.2-0.5-0.6-0.3l-0.6,0.3
	c-0.4,0.2-0.7,0.6-0.7,0.9l0,0.5l1.6-0.7l-0.1,0.7L41,33.3l-0.6,0.3l-0.1,0l0.1-1.2C40.4,31.7,41.1,30.8,41.9,30.4"/>
<path class="st4" d="M44.1,31.3l0.1-0.6c0.1-0.7,0.8-1.6,1.5-2l2.3-1.1l-0.1,0.7l-2.3,1.1c-0.4,0.2-0.7,0.6-0.7,0.9l-0.1,0.6
	c0,0.3,0.2,0.5,0.6,0.3l1.6-0.7l0.1-1.5l0.7-0.3l-0.1,1.5l0,0.4l0,0.3L45.4,32C44.6,32.3,44,32,44.1,31.3"/>
<path class="st4" d="M50.9,27.9l-1.7,0.8c-0.6,0.3-0.7,1.1-0.1,0.9l1.7-0.8l-0.1,0.7l-1.9,0.9c-0.9,0.4-1.2-0.5-0.4-1.3
	c0,0,0.1-0.2,0-0.3c-0.6-0.1-0.2-1.2,0.5-1.5l2.1-1l0,0.5l-1.8,0.8c-0.4,0.2-0.5,0.8-0.1,0.6l1.8-0.8L50.9,27.9z"/>
</svg>
