<?xml version="1.0" encoding="utf-8"?>
<!-- Generator: Adobe Illustrator 16.0.0, SVG Export Plug-In . SVG Version: 6.00 Build 0)  -->
<!DOCTYPE svg PUBLIC "-//W3C//DTD SVG 1.1//EN" "http://www.w3.org/Graphics/SVG/1.1/DTD/svg11.dtd">
<svg version="1.1" id="Capa_1" xmlns="http://www.w3.org/2000/svg" xmlns:xlink="http://www.w3.org/1999/xlink" x="0px" y="0px"
	 width="66.8px" height="45.2px" viewBox="0 0 66.8 45.2" style="enable-background:new 0 0 66.8 45.2;" xml:space="preserve">
<style type="text/css">
<![CDATA[
	.st0{fill-rule:evenodd;clip-rule:evenodd;fill:#D9DADA;}
	.st1{fill:#E31E24;}
	.st2{fill-rule:evenodd;clip-rule:evenodd;fill:#E31E24;}
	.st3{fill-rule:evenodd;clip-rule:evenodd;fill:#B2B3B3;}
	.st4{fill-rule:evenodd;clip-rule:evenodd;fill:#EBECEC;}
	.st5{fill-rule:evenodd;clip-rule:evenodd;fill:#C5C6C6;}
	.st6{fill:none;stroke:#000000;stroke-width:5.573232e-002;stroke-linecap:round;stroke-linejoin:round;stroke-miterlimit:22.9256;}
]]>
</style>
<polygon class="st1" points="12.1,6.5 9,6.5 0.6,15.7 0.6,25 0,25 0,15.4 8.7,6 12.1,6 "/>
<rect x="12.1" y="4.4" class="st2" width="7.5" height="2.2"/>
<path class="st2" d="M57.9,3.6l-0.5,0.5c-0.2-0.2-0.5-0.4-0.7-0.2c-0.5,0.4,1.2,0.5,1.2,1.5c0,1.1-1.5,1.2-2.2,0.4l0.5-0.5
	c0.2,0.3,1,0.6,1,0.1c0-0.4-1.3-0.5-1.3-1.4C55.9,3,57.3,2.8,57.9,3.6 M53,4.7c0,1.2,1.7,1.2,1.7,0C54.6,3.5,53,3.5,53,4.7z
	 M55.4,4.7c0,2.1-3.2,2.1-3.2,0C52.2,2.6,55.4,2.6,55.4,4.7z M51,4.3c-0.2-0.7-1.3-0.8-1.6,0H51z M51.8,4.9h-2.4
	c0.1,0.8,1.1,0.9,1.6,0.4l0.6,0.3c-0.9,1.2-3,0.7-3-0.9c0-2.1,3.2-2.2,3.2,0.1L51.8,4.9z M46.7,3.2h0.7v0.4c0.2-0.4,0.6-0.6,1-0.4
	l-0.2,0.7c-0.2-0.1-0.4-0.1-0.5,0.2c-0.2,0.3-0.1,1.9-0.1,2.2h-0.8V3.2z M43.9,4.7c0,1.2,1.7,1.2,1.7,0C45.5,3.5,43.9,3.5,43.9,4.7z
	 M46.3,4.7c0,2.1-3.2,2.1-3.2,0C43.1,2.6,46.3,2.6,46.3,4.7z M40.2,4.7c0,1.2,1.7,1.2,1.7,0C41.9,3.5,40.2,3.5,40.2,4.7z M40.2,3.2
	v0.3c1-0.9,2.4-0.2,2.4,1.2c0,1.3-1.4,2.1-2.4,1.2v1.4h-0.8V3.2H40.2z M37.5,3.2h0.7v0.4c0.2-0.4,0.6-0.6,1-0.4l-0.2,0.7
	c-0.2-0.1-0.4-0.1-0.5,0.2c-0.2,0.3-0.1,1.9-0.1,2.2h-0.8V3.2z M34.6,4.7c0,1.2,1.7,1.2,1.7,0C36.3,3.5,34.6,3.5,34.6,4.7z M37,4.7
	c0,2.1-3.2,2.1-3.2,0C33.9,2.6,37,2.6,37,4.7z M33.4,2.8l-0.5,0.5c-1-1-2.6-0.6-2.6,0.8c0,1.5,1.6,1.8,2.6,0.8l0.5,0.6
	c-1.5,1.5-4,0.8-4-1.4C29.4,2,32.1,1.3,33.4,2.8z M25.7,4.3h1.4V5h-1.4V4.3z"/>
<path class="st4" d="M22.9,23.7l-5.1,14.1l4.2,2.3l0.7-2.8l0.7,0.4l0.8,0.5l3.3,2l0.4,2.6l4.6,2.4l-4.6-18.6L22.9,23.7z M26.8,35.1
	l0.3,1.7l-3.7-2.2l1.9-6.8l0.3,1.7l0.8,4.2L26.8,35.1z"/>
<path class="st6" d="M22.9,23.7l-5.1,14.1l4.2,2.3l0.7-2.8l0.7,0.4l0.8,0.5l3.3,2l0.4,2.6l4.6,2.4l-4.6-18.6L22.9,23.7z M26.8,35.1
	l0.3,1.7l-3.7-2.2l1.9-6.8l0.3,1.7l0.8,4.2L26.8,35.1z"/>
<polygon class="st0" points="22.9,23.7 27.9,26.6 28.8,26.1 24.3,23.4 23.8,23.1 "/>
<polygon class="st6" points="22.9,23.7 27.9,26.6 28.8,26.1 24.3,23.4 23.8,23.1 "/>
<polygon class="st0" points="27.9,26.6 32.6,45.2 33.5,44.7 33.2,43.8 28.8,26.3 28.8,26.1 "/>
<polygon class="st6" points="27.9,26.6 32.6,45.2 33.5,44.7 33.2,43.8 28.8,26.3 28.8,26.1 "/>
<polygon class="st0" points="24.7,34 25.7,29.5 25.3,27.8 23.5,34.5 "/>
<polygon class="st6" points="24.7,34 25.7,29.5 25.3,27.8 23.5,34.5 "/>
<polygon class="st0" points="26.8,35.1 25.2,34.3 24.7,34 23.5,34.5 27.2,36.8 "/>
<polygon class="st6" points="26.8,35.1 25.2,34.3 24.7,34 23.5,34.5 27.2,36.8 "/>
<polygon class="st0" points="23.1,38.9 23.4,37.6 22.7,37.2 22,40.1 22.9,39.7 "/>
<polygon class="st6" points="23.1,38.9 23.4,37.6 22.7,37.2 22,40.1 22.9,39.7 "/>
<polygon class="st3" points="24.3,23.4 28.8,26.1 28.8,26.3 31.6,24.6 26.8,21.9 "/>
<polygon class="st6" points="24.3,23.4 28.8,26.1 28.8,26.3 31.6,24.6 26.8,21.9 "/>
<polygon class="st3" points="28.8,26.3 33.2,43.8 36.2,42.2 31.6,24.6 "/>
<polygon class="st6" points="28.8,26.3 33.2,43.8 36.2,42.2 31.6,24.6 "/>
<polygon class="st5" points="26.8,35.1 26.5,33.7 25.2,34.3 "/>
<polygon class="st6" points="26.8,35.1 26.5,33.7 25.2,34.3 "/>
<polygon class="st5" points="24.2,38.2 23.4,37.6 23.1,38.9 "/>
<polygon class="st6" points="24.2,38.2 23.4,37.6 23.1,38.9 "/>
<path class="st4" d="M43.4,33.2l2.1-6l0.3,1.4l1.2,5.2l0.3,1.3L43.4,33.2z M42.9,22.7L38,36.3l4,2.2l0.7-2.5l0.6,0.4l4.7,2.8
	l0.6,3.1l4,2l-4.9-18.9L42.9,22.7z"/>
<path class="st6" d="M43.4,33.2l2.1-6l0.3,1.4l1.2,5.2l0.3,1.3L43.4,33.2z M42.9,22.7L38,36.3l4,2.2l0.7-2.5l0.6,0.4l4.7,2.8
	l0.6,3.1l4,2l-4.9-18.9L42.9,22.7z"/>
<polygon class="st0" points="42.7,36 42,38.5 42.8,38.2 43.3,36.4 "/>
<polygon class="st6" points="42.7,36 42,38.5 42.8,38.2 43.3,36.4 "/>
<polygon class="st0" points="43.4,33.2 47.3,35.2 47,33.9 44.7,32.8 "/>
<polygon class="st6" points="43.4,33.2 47.3,35.2 47,33.9 44.7,32.8 "/>
<polygon class="st0" points="43.4,33.2 44.7,32.8 45.8,28.7 45.5,27.3 "/>
<polygon class="st6" points="43.4,33.2 44.7,32.8 45.8,28.7 45.5,27.3 "/>
<polygon class="st0" points="42.9,22.7 47.7,25.5 48.5,25.1 44,22.4 43.7,22.2 "/>
<polygon class="st6" points="42.9,22.7 47.7,25.5 48.5,25.1 44,22.4 43.7,22.2 "/>
<polygon class="st0" points="47.7,25.5 52.6,44.4 53.4,44 53.2,43.3 48.5,25.2 48.5,25.1 "/>
<polygon class="st6" points="47.7,25.5 52.6,44.4 53.4,44 53.2,43.3 48.5,25.2 48.5,25.1 "/>
<polygon class="st3" points="52.1,18.4 56.8,20.8 60.3,18.9 55.7,16.4 "/>
<polygon class="st6" points="52.1,18.4 56.8,20.8 60.3,18.9 55.7,16.4 "/>
<polygon class="st3" points="56.8,20.8 61.1,38 64.8,35.8 60.3,18.9 "/>
<polygon class="st6" points="56.8,20.8 61.1,38 64.8,35.8 60.3,18.9 "/>
<polygon class="st5" points="52.4,19 56.4,21 56.7,22.2 58.1,27.7 58.7,29.8 59.7,33.8 60.6,37.2 57,35.5 56.6,32.9 52.2,30.7 
	51.8,32.9 50.4,32.3 50.5,32.8 51.9,33.5 52.4,31.2 56.2,33 56.7,35.8 61.1,38 56.8,20.8 52.1,18.4 48.9,26.6 49.1,27.5 "/>
<polygon class="st6" points="52.4,19 56.4,21 56.7,22.2 58.1,27.7 58.7,29.8 59.7,33.8 60.6,37.2 57,35.5 56.6,32.9 52.2,30.7 
	51.8,32.9 50.4,32.3 50.5,32.8 51.9,33.5 52.4,31.2 56.2,33 56.7,35.8 61.1,38 56.8,20.8 52.1,18.4 48.9,26.6 49.1,27.5 "/>
<path class="st3" d="M53.4,27.6l1-2.9l0.5,2l0.5,1.9L53.4,27.6z M54.4,23.6L53,27.7l1.9,0.9l0.8,0.4L54.4,23.6z"/>
<path class="st6" d="M53.4,27.6l1-2.9l0.5,2l0.5,1.9L53.4,27.6z M54.4,23.6L53,27.7l1.9,0.9l0.8,0.4L54.4,23.6z"/>
<polygon class="st3" points="54.4,23.6 55.7,29 58.1,27.7 56.7,22.2 "/>
<polygon class="st6" points="54.4,23.6 55.7,29 58.1,27.7 56.7,22.2 "/>
<polygon class="st3" points="53.5,29.7 51.4,28.5 49.8,30 50.4,32.3 51.8,32.9 52.2,30.7 "/>
<polygon class="st6" points="53.5,29.7 51.4,28.5 49.8,30 50.4,32.3 51.8,32.9 52.2,30.7 "/>
<polygon class="st3" points="59.7,33.8 57,35.5 60.6,37.2 "/>
<polygon class="st6" points="59.7,33.8 57,35.5 60.6,37.2 "/>
<polygon class="st3" points="57,35.5 59.7,33.8 59,31.2 56.6,32.9 "/>
<polygon class="st6" points="57,35.5 59.7,33.8 59,31.2 56.6,32.9 "/>
<polygon class="st3" points="56.4,28.7 58.7,29.8 58.1,27.7 "/>
<polygon class="st6" points="56.4,28.7 58.7,29.8 58.1,27.7 "/>
<polygon class="st3" points="53.4,27.6 54.9,26.7 54.4,24.7 "/>
<polygon class="st6" points="53.4,27.6 54.9,26.7 54.4,24.7 "/>
<polygon class="st3" points="54.8,28.6 53,27.7 54.4,23.6 56.7,22.2 56.4,21 54.5,20 51.4,28.5 53.5,29.7 "/>
<polygon class="st6" points="54.8,28.6 53,27.7 54.4,23.6 56.7,22.2 56.4,21 54.5,20 51.4,28.5 53.5,29.7 "/>
<polygon class="st3" points="51.4,28.5 54.5,20 52.4,19 49.1,27.5 49.8,30 "/>
<polygon class="st6" points="51.4,28.5 54.5,20 52.4,19 49.1,27.5 49.8,30 "/>
<polygon class="st3" points="54.8,28.6 53.5,29.7 52.2,30.7 56.6,32.8 56.6,32.9 59,31.3 58.7,29.8 56.4,28.7 55.7,29 "/>
<polygon class="st6" points="54.8,28.6 53.5,29.7 52.2,30.7 56.6,32.8 56.6,32.9 59,31.3 58.7,29.8 56.4,28.7 55.7,29 "/>
</svg>
