<?xml version="1.0" encoding="utf-8"?>
<!-- Generator: Adobe Illustrator 16.0.0, SVG Export Plug-In . SVG Version: 6.00 Build 0)  -->
<!DOCTYPE svg PUBLIC "-//W3C//DTD SVG 1.1//EN" "http://www.w3.org/Graphics/SVG/1.1/DTD/svg11.dtd">
<svg version="1.1" id="Capa_1" xmlns="http://www.w3.org/2000/svg" xmlns:xlink="http://www.w3.org/1999/xlink" x="0px" y="0px"
	 width="66.8px" height="45.2px" viewBox="0 0 66.8 45.2" style="enable-background:new 0 0 66.8 45.2;" xml:space="preserve">
<style type="text/css">
<![CDATA[
	.st0{fill:#E31E24;}
	.st1{fill-rule:evenodd;clip-rule:evenodd;fill:#E31E24;}
	.st2{fill:none;stroke:#000000;stroke-width:3.389481e-002;stroke-linecap:round;stroke-linejoin:round;stroke-miterlimit:22.9256;}
	.st3{fill-rule:evenodd;clip-rule:evenodd;fill:#EBECEC;}
	.st4{fill:none;stroke:#000000;stroke-width:3.389483e-002;stroke-linecap:round;stroke-linejoin:round;stroke-miterlimit:22.9256;}
	.st5{fill:none;stroke:#000000;stroke-width:3.693704e-002;stroke-linecap:round;stroke-linejoin:round;stroke-miterlimit:22.9256;}
]]>
</style>
<polygon class="st0" points="12.1,6.4 9,6.4 0.6,15.5 0.6,24.9 0,24.9 0,15.3 8.7,5.9 12.1,5.9 "/>
<rect x="12.1" y="4.3" class="st1" width="7.5" height="2.2"/>
<path class="st1" d="M55.4,5.4c0,1.3,1.8,1.3,1.8,0C57.1,4.2,55.4,4.1,55.4,5.4 M57.1,3.8h0.8v3.3h-0.8V6.7c-1.1,1-2.6,0.1-2.6-1.3
	c0-1.4,1.5-2.3,2.6-1.3V3.8z M53.6,2h1l-1.1,1.2h-0.6L53.6,2z M53.1,3.8h0.8v3.3h-0.8V3.8z M51,3.8h0.7v0.4c0.2-0.4,0.6-0.6,1.1-0.4
	l-0.3,0.7c-0.2-0.1-0.4-0.1-0.6,0.2c-0.2,0.3-0.1,2-0.1,2.4H51V3.8z M49.7,5c-0.2-0.8-1.4-0.8-1.8,0H49.7z M50.5,5.7h-2.7
	c0.1,0.8,1.2,1,1.7,0.4l0.7,0.3c-0.9,1.3-3.2,0.8-3.2-1c0-2.3,3.5-2.4,3.5,0.1L50.5,5.7z M45.1,3.8h0.7v0.4c0.2-0.4,0.6-0.6,1.1-0.4
	l-0.3,0.7c-0.2-0.1-0.4-0.1-0.6,0.2c-0.2,0.3-0.1,2-0.1,2.4h-0.8V3.8z M43.1,3.8h0.7v0.4c0.2-0.4,0.6-0.6,1.1-0.4l-0.3,0.7
	c-0.2-0.1-0.4-0.1-0.6,0.2c-0.2,0.3-0.1,2-0.1,2.4h-0.8V3.8z M41.8,5c-0.2-0.8-1.4-0.8-1.8,0H41.8z M42.6,5.7h-2.7
	c0.1,0.8,1.2,1,1.7,0.4l0.7,0.3c-0.9,1.3-3.2,0.8-3.2-1c0-2.3,3.5-2.4,3.5,0.1L42.6,5.7z M35.2,2.6H36v1.7h1.5V2.6h0.9v4.5h-0.9v-2
	H36v2h-0.9V2.6z M30.9,5.1h1.5v0.8h-1.5V5.1z"/>
<polygon class="st3" points="63.9,27.4 64.3,27.4 64.4,40.2 63.8,40 "/>
<polygon class="st2" points="63.9,27.4 64.3,27.4 64.4,40.2 63.8,40 "/>
<polygon class="st3" points="64.3,27.3 64.8,27.1 64.8,40 64.3,40.2 "/>
<polygon class="st2" points="64.3,27.3 64.8,27.1 64.8,40 64.3,40.2 "/>
<polygon class="st3" points="38.8,19.1 39.3,19.2 39.3,31.9 38.8,31.7 "/>
<polygon class="st2" points="38.8,19.1 39.3,19.2 39.3,31.9 38.8,31.7 "/>
<polygon class="st3" points="39.3,19 39.8,18.8 39.8,31.8 39.3,31.9 "/>
<polygon class="st2" points="39.3,19 39.8,18.8 39.8,31.8 39.3,31.9 "/>
<polygon class="st3" points="45.6,21.3 46.1,21.4 46.1,34.1 45.6,34 "/>
<polygon class="st2" points="45.6,21.3 46.1,21.4 46.1,34.1 45.6,34 "/>
<polygon class="st3" points="46.1,21.3 46.6,21.1 46.6,34 46.1,34.1 "/>
<polygon class="st2" points="46.1,21.3 46.6,21.1 46.6,34 46.1,34.1 "/>
<polygon class="st3" points="51.3,23.2 51.8,23.3 51.8,36 51.2,35.8 "/>
<polygon class="st2" points="51.3,23.2 51.8,23.3 51.8,36 51.2,35.8 "/>
<polygon class="st3" points="51.8,23.2 52.2,23 52.2,35.9 51.8,36 "/>
<polygon class="st2" points="51.8,23.2 52.2,23 52.2,35.9 51.8,36 "/>
<polygon class="st3" points="57.8,25.3 58.2,25.4 58.3,38.2 57.7,38 "/>
<polygon class="st2" points="57.8,25.3 58.2,25.4 58.3,38.2 57.7,38 "/>
<polygon class="st3" points="58.2,25.3 58.7,25.1 58.7,38 58.2,38.2 "/>
<polygon class="st2" points="58.2,25.3 58.7,25.1 58.7,38 58.2,38.2 "/>
<polygon class="st3" points="33.9,30.5 34.3,30.7 34.3,41 33.9,40.9 "/>
<polygon class="st2" points="33.9,30.5 34.3,30.7 34.3,41 33.9,40.9 "/>
<polygon class="st3" points="34.3,30.7 34.8,30.8 34.8,40.9 34.3,41 "/>
<polygon class="st2" points="34.3,30.7 34.8,30.8 34.8,40.9 34.3,41 "/>
<polygon class="st3" points="34.3,33.2 34.3,33.6 37.4,31.7 37,31.6 "/>
<polygon class="st2" points="34.3,33.2 34.3,33.6 37.4,31.7 37,31.6 "/>
<polygon class="st3" points="34.3,33.6 34.8,33.4 37.5,31.7 37.4,31.7 "/>
<polygon class="st2" points="34.3,33.6 34.8,33.4 37.5,31.7 37.4,31.7 "/>
<polygon class="st3" points="33.9,33.3 33.9,32.9 31.6,29.8 31.2,29.6 "/>
<polygon class="st2" points="33.9,33.3 33.9,32.9 31.6,29.8 31.2,29.6 "/>
<polygon class="st3" points="33.9,32.5 33.9,32.9 31.6,29.8 32,29.9 "/>
<polygon class="st2" points="33.9,32.5 33.9,32.9 31.6,29.8 32,29.9 "/>
<polygon class="st3" points="46.4,34.7 46.9,34.9 46.9,45.2 46.4,45 "/>
<polygon class="st2" points="46.4,34.7 46.9,34.9 46.9,45.2 46.4,45 "/>
<polygon class="st3" points="46.9,34.9 47.4,34.7 47.4,45.1 46.9,45.2 "/>
<polygon class="st2" points="46.9,34.9 47.4,34.7 47.4,45.1 46.9,45.2 "/>
<polygon class="st3" points="46.4,37.5 46.4,37.1 44.1,33.9 43.7,33.8 "/>
<polygon class="st2" points="46.4,37.5 46.4,37.1 44.1,33.9 43.7,33.8 "/>
<polygon class="st3" points="46.4,36.7 46.4,37.1 44.1,33.9 44.5,34.1 "/>
<polygon class="st2" points="46.4,36.7 46.4,37.1 44.1,33.9 44.5,34.1 "/>
<polygon class="st3" points="21.7,26.5 22.2,26.7 22.2,37 21.7,36.8 "/>
<polygon class="st2" points="21.7,26.5 22.2,26.7 22.2,37 21.7,36.8 "/>
<polygon class="st3" points="22.2,26.7 22.6,26.8 22.6,36.9 22.2,37 "/>
<polygon class="st2" points="22.2,26.7 22.6,26.8 22.6,36.9 22.2,37 "/>
<polygon class="st3" points="22.2,29.2 22.2,29.5 25.2,27.6 24.8,27.5 "/>
<polygon class="st2" points="22.2,29.2 22.2,29.5 25.2,27.6 24.8,27.5 "/>
<polygon class="st3" points="22.2,29.5 22.6,29.4 25.3,27.7 25.2,27.6 "/>
<polygon class="st2" points="22.2,29.5 22.6,29.4 25.3,27.7 25.2,27.6 "/>
<polygon class="st3" points="64.3,29.8 64.3,29.4 39.1,21.2 39.1,21.5 "/>
<polygon class="st2" points="64.3,29.8 64.3,29.4 39.1,21.2 39.1,21.5 "/>
<polygon class="st3" points="46.9,34.9 46.9,34.6 21.7,26.2 21.7,26.5 "/>
<polygon class="st2" points="46.9,34.9 46.9,34.6 21.7,26.2 21.7,26.5 "/>
<polygon class="st3" points="46.9,34.6 46.9,34.9 47.4,34.7 47.4,34.5 "/>
<polygon class="st2" points="46.9,34.6 46.9,34.9 47.4,34.7 47.4,34.5 "/>
<polygon class="st3" points="21.7,26.2 22.1,26.1 47.4,34.5 46.9,34.6 "/>
<polygon class="st2" points="21.7,26.2 22.1,26.1 47.4,34.5 46.9,34.6 "/>
<polygon class="st3" points="34.4,30.4 34.4,30.3 51.8,25.3 51.8,25.4 "/>
<polygon class="st2" points="34.4,30.4 34.4,30.3 51.8,25.3 51.8,25.4 "/>
<polygon class="st3" points="51.6,25.2 51.8,25.3 34.4,30.3 34.2,30.2 "/>
<polygon class="st5" points="51.6,25.2 51.8,25.3 34.4,30.3 34.2,30.2 "/>
<polygon class="st3" points="34.2,30.2 34.4,30.3 34.4,30.4 34.2,30.4 "/>
<polygon class="st5" points="34.2,30.2 34.4,30.3 34.4,30.4 34.2,30.4 "/>
<polygon class="st3" points="34.2,30.1 34.4,30.1 34.4,30.3 34.2,30.2 "/>
<polygon class="st5" points="34.2,30.1 34.4,30.1 34.4,30.3 34.2,30.2 "/>
<polygon class="st3" points="34.4,30.2 52.2,23 52.2,23.1 34.4,30.3 "/>
<polygon class="st5" points="34.4,30.2 52.2,23 52.2,23.1 34.4,30.3 "/>
<polygon class="st3" points="52,22.9 52.2,23 34.4,30.2 34.2,30.1 "/>
<polygon class="st5" points="52,22.9 52.2,23 34.4,30.2 34.2,30.1 "/>
<polygon class="st3" points="51.8,23.3 50.6,25.6 50.4,25.7 48.8,24.7 48,26.4 47.8,26.4 46.5,25.6 45.9,27 45.7,27 44.6,26.4 
	44.1,27.5 43.9,27.5 43,27.1 42.6,27.9 42.4,28 41.4,27.4 41.7,27.3 42.4,27.7 42.8,26.9 43,26.8 43.9,27.3 44.4,26.3 44.7,26.1 
	45.7,26.7 46.3,25.5 46.6,25.4 47.8,26.1 48.5,24.6 48.8,24.5 50.4,25.3 51.3,23.5 "/>
<polygon class="st2" points="51.8,23.3 50.6,25.6 50.4,25.7 48.8,24.7 48,26.4 47.8,26.4 46.5,25.6 45.9,27 45.7,27 44.6,26.4 
	44.1,27.5 43.9,27.5 43,27.1 42.6,27.9 42.4,28 41.4,27.4 41.7,27.3 42.4,27.7 42.8,26.9 43,26.8 43.9,27.3 44.4,26.3 44.7,26.1 
	45.7,26.7 46.3,25.5 46.6,25.4 47.8,26.1 48.5,24.6 48.8,24.5 50.4,25.3 51.3,23.5 "/>
<polygon class="st3" points="28.7,28.6 28.7,28.4 46.1,23.4 46.1,23.5 "/>
<polygon class="st2" points="28.7,28.6 28.7,28.4 46.1,23.4 46.1,23.5 "/>
<polygon class="st3" points="45.9,23.4 46.1,23.4 28.7,28.4 28.5,28.3 "/>
<polygon class="st5" points="45.9,23.4 46.1,23.4 28.7,28.4 28.5,28.3 "/>
<polygon class="st3" points="28.5,28.3 28.7,28.4 28.7,28.6 28.5,28.5 "/>
<polygon class="st5" points="28.5,28.3 28.7,28.4 28.7,28.6 28.5,28.5 "/>
<polygon class="st3" points="28.5,28.2 28.7,28.3 28.7,28.4 28.5,28.3 "/>
<polygon class="st5" points="28.5,28.2 28.7,28.3 28.7,28.4 28.5,28.3 "/>
<polygon class="st3" points="28.7,28.3 46.6,21.1 46.6,21.2 28.7,28.4 "/>
<polygon class="st5" points="28.7,28.3 46.6,21.1 46.6,21.2 28.7,28.4 "/>
<polygon class="st3" points="46.4,21 46.6,21.1 28.7,28.3 28.5,28.2 "/>
<polygon class="st5" points="46.4,21 46.6,21.1 28.7,28.3 28.5,28.2 "/>
<polygon class="st3" points="46.1,21.4 44.9,23.7 44.8,23.8 43.1,22.8 42.4,24.5 42.2,24.5 40.8,23.7 40.3,25.1 40.1,25.1 
	38.9,24.5 38.5,25.6 38.2,25.7 37.4,25.2 37,26 36.7,26.1 35.8,25.6 36,25.5 36.8,25.9 37.2,25 37.4,24.9 38.2,25.4 38.7,24.4 
	39,24.3 40,24.9 40.6,23.6 40.9,23.5 42.1,24.2 42.9,22.7 43.2,22.6 44.7,23.5 45.7,21.6 "/>
<polygon class="st2" points="46.1,21.4 44.9,23.7 44.8,23.8 43.1,22.8 42.4,24.5 42.2,24.5 40.8,23.7 40.3,25.1 40.1,25.1 
	38.9,24.5 38.5,25.6 38.2,25.7 37.4,25.2 37,26 36.7,26.1 35.8,25.6 36,25.5 36.8,25.9 37.2,25 37.4,24.9 38.2,25.4 38.7,24.4 
	39,24.3 40,24.9 40.6,23.6 40.9,23.5 42.1,24.2 42.9,22.7 43.2,22.6 44.7,23.5 45.7,21.6 "/>
<polygon class="st3" points="21.9,26.3 21.9,26.2 39.3,21.1 39.3,21.3 "/>
<polygon class="st2" points="21.9,26.3 21.9,26.2 39.3,21.1 39.3,21.3 "/>
<polygon class="st3" points="39.1,21.1 39.3,21.2 21.9,26.2 21.7,26.1 "/>
<polygon class="st5" points="39.1,21.1 39.3,21.2 21.9,26.2 21.7,26.1 "/>
<polygon class="st3" points="21.7,26.1 21.9,26.2 21.9,26.3 21.7,26.2 "/>
<polygon class="st5" points="21.7,26.1 21.9,26.2 21.9,26.3 21.7,26.2 "/>
<polygon class="st3" points="21.7,25.9 21.9,26 21.9,26.2 21.7,26.1 "/>
<polygon class="st5" points="21.7,25.9 21.9,26 21.9,26.2 21.7,26.1 "/>
<polygon class="st3" points="21.9,26 39.8,18.8 39.8,19 21.9,26.2 "/>
<polygon class="st5" points="21.9,26 39.8,18.8 39.8,19 21.9,26.2 "/>
<polygon class="st3" points="39.6,18.8 39.8,18.8 21.9,26 21.7,26 "/>
<polygon class="st5" points="39.6,18.8 39.8,18.8 21.9,26 21.7,26 "/>
<polygon class="st3" points="39.3,19.2 38.1,21.5 37.9,21.5 36.3,20.5 35.5,22.2 35.4,22.3 34,21.5 33.4,22.8 33.2,22.9 32.1,22.2 
	31.6,23.3 31.4,23.4 30.5,22.9 30.2,23.8 29.9,23.8 28.9,23.3 29.2,23.2 30,23.6 30.4,22.7 30.5,22.7 31.4,23.1 31.9,22.1 32.2,22 
	33.2,22.6 33.8,21.4 34.1,21.2 35.3,21.9 36.1,20.5 36.4,20.3 37.9,21.2 38.8,19.3 "/>
<polygon class="st2" points="39.3,19.2 38.1,21.5 37.9,21.5 36.3,20.5 35.5,22.2 35.4,22.3 34,21.5 33.4,22.8 33.2,22.9 32.1,22.2 
	31.6,23.3 31.4,23.4 30.5,22.9 30.2,23.8 29.9,23.8 28.9,23.3 29.2,23.2 30,23.6 30.4,22.7 30.5,22.7 31.4,23.1 31.9,22.1 32.2,22 
	33.2,22.6 33.8,21.4 34.1,21.2 35.3,21.9 36.1,20.5 36.4,20.3 37.9,21.2 38.8,19.3 "/>
<polygon class="st3" points="46.9,34.6 46.9,34.4 64.3,29.4 64.3,29.6 "/>
<polygon class="st2" points="46.9,34.6 46.9,34.4 64.3,29.4 64.3,29.6 "/>
<polygon class="st3" points="64.2,29.4 64.3,29.4 46.9,34.4 46.7,34.4 "/>
<polygon class="st5" points="64.2,29.4 64.3,29.4 46.9,34.4 46.7,34.4 "/>
<polygon class="st3" points="46.7,34.4 46.9,34.4 46.9,34.6 46.7,34.5 "/>
<polygon class="st5" points="46.7,34.4 46.9,34.4 46.9,34.6 46.7,34.5 "/>
<polygon class="st3" points="46.7,34.2 46.9,34.3 46.9,34.4 46.7,34.4 "/>
<polygon class="st5" points="46.7,34.2 46.9,34.3 46.9,34.4 46.7,34.4 "/>
<polygon class="st3" points="46.9,34.3 64.8,27.1 64.8,27.3 46.9,34.4 "/>
<polygon class="st5" points="46.9,34.3 64.8,27.1 64.8,27.3 46.9,34.4 "/>
<polygon class="st3" points="64.6,27.1 64.8,27.1 47,34.3 46.7,34.3 "/>
<polygon class="st5" points="64.6,27.1 64.8,27.1 47,34.3 46.7,34.3 "/>
<polygon class="st3" points="64.3,27.4 63.1,29.8 63,29.8 61.3,28.8 60.6,30.5 60.4,30.6 59.1,29.8 58.5,31.1 58.3,31.2 57.1,30.5 
	56.7,31.6 56.4,31.7 55.6,31.2 55.2,32.1 54.9,32.1 54,31.6 54.3,31.5 55,31.9 55.4,31 55.6,31 56.4,31.4 56.9,30.4 57.2,30.3 
	58.2,30.9 58.9,29.6 59.2,29.5 60.4,30.2 61.1,28.7 61.4,28.6 62.9,29.5 63.9,27.6 "/>
<polygon class="st2" points="64.3,27.4 63.1,29.8 63,29.8 61.3,28.8 60.6,30.5 60.4,30.6 59.1,29.8 58.5,31.1 58.3,31.2 57.1,30.5 
	56.7,31.6 56.4,31.7 55.6,31.2 55.2,32.1 54.9,32.1 54,31.6 54.3,31.5 55,31.9 55.4,31 55.6,31 56.4,31.4 56.9,30.4 57.2,30.3 
	58.2,30.9 58.9,29.6 59.2,29.5 60.4,30.2 61.1,28.7 61.4,28.6 62.9,29.5 63.9,27.6 "/>
<polygon class="st3" points="40.8,32.6 40.8,32.4 58.2,27.4 58.2,27.6 "/>
<polygon class="st2" points="40.8,32.6 40.8,32.4 58.2,27.4 58.2,27.6 "/>
<polygon class="st3" points="58.1,27.4 58.2,27.4 40.8,32.4 40.6,32.4 "/>
<polygon class="st5" points="58.1,27.4 58.2,27.4 40.8,32.4 40.6,32.4 "/>
<polygon class="st3" points="40.6,32.4 40.8,32.4 40.8,32.6 40.6,32.5 "/>
<polygon class="st5" points="40.6,32.4 40.8,32.4 40.8,32.6 40.6,32.5 "/>
<polygon class="st3" points="40.6,32.2 40.8,32.3 40.8,32.4 40.6,32.4 "/>
<polygon class="st5" points="40.6,32.2 40.8,32.3 40.8,32.4 40.6,32.4 "/>
<polygon class="st3" points="40.8,32.3 58.7,25.1 58.7,25.2 40.8,32.4 "/>
<polygon class="st5" points="40.8,32.3 58.7,25.1 58.7,25.2 40.8,32.4 "/>
<polygon class="st3" points="58.5,25 58.7,25.1 40.9,32.3 40.6,32.2 "/>
<polygon class="st5" points="58.5,25 58.7,25.1 40.9,32.3 40.6,32.2 "/>
<polygon class="st3" points="58.2,25.4 57.1,27.8 56.9,27.8 55.2,26.8 54.5,28.5 54.3,28.5 53,27.8 52.4,29.1 52.2,29.2 51,28.5 
	50.6,29.6 50.3,29.7 49.5,29.2 49.1,30 48.8,30.1 47.9,29.6 48.2,29.5 48.9,29.9 49.3,29 49.5,28.9 50.3,29.4 50.8,28.4 51.1,28.3 
	52.2,28.9 52.8,27.6 53.1,27.5 54.3,28.2 55,26.7 55.3,26.6 56.8,27.5 57.8,25.6 "/>
<polygon class="st2" points="58.2,25.4 57.1,27.8 56.9,27.8 55.2,26.8 54.5,28.5 54.3,28.5 53,27.8 52.4,29.1 52.2,29.2 51,28.5 
	50.6,29.6 50.3,29.7 49.5,29.2 49.1,30 48.8,30.1 47.9,29.6 48.2,29.5 48.9,29.9 49.3,29 49.5,28.9 50.3,29.4 50.8,28.4 51.1,28.3 
	52.2,28.9 52.8,27.6 53.1,27.5 54.3,28.2 55,26.7 55.3,26.6 56.8,27.5 57.8,25.6 "/>
<path class="st3" d="M29.5,22.3c-2.6,0.5-5.3,1.5-7.9,3.2l0.1,0.5c2.8-1.8,5.6-2.8,8.5-3.3c4.7-0.7,9.5,0.1,14.3,2.1v-0.4
	c-4.6-1.8-9.2-2.7-13.7-2.2C30.3,22.1,29.9,22.2,29.5,22.3z"/>
<path class="st4" d="M29.5,22.3c-2.6,0.5-5.3,1.5-7.9,3.2l0.1,0.5c2.8-1.8,5.6-2.8,8.5-3.3c4.7-0.7,9.5,0.1,14.3,2.1v-0.4
	c-4.6-1.8-9.2-2.7-13.7-2.2C30.3,22.1,29.9,22.2,29.5,22.3z"/>
<path class="st3" d="M30.7,22.1c4.5-0.6,9.1,0.3,13.7,2.2l6.1-2.2C46.5,19.8,38,18.3,30.7,22.1z"/>
<path class="st4" d="M30.7,22.1c4.5-0.6,9.1,0.3,13.7,2.2l6.1-2.2C46.5,19.8,38,18.3,30.7,22.1z"/>
<path class="st3" d="M30.7,22.1c7.3-3.8,15.8-2.3,19.8-0.1l0.5-0.2c-3.5-1.9-8.2-3-13.6-2.1c-0.4,0.1-0.9,0.2-1.3,0.2
	c-2.1,0.5-4.3,1.2-6.6,2.3C29.9,22.2,30.3,22.1,30.7,22.1z"/>
<path class="st4" d="M30.7,22.1c7.3-3.8,15.8-2.3,19.8-0.1l0.5-0.2c-3.5-1.9-8.2-3-13.6-2.1c-0.4,0.1-0.9,0.2-1.3,0.2
	c-2.1,0.5-4.3,1.2-6.6,2.3C29.9,22.2,30.3,22.1,30.7,22.1z"/>
<path class="st3" d="M37.4,19.7c5.4-0.8,10.1,0.2,13.6,2.1l6.2-2.3C52.4,17.6,45.4,15.7,37.4,19.7z"/>
<path class="st4" d="M37.4,19.7c5.4-0.8,10.1,0.2,13.6,2.1l6.2-2.3C52.4,17.6,45.4,15.7,37.4,19.7z"/>
<path class="st3" d="M37.4,19.7c8.1-4,15.1-2.1,19.8-0.2l0.5-0.2c-3.5-1.9-8.4-2.9-13.9-2c-0.3,0.1-0.7,0.1-1,0.2
	c-2.1,0.5-4.4,1.2-6.7,2.3C36.5,19.9,36.9,19.8,37.4,19.7z"/>
<path class="st4" d="M37.4,19.7c8.1-4,15.1-2.1,19.8-0.2l0.5-0.2c-3.5-1.9-8.4-2.9-13.9-2c-0.3,0.1-0.7,0.1-1,0.2
	c-2.1,0.5-4.4,1.2-6.7,2.3C36.5,19.9,36.9,19.8,37.4,19.7z"/>
<path class="st3" d="M43.8,17.4c5.5-1,10.4,0,13.9,2l6.1-2.2C59,15.2,51.8,13.5,43.8,17.4z"/>
<path class="st4" d="M43.8,17.4c5.5-1,10.4,0,13.9,2l6.1-2.2C59,15.2,51.8,13.5,43.8,17.4z"/>
</svg>
