<?xml version="1.0" encoding="utf-8"?>
<!-- Generator: Adobe Illustrator 16.0.0, SVG Export Plug-In . SVG Version: 6.00 Build 0)  -->
<!DOCTYPE svg PUBLIC "-//W3C//DTD SVG 1.1//EN" "http://www.w3.org/Graphics/SVG/1.1/DTD/svg11.dtd">
<svg version="1.1" id="Capa_1" xmlns="http://www.w3.org/2000/svg" xmlns:xlink="http://www.w3.org/1999/xlink" x="0px" y="0px"
	 width="66.8px" height="45.2px" viewBox="0 0 66.8 45.2" style="enable-background:new 0 0 66.8 45.2;" xml:space="preserve">
<style type="text/css">
<![CDATA[
	.st0{fill:#E31E24;}
	.st1{fill-rule:evenodd;clip-rule:evenodd;fill:#E31E24;}
	.st2{fill-rule:evenodd;clip-rule:evenodd;fill:#EBECEC;}
	.st3{fill-rule:evenodd;clip-rule:evenodd;}
	.st4{fill:none;stroke:#000000;stroke-width:2.825287e-002;stroke-linecap:round;stroke-linejoin:round;stroke-miterlimit:22.9256;}
]]>
</style>
<path class="st1" d="M55.1,3.7h0.8v0.3c0.5-0.4,1.2-0.6,1.7-0.1c0.2,0.2,0.3,0.5,0.3,0.8v2.1h-0.8c0-0.5,0.1-1.7-0.1-2.1
	c-0.1-0.4-0.6-0.5-0.9-0.2c-0.4,0.4-0.3,1.8-0.3,2.4h-0.8V3.7z M52.9,2h0.9l-1.1,1.1h-0.6L52.9,2z M51.9,5.3c0,1.2,1.7,1.2,1.7,0
	C53.7,4.1,51.9,4.1,51.9,5.3z M54.5,5.3c0,2.2-3.3,2.2-3.3,0C51.1,3.1,54.5,3.2,54.5,5.3z M49.8,3.7h0.8v3.2h-0.8V3.7z M50.2,2.4
	c0.7,0,0.7,1,0,1C49.5,3.5,49.5,2.4,50.2,2.4z M49.2,4.2l-0.5,0.5c-0.2-0.2-0.8-0.5-0.8-0.1c0,0.4,1.4,0.4,1.4,1.4
	c0,1.1-1.6,1.3-2.3,0.4l0.5-0.5c0.2,0.3,1,0.6,1,0.1c0-0.4-1.4-0.5-1.4-1.5C47.1,3.5,48.5,3.3,49.2,4.2z M45.8,4.9
	c-0.2-0.8-1.4-0.8-1.7,0H45.8z M46.6,5.5H44c0.1,0.8,1.1,1,1.7,0.4l0.7,0.3c-0.9,1.3-3.1,0.7-3.1-1c0-2.2,3.3-2.3,3.3,0.1L46.6,5.5z
	 M41.3,3.7H42v0.4c0.2-0.4,0.6-0.6,1-0.4l-0.2,0.7c-0.2-0.1-0.4-0.1-0.5,0.2c-0.2,0.3-0.1,1.9-0.1,2.3h-0.8V3.7z M38.3,5.3
	c0,1.3,1.7,1.3,1.7,0C40,4.1,38.3,4.1,38.3,5.3z M38.3,3.7v0.3c1-1,2.5-0.2,2.5,1.2c0,1.3-1.4,2.2-2.5,1.2v1.5h-0.8V3.7H38.3z
	 M31.9,3.7h0.8v0.4c0.5-0.6,1.5-0.7,1.9,0.1c0.5-0.7,1.7-0.8,2,0c0.2,0.4,0.1,2.1,0.1,2.7h-0.8V5.3c0-1.2-0.9-1.1-1.2-0.5
	c-0.1,0.4-0.1,1.6-0.1,2.1h-0.8c0-0.5,0.1-1.8-0.1-2.2c-0.2-0.6-0.9-0.5-1.1,0.1c-0.1,0.4-0.1,1.6-0.1,2.1h-0.8V3.7z M30.2,2.6H31
	v4.3h-0.8V2.6z M26.1,4.9h1.5v0.7h-1.5V4.9z"/>
<polygon class="st0" points="12.1,6.1 9,6.1 0.6,15.2 0.6,24.5 0,24.5 0,15 8.7,5.5 12.1,5.5 "/>
<rect x="12.1" y="3.9" class="st1" width="7.5" height="2.2"/>
<path class="st2" d="M22.8,18c13.6,0,27.2,0,40.8,0c0.7,0,1.2,0.5,1.2,1.2v9c0,1.6-3,1.6-3,0v-0.7H60v13.6h1.8v1.2h-4.7v-1.2h1.8
	V27.5h-3.6v17.7h-1.2V23.3H32.2v21.9h-1.2V27.5h-3.5v13.6h1.8v1.2h-4.7v-1.2h1.8V27.5h-1.8v0.7c0,1.6-3,1.6-3,0v-9
	C21.6,18.5,22.1,18,22.8,18z"/>
<path class="st4" d="M22.8,18c13.6,0,27.2,0,40.8,0c0.7,0,1.2,0.5,1.2,1.2v9c0,1.6-3,1.6-3,0v-0.7H60v13.6h1.8v1.2h-4.7v-1.2h1.8
	V27.5h-3.6v17.7h-1.2V23.3H32.2v21.9h-1.2V27.5h-3.5v13.6h1.8v1.2h-4.7v-1.2h1.8V27.5h-1.8v0.7c0,1.6-3,1.6-3,0v-9
	C21.6,18.5,22.1,18,22.8,18z"/>
<rect x="23.8" y="20.6" class="st3" width="1.4" height="2.7"/>
<rect x="25.6" y="20.6" class="st3" width="1.4" height="2.7"/>
<rect x="27.4" y="20.6" class="st3" width="1.4" height="2.7"/>
<rect x="29.1" y="20.6" class="st3" width="1.4" height="2.7"/>
<path class="st3" d="M25.8,24.9h5.3v1.8h-6.5v-0.6C24.6,25.4,25.2,24.9,25.8,24.9"/>
<path class="st3" d="M60.6,24.9h-5.3v1.8h6.5v-0.6C61.8,25.4,61.2,24.9,60.6,24.9"/>
<path class="st3" d="M40,30.2c0.9,0,1.7,0.7,1.7,1.6s-0.7,1.6-1.7,1.6s-1.7-0.7-1.7-1.6S39.1,30.2,40,30.2"/>
<polygon class="st3" points="32.8,42.6 53.3,42.6 45.5,33.2 41.8,38.1 39.6,36.4 "/>
</svg>
