<?xml version="1.0" encoding="utf-8"?>
<!-- Generator: Adobe Illustrator 16.0.0, SVG Export Plug-In . SVG Version: 6.00 Build 0)  -->
<!DOCTYPE svg PUBLIC "-//W3C//DTD SVG 1.1//EN" "http://www.w3.org/Graphics/SVG/1.1/DTD/svg11.dtd">
<svg version="1.1" id="Capa_1" xmlns="http://www.w3.org/2000/svg" xmlns:xlink="http://www.w3.org/1999/xlink" x="0px" y="0px"
	 width="66.8px" height="45.2px" viewBox="0 0 66.8 45.2" style="enable-background:new 0 0 66.8 45.2;" xml:space="preserve">
<style type="text/css">
<![CDATA[
	.st0{fill:none;stroke:#000000;stroke-width:6.579792e-002;stroke-linecap:round;stroke-linejoin:round;stroke-miterlimit:22.9256;}
	.st1{fill:#E31E24;}
	.st2{fill:none;stroke:#2B2A29;stroke-width:6.569015e-002;stroke-linecap:round;stroke-linejoin:round;stroke-miterlimit:22.9256;}
	.st3{fill:none;stroke:#2B2A29;stroke-width:6.588854e-002;stroke-linecap:round;stroke-linejoin:round;stroke-miterlimit:22.9256;}
	.st4{fill-rule:evenodd;clip-rule:evenodd;fill:#E31E24;}
	.st5{fill:none;stroke:#2B2A29;stroke-width:6.567114e-002;stroke-linecap:round;stroke-linejoin:round;stroke-miterlimit:22.9256;}
	.st6{fill-rule:evenodd;clip-rule:evenodd;fill:#EBECEC;}
	.st7{fill-rule:evenodd;clip-rule:evenodd;fill:#EF7F1A;}
	.st8{fill-rule:evenodd;clip-rule:evenodd;}
	.st9{fill-rule:evenodd;clip-rule:evenodd;fill:#FEFEFE;}
	.st10{fill-rule:evenodd;clip-rule:evenodd;fill:#FF6600;}
	
		.st11{fill:none;stroke:#2B2A29;stroke-width:6.590109e-002;stroke-linecap:round;stroke-linejoin:round;stroke-miterlimit:22.9256;}
	
		.st12{fill:none;stroke:#2B2A29;stroke-width:6.600188e-002;stroke-linecap:round;stroke-linejoin:round;stroke-miterlimit:22.9256;}
]]>
</style>
<polygon class="st1" points="12.1,5.9 9,5.9 0.6,15 0.6,24.3 0,24.3 0,14.8 8.7,5.3 12.1,5.3 "/>
<rect x="12.1" y="3.7" class="st4" width="7.5" height="2.2"/>
<path class="st4" d="M56.2,3.3h0.7v0.4c0.2-0.4,0.6-0.6,1.1-0.4L57.7,4c-0.2-0.1-0.4-0.1-0.6,0.2c-0.2,0.3-0.1,2-0.1,2.4h-0.8V3.3z
	 M54.9,4.5c-0.2-0.8-1.4-0.8-1.8,0H54.9z M55.7,5.2H53c0.1,0.8,1.2,1,1.7,0.4l0.7,0.3c-0.9,1.4-3.2,0.8-3.2-1c0-2.3,3.5-2.4,3.5,0.1
	L55.7,5.2z M50.6,2.1h0.8v1.2h0.5V4h-0.5v2.6h-0.8V4h-0.4V3.3h0.4V2.1z M44.9,4.9c0,1.3,1.8,1.3,1.8,0C46.7,3.6,44.9,3.7,44.9,4.9z
	 M47.6,4.9c0,2.2-3.5,2.3-3.5,0C44.1,2.6,47.6,2.7,47.6,4.9z M42.7,2h0.8v4.6h-0.8V2z M40.2,3.9c0.4,0,1,0.1,1-0.5
	c0-0.5-0.6-0.5-1-0.5V3.9z M39.4,2.1c0.5,0,1.5-0.1,2,0.1C41.8,2.4,42,2.9,42,3.4c0,0.6-0.3,1-0.9,1.2c-0.2,0-0.5,0.1-0.9,0.1v1.9
	h-0.8V2.1z M48.4,4v2.6h0.8V4h0.5V3.3h-0.5V2.1h-0.8v1.2h-0.4V4H48.4z M35.1,4.5h1.5v0.8h-1.5V4.5z"/>
<path class="st6" d="M20.3,32.2c-0.7-1.5-1-3.2-0.6-5.3c0-0.4-0.7-9.1,0.8-9.8l13-0.7c4.8,0,11.1,0.5,16.4,1.1l7.9,7.4
	c1.3,1.2,2.3,2.2,3.2,3.1c0.1,0.1,0.2,0,0.2,0.1c1.8,1.7,2.4,3.1,2.3,3.9l0,0.6c0.8,0.8,1.2,1.4,1.3,2c0.1,3.2-0.3,5.8-2.1,6.7
	c-2.8,1.4-6.7,2.4-11.9,3c-1,0.1-2,0.1-3-0.1l-3.5-0.6c-0.8-8.2-7.1-14.5-8.3-4l-12.4-5.7C22.7,28.5,20.8,26.8,20.3,32.2z"/>
<path class="st0" d="M20.3,32.2c-0.7-1.5-1-3.2-0.6-5.3c0-0.4-0.7-9.1,0.8-9.8l13-0.7c4.8,0,11.1,0.5,16.4,1.1l7.9,7.4
	c1.3,1.2,2.3,2.2,3.2,3.1c0.1,0.1,0.2,0,0.2,0.1c1.8,1.7,2.4,3.1,2.3,3.9l0,0.6c0.8,0.8,1.2,1.4,1.3,2c0.1,3.2-0.3,5.8-2.1,6.7
	c-2.8,1.4-6.7,2.4-11.9,3c-1,0.1-2,0.1-3-0.1l-3.5-0.6c-0.8-8.2-7.1-14.5-8.3-4l-12.4-5.7C22.7,28.5,20.8,26.8,20.3,32.2z"/>
<path class="st0" d="M38.5,22.9c-0.8-0.1-1,5.7-1.1,12"/>
<path class="st0" d="M52.4,34.3c-7.9,0.3-10.8-6.6-4.6-5.1c1.9,0.4,2.8,1.9,4.2,3.9C52.2,33.3,52.7,34.3,52.4,34.3z"/>
<path class="st0" d="M62.4,33c0.4-0.1,0.8-0.3,1.1-1c0-1.4-0.9-2.7-2.3-3.9c-0.5-0.1-0.7,0.2-0.5,0.7C61.5,30,62.2,31.2,62.4,33z"/>
<path class="st0" d="M52.6,33.2l1.1,1.6l4.2-0.2c0.7,0.3,0.6,0.4,0.9-0.1l2.7-0.7l0.3-1.6C58.9,32.6,55.8,32.9,52.6,33.2z"/>
<polyline class="st0" points="41.8,25.8 41.8,26.1 45.4,29 "/>
<path class="st0" d="M46.1,32.6l-1,1c-1.3,0.7-2.1,2-3.1,3"/>
<path class="st0" d="M45.1,33.6c3.9,3,18.8,2.4,18.4-1"/>
<path class="st0" d="M20,18.2l7.4-0.2c0.8,0,1.2,0.1,1,0.8l-0.3,9.7c-0.2,0.5-0.7,0.8-1.1,0.8l-7.4-1.6"/>
<path class="st0" d="M29,36.3c-0.1-0.7-0.4-2,0-2.1l0.1-2.3l0.4-14.2c0-0.5,0.4-0.9,0.9-1.1"/>
<line class="st0" x1="22.3" y1="29.5" x2="37.4" y2="34.9"/>
<path class="st0" d="M20.6,30.3l-0.2-0.1C20,30,19.8,29.1,19.6,28 M36.2,37.6L23,31.4"/>
<path class="st0" d="M49.3,37.7c6.2,0,11.8-0.5,15.5-2.6l0,0.9c-2.7,1.9-8.4,2.6-15.5,2.8C49,38.9,48.6,37.8,49.3,37.7z"/>
<path class="st0" d="M54,38.5l-0.3-1c-1.4,0.1-2.9,0.1-4.4,0.1c-0.7,0.1-0.3,1.2,0,1.1C51,38.7,52.6,38.7,54,38.5z"/>
<path class="st0" d="M63,35.9l0,1c0.7-0.3,1.3-0.6,1.8-0.9l0-0.9v0C64.2,35.3,63.6,35.6,63,35.9z"/>
<path class="st0" d="M56.8,38.8l4.7-1c0.2-0.1,0.3,1.5-0.1,1.6l-4.7,1.1L56.8,38.8z"/>
<path class="st0" d="M64.5,38.5c-4.4,1.7-8.8,2.5-13.2,2.9c-3,0-3.1,2.6-0.8,2.5c4.4-0.6,8.7-1.4,12.6-2.9"/>
<path class="st11" d="M50.4,41.8c0.5,0,0.9,0.4,0.9,0.9c0,0.5-0.4,0.9-0.9,0.9s-0.9-0.4-0.9-0.9S49.9,41.8,50.4,41.8z"/>
<polygon class="st2" points="55.1,41.4 56.6,41.2 56.6,41.5 55.1,41.7 "/>
<polygon class="st2" points="55.1,42.1 56.6,41.9 56.6,42.2 55.1,42.4 "/>
<polygon class="st5" points="56.8,41.1 58.3,40.8 58.3,41.1 56.8,41.4 "/>
<polygon class="st5" points="56.8,41.8 58.3,41.5 58.3,41.8 56.8,42.1 "/>
<polygon class="st12" points="58.7,40.7 60.1,40.4 60.1,40.7 58.7,41 "/>
<polygon class="st12" points="58.7,41.4 60.1,41.1 60.1,41.4 58.7,41.7 "/>
<polygon class="st3" points="60.4,40.3 61.5,40 61.5,40.3 60.4,40.6 "/>
<polygon class="st3" points="60.4,41 61.5,40.7 61.5,41 60.4,41.3 "/>
<polygon class="st8" points="53.8,26.7 57.8,26.4 58.6,27.3 54.8,27.6 "/>
<path class="st8" d="M34.5,17c4.9,0,9.9,0.3,15.5,1.1l7.9,7.3c0.3,0.2,0.5,0.3-0.1,0.4c-0.6,0.1-10.6,0.6-15.9,0
	C38.7,24.2,36.9,20,34.5,17"/>
<path class="st8" d="M35.2,27.2l-4.7-3.1c-0.3-0.3-0.4-0.7-0.4-1.2v-4.5c0-0.9,0.9-1.2,2.4-1.2c1.4,0.1,3.1,2.5,4.4,5.3L36.5,27
	C36.5,27.4,35.8,27.5,35.2,27.2"/>
<path class="st8" d="M29.5,25.6l0.1,2.1c0.1,0.7,0.6,0.7,0.6,0.2l-0.1-2.2C30.1,25.2,29.5,25.1,29.5,25.6"/>
<path class="st8" d="M20.3,32.2l0.2,1.2c0,0,0,0.1,0.1,0.1l0.5,0.2c0.1,1.2,0.6,2.1,1.1,2.1c0,0,0.1,0,0.1,0l1.7-0.1
	c0,0,0.1,0,0.1,0l0,0l12.1,4.6l0.3,1l0.9-0.1c0.3,1.9,1.4,3.3,2.7,3.3c0,0,0,0,0.1,0c0,0,0,0,0.1,0c0,0,0,0,0,0l3.4-0.1
	c5.7,1.8,14.8-0.1,18.6-3c-1,0.9-8.6,2.6-11.4,2.8c-1,0.1-2,0.1-3-0.1l-3.5-0.6c-0.3-2.7-1.2-5.2-2.2-7c-1.4-2.3-3.2-3.3-4.5-1.8
	c0,0.1,0,0.1,0,0.2l-0.1,0c-0.4,0.6-0.8,1.4-1.1,2.7c-0.1,0.6-0.2,1.2-0.3,1.9L29,36.3l-4.6-2.1l-1-0.4c-0.1-0.4-0.1-0.7-0.2-1v0
	l0,0c-0.2-1.1-0.5-2-0.8-2.7c-0.1-0.2-0.2-0.4-0.3-0.6C21.5,28.2,20.6,28.8,20.3,32.2"/>
<path class="st9" d="M45.2,17.9c0.8,0,1.5,0.3,1.5,0.7c0,0.3-0.6,0.6-1.3,0.6c0,0,0.1,0,0.1,0c0.8,0,1.5-0.3,1.5-0.7
	c0-0.4-0.7-0.7-1.5-0.7c-0.4,0-0.7,0.1-1,0.2C44.6,17.9,44.9,17.9,45.2,17.9"/>
<path class="st10" d="M56.1,28.6c1.4-0.2,3,0.1,3.5,0.7c0.5,0.5-0.2,1.1-1.4,1.3c0.1,0,0.1,0,0.2,0c1.4-0.2,2.1-0.8,1.6-1.4
	s-2.1-0.9-3.5-0.8c-0.7,0.1-1.2,0.3-1.5,0.5C55.2,28.7,55.7,28.6,56.1,28.6"/>
<path class="st10" d="M49.3,27.9c0.6-0.1,1.1-0.1,1.7-0.2l0.2,0.2L50.8,28l1.3,1.5l-0.8,0.1L50,28.1l-0.4,0.1L49.3,27.9z"/>
<path class="st10" d="M51.3,27.7l0.9-0.1l1.3,1.5l0.3,0l-1.3-1.5l0.9-0.1l1.1,1.2c0.2,0.3,0.2,0.5-0.1,0.5l-1,0.1
	c-0.3,0-0.7-0.1-1-0.4L51.3,27.7z"/>
<polygon class="st8" points="51.6,29.9 51.8,29.8 52.7,30.8 52.5,30.9 "/>
<path class="st8" d="M51.9,29.8l0.2,0l0,0l0.2,0c0.1,0,0.3,0,0.5,0.1l-0.1-0.2l0.3,0c0.2,0,0.5,0.1,0.7,0.3l0.6,0.6l-0.2,0l-0.5-0.6
	c-0.1-0.1-0.3-0.2-0.4-0.2l-0.2,0c0.1,0,0.1,0.1,0.2,0.1l0.6,0.6l-0.2,0l-0.5-0.6C52.8,30,52.6,30,52.5,30l-0.2,0l0.7,0.8l-0.2,0
	L51.9,29.8z"/>
<path class="st8" d="M57.4,29.2l0.2,0l0,0l0.4,0c0.2,0,0.5,0.1,0.7,0.3l0.6,0.6l-0.2,0l-0.5-0.6c-0.1-0.1-0.3-0.2-0.4-0.2l-0.3,0
	l0.7,0.8l-0.2,0L57.4,29.2z"/>
<path class="st8" d="M54,29.6l0.2,0c0.3,0,0.7,0.1,0.9,0.4l0.8,0.8l-0.3,0l-0.4-0.5l-0.3-0.4c-0.1-0.1-0.3-0.2-0.4-0.2l-0.2,0
	c-0.1,0-0.1,0.1-0.1,0.2l0.1,0.1l0.5-0.1l0.2,0.2l-0.5,0.1l-0.2,0l0,0l-0.3-0.4C53.7,29.8,53.8,29.6,54,29.6"/>
<path class="st8" d="M55.4,30.1l-0.2-0.2c-0.2-0.2-0.2-0.4,0.1-0.5l0.8-0.1l0.2,0.2l-0.8,0.1c-0.1,0-0.1,0.1,0,0.2l0.2,0.2
	c0.1,0.1,0.3,0.2,0.4,0.2l0.5-0.1l-0.4-0.5l0.3,0l0.4,0.5l0.1,0.1l0.1,0.1l-0.8,0.1C56,30.5,55.6,30.3,55.4,30.1"/>
<path class="st8" d="M57.6,29.7l-0.6,0.1c-0.2,0,0,0.3,0.2,0.3l0.6-0.1l0.2,0.2l-0.7,0.1c-0.3,0-0.8-0.3-0.7-0.5c0,0,0-0.1-0.1-0.1
	c-0.3-0.1-0.5-0.4-0.2-0.4l0.7-0.1l0.2,0.2l-0.6,0.1c-0.1,0,0,0.2,0.2,0.2l0.6-0.1L57.6,29.7z"/>
<path class="st7" d="M45.5,36.1c1,0,1.8,0.8,1.8,1.8c0,1-0.8,1.7-1.8,1.7c-1,0-1.8-0.8-1.8-1.8S44.5,36.1,45.5,36.1"/>
<path class="st9" d="M46.6,37.2v1.4l-0.4,0v-0.9c-0.1,0-0.1,0.1-0.2,0.1c-0.1,0-0.1,0.1-0.2,0.1v-0.3c0.1,0,0.2-0.1,0.3-0.1
	c0.1-0.1,0.1-0.1,0.2-0.2L46.6,37.2z M44.9,37.9c0,0.2,0,0.3,0,0.4c0,0.1,0.1,0.1,0.1,0.1c0,0,0.1,0,0.1,0c0,0,0-0.1,0.1-0.1
	c0-0.1,0-0.1,0-0.3c0-0.2,0-0.3,0-0.4c0-0.1-0.1-0.1-0.1-0.1c-0.1,0-0.1,0-0.1,0.1C44.9,37.6,44.9,37.7,44.9,37.9z M44.5,37.8
	c0-0.3,0-0.4,0.1-0.5c0.1-0.1,0.2-0.1,0.4-0.1c0.1,0,0.2,0,0.2,0c0.1,0,0.1,0.1,0.1,0.1c0,0,0.1,0.1,0.1,0.1c0,0,0,0.1,0.1,0.1
	c0,0.1,0,0.2,0,0.3c0,0.2,0,0.4-0.1,0.5c-0.1,0.1-0.2,0.2-0.4,0.2c-0.1,0-0.2,0-0.3-0.1c-0.1,0-0.1-0.1-0.2-0.2c0,0-0.1-0.1-0.1-0.2
	S44.5,38,44.5,37.8z"/>
<path class="st10" d="M34.7,30.3c1,0.4,1.8,1.1,1.7,1.7c0,0.5-0.8,0.7-1.7,0.4c0.1,0,0.1,0,0.2,0.1c1,0.4,1.8,0.2,1.9-0.4
	c0-0.6-0.7-1.4-1.7-1.8c-0.5-0.2-0.9-0.2-1.3-0.2C34,30.1,34.3,30.2,34.7,30.3"/>
<path class="st10" d="M30.8,27.5c0.4,0.2,0.8,0.3,1.2,0.5l0,0.2l-0.3-0.1l-0.1,1.5L31,29.3l0.1-1.5l-0.3-0.1L30.8,27.5z"/>
<path class="st10" d="M32.2,28l0.7,0.3l-0.1,1.5l0.2,0.1l0.1-1.5l0.6,0.2l-0.1,1.2c0,0.3-0.2,0.4-0.4,0.3l-0.7-0.3
	c-0.2-0.1-0.4-0.4-0.3-0.6L32.2,28z"/>
<polygon class="st8" points="31,29.6 31.1,29.6 31.1,30.6 30.9,30.5 "/>
<path class="st8" d="M31.2,29.7l0.2,0.1l0,0l0.2,0.1c0.1,0,0.2,0.1,0.2,0.3l0-0.2L32,30c0.2,0.1,0.3,0.3,0.3,0.4l0,0.6L32,31l0-0.6
	c0-0.1-0.1-0.2-0.1-0.2l-0.2-0.1c0,0,0,0.1,0,0.1l0,0.6l-0.2-0.1l0-0.6c0-0.1-0.1-0.2-0.1-0.2l-0.1,0l-0.1,0.8l-0.2-0.1L31.2,29.7z"
	/>
<path class="st8" d="M35,31.1l0.2,0.1l0,0l0.3,0.1c0.2,0.1,0.3,0.3,0.3,0.4l0,0.6l-0.2-0.1l0-0.6c0-0.1-0.1-0.2-0.1-0.2l-0.2-0.1
	l-0.1,0.8L35,32.1L35,31.1z"/>
<path class="st8" d="M32.7,30.2l0.1,0.1c0.2,0.1,0.3,0.3,0.3,0.5l-0.1,0.8l-0.2-0.1l0-0.5l0-0.4c0-0.1-0.1-0.2-0.1-0.3l-0.1-0.1
	c-0.1,0-0.2,0-0.2,0.1l0,0.1l0.4,0.1l0,0.2L32.5,31l-0.2-0.1l0,0l0-0.4C32.3,30.3,32.5,30.2,32.7,30.2"/>
<path class="st8" d="M33.2,31l0-0.2c0-0.2,0.2-0.4,0.4-0.3l0.6,0.2l0,0.2l-0.6-0.2c-0.1,0-0.2,0-0.2,0.1l0,0.2
	c0,0.1,0.1,0.2,0.1,0.3l0.4,0.1l0-0.5l0.2,0.1l0,0.5l0,0.1l0,0.1l-0.6-0.2C33.3,31.5,33.2,31.3,33.2,31"/>
<path class="st8" d="M34.9,31.6l-0.4-0.2c-0.1-0.1-0.2,0.2,0,0.3l0.4,0.2l0,0.2l-0.5-0.2c-0.2-0.1-0.3-0.5-0.1-0.6c0,0,0,0,0-0.1
	c-0.1-0.2-0.1-0.4,0.1-0.4l0.5,0.2l0,0.2l-0.4-0.2c-0.1,0-0.1,0.1,0,0.2l0.4,0.2L34.9,31.6z"/>
<path class="st9" d="M40.4,18.2c0.2,0,0.4,0,0.6,0v0.1l-0.1,0v0.5l-0.3,0v-0.5L40.4,18.2L40.4,18.2z"/>
<path class="st9" d="M41.1,18.2l0.3,0v0.5l0.1,0v-0.5l0.3,0v0.5c0,0.1-0.1,0.2-0.2,0.2l-0.4,0c-0.1,0-0.2-0.1-0.2-0.2V18.2z"/>
<polygon class="st9" points="42,18.3 42.1,18.3 42.1,18.9 42,18.9 "/>
<path class="st9" d="M42.2,18.3l0.1,0l0,0l0.1,0c0.1,0,0.2,0,0.2,0.1v-0.1l0.2,0c0.1,0,0.2,0.1,0.2,0.2v0.4l-0.1,0v-0.4
	c0-0.1-0.1-0.1-0.1-0.1l-0.1,0c0,0,0,0.1,0,0.1v0.4l-0.1,0v-0.4c0-0.1-0.1-0.1-0.1-0.1l-0.1,0v0.5l-0.1,0V18.3z"/>
<path class="st9" d="M45.3,18.3l0.1,0l0,0l0.2,0c0.1,0,0.2,0.1,0.2,0.2v0.4l-0.1,0v-0.4c0-0.1-0.1-0.1-0.1-0.1l-0.2,0v0.5l-0.1,0
	V18.3z"/>
<path class="st9" d="M43.4,18.3l0.1,0c0.2,0,0.3,0.1,0.3,0.3v0.5l-0.1,0v-0.3v-0.2c0-0.1-0.1-0.1-0.1-0.1l-0.1,0
	c-0.1,0-0.1,0.1-0.1,0.1v0.1l0.3,0v0.1l-0.3,0l-0.1,0l0,0v-0.2C43.1,18.4,43.2,18.3,43.4,18.3"/>
<path class="st9" d="M43.8,18.7v-0.1c0-0.1,0.1-0.3,0.3-0.3l0.4,0v0.1l-0.4,0c-0.1,0-0.1,0.1-0.1,0.1v0.1c0,0.1,0.1,0.1,0.1,0.1
	l0.3,0v-0.3l0.1,0v0.3v0.1v0.1l-0.4,0C43.9,18.9,43.8,18.8,43.8,18.7"/>
<path class="st9" d="M45.2,18.7l-0.3,0c-0.1,0-0.1,0.2,0,0.2l0.3,0V19l-0.4,0c-0.2,0-0.3-0.2-0.1-0.3c0,0,0,0,0-0.1
	c-0.1-0.1-0.1-0.3,0.1-0.3l0.4,0v0.1l-0.4,0c-0.1,0-0.1,0.1,0,0.1l0.4,0V18.7z"/>
</svg>
