<?xml version="1.0" encoding="utf-8"?>
<!-- Generator: Adobe Illustrator 16.0.0, SVG Export Plug-In . SVG Version: 6.00 Build 0)  -->
<!DOCTYPE svg PUBLIC "-//W3C//DTD SVG 1.1//EN" "http://www.w3.org/Graphics/SVG/1.1/DTD/svg11.dtd">
<svg version="1.1" id="Capa_1" xmlns="http://www.w3.org/2000/svg" xmlns:xlink="http://www.w3.org/1999/xlink" x="0px" y="0px"
	 width="284.1px" height="332.8px" viewBox="0 0 284.1 332.8" style="enable-background:new 0 0 284.1 332.8;" xml:space="preserve"
	>
<style type="text/css">
<![CDATA[
	.st0{fill-rule:evenodd;clip-rule:evenodd;
	fill: url(#gradicon);
		stroke:#FFF;
		stroke-width:0.5;
	}
]]>
</style>
<linearGradient id="gradicon" x1="0%" y1="0%" x2="100%" y2="0%" gradientTransform="rotate(45)">
	<stop offset="10%" style="stop-color:rgb(255,170,120);stop-opacity:1" />
	<stop offset="25%" style="stop-color:rgb(255,170,120);stop-opacity:1" />
	<stop offset="50%" style="stop-color:rgb(255,102,0);stop-opacity:1" />
	<stop offset="65%" style="stop-color:rgb(255,170,120);stop-opacity:1" />
	<stop offset="100%" style="stop-color:rgb(255,102,0);stop-opacity:1" />
</linearGradient>
<path class="st0" d="M132.2,224.6l-8.2,53.2c-1.4,8.9,4.7,17.3,13.6,18.6c8.9,1.4,17.3-4.7,18.6-13.6l9-58.1L132.2,224.6
	L132.2,224.6z"/>
<path class="st0" d="M90.6,277.8l-8.2-53.2H49.3l9,58.1c1.4,8.9,9.7,15,18.6,13.6C85.8,295,92,286.7,90.6,277.8"/>
<path class="st0" d="M108.2,2C92.6,2,80,14.7,80,30.2c0,15.6,12.6,28.2,28.2,28.2c15.6,0,28.2-12.6,28.2-28.2
	C136.4,14.6,123.7,2,108.2,2"/>
<path class="st0" d="M194.5,124.3c-6.1,0-11.1-5-11.1-11.1c0-6.1,5-11.1,11.1-11.1c6.1,0,11.1,5,11.1,11.1S200.7,124.3,194.5,124.3
	 M282.1,187.1c0-3.3-2.7-6-6-6h-42.9c0.8-1.2,1.2-2.7,1.2-4.3c0-4.5-3.6-8.1-8.1-8.1h-18.8c0-7,0-12.3,0-19.3h36.7
	c3.7,0,6.7-3,6.7-6.7v-59c0-3.7-3-6.7-6.7-6.7h-99.8c-3.7,0-6.7,3-6.7,6.7v59c0,3.7,3,6.7,6.7,6.7h36.7c0,7,0,12.4,0,19.3h-18.8
	c-4.5,0-8.1,3.6-8.1,8.1c0,1.6,0.5,3.1,1.2,4.3H6c-3.3,0-6,2.7-6,6v21.5c0,3.3,2.7,6,6,6h9.3c0,4.2,0,101.3,0,106.1
	c0,6.7,5.4,12.1,12.1,12.1c6.7,0,12.1-5.4,12.1-12.1c0-4.8,0-101.9,0-106.1h203c0,4.2,0,101.3,0,106.1c0,6.7,5.4,12.1,12.1,12.1
	c6.7,0,12.1-5.4,12.1-12.1c0-4.8,0-101.9,0-106.1h9.4c3.3,0,6-2.7,6-6V187.1z"/>
<path class="st0" d="M128.2,142.7c0-5.9,0-51.6,0-59c0-8.3,6.1-15.1,14.1-16.2c-7.6,0-60.8,0-69.4,0c-11.8,0-22.8,6.9-28,17.5
	c-7.5,15.5-16.1,34.9-19.7,44c-2.7,6.8,0.4,14.6,7.1,17.5l47.6,21c6.9,3,14.9-0.1,17.9-7c3-6.9-0.1-14.9-7-17.9L55.7,127
	c4-9.2,9.1-20.5,13.8-30.1c0.2-0.5,0-0.7,0.5-0.6c0.5,0.1,0.9,0.5,0.9,1.1l1.4,25.7L95.2,133c12.1,5.3,17.6,19.5,12.3,31.6
	c-1.1,2.4-2.5,4.6-4.2,6.4h41.1v-12C135.4,158.9,128.2,151.6,128.2,142.7"/>
</svg>
