<?xml version="1.0" encoding="utf-8"?>
<!-- Generator: Adobe Illustrator 16.0.0, SVG Export Plug-In . SVG Version: 6.00 Build 0)  -->
<!DOCTYPE svg PUBLIC "-//W3C//DTD SVG 1.1//EN" "http://www.w3.org/Graphics/SVG/1.1/DTD/svg11.dtd">
<svg version="1.1" id="Capa_1" xmlns="http://www.w3.org/2000/svg" xmlns:xlink="http://www.w3.org/1999/xlink" x="0px" y="0px"
	 width="284.1px" height="343.2px" viewBox="0 0 284.1 343.2" style="enable-background:new 0 0 284.1 343.2;" xml:space="preserve"
	>
<style type="text/css">
<![CDATA[
	.st0{
		fill: url(#gradicon);
		stroke:#000;
		stroke-width:3;
	}
]]>
</style>
<linearGradient id="gradicon" x1="0%" y1="0%" x2="100%" y2="0%" gradientTransform="rotate(45)">
	<stop offset="10%" style="stop-color:rgb(0,0,0);stop-opacity:1" />
	<stop offset="25%" style="stop-color:rgb(150,150,150);stop-opacity:1" />
	<stop offset="50%" style="stop-color:rgb(0,0,0);stop-opacity:1" />
	<stop offset="65%" style="stop-color:rgb(150,150,150);stop-opacity:1" />
	<stop offset="100%" style="stop-color:rgb(150,150,150);stop-opacity:1" />
</linearGradient>
<path class="st0" d="M74.2,2.4c-15.6,0-28.3,12.7-28.3,28.3c0,13.2,9,24.3,21.2,27.4l6.8-42.3c0.8-4.8,2.7-9.2,5.7-12.9
	C77.8,2.6,76,2.4,74.2,2.4"/>
<path class="st0" d="M232.3,47.5l-49.7-12.1l0.8-2.6c1.2-4-1.1-8.2-5-9.4c-4-1.2-8.2,1.1-9.4,5.1l-1,3.3l-12.9-3.1
	c-4-1-8.1,1.5-9.1,5.5c-1,4,1.5,8.1,5.5,9.1l12.1,2.9c-11.3,37.6-0.9,3.1-10.7,35.7c-0.7,0.3-1.4,0.6-2.1,1l-48.3,27.5l-34.3-19
	l11.4,3c-3.4-1.9-6.4-4.6-8.8-7.9c-3.8-5.2-5.6-11.4-5.3-17.7l-22-1.8c-11.4-0.9-21.4,7.6-22.4,19l-6.9,96.6
	c-0.5,6.3-0.2,12.6,0.8,18.9l6.7,43.5L0.6,322.3c-2.4,8.8,2.8,17.9,11.6,20.3c8.8,2.4,17.9-2.8,20.3-11.6l22.1-80.6
	c0.6-2.2,0.7-4.6,0.4-6.9L47.5,195l7.3,0.6l19.1,52.1l5.2,80c0.6,8.7,7.8,15.4,16.5,15.4c9.6,0,17.1-8.1,16.5-17.6l-5.4-82.4
	c-0.1-1.6-0.4-3.1-1-4.6l-15-40.8l3.8-46.1l-39.7-36.1l41,22.8c4.2,2.3,9.3,2.3,13.5-0.1l32.5-18.5c-0.1,3.3,2,6.4,5.4,7.5
	c0.7,0.2,1.5,0.3,2.2,0.3c3.2,0,6.2-2.1,7.2-5.4l3.9-13l3.9-2.2c6.6-3.8,8.9-12.2,5.2-18.8c-0.6-1-1.2-1.8-1.9-2.6
	c2.2-7.4,6-20.1,10.7-35.6l50.4,12.3c4,1,8.1-1.5,9.1-5.5C238.8,52.6,236.3,48.5,232.3,47.5"/>
<path class="st0" d="M232.7,5.6c-0.9-2.7-3.9-4.2-6.6-3.3c-2.7,0.9-4.2,3.9-3.3,6.6l10.6,32.1C232.9,4.2,233,6.7,232.7,5.6"/>
<path class="st0" d="M252.7,9.6c-3.4-0.2-6.3,2.3-6.5,5.7l-2.3,33.1l13.9-30.1C259.7,14.3,257,9.9,252.7,9.6"/>
<path class="st0" d="M280.8,33.5c-2.1-2.7-6-3.1-8.6-1l-26,20.6l31.7-10C282,41.8,283.4,36.8,280.8,33.5"/>
<path class="st0" d="M275.7,66.3l-33-4.1l29.3,15.6c3.8,2,8.4-0.4,9-4.7C281.5,69.8,279.1,66.7,275.7,66.3"/>
<path class="st0" d="M254.9,104.5L237,67.9l6.4,40.2c0.7,4.1,5.1,6.3,8.7,4.5C255.1,111.2,256.3,107.5,254.9,104.5"/>
<path class="st0" d="M118,6.1l-14-2.2c-9-1.4-17.6,4.7-19,13.8l-8,50c-1.4,9,4.7,17.5,13.8,19c0.4,0.1,14,2.3,14.4,2.3
	c1.5,0,2.7-1.1,3-2.5l6.1-38.4l-16.7-2.7l3.3-20.4l16.7,2.7l2.9-18C120.7,7.9,119.6,6.4,118,6.1"/>
</svg>
