<?xml version="1.0" encoding="utf-8"?>
<!-- Generator: Adobe Illustrator 16.0.0, SVG Export Plug-In . SVG Version: 6.00 Build 0)  -->
<!DOCTYPE svg PUBLIC "-//W3C//DTD SVG 1.1//EN" "http://www.w3.org/Graphics/SVG/1.1/DTD/svg11.dtd">
<svg version="1.1" id="Capa_1" xmlns="http://www.w3.org/2000/svg" xmlns:xlink="http://www.w3.org/1999/xlink" x="0px" y="0px"
	 width="1442px" height="731.4px" viewBox="0 0 1442 731.4" style="enable-background:new 0 0 1442 731.4;" xml:space="preserve">
<style type="text/css">
<![CDATA[
.st4{fill-rule:evenodd;clip-rule:evenodd;fill:#666666;opacity:0;}

	@keyframes ploColor{
		0%{opacity:0;}
		100%{opacity:1;
	}}
	.ploUbicPunt{fill-rule:evenodd;clip-rule:evenodd;fill:#000000;opacity:0;
		animation: ploColor 0.5s forwards;
	}
	.ploUbicLineas{fill:none;stroke:#000000;stroke-width:3;opacity:0;
		stroke-dasharray:450px;
		stroke-dashoffset:0;
		animation: ploUbicLineas 1s forwards;
	}
	@keyframes ploUbicLineas{
		0%{stroke-dashoffset:450px;opacity:1;}
		100%{stroke-dashoffset:0px;opacity:1;
	}}	
	.ploUbicFlec{fill:#000000;opacity:0;
		animation: ploColor 1s forwards 1s;
	}
	.ploUbicTxt{fill:#000000;opacity:0;
		animation: ploColor 1s forwards 2s;
	}
	.ploEtiquetaBla{fill-rule:evenodd;clip-rule:evenodd;fill:#FFFFFF;opacity:0;
		animation: ploColor 1s forwards 3s;
	}
	.ploEtiquetaSombra{fill-rule:evenodd;clip-rule:evenodd;fill:#000000;opacity:0;
		animation: ploColor 1s forwards 3.5s;
	}
	.ploEtiquetaLinea{fill:none;stroke:#999999;stroke-width:3;opacity:0;
		stroke-dasharray:350px;
		stroke-dashoffset:0;
		animation: ploEtiquetaLinea 1s forwards 4s;
	}
	@keyframes ploEtiquetaLinea{
		0%{stroke-dashoffset:450px;opacity:1;}
		100%{stroke-dashoffset:0px;opacity:1;
	}}	
	.ploEtiquetaTitulo{fill:#000000;opacity:0;
		animation: ploColor 1s forwards 4s;
	}
	.ploEtiquetaTxt{fill:#000000;opacity:0;
		animation: ploColor 1s forwards 4.5s;
	}

	.ploLogoSombra{fill-rule:evenodd;clip-rule:evenodd;fill:#FFFFFF;opacity:0;
		animation: ploColor 1s forwards 6s;
	}
	.ploLogoImagen{fill-rule:evenodd;clip-rule:evenodd;fill:#000000;opacity:0;
		animation: ploColor 1s forwards 7s;
	}	
	.ploLogoTu{fill-rule:evenodd;clip-rule:evenodd;fill:#FF6600;opacity:0;
		animation: ploColor 1s forwards 7s;
	}
	
	
]]>
</style>
<rect y="2" class="st4" width="1440" height="729.4"/>
<g>
	<path class="ploUbicTxt" d="M795.7,227.5c0,0.4-0.3,0.6-0.8,0.6c-0.4,0-0.9-0.2-1.5-0.6c-0.3-0.6-0.4-2.1-0.4-4.4c0-2.3,0-4.2,0.1-5.7
		c0-1.5,0.1-2.9,0.1-4.1c0.1-2.7,0.2-4.2,0.2-4.4c0.7-0.4,1.2-0.6,1.6-0.6s0.6,0.2,0.6,0.6V227.5z"/>
	<path class="ploUbicTxt" d="M801.1,227.5c-0.9,0.4-1.5,0.6-1.8,0.6s-0.5,0-0.6-0.1c-0.1-0.1-0.2-0.2-0.4-0.5c0-0.7,0-1.7,0.1-2.8
		c0.1-1.1,0.1-2.3,0.2-3.6c0-1.3,0.1-2.6,0.1-3.9c0-1.3-0.1-2.5-0.2-3.6c0-0.7,0.5-1.1,1.5-1.1c0.2,0,0.4,0.4,0.5,1.2
		c0.1,0.8,0.2,1.4,0.3,1.9c0.1,0.5,0.1,0.8,0.2,1c0.6-1.1,1.7-1.9,3.5-2.5c0.9-0.3,1.8-0.4,2.6-0.4s1.5,0.1,2.1,0.3
		c0.6,0.2,1.1,0.5,1.6,1s0.7,1.2,0.7,2c0.6-1.1,1.9-2.1,4-3c1.9-0.8,3.5-1.2,5-1.2c2.1,0,3.2,0.8,3.1,2.4l0.7,12.6
		c0,0.1-0.3,0.2-1,0.2c-1.3,0.1-1.9,0-1.9-0.3c0-0.5,0-0.9,0-1.4l0.2-5.4c0-2.5-0.2-4.6-0.7-6c-1.5,0.1-2.6,0.4-3.4,0.7
		c-0.8,0.4-1.5,0.8-2.1,1.4c-0.6,0.6-1.1,1.3-1.6,2.2c-1.1,2.1-1.6,4.8-1.6,8.2c-0.1,0.5-0.6,0.7-1.3,0.7c-0.5,0-0.9-0.1-1.2-0.3
		c-0.3-0.2-0.4-0.3-0.4-0.5c0.4-2.4,0.6-4.2,0.6-5.6c0-1.1-0.1-2.1-0.3-3c-0.2-1-0.5-2.1-0.8-3.3c-3.2,0-5.4,1.3-6.5,3.9
		c-0.5,1.1-0.8,2.2-0.8,3.2c-0.1,1-0.1,1.9-0.1,2.6S801,226.7,801.1,227.5z"/>
	<path class="ploUbicTxt" d="M828.5,214.5c3.1-1.1,5.7-1.6,7.9-1.6c2.8,0,4.7,0.7,5.7,2.2c0.4,0.7,0.6,1.5,0.6,2.3c0,1.1-0.4,2.3-1.1,3.5
		c-0.7,1.2-1.6,2.3-2.8,3.2c-2.7,2.2-6,3.6-9.9,4.2c0,0.2,0,0.6,0,1.2c0,0.6,0,1.2,0,1.8c0,0.7,0,1.4,0,2.2c0,0.8,0,1.5,0.1,2.2
		c0.1,1.7,0.1,2.7,0.2,3c0,0.2,0,0.4,0,0.6c0,0.6-0.2,1-0.5,1.3c-0.4,0.3-0.8,0.4-1.4,0.4c-0.1,0-0.2,0-0.3,0l-0.5-27.1
		c0.2-0.3,0.5-0.4,0.8-0.4c0.3,0,0.6,0.1,0.8,0.3C828.2,213.8,828.4,214.1,828.5,214.5z M838.3,215.7c-0.7-0.4-1.5-0.6-2.4-0.6
		c-0.8,0-1.7,0.1-2.5,0.2c-1.9,0.4-3.3,1.2-4.2,2.4c-0.4,0.6-0.6,1.3-0.6,2.2c0,0.1,0,0.2,0,0.3v5.8c4.6-1,7.9-2.5,9.9-4.3
		c1.1-1.1,1.7-2.1,1.7-3.3C840.2,217.2,839.5,216.3,838.3,215.7z"/>
	<path class="ploUbicTxt" d="M861,215.7c-0.9-0.7-2.2-1-3.6-1c-1.4,0-2.7,0.3-3.9,0.8c-2.3,0.9-3.8,2.2-4.6,3.6c-0.4,0.7-0.5,1.4-0.5,2.2
		c0,0.1,0,0.5,0,1.1c0,0.6,0.1,1.5,0.3,2.5c0.2,1,0.3,2.1,0.3,3.2c-0.5,0-0.9,0.1-1.1,0.2c-0.3,0.1-0.5,0.1-0.7,0.1
		c-0.2,0-0.4-0.1-0.5-0.3c-0.1-0.2-0.3-0.5-0.5-1c0-0.1-0.1-0.5-0.1-1.1c-0.1-0.6-0.2-1.4-0.3-2.3s-0.2-1.9-0.3-3s-0.2-2.1-0.4-3.2
		c-0.2-2.3-0.4-3.9-0.6-5c0-0.5,0.4-0.8,1.2-0.8c0.5,0,0.8,0.2,1.1,0.6c0.3,0.4,0.5,0.8,0.6,1.4s0.3,1,0.3,1.5
		c0.1,0.5,0.1,0.8,0.2,1c3-2.7,6.7-4,11.1-4c0.5,0,1,0,1.6,0c0.1,0,0.3,0,0.5,0c0.2,0,0.4,0.1,0.6,0.4c0.2,0.3,0.4,0.7,0.4,1.1
		C862,214.9,861.7,215.6,861,215.7z"/>
	<path class="ploUbicTxt" d="M870.4,225.6c2,0,5-0.9,8.9-2.7c0.2,0,0.5,0.1,0.6,0.3c0.2,0.2,0.2,0.4,0.2,0.6c-0.9,1.5-2.6,2.7-5.2,3.6
		c-2.5,0.9-4.9,1-7.1,0.4c-2.5-0.7-4-2.1-4.6-4.2c0-0.4-0.1-1-0.1-1.7c0-0.7,0.2-1.7,0.6-2.9s1-2.3,1.9-3.4c0.9-1.1,2-1.9,3.2-2.5
		c1.2-0.6,2.5-0.9,3.9-0.9c1.3,0,2.8,0.5,4.4,1.4c0.8,0.4,1.4,0.9,1.8,1.5c0.4,0.5,0.7,1.1,0.7,1.7c0,0.2,0,0.3,0,0.5
		c0,1.4-0.7,2.2-2,2.6c-0.6,0.2-1.2,0.2-2,0.2l-4.9-0.2c-1.6,0-2.9,0.3-3.7,1c-0.5,0.4-0.8,1-1,1.7
		C866.7,224.6,868.1,225.6,870.4,225.6z M876.4,215.2c-0.5-0.4-1-0.6-1.6-0.8c-0.5-0.2-1-0.2-1.4-0.2s-0.9,0.1-1.8,0.4
		c-0.8,0.2-1.5,0.5-2.2,0.8c-1.6,0.7-2.3,1.5-2.3,2.3c1.8,0.2,3.2,0.2,4.1,0.2c2.5,0,4.2-0.2,5.1-0.6c0.5-0.2,0.8-0.5,0.8-0.8
		C877.2,216,877,215.6,876.4,215.2z"/>
	<path class="ploUbicTxt" d="M893.8,219.3c2.5,0,3.7,0.6,3.7,1.9c0,0.9-0.7,2-2.1,3.3c-2,1.9-4.8,3.4-8.3,4.5c-0.2,0-0.3-0.2-0.5-0.5
		c-0.2-0.3-0.3-0.6-0.4-0.7c-0.1-0.2-0.2-0.3-0.2-0.3c2.6-0.9,4.7-1.9,6.4-3.1c1.1-0.8,1.7-1.5,1.7-2c0-0.5-0.7-0.8-2-0.8
		c-1.3,0-3.3,0.3-5.8,0.9c-1.2,0-2.2-0.5-3-1.2c-0.7-0.7-1.1-1.4-1.1-2.1s0.2-1.4,0.6-2c0.4-0.6,0.9-1.2,1.6-1.7
		c0.7-0.5,1.5-1,2.4-1.4c2.2-1.1,4.5-1.6,6.9-1.6c0.7,0,1.4,0.1,2,0.2c0.5,0,0.9,0.2,0.9,0.7s0.1,1.2,0.1,2.3
		c-1.3-0.6-2.8-0.9-4.5-0.9c-2.1,0-3.8,0.4-5.1,1.2c-1.4,0.8-2.1,1.9-2.2,3.2c0,0.6,0.5,0.9,1.4,0.9l2.5-0.3
		C890.8,219.5,892.5,219.3,893.8,219.3z"/>
	<path class="ploUbicTxt" d="M899.5,207.5c0-0.8,0.5-1.2,1.4-1.2c0.6,0,1.1,0.1,1.5,0.4c0.1,0.2,0.1,0.5,0.1,0.7s-0.1,0.5-0.3,0.7
		c-0.2,0.2-0.5,0.3-0.8,0.3c-0.4,0-0.7-0.1-1.1-0.3C899.9,208.1,899.7,207.9,899.5,207.5z M902.6,212.1c0.3,4.2,0.5,9.1,0.7,14.6
		c-0.1,0.7-0.7,1-1.6,1c-0.2,0-0.5-0.1-0.8-0.2s-0.4-0.2-0.5-0.4v-15.1H902.6z"/>
	<path class="ploUbicTxt" d="M905.7,221.6c0-2.7,1.1-4.8,3.4-6.4c1.8-1.3,4-2.1,6.6-2.3c0.1,0,0.5,0,0.9,0s1.2,0.1,2,0.4
		c1.8,0.6,3.1,1.7,3.8,3.3c0.3,0.6,0.4,1.2,0.4,1.6c0,0.4,0,0.7,0,0.9c0,2.8-1.1,5-3.2,6.7c-2,1.5-4.5,2.2-7.4,2.2
		c-2.1,0-3.8-0.5-4.8-1.5C906.2,225.6,905.7,223.9,905.7,221.6z M908,222.4c0,1.4,0.4,2.3,1.1,2.8c0.6,0.4,1.5,0.5,2.8,0.5
		s2.5-0.1,3.5-0.3s1.9-0.6,2.7-1c1.7-1.1,2.5-2.8,2.5-5c0-1.4-0.4-2.5-1.1-3.3c-0.8-0.9-1.8-1.4-3.1-1.4c-0.9,0.2-1.8,0.3-2.7,0.5
		c-0.9,0.2-1.7,0.5-2.5,1C909.6,217.4,908.5,219.4,908,222.4z M913.9,207.6c0.3-0.4,0.7-0.6,1-0.6c0.2,0,0.4,0.1,0.5,0.3
		c0.1,0.2,0.2,0.4,0.1,0.6c0,0.2-0.1,0.4-0.2,0.6c-0.1,0.2-0.2,0.4-0.4,0.6c-0.4,0.4-1.2,1.1-2.3,2.1l-1-0.9L913.9,207.6z"/>
	<path class="ploUbicTxt" d="M937.4,220.6c0-2.7-0.1-4.6-0.4-5.9c0.2-0.3-0.1-0.5-0.8-0.5c-0.8,0-1.8,0.2-3,0.6c-1.2,0.4-2.2,0.8-3,1.1
		c-1.8,0.9-2.8,1.7-3,2.6v9.2h-2.3c-0.3-0.8-0.4-2.9-0.4-6.4c0-3.2,0.1-5.5,0.2-7c0.1-1.5,0.2-2.3,0.3-2.5c0.6-0.4,1.1-0.6,1.4-0.6
		c0.6,0,0.8,0.7,0.8,2c0,0.5,0,1-0.1,1.5c-0.1,0.5-0.1,0.8-0.1,1c3.6-2.7,6.5-4,8.5-4c2.3,0,3.6,1.8,3.9,5.5
		c0.1,1.3,0.2,3.1,0.2,5.3l0,2.7c0,1,0,1.9,0.1,2.9c-0.2,0.1-0.4,0.2-0.5,0.2c-0.1,0-0.2-0.1-0.4-0.1s-0.5-0.1-0.9-0.1
		c-0.2-0.9-0.3-1.8-0.4-2.8c0-0.9,0-1.8,0-2.6L937.4,220.6z"/>
	<path class="ploUbicTxt" d="M971,211.4l-3-0.1c-0.8,0-1.7,0.1-2.7,0.2c0,0.9-0.1,2-0.3,3.4c-0.5,5-0.7,8.2-0.7,9.6c0,1.5,0,2.5,0.1,3.1
		l-3.2,0.2l1-16.7l-7.2-0.4c-0.2,0-0.3-0.1-0.4-0.4c-0.1-0.3-0.2-0.6-0.2-0.8c0-0.2,0.1-0.5,0.3-0.8c0.2-0.3,0.4-0.4,0.7-0.4
		c1.6,0.1,3.3,0.2,5,0.3c3.1,0.3,5.7,0.4,7.9,0.4l2.1-0.1c1.6,0,3.3-0.2,4.9-0.5c0.4,0.1,0.6,0.6,0.7,1.7c0,0.2,0,0.4,0,0.5
		C974.5,211.2,972.9,211.4,971,211.4z"/>
	<path class="ploUbicTxt" d="M993.5,215.7c-0.9-0.7-2.2-1-3.6-1c-1.4,0-2.7,0.3-3.9,0.8c-2.3,0.9-3.8,2.2-4.6,3.6c-0.4,0.7-0.5,1.4-0.5,2.2
		c0,0.1,0,0.5,0,1.1c0,0.6,0.1,1.5,0.3,2.5c0.2,1,0.3,2.1,0.3,3.2c-0.5,0-0.9,0.1-1.1,0.2c-0.3,0.1-0.5,0.1-0.7,0.1
		c-0.2,0-0.4-0.1-0.5-0.3c-0.1-0.2-0.3-0.5-0.5-1c0-0.1-0.1-0.5-0.1-1.1c-0.1-0.6-0.2-1.4-0.3-2.3s-0.2-1.9-0.3-3s-0.2-2.1-0.4-3.2
		c-0.2-2.3-0.4-3.9-0.6-5c0-0.5,0.4-0.8,1.2-0.8c0.5,0,0.8,0.2,1.1,0.6c0.3,0.4,0.5,0.8,0.6,1.4s0.3,1,0.3,1.5
		c0.1,0.5,0.1,0.8,0.2,1c3-2.7,6.7-4,11.1-4c0.5,0,1,0,1.6,0c0.1,0,0.3,0,0.5,0c0.2,0,0.4,0.1,0.6,0.4c0.2,0.3,0.4,0.7,0.4,1.1
		C994.5,214.9,994.1,215.6,993.5,215.7z"/>
	<path class="ploUbicTxt" d="M996.9,221.6c0-2.7,1.1-4.8,3.4-6.4c1.8-1.3,4-2.1,6.6-2.3c0.1,0,0.5,0,0.9,0s1.2,0.1,2,0.4
		c1.8,0.6,3.1,1.7,3.8,3.3c0.3,0.6,0.4,1.2,0.4,1.6c0,0.4,0,0.7,0,0.9c0,2.8-1.1,5-3.2,6.7c-2,1.5-4.5,2.2-7.4,2.2
		c-2.1,0-3.8-0.5-4.8-1.5C997.4,225.6,996.9,223.9,996.9,221.6z M999.2,222.4c0,1.4,0.4,2.3,1.1,2.8c0.6,0.4,1.5,0.5,2.8,0.5
		s2.5-0.1,3.5-0.3s1.9-0.6,2.7-1c1.7-1.1,2.5-2.8,2.5-5c0-1.4-0.4-2.5-1.1-3.3c-0.8-0.9-1.8-1.4-3.1-1.4c-0.9,0.2-1.8,0.3-2.7,0.5
		c-0.9,0.2-1.7,0.5-2.5,1C1000.8,217.4,999.7,219.4,999.2,222.4z"/>
	<path class="ploUbicTxt" d="M1030.9,240l-0.9,0h-0.8l-0.5-14.8c-0.9,0.8-2.2,1.5-4,2.1c-1.6,0.5-3.1,0.8-4.4,0.8c-1,0-1.9-0.1-2.6-0.4
		s-1.2-0.6-1.5-1c-0.3-0.3-0.5-0.7-0.5-1.1c0-0.4,0-0.7,0-0.9c0-1.3,0.3-2.6,0.9-3.8c0.6-1.2,1.5-2.4,2.7-3.3c1.2-1,2.5-1.7,3.9-2.3
		c1.4-0.5,2.8-0.8,4.1-0.8h0.5c0.7,0,1.2,0.2,1.8,0.7s1,1,1.4,1.6c0,3.9,0,7.8,0,11.6c0,3.8,0.2,7.7,0.4,11.6H1030.9z M1028,218.4
		c0-1.1-0.2-1.6-0.7-1.6c-2.3,0-4.3,0.7-6.1,2c-1.9,1.5-2.9,3.3-2.9,5.5c0,1.1,0.6,1.6,1.8,1.7c0.3,0,0.8,0,1.3,0s1.2-0.1,2-0.2
		c0.8-0.1,1.5-0.4,2.1-0.8c1.5-0.8,2.2-2.1,2.2-3.8L1028,218.4z"/>
	<path class="ploUbicTxt" d="M1033,223.5c0-0.4,0-0.9-0.1-1.5c-0.1-0.6-0.1-1.3-0.2-2.1c0-0.8-0.1-1.5-0.1-2.3c0-0.8,0.1-1.5,0.2-2.2
		c0.3-1.5,0.9-2.2,1.8-2.2c0.6,0.2,1.1,0.4,1.3,0.7s0.3,0.6,0.3,1c0,0.4-0.1,0.9-0.3,1.5c-0.7,2-1.1,3.7-1.1,5.3
		c0,0.5,0,1.1,0.1,1.7c0.4,1.5,1.6,2.3,3.7,2.3c1.1,0,2.1-0.2,3.1-0.6c1.9-0.7,3.2-1.5,3.8-2.5c0.2-1,0.3-1.9,0.3-2.7s0-1.5-0.1-2.1
		c-0.1-0.6-0.1-1.3-0.2-2c-0.1-0.7-0.1-1.5-0.2-2.4c0.3-0.1,0.6-0.2,0.9-0.2c0.3,0,0.6,0.1,0.9,0.4c0.3,0.3,0.6,0.8,0.8,1.7
		c0.2,0.8,0.4,1.8,0.4,2.9s0.1,2.2,0.1,3.4c0,1.2,0,2.3,0,3.4c0,1.1,0,2,0.1,2.8c-0.3,0.2-0.5,0.4-0.8,0.4c-0.9,0-1.6-0.9-2-2.7
		c-0.3,0.2-0.8,0.6-1.5,0.9c-1.5,0.8-3.2,1.4-5.3,1.6c-0.4,0-0.8,0.1-1.3,0.1c-0.5,0-1.1-0.1-1.8-0.3s-1.4-0.6-2-1.2
		C1033.6,225.8,1033.2,224.8,1033,223.5z"/>
	<path class="ploUbicTxt" d="M1057.7,225.6c2,0,5-0.9,8.9-2.7c0.2,0,0.5,0.1,0.6,0.3c0.2,0.2,0.2,0.4,0.2,0.6c-0.9,1.5-2.6,2.7-5.2,3.6
		c-2.5,0.9-4.9,1-7.1,0.4c-2.5-0.7-4-2.1-4.6-4.2c0-0.4-0.1-1-0.1-1.7c0-0.7,0.2-1.7,0.6-2.9s1-2.3,1.9-3.4c0.9-1.1,2-1.9,3.2-2.5
		c1.2-0.6,2.5-0.9,3.9-0.9c1.3,0,2.8,0.5,4.4,1.4c0.8,0.4,1.4,0.9,1.8,1.5c0.4,0.5,0.7,1.1,0.7,1.7c0,0.2,0,0.3,0,0.5
		c0,1.4-0.7,2.2-2,2.6c-0.6,0.2-1.2,0.2-2,0.2l-4.9-0.2c-1.6,0-2.9,0.3-3.7,1c-0.5,0.4-0.8,1-1,1.7
		C1053.9,224.6,1055.3,225.6,1057.7,225.6z M1063.7,215.2c-0.5-0.4-1-0.6-1.6-0.8c-0.5-0.2-1-0.2-1.4-0.2s-0.9,0.1-1.8,0.4
		c-0.8,0.2-1.5,0.5-2.2,0.8c-1.6,0.7-2.3,1.5-2.3,2.3c1.8,0.2,3.2,0.2,4.1,0.2c2.5,0,4.2-0.2,5.1-0.6c0.5-0.2,0.8-0.5,0.8-0.8
		C1064.4,216,1064.2,215.6,1063.7,215.2z"/>
	<path class="ploUbicTxt" d="M1070.1,214.9c0-1.2-0.1-2.3-0.1-3.3s-0.1-1.7-0.1-2.1c0-0.5-0.2-1.6-0.6-3.4c0.2-0.3,0.4-0.5,0.6-0.8
		c0.2-0.2,0.5-0.4,0.8-0.4c0.8,0,1.4,3.3,1.8,10c0.2,3.8,0.3,7.7,0.3,11.5c0,1-0.7,1.6-2.2,1.6l-0.3,0c0-1.2,0-2.7-0.1-4.5
		s-0.1-3.4-0.2-4.8C1070.2,217.4,1070.1,216.1,1070.1,214.9z"/>
	<path class="ploUbicTxt" d="M1088.2,222.4c-1.7,2.7-3.9,4.3-6.8,4.9c-0.7,0.1-1.2,0.2-1.8,0.2c-0.5,0-1,0-1.3,0c-0.3,0-0.7-0.1-1.2-0.2
		c-0.4-0.1-0.8-0.2-1.2-0.4c-0.8-0.5-1.2-1.1-1.2-2c-0.1-0.4-0.1-0.9-0.1-1.4s0.1-1.2,0.3-2c0.2-0.8,0.6-1.7,1.2-2.7
		c0.6-1,1.3-1.9,2.2-2.7c1.8-1.7,3.7-2.8,5.8-3.3c0.6-0.1,1.2-0.2,1.7-0.2c0.5,0,1,0,1.4,0.1c1.3,0,2.2,0.9,2.6,2.7
		c0.3,1.1,0.5,2.7,0.5,4.7c0.1,2,0.1,3.6,0.2,4.7c0.1,1.1,0.2,2.1,0.4,3h-2c-0.1-0.6-0.2-1.1-0.2-1.6s-0.1-0.9-0.1-1.3
		C1088.5,223.9,1088.3,223.1,1088.2,222.4z M1088,217.2c0-1.3-0.6-2-1.9-2c-0.2,0-0.3,0-0.5,0c-1.6,0-3.4,0.8-5.2,2.4
		c-0.9,0.7-1.6,1.5-2.2,2.4c-0.9,1.3-1.4,2.4-1.4,3.4c0,1.3,0.8,2.1,2.3,2.4c2,0,4-1,5.8-2.8c0.8-0.8,1.4-1.6,2-2.6
		C1087.7,219.2,1088,218.1,1088,217.2z"/>
	<path class="ploUbicTxt" d="M1108.3,207.2c-0.1,2.1-0.2,4.1-0.3,6c-0.1,2-0.2,4.1-0.2,6.3c0,2.2,0.2,4.6,0.5,7c0,0.5-0.1,0.9-0.3,1.1
		s-0.5,0.3-1,0.3c-1.1,0-1.6-0.9-1.6-2.6v-1.1c-3.2,2.4-5.9,3.6-8.1,3.6c-0.9,0-1.8-0.2-2.7-0.6c-0.9-0.4-1.8-1.3-2.6-2.6
		c-0.1-0.5-0.2-1.1-0.2-1.7c0-0.6,0.1-1.2,0.3-2c0.2-0.8,0.7-1.6,1.3-2.5c0.7-0.9,1.5-1.6,2.4-2.3c2.1-1.4,4.3-2.1,6.7-2.1
		c1,0,2,0.2,3,0.5c0-0.4,0-1.1,0.1-2.1c0.1-1,0.1-2.1,0.2-3.2c0.1-2.9,0.2-4.7,0.3-5.2c0-0.5,0.1-1,0.2-1.4c0.1-0.4,0.2-0.7,0.4-1
		c0.3-0.6,0.9-0.8,1.8-0.8C1108.5,203.1,1108.4,205.2,1108.3,207.2z M1094.4,222.7c0,1.8,0.6,2.7,1.9,2.7c0.2,0,0.4,0,0.7-0.1
		c0.9,0,2.1-0.3,3.4-0.8c2.6-1,4.1-1.9,4.7-2.6v-4.5c0-0.8-0.6-1.2-1.9-1.2c-0.2,0-0.4,0-0.6,0c-0.3,0-0.7,0.1-1.2,0.2
		c-0.5,0.1-1.1,0.3-1.8,0.6c-0.7,0.3-1.3,0.7-2,1.1c-1.4,0.9-2.3,2-2.8,3.2C1094.5,221.7,1094.4,222.2,1094.4,222.7z"/>
	<path class="ploUbicTxt" d="M1123.5,222.4c-1.7,2.7-3.9,4.3-6.8,4.9c-0.7,0.1-1.2,0.2-1.8,0.2c-0.5,0-1,0-1.3,0c-0.3,0-0.7-0.1-1.2-0.2
		c-0.4-0.1-0.8-0.2-1.2-0.4c-0.8-0.5-1.2-1.1-1.2-2c-0.1-0.4-0.1-0.9-0.1-1.4s0.1-1.2,0.3-2c0.2-0.8,0.6-1.7,1.2-2.7
		c0.6-1,1.3-1.9,2.2-2.7c1.8-1.7,3.7-2.8,5.8-3.3c0.6-0.1,1.2-0.2,1.7-0.2c0.5,0,1,0,1.4,0.1c1.3,0,2.2,0.9,2.6,2.7
		c0.3,1.1,0.5,2.7,0.5,4.7c0.1,2,0.1,3.6,0.2,4.7c0.1,1.1,0.2,2.1,0.4,3h-2c-0.1-0.6-0.2-1.1-0.2-1.6s-0.1-0.9-0.1-1.3
		C1123.8,223.9,1123.6,223.1,1123.5,222.4z M1123.4,217.2c0-1.3-0.6-2-1.9-2c-0.2,0-0.3,0-0.5,0c-1.6,0-3.4,0.8-5.2,2.4
		c-0.9,0.7-1.6,1.5-2.2,2.4c-0.9,1.3-1.4,2.4-1.4,3.4c0,1.3,0.8,2.1,2.3,2.4c2,0,4-1,5.8-2.8c0.8-0.8,1.4-1.6,2-2.6
		C1123,219.2,1123.4,218.1,1123.4,217.2z"/>
</g>
<path class="ploUbicPunt" d="M523.5,530.8c8.7,0,15.8,7.1,15.8,15.8c0,8.7-7.1,15.8-15.8,15.8c-8.7,0-15.8-7.1-15.8-15.8
	C507.8,537.9,514.8,530.8,523.5,530.8"/>
<path class="ploUbicLineas" d="M539.3,546.6c168.1-30.9,57.6-333.5,226.9-334"/>
<polygon class="ploUbicFlec" points="770.2,209.1 767,201.4 786.6,214.1 765.4,223.7 769.7,216.5 757.9,223.2 766.2,212.6 759.6,200.9 "/>
<polygon class="ploUbicFlec" points="816.6,270.3 813.4,262.6 833,275.2 811.8,284.9 816,277.7 804.3,284.3 812.6,273.7 806,262 "/>
<g>
	<path class="ploUbicTxt" d="M866.9,261.8c-1.5-1.4-3.1-2.2-4.9-2.2c-1.7,0-3.3,0.6-4.9,1.9c-2,1.6-3.3,3.7-4.1,6.3
		c-0.3,0.9-0.4,1.7-0.4,2.3c0,0.6,0,1.1,0.1,1.4c0,2.2,0.8,3.9,2.3,5.1c1.4,1.1,3.2,1.7,5.4,1.7c3-0.2,5.9-1.4,8.7-3.5
		c0.8-0.6,1.6-1.1,2.4-1.7c0.3,0,0.6,0,1,0.1c0.3,0.1,0.5,0.3,0.5,0.8c-2.2,1.9-4.1,3.3-5.6,4.2c-2.8,1.5-5.4,2.3-7.7,2.3
		c-0.2,0-0.3,0-0.4,0c-2.5,0-4.6-0.8-6.4-2.3c-1.9-1.6-2.8-3.7-2.8-6.1c0-1.8,0.3-3.6,1-5.3s1.6-3.2,2.7-4.5
		c1.2-1.3,2.5-2.3,4.1-3.1c1.6-0.8,3.3-1.1,5.1-1.1c1.6,0,2.6,0.2,3,0.6C866.6,259.3,866.9,260.3,866.9,261.8z"/>
	<path class="ploUbicTxt" d="M875.5,274.2c0-2.7,1.1-4.8,3.4-6.4c1.8-1.3,4-2.1,6.6-2.3c0.1,0,0.5,0,0.9,0s1.2,0.1,2,0.4
		c1.8,0.6,3.1,1.7,3.8,3.3c0.3,0.6,0.4,1.2,0.4,1.6c0,0.4,0,0.7,0,0.9c0,2.8-1.1,5-3.2,6.7c-2,1.5-4.5,2.2-7.4,2.2
		c-2.1,0-3.8-0.5-4.8-1.5C876.1,278.1,875.5,276.5,875.5,274.2z M877.9,275c0,1.4,0.4,2.3,1.1,2.8c0.6,0.4,1.5,0.5,2.8,0.5
		s2.5-0.1,3.5-0.3s1.9-0.6,2.7-1c1.7-1.1,2.5-2.8,2.5-5c0-1.4-0.4-2.5-1.1-3.3c-0.8-0.9-1.8-1.4-3.1-1.4c-0.9,0.2-1.8,0.3-2.7,0.5
		c-0.9,0.2-1.7,0.5-2.5,1C879.5,269.9,878.4,272,877.9,275z"/>
	<path class="ploUbicTxt" d="M910.7,268.3c-0.9-0.7-2.2-1-3.6-1c-1.4,0-2.7,0.3-3.9,0.8c-2.3,0.9-3.8,2.2-4.6,3.6c-0.4,0.7-0.5,1.4-0.5,2.2
		c0,0.1,0,0.5,0,1.1c0,0.6,0.1,1.5,0.3,2.5c0.2,1,0.3,2.1,0.3,3.2c-0.5,0-0.9,0.1-1.1,0.2c-0.3,0.1-0.5,0.1-0.7,0.1
		c-0.2,0-0.4-0.1-0.5-0.3c-0.1-0.2-0.3-0.5-0.5-1c0-0.1-0.1-0.5-0.1-1.1c-0.1-0.6-0.2-1.4-0.3-2.3s-0.2-1.9-0.3-3s-0.2-2.1-0.4-3.2
		c-0.2-2.3-0.4-3.9-0.6-5c0-0.5,0.4-0.8,1.2-0.8c0.5,0,0.8,0.2,1.1,0.6c0.3,0.4,0.5,0.8,0.6,1.4s0.3,1,0.3,1.5
		c0.1,0.5,0.1,0.8,0.2,1c3-2.7,6.7-4,11.1-4c0.5,0,1,0,1.6,0c0.1,0,0.3,0,0.5,0c0.2,0,0.4,0.1,0.6,0.4c0.2,0.3,0.4,0.7,0.4,1.1
		C911.7,267.5,911.3,268.1,910.7,268.3z"/>
	<path class="ploUbicTxt" d="M918.3,277.3l0.1-5.4c0-0.9-0.1-1.6-0.2-2.2h-5.2l-0.1-2.3h5.1v-8.7c0.1-0.2,0.2-0.4,0.4-0.6
		c0.3-0.3,0.6-0.5,0.8-0.5s0.4,0,0.6,0.1c0.2,0,0.3,0.2,0.5,0.5c0.4,1.5,0.5,3.7,0.5,6.7c0,0.7,0,1.5,0.1,2.2
		c0.7-0.1,1.4-0.1,2.2-0.1h1.8c0.4,0,0.8,0,1.2-0.1l-0.1,2.4l-4.9-0.1l0.2,11.6c-0.4,0.2-0.8,0.3-1,0.3
		C918.9,281.1,918.3,279.8,918.3,277.3z"/>
	<path class="ploUbicTxt" d="M934.1,278.2c2,0,5-0.9,8.9-2.7c0.2,0,0.5,0.1,0.6,0.3c0.2,0.2,0.2,0.4,0.2,0.6c-0.9,1.5-2.6,2.7-5.2,3.6
		c-2.5,0.9-4.9,1-7.1,0.4c-2.5-0.7-4-2.1-4.6-4.2c0-0.4-0.1-1-0.1-1.7c0-0.7,0.2-1.7,0.6-2.9s1-2.3,1.9-3.4c0.9-1.1,2-1.9,3.2-2.5
		c1.2-0.6,2.5-0.9,3.9-0.9c1.3,0,2.8,0.5,4.4,1.4c0.8,0.4,1.4,0.9,1.8,1.5c0.4,0.5,0.7,1.1,0.7,1.7c0,0.2,0,0.3,0,0.5
		c0,1.4-0.7,2.2-2,2.6c-0.6,0.2-1.2,0.2-2,0.2l-4.9-0.2c-1.6,0-2.9,0.3-3.7,1c-0.5,0.4-0.8,1-1,1.7
		C930.3,277.2,931.8,278.2,934.1,278.2z M940.1,267.8c-0.5-0.4-1-0.6-1.6-0.8c-0.5-0.2-1-0.2-1.4-0.2s-0.9,0.1-1.8,0.4
		c-0.8,0.2-1.5,0.5-2.2,0.8c-1.6,0.7-2.3,1.5-2.3,2.3c1.8,0.2,3.2,0.2,4.1,0.2c2.5,0,4.2-0.2,5.1-0.6c0.5-0.2,0.8-0.5,0.8-0.8
		C940.9,268.5,940.6,268.1,940.1,267.8z"/>
	<path class="ploUbicTxt" d="M963,267c3.1-1.1,5.7-1.6,7.9-1.6c2.8,0,4.7,0.7,5.7,2.2c0.4,0.7,0.6,1.5,0.6,2.3c0,1.1-0.4,2.3-1.1,3.5
		c-0.7,1.2-1.6,2.3-2.8,3.2c-2.7,2.2-6,3.6-9.9,4.2c0,0.2,0,0.6,0,1.2c0,0.6,0,1.2,0,1.8c0,0.7,0,1.4,0,2.2c0,0.8,0,1.5,0.1,2.2
		c0.1,1.7,0.1,2.7,0.2,3c0,0.2,0,0.4,0,0.6c0,0.6-0.2,1-0.5,1.3c-0.4,0.3-0.8,0.4-1.4,0.4c-0.1,0-0.2,0-0.3,0l-0.5-27.1
		c0.2-0.3,0.5-0.4,0.8-0.4c0.3,0,0.6,0.1,0.8,0.3C962.7,266.4,962.9,266.6,963,267z M972.8,268.2c-0.7-0.4-1.5-0.6-2.4-0.6
		c-0.8,0-1.7,0.1-2.5,0.2c-1.9,0.4-3.3,1.2-4.2,2.4c-0.4,0.6-0.6,1.3-0.6,2.2c0,0.1,0,0.2,0,0.3v5.8c4.6-1,7.9-2.5,9.9-4.3
		c1.1-1.1,1.7-2.1,1.7-3.3C974.7,269.8,974.1,268.9,972.8,268.2z"/>
	<path class="ploUbicTxt" d="M979.6,267.5c0-1.2-0.1-2.3-0.1-3.3s-0.1-1.7-0.1-2.1c0-0.5-0.2-1.6-0.6-3.4c0.2-0.3,0.4-0.5,0.6-0.8
		c0.2-0.2,0.5-0.4,0.8-0.4c0.8,0,1.4,3.3,1.8,10c0.2,3.8,0.3,7.7,0.3,11.5c0,1-0.7,1.6-2.2,1.6l-0.3,0c0-1.2,0-2.7-0.1-4.5
		s-0.1-3.4-0.2-4.8C979.7,270,979.6,268.7,979.6,267.5z"/>
	<path class="ploUbicTxt" d="M985.3,274.2c0-2.7,1.1-4.8,3.4-6.4c1.8-1.3,4-2.1,6.6-2.3c0.1,0,0.5,0,0.9,0s1.2,0.1,2,0.4
		c1.8,0.6,3.1,1.7,3.8,3.3c0.3,0.6,0.4,1.2,0.4,1.6c0,0.4,0,0.7,0,0.9c0,2.8-1.1,5-3.2,6.7c-2,1.5-4.5,2.2-7.4,2.2
		c-2.1,0-3.8-0.5-4.8-1.5C985.8,278.1,985.3,276.5,985.3,274.2z M987.6,275c0,1.4,0.4,2.3,1.1,2.8c0.6,0.4,1.5,0.5,2.8,0.5
		s2.5-0.1,3.5-0.3s1.9-0.6,2.7-1c1.7-1.1,2.5-2.8,2.5-5c0-1.4-0.4-2.5-1.1-3.3c-0.8-0.9-1.8-1.4-3.1-1.4c-0.9,0.2-1.8,0.3-2.7,0.5
		c-0.9,0.2-1.7,0.5-2.5,1C989.2,269.9,988.1,272,987.6,275z"/>
	<path class="ploUbicTxt" d="M1009,277.3l0.1-5.4c0-0.9-0.1-1.6-0.2-2.2h-5.2l-0.1-2.3h5.1v-8.7c0.1-0.2,0.2-0.4,0.4-0.6
		c0.3-0.3,0.6-0.5,0.8-0.5s0.4,0,0.6,0.1c0.2,0,0.3,0.2,0.5,0.5c0.4,1.5,0.5,3.7,0.5,6.7c0,0.7,0,1.5,0.1,2.2
		c0.7-0.1,1.4-0.1,2.2-0.1h1.8c0.4,0,0.8,0,1.2-0.1l-0.1,2.4l-4.9-0.1l0.2,11.6c-0.4,0.2-0.8,0.3-1,0.3
		C1009.5,281.1,1009,279.8,1009,277.3z"/>
	<path class="ploUbicTxt" d="M1022.9,277.3l0.1-5.4c0-0.9-0.1-1.6-0.2-2.2h-5.2l-0.1-2.3h5.1v-8.7c0.1-0.2,0.2-0.4,0.4-0.6
		c0.3-0.3,0.6-0.5,0.8-0.5s0.4,0,0.6,0.1c0.2,0,0.3,0.2,0.5,0.5c0.4,1.5,0.5,3.7,0.5,6.7c0,0.7,0,1.5,0.1,2.2
		c0.7-0.1,1.4-0.1,2.2-0.1h1.8c0.4,0,0.8,0,1.2-0.1l-0.1,2.4l-4.9-0.1l0.2,11.6c-0.4,0.2-0.8,0.3-1,0.3
		C1023.5,281.1,1022.9,279.8,1022.9,277.3z"/>
	<path class="ploUbicTxt" d="M1038.7,278.2c2,0,5-0.9,8.9-2.7c0.2,0,0.5,0.1,0.6,0.3c0.2,0.2,0.2,0.4,0.2,0.6c-0.9,1.5-2.6,2.7-5.2,3.6
		c-2.5,0.9-4.9,1-7.1,0.4c-2.5-0.7-4-2.1-4.6-4.2c0-0.4-0.1-1-0.1-1.7c0-0.7,0.2-1.7,0.6-2.9s1-2.3,1.9-3.4c0.9-1.1,2-1.9,3.2-2.5
		c1.2-0.6,2.5-0.9,3.9-0.9c1.3,0,2.8,0.5,4.4,1.4c0.8,0.4,1.4,0.9,1.8,1.5c0.4,0.5,0.7,1.1,0.7,1.7c0,0.2,0,0.3,0,0.5
		c0,1.4-0.7,2.2-2,2.6c-0.6,0.2-1.2,0.2-2,0.2l-4.9-0.2c-1.6,0-2.9,0.3-3.7,1c-0.5,0.4-0.8,1-1,1.7
		C1034.9,277.2,1036.4,278.2,1038.7,278.2z M1044.7,267.8c-0.5-0.4-1-0.6-1.6-0.8c-0.5-0.2-1-0.2-1.4-0.2s-0.9,0.1-1.8,0.4
		c-0.8,0.2-1.5,0.5-2.2,0.8c-1.6,0.7-2.3,1.5-2.3,2.3c1.8,0.2,3.2,0.2,4.1,0.2c2.5,0,4.2-0.2,5.1-0.6c0.5-0.2,0.8-0.5,0.8-0.8
		C1045.5,268.5,1045.2,268.1,1044.7,267.8z"/>
	<path class="ploUbicTxt" d="M1067.1,268.3c-0.9-0.7-2.2-1-3.6-1c-1.4,0-2.7,0.3-3.9,0.8c-2.3,0.9-3.8,2.2-4.6,3.6
		c-0.4,0.7-0.5,1.4-0.5,2.2c0,0.1,0,0.5,0,1.1c0,0.6,0.1,1.5,0.3,2.5c0.2,1,0.3,2.1,0.3,3.2c-0.5,0-0.9,0.1-1.1,0.2
		c-0.3,0.1-0.5,0.1-0.7,0.1c-0.2,0-0.4-0.1-0.5-0.3c-0.1-0.2-0.3-0.5-0.5-1c0-0.1-0.1-0.5-0.1-1.1c-0.1-0.6-0.2-1.4-0.3-2.3
		s-0.2-1.9-0.3-3s-0.2-2.1-0.4-3.2c-0.2-2.3-0.4-3.9-0.6-5c0-0.5,0.4-0.8,1.2-0.8c0.5,0,0.8,0.2,1.1,0.6c0.3,0.4,0.5,0.8,0.6,1.4
		s0.3,1,0.3,1.5c0.1,0.5,0.1,0.8,0.2,1c3-2.7,6.7-4,11.1-4c0.5,0,1,0,1.6,0c0.1,0,0.3,0,0.5,0c0.2,0,0.4,0.1,0.6,0.4
		c0.2,0.3,0.4,0.7,0.4,1.1C1068,267.5,1067.7,268.1,1067.1,268.3z"/>
</g>
<path class="ploUbicLineas" d="M539.3,546.6c168.1-30.9,104-272.3,273.3-272.8"/>
<path class="ploEtiquetaSombra" d="M739.9,35c2.8,1.4,4.7,4.2,4.7,7.5v144c0,4.6-3.7,8.3-8.3,8.3H332.8c-3.8,0-7.1-2.6-8-6.2
	c1.1,0.5,2.3,0.8,3.6,0.8h403.5c4.6,0,8.3-3.7,8.3-8.3v-144C740.2,36.4,740.1,35.7,739.9,35"/>
<path class="ploEtiquetaBla" d="M328.4,28.8h403.5c4.6,0,8.3,3.7,8.3,8.3v144c0,4.6-3.7,8.3-8.3,8.3H328.4c-4.6,0-8.3-3.7-8.3-8.3v-144
	C320,32.6,323.8,28.8,328.4,28.8"/>
<line class="ploEtiquetaLinea" x1="355" y1="80.8" x2="703.1" y2="80.8"/>
<g>
	<path class="ploEtiquetaTitulo" d="M406.8,47.9c-1.9-1.8-3.9-2.8-6.2-2.8c-2.2,0-4.2,0.8-6.2,2.5c-2.5,2.1-4.2,4.7-5.2,8
		c-0.3,1.2-0.5,2.2-0.5,2.9s0,1.4,0.1,1.8c0,2.8,1,5,2.9,6.5c1.8,1.4,4.1,2.1,6.9,2.1c3.8-0.3,7.5-1.8,11.1-4.4c1-0.7,2-1.5,3.1-2.2
		c0.4,0,0.8,0.1,1.2,0.2c0.4,0.1,0.6,0.4,0.6,1c-2.8,2.5-5.2,4.2-7.2,5.3c-3.6,2-6.9,2.9-9.8,2.9c-0.2,0-0.4,0-0.6,0
		c-3.2,0-5.9-1-8.2-3c-2.4-2.1-3.6-4.7-3.6-7.8c0-2.4,0.4-4.6,1.3-6.8c0.8-2.2,2-4.1,3.5-5.7c1.5-1.6,3.2-3,5.3-3.9
		c2-1,4.2-1.5,6.5-1.5c2,0,3.3,0.3,3.9,0.8C406.4,44.7,406.8,46,406.8,47.9z"/>
	<path class="ploEtiquetaTitulo" d="M417.7,63.6c0-3.4,1.5-6.1,4.4-8.2c2.3-1.6,5.1-2.6,8.4-3c0.2,0,0.6,0,1.2,0c0.6,0,1.5,0.2,2.5,0.6
		c2.4,0.8,4,2.2,4.8,4.3c0.3,0.8,0.5,1.5,0.5,2c0,0.6,0,1,0,1.2c0,3.6-1.4,6.4-4.1,8.5c-2.5,1.9-5.7,2.8-9.5,2.8
		c-2.7,0-4.8-0.6-6.2-1.9C418.4,68.7,417.7,66.6,417.7,63.6z M420.7,64.7c0,1.8,0.5,3,1.4,3.6c0.7,0.5,1.9,0.7,3.6,0.7
		c1.7,0,3.2-0.1,4.5-0.4c1.3-0.3,2.4-0.7,3.4-1.3c2.2-1.4,3.2-3.5,3.2-6.4c0-1.7-0.5-3.1-1.4-4.2c-1-1.2-2.3-1.8-4-1.8
		c-1.1,0.2-2.2,0.4-3.4,0.6c-1.1,0.2-2.2,0.7-3.2,1.3C422.8,58.2,421.4,60.8,420.7,64.7z"/>
	<path class="ploEtiquetaTitulo" d="M462.6,56.1c-1.2-0.9-2.8-1.3-4.6-1.3c-1.8,0-3.4,0.3-4.9,1c-2.9,1.2-4.8,2.8-5.9,4.6
		c-0.5,0.9-0.7,1.8-0.7,2.8c0,0.2,0,0.7,0,1.4c0,0.8,0.1,1.9,0.4,3.2c0.3,1.3,0.4,2.7,0.4,4.1c-0.6,0-1.1,0.1-1.5,0.2
		c-0.4,0.1-0.7,0.2-0.9,0.2s-0.5-0.1-0.7-0.3c-0.2-0.2-0.4-0.7-0.6-1.3c0-0.2-0.1-0.7-0.2-1.5c-0.1-0.8-0.2-1.8-0.3-2.9
		c-0.1-1.1-0.3-2.4-0.4-3.8c-0.2-1.4-0.3-2.7-0.5-4c-0.3-2.9-0.6-5-0.7-6.3c0-0.7,0.5-1,1.5-1c0.6,0,1.1,0.3,1.4,0.8
		s0.6,1.1,0.8,1.7c0.2,0.6,0.3,1.3,0.4,1.9c0.1,0.6,0.1,1.1,0.2,1.3c3.8-3.4,8.5-5.1,14.1-5.1c0.6,0,1.3,0,2,0c0.2,0,0.4,0,0.6,0
		s0.5,0.2,0.8,0.5c0.3,0.4,0.5,0.9,0.5,1.5C463.8,55.1,463.4,55.9,462.6,56.1z"/>
	<path class="ploEtiquetaTitulo" d="M472.2,67.7l0.1-6.9c0-1.1-0.1-2-0.3-2.8h-6.7l-0.1-3h6.5V43.9c0.1-0.3,0.3-0.5,0.5-0.8c0.4-0.4,0.7-0.6,1-0.6
		c0.3,0,0.5,0,0.7,0.1c0.2,0.1,0.4,0.3,0.6,0.6c0.5,1.9,0.7,4.7,0.7,8.6c0,0.9,0,1.9,0.1,2.8c0.9-0.1,1.8-0.2,2.8-0.2h2.2
		c0.5,0,1,0,1.5-0.1l-0.1,3.1l-6.3-0.2l0.2,14.8c-0.5,0.2-1,0.3-1.3,0.3C473,72.4,472.2,70.9,472.2,67.7z"/>
	<path class="ploEtiquetaTitulo" d="M492.3,68.8c2.5,0,6.3-1.1,11.4-3.4c0.3,0,0.6,0.1,0.8,0.3c0.2,0.2,0.3,0.5,0.3,0.8c-1.1,2-3.3,3.5-6.6,4.6
		c-3.2,1.1-6.3,1.3-9.1,0.6c-3.2-0.8-5.1-2.6-5.8-5.4c-0.1-0.5-0.1-1.3-0.1-2.2c0-0.9,0.2-2.1,0.7-3.6c0.5-1.5,1.3-2.9,2.4-4.3
		c1.1-1.3,2.5-2.4,4-3.2c1.5-0.8,3.2-1.2,4.9-1.2c1.7,0,3.5,0.6,5.6,1.7c1,0.5,1.7,1.2,2.3,1.9c0.6,0.7,0.9,1.4,0.9,2.1
		c0,0.2,0,0.4,0,0.6c-0.1,1.8-0.9,2.9-2.5,3.3c-0.7,0.2-1.5,0.3-2.5,0.3l-6.2-0.3c-2.1,0-3.6,0.4-4.7,1.3c-0.6,0.5-1.1,1.2-1.3,2.2
		C487.5,67.5,489.4,68.8,492.3,68.8z M500,55.5c-0.6-0.5-1.3-0.8-2-1s-1.3-0.3-1.7-0.3c-0.5,0-1.2,0.2-2.2,0.5s-2,0.6-2.8,1
		c-2,0.9-3,1.9-3,2.9c2.3,0.2,4,0.3,5.2,0.3c3.2,0,5.3-0.3,6.5-0.8c0.7-0.3,1-0.6,1-1.1C501,56.4,500.7,55.9,500,55.5z"/>
	<path class="ploEtiquetaTitulo" d="M522.1,60.7c3.2,0,4.7,0.8,4.7,2.4c0,1.2-0.9,2.6-2.6,4.2c-2.6,2.4-6.1,4.3-10.5,5.7c-0.2,0-0.4-0.2-0.7-0.6
		c-0.2-0.4-0.4-0.7-0.6-0.9c-0.1-0.2-0.2-0.4-0.3-0.4c3.3-1.1,6-2.4,8.1-4c1.4-1,2.2-1.9,2.2-2.5c0-0.7-0.8-1-2.5-1
		c-1.7,0-4.2,0.4-7.4,1.2c-1.5-0.1-2.8-0.6-3.9-1.6c-0.9-0.9-1.4-1.8-1.4-2.7s0.3-1.7,0.8-2.5c0.5-0.8,1.2-1.5,2.1-2.1
		c0.9-0.7,1.9-1.3,3-1.8c2.8-1.3,5.7-2,8.7-2c0.9,0,1.7,0.1,2.6,0.3c0.7,0,1.1,0.3,1.2,0.9c0.1,0.6,0.2,1.6,0.2,3
		c-1.7-0.8-3.6-1.2-5.7-1.2c-2.6,0-4.8,0.5-6.5,1.6c-1.8,1-2.7,2.4-2.8,4c0,0.8,0.6,1.2,1.8,1.2l3.1-0.3
		C518.3,61,520.5,60.7,522.1,60.7z"/>
	<path class="ploEtiquetaTitulo" d="M549.6,71.9l-1.9-0.1v-10c0.1-2.2,0.3-4.1,0.3-5.7c0.1-1.7,0.2-3.1,0.5-4.3c0.2-1.2,0.6-2.2,1.1-3
		c0.5-0.8,1.3-1.5,2.3-2c1.9-0.9,5.3-1.4,10.3-1.4c2.2,0,4,0.2,5.5,0.6c1.5,0.4,2.6,0.8,3.3,1.2c1.6,0.8,2.5,1.9,2.5,3.4
		c0,1.4-0.4,2.7-1.2,3.9c-0.8,1.2-1.9,2.2-3.2,3c-1.3,0.8-2.8,1.5-4.4,2.1c-1.6,0.5-3.3,1-4.9,1.3c-2.9,0.6-5.7,0.9-8.4,0.9
		l-0.2,9.6C551.1,71.7,550.6,71.9,549.6,71.9z M551.2,56.9c0,1.4,0.6,2.2,1.9,2.2c0.2,0,0.5,0,0.9,0c0.4,0,1.2-0.1,2.3-0.1
		c1.1-0.1,2.2-0.2,3.4-0.4c1.2-0.2,2.4-0.5,3.6-0.8c1.2-0.3,2.3-0.8,3.3-1.3c2.2-1.2,3.3-2.7,3.3-4.6c-0.4-1.9-2.1-3.1-5.1-3.6
		c-0.9-0.2-1.7-0.3-2.4-0.3c-0.7,0-1.5,0-2.5,0.1c-1,0.1-2.1,0.3-3.3,0.7c-1.3,0.4-2.3,0.9-3.2,1.5c-0.9,0.6-1.3,1.4-1.4,2.2
		c0,0.3-0.1,0.7-0.2,1.2C551.4,55,551.2,56.1,551.2,56.9z"/>
	<path class="ploEtiquetaTitulo" d="M576,55.1c-0.1-1.5-0.1-2.9-0.2-4.2c-0.1-1.2-0.1-2.1-0.1-2.7c0-0.6-0.3-2-0.7-4.3c0.3-0.3,0.5-0.7,0.8-1
		c0.2-0.3,0.6-0.5,1.1-0.5c1,0,1.8,4.2,2.3,12.7c0.3,4.9,0.4,9.8,0.4,14.7c0,1.3-0.9,2-2.8,2l-0.3,0c0-1.5,0-3.4-0.1-5.7
		s-0.2-4.3-0.2-6.1C576.1,58.3,576.1,56.7,576,55.1z"/>
	<path class="ploEtiquetaTitulo" d="M583.3,63.6c0-3.4,1.5-6.1,4.4-8.2c2.3-1.6,5.1-2.6,8.4-3c0.2,0,0.6,0,1.2,0c0.6,0,1.5,0.2,2.5,0.6
		c2.4,0.8,4,2.2,4.8,4.3c0.3,0.8,0.5,1.5,0.5,2c0,0.6,0,1,0,1.2c0,3.6-1.4,6.4-4.1,8.5c-2.5,1.9-5.7,2.8-9.5,2.8
		c-2.7,0-4.8-0.6-6.2-1.9C584,68.7,583.3,66.6,583.3,63.6z M586.2,64.7c0,1.8,0.5,3,1.4,3.6c0.7,0.5,1.9,0.7,3.6,0.7
		c1.7,0,3.2-0.1,4.5-0.4c1.3-0.3,2.4-0.7,3.4-1.3c2.2-1.4,3.2-3.5,3.2-6.4c0-1.7-0.5-3.1-1.4-4.2c-1-1.2-2.3-1.8-4-1.8
		c-1.1,0.2-2.2,0.4-3.4,0.6c-1.1,0.2-2.2,0.7-3.2,1.3C588.3,58.2,586.9,60.8,586.2,64.7z"/>
	<path class="ploEtiquetaTitulo" d="M613.5,67.7l0.1-6.9c0-1.1-0.1-2-0.3-2.8h-6.7l-0.1-3h6.5V43.9c0.1-0.3,0.3-0.5,0.5-0.8c0.4-0.4,0.7-0.6,1-0.6
		c0.3,0,0.5,0,0.7,0.1c0.2,0.1,0.4,0.3,0.6,0.6c0.5,1.9,0.7,4.7,0.7,8.6c0,0.9,0,1.9,0.1,2.8c0.9-0.1,1.8-0.2,2.8-0.2h2.2
		c0.5,0,1,0,1.5-0.1l-0.1,3.1l-6.3-0.2l0.2,14.8c-0.5,0.2-1,0.3-1.3,0.3C614.2,72.4,613.5,70.9,613.5,67.7z"/>
	<path class="ploEtiquetaTitulo" d="M631.3,67.7l0.1-6.9c0-1.1-0.1-2-0.3-2.8h-6.7l-0.1-3h6.5V43.9c0.1-0.3,0.3-0.5,0.5-0.8c0.4-0.4,0.7-0.6,1-0.6
		c0.3,0,0.5,0,0.7,0.1c0.2,0.1,0.4,0.3,0.6,0.6c0.5,1.9,0.7,4.7,0.7,8.6c0,0.9,0,1.9,0.1,2.8c0.9-0.1,1.8-0.2,2.8-0.2h2.2
		c0.5,0,1,0,1.5-0.1l-0.1,3.1l-6.3-0.2l0.2,14.8c-0.5,0.2-1,0.3-1.3,0.3C632,72.4,631.3,70.9,631.3,67.7z"/>
	<path class="ploEtiquetaTitulo" d="M651.4,68.8c2.5,0,6.3-1.1,11.4-3.4c0.3,0,0.6,0.1,0.8,0.3c0.2,0.2,0.3,0.5,0.3,0.8c-1.1,2-3.3,3.5-6.6,4.6
		c-3.2,1.1-6.3,1.3-9.1,0.6c-3.2-0.8-5.1-2.6-5.8-5.4c-0.1-0.5-0.1-1.3-0.1-2.2c0-0.9,0.2-2.1,0.7-3.6c0.5-1.5,1.3-2.9,2.4-4.3
		c1.1-1.3,2.5-2.4,4-3.2c1.5-0.8,3.2-1.2,4.9-1.2c1.7,0,3.5,0.6,5.6,1.7c1,0.5,1.7,1.2,2.3,1.9c0.6,0.7,0.9,1.4,0.9,2.1
		c0,0.2,0,0.4,0,0.6c-0.1,1.8-0.9,2.9-2.5,3.3c-0.7,0.2-1.5,0.3-2.5,0.3l-6.2-0.3c-2.1,0-3.6,0.4-4.7,1.3c-0.6,0.5-1.1,1.2-1.3,2.2
		C646.6,67.5,648.4,68.8,651.4,68.8z M659.1,55.5c-0.6-0.5-1.3-0.8-2-1s-1.3-0.3-1.7-0.3c-0.5,0-1.2,0.2-2.2,0.5s-2,0.6-2.8,1
		c-2,0.9-3,1.9-3,2.9c2.3,0.2,4,0.3,5.2,0.3c3.2,0,5.3-0.3,6.5-0.8c0.7-0.3,1-0.6,1-1.1C660,56.4,659.7,55.9,659.1,55.5z"/>
	<path class="ploEtiquetaTitulo" d="M687.6,56.1c-1.2-0.9-2.8-1.3-4.6-1.3c-1.8,0-3.4,0.3-4.9,1c-2.9,1.2-4.8,2.8-5.9,4.6
		c-0.5,0.9-0.7,1.8-0.7,2.8c0,0.2,0,0.7,0,1.4c0,0.8,0.1,1.9,0.4,3.2c0.3,1.3,0.4,2.7,0.4,4.1c-0.6,0-1.1,0.1-1.5,0.2
		c-0.4,0.1-0.7,0.2-0.9,0.2s-0.5-0.1-0.7-0.3c-0.2-0.2-0.4-0.7-0.6-1.3c0-0.2-0.1-0.7-0.2-1.5c-0.1-0.8-0.2-1.8-0.3-2.9
		c-0.1-1.1-0.3-2.4-0.4-3.8c-0.2-1.4-0.3-2.7-0.5-4c-0.3-2.9-0.6-5-0.7-6.3c0-0.7,0.5-1,1.5-1c0.6,0,1.1,0.3,1.4,0.8
		s0.6,1.1,0.8,1.7c0.2,0.6,0.3,1.3,0.4,1.9c0.1,0.6,0.1,1.1,0.2,1.3c3.8-3.4,8.5-5.1,14.1-5.1c0.6,0,1.3,0,2,0c0.2,0,0.4,0,0.6,0
		s0.5,0.2,0.8,0.5c0.3,0.4,0.5,0.9,0.5,1.5C688.8,55.1,688.4,55.9,687.6,56.1z"/>
</g>
<g>
	<path class="ploEtiquetaTxt" d="M380.1,112.9h0.9c0.4,0,0.7,0,1.1,0.1c0.3,0.1,0.5,0.3,0.5,0.7c0.2,0.9-0.4,1.3-1.6,1.3c-0.3,0-0.6,0-0.9-0.1
		c-0.3,0-0.5,0-0.7,0c-0.2,0-0.3,0.1-0.2,0.2c0.2,0.7,0.5,1.4,0.7,2.2c0.3,0.8,0.5,1.6,0.9,2.4c0.8,2,1.6,3.4,2.3,4.3
		c-0.4,0.5-0.8,0.9-1.3,1.2c-0.5,0.3-0.8,0.5-0.8,0.5s-0.1,0-0.1,0l-4.8-10l-9.2,2.3l-0.3,1.4c-0.7,2.6-1.4,4.4-2.2,5.4
		c-0.1,0.2-0.4,0.2-0.8,0.1c-0.7-0.3-1.1-0.5-1.1-0.7c0,0,0.2-0.7,0.7-2c0.5-1.3,1-2.5,1.4-3.8c0.5-1.3,1-2.7,1.5-4.1
		c0.5-1.4,1-2.8,1.5-4.1s0.9-2.4,1.3-3.5c0.4-1,0.7-1.8,0.8-2.2c0.2-0.5,0.3-0.9,0.3-1.2c0.1-0.3,0.1-0.6,0.3-0.9
		c0.2-0.5,0.8-0.8,1.7-0.8c1,0.5,1.7,1.2,2.2,2.1c0.5,0.9,1,1.8,1.4,2.8c0.4,1,0.7,2,1.1,3s0.8,1.9,1.5,2.8c0.2,0.3,0.5,0.5,0.9,0.5
		C379.5,112.9,379.8,112.9,380.1,112.9z M371.7,105.6c-0.2,1.4-0.6,2.8-1.2,4.2c-0.6,1.4-1.1,2.6-1.5,3.4c-0.4,0.8-0.7,1.5-1,2.2
		c1.5,0,3.4-0.5,5.6-1.4c0.6-0.2,1.1-0.5,1.6-0.7C374.2,108.8,373,106.3,371.7,105.6z"/>
	<path class="ploEtiquetaTxt" d="M400.4,104.5c-0.1,2.1-0.2,4.1-0.3,6c-0.1,2-0.2,4.1-0.2,6.3c0,2.2,0.2,4.6,0.5,7c0,0.5-0.1,0.9-0.3,1.1
		s-0.5,0.3-1,0.3c-1.1,0-1.6-0.9-1.6-2.6v-1.1c-3.2,2.4-5.9,3.6-8.1,3.6c-0.9,0-1.8-0.2-2.7-0.6c-0.9-0.4-1.8-1.3-2.6-2.6
		c-0.1-0.5-0.2-1.1-0.2-1.7c0-0.6,0.1-1.2,0.3-2s0.7-1.6,1.3-2.5c0.7-0.9,1.5-1.6,2.4-2.3c2.1-1.4,4.3-2.1,6.7-2.1c1,0,2,0.2,3,0.5
		c0-0.4,0-1.1,0.1-2.1c0.1-1,0.1-2.1,0.2-3.2c0.1-2.9,0.2-4.7,0.3-5.2c0-0.5,0.1-1,0.2-1.4c0.1-0.4,0.2-0.7,0.4-1
		c0.3-0.6,0.9-0.8,1.8-0.8C400.6,100.3,400.6,102.4,400.4,104.5z M386.5,120c0,1.8,0.6,2.7,1.9,2.7c0.2,0,0.4,0,0.7-0.1
		c0.9,0,2.1-0.3,3.4-0.8c2.6-1,4.1-1.9,4.7-2.6v-4.5c0-0.8-0.6-1.2-1.9-1.2c-0.2,0-0.4,0-0.6,0s-0.7,0.1-1.2,0.2
		c-0.5,0.1-1.1,0.3-1.8,0.6c-0.7,0.3-1.3,0.7-2,1.1c-1.4,0.9-2.3,2-2.8,3.2C386.6,119,386.5,119.5,386.5,120z"/>
	<path class="ploEtiquetaTxt" d="M418.3,124.8c-0.2,0.4-0.7,0.6-1.6,0.6c-0.8,0-1.3-0.3-1.3-0.9c0-2.7-0.1-4.5-0.2-5.5
		c-0.2-2.2-0.6-3.4-1.3-3.5c-1.6-0.3-2.9-0.5-4-0.5c-1,0-1.9,0.3-2.5,0.9c-0.7,0.6-1.2,1.6-1.5,3.1c-0.3,1.4-0.6,3.4-0.8,6h-2.6
		c0-1.3,0.1-2.5,0.1-3.6c0-1.1,0-2.4-0.1-3.9c0-1.5-0.1-3.2-0.2-5c-0.1-2.1-0.2-3.8-0.2-5.2c0-1.4,0.1-2.7,0.3-3.9
		c0.2-0.4,0.6-0.6,1-0.6c0.5,0,0.9,0.2,1.2,0.6c0.3,0.4,0.4,0.7,0.5,1l-0.2,5.6c0,2.1,0.1,3.7,0.3,4.7c2-1.4,4.1-2,6.3-2
		c0.7,0,1.4,0.1,2.2,0.2c1.7,0.9,2.8,1.8,3.3,2.8c0.2,0.5,0.4,1.1,0.5,1.7c0.1,0.6,0.1,1.2,0.1,2C417.9,121.7,418,123.6,418.3,124.8
		z"/>
	<path class="ploEtiquetaTxt" d="M426.4,122.9c2,0,5-0.9,8.9-2.7c0.2,0,0.5,0.1,0.6,0.3c0.2,0.2,0.2,0.4,0.2,0.6c-0.9,1.5-2.6,2.7-5.2,3.6
		c-2.5,0.9-4.9,1-7.1,0.4c-2.5-0.7-4-2.1-4.6-4.2c0-0.4-0.1-1-0.1-1.7c0-0.7,0.2-1.7,0.6-2.9c0.4-1.2,1-2.3,1.9-3.4
		c0.9-1.1,2-1.9,3.2-2.5c1.2-0.6,2.5-0.9,3.9-0.9c1.3,0,2.8,0.5,4.4,1.4c0.8,0.4,1.4,0.9,1.8,1.5c0.5,0.5,0.7,1.1,0.7,1.7
		c0,0.2,0,0.3,0,0.5c0,1.4-0.7,2.2-2,2.6c-0.6,0.2-1.2,0.2-2,0.2l-4.9-0.2c-1.6,0-2.9,0.3-3.7,1c-0.5,0.4-0.8,1-1,1.7
		C422.6,121.9,424.1,122.9,426.4,122.9z M432.4,112.5c-0.5-0.4-1-0.6-1.6-0.8c-0.5-0.2-1-0.2-1.4-0.2c-0.4,0-0.9,0.1-1.8,0.4
		c-0.8,0.2-1.5,0.5-2.2,0.8c-1.6,0.7-2.3,1.5-2.3,2.3c1.8,0.2,3.2,0.2,4.1,0.2c2.5,0,4.2-0.2,5.1-0.6c0.5-0.2,0.8-0.5,0.8-0.8
		C433.2,113.2,432.9,112.8,432.4,112.5z"/>
	<path class="ploEtiquetaTxt" d="M449.8,116.5c2.5,0,3.7,0.6,3.7,1.9c0,0.9-0.7,2-2.1,3.3c-2,1.9-4.8,3.4-8.3,4.5c-0.2,0-0.3-0.2-0.5-0.5
		c-0.2-0.3-0.3-0.6-0.4-0.7c-0.1-0.2-0.2-0.3-0.2-0.3c2.6-0.9,4.7-1.9,6.4-3.1c1.1-0.8,1.7-1.5,1.7-2c0-0.5-0.7-0.8-2-0.8
		c-1.3,0-3.3,0.3-5.8,0.9c-1.2,0-2.2-0.5-3-1.2c-0.7-0.7-1.1-1.4-1.1-2.1s0.2-1.4,0.6-2c0.4-0.6,0.9-1.2,1.6-1.7
		c0.7-0.5,1.5-1,2.4-1.4c2.2-1.1,4.5-1.6,6.9-1.6c0.7,0,1.4,0.1,2,0.2c0.5,0,0.9,0.2,0.9,0.7c0.1,0.5,0.1,1.2,0.1,2.3
		c-1.3-0.6-2.8-0.9-4.5-0.9c-2.1,0-3.8,0.4-5.1,1.2c-1.4,0.8-2.1,1.9-2.2,3.2c0,0.6,0.5,0.9,1.4,0.9l2.5-0.3
		C446.8,116.8,448.5,116.5,449.8,116.5z"/>
	<path class="ploEtiquetaTxt" d="M455.5,104.8c0-0.8,0.5-1.2,1.4-1.2c0.6,0,1.1,0.1,1.5,0.4c0.1,0.2,0.1,0.5,0.1,0.7s-0.1,0.5-0.3,0.7
		c-0.2,0.2-0.5,0.3-0.8,0.3c-0.4,0-0.7-0.1-1.1-0.3C455.9,105.4,455.6,105.1,455.5,104.8z M458.6,109.4c0.3,4.2,0.5,9.1,0.7,14.6
		c-0.1,0.7-0.7,1-1.6,1c-0.2,0-0.5-0.1-0.8-0.2s-0.4-0.2-0.5-0.4v-15.1H458.6z"/>
	<path class="ploEtiquetaTxt" d="M461.1,112.2c0-0.1-0.1-0.2-0.1-0.4c0-0.1,0.1-0.3,0.2-0.6c0.1-0.2,0.3-0.5,0.5-0.6c0.2-0.2,0.5-0.3,0.7-0.3
		c0.3,0,0.5,0.2,0.6,0.5l5.7,10.5c0.2-0.3,0.5-0.8,0.9-1.5c0.4-0.7,0.8-1.6,1.4-2.5s1-1.9,1.6-2.9c0.6-1,1.1-1.9,1.5-2.8
		c1.1-1.9,1.7-2.9,1.9-2.9c0.5,0,0.8,0.2,1,0.5c0.2,0.3,0.3,0.6,0.3,0.8s0,0.3,0,0.4c-1.3,2.7-2.4,5.3-3.5,7.6
		c-1.1,2.3-1.8,3.8-2.1,4.5c-0.3,0.7-0.7,1.2-0.9,1.6c-0.5,0.7-0.9,1-1.4,1c-0.5,0-1-0.4-1.6-1.1c-0.6-0.7-1.2-1.7-2-2.9
		C464.5,119.2,462.9,116.2,461.1,112.2z"/>
	<path class="ploEtiquetaTxt" d="M479.6,118.8c0-2.7,1.1-4.8,3.4-6.4c1.8-1.3,4-2.1,6.6-2.3c0.1,0,0.4,0,0.9,0c0.5,0,1.2,0.1,2,0.4
		c1.8,0.6,3.1,1.7,3.8,3.3c0.3,0.6,0.4,1.2,0.4,1.6c0,0.4,0,0.7,0,0.9c0,2.8-1.1,5-3.2,6.7c-2,1.5-4.5,2.2-7.4,2.2
		c-2.1,0-3.8-0.5-4.8-1.5C480.1,122.8,479.6,121.2,479.6,118.8z M481.9,119.7c0,1.4,0.4,2.3,1.1,2.8c0.6,0.4,1.5,0.5,2.8,0.5
		c1.3,0,2.5-0.1,3.5-0.3c1-0.2,1.9-0.6,2.7-1c1.7-1.1,2.5-2.8,2.5-5c0-1.4-0.4-2.5-1.1-3.3c-0.8-0.9-1.8-1.4-3.1-1.4
		c-0.9,0.2-1.8,0.3-2.7,0.5c-0.9,0.2-1.7,0.5-2.5,1C483.5,114.6,482.4,116.7,481.9,119.7z"/>
	<path class="ploEtiquetaTxt" d="M514.3,119.7c-1.3-0.2-1.9-0.5-1.9-0.9c0-0.3,0.2-0.6,0.6-1c0.4-0.4,0.9-0.8,1.3-1.2c0-1.4-0.2-2.9-0.6-4.5
		c-0.4-1.7-0.7-3-0.9-3.9c-0.2-0.9-0.3-1.8-0.3-2.5c0-0.8,0.1-1.2,0.4-1.5s0.6-0.3,1-0.3c0.4,0,0.7,0.1,0.9,0.2
		c0.1,0.1,0.2,0.3,0.3,0.5c0,0.2,0.1,0.4,0.1,0.6c0,0.2,0.1,0.4,0.1,0.6c0.1,0.4,0.5,0.6,1,0.6c1.5,0,3-0.2,4.5-0.4
		c1.5-0.2,3-0.5,4.5-0.7c3-0.5,5.1-0.7,6.3-0.7c1.2,0,2.2,0,2.9,0.1c0,0.4,0.1,0.8,0.1,1.1c0.1,0.3,0.1,0.6,0.1,0.8
		c0,0.4-0.4,0.5-1.1,0.4c-11.8,0.4-17.7,1.3-17.7,2.6c0,1.5,0.1,2.7,0.3,3.8c0.2,1,0.4,1.7,0.5,2s0.2,0.4,0.4,0.4
		c1.3,0,2.6-0.1,3.9-0.3c1.3-0.2,2.6-0.5,4-0.7c1.3-0.3,2.6-0.5,4-0.7c1.3-0.2,2.6-0.3,3.9-0.3c0,0,0,0.1,0,0.3s0,0.4,0,0.6
		c-0.1,0.5-0.1,0.8,0,0.8c-1,0.5-2.7,1-5.3,1.3c-1.1,0.2-2.2,0.3-3.4,0.4c-1.1,0.1-2.2,0.3-3.2,0.4c-2.2,0.3-3.5,0.7-3.9,1.2
		l-0.4,6.6c-0.2,0.2-0.5,0.4-0.8,0.4l-1.2-0.1c-0.1,0-0.2,0-0.3,0V119.7z"/>
	<path class="ploEtiquetaTxt" d="M535.8,120.8c0-0.4,0-0.9-0.1-1.5c-0.1-0.6-0.1-1.3-0.2-2.1c0-0.8-0.1-1.5-0.1-2.3c0-0.8,0.1-1.5,0.2-2.2
		c0.3-1.5,0.9-2.2,1.8-2.2c0.6,0.2,1.1,0.4,1.3,0.7s0.3,0.6,0.3,1c0,0.4-0.1,0.9-0.3,1.5c-0.7,2-1.1,3.7-1.1,5.3
		c0,0.5,0,1.1,0.1,1.7c0.4,1.5,1.6,2.3,3.7,2.3c1.1,0,2.1-0.2,3.1-0.6c1.9-0.7,3.2-1.5,3.8-2.5c0.2-1,0.3-1.9,0.3-2.7s0-1.5-0.1-2.1
		c-0.1-0.6-0.1-1.3-0.2-2c-0.1-0.7-0.1-1.5-0.2-2.4c0.3-0.1,0.6-0.2,0.9-0.2c0.3,0,0.6,0.1,0.9,0.4c0.3,0.3,0.6,0.8,0.8,1.7
		c0.2,0.8,0.4,1.8,0.4,2.9c0.1,1.1,0.1,2.2,0.1,3.4c0,1.2,0,2.3,0,3.4c0,1.1,0,2,0.1,2.8c-0.3,0.2-0.5,0.4-0.8,0.4
		c-0.9,0-1.6-0.9-2-2.7c-0.3,0.2-0.8,0.6-1.5,0.9c-1.5,0.8-3.2,1.4-5.3,1.6c-0.4,0-0.8,0.1-1.3,0.1s-1.1-0.1-1.8-0.3s-1.4-0.6-2-1.2
		C536.3,123,535.9,122,535.8,120.8z"/>
	<path class="ploEtiquetaTxt" d="M554.1,112.2c0-1.2-0.1-2.3-0.1-3.3c0-1-0.1-1.7-0.1-2.1c0-0.5-0.2-1.6-0.6-3.4c0.2-0.3,0.4-0.5,0.6-0.8
		c0.2-0.2,0.5-0.4,0.8-0.4c0.8,0,1.4,3.3,1.8,10c0.2,3.8,0.3,7.7,0.3,11.5c0,1-0.7,1.6-2.2,1.6l-0.3,0c0-1.2,0-2.7-0.1-4.5
		c-0.1-1.8-0.1-3.4-0.2-4.8C554.2,114.7,554.1,113.4,554.1,112.2z"/>
	<path class="ploEtiquetaTxt" d="M560.7,118c-1.1,0-1.7-0.3-1.7-0.9c0-0.3,0.1-0.5,0.4-0.6c0.3-0.1,0.7-0.2,1.4-0.3c0.6-0.1,1.5-0.2,2.4-0.4
		c1-0.2,2-0.3,3.1-0.4c0.4,0,0.8,0.1,1.1,0.2c0.4,0.2,0.7,0.5,0.7,0.8c0,0.1-0.1,0.3-0.2,0.4c-0.1,0.2-0.4,0.3-0.8,0.5L560.7,118z"
		/>
	<path class="ploEtiquetaTxt" d="M583.3,121.7c0.9-0.4,1.8-0.7,2.7-1c0.9-0.3,1.7-0.5,2.5-0.5c0.8,0,1.2,0.2,1.2,0.7c0,0.1,0,0.3-0.1,0.5
		s-0.4,0.5-0.9,0.8c-0.6,0.3-1.2,0.6-2,0.9c-0.8,0.3-1.7,0.6-2.6,0.8c-0.9,0.2-1.9,0.5-2.8,0.6c-1.9,0.4-3.2,0.6-4,0.6
		c-0.8,0-1.6-0.1-2.5-0.3s-1.8-0.5-2.5-0.9c-1.8-0.9-2.7-2.3-2.7-4.2c0-0.1,0-0.4,0-0.8s0.2-1,0.5-1.7c0.3-0.8,0.8-1.5,1.5-2.3
		c0.7-0.8,1.5-1.4,2.4-2.1c1.9-1.4,3.9-2.2,5.9-2.6c0.7-0.2,1.3-0.2,1.8-0.2c0.5,0,0.9,0,1.2,0c0.3,0,0.6,0,1,0.1
		c0.3,0,0.6,0.1,0.9,0.3c0.6,0.3,0.9,0.9,0.9,1.7c0,0.5-0.4,1.1-1.1,1.6c-0.2,0.1-0.4,0.3-0.5,0.4c-0.1-0.5-0.3-1-0.4-1.3
		c-0.2-0.4-0.6-0.5-1.2-0.5c-2.7,0.6-4.9,1.4-6.9,2.5c-2.2,1.3-3.2,2.6-3.2,4.1c0,0.2,0,0.3,0,0.5c0,1.4,0.6,2.5,1.7,3.1
		c0.8,0.5,1.9,0.7,3.2,0.7c1.3,0,2.5-0.2,3.4-0.5S582.4,122.1,583.3,121.7z"/>
	<path class="ploEtiquetaTxt" d="M592.4,118.8c0-2.7,1.1-4.8,3.4-6.4c1.8-1.3,4-2.1,6.6-2.3c0.1,0,0.4,0,0.9,0c0.5,0,1.2,0.1,2,0.4
		c1.8,0.6,3.1,1.7,3.8,3.3c0.3,0.6,0.4,1.2,0.4,1.6c0,0.4,0,0.7,0,0.9c0,2.8-1.1,5-3.2,6.7c-2,1.5-4.5,2.2-7.4,2.2
		c-2.1,0-3.8-0.5-4.8-1.5C592.9,122.8,592.4,121.2,592.4,118.8z M594.7,119.7c0,1.4,0.4,2.3,1.1,2.8c0.6,0.4,1.5,0.5,2.8,0.5
		c1.3,0,2.5-0.1,3.5-0.3c1-0.2,1.9-0.6,2.7-1c1.7-1.1,2.5-2.8,2.5-5c0-1.4-0.4-2.5-1.1-3.3c-0.8-0.9-1.8-1.4-3.1-1.4
		c-0.9,0.2-1.8,0.3-2.7,0.5c-0.9,0.2-1.7,0.5-2.5,1C596.4,114.6,595.2,116.7,594.7,119.7z"/>
	<path class="ploEtiquetaTxt" d="M611.6,112.2c0-1.2-0.1-2.3-0.1-3.3c0-1-0.1-1.7-0.1-2.1c0-0.5-0.2-1.6-0.6-3.4c0.2-0.3,0.4-0.5,0.6-0.8
		c0.2-0.2,0.5-0.4,0.8-0.4c0.8,0,1.4,3.3,1.8,10c0.2,3.8,0.3,7.7,0.3,11.5c0,1-0.7,1.6-2.2,1.6l-0.3,0c0-1.2,0-2.7-0.1-4.5
		c-0.1-1.8-0.1-3.4-0.2-4.8C611.7,114.7,611.6,113.4,611.6,112.2z"/>
	<path class="ploEtiquetaTxt" d="M617.3,118.8c0-2.7,1.1-4.8,3.4-6.4c1.8-1.3,4-2.1,6.6-2.3c0.1,0,0.4,0,0.9,0c0.5,0,1.2,0.1,2,0.4
		c1.8,0.6,3.1,1.7,3.8,3.3c0.3,0.6,0.4,1.2,0.4,1.6c0,0.4,0,0.7,0,0.9c0,2.8-1.1,5-3.2,6.7c-2,1.5-4.5,2.2-7.4,2.2
		c-2.1,0-3.8-0.5-4.8-1.5C617.8,122.8,617.3,121.2,617.3,118.8z M619.6,119.7c0,1.4,0.4,2.3,1.1,2.8c0.6,0.4,1.5,0.5,2.8,0.5
		c1.3,0,2.5-0.1,3.5-0.3c1-0.2,1.9-0.6,2.7-1c1.7-1.1,2.5-2.8,2.5-5c0-1.4-0.4-2.5-1.1-3.3c-0.8-0.9-1.8-1.4-3.1-1.4
		c-0.9,0.2-1.8,0.3-2.7,0.5c-0.9,0.2-1.7,0.5-2.5,1C621.2,114.6,620.1,116.7,619.6,119.7z"/>
	<path class="ploEtiquetaTxt" d="M652.5,112.9c-0.9-0.7-2.2-1-3.6-1c-1.4,0-2.7,0.3-3.9,0.8c-2.3,0.9-3.8,2.2-4.6,3.6c-0.4,0.7-0.5,1.4-0.5,2.2
		c0,0.1,0,0.5,0,1.1c0,0.6,0.1,1.5,0.3,2.5c0.2,1,0.3,2.1,0.3,3.2c-0.5,0-0.9,0.1-1.1,0.2c-0.3,0.1-0.5,0.1-0.7,0.1
		s-0.4-0.1-0.5-0.3c-0.1-0.2-0.3-0.5-0.5-1c0-0.1-0.1-0.5-0.1-1.1c-0.1-0.6-0.2-1.4-0.3-2.3c-0.1-0.9-0.2-1.9-0.3-3
		c-0.1-1.1-0.2-2.1-0.4-3.2c-0.2-2.3-0.4-3.9-0.6-5c0-0.5,0.4-0.8,1.2-0.8c0.5,0,0.8,0.2,1.1,0.6c0.3,0.4,0.5,0.8,0.6,1.4
		c0.2,0.5,0.3,1,0.3,1.5c0.1,0.5,0.1,0.8,0.2,1c3-2.7,6.7-4,11.1-4c0.5,0,1,0,1.6,0c0.1,0,0.3,0,0.5,0c0.2,0,0.4,0.1,0.6,0.4
		c0.2,0.3,0.4,0.7,0.4,1.1C653.4,112.2,653.1,112.8,652.5,112.9z"/>
</g>
<g>
	<path class="ploEtiquetaTxt" d="M379,147.1l-3-0.1c-0.8,0-1.7,0.1-2.7,0.2c0,0.9-0.1,2-0.3,3.4c-0.5,5-0.7,8.2-0.7,9.6c0,1.5,0,2.5,0.1,3.1
		l-3.2,0.2l1-16.7l-7.2-0.4c-0.2,0-0.3-0.1-0.4-0.4c-0.1-0.3-0.2-0.6-0.2-0.8c0-0.2,0.1-0.5,0.3-0.8c0.2-0.3,0.4-0.4,0.7-0.4
		c1.6,0.1,3.3,0.2,5,0.3c3.1,0.3,5.7,0.4,7.9,0.4l2.1-0.1c1.6,0,3.3-0.2,4.9-0.5c0.4,0.1,0.6,0.6,0.7,1.7c0,0.2,0,0.4,0,0.5
		C382.5,146.8,380.9,147.1,379,147.1z"/>
	<path class="ploEtiquetaTxt" d="M401.5,151.3c-0.9-0.7-2.2-1-3.6-1c-1.4,0-2.7,0.3-3.9,0.8c-2.3,0.9-3.8,2.2-4.6,3.6c-0.4,0.7-0.5,1.4-0.5,2.2
		c0,0.1,0,0.5,0,1.1c0,0.6,0.1,1.5,0.3,2.5c0.2,1,0.3,2.1,0.3,3.2c-0.5,0-0.9,0.1-1.1,0.2c-0.3,0.1-0.5,0.1-0.7,0.1
		s-0.4-0.1-0.5-0.3c-0.1-0.2-0.3-0.5-0.5-1c0-0.1-0.1-0.5-0.1-1.1c-0.1-0.6-0.2-1.4-0.3-2.3c-0.1-0.9-0.2-1.9-0.3-3
		c-0.1-1.1-0.2-2.1-0.4-3.2c-0.2-2.3-0.4-3.9-0.6-5c0-0.5,0.4-0.8,1.2-0.8c0.5,0,0.8,0.2,1.1,0.6c0.3,0.4,0.5,0.8,0.6,1.4
		c0.2,0.5,0.3,1,0.3,1.5c0.1,0.5,0.1,0.8,0.2,1c3-2.7,6.7-4,11.1-4c0.5,0,1,0,1.6,0c0.1,0,0.3,0,0.5,0c0.2,0,0.4,0.1,0.6,0.4
		c0.2,0.3,0.4,0.7,0.4,1.1C402.5,150.5,402.1,151.2,401.5,151.3z"/>
	<path class="ploEtiquetaTxt" d="M404.8,157.2c0-2.7,1.1-4.8,3.4-6.4c1.8-1.3,4-2.1,6.6-2.3c0.1,0,0.4,0,0.9,0c0.5,0,1.2,0.1,2,0.4
		c1.8,0.6,3.1,1.7,3.8,3.3c0.3,0.6,0.4,1.2,0.4,1.6c0,0.4,0,0.7,0,0.9c0,2.8-1.1,5-3.2,6.7c-2,1.5-4.5,2.2-7.4,2.2
		c-2.1,0-3.8-0.5-4.8-1.5C405.4,161.2,404.8,159.5,404.8,157.2z M407.2,158c0,1.4,0.4,2.3,1.1,2.8c0.6,0.4,1.5,0.5,2.8,0.5
		c1.3,0,2.5-0.1,3.5-0.3c1-0.2,1.9-0.6,2.7-1c1.7-1.1,2.5-2.8,2.5-5c0-1.4-0.4-2.5-1.1-3.3c-0.8-0.9-1.8-1.4-3.1-1.4
		c-0.9,0.2-1.8,0.3-2.7,0.5c-0.9,0.2-1.7,0.5-2.5,1C408.8,153,407.7,155,407.2,158z"/>
	<path class="ploEtiquetaTxt" d="M438.9,175.6l-0.9,0h-0.8l-0.5-14.8c-0.9,0.8-2.2,1.5-4,2.1c-1.6,0.5-3.1,0.8-4.4,0.8c-1,0-1.9-0.1-2.6-0.4
		s-1.2-0.6-1.5-1c-0.3-0.3-0.5-0.7-0.5-1.1c0-0.4,0-0.7,0-0.9c0-1.3,0.3-2.6,0.9-3.8c0.6-1.2,1.5-2.4,2.7-3.3c1.2-1,2.5-1.7,3.9-2.3
		c1.4-0.5,2.8-0.8,4.1-0.8h0.5c0.7,0,1.2,0.2,1.8,0.7c0.5,0.5,1,1,1.4,1.6c0,3.9,0,7.8,0,11.6c0,3.8,0.2,7.7,0.4,11.6H438.9z
		 M436,154c0-1.1-0.2-1.6-0.7-1.6c-2.3,0-4.3,0.7-6.1,2c-1.9,1.5-2.9,3.3-2.9,5.5c0,1.1,0.6,1.6,1.8,1.7c0.3,0,0.8,0,1.3,0
		c0.6,0,1.2-0.1,2-0.2c0.8-0.1,1.5-0.4,2.1-0.8c1.5-0.8,2.2-2.1,2.2-3.8L436,154z"/>
	<path class="ploEtiquetaTxt" d="M441,159.1c0-0.4,0-0.9-0.1-1.5c-0.1-0.6-0.1-1.3-0.2-2.1c0-0.8-0.1-1.5-0.1-2.3c0-0.8,0.1-1.5,0.2-2.2
		c0.3-1.5,0.9-2.2,1.8-2.2c0.6,0.2,1.1,0.4,1.3,0.7s0.3,0.6,0.3,1c0,0.4-0.1,0.9-0.3,1.5c-0.7,2-1.1,3.7-1.1,5.3
		c0,0.5,0,1.1,0.1,1.7c0.4,1.5,1.6,2.3,3.7,2.3c1.1,0,2.1-0.2,3.1-0.6c1.9-0.7,3.2-1.5,3.8-2.5c0.2-1,0.3-1.9,0.3-2.7s0-1.5-0.1-2.1
		c-0.1-0.6-0.1-1.3-0.2-2c-0.1-0.7-0.1-1.5-0.2-2.4c0.3-0.1,0.6-0.2,0.9-0.2c0.3,0,0.6,0.1,0.9,0.4c0.3,0.3,0.6,0.8,0.8,1.7
		c0.2,0.8,0.4,1.8,0.4,2.9c0.1,1.1,0.1,2.2,0.1,3.4c0,1.2,0,2.3,0,3.4c0,1.1,0,2,0.1,2.8c-0.3,0.2-0.5,0.4-0.8,0.4
		c-0.9,0-1.6-0.9-2-2.7c-0.3,0.2-0.8,0.6-1.5,0.9c-1.5,0.8-3.2,1.4-5.3,1.6c-0.4,0-0.8,0.1-1.3,0.1s-1.1-0.1-1.8-0.3s-1.4-0.6-2-1.2
		C441.6,161.4,441.2,160.4,441,159.1z"/>
	<path class="ploEtiquetaTxt" d="M465.7,161.3c2,0,5-0.9,8.9-2.7c0.2,0,0.5,0.1,0.6,0.3c0.2,0.2,0.2,0.4,0.2,0.6c-0.9,1.5-2.6,2.7-5.2,3.6
		c-2.5,0.9-4.9,1-7.1,0.4c-2.5-0.7-4-2.1-4.6-4.2c0-0.4-0.1-1-0.1-1.7c0-0.7,0.2-1.7,0.6-2.9c0.4-1.2,1-2.3,1.9-3.4
		c0.9-1.1,2-1.9,3.2-2.5c1.2-0.6,2.5-0.9,3.9-0.9c1.3,0,2.8,0.5,4.4,1.4c0.8,0.4,1.4,0.9,1.8,1.5c0.5,0.5,0.7,1.1,0.7,1.7
		c0,0.2,0,0.3,0,0.5c0,1.4-0.7,2.2-2,2.6c-0.6,0.2-1.2,0.2-2,0.2l-4.9-0.2c-1.6,0-2.9,0.3-3.7,1c-0.5,0.4-0.8,1-1,1.7
		C461.9,160.2,463.3,161.3,465.7,161.3z M471.7,150.8c-0.5-0.4-1-0.6-1.6-0.8c-0.5-0.2-1-0.2-1.4-0.2c-0.4,0-0.9,0.1-1.8,0.4
		c-0.8,0.2-1.5,0.5-2.2,0.8c-1.6,0.7-2.3,1.5-2.3,2.3c1.8,0.2,3.2,0.2,4.1,0.2c2.5,0,4.2-0.2,5.1-0.6c0.5-0.2,0.8-0.5,0.8-0.8
		C472.4,151.6,472.2,151.2,471.7,150.8z"/>
	<path class="ploEtiquetaTxt" d="M478.1,150.5c0-1.2-0.1-2.3-0.1-3.3c0-1-0.1-1.7-0.1-2.1c0-0.5-0.2-1.6-0.6-3.4c0.2-0.3,0.4-0.5,0.6-0.8
		c0.2-0.2,0.5-0.4,0.8-0.4c0.8,0,1.4,3.3,1.8,10c0.2,3.8,0.3,7.7,0.3,11.5c0,1-0.7,1.6-2.2,1.6l-0.3,0c0-1.2,0-2.7-0.1-4.5
		c-0.1-1.8-0.1-3.4-0.2-4.8C478.2,153,478.1,151.8,478.1,150.5z"/>
	<path class="ploEtiquetaTxt" d="M489.8,161.3c2,0,5-0.9,8.9-2.7c0.2,0,0.5,0.1,0.6,0.3c0.2,0.2,0.2,0.4,0.2,0.6c-0.9,1.5-2.6,2.7-5.2,3.6
		c-2.5,0.9-4.9,1-7.1,0.4c-2.5-0.7-4-2.1-4.6-4.2c0-0.4-0.1-1-0.1-1.7c0-0.7,0.2-1.7,0.6-2.9c0.4-1.2,1-2.3,1.9-3.4
		c0.9-1.1,2-1.9,3.2-2.5c1.2-0.6,2.5-0.9,3.9-0.9c1.3,0,2.8,0.5,4.4,1.4c0.8,0.4,1.4,0.9,1.8,1.5c0.5,0.5,0.7,1.1,0.7,1.7
		c0,0.2,0,0.3,0,0.5c0,1.4-0.7,2.2-2,2.6c-0.6,0.2-1.2,0.2-2,0.2l-4.9-0.2c-1.6,0-2.9,0.3-3.7,1c-0.5,0.4-0.8,1-1,1.7
		C486,160.2,487.5,161.3,489.8,161.3z M495.8,150.8c-0.5-0.4-1-0.6-1.6-0.8c-0.5-0.2-1-0.2-1.4-0.2c-0.4,0-0.9,0.1-1.8,0.4
		c-0.8,0.2-1.5,0.5-2.2,0.8c-1.6,0.7-2.3,1.5-2.3,2.3c1.8,0.2,3.2,0.2,4.1,0.2c2.5,0,4.2-0.2,5.1-0.6c0.5-0.2,0.8-0.5,0.8-0.8
		C496.6,151.6,496.3,151.2,495.8,150.8z"/>
	<path class="ploEtiquetaTxt" d="M513.2,154.9c2.5,0,3.7,0.6,3.7,1.9c0,0.9-0.7,2-2.1,3.3c-2,1.9-4.8,3.4-8.3,4.5c-0.2,0-0.3-0.2-0.5-0.5
		c-0.2-0.3-0.3-0.6-0.4-0.7c-0.1-0.2-0.2-0.3-0.2-0.3c2.6-0.9,4.7-1.9,6.4-3.1c1.1-0.8,1.7-1.5,1.7-2c0-0.5-0.7-0.8-2-0.8
		c-1.3,0-3.3,0.3-5.8,0.9c-1.2,0-2.2-0.5-3-1.2c-0.7-0.7-1.1-1.4-1.1-2.1s0.2-1.4,0.6-2c0.4-0.6,0.9-1.2,1.6-1.7
		c0.7-0.5,1.5-1,2.4-1.4c2.2-1.1,4.5-1.6,6.9-1.6c0.7,0,1.4,0.1,2,0.2c0.5,0,0.9,0.2,0.9,0.7c0.1,0.5,0.1,1.2,0.1,2.3
		c-1.3-0.6-2.8-0.9-4.5-0.9c-2.1,0-3.8,0.4-5.1,1.2c-1.4,0.8-2.1,1.9-2.2,3.2c0,0.6,0.5,0.9,1.4,0.9l2.5-0.3
		C510.2,155.1,511.9,154.9,513.2,154.9z"/>
</g>
<path class="ploLogoSombra" d="M1022.4,362.8c29.5,0,53.4,10.3,53.4,23.1c0,12-21.4,21.9-48.7,23c1.5,0.1,3,0.1,4.6,0.1
	c29.5,0,53.4-11.1,53.4-24.9s-23.9-24.9-53.4-24.9c-14.4,0-27.5,2.7-37.1,7C1002.8,364,1012.3,362.8,1022.4,362.8"/>
<path class="ploLogoSombra" d="M904.9,332.6c11.8,0,23.7,0,35.5,0v5.6h-8.9v33.6h-17.8v-33.6h-8.9V332.6z"/>
<path class="ploLogoSombra" d="M946.2,332.6h19.5v33.6h5.9v-33.6h18.9v28.5c0,5.9-5.1,10.7-11.3,10.7h-21.8c-6.2,0-11.3-4.8-11.3-10.7V332.6z"
	/>
<rect x="913.9" y="378.6" class="ploLogoSombra" width="5.3" height="22.4"/>
<path class="ploLogoSombra" d="M921.3,378.6h4.6h0.3h5c3,0,5.6,1.5,7.1,3.8v-3.8h6.4c4.5,0,8.3,3.5,8.3,7.8v14.5h-5v-13.5c0-2.3-2-4.3-4.5-4.3
	h-4.7c0.5,1,0.7,2.1,0.7,3.2v14.5h-5v-13.5c0-2.3-2-4.3-4.5-4.3h-3.8v17.7h-4.9V378.6z"/>
<path class="ploLogoSombra" d="M1035.2,378.6h4.6h0.3h7.7c4.5,0,8.3,3.5,8.3,7.8v14.5h-5v-13.5c0-2.3-2-4.3-4.5-4.3h-6.5v17.7h-4.9V378.6z"/>
<path class="ploLogoSombra" d="M965.2,378.3h4.3c5.6,0,10.2,4.3,10.2,9.6v19.4h-5.4v-10.9V388c0-2.5-2.1-4.5-4.8-4.5h-4.3
	c-2.6,0-4.8,2-4.8,4.5v3.4h11.1v5.2h-11.1h-4.6H955v-8.6C955,382.7,959.6,378.3,965.2,378.3"/>
<path class="ploLogoSombra" d="M981.9,392.1v-4.1c0-5.3,4.6-9.6,10.2-9.6h16.5v5.1h-16.5c-2.6,0-4.8,2-4.8,4.5v4.1c0,2.5,2.1,4.5,4.8,4.5h11.2
	V386h5.3v10.5v3v2.1h-16.5C986.5,401.7,981.9,397.3,981.9,392.1"/>
<path class="ploLogoSombra" d="M1030.9,390.7h-12.2c-4.3,0-4.3,6.1,0,6.1h12.2v4.8h-13.6c-6.5,0-9.3-7.8-4.2-11.6c0,0,1-1.2-0.1-2.2
	c-4.5-2.8-2.4-9.5,3-9.5h15v3.9h-13.2c-2.9,0-2.9,4.2,0,4.2h13.2V390.7z"/>
<path class="ploLogoTu" d="M1021.5,363.6c29.5,0,53.4,10.3,53.4,23.1c0,12-21.4,21.9-48.7,23c1.5,0.1,3,0.1,4.6,0.1
	c29.5,0,53.4-11.1,53.4-24.9s-23.9-24.9-53.4-24.9c-14.4,0-27.5,2.7-37.1,7C1001.9,364.8,1011.4,363.6,1021.5,363.6"/>
<path class="ploLogoTu" d="M904,333.5c11.8,0,23.7,0,35.5,0v5.6h-8.9v33.6h-17.8v-33.6H904V333.5z"/>
<path class="ploLogoTu" d="M945.4,333.5h19.5v33.6h5.9v-33.6h18.9V362c0,5.9-5.1,10.7-11.3,10.7h-21.8c-6.2,0-11.3-4.8-11.3-10.7V333.5z"
	/>
<rect x="913" y="379.4" class="ploLogoImagen" width="5.3" height="22.4"/>
<path class="ploLogoImagen" d="M920.4,379.4h4.6h0.3h5c3,0,5.6,1.5,7.1,3.8v-3.8h6.4c4.5,0,8.3,3.5,8.3,7.8v14.5h-5v-13.5c0-2.3-2-4.3-4.5-4.3
	h-4.7c0.5,1,0.7,2.1,0.7,3.2v14.5h-5v-13.5c0-2.3-2-4.3-4.5-4.3h-3.8v17.7h-4.9V379.4z"/>
<path class="ploLogoImagen" d="M1034.4,379.4h4.6h0.3h7.7c4.5,0,8.3,3.5,8.3,7.8v14.5h-5v-13.5c0-2.3-2-4.3-4.5-4.3h-6.5v17.7h-4.9V379.4z"/>
<path class="ploLogoImagen" d="M964.3,379.2h4.3c5.6,0,10.2,4.3,10.2,9.6v19.4h-5.4v-10.9v-8.5c0-2.5-2.1-4.5-4.8-4.5h-4.3
	c-2.6,0-4.8,2-4.8,4.5v3.4h11.1v5.2h-11.1h-4.6h-0.7v-8.6C954.2,383.5,958.7,379.2,964.3,379.2"/>
<path class="ploLogoImagen" d="M981,392.9v-4.1c0-5.3,4.6-9.6,10.2-9.6h16.5v5.1h-16.5c-2.6,0-4.8,2-4.8,4.5v4.1c0,2.5,2.1,4.5,4.8,4.5h11.2
	v-10.5h5.3v10.5v3v2.1h-16.5C985.6,402.5,981,398.2,981,392.9"/>
<path class="ploLogoImagen" d="M1030,391.6h-12.2c-4.3,0-4.3,6.1,0,6.1h12.2v4.8h-13.6c-6.5,0-9.3-7.8-4.2-11.6c0,0,1-1.2-0.1-2.2
	c-4.5-2.8-2.4-9.5,3-9.5h15v3.9h-13.2c-2.9,0-2.9,4.2,0,4.2h13.2V391.6z"/>
</svg>
