<?xml version="1.0" encoding="utf-8"?>
<!-- Generator: Adobe Illustrator 16.0.0, SVG Export Plug-In . SVG Version: 6.00 Build 0)  -->
<!DOCTYPE svg PUBLIC "-//W3C//DTD SVG 1.1//EN" "http://www.w3.org/Graphics/SVG/1.1/DTD/svg11.dtd">
<svg version="1.1" id="Capa_1" xmlns="http://www.w3.org/2000/svg" xmlns:xlink="http://www.w3.org/1999/xlink" x="0px" y="0px"
	 width="146.6px" height="146.6px" viewBox="0 0 146.6 146.6" style="enable-background:new 0 0 146.6 146.6;" xml:space="preserve"
	>
<style type="text/css">
<![CDATA[
	.disenol1{
		fill:none;
		stroke:#000000;
		stroke-width:0.1;
		stroke-dasharray:8px;
		stroke-dashoffset:0;
		animation: disenol1 1s forwards ;
	}
	.disenol2{
		fill:none;
		stroke:#000000;
		stroke-width:0.1;
		stroke-dasharray:140px;
		stroke-dashoffset:0;
		animation: disenol2 1s forwards ;
	}	
	.disenol3{
		fill:none;
		stroke:#000000;
		stroke-width:0.1;
		stroke-dasharray:45px;
		stroke-dashoffset:0;
		animation: disenol3 1s forwards ;
	}
	.disenoCa2{
		fill:none;
		stroke:#000000;
		stroke-width:0.1;
		opacity:0;
		animation: disenol1 1s forwards ;
	}
	.disenoCa3{
		fill:none;
		stroke:#000000;
		stroke-width:0.1;
		animation: disenol1 1s forwards ;
	}
	@keyframes disenol1{
		0%{
			stroke-dashoffset:8px;			
		}100%{
			stroke-dashoffset:0px;
	}}
	@keyframes disenol2{
		0%{
			stroke-dashoffset:140px;
		}100%{
			stroke-dashoffset:0px;
	}}	
	@keyframes disenol3{
		0%{
			stroke-dashoffset:45px;
		}100%{
			stroke-dashoffset:0px;
	}}	
	.disenoCa0{
		fill-rule:evenodd;
		clip-rule:evenodd;
		fill:#FFFFFF;
		opacity:0;
		animation: disenoC 1s forwards 1s;
	}	
	.disenoCa1{
		fill-rule:evenodd;
		clip-rule:evenodd;
		fill:#FF6600;
		opacity:0;
		animation: disenoC 1s forwards 1s;
	}
	.disenoCa{
		fill:#FFFFFF;
		opacity:0;
		animation: disenoC 1s forwards 1s;
	}
	.disenonegro{
		fill-rule:evenodd;
		clip-rule:evenodd;
		opacity:0;
		animation: disenoC 1s forwards 1s;
	}
	.disenosombraout{
		fill:#C5C6C6;
		opacity:0;
		animation: disenoCa 1s forwards 1.5s;
	}
	.disenonegrodos{
		fill-rule:evenodd;
		clip-rule:evenodd;
		fill:#2B2A29;
		opacity:0;
		animation: disenoC 1s forwards 1s;
	}
	@keyframes disenoC{
		0%{
			opacity:0;
		}100%{
			opacity:1;
	}}	
	.disenoSombra{
		clip-path:url(#SVGID_2_);
		fill:url(#SVGID_3_);
		opacity:0;
		animation: disenoCa 1s forwards 1.5s;
	}
	.disenobtn{		
		fill:#EBECEC;
		opacity:0;
		animation: disenoCa 1s forwards 1.5s;
	}	
	.disenofondo{
		fill:#00FF00;
		opacity:0;		
	}
	@keyframes disenoCa{
		0%{
			opacity:0;
		}100%{
			opacity:1;
	}}	
]]>
</style>
<rect x="0.3" y="0.3" class="disenofondo" width="146.2" height="146"/>
<g>
	<path class="disenobtn" d="M54.7,2.3c30.1,0,54.5,24.4,54.5,54.5c0,30.1-24.4,54.5-54.5,54.5c-30.1,0-54.5-24.4-54.5-54.5
		C0.3,26.7,24.7,2.3,54.7,2.3"/>
	<g>
		<defs>
			<path id="SVGID_1_" d="M14.6,56.5l49.5,52.9c18-3.9,32.6-16.7,39.2-33.5l-45-49.1c0.3,0.3,0.4,0.6,0.4,1L14.6,56.5z"/>
		</defs>
		<clipPath id="SVGID_2_">
			<use xlink:href="#SVGID_1_"  style="overflow:visible;"/>
		</clipPath>
		<linearGradient id="SVGID_3_" gradientUnits="userSpaceOnUse" x1="31.1201" y1="35.8066" x2="86.7701" y2="100.3666">
			<stop  offset="0" style="stop-color:#C5C6C6"/>
			<stop  offset="1" style="stop-color:#EBECEC"/>
		</linearGradient>
		<rect x="14.6" y="26.8" class="disenoSombra" width="88.6" height="82.6"/>
	</g>
	<path class="disenosombraout" d="M54.7,111.2c30.1,0,54.5-24.4,54.5-54.5c0-22.5-13.6-41.7-33-50.1c18.1,8.9,30.5,27.4,30.5,48.9
		c0,7.7-1.6,15.1-4.5,21.8c0,0,0,0,0,0c-5.6,13.9-15.4,23.4-29.3,28.6c-4.6,1.9-9.4,3.1-14.5,3.7c-2,0.2-4.1,0.3-6.2,0.3
		c-7.6,0-14.9-1.6-21.4-4.4C38,109.2,46.2,111.2,54.7,111.2"/>
</g>
<g>
	<g>
		<path class="disenoCa" d="M36.8,53.6c0.6,0,1.1,0.5,1.1,1.1c0,0.6-0.5,1.1-1.1,1.1s-1.1-0.5-1.1-1.1C35.6,54.1,36.1,53.6,36.8,53.6
			 M15,55.4c0,0.8,0.7,1.5,1.5,1.5h14.2l-0.6,5.2c-0.5,0-0.8,0.3-0.8,0.7c0,0.4,0.3,0.7,0.7,0.7h13.5c0.4,0,0.7-0.3,0.7-0.7
			c0-0.4-0.3-0.7-0.7-0.7l-0.7-5.2H57c0.8,0,1.5-0.7,1.5-1.5v-3H15V55.4z"/>
		<path class="disenoCa" d="M88.7,64.8H55.9v10.6c0,1.3,1.1,2.3,2.3,2.3h4.1V73c0-2.9,2.4-5.3,5.3-5.3H77c2.9,0,5.3,2.4,5.3,5.3v4.7h4.1
			c1.3,0,2.3-1.1,2.3-2.3V64.8z"/>
	</g>
	<path class="disenonegro" d="M88.7,75.4c0,1.3-1.1,2.3-2.3,2.3h-4.1V73c0-2.9-2.4-5.3-5.3-5.3h-9.4c-2.9,0-5.3,2.4-5.3,5.3v4.7h-4.1
		c-1.3,0-2.3-1.1-2.3-2.3V64.8h32.9V75.4z M79.5,82.4l-2-4.3l0,0c0-0.1-0.1-0.1-0.1-0.2c0,0,0,0,0,0c0,0-0.1-0.1-0.1-0.1
		c0,0,0,0-0.1,0c-0.1,0-0.1,0-0.2,0h-9.4c-0.1,0-0.1,0-0.2,0c0,0,0,0-0.1,0c0,0-0.1,0.1-0.1,0.1c0,0,0,0,0,0c0,0-0.1,0.1-0.1,0.2
		l0,0l-2,4.3h-3.9l4.4-5.9h13.5l4.4,5.9H79.5z M65.6,84.2l2.4-5.3h8.6l2.4,5.3H65.6z M78.8,75.4H65.8v-0.6c0-0.3,0.3-0.6,0.6-0.6
		h11.7c0.3,0,0.6,0.3,0.6,0.6V75.4z M81.1,77.3l-1.2-1.6v-1c0-1-0.8-1.8-1.8-1.8H66.4c-1,0-1.8,0.8-1.8,1.8v1l-1.2,1.6V73
		c0-2.3,1.8-4.1,4.1-4.1H77c2.3,0,4.1,1.8,4.1,4.1V77.3z M60.7,59.1c0.4-0.5,1.1-0.8,1.7-0.8h2.8v2.3h-0.6c-0.3,0-0.6,0.3-0.6,0.6
		c0,0.3,0.3,0.6,0.6,0.6h15.3c0.3,0,0.6-0.3,0.6-0.6c0-0.3-0.3-0.6-0.6-0.6h-0.6v-2.3h2.8c0.7,0,1.3,0.3,1.7,0.8l4.1,4.5H56.6
		L60.7,59.1z M66.4,51.3h11.7v9.4H66.4V51.3z M89.9,64C89.9,64,89.9,64,89.9,64c0-0.1-0.1-0.2-0.1-0.2l-5-5.5
		c-0.7-0.7-1.6-1.2-2.6-1.2h-2.8v-5.9c0-0.6-0.5-1.2-1.2-1.2H66.4c-0.6,0-1.2,0.5-1.2,1.2v5.9h-2.8c-1,0-1.9,0.4-2.6,1.2l-5,5.5
		c0,0-0.1,0.1-0.1,0.2c0,0,0,0,0,0c0,0.1,0,0.1,0,0.2c0,0,0,0,0,0v11.2c0,1.9,1.6,3.5,3.5,3.5h4.1l-2.1,2.8
		c-0.3,0.4-0.3,0.8-0.1,1.2c0.2,0.4,0.6,0.6,1.1,0.6h3.4l0,0.1c-0.2,0.4-0.1,0.8,0.1,1.1c0.2,0.3,0.6,0.5,1,0.5H79
		c0.4,0,0.8-0.2,1-0.5c0.2-0.3,0.2-0.8,0.1-1.1l0-0.1h3.4c0.4,0,0.9-0.3,1-0.6c0.2-0.4,0.2-0.9-0.1-1.2l-2.1-2.8h4.1
		c1.9,0,3.5-1.6,3.5-3.5V64.2c0,0,0,0,0,0C89.9,64.1,89.9,64.1,89.9,64z"/>
	<g>
		<path class="disenoCa1" d="M71,81.8c-1.3,0-2.4-0.5-2.4-1c0-0.5,1-1,2.2-1c-0.1,0-0.1,0-0.2,0c-1.3,0-2.4,0.5-2.4,1.1s1.1,1.1,2.4,1.1
			c0.6,0,1.2-0.1,1.7-0.3C71.9,81.7,71.4,81.8,71,81.8"/>
		<path class="disenoCa1" d="M76.3,83.1c-0.5,0-1.1,0-1.6,0v-0.3h0.4v-1.5h0.8v1.5h0.4V83.1z"/>
		<path class="disenoCa1" d="M74.4,83.1h-0.9v-1.5h-0.3v1.5h-0.9v-1.3c0-0.3,0.2-0.5,0.5-0.5h1c0.3,0,0.5,0.2,0.5,0.5V83.1z"/>
		<rect x="75.6" y="80.1" class="disenonegrodos" width="0.2" height="1"/>
		<path class="disenonegrodos" d="M75.5,81.1h-0.2h0h-0.2c-0.1,0-0.3-0.1-0.3-0.2v0.2h-0.3c-0.2,0-0.4-0.2-0.4-0.4v-0.7h0.2v0.6
			c0,0.1,0.1,0.2,0.2,0.2h0.2c0,0,0-0.1,0-0.1v-0.7h0.2v0.6c0,0.1,0.1,0.2,0.2,0.2h0.2v-0.8h0.2V81.1z"/>
		<path class="disenonegrodos" d="M70.4,81.1h-0.2h0h-0.3c-0.2,0-0.4-0.2-0.4-0.4v-0.7h0.2v0.6c0,0.1,0.1,0.2,0.2,0.2h0.3v-0.8h0.2V81.1z"/>
		<path class="disenonegrodos" d="M73.6,81.1h-0.2c-0.3,0-0.5-0.2-0.5-0.4v-0.9h0.2v0.5v0.4c0,0.1,0.1,0.2,0.2,0.2h0.2c0.1,0,0.2-0.1,0.2-0.2
			v-0.2h-0.5v-0.2h0.5H74h0v0.4C74,80.9,73.8,81.1,73.6,81.1"/>
		<path class="disenonegrodos" d="M72.8,80.5v0.2c0,0.2-0.2,0.4-0.5,0.4h-0.7v-0.2h0.7c0.1,0,0.2-0.1,0.2-0.2v-0.2c0-0.1-0.1-0.2-0.2-0.2h-0.5
			v0.5h-0.2v-0.5v-0.1V80h0.7C72.6,80,72.8,80.2,72.8,80.5"/>
		<path class="disenonegrodos" d="M70.6,80.5h0.6c0.2,0,0.2-0.3,0-0.3h-0.6V80h0.6c0.3,0,0.4,0.4,0.2,0.5c0,0,0,0.1,0,0.1
			c0.2,0.1,0.1,0.4-0.1,0.4h-0.7v-0.2h0.6c0.1,0,0.1-0.2,0-0.2h-0.6V80.5z"/>
	</g>
	<path class="disenonegrodos" d="M74.2,54.9L73,54.7c0.1-0.4,0.3-0.7,0.6-0.9c0.3-0.2,0.7-0.3,1.2-0.3c0.6,0,1,0.1,1.3,0.3
		c0.3,0.2,0.4,0.5,0.4,0.9c0,0.2-0.1,0.4-0.2,0.5c-0.1,0.2-0.3,0.3-0.5,0.4c0.2,0,0.3,0.1,0.4,0.2c0.2,0.1,0.3,0.2,0.4,0.4
		c0.1,0.2,0.1,0.3,0.1,0.6c0,0.3-0.1,0.5-0.2,0.8c-0.1,0.2-0.3,0.4-0.6,0.6c-0.3,0.1-0.6,0.2-1.1,0.2c-0.4,0-0.8,0-1-0.1
		c-0.2-0.1-0.4-0.2-0.6-0.4c-0.2-0.2-0.3-0.4-0.4-0.7l1.3-0.2c0.1,0.3,0.1,0.4,0.2,0.5c0.1,0.1,0.2,0.2,0.4,0.2
		c0.2,0,0.3-0.1,0.4-0.2c0.1-0.1,0.2-0.3,0.2-0.5c0-0.2-0.1-0.4-0.2-0.5c-0.1-0.1-0.3-0.2-0.5-0.2c-0.1,0-0.2,0-0.4,0.1l0.1-0.9
		c0.1,0,0.1,0,0.2,0c0.2,0,0.3-0.1,0.4-0.2c0.1-0.1,0.2-0.2,0.2-0.4c0-0.1,0-0.3-0.1-0.3c-0.1-0.1-0.2-0.1-0.3-0.1
		c-0.2,0-0.3,0-0.4,0.1C74.3,54.5,74.3,54.7,74.2,54.9 M70.7,56.4l-0.5-1.7l-0.5,1.7H70.7z M71,57.4h-1.6l-0.2,0.8h-1.5l1.8-4.7H71
		l1.7,4.7h-1.5L71,57.4z"/>
	<g>
		<rect x="15.9" y="28.4" class="disenoCa0" width="41.8" height="22.5"/>
		<path class="disenol3" d="M20.3,42.7H21c0.4,0,0.7-0.3,0.7-0.7c0-0.4-0.3-0.7-0.7-0.7h-0.7c-0.4,0-0.7,0.3-0.7,0.7
			C19.5,42.4,19.9,42.7,20.3,42.7z M20.3,40.5H21c0.4,0,0.7-0.3,0.7-0.7S21.5,39,21,39h-0.7c-0.4,0-0.7,0.3-0.7,0.7
			S19.9,40.5,20.3,40.5z M20.3,38.2H21c0.4,0,0.7-0.3,0.7-0.7c0-0.4-0.3-0.7-0.7-0.7h-0.7c-0.4,0-0.7,0.3-0.7,0.7
			C19.5,37.9,19.9,38.2,20.3,38.2z M20.3,33.7H21c0.4,0,0.7-0.3,0.7-0.7c0-0.4-0.3-0.7-0.7-0.7h-0.7c-0.4,0-0.7,0.3-0.7,0.7
			C19.5,33.4,19.9,33.7,20.3,33.7z M19.5,48.7h2.2c0.4,0,0.7-0.3,0.7-0.7V31.5c0-0.4-0.3-0.7-0.7-0.7h-2.2c-0.4,0-0.7,0.3-0.7,0.7
			v16.5C18.8,48.4,19.1,48.7,19.5,48.7z"/>
		<path class="disenoCa2" d="M20.3,36H21c0.4,0,0.7-0.3,0.7-0.7s-0.3-0.7-0.7-0.7h-0.7c-0.4,0-0.7,0.3-0.7,0.7C19.5,35.6,19.9,36,20.3,36
			z"/>
		<path class="disenonegrodos" d="M20.3,36H21c0.4,0,0.7-0.3,0.7-0.7s-0.3-0.7-0.7-0.7h-0.7c-0.4,0-0.7,0.3-0.7,0.7S19.9,36,20.3,36"/>
		<path class="disenoCa2" d="M20.3,47.2H21c0.4,0,0.7-0.3,0.7-0.7V45c0-0.4-0.3-0.7-0.7-0.7h-0.7c-0.4,0-0.7,0.3-0.7,0.7v1.5
			C19.5,46.9,19.9,47.2,20.3,47.2z"/>
		<path class="disenonegrodos" d="M20.3,47.2H21c0.4,0,0.7-0.3,0.7-0.7v-1.5c0-0.4-0.3-0.7-0.7-0.7h-0.7c-0.4,0-0.7,0.3-0.7,0.7v1.5
			C19.5,46.9,19.9,47.2,20.3,47.2"/>
		<path class="disenoCa2" d="M54.7,30c0-0.4-0.3-0.7-0.7-0.7h-6.7c-0.4,0-0.7,0.3-0.7,0.7v4.5h8.2V30z"/>
		<path class="disenoCa2" d="M53.6,30h-4.5c0.2,0,0.4,0.2,0.4,0.4c0,0.2-0.2,0.4-0.4,0.4h4.5c0.2,0,0.4-0.2,0.4-0.4
			C54,30.1,53.8,30,53.6,30z"/>
		<path class="disenoCa2" d="M48,30.3c0-0.2,0.2-0.4,0.4-0.4h-0.7c-0.2,0-0.4,0.2-0.4,0.4c0,0.2,0.2,0.4,0.4,0.4h0.7
			C48.2,30.7,48,30.5,48,30.3z"/>
		<path class="disenoCa2" d="M53.6,33h-3c0.2,0,0.4,0.2,0.4,0.4c0,0.2-0.2,0.4-0.4,0.4h3c0.2,0,0.4-0.2,0.4-0.4C54,33.1,53.8,33,53.6,33z
			"/>
		<path class="disenoCa2" d="M49.5,33.3c0-0.2,0.2-0.4,0.4-0.4h-2.2c-0.2,0-0.4,0.2-0.4,0.4c0,0.2,0.2,0.4,0.4,0.4h2.2
			C49.7,33.7,49.5,33.5,49.5,33.3z"/>
		<path class="disenoCa2" d="M51.8,31.8c0-0.2,0.2-0.4,0.4-0.4h-4.5c-0.2,0-0.4,0.2-0.4,0.4c0,0.2,0.2,0.4,0.4,0.4h4.5
			C51.9,32.2,51.8,32,51.8,31.8z"/>
		<path class="disenoCa2" d="M53.6,31.5h-0.7c0.2,0,0.4,0.2,0.4,0.4c0,0.2-0.2,0.4-0.4,0.4h0.7c0.2,0,0.4-0.2,0.4-0.4
			C54,31.6,53.8,31.5,53.6,31.5z"/>
		<path class="disenol1" d="M27.1,43.5c0.3,0,0.6-0.3,0.6-0.6v-2.3c0-0.3-0.3-0.6-0.6-0.6s-0.6,0.3-0.6,0.6v2.3
			C26.5,43.2,26.8,43.5,27.1,43.5z"/>
		<path class="disenol1" d="M41,34.2h2.3c0.3,0,0.6-0.3,0.6-0.6c0-0.3-0.3-0.6-0.6-0.6H41c-0.3,0-0.6,0.3-0.6,0.6
			C40.5,33.9,40.7,34.2,41,34.2z"/>
		<path class="disenol1" d="M27.1,35.3c-0.3,0-0.6,0.3-0.6,0.6v2.3c0,0.3,0.3,0.6,0.6,0.6s0.6-0.3,0.6-0.6v-2.3
			C27.7,35.6,27.4,35.3,27.1,35.3z"/>
		<path class="disenol1" d="M26.5,47.5c0,0.3,0.3,0.6,0.6,0.6c0.3,0,0.6-0.3,0.6-0.6v-2.3c0-0.3-0.3-0.6-0.6-0.6c-0.3,0-0.6,0.3-0.6,0.6
			V47.5z"/>
		<path class="disenol1" d="M36.4,34.2h2.3c0.3,0,0.6-0.3,0.6-0.6c0-0.3-0.3-0.6-0.6-0.6h-2.3c-0.3,0-0.6,0.3-0.6,0.6
			C35.8,33.9,36.1,34.2,36.4,34.2z"/>
		<path class="disenol1" d="M26.5,33.6c0,0.3,0.3,0.6,0.6,0.6h2.3c0.3,0,0.6-0.3,0.6-0.6c0-0.3-0.3-0.6-0.6-0.6h-2.3
			C26.8,33,26.5,33.3,26.5,33.6z"/>
		<path class="disenol1" d="M31.2,33.6c0,0.3,0.3,0.6,0.6,0.6h2.3c0.3,0,0.6-0.3,0.6-0.6c0-0.3-0.3-0.6-0.6-0.6h-2.3
			C31.4,33,31.2,33.3,31.2,33.6z"/>
		<path class="disenoCa3" d="M51.6,42.3l0,0.5l0,2.9c0,0.3,0.3,0.4,0.5,0.3l0.9-0.4l0.8,1.8c0.1,0.2,0.2,0.3,0.4,0.3c0.1,0,0.1,0,0.2,0
			c0.2-0.1,0.3-0.4,0.2-0.6l-0.8-1.8l0.9-0.4c0.2-0.1,0.3-0.4,0.1-0.6l-2.3-2.1L52.2,42C52,41.8,51.6,41.9,51.6,42.3z"/>
		<path class="disenoCa1" d="M43.3,39.2c3.7,0,6.6,1.3,6.6,2.9c0,1.5-2.6,2.7-6,2.8c0.2,0,0.4,0,0.6,0c3.7,0,6.6-1.4,6.6-3.1
			s-3-3.1-6.6-3.1c-1.8,0-3.4,0.3-4.6,0.9C40.8,39.3,42,39.2,43.3,39.2"/>
		<path class="disenoCa1" d="M28.7,35.5c1.5,0,2.9,0,4.4,0v0.7H32v4.2h-2.2v-4.2h-1.1V35.5z"/>
		<path class="disenoCa1" d="M33.8,35.5h2.4v4.2H37v-4.2h2.3V39c0,0.7-0.6,1.3-1.4,1.3h-2.7c-0.8,0-1.4-0.6-1.4-1.3V35.5z"/>
		<rect x="29.8" y="41.2" class="disenonegrodos" width="0.7" height="2.8"/>
		<path class="disenonegrodos" d="M30.8,41.2h0.6h0H32c0.4,0,0.7,0.2,0.9,0.5v-0.5h0.8c0.6,0,1,0.4,1,1v1.8H34v-1.7c0-0.3-0.3-0.5-0.6-0.5h-0.6
			C33,41.9,33,42,33,42.1v1.8h-0.6v-1.7c0-0.3-0.3-0.5-0.6-0.5h-0.5v2.2h-0.6V41.2z"/>
		<path class="disenonegrodos" d="M44.9,41.2h0.6h0h1c0.6,0,1,0.4,1,1v1.8h-0.6v-1.7c0-0.3-0.3-0.5-0.6-0.5h-0.8v2.2h-0.6V41.2z"/>
		<path class="disenonegrodos" d="M36.2,41.1h0.5c0.7,0,1.3,0.5,1.3,1.2v2.4h-0.7v-1.3v-1.1c0-0.3-0.3-0.6-0.6-0.6h-0.5c-0.3,0-0.6,0.3-0.6,0.6
			v0.4H37v0.6h-1.4H35h-0.1v-1.1C34.9,41.7,35.5,41.1,36.2,41.1"/>
		<path class="disenonegrodos" d="M38.3,42.8v-0.5c0-0.7,0.6-1.2,1.3-1.2h2v0.6h-2c-0.3,0-0.6,0.3-0.6,0.6v0.5c0,0.3,0.3,0.6,0.6,0.6h1.4v-1.3
			h0.7v1.3v0.4V44h-2C38.8,44,38.3,43.5,38.3,42.8"/>
		<path class="disenonegrodos" d="M44.3,42.7h-1.5c-0.5,0-0.5,0.8,0,0.8h1.5V44h-1.7c-0.8,0-1.2-1-0.5-1.4c0,0,0.1-0.1,0-0.3
			c-0.6-0.3-0.3-1.2,0.4-1.2h1.9v0.5h-1.6c-0.4,0-0.4,0.5,0,0.5h1.6V42.7z"/>
		<path class="disenonegrodos" d="M15.9,51h41.8V28.4H15.9V51z M57,27H16.5c-0.8,0-1.5,0.7-1.5,1.5v24h43.4v-24C58.5,27.6,57.8,27,57,27z"/>
	</g>
</g>
<g>
	<path class="disenol2" d="M15.9,51h41.8V28.4H15.9V51z M57,27H16.5c-0.8,0-1.5,0.7-1.5,1.5v24h43.4v-24C58.5,27.6,57.8,27,57,27z"/>
	<path class="disenol2" d="M36.8,53.6c0.6,0,1.1,0.5,1.1,1.1c0,0.6-0.5,1.1-1.1,1.1s-1.1-0.5-1.1-1.1C35.6,54.1,36.1,53.6,36.8,53.6z
		 M15,55.4c0,0.8,0.7,1.5,1.5,1.5h14.2l-0.6,5.2c-0.5,0-0.8,0.3-0.8,0.7c0,0.4,0.3,0.7,0.7,0.7h13.5c0.4,0,0.7-0.3,0.7-0.7
		c0-0.4-0.3-0.7-0.7-0.7l-0.7-5.2H57c0.8,0,1.5-0.7,1.5-1.5v-3H15V55.4z"/>
	<path class="disenol2" d="M88.8,75.4c0,1.3-1.1,2.3-2.3,2.3h-4.1V73c0-2.9-2.4-5.3-5.3-5.3h-9.4c-2.9,0-5.3,2.4-5.3,5.3v4.7h-4.1
		c-1.3,0-2.3-1.1-2.3-2.3V64.8h32.9V75.4z M79.5,82.4l-2-4.3l0,0c0-0.1-0.1-0.1-0.1-0.2c0,0,0,0,0,0c0,0-0.1-0.1-0.1-0.1
		c0,0,0,0-0.1,0c-0.1,0-0.1,0-0.2,0h-9.4c-0.1,0-0.1,0-0.2,0c0,0,0,0-0.1,0c0,0-0.1,0.1-0.1,0.1c0,0,0,0,0,0c0,0-0.1,0.1-0.1,0.2
		l0,0l-2,4.3h-3.9l4.4-5.9h13.5l4.4,5.9H79.5z M65.6,84.2l2.4-5.3h8.6l2.4,5.3H65.6z M78.8,75.4H65.8v-0.6c0-0.3,0.3-0.6,0.6-0.6
		h11.7c0.3,0,0.6,0.3,0.6,0.6V75.4z M81.1,77.3l-1.2-1.6v-1c0-1-0.8-1.8-1.8-1.8H66.4c-1,0-1.8,0.8-1.8,1.8v1l-1.2,1.6V73
		c0-2.3,1.8-4.1,4.1-4.1H77c2.3,0,4.1,1.8,4.1,4.1V77.3z M60.7,59.1c0.4-0.5,1.1-0.8,1.7-0.8h2.8v2.3h-0.6c-0.3,0-0.6,0.3-0.6,0.6
		c0,0.3,0.3,0.6,0.6,0.6h15.3c0.3,0,0.6-0.3,0.6-0.6c0-0.3-0.3-0.6-0.6-0.6h-0.6v-2.3h2.8c0.7,0,1.3,0.3,1.7,0.8l4.1,4.5H56.6
		L60.7,59.1z M66.4,51.3h11.7v9.4H66.4V51.3z M89.9,64C89.9,64,89.9,64,89.9,64c0-0.1-0.1-0.2-0.1-0.2l-5-5.5
		c-0.7-0.7-1.6-1.2-2.6-1.2h-2.8v-5.9c0-0.6-0.5-1.2-1.2-1.2H66.4c-0.6,0-1.2,0.5-1.2,1.2v5.9h-2.8c-1,0-1.9,0.4-2.6,1.2l-5,5.5
		c0,0-0.1,0.1-0.1,0.2c0,0,0,0,0,0c0,0.1,0,0.1,0,0.2c0,0,0,0,0,0v11.2c0,1.9,1.6,3.5,3.5,3.5h4.1l-2.1,2.8
		c-0.3,0.4-0.3,0.8-0.1,1.2c0.2,0.4,0.6,0.6,1.1,0.6h3.4l0,0.1c-0.2,0.4-0.1,0.8,0.1,1.1c0.2,0.3,0.6,0.5,1,0.5H79
		c0.4,0,0.8-0.2,1-0.5c0.2-0.3,0.2-0.8,0.1-1.1l0-0.1h3.4c0.4,0,0.9-0.3,1.1-0.6c0.2-0.4,0.2-0.9-0.1-1.2l-2.1-2.8h4.1
		c1.9,0,3.5-1.6,3.5-3.5V64.2c0,0,0,0,0,0C89.9,64.1,89.9,64.1,89.9,64z"/>
</g>
</svg>
