<?xml version="1.0" encoding="utf-8"?>
<!-- Generator: Adobe Illustrator 16.0.0, SVG Export Plug-In . SVG Version: 6.00 Build 0)  -->
<!DOCTYPE svg PUBLIC "-//W3C//DTD SVG 1.1//EN" "http://www.w3.org/Graphics/SVG/1.1/DTD/svg11.dtd">
<svg version="1.1" id="Capa_1" xmlns="http://www.w3.org/2000/svg" xmlns:xlink="http://www.w3.org/1999/xlink" x="0px" y="0px"
	 width="1442px" height="731.4px" viewBox="0 0 1442 731.4" style="enable-background:new 0 0 1442 731.4;" xml:space="preserve">
<style type="text/css">
<![CDATA[
	.corFondo{fill-rule:evenodd;clip-rule:evenodd;fill:#009846;opacity:0;}
	.corIndicaLinea{fill:none;stroke:#000000;stroke-width:3;opacity:0;
		stroke-dasharray:200px;
		stroke-dashoffset:0;
		animation: corIndicaLinea 1s forwards 2s;
	}
	@keyframes corIndicaLinea{
		0%{stroke-dashoffset:200px;opacity:1;
		}100%{stroke-dashoffset:0px;opacity:1;
	}}
	.corIndicaNegro{fill-rule:evenodd;clip-rule:evenodd;opacity:0;
		animation: corColr 1s forwards 3s;
	}	
	@keyframes corColr{
		0%{opacity:0;
		}100%{opacity:1;
	}}
	.cortitulo{fill-rule:evenodd;clip-rule:evenodd;fill:#FEFEFE;opacity:0;
		overflow: hidden;
		transform: translateX(-150%);
		animation: corMov 1s forwards;
	}
	@keyframes corMov{
		0%{transform: translateX(-150%);opacity:0;
		}50%{transform: translateX(20%);opacity:1;
		}100%{transform: translateX(-2%);opacity:1;
	}}
	.corEtiquetaTxt{fill-rule:evenodd;clip-rule:evenodd;fill:#000000;opacity:0;
		animation: corEtiquetaTxt 1s forwards 5s;
		transform: translateX(2%);
	}
	.corEtiqueta{fill-rule:evenodd;clip-rule:evenodd;fill:#FFFFFF;opacity:0;
		animation: corEtiquetaTxt 1s forwards 4s;
		transform: translateX(2%);
	}
	.corEtiquetaLine{fill:none;stroke:#898989;stroke-width:3;opacity:0;
		transform: translateX(2%);
		stroke-dasharray:300px;
		stroke-dashoffset:0;
		animation: corEtiquetaLine 1s forwards 4s;
	}
	@keyframes corEtiquetaLine{
		0%{stroke-dashoffset:300px;opacity:1;
		}100%{stroke-dashoffset:0px;opacity:1;
	}}	
	@keyframes corEtiquetaTxt{
		0%{opacity:0;
		}100%{opacity:1;
	}}
	.corLogoimagen{fill-rule:evenodd;clip-rule:evenodd;fill:#000000;opacity:0;
		animation: corLogo 1s forwards 8s;
	}
	.corLogoSombra{fill-rule:evenodd;clip-rule:evenodd;fill:#FFFFFF;opacity:0;
		animation: corLogo 1s forwards 8s;
	}
	.corLogoNaranja{fill-rule:evenodd;clip-rule:evenodd;fill:#FF6600;opacity:0;
		animation: corLogo 1s forwards 8s;
	}
	.corLogoLineas{fill:none;stroke:#2B2A29;stroke-width:0.3;opacity:0;
		stroke-dasharray:350px;
		stroke-dashoffset:0;
		animation: corLogoLineas 2s forwards 6s;
	}
	@keyframes corLogoLineas{
		0%{stroke-dashoffset:350px;opacity:0;
		}99%{stroke-dashoffset:0px;opacity:1;
		}100%{stroke-dashoffset:0px;opacity:0;
	}}
	@keyframes corLogo{
		0%{opacity:0;
		}100%{opacity:1;
	}}
]]>
</style>
<rect y="2" class="corFondo" width="1440" height="729.4"/>
<polygon class="corIndicaNegro" points="421.5,407.4 416.3,411.2 422.2,394.3 433.2,408.4 427.1,406.5 434.1,414 424.7,409.8 417.3,416.8 "/>
<path class="corIndicaNegro" d="M569.2,525.3c9.4,0,17,7.6,17,17c0,9.4-7.6,17-17,17c-9.4,0-17-7.6-17-17C552.1,532.9,559.7,525.3,569.2,525.3"
	/>
<path class="corIndicaLinea" d="M556.6,526.6c1.3-57.2-124.7-78-132.8-121.2"/>
<path class="corIndicaNegro" d="M558,379.7c0,1.4,0.4,2.3,1.1,2.8c0.5,0.3,1.5,0.5,2.8,0.5c1.3,0,2.4-0.1,3.4-0.3c1-0.2,1.9-0.5,2.6-1
	c1.6-1.1,2.5-2.7,2.5-4.9c0-1.3-0.3-2.4-1-3.2c-0.8-0.9-1.8-1.3-3-1.3c-0.9,0.2-1.7,0.3-2.6,0.5c-0.9,0.2-1.7,0.5-2.4,1
	C559.6,374.8,558.5,376.8,558,379.7 M555.7,378.9c0-2.6,1.1-4.7,3.3-6.2c1.8-1.2,3.9-2,6.4-2.3c0.1,0,0.4,0,0.9,0
	c0.5,0,1.1,0.1,1.9,0.4c1.8,0.6,3,1.7,3.7,3.2c0.3,0.6,0.4,1.1,0.4,1.6c0,0.4,0,0.7,0,0.9c0,2.7-1,4.9-3.1,6.5
	c-1.9,1.4-4.3,2.2-7.2,2.2c-2.1,0-3.6-0.5-4.7-1.4C556.3,382.8,555.7,381.2,555.7,378.9z M546.9,381.7c0.9-0.4,1.8-0.7,2.6-1
	c0.9-0.3,1.7-0.5,2.4-0.5c0.8,0,1.2,0.2,1.2,0.7c0,0.1,0,0.3-0.1,0.5s-0.3,0.5-0.9,0.8c-0.5,0.3-1.2,0.6-2,0.9
	c-0.8,0.3-1.6,0.5-2.5,0.8c-0.9,0.2-1.8,0.4-2.7,0.6c-1.8,0.4-3.1,0.6-3.9,0.6c-0.8,0-1.6-0.1-2.5-0.3c-0.9-0.2-1.7-0.5-2.5-0.9
	c-1.8-0.9-2.7-2.3-2.7-4.1c0-0.1,0-0.4,0-0.8c0-0.4,0.2-1,0.5-1.7c0.3-0.7,0.8-1.5,1.5-2.2c0.7-0.7,1.4-1.4,2.3-2
	c1.8-1.3,3.8-2.2,5.8-2.6c0.7-0.2,1.3-0.2,1.8-0.2c0.5,0,0.9,0,1.2,0c0.3,0,0.6,0,1,0.1c0.3,0,0.6,0.1,0.9,0.2
	c0.6,0.3,0.9,0.8,0.9,1.7c0,0.5-0.4,1-1.1,1.5c-0.2,0.1-0.4,0.3-0.5,0.4c-0.1-0.5-0.3-0.9-0.4-1.3c-0.2-0.4-0.6-0.5-1.1-0.5
	c-2.6,0.5-4.8,1.4-6.7,2.5c-2.1,1.2-3.1,2.6-3.1,3.9c0,0.2,0,0.3,0,0.5c0,1.4,0.5,2.4,1.6,3c0.8,0.4,1.9,0.7,3.1,0.7
	c1.3,0,2.4-0.2,3.3-0.4C545.1,382.4,546.1,382.1,546.9,381.7z M528.5,365.3c0-0.8,0.4-1.1,1.3-1.1c0.6,0,1.1,0.1,1.4,0.4
	c0.1,0.2,0.1,0.5,0.1,0.7c0,0.2-0.1,0.5-0.3,0.7c-0.2,0.2-0.4,0.3-0.8,0.3c-0.4,0-0.7-0.1-1.1-0.2
	C528.9,365.8,528.7,365.6,528.5,365.3z M531.6,369.7c0.3,4.1,0.5,8.8,0.7,14.2c-0.1,0.7-0.7,1-1.6,1c-0.2,0-0.5-0.1-0.7-0.2
	c-0.3-0.1-0.4-0.2-0.5-0.4v-14.7H531.6z M523.9,372.4c0-1.2-0.1-2.2-0.1-3.2c0-0.9-0.1-1.6-0.1-2.1c0-0.4-0.2-1.5-0.5-3.3
	c0.2-0.3,0.4-0.5,0.6-0.8c0.2-0.2,0.5-0.4,0.8-0.4c0.8,0,1.4,3.2,1.8,9.7c0.2,3.7,0.3,7.5,0.3,11.2c0,1-0.7,1.5-2.1,1.5l-0.3,0
	c0-1.1,0-2.6-0.1-4.4c-0.1-1.8-0.1-3.3-0.2-4.6C524,374.9,524,373.6,523.9,372.4z M520.7,364.2c0.3-0.4,0.6-0.6,1-0.6
	c0.2,0,0.4,0.1,0.5,0.3c0.1,0.2,0.2,0.4,0.1,0.6c0,0.2-0.1,0.4-0.2,0.6c-0.1,0.2-0.2,0.4-0.4,0.6c-0.4,0.4-1.1,1.1-2.3,2l-1-0.9
	L520.7,364.2z M521.2,369.7c0.3,4.1,0.5,8.8,0.7,14.2c-0.1,0.7-0.7,1-1.6,1c-0.2,0-0.5-0.1-0.7-0.2c-0.3-0.1-0.4-0.2-0.5-0.4v-14.7
	H521.2z M515.8,373.2c-0.9-0.7-2.1-1-3.5-1c-1.4,0-2.6,0.3-3.8,0.8c-2.2,0.9-3.7,2.1-4.5,3.5c-0.4,0.7-0.5,1.4-0.5,2.1
	c0,0.1,0,0.5,0,1.1c0,0.6,0.1,1.4,0.3,2.4c0.2,1,0.3,2,0.3,3.1c-0.5,0-0.8,0.1-1.1,0.2c-0.3,0.1-0.5,0.1-0.7,0.1
	c-0.2,0-0.4-0.1-0.5-0.3c-0.1-0.2-0.3-0.5-0.5-1c0-0.1-0.1-0.5-0.1-1.1c-0.1-0.6-0.1-1.4-0.2-2.2c-0.1-0.9-0.2-1.8-0.3-2.9
	c-0.1-1-0.2-2.1-0.3-3.1c-0.2-2.2-0.4-3.8-0.6-4.8c0-0.5,0.4-0.8,1.1-0.8c0.5,0,0.8,0.2,1.1,0.6c0.3,0.4,0.5,0.8,0.6,1.3
	c0.2,0.5,0.3,1,0.3,1.5c0.1,0.5,0.1,0.8,0.1,1c2.9-2.6,6.5-3.9,10.8-3.9c0.5,0,1,0,1.5,0c0.1,0,0.3,0,0.5,0s0.4,0.1,0.6,0.4
	c0.2,0.3,0.4,0.7,0.4,1.1C516.7,372.4,516.4,373.1,515.8,373.2z M491.7,381.7c0.9-0.4,1.8-0.7,2.6-1c0.9-0.3,1.7-0.5,2.4-0.5
	c0.8,0,1.2,0.2,1.2,0.7c0,0.1,0,0.3-0.1,0.5s-0.3,0.5-0.9,0.8c-0.5,0.3-1.2,0.6-2,0.9c-0.8,0.3-1.6,0.5-2.5,0.8
	c-0.9,0.2-1.8,0.4-2.7,0.6c-1.8,0.4-3.1,0.6-3.9,0.6c-0.8,0-1.6-0.1-2.5-0.3c-0.9-0.2-1.7-0.5-2.5-0.9c-1.8-0.9-2.7-2.3-2.7-4.1
	c0-0.1,0-0.4,0-0.8c0-0.4,0.2-1,0.5-1.7c0.3-0.7,0.8-1.5,1.5-2.2c0.7-0.7,1.4-1.4,2.3-2c1.8-1.3,3.8-2.2,5.8-2.6
	c0.7-0.2,1.3-0.2,1.8-0.2c0.5,0,0.9,0,1.2,0c0.3,0,0.6,0,1,0.1c0.3,0,0.6,0.1,0.9,0.2c0.6,0.3,0.9,0.8,0.9,1.7c0,0.5-0.4,1-1.1,1.5
	c-0.2,0.1-0.4,0.3-0.5,0.4c-0.1-0.5-0.3-0.9-0.4-1.3c-0.2-0.4-0.6-0.5-1.1-0.5c-2.6,0.5-4.8,1.4-6.7,2.5c-2.1,1.2-3.1,2.6-3.1,3.9
	c0,0.2,0,0.3,0,0.5c0,1.4,0.5,2.4,1.6,3c0.8,0.4,1.9,0.7,3.1,0.7c1.3,0,2.4-0.2,3.3-0.4C489.9,382.4,490.8,382.1,491.7,381.7z
	 M474.1,374.6c0-1.3-0.6-1.9-1.9-1.9c-0.2,0-0.3,0-0.5,0c-1.6,0-3.3,0.8-5.1,2.3c-0.8,0.7-1.5,1.5-2.1,2.4c-0.9,1.2-1.3,2.4-1.3,3.3
	c0,1.3,0.7,2.1,2.2,2.3c2,0,3.8-0.9,5.6-2.7c0.8-0.8,1.4-1.6,1.9-2.5C473.8,376.6,474.1,375.5,474.1,374.6z M474.3,379.7
	c-1.6,2.6-3.8,4.2-6.6,4.8c-0.6,0.1-1.2,0.2-1.7,0.2c-0.5,0-0.9,0-1.3,0c-0.3,0-0.7-0.1-1.1-0.1c-0.4-0.1-0.8-0.2-1.1-0.4
	c-0.8-0.5-1.2-1.1-1.2-1.9c-0.1-0.4-0.1-0.8-0.1-1.3c0-0.5,0.1-1.1,0.3-1.9c0.2-0.8,0.6-1.7,1.2-2.6c0.6-0.9,1.3-1.8,2.1-2.6
	c1.7-1.7,3.6-2.7,5.6-3.2c0.6-0.1,1.1-0.2,1.6-0.2c0.5,0,0.9,0,1.3,0.1c1.3,0,2.1,0.9,2.6,2.6c0.3,1.1,0.5,2.6,0.5,4.6
	c0.1,2,0.1,3.5,0.2,4.5c0.1,1.1,0.2,2,0.4,2.9H475c-0.1-0.6-0.2-1.1-0.2-1.6s-0.1-0.9-0.1-1.3C474.6,381.2,474.4,380.4,474.3,379.7z
	 M442.3,372.7c-0.5-0.3-1-0.6-1.5-0.8c-0.5-0.2-1-0.2-1.3-0.2c-0.4,0-0.9,0.1-1.7,0.3c-0.8,0.2-1.5,0.5-2.1,0.8
	c-1.5,0.7-2.3,1.4-2.3,2.2c1.7,0.2,3.1,0.2,3.9,0.2c2.4,0,4.1-0.2,4.9-0.6c0.5-0.2,0.8-0.5,0.8-0.8
	C443.1,373.4,442.8,373.1,442.3,372.7z M436.5,382.9c1.9,0,4.8-0.9,8.7-2.6c0.2,0,0.4,0.1,0.6,0.2c0.2,0.2,0.2,0.4,0.2,0.6
	c-0.9,1.5-2.5,2.6-5,3.5c-2.5,0.8-4.8,1-6.9,0.4c-2.4-0.6-3.9-2-4.4-4.1c0-0.4-0.1-1-0.1-1.7s0.2-1.6,0.5-2.8c0.4-1.1,1-2.2,1.9-3.3
	c0.9-1,1.9-1.8,3.1-2.4c1.2-0.6,2.4-0.9,3.8-0.9c1.3,0,2.7,0.4,4.3,1.3c0.7,0.4,1.3,0.9,1.8,1.4c0.4,0.5,0.7,1.1,0.7,1.6
	c0,0.2,0,0.3,0,0.5c0,1.3-0.7,2.2-1.9,2.5c-0.5,0.2-1.2,0.2-1.9,0.2l-4.7-0.2c-1.6,0-2.8,0.3-3.6,1c-0.5,0.4-0.8,0.9-1,1.7
	C432.8,381.9,434.2,382.9,436.5,382.9z M414.4,380c0,1.7,0.6,2.6,1.9,2.6c0.2,0,0.4,0,0.7-0.1c0.9,0,2-0.3,3.3-0.8
	c2.5-1,4-1.8,4.6-2.6v-4.4c0-0.8-0.6-1.1-1.9-1.1c-0.2,0-0.4,0-0.6,0c-0.3,0-0.6,0.1-1.2,0.2c-0.5,0.1-1.1,0.3-1.8,0.6
	c-0.7,0.3-1.3,0.6-1.9,1.1c-1.3,0.9-2.2,1.9-2.8,3.1C414.5,379.1,414.4,379.5,414.4,380z M428.1,358.8c0,2.1-0.1,4.1-0.2,6.1
	c-0.1,2-0.2,4-0.3,5.9c-0.1,1.9-0.1,3.9-0.1,6.1s0.2,4.4,0.5,6.8c0,0.5-0.1,0.9-0.3,1.1c-0.2,0.2-0.5,0.3-0.9,0.3
	c-1,0-1.5-0.9-1.5-2.6v-1.1c-3.1,2.3-5.7,3.5-7.9,3.5c-0.9,0-1.7-0.2-2.6-0.6c-0.9-0.4-1.7-1.3-2.5-2.5c-0.1-0.5-0.2-1.1-0.2-1.6
	c0-0.5,0.1-1.2,0.3-2c0.2-0.8,0.6-1.6,1.3-2.4c0.6-0.8,1.4-1.6,2.3-2.2c2-1.4,4.2-2,6.5-2c1,0,2,0.2,2.9,0.5c0-0.4,0-1.1,0.1-2.1
	s0.1-2,0.2-3.1c0.1-2.8,0.2-4.5,0.3-5c0-0.5,0.1-1,0.2-1.3c0.1-0.4,0.2-0.7,0.3-0.9C426.7,359.1,427.3,358.8,428.1,358.8z
	 M394.8,374.6c0-1.3-0.6-1.9-1.9-1.9c-0.2,0-0.3,0-0.5,0c-1.6,0-3.3,0.8-5.1,2.3c-0.8,0.7-1.5,1.5-2.1,2.4c-0.9,1.2-1.3,2.4-1.3,3.3
	c0,1.3,0.7,2.1,2.2,2.3c2,0,3.8-0.9,5.6-2.7c0.8-0.8,1.4-1.6,1.9-2.5C394.5,376.6,394.8,375.5,394.8,374.6z M394.9,379.7
	c-1.6,2.6-3.8,4.2-6.6,4.8c-0.6,0.1-1.2,0.2-1.7,0.2c-0.5,0-0.9,0-1.3,0c-0.3,0-0.7-0.1-1.1-0.1c-0.4-0.1-0.8-0.2-1.1-0.4
	c-0.8-0.5-1.2-1.1-1.2-1.9c-0.1-0.4-0.1-0.8-0.1-1.3c0-0.5,0.1-1.1,0.3-1.9c0.2-0.8,0.6-1.7,1.2-2.6c0.6-0.9,1.3-1.8,2.1-2.6
	c1.7-1.7,3.6-2.7,5.6-3.2c0.6-0.1,1.1-0.2,1.6-0.2c0.5,0,0.9,0,1.3,0.1c1.3,0,2.1,0.9,2.6,2.6c0.3,1.1,0.5,2.6,0.5,4.6
	c0.1,2,0.1,3.5,0.2,4.5c0.1,1.1,0.2,2,0.4,2.9h-1.9c-0.1-0.6-0.2-1.1-0.2-1.6c0-0.5-0.1-0.9-0.1-1.3
	C395.2,381.2,395.1,380.4,394.9,379.7z M379.6,373.2c-0.9-0.7-2.1-1-3.5-1c-1.4,0-2.6,0.3-3.8,0.8c-2.2,0.9-3.7,2.1-4.5,3.5
	c-0.4,0.7-0.5,1.4-0.5,2.1c0,0.1,0,0.5,0,1.1c0,0.6,0.1,1.4,0.3,2.4s0.3,2,0.3,3.1c-0.5,0-0.8,0.1-1.1,0.2c-0.3,0.1-0.5,0.1-0.7,0.1
	s-0.4-0.1-0.5-0.3c-0.1-0.2-0.3-0.5-0.5-1c0-0.1-0.1-0.5-0.1-1.1c-0.1-0.6-0.1-1.4-0.2-2.2c-0.1-0.9-0.2-1.8-0.3-2.9
	c-0.1-1-0.2-2.1-0.3-3.1c-0.2-2.2-0.4-3.8-0.6-4.8c0-0.5,0.4-0.8,1.1-0.8c0.5,0,0.8,0.2,1.1,0.6c0.3,0.4,0.5,0.8,0.6,1.3
	c0.2,0.5,0.3,1,0.3,1.5c0.1,0.5,0.1,0.8,0.1,1c2.9-2.6,6.5-3.9,10.8-3.9c0.5,0,1,0,1.5,0c0.1,0,0.3,0,0.5,0c0.2,0,0.4,0.1,0.6,0.4
	c0.2,0.3,0.4,0.7,0.4,1.1C380.5,372.4,380.2,373.1,379.6,373.2z M359.2,374.6c0-1.3-0.6-1.9-1.9-1.9c-0.2,0-0.3,0-0.5,0
	c-1.6,0-3.3,0.8-5.1,2.3c-0.8,0.7-1.5,1.5-2.1,2.4c-0.9,1.2-1.3,2.4-1.3,3.3c0,1.3,0.7,2.1,2.2,2.3c2,0,3.8-0.9,5.6-2.7
	c0.8-0.8,1.4-1.6,1.9-2.5C358.9,376.6,359.2,375.5,359.2,374.6z M359.3,379.7c-1.6,2.6-3.8,4.2-6.6,4.8c-0.6,0.1-1.2,0.2-1.7,0.2
	c-0.5,0-0.9,0-1.3,0c-0.3,0-0.7-0.1-1.1-0.1c-0.4-0.1-0.8-0.2-1.1-0.4c-0.8-0.5-1.2-1.1-1.2-1.9c-0.1-0.4-0.1-0.8-0.1-1.3
	c0-0.5,0.1-1.1,0.3-1.9c0.2-0.8,0.6-1.7,1.2-2.6c0.6-0.9,1.3-1.8,2.1-2.6c1.7-1.7,3.6-2.7,5.6-3.2c0.6-0.1,1.1-0.2,1.6-0.2
	c0.5,0,0.9,0,1.3,0.1c1.3,0,2.1,0.9,2.6,2.6c0.3,1.1,0.5,2.6,0.5,4.6c0.1,2,0.1,3.5,0.2,4.5c0.1,1.1,0.2,2,0.4,2.9h-1.9
	c-0.1-0.6-0.2-1.1-0.2-1.6s-0.1-0.9-0.1-1.3C359.6,381.2,359.5,380.4,359.3,379.7z M338.9,367c-1.4-1.4-3-2.1-4.7-2.1
	c-1.6,0-3.2,0.6-4.7,1.9c-1.9,1.6-3.2,3.6-3.9,6.1c-0.3,0.9-0.4,1.6-0.4,2.2c0,0.6,0,1.1,0.1,1.4c0,2.2,0.7,3.8,2.2,5
	c1.4,1.1,3.1,1.6,5.3,1.6c2.9-0.2,5.7-1.4,8.4-3.4c0.7-0.6,1.5-1.1,2.4-1.6c0.3,0,0.6,0,0.9,0.1c0.3,0.1,0.5,0.3,0.5,0.8
	c-2.2,1.9-4,3.2-5.5,4.1c-2.8,1.5-5.2,2.2-7.5,2.2c-0.2,0-0.3,0-0.4,0c-2.4,0-4.5-0.8-6.2-2.3c-1.8-1.6-2.8-3.6-2.8-6
	c0-1.8,0.3-3.5,1-5.1c0.6-1.6,1.5-3.1,2.7-4.3c1.1-1.3,2.5-2.3,4-3c1.5-0.7,3.2-1.1,5-1.1c1.5,0,2.5,0.2,2.9,0.6
	C338.6,364.5,338.9,365.5,338.9,367z"/>
<path class="corIndicaNegro" d="M688.5,322.1c9.4,0,17,7.6,17,17c0,9.4-7.6,17-17,17c-9.4,0-17-7.6-17-17C671.4,329.7,679,322.1,688.5,322.1"/>
<path class="corIndicaLinea" d="M685,335.4c-70.2-70-103.6,14-168.9-56"/>
<polygon class="corIndicaNegro" points="515.4,281.1 511.5,286.1 512.4,268.3 526.9,278.7 520.5,278.6 529.3,283.8 519.2,282.4 513.9,291.2 "/>
<path class="corIndicaNegro" d="M649.4,251.5c0-2.6-0.1-4.5-0.4-5.7c0.2-0.3-0.1-0.5-0.8-0.5c-0.7,0-1.7,0.2-2.9,0.6c-1.2,0.4-2.1,0.7-2.9,1.1
	c-1.8,0.9-2.8,1.7-2.9,2.5v8.9h-2.2c-0.3-0.7-0.4-2.8-0.4-6.3c0-3.1,0.1-5.3,0.2-6.8c0.1-1.4,0.2-2.3,0.3-2.5c0.6-0.4,1-0.6,1.4-0.6
	c0.5,0,0.8,0.6,0.8,1.9c0,0.5,0,1-0.1,1.5c-0.1,0.5-0.1,0.8-0.1,1c3.5-2.6,6.3-3.9,8.2-3.9c2.2,0,3.5,1.8,3.8,5.3
	c0.1,1.2,0.2,3,0.2,5.2l0,2.6c0,1,0,1.9,0.1,2.8c-0.2,0.1-0.4,0.2-0.5,0.2c-0.1,0-0.2-0.1-0.4-0.1c-0.2,0-0.5-0.1-0.9-0.1
	c-0.2-0.9-0.3-1.8-0.4-2.7c0-0.9,0-1.7,0-2.5L649.4,251.5z M632.3,248.2c0-1.3-0.6-1.9-1.9-1.9c-0.2,0-0.3,0-0.5,0
	c-1.6,0-3.3,0.8-5.1,2.3c-0.8,0.7-1.5,1.5-2.1,2.4c-0.9,1.2-1.3,2.4-1.3,3.3c0,1.3,0.7,2.1,2.2,2.3c2,0,3.8-0.9,5.6-2.7
	c0.8-0.8,1.4-1.6,1.9-2.5C632,250.2,632.3,249.1,632.3,248.2z M632.5,253.3c-1.6,2.6-3.8,4.2-6.6,4.8c-0.6,0.1-1.2,0.2-1.7,0.2
	c-0.5,0-0.9,0-1.3,0c-0.3,0-0.7-0.1-1.1-0.1c-0.4-0.1-0.8-0.2-1.1-0.4c-0.8-0.5-1.2-1.1-1.2-1.9c-0.1-0.4-0.1-0.8-0.1-1.3
	c0-0.5,0.1-1.1,0.3-1.9c0.2-0.8,0.6-1.7,1.2-2.6c0.6-0.9,1.3-1.8,2.1-2.6c1.7-1.7,3.6-2.7,5.6-3.2c0.6-0.1,1.1-0.2,1.6-0.2
	c0.5,0,0.9,0,1.3,0.1c1.3,0,2.1,0.9,2.6,2.6c0.3,1.1,0.5,2.6,0.5,4.6c0.1,2,0.1,3.5,0.2,4.5c0.1,1.1,0.2,2,0.4,2.9h-1.9
	c-0.1-0.6-0.2-1.1-0.2-1.6s-0.1-0.9-0.1-1.3C632.8,254.7,632.6,253.9,632.5,253.3z M603.8,253.3c0,1.4,0.4,2.3,1.1,2.8
	c0.5,0.3,1.5,0.5,2.8,0.5c1.3,0,2.4-0.1,3.4-0.3c1-0.2,1.9-0.5,2.6-1c1.6-1.1,2.5-2.7,2.5-4.9c0-1.3-0.3-2.4-1-3.2
	c-0.8-0.9-1.8-1.3-3-1.3c-0.9,0.2-1.7,0.3-2.6,0.5c-0.9,0.2-1.7,0.5-2.4,1C605.4,248.4,604.3,250.4,603.8,253.3z M601.5,252.5
	c0-2.6,1.1-4.7,3.3-6.2c1.8-1.2,3.9-2,6.4-2.3c0.1,0,0.4,0,0.9,0c0.5,0,1.1,0.1,1.9,0.4c1.8,0.6,3,1.7,3.7,3.2
	c0.3,0.6,0.4,1.1,0.4,1.6c0,0.4,0,0.7,0,0.9c0,2.7-1,4.9-3.1,6.5c-1.9,1.4-4.3,2.2-7.2,2.2c-2.1,0-3.6-0.5-4.7-1.4
	C602,256.3,601.5,254.7,601.5,252.5z M599.6,247.8c0.1,0,0.2,0.3,0.2,0.9c0,0.6,0,1,0.1,1.2l-11.2,1.4l0.6,7.3l-2.7-0.1
	c0-2-0.2-4.2-0.7-6.8l-4.3,1.6c-0.3,0-0.5-0.2-0.7-0.5c-0.4-0.6-0.5-1.1-0.5-1.5l5-1.8c-0.4-3.8-0.7-6.8-0.7-9.2
	c0-2.4,0.2-4.2,0.6-5.5c0.4-1.3,1-2.2,1.7-2.6c0.8-0.4,1.6-0.7,2.4-0.7c0.9,0,1.7,0.2,2.6,0.6c0.9,0.4,1.7,0.8,2.5,1.4
	c0.8,0.6,1.5,1.2,2.1,1.9c0.6,0.7,0.9,1.4,0.9,2.1c0,0.5-0.1,0.9-0.2,1.1c-0.9-1.2-1.9-2.3-3.2-3.3c-1.5-1.1-2.9-1.7-4.2-1.7
	c-1.2,0-2.1,0.9-2.5,2.7c-0.2,0.9-0.3,2.2-0.3,3.9c0,1.7,0,3.2,0.1,4.6c0.1,1.4,0.4,2.8,0.8,4.2c1.4,0,2.9-0.1,4.6-0.4
	C595.8,248,598.2,247.8,599.6,247.8z M575.6,238.8c0-0.8,0.4-1.1,1.3-1.1c0.6,0,1.1,0.1,1.4,0.4c0.1,0.2,0.1,0.5,0.1,0.7
	c0,0.2-0.1,0.5-0.3,0.7c-0.2,0.2-0.4,0.3-0.8,0.3c-0.4,0-0.7-0.1-1.1-0.2C576,239.4,575.8,239.1,575.6,238.8z M578.6,243.3
	c0.3,4.1,0.5,8.8,0.7,14.2c-0.1,0.7-0.7,1-1.6,1c-0.2,0-0.5-0.1-0.7-0.2c-0.3-0.1-0.4-0.2-0.5-0.4v-14.7H578.6z M571,246
	c0-1.2-0.1-2.2-0.1-3.2c0-0.9-0.1-1.6-0.1-2.1s-0.2-1.5-0.5-3.3c0.2-0.3,0.4-0.5,0.6-0.8c0.2-0.2,0.5-0.4,0.8-0.4
	c0.8,0,1.4,3.2,1.8,9.7c0.2,3.7,0.3,7.5,0.3,11.2c0,1-0.7,1.5-2.1,1.5l-0.3,0c0-1.1,0-2.6-0.1-4.4c-0.1-1.8-0.1-3.3-0.2-4.6
	C571.1,248.4,571,247.2,571,246z M554.6,253.3c0,1.4,0.4,2.3,1.1,2.8c0.5,0.3,1.5,0.5,2.8,0.5c1.3,0,2.4-0.1,3.4-0.3
	c1-0.2,1.9-0.5,2.6-1c1.6-1.1,2.5-2.7,2.5-4.9c0-1.3-0.3-2.4-1-3.2c-0.8-0.9-1.8-1.3-3-1.3c-0.9,0.2-1.7,0.3-2.6,0.5
	c-0.9,0.2-1.7,0.5-2.4,1C556.2,248.4,555.1,250.4,554.6,253.3z M552.3,252.5c0-2.6,1.1-4.7,3.3-6.2c1.8-1.2,3.9-2,6.4-2.3
	c0.1,0,0.4,0,0.9,0s1.1,0.1,1.9,0.4c1.8,0.6,3,1.7,3.7,3.2c0.3,0.6,0.4,1.1,0.4,1.6c0,0.4,0,0.7,0,0.9c0,2.7-1,4.9-3.1,6.5
	c-1.9,1.4-4.3,2.2-7.2,2.2c-2.1,0-3.6-0.5-4.7-1.4C552.9,256.3,552.3,254.7,552.3,252.5z M545.6,246.7c-0.7-0.4-1.5-0.6-2.3-0.6
	c-0.8,0-1.6,0.1-2.4,0.2c-1.8,0.3-3.2,1.1-4.1,2.3c-0.4,0.6-0.6,1.3-0.6,2.1c0,0.1,0,0.2,0,0.3v5.7c4.5-1,7.7-2.4,9.6-4.2
	c1.1-1,1.6-2.1,1.6-3.2C547.4,248.2,546.8,247.3,545.6,246.7z M536,245.6c3-1,5.5-1.5,7.7-1.5c2.8,0,4.6,0.7,5.5,2.2
	c0.4,0.7,0.6,1.4,0.6,2.2c0,1.1-0.3,2.2-1,3.4s-1.6,2.2-2.7,3.1c-2.6,2.2-5.9,3.5-9.6,4c0,0.2,0,0.6,0,1.2c0,0.5,0,1.1,0,1.8
	s0,1.4,0,2.1s0,1.5,0,2.1c0.1,1.7,0.1,2.6,0.2,2.9c0,0.2,0,0.4,0,0.6c0,0.5-0.2,1-0.5,1.2c-0.4,0.3-0.8,0.4-1.4,0.4
	c-0.1,0-0.2,0-0.3,0l-0.5-26.4c0.2-0.3,0.5-0.4,0.8-0.4c0.3,0,0.6,0.1,0.8,0.3C535.8,244.9,535.9,245.2,536,245.6z M513.8,246.3
	c-0.5-0.3-1-0.6-1.5-0.8c-0.5-0.2-1-0.2-1.3-0.2c-0.4,0-0.9,0.1-1.7,0.3s-1.5,0.5-2.1,0.8c-1.5,0.7-2.3,1.4-2.3,2.2
	c1.7,0.2,3.1,0.2,3.9,0.2c2.4,0,4.1-0.2,4.9-0.6c0.5-0.2,0.8-0.5,0.8-0.8C514.5,247,514.3,246.6,513.8,246.3z M507.9,256.4
	c1.9,0,4.8-0.9,8.7-2.6c0.2,0,0.4,0.1,0.6,0.2c0.2,0.2,0.2,0.4,0.2,0.6c-0.9,1.5-2.5,2.6-5,3.5c-2.5,0.8-4.8,1-6.9,0.4
	c-2.4-0.6-3.9-2-4.4-4.1c0-0.4-0.1-1-0.1-1.7c0-0.7,0.2-1.6,0.5-2.8c0.4-1.1,1-2.2,1.9-3.3c0.9-1,1.9-1.8,3.1-2.4
	c1.2-0.6,2.4-0.9,3.8-0.9c1.3,0,2.7,0.4,4.3,1.3c0.7,0.4,1.3,0.9,1.8,1.4c0.4,0.5,0.7,1.1,0.7,1.6c0,0.2,0,0.3,0,0.5
	c0,1.3-0.7,2.2-1.9,2.5c-0.5,0.2-1.2,0.2-1.9,0.2l-4.7-0.2c-1.6,0-2.8,0.3-3.6,1c-0.5,0.4-0.8,0.9-1,1.7
	C504.3,255.4,505.7,256.4,507.9,256.4z M485.8,253.6c0,1.7,0.6,2.6,1.9,2.6c0.2,0,0.4,0,0.7-0.1c0.9,0,2-0.3,3.3-0.8
	c2.5-1,4-1.8,4.6-2.6v-4.4c0-0.8-0.6-1.1-1.9-1.1c-0.2,0-0.4,0-0.6,0c-0.3,0-0.6,0.1-1.2,0.2c-0.5,0.1-1.1,0.3-1.8,0.6
	c-0.7,0.3-1.3,0.6-1.9,1.1c-1.3,0.9-2.2,1.9-2.8,3.1C485.9,252.6,485.8,253.1,485.8,253.6z M499.5,232.4c0,2.1-0.1,4.1-0.2,6.1
	c-0.1,2-0.2,4-0.3,5.9c-0.1,1.9-0.1,3.9-0.1,6.1s0.2,4.4,0.5,6.8c0,0.5-0.1,0.9-0.3,1.1c-0.2,0.2-0.5,0.3-0.9,0.3
	c-1,0-1.5-0.9-1.5-2.6v-1.1c-3.1,2.3-5.7,3.5-7.9,3.5c-0.9,0-1.7-0.2-2.6-0.6c-0.9-0.4-1.7-1.3-2.5-2.5c-0.1-0.5-0.2-1.1-0.2-1.6
	s0.1-1.2,0.3-2c0.2-0.8,0.6-1.6,1.3-2.4c0.6-0.8,1.4-1.6,2.3-2.2c2-1.4,4.2-2,6.5-2c1,0,2,0.2,2.9,0.5c0-0.4,0-1.1,0.1-2.1
	s0.1-2,0.2-3.1c0.1-2.8,0.2-4.5,0.3-5c0-0.5,0.1-1,0.2-1.3c0.1-0.4,0.2-0.7,0.3-0.9C498.1,232.7,498.7,232.4,499.5,232.4z
	 M454.8,253.3c0,1.4,0.4,2.3,1.1,2.8c0.5,0.3,1.5,0.5,2.8,0.5c1.3,0,2.4-0.1,3.4-0.3c1-0.2,1.9-0.5,2.6-1c1.6-1.1,2.5-2.7,2.5-4.9
	c0-1.3-0.3-2.4-1-3.2c-0.8-0.9-1.8-1.3-3-1.3c-0.9,0.2-1.7,0.3-2.6,0.5c-0.9,0.2-1.7,0.5-2.4,1C456.4,248.4,455.3,250.4,454.8,253.3
	z M452.5,252.5c0-2.6,1.1-4.7,3.3-6.2c1.8-1.2,3.9-2,6.4-2.3c0.1,0,0.4,0,0.9,0c0.5,0,1.1,0.1,1.9,0.4c1.8,0.6,3,1.7,3.7,3.2
	c0.3,0.6,0.4,1.1,0.4,1.6c0,0.4,0,0.7,0,0.9c0,2.7-1,4.9-3.1,6.5c-1.9,1.4-4.3,2.2-7.2,2.2c-2.1,0-3.6-0.5-4.7-1.4
	C453,256.3,452.5,254.7,452.5,252.5z M445.7,246.7c-0.7-0.4-1.5-0.6-2.3-0.6c-0.8,0-1.6,0.1-2.4,0.2c-1.8,0.3-3.2,1.1-4.1,2.3
	c-0.4,0.6-0.6,1.3-0.6,2.1c0,0.1,0,0.2,0,0.3v5.7c4.5-1,7.7-2.4,9.6-4.2c1.1-1,1.6-2.1,1.6-3.2C447.5,248.2,446.9,247.3,445.7,246.7
	z M436.2,245.6c3-1,5.5-1.5,7.7-1.5c2.8,0,4.6,0.7,5.5,2.2c0.4,0.7,0.6,1.4,0.6,2.2c0,1.1-0.3,2.2-1,3.4s-1.6,2.2-2.7,3.1
	c-2.6,2.2-5.9,3.5-9.6,4c0,0.2,0,0.6,0,1.2c0,0.5,0,1.1,0,1.8s0,1.4,0,2.1s0,1.5,0,2.1c0.1,1.7,0.1,2.6,0.2,2.9c0,0.2,0,0.4,0,0.6
	c0,0.5-0.2,1-0.5,1.2c-0.4,0.3-0.8,0.4-1.4,0.4c-0.1,0-0.2,0-0.3,0l-0.5-26.4c0.2-0.3,0.5-0.4,0.8-0.4c0.3,0,0.6,0.1,0.8,0.3
	C435.9,244.9,436.1,245.2,436.2,245.6z M430.6,246.7c-0.9-0.7-2.1-1-3.5-1c-1.4,0-2.6,0.3-3.8,0.8c-2.2,0.9-3.7,2.1-4.5,3.5
	c-0.4,0.7-0.5,1.4-0.5,2.1c0,0.1,0,0.5,0,1.1c0,0.6,0.1,1.4,0.3,2.4c0.2,1,0.3,2,0.3,3.1c-0.5,0-0.8,0.1-1.1,0.2
	c-0.3,0.1-0.5,0.1-0.7,0.1c-0.2,0-0.4-0.1-0.5-0.3c-0.1-0.2-0.3-0.5-0.5-1c0-0.1-0.1-0.5-0.1-1.1c-0.1-0.6-0.1-1.4-0.2-2.2
	c-0.1-0.9-0.2-1.8-0.3-2.9c-0.1-1-0.2-2.1-0.3-3.1c-0.2-2.2-0.4-3.8-0.6-4.8c0-0.5,0.4-0.8,1.1-0.8c0.5,0,0.8,0.2,1.1,0.6
	c0.3,0.4,0.5,0.8,0.6,1.3c0.2,0.5,0.3,1,0.3,1.5c0.1,0.5,0.1,0.8,0.1,1c2.9-2.6,6.5-3.9,10.8-3.9c0.5,0,1,0,1.5,0c0.1,0,0.3,0,0.5,0
	c0.2,0,0.4,0.1,0.6,0.4c0.2,0.3,0.4,0.7,0.4,1.1C431.5,246,431.2,246.6,430.6,246.7z M408.9,246.3c-0.5-0.3-1-0.6-1.5-0.8
	c-0.5-0.2-1-0.2-1.3-0.2c-0.4,0-0.9,0.1-1.7,0.3s-1.5,0.5-2.1,0.8c-1.5,0.7-2.3,1.4-2.3,2.2c1.7,0.2,3.1,0.2,3.9,0.2
	c2.4,0,4.1-0.2,4.9-0.6c0.5-0.2,0.8-0.5,0.8-0.8C409.6,247,409.3,246.6,408.9,246.3z M403,256.4c1.9,0,4.8-0.9,8.7-2.6
	c0.2,0,0.4,0.1,0.6,0.2c0.2,0.2,0.2,0.4,0.2,0.6c-0.9,1.5-2.5,2.6-5,3.5c-2.5,0.8-4.8,1-6.9,0.4c-2.4-0.6-3.9-2-4.4-4.1
	c0-0.4-0.1-1-0.1-1.7c0-0.7,0.2-1.6,0.5-2.8c0.4-1.1,1-2.2,1.9-3.3c0.9-1,1.9-1.8,3.1-2.4c1.2-0.6,2.4-0.9,3.8-0.9
	c1.3,0,2.7,0.4,4.3,1.3c0.7,0.4,1.3,0.9,1.8,1.4c0.4,0.5,0.7,1.1,0.7,1.6c0,0.2,0,0.3,0,0.5c0,1.3-0.7,2.2-1.9,2.5
	c-0.5,0.2-1.2,0.2-1.9,0.2l-4.7-0.2c-1.6,0-2.8,0.3-3.6,1c-0.5,0.4-0.8,0.9-1,1.7C399.4,255.4,400.8,256.4,403,256.4z M379.1,254.3
	c0-0.4,0-0.8-0.1-1.5c-0.1-0.6-0.1-1.3-0.1-2c0-0.7-0.1-1.5-0.1-2.3c0-0.8,0.1-1.5,0.2-2.1c0.3-1.4,0.9-2.1,1.8-2.1
	c0.6,0.2,1,0.4,1.2,0.7c0.2,0.3,0.3,0.6,0.3,1c0,0.4-0.1,0.9-0.3,1.4c-0.7,1.9-1.1,3.6-1.1,5.1c0,0.5,0,1,0.1,1.6
	c0.3,1.5,1.5,2.2,3.6,2.2c1.1,0,2.1-0.2,3-0.6c1.8-0.7,3.1-1.5,3.7-2.4c0.2-1,0.3-1.9,0.3-2.6s0-1.4-0.1-2c-0.1-0.6-0.1-1.2-0.2-2
	c-0.1-0.7-0.1-1.5-0.1-2.3c0.3-0.1,0.6-0.2,0.8-0.2c0.3,0,0.6,0.1,0.9,0.4c0.3,0.3,0.5,0.8,0.8,1.6c0.2,0.8,0.3,1.7,0.4,2.8
	c0.1,1.1,0.1,2.2,0.1,3.3s0,2.2,0,3.3c0,1.1,0,2,0.1,2.7c-0.3,0.2-0.5,0.4-0.8,0.4c-0.9,0-1.5-0.9-1.9-2.6c-0.3,0.2-0.8,0.5-1.4,0.9
	c-1.4,0.8-3.1,1.3-5.1,1.6c-0.4,0-0.8,0.1-1.2,0.1s-1-0.1-1.7-0.3c-0.7-0.2-1.3-0.6-2-1.2C379.6,256.5,379.3,255.6,379.1,254.3z
	 M371.7,240.5c-1.4-1.4-3-2.1-4.7-2.1c-1.6,0-3.2,0.6-4.7,1.9c-1.9,1.6-3.2,3.6-3.9,6.1c-0.3,0.9-0.4,1.6-0.4,2.2
	c0,0.6,0,1.1,0.1,1.4c0,2.2,0.7,3.8,2.2,5c1.4,1.1,3.1,1.6,5.3,1.6c2.9-0.2,5.7-1.4,8.4-3.4c0.7-0.6,1.5-1.1,2.4-1.6
	c0.3,0,0.6,0,0.9,0.1c0.3,0.1,0.5,0.3,0.5,0.8c-2.2,1.9-4,3.2-5.5,4.1c-2.8,1.5-5.2,2.2-7.5,2.2c-0.2,0-0.3,0-0.4,0
	c-2.4,0-4.5-0.8-6.2-2.3c-1.8-1.6-2.8-3.6-2.8-6c0-1.8,0.3-3.5,1-5.1c0.6-1.6,1.5-3.1,2.7-4.3c1.1-1.3,2.5-2.3,4-3
	c1.5-0.7,3.2-1.1,5-1.1c1.5,0,2.5,0.2,2.9,0.6C371.4,238,371.7,239,371.7,240.5z"/>
	<path class="cortitulo" d="M1117.3,662.5c4.2,0,6.4,1.1,6.4,3.2c0,1.6-1.2,3.5-3.5,5.7c-3.5,3.2-8.2,5.8-14.2,7.7c-0.3,0-0.6-0.3-0.9-0.8
	c-0.3-0.5-0.6-1-0.8-1.2c-0.2-0.3-0.3-0.5-0.4-0.6c4.4-1.5,8.1-3.2,10.9-5.3c1.9-1.4,2.9-2.5,2.9-3.4c0-0.9-1.1-1.3-3.4-1.3
	c-2.3,0-5.6,0.5-10,1.6c-2-0.1-3.7-0.8-5.2-2.1c-1.3-1.2-1.9-2.4-1.9-3.6c0-1.2,0.3-2.3,1-3.4c0.7-1,1.6-2,2.8-2.9
	c1.2-0.9,2.5-1.7,4.1-2.4c3.8-1.8,7.7-2.7,11.7-2.7c1.2,0,2.4,0.1,3.5,0.4c0.9,0,1.5,0.4,1.6,1.2s0.2,2.1,0.2,4
	c-2.3-1-4.8-1.6-7.7-1.6c-3.5,0-6.5,0.7-8.8,2.1c-2.4,1.4-3.6,3.2-3.7,5.4c0,1.1,0.8,1.6,2.4,1.6l4.2-0.5
	C1112.1,662.9,1115.1,662.5,1117.3,662.5 M1069.6,667.9c0,2.4,0.6,4,1.9,4.9c1,0.6,2.6,0.9,4.9,0.9c2.3,0,4.3-0.2,6-0.5
	c1.7-0.4,3.3-0.9,4.6-1.8c2.9-1.9,4.3-4.7,4.3-8.6c0-2.3-0.6-4.2-1.8-5.7c-1.4-1.6-3.1-2.4-5.3-2.4c-1.5,0.3-3,0.6-4.5,0.9
	c-1.5,0.3-3,0.9-4.3,1.8C1072.3,659.2,1070.4,662.7,1069.6,667.9z M1065.6,666.5c0-4.6,2-8.2,5.9-11c3.1-2.2,6.9-3.5,11.3-4
	c0.2,0,0.8,0,1.6,0c0.9,0,2,0.2,3.4,0.8c3.2,1.1,5.3,3,6.5,5.7c0.5,1.1,0.7,2,0.7,2.8c0,0.8,0,1.3-0.1,1.6c0,4.8-1.8,8.6-5.5,11.4
	c-3.4,2.5-7.6,3.8-12.7,3.8c-3.7,0-6.4-0.9-8.3-2.5C1066.5,673.3,1065.6,670.4,1065.6,666.5z M1054.2,655.5
	c-0.9-0.6-1.8-1.1-2.7-1.3c-0.9-0.3-1.7-0.4-2.3-0.4c-0.6,0-1.6,0.2-3,0.6c-1.4,0.4-2.6,0.9-3.7,1.4c-2.7,1.2-4,2.5-4,3.9
	c3.1,0.3,5.4,0.4,6.9,0.4c4.3,0,7.2-0.4,8.7-1.1c0.9-0.4,1.4-0.9,1.4-1.5C1055.5,656.8,1055,656.1,1054.2,655.5z M1043.8,673.4
	c3.4,0,8.5-1.5,15.3-4.6c0.4,0,0.8,0.1,1,0.4c0.3,0.3,0.4,0.6,0.4,1c-1.5,2.6-4.5,4.7-8.9,6.1c-4.4,1.5-8.4,1.7-12.2,0.8
	c-4.3-1.1-6.9-3.5-7.8-7.2c-0.1-0.7-0.1-1.7-0.1-2.9s0.3-2.9,1-4.9c0.6-2,1.7-3.9,3.3-5.8c1.5-1.8,3.4-3.2,5.4-4.3
	c2.1-1,4.3-1.6,6.7-1.6c2.2,0,4.7,0.8,7.5,2.3c1.3,0.7,2.4,1.6,3.1,2.5s1.2,1.9,1.2,2.8c0,0.3,0,0.5-0.1,0.8
	c-0.1,2.4-1.2,3.8-3.4,4.5c-1,0.3-2.1,0.4-3.4,0.4l-8.3-0.3c-2.8,0-4.9,0.6-6.4,1.8c-0.8,0.7-1.4,1.6-1.8,3
	C1037.4,671.7,1039.9,673.4,1043.8,673.4z M1027.7,656.3c-1.6-1.2-3.7-1.7-6.3-1.7c-2.4,0-4.6,0.4-6.7,1.3c-3.9,1.6-6.5,3.7-7.9,6.3
	c-0.6,1.2-0.9,2.4-0.9,3.7c0,0.2,0,0.9,0,1.9c0,1.1,0.2,2.5,0.6,4.3c0.4,1.8,0.6,3.6,0.6,5.5c-0.8,0-1.5,0.1-2,0.3s-0.9,0.2-1.3,0.2
	s-0.6-0.1-0.9-0.5c-0.2-0.3-0.5-0.9-0.8-1.8c0-0.2-0.1-0.9-0.2-2c-0.1-1.1-0.3-2.4-0.4-3.9c-0.2-1.5-0.4-3.2-0.6-5.1
	c-0.2-1.8-0.4-3.6-0.6-5.4c-0.4-3.9-0.8-6.7-1-8.5c0-0.9,0.7-1.4,2-1.4c0.8,0,1.5,0.3,1.9,1c0.5,0.7,0.8,1.5,1.1,2.3
	c0.3,0.9,0.5,1.7,0.6,2.6c0.1,0.8,0.2,1.5,0.3,1.8c5.1-4.6,11.4-6.8,19-6.8c0.8,0,1.7,0,2.7,0.1c0.2,0,0.5-0.1,0.9-0.1
	s0.7,0.2,1,0.7c0.4,0.5,0.6,1.2,0.6,2C1029.4,655,1028.8,656.1,1027.7,656.3z M981.6,642.4c0.5-0.7,1.1-1.1,1.7-1.1
	c0.4,0,0.7,0.2,0.9,0.5c0.2,0.4,0.3,0.7,0.2,1.1c0,0.3-0.1,0.7-0.3,1c-0.2,0.3-0.4,0.7-0.8,1.1c-0.7,0.7-2,1.9-4,3.6l-1.8-1.6
	L981.6,642.4z M971.4,667.9c0,2.4,0.6,4,1.9,4.9c1,0.6,2.6,0.9,4.9,0.9c2.3,0,4.3-0.2,6-0.5c1.7-0.4,3.3-0.9,4.6-1.8
	c2.9-1.9,4.3-4.7,4.3-8.6c0-2.3-0.6-4.2-1.8-5.7c-1.4-1.6-3.1-2.4-5.3-2.4c-1.5,0.3-3,0.6-4.5,0.9c-1.5,0.3-3,0.9-4.3,1.8
	C974.2,659.2,972.3,662.7,971.4,667.9z M967.4,666.5c0-4.6,2-8.2,5.9-11c3.1-2.2,6.9-3.5,11.3-4c0.2,0,0.8,0,1.6,0s2,0.2,3.4,0.8
	c3.2,1.1,5.3,3,6.5,5.7c0.5,1.1,0.7,2,0.7,2.8c0,0.8,0,1.3-0.1,1.6c0,4.8-1.8,8.6-5.5,11.4c-3.4,2.5-7.6,3.8-12.7,3.8
	c-3.7,0-6.4-0.9-8.3-2.5C968.3,673.3,967.4,670.4,967.4,666.5z M955.4,656.3c-1.3-0.7-2.6-1-4.1-1c-1.5,0-2.9,0.1-4.3,0.4
	c-3.2,0.6-5.6,2-7.2,4.1c-0.7,1-1,2.2-1,3.7c0,0.1,0,0.3,0,0.5v10c8-1.8,13.6-4.2,16.9-7.4c1.9-1.8,2.9-3.7,2.9-5.6
	C958.6,658.9,957.6,657.4,955.4,656.3z M938.5,654.2c5.2-1.8,9.8-2.7,13.6-2.7c4.9,0,8.1,1.3,9.7,3.8c0.7,1.2,1.1,2.5,1.1,3.9
	c0,1.9-0.6,3.9-1.8,6c-1.2,2-2.8,3.9-4.8,5.6c-4.7,3.8-10.3,6.2-17,7.1c0,0.4,0,1.1,0,2.1c0,0.9,0,2,0.1,3.2c0,1.2,0,2.4,0.1,3.7
	c0,1.3,0,2.6,0.1,3.8c0.1,3,0.2,4.7,0.3,5.1c0.1,0.4,0.1,0.8,0.1,1c0,1-0.3,1.7-0.9,2.2c-0.6,0.5-1.4,0.7-2.4,0.7
	c-0.2,0-0.4,0-0.6,0L935,653c0.3-0.5,0.8-0.7,1.4-0.7s1,0.2,1.4,0.5C938.1,653.1,938.4,653.6,938.5,654.2z M928.7,656.3
	c-1.6-1.2-3.7-1.7-6.3-1.7c-2.4,0-4.6,0.4-6.6,1.3c-3.9,1.6-6.5,3.7-7.9,6.3c-0.6,1.2-0.9,2.4-0.9,3.7c0,0.2,0,0.9,0,1.9
	c0,1.1,0.2,2.5,0.6,4.3c0.4,1.8,0.6,3.6,0.6,5.5c-0.8,0-1.5,0.1-2,0.3s-0.9,0.2-1.3,0.2c-0.3,0-0.6-0.1-0.9-0.5
	c-0.2-0.3-0.5-0.9-0.8-1.8c0-0.2-0.1-0.9-0.2-2c-0.1-1.1-0.3-2.4-0.4-3.9c-0.2-1.5-0.4-3.2-0.6-5.1c-0.2-1.8-0.4-3.6-0.6-5.4
	c-0.4-3.9-0.8-6.7-1-8.5c0-0.9,0.7-1.4,2-1.4c0.8,0,1.5,0.3,1.9,1c0.5,0.7,0.8,1.5,1.1,2.3c0.3,0.9,0.5,1.7,0.6,2.6
	c0.1,0.8,0.2,1.5,0.3,1.8c5.1-4.6,11.4-6.8,19-6.8c0.9,0,1.7,0,2.7,0.1c0.2,0,0.5-0.1,0.9-0.1c0.3,0,0.7,0.2,1,0.7
	c0.4,0.5,0.6,1.2,0.6,2C930.3,655,929.8,656.1,928.7,656.3z M872.3,667.9c0,2.4,0.6,4,1.9,4.9c1,0.6,2.6,0.9,4.9,0.9
	c2.3,0,4.3-0.2,6-0.5c1.7-0.4,3.3-0.9,4.6-1.8c2.9-1.9,4.3-4.7,4.3-8.6c0-2.3-0.6-4.2-1.8-5.7c-1.4-1.6-3.1-2.4-5.3-2.4
	c-1.5,0.3-3,0.6-4.5,0.9c-1.5,0.3-3,0.9-4.3,1.8C875.1,659.2,873.2,662.7,872.3,667.9z M868.3,666.5c0-4.6,2-8.2,5.9-11
	c3.1-2.2,6.9-3.5,11.3-4c0.2,0,0.8,0,1.6,0s2,0.2,3.4,0.8c3.2,1.1,5.3,3,6.5,5.7c0.5,1.1,0.7,2,0.7,2.8c0,0.8,0,1.3-0.1,1.6
	c0,4.8-1.8,8.6-5.5,11.4c-3.4,2.5-7.6,3.8-12.7,3.8c-3.7,0-6.4-0.9-8.3-2.5C869.3,673.3,868.3,670.4,868.3,666.5z M853.6,645.3
	c-2.5-2.5-5.3-3.7-8.3-3.7c-2.9,0-5.7,1.1-8.3,3.3c-3.4,2.8-5.7,6.4-6.9,10.8c-0.5,1.6-0.7,2.9-0.7,3.9c0,1,0,1.9,0.1,2.4
	c0,3.8,1.3,6.8,3.9,8.8c2.4,1.9,5.5,2.8,9.3,2.8c5.2-0.4,10.1-2.4,14.9-6c1.3-1,2.7-2,4.2-2.9c0.5,0,1.1,0.1,1.7,0.2
	s0.8,0.6,0.8,1.3c-3.8,3.3-7,5.7-9.7,7.2c-4.9,2.6-9.3,3.9-13.2,3.9c-0.3,0-0.5,0-0.8,0c-4.3,0-7.9-1.3-11-4
	c-3.2-2.8-4.9-6.3-4.9-10.5c0-3.2,0.6-6.2,1.7-9.1c1.1-2.9,2.7-5.5,4.7-7.7c2-2.2,4.3-4,7.1-5.3c2.7-1.3,5.7-2,8.8-2
	c2.7,0,4.4,0.4,5.2,1.1C853.1,641,853.6,642.7,853.6,645.3z"/>
	<path class="corEtiqueta" d="M305.8,173.2c-2.4-1.2-4-3.6-4-6.4V44.1c0-3.9,3.2-7.1,7.1-7.1h343.9c3.3,0,6,2.2,6.8,5.3
	c-0.9-0.5-2-0.7-3.1-0.7H312.6c-3.9,0-7.1,3.2-7.1,7.1v122.7C305.5,172,305.6,172.6,305.8,173.2"/>
<path class="corEtiqueta" d="M659,181.4H315.1c-3.9,0-7.1-3.2-7.1-7.1V51.5c0-3.9,3.2-7.1,7.1-7.1H659c3.9,0,7.1,3.2,7.1,7.1v122.7
	C666.1,178.2,662.9,181.4,659,181.4"/>
<line class="corEtiquetaLine" x1="329.7" y1="77.7" x2="636.9" y2="77.7"/>
<path class="corEtiquetaTxt" d="M611.2,66.5c0,1,0.3,1.7,0.8,2c0.4,0.3,1.1,0.4,2,0.4c0.9,0,1.8-0.1,2.5-0.2c0.7-0.1,1.4-0.4,1.9-0.7
	c1.2-0.8,1.8-2,1.8-3.6c0-1-0.3-1.7-0.8-2.4c-0.6-0.7-1.3-1-2.2-1c-0.6,0.1-1.3,0.2-1.9,0.4c-0.6,0.1-1.2,0.4-1.8,0.7
	C612.4,62.9,611.6,64.3,611.2,66.5 M609.6,65.9c0-1.9,0.8-3.4,2.4-4.6c1.3-0.9,2.9-1.5,4.7-1.7c0.1,0,0.3,0,0.7,0
	c0.4,0,0.8,0.1,1.4,0.3c1.3,0.5,2.2,1.2,2.7,2.4c0.2,0.5,0.3,0.8,0.3,1.1c0,0.3,0,0.5,0,0.7c0,2-0.8,3.6-2.3,4.7
	c-1.4,1.1-3.2,1.6-5.3,1.6c-1.5,0-2.7-0.4-3.4-1.1C610,68.7,609.6,67.5,609.6,65.9z M603.1,67.9c0.7-0.3,1.3-0.5,1.9-0.7
	c0.6-0.2,1.2-0.3,1.8-0.3c0.6,0,0.9,0.2,0.9,0.5c0,0.1,0,0.2-0.1,0.4c0,0.2-0.3,0.4-0.6,0.6c-0.4,0.2-0.9,0.5-1.4,0.7
	c-0.6,0.2-1.2,0.4-1.9,0.6s-1.3,0.3-2,0.5c-1.3,0.3-2.3,0.4-2.8,0.4c-0.6,0-1.2-0.1-1.8-0.2s-1.3-0.3-1.8-0.6
	c-1.3-0.7-1.9-1.7-1.9-3c0-0.1,0-0.3,0-0.6c0-0.3,0.1-0.7,0.4-1.2c0.2-0.5,0.6-1.1,1.1-1.6c0.5-0.5,1-1,1.7-1.5
	c1.3-1,2.8-1.6,4.2-1.9c0.5-0.1,0.9-0.2,1.3-0.2s0.6,0,0.9,0c0.2,0,0.5,0,0.7,0c0.2,0,0.5,0.1,0.6,0.2c0.4,0.2,0.6,0.6,0.6,1.2
	c0,0.4-0.3,0.8-0.8,1.1c-0.1,0.1-0.3,0.2-0.4,0.3c-0.1-0.4-0.2-0.7-0.3-0.9c-0.1-0.3-0.4-0.4-0.8-0.4c-1.9,0.4-3.5,1-4.9,1.8
	c-1.5,0.9-2.3,1.9-2.3,2.9c0,0.1,0,0.2,0,0.4c0,1,0.4,1.8,1.2,2.2c0.6,0.3,1.4,0.5,2.3,0.5c0.9,0,1.8-0.1,2.4-0.3
	C601.8,68.4,602.5,68.2,603.1,67.9z M589.6,55.9c0-0.6,0.3-0.8,1-0.8c0.4,0,0.8,0.1,1.1,0.3c0,0.2,0.1,0.3,0.1,0.5
	c0,0.2-0.1,0.3-0.2,0.5c-0.1,0.2-0.3,0.2-0.6,0.2c-0.3,0-0.5-0.1-0.8-0.2C589.9,56.3,589.7,56.1,589.6,55.9z M591.9,59.2
	c0.2,3,0.4,6.5,0.5,10.4c-0.1,0.5-0.5,0.7-1.2,0.7c-0.2,0-0.4,0-0.5-0.1c-0.2-0.1-0.3-0.2-0.3-0.3V59.2H591.9z M586.3,61.1
	c0-0.9-0.1-1.6-0.1-2.3s0-1.2-0.1-1.5c0-0.3-0.1-1.1-0.4-2.4c0.1-0.2,0.3-0.4,0.4-0.6c0.1-0.2,0.3-0.3,0.6-0.3c0.6,0,1,2.4,1.3,7.1
	c0.2,2.7,0.2,5.5,0.2,8.2c0,0.7-0.5,1.1-1.5,1.1l-0.2,0c0-0.8,0-1.9-0.1-3.2c0-1.3-0.1-2.4-0.1-3.4C586.3,62.9,586.3,62,586.3,61.1z
	 M583.9,55.1c0.2-0.3,0.5-0.5,0.7-0.5c0.2,0,0.3,0.1,0.4,0.2c0.1,0.2,0.1,0.3,0.1,0.4c0,0.1-0.1,0.3-0.1,0.4
	c-0.1,0.1-0.2,0.3-0.3,0.5c-0.3,0.3-0.8,0.8-1.7,1.5l-0.7-0.7L583.9,55.1z M584.3,59.2c0.2,3,0.4,6.5,0.5,10.4
	c-0.1,0.5-0.5,0.7-1.2,0.7c-0.2,0-0.4,0-0.5-0.1c-0.2-0.1-0.3-0.2-0.3-0.3V59.2H584.3z M580.3,61.7c-0.7-0.5-1.5-0.7-2.6-0.7
	c-1,0-1.9,0.2-2.8,0.6c-1.6,0.7-2.7,1.5-3.3,2.6c-0.3,0.5-0.4,1-0.4,1.5c0,0.1,0,0.4,0,0.8c0,0.4,0.1,1,0.2,1.8
	c0.2,0.7,0.2,1.5,0.2,2.3c-0.3,0-0.6,0.1-0.8,0.1c-0.2,0.1-0.4,0.1-0.5,0.1c-0.1,0-0.3-0.1-0.4-0.2c-0.1-0.1-0.2-0.4-0.3-0.7
	c0-0.1,0-0.4-0.1-0.8c0-0.5-0.1-1-0.2-1.6c-0.1-0.6-0.2-1.3-0.2-2.1c-0.1-0.8-0.2-1.5-0.3-2.2c-0.2-1.6-0.3-2.8-0.4-3.5
	c0-0.4,0.3-0.6,0.8-0.6c0.3,0,0.6,0.1,0.8,0.4c0.2,0.3,0.3,0.6,0.5,1c0.1,0.4,0.2,0.7,0.2,1.1c0,0.4,0.1,0.6,0.1,0.7
	c2.1-1.9,4.7-2.8,7.9-2.8c0.4,0,0.7,0,1.1,0c0.1,0,0.2,0,0.4,0s0.3,0.1,0.4,0.3c0.2,0.2,0.3,0.5,0.3,0.8
	C581,61.1,580.8,61.6,580.3,61.7z M562.7,67.9c0.7-0.3,1.3-0.5,1.9-0.7c0.6-0.2,1.2-0.3,1.8-0.3c0.6,0,0.9,0.2,0.9,0.5
	c0,0.1,0,0.2-0.1,0.4c0,0.2-0.3,0.4-0.6,0.6c-0.4,0.2-0.9,0.5-1.4,0.7c-0.6,0.2-1.2,0.4-1.9,0.6s-1.3,0.3-2,0.5
	c-1.3,0.3-2.3,0.4-2.8,0.4c-0.6,0-1.2-0.1-1.8-0.2s-1.3-0.3-1.8-0.6c-1.3-0.7-1.9-1.7-1.9-3c0-0.1,0-0.3,0-0.6
	c0-0.3,0.1-0.7,0.4-1.2c0.2-0.5,0.6-1.1,1.1-1.6c0.5-0.5,1-1,1.7-1.5c1.3-1,2.8-1.6,4.2-1.9c0.5-0.1,0.9-0.2,1.3-0.2s0.6,0,0.9,0
	c0.2,0,0.5,0,0.7,0c0.2,0,0.5,0.1,0.6,0.2c0.4,0.2,0.6,0.6,0.6,1.2c0,0.4-0.3,0.8-0.8,1.1c-0.1,0.1-0.3,0.2-0.4,0.3
	c-0.1-0.4-0.2-0.7-0.3-0.9c-0.1-0.3-0.4-0.4-0.8-0.4c-1.9,0.4-3.5,1-4.9,1.8c-1.5,0.9-2.3,1.9-2.3,2.9c0,0.1,0,0.2,0,0.4
	c0,1,0.4,1.8,1.2,2.2c0.6,0.3,1.4,0.5,2.3,0.5c0.9,0,1.7-0.1,2.4-0.3C561.4,68.4,562,68.2,562.7,67.9z M549.8,62.7
	c0-0.9-0.5-1.4-1.4-1.4c-0.1,0-0.2,0-0.3,0c-1.2,0-2.4,0.6-3.7,1.7c-0.6,0.5-1.1,1.1-1.6,1.7c-0.6,0.9-1,1.7-1,2.5
	c0,0.9,0.5,1.5,1.6,1.7c1.4,0,2.8-0.7,4.1-2c0.6-0.6,1-1.2,1.4-1.8C549.6,64.2,549.8,63.4,549.8,62.7z M549.9,66.5
	c-1.2,1.9-2.8,3.1-4.8,3.5c-0.5,0.1-0.9,0.1-1.3,0.1c-0.4,0-0.7,0-0.9,0c-0.3,0-0.5,0-0.8-0.1c-0.3-0.1-0.6-0.2-0.8-0.3
	c-0.6-0.3-0.9-0.8-0.9-1.4c-0.1-0.3-0.1-0.6-0.1-1c0-0.4,0.1-0.8,0.2-1.4c0.2-0.6,0.5-1.2,0.9-1.9c0.4-0.7,0.9-1.3,1.5-1.9
	c1.3-1.2,2.6-2,4.1-2.4c0.4-0.1,0.8-0.1,1.2-0.1c0.4,0,0.7,0,1,0.1c0.9,0,1.6,0.6,1.9,1.9c0.2,0.8,0.3,1.9,0.4,3.4
	c0,1.4,0.1,2.5,0.1,3.3c0,0.8,0.1,1.5,0.3,2.1h-1.4c-0.1-0.4-0.1-0.8-0.1-1.2c0-0.3-0.1-0.7-0.1-0.9C550.1,67.5,550,67,549.9,66.5z
	 M527.7,65.2c0-1.9-0.1-3.3-0.3-4.2c0.1-0.2-0.1-0.4-0.6-0.4c-0.5,0-1.2,0.1-2.1,0.4c-0.9,0.3-1.6,0.5-2.1,0.8
	c-1.3,0.6-2,1.2-2.2,1.8v6.5h-1.6c-0.2-0.5-0.3-2.1-0.3-4.6c0-2.2,0-3.9,0.1-4.9c0.1-1.1,0.2-1.7,0.2-1.8c0.4-0.3,0.8-0.4,1-0.4
	c0.4,0,0.6,0.5,0.6,1.4c0,0.4,0,0.7-0.1,1.1c0,0.3-0.1,0.6-0.1,0.7c2.6-1.9,4.6-2.9,6-2.9c1.6,0,2.5,1.3,2.8,3.9
	c0.1,0.9,0.1,2.2,0.1,3.8l0,1.9c0,0.7,0,1.4,0,2c-0.2,0.1-0.3,0.1-0.4,0.1c0,0-0.2,0-0.3-0.1c-0.2,0-0.4-0.1-0.6-0.1
	c-0.2-0.6-0.3-1.3-0.3-2c0-0.7,0-1.3,0-1.8L527.7,65.2z M514.2,61.3c-0.4-0.3-0.7-0.4-1.1-0.6c-0.4-0.1-0.7-0.2-1-0.2
	c-0.3,0-0.7,0.1-1.2,0.3c-0.6,0.2-1.1,0.4-1.5,0.6c-1.1,0.5-1.7,1-1.7,1.6c1.3,0.1,2.2,0.2,2.9,0.2c1.8,0,3-0.2,3.6-0.5
	c0.4-0.2,0.6-0.4,0.6-0.6C514.8,61.9,514.6,61.6,514.2,61.3z M509.9,68.8c1.4,0,3.5-0.6,6.4-1.9c0.2,0,0.3,0.1,0.4,0.2
	c0.1,0.1,0.2,0.3,0.2,0.4c-0.6,1.1-1.9,1.9-3.7,2.5c-1.8,0.6-3.5,0.7-5.1,0.3c-1.8-0.5-2.9-1.5-3.2-3c0-0.3,0-0.7,0-1.2
	s0.1-1.2,0.4-2c0.3-0.8,0.7-1.6,1.4-2.4c0.6-0.7,1.4-1.3,2.3-1.8c0.9-0.4,1.8-0.6,2.8-0.6c0.9,0,2,0.3,3.1,1c0.5,0.3,1,0.6,1.3,1
	c0.3,0.4,0.5,0.8,0.5,1.2c0,0.1,0,0.2,0,0.3c0,1-0.5,1.6-1.4,1.8c-0.4,0.1-0.9,0.2-1.4,0.2l-3.5-0.1c-1.2,0-2,0.3-2.6,0.7
	c-0.4,0.3-0.6,0.7-0.7,1.2C507.3,68,508.3,68.8,509.9,68.8z M491.1,64.3c1.8,0,2.6,0.5,2.6,1.3c0,0.7-0.5,1.5-1.5,2.4
	c-1.5,1.3-3.4,2.4-5.9,3.2c-0.1,0-0.2-0.1-0.4-0.3s-0.2-0.4-0.3-0.5c-0.1-0.1-0.1-0.2-0.2-0.2c1.8-0.6,3.4-1.3,4.5-2.2
	c0.8-0.6,1.2-1,1.2-1.4c0-0.4-0.5-0.5-1.4-0.5c-0.9,0-2.3,0.2-4.2,0.7c-0.8,0-1.6-0.3-2.2-0.9c-0.5-0.5-0.8-1-0.8-1.5
	c0-0.5,0.1-1,0.4-1.4c0.3-0.4,0.7-0.8,1.2-1.2c0.5-0.4,1-0.7,1.7-1c1.6-0.8,3.2-1.1,4.9-1.1c0.5,0,1,0,1.4,0.1
	c0.4,0,0.6,0.2,0.7,0.5s0.1,0.9,0.1,1.7c-0.9-0.4-2-0.6-3.2-0.6c-1.5,0-2.7,0.3-3.7,0.9c-1,0.6-1.5,1.3-1.5,2.3c0,0.5,0.3,0.7,1,0.7
	l1.7-0.2C488.9,64.4,490.1,64.3,491.1,64.3z M471.3,66.5c0,1,0.3,1.7,0.8,2c0.4,0.3,1.1,0.4,2,0.4c0.9,0,1.8-0.1,2.5-0.2
	c0.7-0.1,1.4-0.4,1.9-0.7c1.2-0.8,1.8-2,1.8-3.6c0-1-0.3-1.7-0.8-2.4c-0.6-0.7-1.3-1-2.2-1c-0.6,0.1-1.3,0.2-1.9,0.4
	c-0.6,0.1-1.2,0.4-1.8,0.7C472.4,62.9,471.6,64.3,471.3,66.5z M469.6,65.9c0-1.9,0.8-3.4,2.4-4.6c1.3-0.9,2.9-1.5,4.7-1.7
	c0.1,0,0.3,0,0.7,0c0.4,0,0.8,0.1,1.4,0.3c1.3,0.5,2.2,1.2,2.7,2.4c0.2,0.5,0.3,0.8,0.3,1.1c0,0.3,0,0.5,0,0.7c0,2-0.8,3.6-2.3,4.7
	c-1.4,1.1-3.2,1.6-5.3,1.6c-1.5,0-2.7-0.4-3.4-1.1C470,68.7,469.6,67.5,469.6,65.9z M464.9,61.3c-0.4-0.3-0.7-0.4-1.1-0.6
	c-0.4-0.1-0.7-0.2-1-0.2c-0.3,0-0.7,0.1-1.2,0.3c-0.6,0.2-1.1,0.4-1.5,0.6c-1.1,0.5-1.7,1-1.7,1.6c1.3,0.1,2.2,0.2,2.9,0.2
	c1.8,0,3-0.2,3.6-0.5c0.4-0.2,0.6-0.4,0.6-0.6C465.4,61.9,465.3,61.6,464.9,61.3z M460.6,68.8c1.4,0,3.5-0.6,6.4-1.9
	c0.2,0,0.3,0.1,0.4,0.2c0.1,0.1,0.2,0.3,0.2,0.4c-0.6,1.1-1.9,1.9-3.7,2.5c-1.8,0.6-3.5,0.7-5.1,0.3c-1.8-0.5-2.9-1.5-3.2-3
	c0-0.3,0-0.7,0-1.2s0.1-1.2,0.4-2c0.3-0.8,0.7-1.6,1.4-2.4c0.6-0.7,1.4-1.3,2.3-1.8c0.9-0.4,1.8-0.6,2.8-0.6c0.9,0,2,0.3,3.1,1
	c0.5,0.3,1,0.6,1.3,1c0.3,0.4,0.5,0.8,0.5,1.2c0,0.1,0,0.2,0,0.3c0,1-0.5,1.6-1.4,1.8c-0.4,0.1-0.9,0.2-1.4,0.2l-3.5-0.1
	c-1.2,0-2,0.3-2.6,0.7c-0.4,0.3-0.6,0.7-0.7,1.2C457.9,68,459,68.8,460.6,68.8z M453.9,61.7c-0.7-0.5-1.5-0.7-2.6-0.7
	c-1,0-1.9,0.2-2.8,0.6c-1.6,0.7-2.7,1.5-3.3,2.6c-0.3,0.5-0.4,1-0.4,1.5c0,0.1,0,0.4,0,0.8c0,0.4,0.1,1,0.2,1.8s0.2,1.5,0.2,2.3
	c-0.3,0-0.6,0.1-0.8,0.1c-0.2,0.1-0.4,0.1-0.5,0.1c-0.1,0-0.3-0.1-0.4-0.2c-0.1-0.1-0.2-0.4-0.3-0.7c0-0.1,0-0.4-0.1-0.8
	c0-0.5-0.1-1-0.2-1.6c-0.1-0.6-0.2-1.3-0.2-2.1c-0.1-0.8-0.2-1.5-0.3-2.2c-0.2-1.6-0.3-2.8-0.4-3.5c0-0.4,0.3-0.6,0.8-0.6
	c0.3,0,0.6,0.1,0.8,0.4c0.2,0.3,0.3,0.6,0.5,1c0.1,0.4,0.2,0.7,0.2,1.1c0,0.4,0.1,0.6,0.1,0.7c2.1-1.9,4.7-2.8,7.9-2.8
	c0.4,0,0.7,0,1.1,0c0.1,0,0.2,0,0.4,0c0.1,0,0.3,0.1,0.4,0.3c0.2,0.2,0.3,0.5,0.3,0.8C454.6,61.1,454.4,61.6,453.9,61.7z
	 M434.8,55.9c0.2-0.3,0.5-0.5,0.7-0.5c0.2,0,0.3,0.1,0.4,0.2c0.1,0.2,0.1,0.3,0.1,0.4s-0.1,0.3-0.1,0.4c-0.1,0.1-0.2,0.3-0.3,0.5
	c-0.3,0.3-0.8,0.8-1.7,1.5l-0.7-0.7L434.8,55.9z M430.6,66.5c0,1,0.3,1.7,0.8,2c0.4,0.3,1.1,0.4,2,0.4c0.9,0,1.8-0.1,2.5-0.2
	c0.7-0.1,1.4-0.4,1.9-0.7c1.2-0.8,1.8-2,1.8-3.6c0-1-0.3-1.7-0.8-2.4c-0.6-0.7-1.3-1-2.2-1c-0.6,0.1-1.3,0.2-1.9,0.4
	c-0.6,0.1-1.2,0.4-1.8,0.7C431.7,62.9,431,64.3,430.6,66.5z M428.9,65.9c0-1.9,0.8-3.4,2.4-4.6c1.3-0.9,2.9-1.5,4.7-1.7
	c0.1,0,0.3,0,0.7,0c0.4,0,0.8,0.1,1.4,0.3c1.3,0.5,2.2,1.2,2.7,2.4c0.2,0.5,0.3,0.8,0.3,1.1c0,0.3,0,0.5,0,0.7c0,2-0.8,3.6-2.3,4.7
	c-1.4,1.1-3.2,1.6-5.3,1.6c-1.5,0-2.7-0.4-3.4-1.1C429.3,68.7,428.9,67.5,428.9,65.9z M424,61.7c-0.5-0.3-1.1-0.4-1.7-0.4
	c-0.6,0-1.2,0.1-1.8,0.2c-1.3,0.3-2.3,0.8-3,1.7c-0.3,0.4-0.4,0.9-0.4,1.5c0,0.1,0,0.1,0,0.2V69c3.3-0.7,5.6-1.8,7-3.1
	c0.8-0.8,1.2-1.5,1.2-2.3C425.3,62.8,424.8,62.1,424,61.7z M416.9,60.8c2.2-0.8,4.1-1.1,5.6-1.1c2,0,3.4,0.5,4,1.6
	c0.3,0.5,0.5,1,0.5,1.6c0,0.8-0.3,1.6-0.8,2.5c-0.5,0.8-1.2,1.6-2,2.3c-1.9,1.6-4.3,2.6-7.1,3c0,0.2,0,0.5,0,0.9c0,0.4,0,0.8,0,1.3
	s0,1,0,1.5c0,0.5,0,1.1,0,1.6c0,1.2,0.1,1.9,0.1,2.1c0,0.2,0,0.3,0,0.4c0,0.4-0.1,0.7-0.4,0.9c-0.3,0.2-0.6,0.3-1,0.3
	c-0.1,0-0.2,0-0.2,0l-0.4-19.3c0.1-0.2,0.3-0.3,0.6-0.3c0.2,0,0.4,0.1,0.6,0.2C416.8,60.3,416.9,60.5,416.9,60.8z M412.9,61.7
	c-0.7-0.5-1.5-0.7-2.6-0.7c-1,0-1.9,0.2-2.8,0.6c-1.6,0.7-2.7,1.5-3.3,2.6c-0.3,0.5-0.4,1-0.4,1.5c0,0.1,0,0.4,0,0.8
	c0,0.4,0.1,1,0.2,1.8s0.2,1.5,0.2,2.3c-0.3,0-0.6,0.1-0.8,0.1c-0.2,0.1-0.4,0.1-0.5,0.1c-0.1,0-0.3-0.1-0.4-0.2
	c-0.1-0.1-0.2-0.4-0.3-0.7c0-0.1,0-0.4-0.1-0.8c0-0.5-0.1-1-0.2-1.6c-0.1-0.6-0.2-1.3-0.2-2.1c-0.1-0.8-0.2-1.5-0.3-2.2
	c-0.2-1.6-0.3-2.8-0.4-3.5c0-0.4,0.3-0.6,0.8-0.6c0.3,0,0.6,0.1,0.8,0.4c0.2,0.3,0.3,0.6,0.5,1c0.1,0.4,0.2,0.7,0.2,1.1
	c0,0.4,0.1,0.6,0.1,0.7c2.1-1.9,4.7-2.8,7.9-2.8c0.4,0,0.7,0,1.1,0c0.1,0,0.2,0,0.4,0c0.1,0,0.3,0.1,0.4,0.3
	c0.2,0.2,0.3,0.5,0.3,0.8C413.5,61.1,413.3,61.6,412.9,61.7z M389.5,66.5c0,1,0.3,1.7,0.8,2c0.4,0.3,1.1,0.4,2,0.4
	c0.9,0,1.8-0.1,2.5-0.2c0.7-0.1,1.4-0.4,1.9-0.7c1.2-0.8,1.8-2,1.8-3.6c0-1-0.3-1.7-0.8-2.4c-0.6-0.7-1.3-1-2.2-1
	c-0.6,0.1-1.3,0.2-1.9,0.4c-0.6,0.1-1.2,0.4-1.8,0.7C390.7,62.9,389.9,64.3,389.5,66.5z M387.8,65.9c0-1.9,0.8-3.4,2.4-4.6
	c1.3-0.9,2.9-1.5,4.7-1.7c0.1,0,0.3,0,0.7,0c0.4,0,0.8,0.1,1.4,0.3c1.3,0.5,2.2,1.2,2.7,2.4c0.2,0.5,0.3,0.8,0.3,1.1
	c0,0.3,0,0.5,0,0.7c0,2-0.8,3.6-2.3,4.7c-1.4,1.1-3.2,1.6-5.3,1.6c-1.5,0-2.7-0.4-3.4-1.1C388.2,68.7,387.8,67.5,387.8,65.9z
	 M381.7,57.1c-1-1-2.2-1.5-3.5-1.5c-1.2,0-2.4,0.5-3.5,1.4c-1.4,1.2-2.4,2.6-2.9,4.5c-0.2,0.7-0.3,1.2-0.3,1.6c0,0.4,0,0.8,0,1
	c0,1.6,0.5,2.8,1.6,3.7c1,0.8,2.3,1.2,3.9,1.2c2.1-0.2,4.2-1,6.2-2.5c0.5-0.4,1.1-0.8,1.7-1.2c0.2,0,0.5,0,0.7,0.1
	c0.2,0.1,0.3,0.3,0.3,0.6c-1.6,1.4-2.9,2.4-4,3c-2,1.1-3.8,1.6-5.5,1.6c-0.1,0-0.2,0-0.3,0c-1.8,0-3.3-0.6-4.6-1.7
	c-1.3-1.2-2-2.6-2-4.4c0-1.3,0.2-2.6,0.7-3.8c0.5-1.2,1.1-2.3,1.9-3.2c0.8-0.9,1.8-1.7,2.9-2.2c1.1-0.5,2.3-0.8,3.6-0.8
	c1.1,0,1.8,0.2,2.2,0.5C381.5,55.3,381.7,56,381.7,57.1z"/>
<path class="corEtiquetaTxt" d="M502.7,107.6c0,1,0.3,1.7,0.8,2c0.4,0.3,1.1,0.4,2,0.4c0.9,0,1.8-0.1,2.5-0.2c0.7-0.1,1.4-0.4,1.9-0.7
	c1.2-0.8,1.8-2,1.8-3.6c0-1-0.3-1.7-0.8-2.4c-0.6-0.7-1.3-1-2.2-1c-0.6,0.1-1.3,0.2-1.9,0.4c-0.6,0.1-1.2,0.4-1.8,0.7
	C503.8,104,503,105.4,502.7,107.6 M501,107c0-1.9,0.8-3.4,2.4-4.6c1.3-0.9,2.9-1.5,4.7-1.7c0.1,0,0.3,0,0.7,0s0.8,0.1,1.4,0.3
	c1.3,0.5,2.2,1.2,2.7,2.4c0.2,0.5,0.3,0.8,0.3,1.1c0,0.3,0,0.5,0,0.7c0,2-0.8,3.6-2.3,4.7c-1.4,1.1-3.2,1.6-5.3,1.6
	c-1.5,0-2.7-0.4-3.4-1.1C501.4,109.8,501,108.6,501,107z M494.6,109c0.7-0.3,1.3-0.5,1.9-0.7c0.6-0.2,1.2-0.3,1.8-0.3
	c0.6,0,0.9,0.2,0.9,0.5c0,0.1,0,0.2-0.1,0.4c0,0.2-0.3,0.4-0.6,0.6c-0.4,0.2-0.9,0.5-1.4,0.7c-0.6,0.2-1.2,0.4-1.9,0.6
	s-1.3,0.3-2,0.5c-1.3,0.3-2.3,0.4-2.8,0.4c-0.6,0-1.2-0.1-1.8-0.2c-0.6-0.1-1.3-0.3-1.8-0.6c-1.3-0.7-1.9-1.7-1.9-3
	c0-0.1,0-0.3,0-0.6c0-0.3,0.1-0.7,0.4-1.2c0.2-0.5,0.6-1.1,1.1-1.6c0.5-0.5,1-1,1.7-1.5c1.3-1,2.8-1.6,4.2-1.9
	c0.5-0.1,0.9-0.2,1.3-0.2c0.3,0,0.6,0,0.9,0c0.2,0,0.5,0,0.7,0c0.2,0,0.5,0.1,0.6,0.2c0.4,0.2,0.6,0.6,0.6,1.2
	c0,0.4-0.3,0.8-0.8,1.1c-0.1,0.1-0.3,0.2-0.4,0.3c-0.1-0.4-0.2-0.7-0.3-0.9c-0.1-0.3-0.4-0.4-0.8-0.4c-1.9,0.4-3.5,1-4.9,1.8
	c-1.5,0.9-2.3,1.9-2.3,2.9c0,0.1,0,0.2,0,0.4c0,1,0.4,1.8,1.2,2.2c0.6,0.3,1.4,0.5,2.3,0.5c0.9,0,1.8-0.1,2.4-0.3
	C493.2,109.5,493.9,109.3,494.6,109z M481,97c0-0.6,0.3-0.8,1-0.8c0.4,0,0.8,0.1,1.1,0.3c0,0.2,0.1,0.3,0.1,0.5s-0.1,0.3-0.2,0.5
	c-0.1,0.2-0.3,0.2-0.6,0.2c-0.3,0-0.5-0.1-0.8-0.2C481.4,97.4,481.2,97.2,481,97z M483.3,100.3c0.2,3,0.4,6.5,0.5,10.4
	c-0.1,0.5-0.5,0.7-1.2,0.7c-0.2,0-0.4,0-0.5-0.1c-0.2-0.1-0.3-0.2-0.3-0.3v-10.7H483.3z M477.7,102.2c0-0.9-0.1-1.6-0.1-2.3
	c0-0.7,0-1.2-0.1-1.5s-0.1-1.1-0.4-2.4c0.1-0.2,0.3-0.4,0.4-0.6c0.1-0.2,0.3-0.3,0.6-0.3c0.6,0,1,2.4,1.3,7.1
	c0.2,2.7,0.2,5.5,0.2,8.2c0,0.7-0.5,1.1-1.5,1.1l-0.2,0c0-0.8,0-1.9-0.1-3.2c0-1.3-0.1-2.4-0.1-3.4
	C477.7,104,477.7,103.1,477.7,102.2z M475.3,96.2c0.2-0.3,0.5-0.5,0.7-0.5c0.2,0,0.3,0.1,0.4,0.2c0.1,0.2,0.1,0.3,0.1,0.4
	c0,0.1-0.1,0.3-0.1,0.4c-0.1,0.1-0.2,0.3-0.3,0.5c-0.3,0.3-0.8,0.8-1.7,1.5l-0.7-0.7L475.3,96.2z M475.7,100.3
	c0.2,3,0.4,6.5,0.5,10.4c-0.1,0.5-0.5,0.7-1.2,0.7c-0.2,0-0.4,0-0.5-0.1c-0.2-0.1-0.3-0.2-0.3-0.3v-10.7H475.7z M471.7,102.8
	c-0.7-0.5-1.5-0.7-2.6-0.7c-1,0-1.9,0.2-2.8,0.6c-1.6,0.7-2.7,1.5-3.3,2.6c-0.3,0.5-0.4,1-0.4,1.5c0,0.1,0,0.4,0,0.8
	c0,0.4,0.1,1,0.2,1.8c0.2,0.7,0.2,1.5,0.2,2.3c-0.3,0-0.6,0.1-0.8,0.1s-0.4,0.1-0.5,0.1s-0.3-0.1-0.4-0.2c-0.1-0.1-0.2-0.4-0.3-0.7
	c0-0.1,0-0.4-0.1-0.8c0-0.5-0.1-1-0.2-1.6c-0.1-0.6-0.2-1.3-0.2-2.1c-0.1-0.8-0.2-1.5-0.3-2.2c-0.2-1.6-0.3-2.8-0.4-3.5
	c0-0.4,0.3-0.6,0.8-0.6c0.3,0,0.6,0.1,0.8,0.4c0.2,0.3,0.3,0.6,0.5,1c0.1,0.4,0.2,0.7,0.2,1.1c0,0.4,0.1,0.6,0.1,0.7
	c2.1-1.9,4.7-2.8,7.9-2.8c0.4,0,0.7,0,1.1,0c0.1,0,0.2,0,0.4,0s0.3,0.1,0.4,0.3c0.2,0.2,0.3,0.5,0.3,0.8
	C472.4,102.2,472.2,102.7,471.7,102.8z M454.1,109c0.7-0.3,1.3-0.5,1.9-0.7c0.6-0.2,1.2-0.3,1.8-0.3c0.6,0,0.9,0.2,0.9,0.5
	c0,0.1,0,0.2-0.1,0.4c0,0.2-0.3,0.4-0.6,0.6c-0.4,0.2-0.9,0.5-1.4,0.7c-0.6,0.2-1.2,0.4-1.9,0.6s-1.3,0.3-2,0.5
	c-1.3,0.3-2.3,0.4-2.8,0.4c-0.6,0-1.2-0.1-1.8-0.2c-0.6-0.1-1.3-0.3-1.8-0.6c-1.3-0.7-1.9-1.7-1.9-3c0-0.1,0-0.3,0-0.6
	c0-0.3,0.1-0.7,0.4-1.2c0.2-0.5,0.6-1.1,1.1-1.6c0.5-0.5,1-1,1.7-1.5c1.3-1,2.8-1.6,4.2-1.9c0.5-0.1,0.9-0.2,1.3-0.2
	c0.3,0,0.6,0,0.9,0c0.2,0,0.5,0,0.7,0c0.2,0,0.5,0.1,0.6,0.2c0.4,0.2,0.6,0.6,0.6,1.2c0,0.4-0.3,0.8-0.8,1.1
	c-0.1,0.1-0.3,0.2-0.4,0.3c-0.1-0.4-0.2-0.7-0.3-0.9c-0.1-0.3-0.4-0.4-0.8-0.4c-1.9,0.4-3.5,1-4.9,1.8c-1.5,0.9-2.3,1.9-2.3,2.9
	c0,0.1,0,0.2,0,0.4c0,1,0.4,1.8,1.2,2.2c0.6,0.3,1.4,0.5,2.3,0.5c0.9,0,1.8-0.1,2.4-0.3C452.8,109.5,453.5,109.3,454.1,109z
	 M441.2,103.8c0-0.9-0.5-1.4-1.4-1.4c-0.1,0-0.2,0-0.3,0c-1.2,0-2.4,0.6-3.7,1.7c-0.6,0.5-1.1,1.1-1.6,1.7c-0.6,0.9-1,1.7-1,2.5
	c0,0.9,0.5,1.5,1.6,1.7c1.4,0,2.8-0.7,4.1-2c0.6-0.6,1-1.2,1.4-1.8C441,105.3,441.2,104.5,441.2,103.8z M441.3,107.6
	c-1.2,1.9-2.8,3.1-4.8,3.5c-0.5,0.1-0.9,0.1-1.3,0.1c-0.4,0-0.7,0-0.9,0c-0.3,0-0.5,0-0.8-0.1c-0.3-0.1-0.6-0.2-0.8-0.3
	c-0.6-0.3-0.9-0.8-0.9-1.4c-0.1-0.3-0.1-0.6-0.1-1c0-0.4,0.1-0.8,0.2-1.4c0.2-0.6,0.5-1.2,0.9-1.9c0.4-0.7,0.9-1.3,1.5-1.9
	c1.3-1.2,2.6-2,4.1-2.4c0.4-0.1,0.8-0.1,1.2-0.1c0.4,0,0.7,0,1,0.1c0.9,0,1.6,0.6,1.9,1.9c0.2,0.8,0.3,1.9,0.4,3.4
	c0,1.4,0.1,2.5,0.1,3.3c0,0.8,0.1,1.5,0.3,2.1h-1.4c-0.1-0.4-0.1-0.8-0.1-1.2c0-0.3-0.1-0.7-0.1-0.9
	C441.5,108.7,441.4,108.1,441.3,107.6z M417.9,102.5c-0.4-0.3-0.7-0.4-1.1-0.6c-0.4-0.1-0.7-0.2-1-0.2c-0.3,0-0.7,0.1-1.3,0.3
	c-0.6,0.2-1.1,0.4-1.5,0.6c-1.1,0.5-1.7,1-1.7,1.6c1.3,0.1,2.2,0.2,2.9,0.2c1.8,0,3-0.2,3.6-0.5c0.4-0.2,0.6-0.4,0.6-0.6
	C418.4,103,418.3,102.7,417.9,102.5z M413.6,109.9c1.4,0,3.5-0.6,6.4-1.9c0.2,0,0.3,0.1,0.4,0.2c0.1,0.1,0.2,0.3,0.2,0.4
	c-0.6,1.1-1.9,1.9-3.7,2.5c-1.8,0.6-3.5,0.7-5.1,0.3c-1.8-0.5-2.9-1.5-3.2-3c0-0.3,0-0.7,0-1.2c0-0.5,0.1-1.2,0.4-2
	c0.3-0.8,0.7-1.6,1.4-2.4c0.6-0.8,1.4-1.3,2.3-1.8c0.9-0.4,1.8-0.6,2.8-0.6c0.9,0,2,0.3,3.1,1c0.5,0.3,1,0.6,1.3,1
	c0.3,0.4,0.5,0.8,0.5,1.2c0,0.1,0,0.2,0,0.3c0,1-0.5,1.6-1.4,1.8c-0.4,0.1-0.9,0.2-1.4,0.2l-3.5-0.1c-1.2,0-2,0.3-2.6,0.7
	c-0.4,0.3-0.6,0.7-0.7,1.2C410.9,109.1,412,109.9,413.6,109.9z M397.4,107.8c0,1.3,0.5,1.9,1.4,1.9c0.1,0,0.3,0,0.5,0
	c0.7,0,1.5-0.2,2.4-0.6c1.8-0.7,2.9-1.3,3.3-1.9V104c0-0.6-0.5-0.8-1.4-0.8c-0.1,0-0.3,0-0.4,0c-0.2,0-0.5,0-0.9,0.1
	c-0.4,0.1-0.8,0.2-1.3,0.4c-0.5,0.2-1,0.5-1.4,0.8c-1,0.7-1.6,1.4-2,2.3C397.5,107.1,397.4,107.4,397.4,107.8z M407.5,92.3
	c0,1.5,0,3-0.1,4.5c-0.1,1.5-0.2,2.9-0.2,4.3c-0.1,1.4-0.1,2.9-0.1,4.5s0.1,3.2,0.3,5c0,0.4-0.1,0.6-0.2,0.8
	c-0.1,0.2-0.4,0.2-0.7,0.2c-0.8,0-1.1-0.6-1.1-1.9v-0.8c-2.3,1.7-4.2,2.5-5.8,2.5c-0.6,0-1.3-0.2-1.9-0.5c-0.6-0.3-1.3-0.9-1.8-1.8
	c-0.1-0.4-0.1-0.8-0.1-1.2s0.1-0.9,0.2-1.5c0.2-0.6,0.5-1.2,0.9-1.8c0.5-0.6,1-1.1,1.7-1.6c1.5-1,3.1-1.5,4.8-1.5
	c0.7,0,1.4,0.1,2.1,0.3c0-0.3,0-0.8,0.1-1.5s0.1-1.5,0.1-2.3c0.1-2.1,0.2-3.3,0.2-3.7c0-0.4,0.1-0.7,0.1-1c0.1-0.3,0.1-0.5,0.3-0.7
	C406.5,92.5,406.9,92.3,407.5,92.3z M383.1,103.8c0-0.9-0.5-1.4-1.4-1.4c-0.1,0-0.2,0-0.3,0c-1.2,0-2.4,0.6-3.7,1.7
	c-0.6,0.5-1.1,1.1-1.6,1.7c-0.6,0.9-1,1.7-1,2.5c0,0.9,0.5,1.5,1.6,1.7c1.4,0,2.8-0.7,4.1-2c0.6-0.6,1-1.2,1.4-1.8
	C382.8,105.3,383.1,104.5,383.1,103.8z M383.2,107.6c-1.2,1.9-2.8,3.1-4.8,3.5c-0.5,0.1-0.9,0.1-1.3,0.1c-0.4,0-0.7,0-0.9,0
	c-0.3,0-0.5,0-0.8-0.1c-0.3-0.1-0.6-0.2-0.8-0.3c-0.6-0.3-0.9-0.8-0.9-1.4c-0.1-0.3-0.1-0.6-0.1-1c0-0.4,0.1-0.8,0.2-1.4
	c0.2-0.6,0.5-1.2,0.9-1.9c0.4-0.7,0.9-1.3,1.6-1.9c1.3-1.2,2.6-2,4.1-2.4c0.4-0.1,0.8-0.1,1.2-0.1c0.4,0,0.7,0,1,0.1
	c0.9,0,1.6,0.6,1.9,1.9c0.2,0.8,0.3,1.9,0.4,3.4c0,1.4,0.1,2.5,0.1,3.3c0,0.8,0.1,1.5,0.3,2.1h-1.4c-0.1-0.4-0.1-0.8-0.1-1.2
	s-0.1-0.7-0.1-0.9C383.4,108.7,383.3,108.1,383.2,107.6z M372,102.8c-0.7-0.5-1.5-0.7-2.6-0.7c-1,0-1.9,0.2-2.8,0.6
	c-1.6,0.7-2.7,1.5-3.3,2.6c-0.3,0.5-0.4,1-0.4,1.5c0,0.1,0,0.4,0,0.8c0,0.4,0.1,1,0.2,1.8c0.2,0.7,0.2,1.5,0.2,2.3
	c-0.3,0-0.6,0.1-0.8,0.1c-0.2,0.1-0.4,0.1-0.5,0.1c-0.1,0-0.3-0.1-0.4-0.2c-0.1-0.1-0.2-0.4-0.3-0.7c0-0.1,0-0.4-0.1-0.8
	c0-0.5-0.1-1-0.2-1.6c-0.1-0.6-0.2-1.3-0.2-2.1c-0.1-0.8-0.2-1.5-0.3-2.2c-0.2-1.6-0.3-2.8-0.4-3.5c0-0.4,0.3-0.6,0.8-0.6
	c0.3,0,0.6,0.1,0.8,0.4c0.2,0.3,0.3,0.6,0.5,1s0.2,0.7,0.2,1.1c0,0.4,0.1,0.6,0.1,0.7c2.1-1.9,4.7-2.8,7.9-2.8c0.4,0,0.7,0,1.1,0
	c0.1,0,0.2,0,0.4,0c0.1,0,0.3,0.1,0.4,0.3c0.2,0.2,0.3,0.5,0.3,0.8C372.6,102.2,372.4,102.7,372,102.8z M357,103.8
	c0-0.9-0.5-1.4-1.4-1.4c-0.1,0-0.2,0-0.3,0c-1.2,0-2.4,0.6-3.7,1.7c-0.6,0.5-1.1,1.1-1.6,1.7c-0.6,0.9-1,1.7-1,2.5
	c0,0.9,0.5,1.5,1.6,1.7c1.4,0,2.8-0.7,4.1-2c0.6-0.6,1-1.2,1.4-1.8C356.7,105.3,357,104.5,357,103.8z M357.1,107.6
	c-1.2,1.9-2.8,3.1-4.8,3.5c-0.5,0.1-0.9,0.1-1.3,0.1c-0.4,0-0.7,0-0.9,0c-0.3,0-0.5,0-0.8-0.1c-0.3-0.1-0.6-0.2-0.8-0.3
	c-0.6-0.3-0.9-0.8-0.9-1.4c-0.1-0.3-0.1-0.6-0.1-1c0-0.4,0.1-0.8,0.2-1.4c0.2-0.6,0.5-1.2,0.9-1.9c0.4-0.7,0.9-1.3,1.6-1.9
	c1.3-1.2,2.6-2,4.1-2.4c0.4-0.1,0.8-0.1,1.2-0.1s0.7,0,1,0.1c0.9,0,1.6,0.6,1.9,1.9c0.2,0.8,0.3,1.9,0.4,3.4c0,1.4,0.1,2.5,0.1,3.3
	c0,0.8,0.1,1.5,0.3,2.1h-1.4c-0.1-0.4-0.1-0.8-0.1-1.2s-0.1-0.7-0.1-0.9C357.3,108.7,357.2,108.1,357.1,107.6z M342.1,98.2
	c-1-1-2.2-1.5-3.5-1.5c-1.2,0-2.4,0.5-3.5,1.4c-1.4,1.2-2.4,2.6-2.9,4.5c-0.2,0.7-0.3,1.2-0.3,1.6c0,0.4,0,0.8,0,1
	c0,1.6,0.5,2.8,1.6,3.7c1,0.8,2.3,1.2,3.9,1.2c2.1-0.2,4.2-1,6.2-2.5c0.5-0.4,1.1-0.8,1.7-1.2c0.2,0,0.5,0,0.7,0.1
	c0.2,0.1,0.3,0.3,0.3,0.6c-1.6,1.4-2.9,2.4-4,3c-2,1.1-3.8,1.6-5.5,1.6c-0.1,0-0.2,0-0.3,0c-1.8,0-3.3-0.6-4.6-1.7
	c-1.3-1.2-2-2.6-2-4.4c0-1.3,0.2-2.6,0.7-3.8c0.5-1.2,1.1-2.3,1.9-3.2c0.8-0.9,1.8-1.7,2.9-2.2c1.1-0.5,2.3-0.8,3.6-0.8
	c1.1,0,1.8,0.2,2.2,0.5C341.9,96.4,342.1,97.1,342.1,98.2z"/>
<path class="corEtiquetaTxt" d="M509.8,130.9c0-1.9-0.1-3.3-0.3-4.2c0.1-0.2-0.1-0.4-0.6-0.4c-0.5,0-1.3,0.1-2.1,0.4c-0.9,0.3-1.6,0.5-2.1,0.8
	c-1.3,0.6-2,1.2-2.2,1.8v6.5H501c-0.2-0.5-0.3-2.1-0.3-4.6c0-2.2,0-3.9,0.1-4.9c0.1-1.1,0.2-1.7,0.2-1.8c0.4-0.3,0.8-0.4,1-0.4
	c0.4,0,0.6,0.5,0.6,1.4c0,0.4,0,0.7-0.1,1.1s-0.1,0.6-0.1,0.7c2.6-1.9,4.6-2.9,6-2.9c1.6,0,2.5,1.3,2.8,3.9c0.1,0.9,0.1,2.2,0.1,3.8
	l0,1.9c0,0.7,0,1.4,0,2c-0.2,0.1-0.3,0.1-0.4,0.1c0,0-0.2,0-0.3-0.1c-0.2,0-0.4-0.1-0.6-0.1c-0.2-0.6-0.3-1.3-0.3-2
	c0-0.7,0-1.3,0-1.8L509.8,130.9z M497.3,128.4c0-0.9-0.5-1.4-1.4-1.4c-0.1,0-0.2,0-0.3,0c-1.2,0-2.4,0.6-3.7,1.7
	c-0.6,0.5-1.1,1.1-1.6,1.7c-0.6,0.9-1,1.7-1,2.5c0,0.9,0.5,1.5,1.6,1.7c1.4,0,2.8-0.7,4.1-2c0.6-0.6,1-1.2,1.4-1.8
	C497.1,129.9,497.3,129.1,497.3,128.4z M497.4,132.2c-1.2,1.9-2.8,3.1-4.8,3.5c-0.5,0.1-0.9,0.1-1.3,0.1c-0.4,0-0.7,0-0.9,0
	c-0.3,0-0.5,0-0.8-0.1c-0.3-0.1-0.6-0.2-0.8-0.3c-0.6-0.3-0.9-0.8-0.9-1.4c-0.1-0.3-0.1-0.6-0.1-1c0-0.4,0.1-0.8,0.2-1.4
	c0.2-0.6,0.5-1.2,0.9-1.9c0.4-0.7,0.9-1.3,1.5-1.9c1.3-1.2,2.6-2,4.1-2.4c0.4-0.1,0.8-0.1,1.2-0.1c0.4,0,0.7,0,1,0.1
	c0.9,0,1.6,0.6,1.9,1.9c0.2,0.8,0.3,1.9,0.4,3.4c0,1.4,0.1,2.5,0.1,3.3c0,0.8,0.1,1.5,0.3,2.1h-1.4c-0.1-0.4-0.1-0.8-0.1-1.2
	c0-0.3-0.1-0.7-0.1-0.9C497.6,133.2,497.5,132.7,497.4,132.2z M476.4,132.2c0,1,0.3,1.7,0.8,2c0.4,0.3,1.1,0.4,2,0.4
	c0.9,0,1.8-0.1,2.5-0.2c0.7-0.1,1.4-0.4,1.9-0.7c1.2-0.8,1.8-2,1.8-3.6c0-1-0.3-1.7-0.8-2.4c-0.6-0.7-1.3-1-2.2-1
	c-0.6,0.1-1.3,0.2-1.9,0.4c-0.6,0.1-1.2,0.4-1.8,0.7C477.5,128.6,476.8,130,476.4,132.2z M474.7,131.6c0-1.9,0.8-3.4,2.4-4.6
	c1.3-0.9,2.9-1.5,4.7-1.7c0.1,0,0.3,0,0.7,0c0.4,0,0.8,0.1,1.4,0.3c1.3,0.5,2.2,1.2,2.7,2.4c0.2,0.5,0.3,0.8,0.3,1.1
	c0,0.3,0,0.5,0,0.7c0,2-0.8,3.6-2.3,4.7c-1.4,1.1-3.2,1.6-5.3,1.6c-1.5,0-2.7-0.4-3.4-1.1C475.1,134.4,474.7,133.2,474.7,131.6z
	 M473.3,128.1c0.1,0,0.1,0.2,0.1,0.6c0,0.4,0,0.7,0,0.9l-8.2,1l0.4,5.3l-1.9-0.1c0-1.4-0.2-3.1-0.5-4.9l-3.1,1.2
	c-0.2,0-0.4-0.1-0.5-0.4c-0.3-0.4-0.4-0.8-0.4-1.1l3.7-1.3c-0.3-2.8-0.5-5-0.5-6.7c0-1.7,0.1-3.1,0.4-4c0.3-1,0.7-1.6,1.3-1.9
	c0.5-0.3,1.1-0.5,1.8-0.5c0.6,0,1.3,0.1,1.9,0.4c0.6,0.3,1.3,0.6,1.9,1c0.6,0.4,1.1,0.9,1.5,1.4c0.4,0.5,0.6,1,0.6,1.5
	c0,0.4,0,0.7-0.1,0.8c-0.6-0.9-1.4-1.7-2.3-2.4c-1.1-0.8-2.1-1.2-3.1-1.2c-0.9,0-1.5,0.6-1.8,1.9c-0.1,0.7-0.2,1.6-0.2,2.8
	c0,1.2,0,2.3,0.1,3.4c0.1,1,0.3,2,0.6,3.1c1,0,2.1-0.1,3.3-0.3C470.6,128.3,472.3,128.1,473.3,128.1z M455.7,121.6
	c0-0.6,0.3-0.8,1-0.8c0.4,0,0.8,0.1,1.1,0.3c0,0.2,0.1,0.3,0.1,0.5c0,0.2-0.1,0.3-0.2,0.5c-0.1,0.2-0.3,0.2-0.6,0.2
	c-0.3,0-0.5-0.1-0.8-0.2C456,122,455.9,121.8,455.7,121.6z M458,124.9c0.2,3,0.4,6.5,0.5,10.4c-0.1,0.5-0.5,0.7-1.2,0.7
	c-0.2,0-0.4,0-0.5-0.1c-0.2-0.1-0.3-0.2-0.3-0.3v-10.7H458z M452.4,126.8c0-0.9-0.1-1.6-0.1-2.3s0-1.2-0.1-1.5
	c0-0.3-0.1-1.1-0.4-2.4c0.1-0.2,0.3-0.4,0.4-0.6c0.1-0.2,0.3-0.3,0.6-0.3c0.6,0,1,2.4,1.3,7.1c0.2,2.7,0.2,5.5,0.2,8.2
	c0,0.7-0.5,1.1-1.5,1.1l-0.2,0c0-0.8,0-1.9-0.1-3.2c0-1.3-0.1-2.4-0.1-3.4C452.4,128.6,452.4,127.7,452.4,126.8z M440.3,132.2
	c0,1,0.3,1.7,0.8,2c0.4,0.3,1.1,0.4,2,0.4c0.9,0,1.8-0.1,2.5-0.2c0.7-0.1,1.4-0.4,1.9-0.7c1.2-0.8,1.8-2,1.8-3.6
	c0-1-0.3-1.7-0.8-2.4c-0.6-0.7-1.3-1-2.2-1c-0.6,0.1-1.3,0.2-1.9,0.4c-0.6,0.1-1.2,0.4-1.8,0.7C441.5,128.6,440.7,130,440.3,132.2z
	 M438.7,131.6c0-1.9,0.8-3.4,2.4-4.6c1.3-0.9,2.9-1.5,4.7-1.7c0.1,0,0.3,0,0.7,0s0.8,0.1,1.4,0.3c1.3,0.5,2.2,1.2,2.7,2.4
	c0.2,0.5,0.3,0.8,0.3,1.1c0,0.3,0,0.5,0,0.7c0,2-0.8,3.6-2.3,4.7c-1.4,1.1-3.2,1.6-5.3,1.6c-1.5,0-2.7-0.4-3.4-1.1
	C439.1,134.4,438.7,133.2,438.7,131.6z M433.7,127.4c-0.5-0.3-1.1-0.4-1.7-0.4c-0.6,0-1.2,0.1-1.8,0.2c-1.3,0.3-2.3,0.8-3,1.7
	c-0.3,0.4-0.4,0.9-0.4,1.5c0,0.1,0,0.1,0,0.2v4.2c3.3-0.7,5.6-1.8,7-3.1c0.8-0.8,1.2-1.5,1.2-2.3C435,128.5,434.6,127.8,433.7,127.4
	z M426.7,126.5c2.2-0.8,4.1-1.1,5.6-1.1c2,0,3.4,0.5,4,1.6c0.3,0.5,0.5,1,0.5,1.6c0,0.8-0.3,1.6-0.8,2.5s-1.2,1.6-2,2.3
	c-1.9,1.6-4.3,2.6-7.1,3c0,0.2,0,0.5,0,0.9c0,0.4,0,0.8,0,1.3c0,0.5,0,1,0,1.5c0,0.5,0,1.1,0,1.6c0,1.2,0.1,1.9,0.1,2.1
	c0,0.2,0,0.3,0,0.4c0,0.4-0.1,0.7-0.4,0.9c-0.3,0.2-0.6,0.3-1,0.3c-0.1,0-0.2,0-0.2,0l-0.4-19.3c0.1-0.2,0.3-0.3,0.6-0.3
	s0.4,0.1,0.6,0.2C426.5,126,426.6,126.2,426.7,126.5z M403,132.2c0,1,0.3,1.7,0.8,2c0.4,0.3,1.1,0.4,2,0.4c0.9,0,1.8-0.1,2.5-0.2
	c0.7-0.1,1.4-0.4,1.9-0.7c1.2-0.8,1.8-2,1.8-3.6c0-1-0.3-1.7-0.8-2.4c-0.6-0.7-1.3-1-2.2-1c-0.6,0.1-1.3,0.2-1.9,0.4
	c-0.6,0.1-1.2,0.4-1.8,0.7C404.1,128.6,403.3,130,403,132.2z M401.3,131.6c0-1.9,0.8-3.4,2.4-4.6c1.3-0.9,2.9-1.5,4.7-1.7
	c0.1,0,0.3,0,0.7,0c0.4,0,0.8,0.1,1.4,0.3c1.3,0.5,2.2,1.2,2.7,2.4c0.2,0.5,0.3,0.8,0.3,1.1c0,0.3,0,0.5,0,0.7c0,2-0.8,3.6-2.3,4.7
	c-1.4,1.1-3.2,1.6-5.3,1.6c-1.5,0-2.7-0.4-3.4-1.1C401.7,134.4,401.3,133.2,401.3,131.6z M396.3,127.4c-0.5-0.3-1.1-0.4-1.7-0.4
	c-0.6,0-1.2,0.1-1.8,0.2c-1.3,0.3-2.3,0.8-3,1.7c-0.3,0.4-0.4,0.9-0.4,1.5c0,0.1,0,0.1,0,0.2v4.2c3.3-0.7,5.6-1.8,7-3.1
	c0.8-0.8,1.2-1.5,1.2-2.3C397.7,128.5,397.2,127.8,396.3,127.4z M389.3,126.5c2.2-0.8,4.1-1.1,5.6-1.1c2,0,3.4,0.5,4,1.6
	c0.3,0.5,0.5,1,0.5,1.6c0,0.8-0.3,1.6-0.8,2.5c-0.5,0.8-1.2,1.6-2,2.3c-1.9,1.6-4.3,2.6-7.1,3c0,0.2,0,0.5,0,0.9c0,0.4,0,0.8,0,1.3
	c0,0.5,0,1,0,1.5c0,0.5,0,1.1,0,1.6c0,1.2,0.1,1.9,0.1,2.1c0,0.2,0,0.3,0,0.4c0,0.4-0.1,0.7-0.4,0.9c-0.3,0.2-0.6,0.3-1,0.3
	c-0.1,0-0.2,0-0.2,0l-0.4-19.3c0.1-0.2,0.3-0.3,0.6-0.3c0.2,0,0.4,0.1,0.6,0.2C389.2,126,389.3,126.2,389.3,126.5z M385.2,127.4
	c-0.7-0.5-1.5-0.7-2.6-0.7c-1,0-1.9,0.2-2.8,0.6c-1.6,0.7-2.7,1.5-3.3,2.6c-0.3,0.5-0.4,1-0.4,1.5c0,0.1,0,0.4,0,0.8
	c0,0.4,0.1,1,0.2,1.8c0.2,0.7,0.2,1.5,0.2,2.3c-0.3,0-0.6,0.1-0.8,0.1c-0.2,0.1-0.4,0.1-0.5,0.1c-0.1,0-0.3-0.1-0.4-0.2
	c-0.1-0.1-0.2-0.4-0.3-0.7c0-0.1,0-0.4-0.1-0.8c0-0.5-0.1-1-0.2-1.6c-0.1-0.6-0.2-1.3-0.2-2.1c-0.1-0.8-0.2-1.5-0.3-2.2
	c-0.2-1.6-0.3-2.8-0.4-3.5c0-0.4,0.3-0.6,0.8-0.6c0.3,0,0.6,0.1,0.8,0.4c0.2,0.3,0.3,0.6,0.5,1c0.1,0.4,0.2,0.7,0.2,1.1
	c0,0.4,0.1,0.6,0.1,0.7c2.1-1.9,4.7-2.8,7.9-2.8c0.4,0,0.7,0,1.1,0c0.1,0,0.2,0,0.4,0c0.1,0,0.3,0.1,0.4,0.3
	c0.2,0.2,0.3,0.5,0.3,0.8C385.9,126.8,385.7,127.3,385.2,127.4z M369.3,127c-0.4-0.3-0.7-0.4-1.1-0.6c-0.4-0.1-0.7-0.2-1-0.2
	c-0.3,0-0.7,0.1-1.3,0.3c-0.6,0.2-1.1,0.4-1.5,0.6c-1.1,0.5-1.7,1-1.7,1.6c1.3,0.1,2.2,0.2,2.9,0.2c1.8,0,3-0.2,3.6-0.5
	c0.4-0.2,0.6-0.4,0.6-0.6C369.9,127.6,369.7,127.3,369.3,127z M365,134.5c1.4,0,3.5-0.6,6.4-1.9c0.2,0,0.3,0.1,0.4,0.2
	c0.1,0.1,0.2,0.3,0.2,0.4c-0.6,1.1-1.9,1.9-3.7,2.5c-1.8,0.6-3.5,0.7-5.1,0.3c-1.8-0.5-2.9-1.5-3.2-3c0-0.3,0-0.7,0-1.2
	s0.1-1.2,0.4-2c0.3-0.8,0.7-1.6,1.4-2.4c0.6-0.8,1.4-1.3,2.3-1.8c0.9-0.4,1.8-0.6,2.8-0.6c0.9,0,2,0.3,3.1,1c0.5,0.3,1,0.6,1.3,1
	c0.3,0.4,0.5,0.8,0.5,1.2c0,0.1,0,0.2,0,0.3c0,1-0.5,1.6-1.4,1.8c-0.4,0.1-0.9,0.2-1.4,0.2l-3.5-0.1c-1.2,0-2,0.3-2.6,0.7
	c-0.4,0.3-0.6,0.7-0.7,1.2C362.4,133.7,363.4,134.5,365,134.5z M347.5,133c0-0.3,0-0.6-0.1-1.1c0-0.5-0.1-1-0.1-1.5
	c0-0.5,0-1.1,0-1.7c0-0.6,0-1.1,0.1-1.5c0.2-1,0.6-1.6,1.3-1.6c0.4,0.1,0.7,0.3,0.9,0.5c0.2,0.2,0.2,0.4,0.2,0.7
	c0,0.3-0.1,0.6-0.2,1c-0.5,1.4-0.8,2.7-0.8,3.8c0,0.4,0,0.8,0.1,1.2c0.3,1.1,1.1,1.6,2.6,1.6c0.8,0,1.5-0.1,2.2-0.4
	c1.3-0.5,2.3-1.1,2.7-1.8c0.1-0.7,0.2-1.4,0.2-1.9c0-0.6,0-1-0.1-1.5c0-0.4-0.1-0.9-0.1-1.4c-0.1-0.5-0.1-1.1-0.1-1.7
	c0.2-0.1,0.4-0.1,0.6-0.1c0.2,0,0.4,0.1,0.6,0.3c0.2,0.2,0.4,0.6,0.6,1.2c0.2,0.6,0.3,1.3,0.3,2c0,0.8,0.1,1.6,0.1,2.4
	c0,0.8,0,1.6,0,2.4c0,0.8,0,1.4,0.1,2c-0.2,0.2-0.4,0.3-0.6,0.3c-0.6,0-1.1-0.6-1.4-1.9c-0.2,0.2-0.6,0.4-1.1,0.6
	c-1.1,0.6-2.3,1-3.7,1.2c-0.3,0-0.6,0-0.9,0c-0.3,0-0.8-0.1-1.3-0.2c-0.5-0.1-1-0.4-1.4-0.9C347.9,134.6,347.6,133.9,347.5,133z
	 M342.1,122.8c-1-1-2.2-1.5-3.5-1.5c-1.2,0-2.4,0.5-3.5,1.4c-1.4,1.2-2.4,2.6-2.9,4.5c-0.2,0.7-0.3,1.2-0.3,1.6c0,0.4,0,0.8,0,1
	c0,1.6,0.5,2.8,1.6,3.7c1,0.8,2.3,1.2,3.9,1.2c2.1-0.2,4.2-1,6.2-2.5c0.5-0.4,1.1-0.8,1.7-1.2c0.2,0,0.5,0,0.7,0.1
	c0.2,0.1,0.3,0.3,0.3,0.6c-1.6,1.4-2.9,2.4-4,3c-2,1.1-3.8,1.6-5.5,1.6c-0.1,0-0.2,0-0.3,0c-1.8,0-3.3-0.6-4.6-1.7
	c-1.3-1.2-2-2.6-2-4.4c0-1.3,0.2-2.6,0.7-3.8c0.5-1.2,1.1-2.3,1.9-3.2c0.8-0.9,1.8-1.7,2.9-2.2c1.1-0.5,2.3-0.8,3.6-0.8
	c1.1,0,1.8,0.2,2.2,0.5C341.9,121,342.1,121.7,342.1,122.8z"/>
<path class="corEtiquetaTxt" d="M442,162.3c0,1.3,0.5,1.9,1.4,1.9c0.1,0,0.3,0,0.5,0c0.7,0,1.5-0.2,2.4-0.6c1.8-0.7,2.9-1.3,3.3-1.9v-3.2
	c0-0.6-0.5-0.8-1.4-0.8c-0.1,0-0.3,0-0.4,0c-0.2,0-0.5,0-0.9,0.1c-0.4,0.1-0.8,0.2-1.3,0.4c-0.5,0.2-1,0.5-1.4,0.8
	c-1,0.7-1.6,1.4-2,2.3C442.1,161.6,442,161.9,442,162.3 M452,146.8c0,1.5,0,3-0.1,4.5c-0.1,1.5-0.2,2.9-0.2,4.3
	c-0.1,1.4-0.1,2.9-0.1,4.5s0.1,3.2,0.3,5c0,0.4-0.1,0.6-0.2,0.8c-0.1,0.2-0.4,0.2-0.7,0.2c-0.8,0-1.1-0.6-1.1-1.9v-0.8
	c-2.3,1.7-4.2,2.5-5.8,2.5c-0.6,0-1.3-0.2-1.9-0.5c-0.6-0.3-1.3-0.9-1.8-1.8c-0.1-0.4-0.1-0.8-0.1-1.2s0.1-0.9,0.2-1.5
	c0.2-0.6,0.5-1.2,0.9-1.8c0.5-0.6,1-1.1,1.7-1.6c1.5-1,3.1-1.5,4.8-1.5c0.7,0,1.4,0.1,2.1,0.3c0-0.3,0-0.8,0.1-1.5s0.1-1.5,0.1-2.3
	c0.1-2.1,0.2-3.3,0.2-3.7c0-0.4,0.1-0.7,0.1-1c0.1-0.3,0.1-0.5,0.3-0.7C451,147,451.4,146.8,452,146.8z M436.6,156.9
	c-0.4-0.3-0.7-0.4-1.1-0.6c-0.4-0.1-0.7-0.2-1-0.2c-0.3,0-0.7,0.1-1.3,0.3s-1.1,0.4-1.5,0.6c-1.1,0.5-1.7,1-1.7,1.6
	c1.3,0.1,2.2,0.2,2.9,0.2c1.8,0,3-0.2,3.6-0.5c0.4-0.2,0.6-0.4,0.6-0.6C437.1,157.5,436.9,157.2,436.6,156.9z M432.3,164.4
	c1.4,0,3.5-0.6,6.4-1.9c0.2,0,0.3,0.1,0.4,0.2c0.1,0.1,0.2,0.3,0.2,0.4c-0.6,1.1-1.9,1.9-3.7,2.5c-1.8,0.6-3.5,0.7-5.1,0.3
	c-1.8-0.5-2.9-1.5-3.2-3c0-0.3,0-0.7,0-1.2c0-0.5,0.1-1.2,0.4-2c0.3-0.8,0.7-1.6,1.4-2.4c0.6-0.8,1.4-1.3,2.3-1.8
	c0.9-0.4,1.8-0.6,2.8-0.6c0.9,0,2,0.3,3.1,1c0.5,0.3,1,0.6,1.3,1s0.5,0.8,0.5,1.2c0,0.1,0,0.2,0,0.3c0,1-0.5,1.6-1.4,1.8
	c-0.4,0.1-0.9,0.2-1.4,0.2l-3.5-0.1c-1.2,0-2,0.3-2.6,0.7c-0.4,0.3-0.6,0.7-0.7,1.2C429.6,163.6,430.6,164.4,432.3,164.4z
	 M411.6,155.5l0-6l1.9,0.1l-0.2,14.1l12.7,0.4c0.3,0.1,0.4,0.2,0.4,0.4c0,0.2-0.1,0.4-0.4,0.6c-0.5,0.4-1,0.6-1.6,0.6
	c-0.1,0-0.3,0-0.5,0l-12.9-0.1C411.4,164.1,411.6,160.7,411.6,155.5z M396.4,159.9c1.8,0,2.6,0.5,2.6,1.3c0,0.7-0.5,1.5-1.5,2.4
	c-1.5,1.3-3.4,2.4-5.9,3.2c-0.1,0-0.2-0.1-0.4-0.3c-0.1-0.2-0.2-0.4-0.3-0.5c-0.1-0.1-0.1-0.2-0.2-0.2c1.8-0.6,3.4-1.3,4.5-2.2
	c0.8-0.6,1.2-1,1.2-1.4c0-0.4-0.5-0.5-1.4-0.5c-0.9,0-2.3,0.2-4.2,0.7c-0.8,0-1.6-0.3-2.2-0.9c-0.5-0.5-0.8-1-0.8-1.5s0.1-1,0.4-1.4
	c0.3-0.4,0.7-0.8,1.2-1.2c0.5-0.4,1-0.7,1.7-1c1.6-0.8,3.2-1.1,4.9-1.1c0.5,0,1,0,1.4,0.1c0.4,0,0.6,0.2,0.7,0.5
	c0.1,0.3,0.1,0.9,0.1,1.7c-0.9-0.4-2-0.6-3.2-0.6c-1.5,0-2.7,0.3-3.7,0.9c-1,0.6-1.5,1.3-1.5,2.3c0,0.5,0.3,0.7,1,0.7l1.8-0.2
	C394.2,160,395.4,159.9,396.4,159.9z M384,156.9c-0.4-0.3-0.7-0.4-1.1-0.6c-0.4-0.1-0.7-0.2-1-0.2c-0.3,0-0.7,0.1-1.3,0.3
	s-1.1,0.4-1.5,0.6c-1.1,0.5-1.7,1-1.7,1.6c1.3,0.1,2.2,0.2,2.9,0.2c1.8,0,3-0.2,3.6-0.5c0.4-0.2,0.6-0.4,0.6-0.6
	C384.6,157.5,384.4,157.2,384,156.9z M379.7,164.4c1.4,0,3.5-0.6,6.4-1.9c0.2,0,0.3,0.1,0.4,0.2c0.1,0.1,0.2,0.3,0.2,0.4
	c-0.6,1.1-1.9,1.9-3.7,2.5c-1.8,0.6-3.5,0.7-5.1,0.3c-1.8-0.5-2.9-1.5-3.2-3c0-0.3,0-0.7,0-1.2c0-0.5,0.1-1.2,0.4-2
	c0.3-0.8,0.7-1.6,1.4-2.4c0.6-0.8,1.4-1.3,2.3-1.8c0.9-0.4,1.8-0.6,2.8-0.6c0.9,0,2,0.3,3.1,1c0.5,0.3,1,0.6,1.3,1
	c0.3,0.4,0.5,0.8,0.5,1.2c0,0.1,0,0.2,0,0.3c0,1-0.5,1.6-1.4,1.8c-0.4,0.1-0.9,0.2-1.4,0.2l-3.5-0.1c-1.2,0-2,0.3-2.6,0.7
	c-0.4,0.3-0.6,0.7-0.7,1.2C377.1,163.6,378.1,164.4,379.7,164.4z M369,163.5c0.7-0.3,1.3-0.5,1.9-0.7s1.2-0.3,1.8-0.3
	c0.6,0,0.9,0.2,0.9,0.5c0,0.1,0,0.2-0.1,0.4s-0.3,0.4-0.6,0.6c-0.4,0.2-0.9,0.5-1.4,0.7c-0.6,0.2-1.2,0.4-1.9,0.6
	c-0.7,0.2-1.3,0.3-2,0.5c-1.3,0.3-2.3,0.4-2.8,0.4c-0.6,0-1.2-0.1-1.8-0.2c-0.6-0.1-1.3-0.3-1.8-0.6c-1.3-0.7-1.9-1.7-1.9-3
	c0-0.1,0-0.3,0-0.6c0-0.3,0.1-0.7,0.4-1.2c0.2-0.5,0.6-1.1,1.1-1.6c0.5-0.5,1-1,1.7-1.5c1.3-1,2.8-1.6,4.2-1.9
	c0.5-0.1,0.9-0.2,1.3-0.2s0.6,0,0.9,0c0.2,0,0.5,0,0.7,0c0.2,0,0.5,0.1,0.6,0.2c0.4,0.2,0.6,0.6,0.6,1.2c0,0.4-0.3,0.8-0.8,1.1
	c-0.1,0.1-0.3,0.2-0.4,0.3c-0.1-0.4-0.2-0.7-0.3-0.9c-0.1-0.3-0.4-0.4-0.8-0.4c-1.9,0.4-3.5,1-4.9,1.8c-1.5,0.9-2.3,1.9-2.3,2.9
	c0,0.1,0,0.2,0,0.4c0,1,0.4,1.8,1.2,2.2c0.6,0.3,1.4,0.5,2.3,0.5c0.9,0,1.8-0.1,2.4-0.3C367.7,164,368.3,163.8,369,163.5z
	 M346.7,162.9c0-0.3,0-0.6-0.1-1.1c0-0.5-0.1-1-0.1-1.5c0-0.5,0-1.1,0-1.7c0-0.6,0-1.1,0.1-1.5c0.2-1,0.6-1.6,1.3-1.6
	c0.4,0.1,0.7,0.3,0.9,0.5c0.2,0.2,0.2,0.4,0.2,0.7c0,0.3-0.1,0.6-0.2,1c-0.5,1.4-0.8,2.7-0.8,3.8c0,0.4,0,0.8,0.1,1.2
	c0.3,1.1,1.1,1.6,2.6,1.6c0.8,0,1.5-0.1,2.2-0.4c1.3-0.5,2.3-1.1,2.7-1.8c0.1-0.7,0.2-1.4,0.2-1.9c0-0.6,0-1-0.1-1.5
	c0-0.4-0.1-0.9-0.1-1.4c-0.1-0.5-0.1-1.1-0.1-1.7c0.2-0.1,0.4-0.1,0.6-0.1c0.2,0,0.4,0.1,0.6,0.3c0.2,0.2,0.4,0.6,0.6,1.2
	c0.2,0.6,0.3,1.3,0.3,2c0,0.8,0.1,1.6,0.1,2.4c0,0.8,0,1.6,0,2.4c0,0.8,0,1.4,0.1,2c-0.2,0.2-0.4,0.3-0.6,0.3
	c-0.6,0-1.1-0.6-1.4-1.9c-0.2,0.2-0.6,0.4-1.1,0.6c-1.1,0.6-2.3,1-3.7,1.2c-0.3,0-0.6,0-0.9,0c-0.3,0-0.8-0.1-1.3-0.2
	c-0.5-0.1-1-0.4-1.4-0.9C347,164.5,346.8,163.8,346.7,162.9z M331,155.5l0-6l1.9,0.1l-0.2,14.1l12.7,0.4c0.3,0.1,0.4,0.2,0.4,0.4
	c0,0.2-0.1,0.4-0.4,0.6c-0.5,0.4-1,0.6-1.6,0.6c-0.1,0-0.3,0-0.5,0l-12.9-0.1C330.8,164.1,331,160.7,331,155.5z"/>
	<path class="corLogoSombra" d="M996.8,122.6c29.5,0,53.4,10.3,53.4,23.1c0,12-21.4,21.9-48.7,23c1.5,0.1,3,0.1,4.6,0.1
	c29.5,0,53.4-11.1,53.4-24.9s-23.9-24.9-53.4-24.9c-14.4,0-27.5,2.7-37.1,7C977.1,123.8,986.6,122.6,996.8,122.6"/>
<path class="corLogoSombra" d="M879.3,92.5c11.8,0,23.7,0,35.5,0v5.6h-8.9v33.6h-17.8V98.1h-8.9V92.5z"/>
<path class="corLogoSombra" d="M920.6,92.5h19.5v33.6h5.9V92.5H965V121c0,5.9-5.1,10.7-11.3,10.7h-21.8c-6.2,0-11.3-4.8-11.3-10.7V92.5z"/>
<rect x="888.3" y="138.4" class="corLogoSombra" width="5.3" height="22.4"/>
<path class="corLogoSombra" d="M895.7,138.4h4.6h0.3h5c3,0,5.6,1.5,7.1,3.7v-3.7h6.4c4.5,0,8.3,3.5,8.3,7.8v14.5h-5v-13.5c0-2.3-2-4.3-4.5-4.3
	h-4.7c0.5,1,0.7,2.1,0.7,3.2v14.5h-5v-13.5c0-2.3-2-4.3-4.5-4.3h-3.8v17.7h-4.9V138.4z"/>
<path class="corLogoSombra" d="M1009.6,138.4h4.6h0.3h7.7c4.5,0,8.3,3.5,8.3,7.8v14.5h-5v-13.5c0-2.3-2-4.3-4.5-4.3h-6.5v17.7h-4.9V138.4z"/>
<path class="corLogoSombra" d="M939.6,138.2h4.3c5.6,0,10.1,4.3,10.1,9.6v19.4h-5.4v-10.9v-8.5c0-2.5-2.1-4.5-4.8-4.5h-4.3
	c-2.6,0-4.8,2-4.8,4.5v3.4h11.1v5.2h-11.1h-4.6h-0.7v-8.6C929.4,142.5,934,138.2,939.6,138.2"/>
<path class="corLogoSombra" d="M956.3,151.9v-4.1c0-5.3,4.6-9.6,10.2-9.6H983v5.1h-16.5c-2.6,0-4.8,2-4.8,4.5v4.1c0,2.5,2.1,4.5,4.8,4.5h11.2
	v-10.5h5.3v10.5v3v2.1h-16.5C960.9,161.5,956.3,157.2,956.3,151.9"/>
<path class="corLogoSombra" d="M1005.3,150.6h-12.2c-4.3,0-4.3,6.1,0,6.1h12.2v4.8h-13.6c-6.5,0-9.3-7.8-4.2-11.6c0,0,1-1.2-0.1-2.2
	c-4.5-2.8-2.4-9.5,3-9.5h15v3.9h-13.2c-2.9,0-2.9,4.2,0,4.2h13.2V150.6z"/>
<path class="corLogoNaranja" d="M995.9,123.5c29.5,0,53.4,10.3,53.4,23.1c0,12-21.4,21.9-48.7,23c1.5,0.1,3,0.1,4.6,0.1
	c29.5,0,53.4-11.1,53.4-24.9c0-13.7-23.9-24.9-53.4-24.9c-14.4,0-27.5,2.7-37.1,7C976.3,124.7,985.8,123.5,995.9,123.5"/>
<path class="corLogoNaranja" d="M878.4,93.3c11.8,0,23.7,0,35.5,0v5.6H905v33.6h-17.8V98.9h-8.9V93.3z"/>
<path class="corLogoNaranja" d="M919.7,93.3h19.5v33.6h5.9V93.3h18.9v28.5c0,5.9-5.1,10.7-11.3,10.7H931c-6.2,0-11.3-4.8-11.3-10.7V93.3z"/>
<rect x="887.4" y="139.3" class="corLogoimagen" width="5.3" height="22.4"/>
<path class="corLogoimagen" d="M894.8,139.3h4.6h0.3h5c3,0,5.6,1.5,7.1,3.7v-3.7h6.4c4.5,0,8.3,3.5,8.3,7.8v14.5h-5v-13.5c0-2.3-2-4.3-4.5-4.3
	h-4.7c0.5,1,0.7,2.1,0.7,3.2v14.5h-5v-13.5c0-2.3-2-4.3-4.5-4.3h-3.8v17.7h-4.9V139.3z"/>
<path class="corLogoimagen" d="M1008.7,139.3h4.6h0.3h7.7c4.5,0,8.3,3.5,8.3,7.8v14.5h-5v-13.5c0-2.3-2-4.3-4.5-4.3h-6.5v17.7h-4.9V139.3z"/>
<path class="corLogoimagen" d="M938.7,139.1h4.3c5.6,0,10.2,4.3,10.2,9.6v19.4h-5.4v-10.9v-8.5c0-2.5-2.1-4.5-4.8-4.5h-4.3
	c-2.6,0-4.8,2-4.8,4.5v3.4H945v5.2h-11.1h-4.6h-0.7v-8.6C928.5,143.4,933.1,139.1,938.7,139.1"/>
<path class="corLogoimagen" d="M955.4,152.8v-4.1c0-5.3,4.6-9.6,10.2-9.6h16.5v5.1h-16.5c-2.6,0-4.8,2-4.8,4.5v4.1c0,2.5,2.1,4.5,4.8,4.5h11.2
	v-10.5h5.3v10.5v3v2.1h-16.5C960,162.4,955.4,158.1,955.4,152.8"/>
<path class="corLogoimagen" d="M1004.4,151.5h-12.2c-4.3,0-4.3,6.1,0,6.1h12.2v4.8h-13.6c-6.5,0-9.3-7.8-4.2-11.6c0,0,1-1.2-0.1-2.2
	c-4.5-2.8-2.4-9.5,3-9.5h15v3.9h-13.2c-2.9,0-2.9,4.2,0,4.2h13.2V151.5z"/>
<path class="corLogoLineas" d="M995.9,123.5c29.5,0,53.4,10.3,53.4,23.1c0,12-21.4,21.9-48.7,23c1.5,0.1,3,0.1,4.6,0.1
	c29.5,0,53.4-11.1,53.4-24.9c0-13.7-23.9-24.9-53.4-24.9c-14.4,0-27.5,2.7-37.1,7C976.3,124.7,985.8,123.5,995.9,123.5z"/>
<path class="corLogoLineas" d="M878.4,93.3c11.8,0,23.7,0,35.5,0v5.6H905v33.6h-17.8V98.9h-8.9V93.3z"/>
<path class="corLogoLineas" d="M919.7,93.3h19.5v33.6h5.9V93.3h18.9v28.5c0,5.9-5.1,10.7-11.3,10.7H931c-6.2,0-11.3-4.8-11.3-10.7V93.3z"/>
<rect x="887.4" y="139.3" class="corLogoLineas" width="5.3" height="22.4"/>
<path class="corLogoLineas" d="M894.8,139.3h4.6h0.3h5c3,0,5.6,1.5,7.1,3.7v-3.7h6.4c4.5,0,8.3,3.5,8.3,7.8v14.5h-5v-13.5c0-2.3-2-4.3-4.5-4.3
	h-4.7c0.5,1,0.7,2.1,0.7,3.2v14.5h-5v-13.5c0-2.3-2-4.3-4.5-4.3h-3.8v17.7h-4.9V139.3z"/>
<path class="corLogoLineas" d="M1008.7,139.3h4.6h0.3h7.7c4.5,0,8.3,3.5,8.3,7.8v14.5h-5v-13.5c0-2.3-2-4.3-4.5-4.3h-6.5v17.7h-4.9V139.3z"/>
<path class="corLogoLineas" d="M938.7,139.1h4.3c5.6,0,10.2,4.3,10.2,9.6v19.4h-5.4v-10.9v-8.5c0-2.5-2.1-4.5-4.8-4.5h-4.3
	c-2.6,0-4.8,2-4.8,4.5v3.4H945v5.2h-11.1h-4.6h-0.7v-8.6C928.5,143.4,933.1,139.1,938.7,139.1z"/>
<path class="corLogoLineas" d="M955.4,152.8v-4.1c0-5.3,4.6-9.6,10.2-9.6h16.5v5.1h-16.5c-2.6,0-4.8,2-4.8,4.5v4.1c0,2.5,2.1,4.5,4.8,4.5h11.2
	v-10.5h5.3v10.5v3v2.1h-16.5C960,162.4,955.4,158.1,955.4,152.8z"/>
<path class="corLogoLineas" d="M1004.4,151.5h-12.2c-4.3,0-4.3,6.1,0,6.1h12.2v4.8h-13.6c-6.5,0-9.3-7.8-4.2-11.6c0,0,1-1.2-0.1-2.2
	c-4.5-2.8-2.4-9.5,3-9.5h15v3.9h-13.2c-2.9,0-2.9,4.2,0,4.2h13.2V151.5z"/>
</svg>
