<?xml version="1.0" encoding="utf-8"?>
<!-- Generator: Adobe Illustrator 16.0.0, SVG Export Plug-In . SVG Version: 6.00 Build 0)  -->
<!DOCTYPE svg PUBLIC "-//W3C//DTD SVG 1.1//EN" "http://www.w3.org/Graphics/SVG/1.1/DTD/svg11.dtd">
<svg version="1.1" id="Capa_1" xmlns="http://www.w3.org/2000/svg" xmlns:xlink="http://www.w3.org/1999/xlink" x="0px" y="0px"
	 width="146.6px" height="146.6px" viewBox="0 0 146.6 146.6" style="enable-background:new 0 0 146.6 146.6;" xml:space="preserve"
	>
<style type="text/css">
<![CDATA[	
	.st1{
		fill:none;
		stroke:#000000;
		stroke-width:0.1;
		stroke-dasharray:70px;
		stroke-dashoffset:0;
		animation: toldoL1 1s forwards ;
	}
	.st3{
		fill:none;
		stroke:#000000;
		stroke-width:0.1;
		stroke-dasharray:30px;
		stroke-dashoffset:0;
		animation: toldoL2 1s forwards ;
	}
	.st9{
		fill:none;
		stroke:#000000;
		stroke-width:0.1;
		stroke-dasharray:100px;
		stroke-dashoffset:0;
		animation: toldoL3 1s forwards ;
	}
	@keyframes toldoL1{
		0%{
			stroke-dashoffset:70px;			
		}100%{
			stroke-dashoffset:0px;			
	}}	
	@keyframes toldoL2{
		0%{
			stroke-dashoffset:30px;			
		}100%{
			stroke-dashoffset:0px;			
	}}	
	@keyframes toldoL3{
		0%{
			stroke-dashoffset:100px;			
		}100%{
			stroke-dashoffset:0px;			
	}}
	.toldonegro{
		fill-rule:evenodd;
		clip-rule:evenodd;
		opacity:0;
		animation: toldoC1 1s forwards 1s;
	}
	.toldonaranja{
		fill:#FF6600;
		opacity:0;
		animation: toldoC1 1s forwards 1s;
	}
	.toldoblanco{
		fill:#FFFFFF;
		opacity:0;
		animation: toldoC1 1s forwards 1s;
	}
	@keyframes toldoC1{
		0%{
			opacity:0;
		}100%{
			opacity:1;
	}}


	.toldoSombra{
		clip-path:url(#SVGID_2_);
		fill:url(#SVGID_3_);
		opacity:0;
		animation: toldoC2 1s forwards 1.5s;
	}	
	.toldobtn{		
		fill:#EBECEC;
		opacity:0;
		animation: toldoC2 1s forwards 1.5s;
	}	
	.toldoSombraout{		
		fill:#C5C6C6;
		opacity:0;
		animation: toldoC2 1s forwards 1.5s;
	}
	.toldoFondo{
		fill:#00FF00;
		opacity:0;		
	}
	@keyframes toldoC2{
		0%{
			opacity:0;
		}100%{
			opacity:1;
	}}	
]]>
</style>
<rect x="0.3" class="toldoFondo" width="146.3" height="146.3"/>
<g>
	<path class="toldobtn" d="M54.7,2.3c30.1,0,54.5,24.4,54.5,54.5c0,30.1-24.4,54.5-54.5,54.5c-30.1,0-54.5-24.4-54.5-54.5
		C0.3,26.7,24.7,2.3,54.7,2.3"/>
	<g>
		<defs>
			<path id="SVGID_1_" d="M27.2,74.5l33.7,36.4c21.7-3.3,36.4-14,43.8-32.3L90.8,59.8l-29.7-15L27.2,74.5z"/>
		</defs>
		<clipPath id="SVGID_2_">
			<use xlink:href="#SVGID_1_"  style="overflow:visible;"/>
		</clipPath>
		<linearGradient id="SVGID_3_" gradientUnits="userSpaceOnUse" x1="44.0786" y1="50.1079" x2="87.8286" y2="105.5479">
			<stop  offset="0" style="stop-color:#C5C6C6"/>
			<stop  offset="1" style="stop-color:#EBECEC"/>
		</linearGradient>
		<rect x="27.2" y="44.8" class="toldoSombra" width="77.4" height="66"/>
	</g>
	<path class="toldoSombraout" d="M54.7,111.2c30.1,0,54.5-24.4,54.5-54.5c0-22.5-13.6-41.7-33-50.1c18.1,8.9,30.5,27.4,30.5,48.9
		c0,7.7-1.6,15.1-4.5,21.8c0,0,0,0,0,0c-5.6,13.9-15.4,23.4-29.3,28.6c-4.6,1.9-9.4,3.1-14.5,3.7c-2,0.2-4.1,0.3-6.2,0.3
		c-7.6,0-14.9-1.6-21.4-4.4C38,109.2,46.2,111.2,54.7,111.2"/>
</g>
<g>
	<polygon class="toldoblanco" points="27.2,68.1 30,69.4 28.4,70.9 28.4,73.4 30.4,71.6 30.4,76.1 27.2,74.5 	"/>
	<polygon class="toldoblanco" points="60,81.8 62.8,83.1 61.2,84.6 61.2,87.1 63.2,85.3 63.2,89.8 60,88.2 	"/>
	<path class="toldoblanco" d="M61.2,84.6l0,2.5l23.6-21c-0.6-0.2-1.1-0.5-1.5-1.1L61.2,84.6z"/>
	<polygon class="toldoblanco" points="19.4,24.6 22.7,23.6 22.3,29.7 18.7,30.6 	"/>
	<path class="toldoblanco" d="M22.5,26.7l-0.2,3L49,47.4l0-2.6L22.5,26.7z M31.4,29.8l-8.7-6.1l-0.2,3L31.4,29.8z"/>
	<polygon class="toldoblanco" points="45.2,48.4 49,47.4 22.3,29.7 18.7,30.6 	"/>
	<polygon class="toldoblanco" points="28.4,70.9 28.4,73.4 64.4,41.3 62.4,40.6 	"/>
	<path class="toldoblanco" d="M69.6,44.9l-2.4,4.9c-2,3.4,2.1,8,5.2,4l2.9-4.9L69.6,44.9z"/>
	<path class="toldoblanco" d="M80.2,52.3l-2.2,3.9c-2.7,3.6,1.9,8.8,5,4.8l2.4-4.9L80.2,52.3z"/>
	<polygon class="toldoblanco" points="61,41.9 28.2,30.6 33,33.9 59.5,43.2 	"/>
	<polygon class="toldoblanco" points="57.9,44.7 39.1,38 44.2,41.5 56.5,45.9 	"/>
	<path class="toldoblanco" d="M58.9,46.8l2.5,0.9c0-0.5,0-1.1,0.2-1.7l-1.4-0.5L58.9,46.8z"/>
	<polygon class="toldoblanco" points="61.8,44.1 62.6,44.4 63.7,42.9 63.3,42.7 	"/>
</g>
<g>
	<path class="toldonaranja" d="M64.8,41.4l-2.5,3.5c-2.7,3.6,1.9,8.8,5,4.8l2.4-4.9L64.8,41.4z"/>
	<path class="toldonaranja" d="M75.3,48.8l-2.9,4.9c-2.6,3.5,2.6,6.9,5.3,2.7l2.5-4.2L75.3,48.8z"/>
	<path class="toldonaranja" d="M85.3,56.1l-2.4,4.9c-2.1,3.7,2.9,7.5,5.5,3.7l2.4-4.9L85.3,56.1z"/>
	<polygon class="toldonaranja" points="28.2,30.6 61,41.9 62.4,40.6 31.4,29.8 22.5,26.7 	"/>
	<polygon class="toldonaranja" points="59.5,43.2 33,33.9 39.1,38 57.9,44.7 	"/>
	<polygon class="toldonaranja" points="56.5,45.9 44.2,41.5 49.1,44.9 55.2,47 	"/>
	<path class="toldonaranja" d="M58.9,46.8l-1.3,1.1l4.3,1.5c-0.3-0.5-0.5-1.1-0.6-1.8L58.9,46.8z"/>
	<path class="toldonaranja" d="M60.3,45.5l1.4,0.5c0.1-0.4,0.3-0.7,0.6-1.1l0.4-0.6l-0.8-0.3L60.3,45.5z"/>
	<polygon class="toldonaranja" points="63.3,42.7 63.7,42.9 64.8,41.4 64.7,41.4 	"/>
</g>
<g>
	<path class="toldonegro" d="M61.2,87.1l1,0.5l23.4-21.4c-0.3,0-0.5,0-0.8-0.1L61.2,87.1z"/>
	<polygon class="toldonegro" points="28.4,73.4 29.3,73.8 64.8,41.4 64.4,41.3 	"/>
</g>
<g>
	<path class="st9" d="M61.2,84.6l0,2.5l23.6-21c-0.6-0.2-1.1-0.5-1.5-1.1L61.2,84.6z"/>
	<path class="st9" d="M61.2,87.1l1,0.5l23.4-21.4c-0.3,0-0.5,0-0.8-0.1L61.2,87.1z"/>
	<polygon class="st9" points="19.4,24.6 22.7,23.6 22.3,29.7 18.7,30.6 	"/>
	<path class="st9" d="M22.5,26.7l-0.2,3L49,47.4l0-2.6L22.5,26.7z M31.4,29.8l-8.7-6.1l-0.2,3L31.4,29.8z"/>
	<polygon class="st9" points="45.2,48.4 49,47.4 22.3,29.7 18.7,30.6 	"/>
	<polygon class="st9" points="28.4,70.9 28.4,73.4 64.4,41.3 62.4,40.6 	"/>
	<polygon class="st9" points="28.4,73.4 29.3,73.8 64.8,41.4 64.4,41.3 	"/>
</g>
<g>
	<polygon class="st1" points="28.2,30.6 61,41.9 62.4,40.6 31.4,29.8 22.5,26.7 	"/>
	<polygon class="st1" points="61,41.9 28.2,30.6 33,33.9 59.5,43.2 	"/>
	<polygon class="st1" points="59.5,43.2 33,33.9 39.1,38 57.9,44.7 	"/>
	<polygon class="st1" points="57.9,44.7 39.1,38 44.2,41.5 56.5,45.9 	"/>
	<polygon class="st1" points="56.5,45.9 44.2,41.5 49.1,44.9 55.2,47 	"/>
	<path class="st1" d="M58.9,46.8l-1.3,1.1l4.3,1.5c-0.3-0.5-0.5-1.1-0.6-1.8L58.9,46.8z"/>
	<path class="st1" d="M58.9,46.8l2.5,0.9c0-0.5,0-1.1,0.2-1.7l-1.4-0.5L58.9,46.8z"/>
	<path class="st1" d="M60.3,45.5l1.4,0.5c0.1-0.4,0.3-0.7,0.6-1.1l0.4-0.6l-0.8-0.3L60.3,45.5z"/>
	<polygon class="st1" points="61.8,44.1 62.6,44.4 63.7,42.9 63.3,42.7 	"/>
	<polygon class="st1" points="63.3,42.7 63.7,42.9 64.8,41.4 64.7,41.4 	"/>
</g>
<g>
	<path class="st3" d="M64.8,41.4l-2.5,3.5c-2.7,3.6,1.9,8.8,5,4.8l2.4-4.9L64.8,41.4z"/>
	<path class="st3" d="M69.6,44.9l-2.4,4.9c-2,3.4,2.1,8,5.2,4l2.9-4.9L69.6,44.9z"/>
	<path class="st3" d="M75.3,48.8l-2.9,4.9c-2.6,3.5,2.6,6.9,5.3,2.7l2.5-4.2L75.3,48.8z"/>
	<path class="st3" d="M80.2,52.3l-2.2,3.9c-2.7,3.6,1.9,8.8,5,4.8l2.5-4.9L80.2,52.3z"/>
	<path class="st3" d="M85.3,56.1l-2.5,4.9c-2.1,3.7,2.9,7.5,5.5,3.7l2.4-4.9L85.3,56.1z"/>
	<polygon class="st3" points="60,81.8 62.8,83.1 61.2,84.6 61.2,87.1 63.2,85.3 63.2,89.8 60,88.2 	"/>
	<polygon class="st3" points="27.2,68.1 30,69.4 28.4,70.9 28.4,73.4 30.4,71.6 30.4,76.1 27.2,74.5 	"/>
</g>
</svg>
