<?xml version="1.0" encoding="utf-8"?>
<!-- Generator: Adobe Illustrator 16.0.0, SVG Export Plug-In . SVG Version: 6.00 Build 0)  -->
<!DOCTYPE svg PUBLIC "-//W3C//DTD SVG 1.1//EN" "http://www.w3.org/Graphics/SVG/1.1/DTD/svg11.dtd">
<svg version="1.1" id="Capa_1" xmlns="http://www.w3.org/2000/svg" xmlns:xlink="http://www.w3.org/1999/xlink" x="0px" y="0px"
	 width="1442.6px" height="731.9px" viewBox="0 0 1442.6 731.9" style="enable-background:new 0 0 1442.6 731.9;"
	 xml:space="preserve">
<style type="text/css">
<![CDATA[
	.hFondo{fill:#7A5980;opacity:0;}
	@keyframes hColor{
		0%{opacity:0;}
		100%{opacity:1;
	}}	
	.hMedidas1txt{fill-rule:evenodd;clip-rule:evenodd;fill:#FFFFFF;opacity:0;
		stroke:#FFFFFF;stroke-width:2;
		animation: hColor 0.5s forwards 0.5s;
	}		
	.hMedidas1{fill:none;stroke:#FFFFFF;stroke-width:3;opacity:0;
		stroke-dasharray:150px;
		stroke-dashoffset:0;
		animation: hMedidas1 0.5s forwards;
	}
	@keyframes hMedidas1{
		0%{stroke-dashoffset:150px;opacity:1;}
		100%{stroke-dashoffset:0px;opacity:1;
	}}	
	.hMedidas2a{fill-rule:evenodd;clip-rule:evenodd;fill:#FFFFFF;opacity:0;
		stroke:#FFFFFF;stroke-width:2;
		animation: hColor 0.5s forwards 1.5s;
	}
	.hMedidas2{fill:none;stroke:#FFFFFF;stroke-width:3;opacity:0;
		stroke-dasharray:400px;
		stroke-dashoffset:0;
		animation: hMedidas2 0.5s forwards 1s;		
	}
	@keyframes hMedidas2{
		0%{stroke-dashoffset:400px;opacity:1;}
		100%{stroke-dashoffset:0px;opacity:1;
	}}
	.hMedidas3b{fill-rule:evenodd;clip-rule:evenodd;fill:#FFFFFF;opacity:0;
		stroke:#FFFFFF;stroke-width:2;
		animation: hColor 0.5s forwards 2.5s;
	}
	.hMedidas3{fill:none;stroke:#FFFFFF;stroke-width:3;opacity:0;
		stroke-dasharray:500px;
		stroke-dashoffset:0;
		animation: hMedidas3 0.5s forwards 2s;
	}
	@keyframes hMedidas3{
		0%{stroke-dashoffset:500px;opacity:1;}
		100%{stroke-dashoffset:0px;opacity:1;
	}}	
	.hflecha1{fill:none;stroke:#FFFFFF;stroke-width:3;opacity:0;
		stroke-dasharray:120px;
		stroke-dashoffset:0;
		animation: hflecha1 0.5s forwards 3s;
	}	
	@keyframes hflecha1{
		0%{stroke-dashoffset:120px;opacity:1;}
		100%{stroke-dashoffset:0px;opacity:1;
	}}
	.hflecha1txt{fill-rule:evenodd;clip-rule:evenodd;fill:#FFFFFF;opacity:0;
		animation: hColor 0.5s forwards 3.5s;
	}
	.hflecha1punta{fill:#FFFFFF;opacity:0;
		animation: hColor 0.5s forwards 3s;
	}
	.hflecha1a{fill:#FFFFFF;opacity:0;
		animation: hColor 0.5s forwards 3s;
	}
	.hflecha2linea{fill:none;stroke:#FFFFFF;stroke-width:3;opacity:0;
		stroke-dasharray:120px;
		stroke-dashoffset:0;
		animation: hflecha2linea 0.5s forwards 4s;
	}
	@keyframes hflecha2linea{
		0%{stroke-dashoffset:120px;opacity:1;}
		100%{stroke-dashoffset:0px;opacity:1;
	}}
	.hflecha2{fill:#FFFFFF;opacity:0;
		animation: hColor 0.5s forwards 4.5s;
	}
	.hflecha2txt{fill-rule:evenodd;clip-rule:evenodd;fill:#FFFFFF;opacity:0;
		animation: hColor 0.5s forwards 4.5s;
	}
	.hflecha2punta{fill:#FFFFFF;opacity:0;
		animation: hColor 0.5s forwards 4.5s;
	}
	.hCartelCuadro{fill:#FFFFFF;opacity:0;
		animation: hColor 0.5s forwards 5s;
	}
	.hCartelSombra{fill:#000000;opacity:0;
		animation: hColor 0.5s forwards 5.5s;
	}	
	.hCartellinea{fill:none;stroke:#000000;stroke-width:0.3;opacity:0;
		animation: hColor 0.5s forwards 5.5s;
	}
	.hCarteltxt{fill-rule:evenodd;clip-rule:evenodd;fill:#000000;opacity:0;
		animation: hColor 0.5s forwards 6s;
	}
	.hLogoV1{fill:none;stroke:#FFFFFF;stroke-width:0.3;opacity:0;
		stroke-dasharray:350px;
		stroke-dashoffset:0;
		animation: hLogoV1 1.5s forwards 6.5s;
	}
	@keyframes hLogoV1{
		0%{stroke-dashoffset:350px;opacity:1;}
		100%{stroke-dashoffset:0px;opacity:1;
	}}
	.hLogoVimagen{fill:#000000;opacity:0;
		animation: hColor 0.5s forwards 7s;
	}	
	.hLogoVtu{fill:#FF6600;opacity:0;
		animation: hColor 0.5s forwards 7s;
	}
	.hLogoVsombra{fill-rule:evenodd;clip-rule:evenodd;fill:#FFFFFF;opacity:0;
		animation: hColor 0.5s forwards 7s;
	}
]]>
</style>
<rect x="0.3" y="2.3" class="hFondo" width="1440" height="729.4"/>
<line class="hMedidas1" x1="1094" y1="251.6" x2="1099.3" y2="391.6"/>
<line class="hMedidas3" x1="1094" y1="251.6" x2="626.6" y2="139.6"/>
<polygon class="hflecha2punta" points="936.9,70.7 933.4,71 941.1,64.7 942.2,74.6 939.9,71.9 941,77.6 937.8,72.8 932.2,74 "/>
<path class="hflecha2txt" d="M1094.7,54.4c0-0.8-0.4-1.1-1.1-1.1c-0.1,0-0.2,0-0.3,0c-1,0-2,0.5-3,1.4c-0.5,0.4-0.9,0.9-1.3,1.4
	c-0.5,0.7-0.8,1.4-0.8,2c0,0.8,0.4,1.2,1.3,1.4c1.2,0,2.3-0.6,3.4-1.6c0.5-0.5,0.8-0.9,1.1-1.5C1094.5,55.6,1094.7,55,1094.7,54.4
	 M1094.7,57.5c-1,1.5-2.3,2.5-3.9,2.9c-0.4,0.1-0.7,0.1-1,0.1c-0.3,0-0.6,0-0.8,0c-0.2,0-0.4,0-0.7-0.1c-0.2-0.1-0.5-0.1-0.7-0.3
	c-0.5-0.3-0.7-0.7-0.7-1.1c-0.1-0.2-0.1-0.5-0.1-0.8c0-0.3,0.1-0.7,0.2-1.2c0.1-0.5,0.4-1,0.7-1.6c0.3-0.6,0.8-1.1,1.3-1.5
	c1-1,2.1-1.6,3.3-1.9c0.3-0.1,0.7-0.1,1-0.1c0.3,0,0.6,0,0.8,0.1c0.8,0,1.3,0.5,1.5,1.5c0.2,0.7,0.3,1.6,0.3,2.7
	c0,1.2,0.1,2.1,0.1,2.7c0,0.6,0.1,1.2,0.2,1.7h-1.2c-0.1-0.4-0.1-0.7-0.1-0.9s-0.1-0.5-0.1-0.8C1094.9,58.3,1094.8,57.9,1094.7,57.5
	z M1077.9,57.6c0,1,0.4,1.5,1.1,1.5c0.1,0,0.2,0,0.4,0c0.5,0,1.2-0.2,2-0.5c1.5-0.6,2.4-1.1,2.7-1.5v-2.6c0-0.5-0.4-0.7-1.1-0.7
	c-0.1,0-0.2,0-0.4,0c-0.2,0-0.4,0-0.7,0.1c-0.3,0.1-0.7,0.2-1.1,0.3s-0.8,0.4-1.2,0.6c-0.8,0.5-1.3,1.2-1.6,1.9
	C1078,57.1,1077.9,57.3,1077.9,57.6z M1086.1,45c0,1.2,0,2.5-0.1,3.7c-0.1,1.2-0.1,2.4-0.2,3.5c-0.1,1.1-0.1,2.3-0.1,3.6
	c0,1.3,0.1,2.6,0.3,4.1c0,0.3-0.1,0.5-0.2,0.6c-0.1,0.1-0.3,0.2-0.6,0.2c-0.6,0-0.9-0.5-0.9-1.5v-0.6c-1.8,1.4-3.4,2.1-4.7,2.1
	c-0.5,0-1-0.1-1.6-0.4c-0.5-0.2-1-0.7-1.5-1.5c-0.1-0.3-0.1-0.6-0.1-1c0-0.3,0.1-0.7,0.2-1.2c0.1-0.5,0.4-0.9,0.8-1.4
	c0.4-0.5,0.8-0.9,1.4-1.3c1.2-0.8,2.5-1.2,3.9-1.2c0.6,0,1.2,0.1,1.7,0.3c0-0.2,0-0.6,0-1.2c0-0.6,0.1-1.2,0.1-1.9
	c0.1-1.7,0.1-2.7,0.2-3s0.1-0.6,0.1-0.8c0-0.2,0.1-0.4,0.2-0.6C1085.2,45.2,1085.6,45,1086.1,45z M1074.3,54.4
	c0-0.8-0.4-1.1-1.1-1.1c-0.1,0-0.2,0-0.3,0c-1,0-2,0.5-3,1.4c-0.5,0.4-0.9,0.9-1.3,1.4c-0.5,0.7-0.8,1.4-0.8,2
	c0,0.8,0.4,1.2,1.3,1.4c1.2,0,2.3-0.6,3.4-1.6c0.5-0.5,0.8-0.9,1.1-1.5C1074,55.6,1074.3,55,1074.3,54.4z M1074.3,57.5
	c-1,1.5-2.3,2.5-3.9,2.9c-0.4,0.1-0.7,0.1-1,0.1c-0.3,0-0.6,0-0.8,0c-0.2,0-0.4,0-0.7-0.1c-0.2-0.1-0.5-0.1-0.7-0.3
	c-0.5-0.3-0.7-0.7-0.7-1.1c-0.1-0.2-0.1-0.5-0.1-0.8c0-0.3,0.1-0.7,0.2-1.2c0.1-0.5,0.4-1,0.7-1.6c0.3-0.6,0.8-1.1,1.3-1.5
	c1-1,2.1-1.6,3.3-1.9c0.3-0.1,0.7-0.1,1-0.1s0.6,0,0.8,0.1c0.8,0,1.3,0.5,1.5,1.5c0.2,0.7,0.3,1.6,0.3,2.7c0,1.2,0.1,2.1,0.1,2.7
	c0,0.6,0.1,1.2,0.2,1.7h-1.2c-0.1-0.4-0.1-0.7-0.1-0.9c0-0.3-0.1-0.5-0.1-0.8C1074.5,58.3,1074.4,57.9,1074.3,57.5z M1058.9,60.8
	c-1.3,0-2-0.3-2-0.9c0-0.4,0.3-0.8,0.9-1.4c0.6-0.6,1.1-1.1,1.5-1.4c0.4-0.4,0.8-0.7,1.2-1.1c0.9-0.8,1.7-1.6,2.3-2.3
	c-0.1,0-0.3,0-0.5,0c-0.2,0-0.6,0-1,0c-0.4,0-0.9,0.1-1.4,0.1c-1.3,0.1-2.2,0.2-2.6,0.2c-0.4,0-0.6-0.1-0.6-0.3
	c0-0.2,0.1-0.4,0.4-0.6c0.3-0.2,0.4-0.3,0.5-0.3c0.1,0,0.2,0,0.3,0c0.1,0,0.2,0,0.3,0c0.1,0,0.3,0,0.6-0.1c0.3,0,0.6-0.1,1.1-0.1
	c0.9-0.1,2.3-0.2,4.2-0.4c0.6,0.1,0.9,0.3,0.9,0.7c0,0.5-0.5,1.2-1.4,2.1c-0.8,0.8-1.7,1.6-2.6,2.4c-0.9,0.8-1.6,1.4-1.9,1.8
	c0.5,0,0.9,0.1,1.3,0.1l3.2-0.1c0.5,0,0.9,0,1.3,0.1c0.4,0,0.7,0.1,0.7,0.1c0.2,0.1,0.3,0.3,0.3,0.7c0,0.1,0,0.3-0.1,0.4
	c-0.3,0-0.7-0.1-1-0.1c-0.4,0-0.8,0-1.4,0.1c-0.6,0-1.3,0.1-2.1,0.2C1060.3,60.7,1059.5,60.8,1058.9,60.8z M1053.7,48.9
	c0-0.5,0.3-0.7,0.8-0.7c0.3,0,0.6,0.1,0.9,0.2c0,0.1,0.1,0.3,0.1,0.4c0,0.1,0,0.3-0.2,0.4c-0.1,0.1-0.3,0.2-0.5,0.2
	c-0.2,0-0.4-0.1-0.6-0.1C1053.9,49.2,1053.8,49.1,1053.7,48.9z M1055.5,51.5c0.2,2.4,0.3,5.2,0.4,8.4c-0.1,0.4-0.4,0.6-0.9,0.6
	c-0.1,0-0.3,0-0.4-0.1c-0.2-0.1-0.2-0.1-0.3-0.2v-8.7H1055.5z M1051.4,56.4c0-1.5-0.1-2.7-0.3-3.4c0.1-0.2,0-0.3-0.5-0.3
	c-0.4,0-1,0.1-1.7,0.3c-0.7,0.2-1.3,0.4-1.7,0.7c-1.1,0.5-1.6,1-1.8,1.5v5.3h-1.3c-0.2-0.4-0.3-1.7-0.3-3.7c0-1.8,0-3.2,0.1-4
	c0.1-0.9,0.1-1.3,0.2-1.5c0.3-0.2,0.6-0.3,0.8-0.3c0.3,0,0.5,0.4,0.5,1.2c0,0.3,0,0.6,0,0.9s0,0.5,0,0.6c2.1-1.5,3.7-2.3,4.9-2.3
	c1.3,0,2.1,1.1,2.2,3.2c0.1,0.7,0.1,1.8,0.1,3.1l0,1.5c0,0.6,0,1.1,0,1.7c-0.1,0.1-0.2,0.1-0.3,0.1c0,0-0.1,0-0.3-0.1
	c-0.1,0-0.3,0-0.5-0.1c-0.1-0.5-0.2-1-0.2-1.6c0-0.5,0-1,0-1.5L1051.4,56.4z M1041.2,54.4c0-0.8-0.4-1.1-1.1-1.1c-0.1,0-0.2,0-0.3,0
	c-1,0-2,0.5-3,1.4c-0.5,0.4-0.9,0.9-1.3,1.4c-0.5,0.7-0.8,1.4-0.8,2c0,0.8,0.4,1.2,1.3,1.4c1.2,0,2.3-0.6,3.4-1.6
	c0.5-0.5,0.8-0.9,1.1-1.5C1041,55.6,1041.2,55,1041.2,54.4z M1041.3,57.5c-1,1.5-2.3,2.5-3.9,2.9c-0.4,0.1-0.7,0.1-1,0.1
	c-0.3,0-0.6,0-0.8,0c-0.2,0-0.4,0-0.7-0.1c-0.2-0.1-0.5-0.1-0.7-0.3c-0.5-0.3-0.7-0.7-0.7-1.1c-0.1-0.2-0.1-0.5-0.1-0.8
	c0-0.3,0.1-0.7,0.2-1.2c0.1-0.5,0.4-1,0.7-1.6c0.3-0.6,0.8-1.1,1.3-1.5c1-1,2.1-1.6,3.3-1.9c0.3-0.1,0.7-0.1,1-0.1s0.6,0,0.8,0.1
	c0.8,0,1.3,0.5,1.5,1.5c0.2,0.7,0.3,1.6,0.3,2.7c0,1.2,0.1,2.1,0.1,2.7c0,0.6,0.1,1.2,0.2,1.7h-1.2c-0.1-0.4-0.1-0.7-0.1-0.9
	c0-0.3-0.1-0.5-0.1-0.8C1041.4,58.3,1041.3,57.9,1041.3,57.5z M1023.4,53.1c0-0.1,0-0.1,0-0.2c0-0.1,0-0.2,0.1-0.3
	c0.1-0.1,0.2-0.3,0.3-0.4c0.1-0.1,0.3-0.2,0.4-0.1c0.1,0,0.3,0.1,0.4,0.3l3.3,6.1c0.1-0.2,0.3-0.4,0.5-0.9c0.2-0.4,0.5-0.9,0.8-1.4
	c0.3-0.5,0.6-1.1,0.9-1.7c0.3-0.6,0.6-1.1,0.9-1.6c0.6-1.1,1-1.7,1.1-1.7c0.3,0,0.5,0.1,0.6,0.3c0.1,0.2,0.2,0.4,0.2,0.5
	s0,0.2,0,0.2c-0.7,1.6-1.4,3.1-2,4.4c-0.6,1.3-1,2.2-1.2,2.6c-0.2,0.4-0.4,0.7-0.5,0.9c-0.3,0.4-0.5,0.6-0.8,0.6
	c-0.3,0-0.6-0.2-0.9-0.6s-0.7-1-1.2-1.6C1025.4,57.2,1024.5,55.5,1023.4,53.1z M1020.4,53.1c0-0.7-0.1-1.3-0.1-1.9c0-0.6,0-1,0-1.2
	c0-0.3-0.1-0.9-0.3-2c0.1-0.2,0.2-0.3,0.3-0.5c0.1-0.1,0.3-0.2,0.5-0.2c0.5,0,0.8,1.9,1.1,5.8c0.1,2.2,0.2,4.4,0.2,6.7
	c0,0.6-0.4,0.9-1.2,0.9l-0.2,0c0-0.7,0-1.5-0.1-2.6c0-1.1-0.1-2-0.1-2.8C1020.5,54.6,1020.5,53.8,1020.4,53.1z M1017.5,54.4
	c0-0.8-0.4-1.1-1.1-1.1c-0.1,0-0.2,0-0.3,0c-1,0-2,0.5-3,1.4c-0.5,0.4-0.9,0.9-1.3,1.4c-0.5,0.7-0.8,1.4-0.8,2
	c0,0.8,0.4,1.2,1.3,1.4c1.2,0,2.3-0.6,3.4-1.6c0.5-0.5,0.8-0.9,1.1-1.5C1017.3,55.6,1017.5,55,1017.5,54.4z M1017.6,57.5
	c-1,1.5-2.3,2.5-3.9,2.9c-0.4,0.1-0.7,0.1-1,0.1c-0.3,0-0.6,0-0.8,0c-0.2,0-0.4,0-0.7-0.1c-0.2-0.1-0.5-0.1-0.7-0.3
	c-0.5-0.3-0.7-0.7-0.7-1.1c-0.1-0.2-0.1-0.5-0.1-0.8c0-0.3,0.1-0.7,0.2-1.2c0.1-0.5,0.4-1,0.7-1.6c0.3-0.6,0.8-1.1,1.3-1.5
	c1-1,2.1-1.6,3.3-1.9c0.3-0.1,0.7-0.1,1-0.1c0.3,0,0.6,0,0.8,0.1c0.8,0,1.3,0.5,1.5,1.5c0.2,0.7,0.3,1.6,0.3,2.7
	c0,1.2,0.1,2.1,0.1,2.7c0,0.6,0.1,1.2,0.2,1.7h-1.2c-0.1-0.4-0.1-0.7-0.1-0.9c0-0.3-0.1-0.5-0.1-0.8
	C1017.8,58.3,1017.7,57.9,1017.6,57.5z M1006.4,53.7c-0.2,0-0.4-0.1-0.7-0.1c-0.3,0-0.6,0.1-1.1,0.3c-0.4,0.2-0.9,0.5-1.3,0.9
	c-0.4,0.4-0.8,0.8-1.1,1.2c-0.9,1.1-1.3,2-1.3,2.7c0,0.2,0.1,0.4,0.2,0.5c0.1,0.1,0.2,0.1,0.3,0.1c0.1,0,0.3,0,0.6-0.1
	c0.3,0,0.6-0.2,1.1-0.4c0.4-0.2,0.9-0.4,1.4-0.7c0.5-0.3,0.9-0.6,1.3-1c0.9-0.8,1.4-1.6,1.4-2.4C1007.3,54.3,1007,53.9,1006.4,53.7z
	 M1005.3,69.1l-0.3,0c-0.4,0-0.8,0-1.2,0.1h-0.7c-0.8,0-1.4-0.2-1.8-0.4c-0.2-0.2-0.3-0.4-0.3-0.7l4.5-0.2c1.4,0,2.1-0.8,2.1-2.2
	c0,0,0-0.1,0-0.3s0-0.4,0-0.8l0.1-6.3c0-0.2,0-0.4,0-0.5c-2.1,2-4.1,2.9-6.1,2.9c-0.2,0-0.3,0-0.5,0c-0.9,0-1.3-0.4-1.3-1.2
	c0-0.6,0.2-1.3,0.5-2c0.3-0.7,0.7-1.4,1.3-2.1c0.5-0.7,1.1-1.3,1.7-1.8c1-0.8,2-1.2,2.9-1.2c1.1,0,2,0.6,2.7,1.7
	c0.2,3.1,0.3,5.3,0.3,6.6c0,1.3,0,2.4-0.1,3.2s-0.1,1.6-0.3,2.3s-0.3,1.2-0.5,1.6c-0.2,0.4-0.5,0.7-0.8,0.9
	C1006.9,68.9,1006.2,69.1,1005.3,69.1z M989,54.4c0-0.8-0.4-1.1-1.1-1.1c-0.1,0-0.2,0-0.3,0c-1,0-2,0.5-3,1.4
	c-0.5,0.4-0.9,0.9-1.3,1.4c-0.5,0.7-0.8,1.4-0.8,2c0,0.8,0.4,1.2,1.3,1.4c1.2,0,2.3-0.6,3.4-1.6c0.5-0.5,0.8-0.9,1.1-1.5
	C988.8,55.6,989,55,989,54.4z M989.1,57.5c-1,1.5-2.3,2.5-3.9,2.9c-0.4,0.1-0.7,0.1-1,0.1c-0.3,0-0.6,0-0.8,0c-0.2,0-0.4,0-0.7-0.1
	c-0.2-0.1-0.5-0.1-0.7-0.3c-0.5-0.3-0.7-0.7-0.7-1.1c-0.1-0.2-0.1-0.5-0.1-0.8c0-0.3,0.1-0.7,0.2-1.2c0.1-0.5,0.4-1,0.7-1.6
	c0.3-0.6,0.8-1.1,1.3-1.5c1-1,2.1-1.6,3.3-1.9c0.3-0.1,0.7-0.1,1-0.1c0.3,0,0.6,0,0.8,0.1c0.8,0,1.3,0.5,1.5,1.5
	c0.2,0.7,0.3,1.6,0.3,2.7c0,1.2,0.1,2.1,0.1,2.7c0,0.6,0.1,1.2,0.2,1.7h-1.2c-0.1-0.4-0.1-0.7-0.1-0.9c0-0.3-0.1-0.5-0.1-0.8
	C989.3,58.3,989.2,57.9,989.1,57.5z M977.9,53.6c-0.4-0.2-0.9-0.3-1.4-0.3c-0.5,0-1,0-1.5,0.1c-1.1,0.2-1.9,0.7-2.4,1.4
	c-0.2,0.3-0.3,0.8-0.3,1.2c0,0.1,0,0.1,0,0.2v3.4c2.7-0.6,4.6-1.4,5.7-2.5c0.6-0.6,1-1.2,1-1.9C979,54.4,978.6,53.9,977.9,53.6z
	 M972.2,52.9c1.8-0.6,3.3-0.9,4.6-0.9c1.6,0,2.7,0.4,3.3,1.3c0.2,0.4,0.4,0.8,0.4,1.3c0,0.7-0.2,1.3-0.6,2c-0.4,0.7-1,1.3-1.6,1.9
	c-1.6,1.3-3.5,2.1-5.7,2.4c0,0.1,0,0.4,0,0.7c0,0.3,0,0.7,0,1.1c0,0.4,0,0.8,0,1.2s0,0.9,0,1.3c0,1,0.1,1.6,0.1,1.7
	c0,0.1,0,0.3,0,0.3c0,0.3-0.1,0.6-0.3,0.7c-0.2,0.2-0.5,0.2-0.8,0.2c-0.1,0-0.1,0-0.2,0L971,52.5c0.1-0.2,0.3-0.2,0.5-0.2
	c0.2,0,0.3,0.1,0.5,0.2C972.1,52.5,972.2,52.6,972.2,52.9z M967.8,54.4c0-0.8-0.4-1.1-1.1-1.1c-0.1,0-0.2,0-0.3,0c-1,0-2,0.5-3,1.4
	c-0.5,0.4-0.9,0.9-1.3,1.4c-0.5,0.7-0.8,1.4-0.8,2c0,0.8,0.4,1.2,1.3,1.4c1.2,0,2.3-0.6,3.4-1.6c0.5-0.5,0.8-0.9,1.1-1.5
	C967.6,55.6,967.8,55,967.8,54.4z M967.8,57.5c-1,1.5-2.3,2.5-3.9,2.9c-0.4,0.1-0.7,0.1-1,0.1c-0.3,0-0.6,0-0.8,0
	c-0.2,0-0.4,0-0.7-0.1c-0.2-0.1-0.5-0.1-0.7-0.3c-0.5-0.3-0.7-0.7-0.7-1.1c-0.1-0.2-0.1-0.5-0.1-0.8c0-0.3,0.1-0.7,0.2-1.2
	c0.1-0.5,0.4-1,0.7-1.6c0.3-0.6,0.8-1.1,1.3-1.5c1-1,2.1-1.6,3.3-1.9c0.3-0.1,0.7-0.1,1-0.1c0.3,0,0.6,0,0.8,0.1
	c0.8,0,1.3,0.5,1.5,1.5c0.2,0.7,0.3,1.6,0.3,2.7c0,1.2,0.1,2.1,0.1,2.7c0,0.6,0.1,1.2,0.2,1.7h-1.2c-0.1-0.4-0.1-0.7-0.1-0.9
	c0-0.3-0.1-0.5-0.1-0.8C968,58.3,967.9,57.9,967.8,57.5z M959.4,60.4c-0.1,0.2-0.4,0.3-0.9,0.3c-0.5,0-0.7-0.2-0.7-0.5
	c0-1.5,0-2.6-0.1-3.2c-0.1-1.3-0.4-1.9-0.7-2c-0.9-0.2-1.7-0.3-2.3-0.3c-0.6,0-1.1,0.2-1.5,0.5c-0.4,0.4-0.7,0.9-0.9,1.8
	c-0.2,0.8-0.3,2-0.4,3.5h-1.5c0-0.7,0-1.4,0-2.1c0-0.6,0-1.4,0-2.3c0-0.9-0.1-1.8-0.1-2.9c-0.1-1.2-0.1-2.2-0.1-3s0.1-1.6,0.2-2.3
	c0.1-0.2,0.3-0.4,0.6-0.4c0.3,0,0.5,0.1,0.7,0.3c0.2,0.2,0.3,0.4,0.3,0.6l-0.1,3.2c0,1.2,0.1,2.1,0.2,2.7c1.2-0.8,2.4-1.2,3.6-1.2
	c0.4,0,0.8,0,1.3,0.1c1,0.5,1.6,1,1.9,1.6c0.1,0.3,0.2,0.6,0.3,1c0,0.3,0.1,0.7,0.1,1.2C959.2,58.6,959.3,59.7,959.4,60.4z
	 M945.5,58.6c0.5-0.2,1-0.4,1.6-0.6s1-0.3,1.5-0.3c0.5,0,0.7,0.1,0.7,0.4c0,0.1,0,0.2,0,0.3c0,0.1-0.2,0.3-0.5,0.5
	c-0.3,0.2-0.7,0.4-1.2,0.5c-0.5,0.2-1,0.3-1.5,0.5c-0.5,0.1-1.1,0.3-1.6,0.4c-1.1,0.2-1.8,0.3-2.3,0.3c-0.5,0-0.9-0.1-1.5-0.2
	c-0.5-0.1-1-0.3-1.5-0.5c-1.1-0.5-1.6-1.4-1.6-2.4c0-0.1,0-0.2,0-0.5c0-0.2,0.1-0.6,0.3-1c0.2-0.4,0.5-0.9,0.9-1.3
	c0.4-0.4,0.8-0.8,1.4-1.2c1.1-0.8,2.2-1.3,3.4-1.5c0.4-0.1,0.8-0.1,1-0.1s0.5,0,0.7,0c0.2,0,0.4,0,0.6,0c0.2,0,0.4,0.1,0.5,0.1
	c0.3,0.2,0.5,0.5,0.5,1c0,0.3-0.2,0.6-0.7,0.9c-0.1,0.1-0.2,0.2-0.3,0.2c-0.1-0.3-0.2-0.6-0.3-0.8c-0.1-0.2-0.3-0.3-0.7-0.3
	c-1.5,0.3-2.9,0.8-4,1.5c-1.2,0.7-1.9,1.5-1.9,2.3c0,0.1,0,0.2,0,0.3c0,0.8,0.3,1.4,1,1.8c0.5,0.3,1.1,0.4,1.9,0.4
	c0.8,0,1.4-0.1,2-0.3C944.5,59.1,945,58.9,945.5,58.6z"/>
<polygon class="hflecha1punta" points="476.1,116.1 474,118.9 474.3,109 482.5,114.7 479,114.7 483.9,117.5 478.2,116.8 475.4,121.8 "/>
<path class="hflecha1txt" d="M523.2,87.8c0,1.8,1.2,2.6,3.7,2.6c1.8,0,3.1-0.5,4-1.4c0.9-0.9,1.4-2.2,1.4-3.9c0-0.1,0-0.1,0-0.2
	c0-1.5-0.4-2.6-1.1-3.4c-0.7-0.8-1.8-1.2-3-1.2c-0.1,0-0.3,0-0.4,0s-0.2,0-0.3,0c-0.7,0-1.4,0.5-2,1.4c-0.6,0.9-1.2,2-1.6,3.3
	C523.4,86.2,523.2,87.1,523.2,87.8 M523.5,90.5c-0.5-0.3-0.8-0.7-1.1-1.1c-0.3-0.4-0.4-0.9-0.4-1.5c0-0.5,0.1-1.1,0.2-1.9
	c0.2-0.7,0.4-1.4,0.6-2c0.2-0.6,0.5-1.2,0.9-1.8c0.3-0.6,0.7-1.1,1.2-1.5c1-0.9,2.1-1.4,3.3-1.4c1.7,0,2.9,0.6,3.8,1.8
	c0.8,1.1,1.2,2.5,1.2,4.1c0,1.9-0.6,3.4-1.9,4.5c-1.2,1-2.8,1.6-4.8,1.6C525.4,91.4,524.4,91.1,523.5,90.5z M515,81.9
	c-0.3,0.4-0.6,0.8-1,1.1c-0.4,0.4-0.8,0.7-1.2,1.1c-0.4,0.4-0.7,0.7-1.1,1.1c-0.3,0.4-0.5,0.8-0.6,1.2c0.1,0,0.3,0,0.6,0
	c0.3,0,0.8,0,1.3-0.1c0.6-0.1,1.2-0.1,1.9-0.2V81.9z M515.4,91.6c-0.3,0-0.4-0.1-0.5-0.2l0.1-3.9h-1.4l-2.3,0h-1.4
	c-0.2,0-0.3,0-0.5-0.1c-0.2-0.1-0.3-0.2-0.3-0.4c0.7-0.9,1.4-1.8,2-2.7c2.1-2.8,3.5-4.2,4.3-4.2c0.9,0,1.3,1.5,1.3,4.5
	c0,0.4,0,0.8,0,1.2l4.3-0.1c0,0.3,0,0.6-0.1,0.7c-0.1,0.2-0.2,0.2-0.2,0.3l-3.6,0.3c-0.2,0.5-0.3,1.1-0.3,1.7
	c-0.1,1-0.1,1.9-0.1,2.6L515.4,91.6z M498.8,90.7c0.6-0.6,1.3-1.4,1.9-2.2c0.7-0.8,1-1.4,1.2-1.6l-1.6-1.8c-0.2-0.2-0.4-0.4-0.6-0.7
	c-0.2-0.2-0.4-0.4-0.5-0.6c-0.2-0.2-0.3-0.3-0.4-0.4l-0.1-0.2l1.1-1.2c0.6,0.7,1,1.3,1.3,1.6c0.3,0.4,0.5,0.7,0.7,0.9
	c0.3,0.4,0.7,0.8,1.2,1.3c0.2-0.3,0.5-0.7,1-1.4c0.8-1.2,1.4-2,1.9-2.6c0.3,0,0.5,0.1,0.7,0.3c0.2,0.2,0.3,0.4,0.3,0.6
	c-0.3,0.7-0.8,1.5-1.5,2.3c-0.2,0.3-0.4,0.6-0.6,0.8c-0.2,0.3-0.4,0.6-0.5,0.9c0.8,0.6,1.7,1.5,2.8,2.9c0.2,0.3,0.4,0.5,0.5,0.7
	c0,0.1-0.1,0.2-0.2,0.4c-0.2,0.3-0.4,0.5-0.6,0.6c-0.2-0.1-0.5-0.3-0.8-0.6c-0.3-0.3-0.5-0.6-0.8-1c-0.3-0.4-0.6-0.7-0.9-1.1
	c-0.3-0.4-0.7-0.7-1-0.9c-0.3,0.3-0.7,0.8-1.2,1.5c-1,1.2-1.6,1.9-2,2.1c-0.2,0.1-0.6-0.1-1.1-0.3C498.9,90.9,498.8,90.8,498.8,90.7
	z M487.6,87.8c0,1.8,1.2,2.6,3.7,2.6c1.8,0,3.1-0.5,4-1.4c0.9-0.9,1.4-2.2,1.4-3.9c0-0.1,0-0.1,0-0.2c0-1.5-0.4-2.6-1.1-3.4
	c-0.7-0.8-1.8-1.2-3-1.2c-0.1,0-0.3,0-0.4,0s-0.2,0-0.3,0c-0.7,0-1.4,0.5-2,1.4c-0.6,0.9-1.2,2-1.6,3.3
	C487.8,86.2,487.6,87.1,487.6,87.8z M487.9,90.5c-0.5-0.3-0.8-0.7-1.1-1.1c-0.3-0.4-0.4-0.9-0.4-1.5c0-0.5,0.1-1.1,0.2-1.9
	c0.2-0.7,0.4-1.4,0.6-2c0.2-0.6,0.5-1.2,0.9-1.8c0.3-0.6,0.7-1.1,1.2-1.5c1-0.9,2.1-1.4,3.3-1.4c1.7,0,2.9,0.6,3.8,1.8
	c0.8,1.1,1.2,2.5,1.2,4.1c0,1.9-0.6,3.4-1.9,4.5c-1.2,1-2.8,1.6-4.8,1.6C489.8,91.4,488.8,91.1,487.9,90.5z M479.4,81.9
	c-0.3,0.4-0.6,0.8-1,1.1c-0.4,0.4-0.8,0.7-1.2,1.1c-0.4,0.4-0.7,0.7-1.1,1.1c-0.3,0.4-0.5,0.8-0.6,1.2c0.1,0,0.3,0,0.6,0
	c0.3,0,0.8,0,1.3-0.1c0.6-0.1,1.2-0.1,1.9-0.2V81.9z M479.8,91.6c-0.3,0-0.4-0.1-0.5-0.2l0.1-3.9H478l-2.3,0h-1.4
	c-0.2,0-0.3,0-0.5-0.1c-0.2-0.1-0.3-0.2-0.3-0.4c0.7-0.9,1.4-1.8,2-2.7c2.1-2.8,3.5-4.2,4.3-4.2c0.9,0,1.3,1.5,1.3,4.5
	c0,0.4,0,0.8,0,1.2l4.3-0.1c0,0.3,0,0.6-0.1,0.7c-0.1,0.2-0.2,0.2-0.2,0.3l-3.6,0.3c-0.2,0.5-0.3,1.1-0.3,1.7
	c-0.1,1-0.1,1.9-0.1,2.6L479.8,91.6z M455.2,88.1c0,0.8,0.2,1.4,0.6,1.6c0.3,0.2,0.9,0.3,1.6,0.3c0.8,0,1.4-0.1,2-0.2
	c0.6-0.1,1.1-0.3,1.6-0.6c1-0.6,1.5-1.6,1.5-2.9c0-0.8-0.2-1.4-0.6-1.9c-0.5-0.5-1.1-0.8-1.8-0.8c-0.5,0.1-1,0.2-1.5,0.3
	c-0.5,0.1-1,0.3-1.5,0.6C456.1,85.2,455.5,86.4,455.2,88.1z M453.9,87.6c0-1.5,0.7-2.8,2-3.7c1.1-0.7,2.3-1.2,3.8-1.3
	c0.1,0,0.3,0,0.5,0s0.7,0.1,1.2,0.3c1.1,0.4,1.8,1,2.2,1.9c0.2,0.4,0.2,0.7,0.2,0.9c0,0.3,0,0.4,0,0.5c0,1.6-0.6,2.9-1.9,3.8
	c-1.1,0.9-2.6,1.3-4.3,1.3c-1.2,0-2.2-0.3-2.8-0.9C454.2,89.9,453.9,89,453.9,87.6z M446.4,79.1c-0.4,0-1,0.5-1.7,1.6
	c-0.1,0-0.2,0-0.4-0.1c-0.2-0.1-0.3-0.2-0.3-0.3c0.2-0.6,0.5-1.2,0.9-1.7c0.4-0.5,0.8-0.8,1.2-1c0.1,0,0.2-0.1,0.4-0.1
	c0.1,0,0.3,0.1,0.5,0.2c0.2,0.1,0.4,0.3,0.6,0.6c0.2,0.2,0.5,0.5,0.7,0.7c0.3,0.2,0.5,0.3,0.8,0.3s0.5,0,0.7-0.1
	c0.2-0.1,0.3-0.2,0.4-0.4c0.1-0.2,0.3-0.4,0.4-0.6c0.2-0.2,0.4-0.5,0.7-0.8c0.1,0,0.2,0.1,0.2,0.2c0.1,0.1,0.1,0.3,0.1,0.4
	c0,0.1,0,0.2,0,0.4s0,0.3-0.1,0.6c-0.1,0.2-0.3,0.5-0.5,0.7c-0.6,0.6-1.3,0.9-2.1,0.9c-0.6,0-1.1-0.2-1.4-0.6
	c-0.3-0.2-0.5-0.4-0.7-0.6C446.8,79.2,446.6,79.1,446.4,79.1z M451,87.1c0-1.5-0.1-2.7-0.3-3.4c0.1-0.2,0-0.3-0.5-0.3
	c-0.4,0-1,0.1-1.7,0.3c-0.7,0.2-1.3,0.4-1.7,0.7c-1.1,0.5-1.6,1-1.8,1.5v5.3h-1.3c-0.2-0.4-0.3-1.7-0.3-3.7c0-1.8,0-3.2,0.1-4
	c0.1-0.9,0.1-1.3,0.2-1.5c0.3-0.2,0.6-0.3,0.8-0.3c0.3,0,0.5,0.4,0.5,1.2c0,0.3,0,0.6,0,0.9c0,0.3,0,0.5,0,0.6
	c2.1-1.5,3.7-2.3,4.9-2.3c1.3,0,2.1,1.1,2.2,3.2c0.1,0.7,0.1,1.8,0.1,3.1l0,1.5c0,0.6,0,1.1,0,1.7c-0.1,0.1-0.2,0.1-0.3,0.1
	c0,0-0.1,0-0.3-0.1c-0.1,0-0.3,0-0.5-0.1c-0.1-0.5-0.2-1-0.2-1.6c0-0.5,0-1,0-1.5L451,87.1z M440.8,85.1c0-0.8-0.4-1.1-1.1-1.1
	c-0.1,0-0.2,0-0.3,0c-1,0-2,0.5-3,1.4c-0.5,0.4-0.9,0.9-1.3,1.4c-0.5,0.7-0.8,1.4-0.8,2c0,0.8,0.4,1.2,1.3,1.4
	c1.2,0,2.3-0.6,3.4-1.6c0.5-0.5,0.8-0.9,1.1-1.5C440.6,86.2,440.8,85.6,440.8,85.1z M440.9,88.1c-1,1.5-2.3,2.5-3.9,2.9
	c-0.4,0.1-0.7,0.1-1,0.1c-0.3,0-0.6,0-0.8,0c-0.2,0-0.4,0-0.7-0.1c-0.2-0.1-0.5-0.1-0.7-0.3c-0.5-0.3-0.7-0.7-0.7-1.1
	c-0.1-0.2-0.1-0.5-0.1-0.8c0-0.3,0.1-0.7,0.2-1.2c0.1-0.5,0.4-1,0.7-1.6c0.3-0.6,0.8-1.1,1.3-1.5c1-1,2.1-1.6,3.3-1.9
	c0.4-0.1,0.7-0.1,1-0.1c0.3,0,0.6,0,0.8,0.1c0.8,0,1.3,0.5,1.5,1.5c0.2,0.7,0.3,1.6,0.3,2.7c0,1.2,0.1,2.1,0.1,2.7
	c0,0.6,0.1,1.2,0.2,1.7h-1.2c-0.1-0.4-0.1-0.7-0.1-0.9c0-0.3-0.1-0.5-0.1-0.8C441,89,441,88.5,440.9,88.1z M428.5,89.3
	c0.5-0.2,1-0.4,1.6-0.6c0.5-0.2,1-0.3,1.5-0.3c0.5,0,0.7,0.1,0.7,0.4c0,0.1,0,0.2,0,0.3c0,0.1-0.2,0.3-0.5,0.5
	c-0.3,0.2-0.7,0.4-1.2,0.5c-0.5,0.2-1,0.3-1.5,0.5c-0.5,0.1-1.1,0.3-1.6,0.4c-1.1,0.2-1.8,0.3-2.3,0.3c-0.5,0-0.9-0.1-1.5-0.2
	c-0.5-0.1-1-0.3-1.5-0.5c-1.1-0.5-1.6-1.4-1.6-2.4c0-0.1,0-0.2,0-0.5c0-0.2,0.1-0.6,0.3-1c0.2-0.4,0.5-0.9,0.9-1.3
	c0.4-0.4,0.8-0.8,1.4-1.2c1.1-0.8,2.2-1.3,3.4-1.5c0.4-0.1,0.8-0.1,1-0.1s0.5,0,0.7,0c0.2,0,0.4,0,0.6,0c0.2,0,0.4,0.1,0.5,0.1
	c0.3,0.2,0.5,0.5,0.5,1c0,0.3-0.2,0.6-0.7,0.9c-0.1,0.1-0.2,0.1-0.3,0.2c-0.1-0.3-0.2-0.6-0.3-0.8c-0.1-0.2-0.3-0.3-0.7-0.3
	c-1.5,0.3-2.9,0.8-4,1.5c-1.2,0.7-1.9,1.5-1.9,2.3c0,0.1,0,0.2,0,0.3c0,0.8,0.3,1.4,1,1.8c0.5,0.3,1.1,0.4,1.9,0.4
	c0.8,0,1.4-0.1,2-0.3C427.4,89.7,427.9,89.5,428.5,89.3z"/>
<path class="hLogoVsombra" d="M538.9,646c29.5,0,53.4,10.3,53.4,23.1c0,12-21.4,21.9-48.7,23c1.5,0.1,3,0.1,4.6,0.1
	c29.5,0,53.4-11.1,53.4-24.9s-23.9-24.9-53.4-24.9c-14.4,0-27.5,2.7-37.1,7C519.2,647.2,528.7,646,538.9,646"/>
<path class="hLogoVsombra" d="M421.3,615.8c11.8,0,23.7,0,35.5,0v5.6H448V655h-17.8v-33.6h-8.9V615.8z"/>
<path class="hLogoVsombra" d="M462.7,615.8h19.5v33.6h5.9v-33.6h18.9v28.5c0,5.9-5.1,10.7-11.3,10.7H474c-6.2,0-11.3-4.8-11.3-10.7V615.8z"
	/>
<rect x="430.3" y="661.8" class="hLogoVsombra" width="5.3" height="22.4"/>
<path class="hLogoVsombra" d="M437.8,661.8h4.6h0.3h5c3,0,5.6,1.5,7.1,3.8v-3.8h6.4c4.5,0,8.3,3.5,8.3,7.8v14.5h-5v-13.5
	c0-2.3-2-4.3-4.5-4.3h-4.7c0.5,1,0.7,2.1,0.7,3.2v14.5h-5v-13.5c0-2.3-2-4.3-4.5-4.3h-3.8v17.7h-4.9V661.8z"/>
<path class="hLogoVsombra" d="M551.7,661.8h4.6h0.3h7.7c4.5,0,8.3,3.5,8.3,7.8v14.5h-5v-13.5c0-2.3-2-4.3-4.5-4.3h-6.5v17.7h-4.9V661.8z"/>
<path class="hLogoVsombra" d="M481.6,661.6h4.3c5.6,0,10.1,4.3,10.1,9.6v19.4h-5.4v-10.9v-8.5c0-2.5-2.1-4.5-4.8-4.5h-4.3
	c-2.6,0-4.8,2-4.8,4.5v3.4H488v5.2h-11.1h-4.6h-0.7v-8.6C471.5,665.9,476.1,661.6,481.6,661.6"/>
<path class="hLogoVsombra" d="M498.4,675.3v-4.1c0-5.3,4.6-9.6,10.2-9.6H525v5.1h-16.5c-2.6,0-4.8,2-4.8,4.5v4.1c0,2.5,2.1,4.5,4.8,4.5h11.2
	v-10.5h5.3v10.5v3v2.1h-16.5C502.9,684.9,498.4,680.5,498.4,675.3"/>
<path class="hLogoVsombra" d="M547.4,674h-12.2c-4.3,0-4.3,6.1,0,6.1h12.2v4.8h-13.6c-6.5,0-9.3-7.8-4.2-11.6c0,0,1-1.2-0.1-2.2
	c-4.5-2.8-2.4-9.5,3-9.5h15v3.9h-13.2c-2.9,0-2.9,4.2,0,4.2h13.2V674z"/>
<path class="hLogoVtu" d="M538,646.8c29.5,0,53.4,10.3,53.4,23.1c0,12-21.4,21.9-48.7,23c1.5,0.1,3,0.1,4.6,0.1
	c29.5,0,53.4-11.1,53.4-24.9s-23.9-24.9-53.4-24.9c-14.4,0-27.5,2.7-37.1,7C518.3,648.1,527.8,646.8,538,646.8"/>
<path class="hLogoVtu" d="M420.5,616.7c11.8,0,23.7,0,35.5,0v5.6h-8.9v33.6h-17.8v-33.6h-8.9V616.7z"/>
<path class="hLogoVtu" d="M461.8,616.7h19.5v33.6h5.9v-33.6h18.9v28.5c0,5.9-5.1,10.7-11.3,10.7h-21.8c-6.2,0-11.3-4.8-11.3-10.7V616.7z
	"/>
<rect x="429.5" y="662.7" class="hLogoVimagen" width="5.3" height="22.4"/>
<path class="hLogoVimagen" d="M436.9,662.7h4.6h0.3h5c3,0,5.6,1.5,7.1,3.8v-3.8h6.4c4.5,0,8.3,3.5,8.3,7.8V685h-5v-13.5c0-2.3-2-4.3-4.5-4.3
	h-4.7c0.5,1,0.7,2.1,0.7,3.2V685h-5v-13.5c0-2.3-2-4.3-4.5-4.3h-3.8V685h-4.9V662.7z"/>
<path class="hLogoVimagen" d="M550.8,662.7h4.6h0.3h7.7c4.5,0,8.3,3.5,8.3,7.8V685h-5v-13.5c0-2.3-2-4.3-4.5-4.3h-6.5V685h-4.9V662.7z"/>
<path class="hLogoVimagen" d="M480.8,662.4h4.3c5.6,0,10.2,4.3,10.2,9.6v19.4h-5.4v-10.9v-8.5c0-2.5-2.1-4.5-4.8-4.5h-4.3
	c-2.6,0-4.8,2-4.8,4.5v3.4h11.1v5.2H476h-4.6h-0.7V672C470.6,666.7,475.2,662.4,480.8,662.4"/>
<path class="hLogoVimagen" d="M497.5,676.1V672c0-5.3,4.6-9.6,10.1-9.6h16.5v5.1h-16.5c-2.6,0-4.8,2-4.8,4.5v4.1c0,2.5,2.1,4.5,4.8,4.5h11.2
	v-10.5h5.3v10.5v3v2.1h-16.5C502.1,685.7,497.5,681.4,497.5,676.1"/>
<path class="hLogoVimagen" d="M546.5,674.8h-12.2c-4.3,0-4.3,6.1,0,6.1h12.2v4.8h-13.6c-6.5,0-9.3-7.8-4.2-11.6c0,0,1-1.2-0.1-2.2
	c-4.5-2.8-2.4-9.5,3-9.5h15v3.9h-13.2c-2.9,0-2.9,4.2,0,4.2h13.2V674.8z"/>
<line class="hMedidas2" x1="1094" y1="251.6" x2="696.7" y2="307.6"/>
<path class="hCartelSombra" d="M1115.7,481.3c2.5,1.2,4.3,3.8,4.3,6.8V620c0,4.2-3.4,7.6-7.6,7.6H742.8c-3.5,0-6.5-2.4-7.4-5.6
	c1,0.5,2.1,0.8,3.3,0.8h369.6c4.2,0,7.6-3.4,7.6-7.6V483.3C1116,482.6,1115.9,481.9,1115.7,481.3"/>
<path class="hCartelCuadro" d="M738.8,475.6h369.6c4.2,0,7.6,3.4,7.6,7.6v131.9c0,4.2-3.4,7.6-7.6,7.6H738.8c-4.2,0-7.6-3.4-7.6-7.6V483.3
	C731.1,479.1,734.6,475.6,738.8,475.6"/>
<line class="hCartellinea" x1="758.5" y1="516.2" x2="1088.6" y2="516.2"/>
<path class="hCarteltxt" d="M929.2,542.5c-0.3-0.3-0.6-0.4-0.9-0.4c-0.4,0-0.6,0.2-0.7,0.6c0,0,0,0.1,0,0.2c0,0.1,0.1,0.3,0.2,0.6
	c0.2,0.2,0.4,0.3,0.5,0.3c0.1,0,0.2,0,0.3,0c0.1,0,0.2-0.1,0.3-0.1c0.2-0.1,0.3-0.3,0.3-0.5C929.4,542.8,929.3,542.6,929.2,542.5
	 M927.6,544c-0.3-0.2-0.4-0.4-0.6-0.6c-0.1-0.2-0.2-0.4-0.2-0.8c0-0.3,0.1-0.6,0.2-0.9c0.3-0.4,0.6-0.6,1.1-0.6
	c0.7,0,1.2,0.3,1.6,0.8c0.2,0.2,0.3,0.5,0.3,0.8c0,0.6-0.1,1.1-0.4,1.3c-0.3,0.2-0.6,0.3-1.2,0.3C928.2,544.3,927.9,544.2,927.6,544
	z M919.8,538.5c-0.1,0.8-0.3,1.5-0.7,2.3c-0.3,0.8-0.6,1.4-0.8,1.9c-0.2,0.4-0.4,0.9-0.5,1.2c0.8,0,1.9-0.2,3.1-0.7
	c0.3-0.1,0.6-0.3,0.9-0.4C921.1,540.3,920.5,538.9,919.8,538.5z M924.4,542.5h0.5c0.2,0,0.4,0,0.6,0.1c0.2,0,0.3,0.2,0.3,0.4
	c0.1,0.5-0.2,0.7-0.9,0.7c-0.2,0-0.4,0-0.5,0c-0.2,0-0.3,0-0.4,0c-0.1,0-0.1,0-0.1,0.1c0.1,0.4,0.3,0.8,0.4,1.2
	c0.1,0.4,0.3,0.9,0.5,1.3c0.4,1.1,0.9,1.9,1.3,2.4c-0.2,0.3-0.5,0.5-0.7,0.7c-0.3,0.2-0.4,0.3-0.5,0.3c0,0,0,0,0,0l-2.6-5.5
	l-5.1,1.3l-0.2,0.8c-0.4,1.4-0.8,2.4-1.2,3c-0.1,0.1-0.2,0.1-0.5,0c-0.4-0.2-0.6-0.3-0.6-0.4c0,0,0.1-0.4,0.4-1.1
	c0.3-0.7,0.5-1.4,0.8-2.1c0.3-0.7,0.5-1.5,0.8-2.3c0.3-0.8,0.6-1.5,0.8-2.2c0.3-0.7,0.5-1.3,0.7-1.9c0.2-0.6,0.4-1,0.4-1.2
	c0.1-0.3,0.1-0.5,0.2-0.7c0-0.2,0.1-0.4,0.1-0.5c0.1-0.3,0.4-0.4,0.9-0.4c0.5,0.3,1,0.7,1.2,1.2c0.3,0.5,0.5,1,0.7,1.5
	c0.2,0.5,0.4,1.1,0.6,1.7c0.2,0.6,0.5,1.1,0.8,1.5c0.1,0.2,0.3,0.3,0.5,0.3C924.1,542.5,924.3,542.5,924.4,542.5z M905.1,542.5
	c-0.3-0.3-0.6-0.4-0.9-0.4c-0.4,0-0.6,0.2-0.7,0.6c0,0,0,0.1,0,0.2c0,0.1,0.1,0.3,0.2,0.6c0.2,0.2,0.4,0.3,0.5,0.3s0.2,0,0.3,0
	c0.1,0,0.2-0.1,0.3-0.1c0.2-0.1,0.3-0.3,0.3-0.5C905.2,542.8,905.2,542.6,905.1,542.5z M903.5,544c-0.3-0.2-0.4-0.4-0.6-0.6
	c-0.1-0.2-0.2-0.4-0.2-0.8c0-0.3,0.1-0.6,0.2-0.9c0.3-0.4,0.6-0.6,1.1-0.6c0.7,0,1.2,0.3,1.6,0.8c0.2,0.2,0.3,0.5,0.3,0.8
	c0,0.6-0.1,1.1-0.4,1.3c-0.3,0.2-0.6,0.3-1.2,0.3C904.1,544.3,903.8,544.2,903.5,544z M893.6,544.1c0,0.4-0.1,1-0.1,1.8
	s0.1,1.7,0.4,2.8l-1.5,0.7l-0.7-5.1c-0.4-0.1-0.7-0.2-0.7-0.4c0-0.2,0.1-0.4,0.3-0.6c0.2-0.2,0.4-0.4,0.5-0.6
	c0.1-0.2,0.2-0.3,0.2-0.5c0-0.2,0-0.5,0.1-1c0-0.5,0.1-1,0.1-1.6c0-0.6,0.1-1.1,0.1-1.6c0-0.5,0-0.8,0-1c0.3-0.3,0.5-0.4,0.6-0.5
	c0.3-0.2,0.5-0.1,0.6,0.2l-0.1,5.9c3.1,0,4.9-0.2,5.5-0.6V536c0.1-0.2,0.4-0.3,1-0.3c0.1,0,0.3,0,0.3,0c0,0.2,0,0.6,0,1.1
	c0,0.5,0,1,0.1,1.6c0,0.6,0,1.3,0.1,1.9c0,0.7,0,1.3,0.1,1.9c0,1.3,0.1,2.2,0.1,2.8c0.1,1.5,0.4,2.7,0.9,3.6
	c-0.6,0.2-1.2,0.3-1.8,0.3c-0.6-1.4-0.9-3.3-0.9-5.6c-0.8,0-1.4,0-1.7,0c-0.3,0-0.6,0-1,0.1C895.4,543.6,894.6,543.8,893.6,544.1z
	 M880.4,542.3c-0.3-0.2-0.6-0.3-0.9-0.4c-0.3-0.1-0.5-0.1-0.7-0.1c-0.2,0-0.5,0.1-1,0.2c-0.4,0.1-0.8,0.3-1.2,0.4
	c-0.9,0.4-1.3,0.8-1.3,1.3c1,0.1,1.7,0.1,2.2,0.1c1.4,0,2.3-0.1,2.8-0.4c0.3-0.1,0.4-0.3,0.4-0.5
	C880.8,542.7,880.6,542.5,880.4,542.3z M877,548.1c1.1,0,2.7-0.5,5-1.5c0.1,0,0.2,0,0.3,0.1c0.1,0.1,0.1,0.2,0.1,0.3
	c-0.5,0.8-1.5,1.5-2.9,2c-1.4,0.5-2.7,0.6-3.9,0.2c-1.4-0.4-2.2-1.1-2.5-2.3c0-0.2,0-0.6,0-1s0.1-0.9,0.3-1.6
	c0.2-0.7,0.6-1.3,1.1-1.9c0.5-0.6,1.1-1,1.8-1.4c0.7-0.3,1.4-0.5,2.1-0.5c0.7,0,1.5,0.2,2.4,0.7c0.4,0.2,0.8,0.5,1,0.8
	c0.2,0.3,0.4,0.6,0.4,0.9c0,0.1,0,0.2,0,0.3c0,0.8-0.4,1.2-1.1,1.4c-0.3,0.1-0.7,0.1-1.1,0.1l-2.7-0.1c-0.9,0-1.6,0.2-2.1,0.6
	c-0.3,0.2-0.5,0.5-0.6,1C875,547.5,875.7,548.1,877,548.1z M864.4,546.4c0,1,0.4,1.5,1.1,1.5c0.1,0,0.2,0,0.4,0
	c0.5,0,1.1-0.1,1.9-0.4c1.4-0.6,2.3-1,2.6-1.5v-2.5c0-0.4-0.4-0.7-1.1-0.7c-0.1,0-0.2,0-0.3,0c-0.1,0-0.4,0-0.7,0.1
	c-0.3,0.1-0.6,0.2-1,0.3c-0.4,0.2-0.7,0.4-1.1,0.6c-0.8,0.5-1.3,1.1-1.6,1.8C864.5,545.9,864.4,546.2,864.4,546.4z M872.3,534.4
	c0,1.2,0,2.4-0.1,3.5c-0.1,1.1-0.1,2.3-0.2,3.3c-0.1,1.1-0.1,2.2-0.1,3.5s0.1,2.5,0.3,3.9c0,0.3-0.1,0.5-0.2,0.6s-0.3,0.2-0.5,0.2
	c-0.6,0-0.9-0.5-0.9-1.5v-0.6c-1.8,1.3-3.3,2-4.5,2c-0.5,0-1-0.1-1.5-0.4c-0.5-0.2-1-0.7-1.4-1.4c-0.1-0.3-0.1-0.6-0.1-0.9
	s0.1-0.7,0.2-1.1c0.1-0.4,0.4-0.9,0.7-1.4c0.4-0.5,0.8-0.9,1.3-1.3c1.1-0.8,2.4-1.2,3.7-1.2c0.6,0,1.1,0.1,1.6,0.3
	c0-0.2,0-0.6,0-1.2c0-0.6,0.1-1.2,0.1-1.8c0.1-1.6,0.1-2.6,0.2-2.9c0-0.3,0.1-0.5,0.1-0.7c0-0.2,0.1-0.4,0.2-0.5
	C871.5,534.5,871.8,534.4,872.3,534.4z M846.7,546.3c0,0.8,0.2,1.3,0.6,1.6c0.3,0.2,0.8,0.3,1.6,0.3c0.7,0,1.4-0.1,1.9-0.2
	c0.6-0.1,1.1-0.3,1.5-0.6c0.9-0.6,1.4-1.5,1.4-2.8c0-0.7-0.2-1.4-0.6-1.8c-0.4-0.5-1-0.8-1.7-0.8c-0.5,0.1-1,0.2-1.5,0.3
	c-0.5,0.1-1,0.3-1.4,0.6C847.6,543.5,847,544.6,846.7,546.3z M845.5,545.8c0-1.5,0.6-2.7,1.9-3.6c1-0.7,2.2-1.1,3.6-1.3
	c0.1,0,0.2,0,0.5,0c0.3,0,0.6,0.1,1.1,0.2c1,0.4,1.7,1,2.1,1.9c0.1,0.4,0.2,0.6,0.2,0.9c0,0.2,0,0.4,0,0.5c0,1.6-0.6,2.8-1.8,3.7
	c-1.1,0.8-2.5,1.2-4.1,1.2c-1.2,0-2.1-0.3-2.7-0.8C845.8,548,845.5,547.1,845.5,545.8z M836.2,546.4c0,1,0.4,1.5,1.1,1.5
	c0.1,0,0.2,0,0.4,0c0.5,0,1.1-0.1,1.9-0.4c1.4-0.6,2.3-1,2.6-1.5v-2.5c0-0.4-0.4-0.7-1.1-0.7c-0.1,0-0.2,0-0.3,0
	c-0.1,0-0.4,0-0.7,0.1c-0.3,0.1-0.6,0.2-1,0.3c-0.4,0.2-0.7,0.4-1.1,0.6c-0.8,0.5-1.3,1.1-1.6,1.8
	C836.3,545.9,836.2,546.2,836.2,546.4z M844,534.4c0,1.2,0,2.4-0.1,3.5c-0.1,1.1-0.1,2.3-0.2,3.3c-0.1,1.1-0.1,2.2-0.1,3.5
	s0.1,2.5,0.3,3.9c0,0.3-0.1,0.5-0.2,0.6s-0.3,0.2-0.5,0.2c-0.6,0-0.9-0.5-0.9-1.5v-0.6c-1.8,1.3-3.3,2-4.5,2c-0.5,0-1-0.1-1.5-0.4
	c-0.5-0.2-1-0.7-1.4-1.4c-0.1-0.3-0.1-0.6-0.1-0.9s0.1-0.7,0.2-1.1c0.1-0.4,0.4-0.9,0.7-1.4c0.4-0.5,0.8-0.9,1.3-1.3
	c1.1-0.8,2.4-1.2,3.7-1.2c0.6,0,1.1,0.1,1.6,0.3c0-0.2,0-0.6,0-1.2c0-0.6,0.1-1.2,0.1-1.8c0.1-1.6,0.1-2.6,0.1-2.9
	c0-0.3,0.1-0.5,0.1-0.7c0-0.2,0.1-0.4,0.2-0.5C843.2,534.5,843.6,534.4,844,534.4z M832.7,543.4c0-0.7-0.4-1.1-1.1-1.1
	c-0.1,0-0.2,0-0.3,0c-0.9,0-1.9,0.4-2.9,1.3c-0.5,0.4-0.9,0.8-1.2,1.3c-0.5,0.7-0.7,1.3-0.7,1.9c0,0.7,0.4,1.2,1.3,1.3
	c1.1,0,2.2-0.5,3.2-1.5c0.4-0.4,0.8-0.9,1.1-1.4C832.5,544.5,832.7,543.9,832.7,543.4z M832.8,546.3c-0.9,1.5-2.2,2.4-3.7,2.7
	c-0.4,0.1-0.7,0.1-1,0.1c-0.3,0-0.5,0-0.7,0c-0.2,0-0.4,0-0.6-0.1c-0.2-0.1-0.5-0.1-0.7-0.2c-0.5-0.3-0.7-0.6-0.7-1.1
	c-0.1-0.2-0.1-0.5-0.1-0.8c0-0.3,0.1-0.7,0.2-1.1c0.1-0.5,0.4-1,0.7-1.5c0.3-0.5,0.7-1,1.2-1.5c1-0.9,2-1.6,3.2-1.8
	c0.3-0.1,0.6-0.1,0.9-0.1c0.3,0,0.5,0,0.8,0.1c0.7,0,1.2,0.5,1.5,1.5c0.2,0.6,0.3,1.5,0.3,2.6c0,1.1,0.1,2,0.1,2.6
	c0,0.6,0.1,1.2,0.2,1.7h-1.1c-0.1-0.3-0.1-0.6-0.1-0.9c0-0.3-0.1-0.5-0.1-0.7C832.9,547.1,832.9,546.7,832.8,546.3z M820.5,547.6
	l0-3c0-0.5,0-0.9-0.1-1.2h-2.9l0-1.3h2.8v-4.8c0-0.1,0.1-0.2,0.2-0.3c0.2-0.2,0.3-0.3,0.4-0.3c0.1,0,0.2,0,0.3,0
	c0.1,0,0.2,0.1,0.3,0.3c0.2,0.8,0.3,2.1,0.3,3.7c0,0.4,0,0.8,0.1,1.2c0.4,0,0.8-0.1,1.2-0.1c0,0,0.3,0,1,0c0.2,0,0.5,0,0.7,0
	l-0.1,1.3l-2.7-0.1l0.1,6.4c-0.2,0.1-0.4,0.2-0.6,0.2C820.8,549.7,820.5,549,820.5,547.6z M815.4,545.3c0-1.5-0.1-2.6-0.2-3.3
	c0.1-0.2,0-0.3-0.4-0.3c-0.4,0-1,0.1-1.6,0.3c-0.7,0.2-1.2,0.4-1.6,0.6c-1,0.5-1.6,1-1.7,1.4v5.1h-1.3c-0.2-0.4-0.2-1.6-0.2-3.6
	c0-1.7,0-3,0.1-3.8c0.1-0.8,0.1-1.3,0.2-1.4c0.3-0.2,0.6-0.3,0.8-0.3c0.3,0,0.5,0.4,0.5,1.1c0,0.3,0,0.6,0,0.8c0,0.3,0,0.4,0,0.5
	c2-1.5,3.6-2.2,4.7-2.2c1.3,0,2,1,2.1,3c0.1,0.7,0.1,1.7,0.1,3l0,1.5c0,0.5,0,1.1,0,1.6c-0.1,0.1-0.2,0.1-0.3,0.1c0,0-0.1,0-0.2-0.1
	c-0.1,0-0.3,0-0.5-0.1c-0.1-0.5-0.2-1-0.2-1.5c0-0.5,0-1,0-1.4L815.4,545.3z M804.9,542.3c-0.3-0.2-0.6-0.3-0.9-0.4
	c-0.3-0.1-0.5-0.1-0.7-0.1c-0.2,0-0.5,0.1-1,0.2c-0.5,0.1-0.8,0.3-1.2,0.4c-0.9,0.4-1.3,0.8-1.3,1.3c1,0.1,1.7,0.1,2.2,0.1
	c1.4,0,2.3-0.1,2.8-0.4c0.3-0.1,0.4-0.3,0.4-0.5C805.3,542.7,805.2,542.5,804.9,542.3z M801.6,548.1c1.1,0,2.7-0.5,4.9-1.5
	c0.1,0,0.2,0,0.3,0.1c0.1,0.1,0.1,0.2,0.1,0.3c-0.5,0.8-1.5,1.5-2.9,2c-1.4,0.5-2.7,0.6-3.9,0.2c-1.4-0.4-2.2-1.1-2.5-2.3
	c0-0.2,0-0.6,0-1s0.1-0.9,0.3-1.6c0.2-0.7,0.6-1.3,1.1-1.9c0.5-0.6,1.1-1,1.8-1.4c0.7-0.3,1.4-0.5,2.1-0.5c0.7,0,1.5,0.2,2.4,0.7
	c0.4,0.2,0.8,0.5,1,0.8c0.2,0.3,0.4,0.6,0.4,0.9c0,0.1,0,0.2,0,0.3c0,0.8-0.4,1.2-1.1,1.4c-0.3,0.1-0.7,0.1-1.1,0.1l-2.7-0.1
	c-0.9,0-1.6,0.2-2.1,0.6c-0.3,0.2-0.5,0.5-0.6,1C799.5,547.5,800.3,548.1,801.6,548.1z M784.4,549.1c-0.5,0.2-0.9,0.3-1,0.3
	s-0.3,0-0.3-0.1c-0.1,0-0.1-0.1-0.2-0.3c0-0.4,0-0.9,0-1.5s0.1-1.3,0.1-2c0-0.7,0-1.4,0-2.1c0-0.7,0-1.4-0.1-2
	c0-0.4,0.3-0.6,0.8-0.6c0.1,0,0.2,0.2,0.3,0.7c0.1,0.5,0.1,0.8,0.1,1c0,0.2,0.1,0.4,0.1,0.5c0.3-0.6,1-1,1.9-1.4
	c0.5-0.2,1-0.2,1.4-0.2c0.4,0,0.8,0.1,1.2,0.2c0.3,0.1,0.6,0.3,0.9,0.6c0.2,0.3,0.4,0.7,0.4,1.1c0.3-0.6,1.1-1.2,2.2-1.6
	c1-0.5,2-0.7,2.8-0.7c1.2,0,1.8,0.4,1.7,1.3l0.4,7c0,0.1-0.2,0.1-0.5,0.1c-0.7,0.1-1,0-1-0.2c0-0.2,0-0.5,0-0.7l0.1-3
	c0-1.4-0.1-2.5-0.4-3.3c-0.8,0.1-1.5,0.2-1.9,0.4c-0.4,0.2-0.8,0.5-1.2,0.8c-0.3,0.3-0.6,0.7-0.9,1.2c-0.6,1.1-0.9,2.7-0.9,4.6
	c-0.1,0.3-0.3,0.4-0.7,0.4c-0.3,0-0.5,0-0.7-0.1c-0.2-0.1-0.2-0.2-0.2-0.3c0.2-1.3,0.4-2.3,0.4-3.1c0-0.6-0.1-1.1-0.2-1.7
	c-0.1-0.5-0.3-1.1-0.4-1.8c-1.8,0-3,0.7-3.6,2.1c-0.3,0.6-0.4,1.2-0.5,1.8c0,0.6,0,1,0,1.4S784.4,548.6,784.4,549.1z M779.7,542.3
	c-0.3-0.2-0.6-0.3-0.9-0.4c-0.3-0.1-0.5-0.1-0.7-0.1c-0.2,0-0.5,0.1-1,0.2c-0.4,0.1-0.8,0.3-1.2,0.4c-0.9,0.4-1.3,0.8-1.3,1.3
	c1,0.1,1.7,0.1,2.2,0.1c1.4,0,2.3-0.1,2.8-0.4c0.3-0.1,0.4-0.3,0.4-0.5C780.1,542.7,780,542.5,779.7,542.3z M776.3,548.1
	c1.1,0,2.7-0.5,4.9-1.5c0.1,0,0.2,0,0.3,0.1c0.1,0.1,0.1,0.2,0.1,0.3c-0.5,0.8-1.5,1.5-2.9,2c-1.4,0.5-2.7,0.6-3.9,0.2
	c-1.4-0.4-2.2-1.1-2.5-2.3c0-0.2,0-0.6,0-1s0.1-0.9,0.3-1.6c0.2-0.7,0.6-1.3,1.1-1.9c0.5-0.6,1.1-1,1.8-1.4c0.7-0.3,1.4-0.5,2.1-0.5
	c0.7,0,1.5,0.2,2.4,0.7c0.4,0.2,0.8,0.5,1,0.8s0.4,0.6,0.4,0.9c0,0.1,0,0.2,0,0.3c0,0.8-0.4,1.2-1.1,1.4c-0.3,0.1-0.7,0.1-1.1,0.1
	l-2.7-0.1c-0.9,0-1.6,0.2-2.1,0.6c-0.3,0.2-0.5,0.5-0.6,1C774.3,547.5,775.1,548.1,776.3,548.1z M768.2,539
	c-0.8-0.8-1.7-1.2-2.7-1.2c-0.9,0-1.8,0.4-2.7,1.1c-1.1,0.9-1.8,2.1-2.2,3.5c-0.2,0.5-0.2,0.9-0.2,1.3c0,0.3,0,0.6,0,0.8
	c0,1.2,0.4,2.2,1.3,2.8c0.8,0.6,1.8,0.9,3,0.9c1.7-0.1,3.3-0.8,4.8-1.9c0.4-0.3,0.9-0.6,1.3-0.9c0.2,0,0.4,0,0.5,0.1
	c0.2,0.1,0.3,0.2,0.3,0.4c-1.2,1.1-2.3,1.8-3.1,2.3c-1.6,0.8-3,1.3-4.3,1.3c-0.1,0-0.2,0-0.2,0c-1.4,0-2.6-0.4-3.5-1.3
	c-1-0.9-1.6-2-1.6-3.4c0-1,0.2-2,0.6-2.9c0.4-0.9,0.9-1.8,1.5-2.5c0.6-0.7,1.4-1.3,2.3-1.7c0.9-0.4,1.8-0.6,2.8-0.6
	c0.9,0,1.4,0.1,1.7,0.4C768.1,537.6,768.2,538.2,768.2,539z"/>
<path class="hCarteltxt" d="M1053.5,509.7c-0.8,0.3-1.3,0.5-1.5,0.5c-0.3,0-0.4,0-0.5-0.1c-0.1-0.1-0.2-0.2-0.3-0.4c0-0.6,0-1.4,0.1-2.3
	c0-0.9,0.1-1.9,0.1-3c0-1.1,0.1-2.1,0.1-3.2c0-1.1-0.1-2.1-0.2-2.9c0-0.6,0.4-0.9,1.2-0.9c0.2,0,0.3,0.3,0.4,1
	c0.1,0.7,0.2,1.2,0.2,1.6c0,0.4,0.1,0.6,0.1,0.8c0.5-0.9,1.4-1.6,2.9-2.1c0.8-0.2,1.5-0.4,2.1-0.4c0.7,0,1.3,0.1,1.8,0.2
	c0.5,0.2,0.9,0.4,1.3,0.9s0.5,1,0.5,1.7c0.5-0.9,1.6-1.7,3.3-2.4c1.5-0.7,2.9-1,4.1-1c1.8,0,2.6,0.7,2.6,2l0.6,10.3
	c0,0.1-0.3,0.2-0.8,0.2c-1,0.1-1.6,0-1.6-0.3c0-0.4,0-0.7,0-1.1l0.1-4.5c0-2.1-0.2-3.7-0.6-5c-1.2,0.1-2.2,0.3-2.8,0.6
	c-0.7,0.3-1.2,0.7-1.7,1.1c-0.5,0.5-0.9,1.1-1.3,1.8c-0.9,1.7-1.3,4-1.3,6.8c-0.1,0.4-0.5,0.6-1.1,0.6c-0.4,0-0.7-0.1-1-0.2
	c-0.3-0.1-0.4-0.3-0.3-0.4c0.4-2,0.5-3.5,0.5-4.6c0-0.9-0.1-1.7-0.3-2.5c-0.2-0.8-0.4-1.7-0.7-2.7c-2.7,0-4.5,1.1-5.4,3.2
	c-0.4,0.9-0.6,1.8-0.7,2.6c0,0.8-0.1,1.5-0.1,2.1C1053.4,508.4,1053.4,509.1,1053.5,509.7 M1035.2,505.1c0,2.5,1.8,3.7,5.3,3.7
	c2.6,0,4.5-0.7,5.8-2c1.3-1.3,1.9-3.2,1.9-5.6c0-0.1,0-0.1,0-0.2c0-2.1-0.5-3.8-1.6-4.9c-1.1-1.1-2.5-1.7-4.3-1.7
	c-0.2,0-0.4,0-0.5,0s-0.3,0-0.4,0c-1,0-2,0.7-2.9,2c-0.9,1.2-1.7,2.8-2.3,4.7C1035.5,502.9,1035.2,504.2,1035.2,505.1z
	 M1035.7,508.9c-0.7-0.4-1.2-1-1.6-1.6s-0.6-1.3-0.6-2.1c0-0.7,0.1-1.6,0.3-2.6s0.5-2,0.8-2.8c0.3-0.9,0.8-1.7,1.2-2.5
	c0.5-0.8,1.1-1.5,1.7-2.2c1.4-1.4,3-2,4.7-2c2.4,0,4.2,0.9,5.4,2.6c1.2,1.6,1.8,3.5,1.8,5.9c0,2.8-0.9,4.9-2.6,6.4
	c-1.7,1.5-4,2.2-6.9,2.2C1038.4,510.2,1037,509.8,1035.7,508.9z M1031.4,496.1c0,1.1-0.9,2.4-2.7,3.9c-0.4,0.4-0.8,0.7-1.1,0.9
	c2.3,0,3.6,0.6,4.1,1.6c0.1,0.2,0.1,0.5,0.1,0.7c0,0.3-0.1,0.6-0.2,1c-0.1,0.4-0.4,1-0.9,1.5c-0.4,0.6-1,1.2-1.6,1.7
	c-1.3,1.1-2.7,1.9-4.2,2.4c-0.5,0.1-0.9,0.2-1.2,0.2s-0.5,0-0.7,0c-0.2,0-0.4-0.1-0.6-0.2c-0.2-0.1-0.3-0.3-0.3-0.6
	c1.4-0.4,2.6-0.8,3.7-1.5c1.1-0.6,1.9-1.3,2.5-2c0.7-0.9,1.1-1.6,1.1-2.2c0-0.6-0.2-1-0.5-1.2c-0.4-0.2-0.8-0.3-1.4-0.3
	c-1.4,0-3.3,0.6-5.7,1.7l-1-1.3c5.6-2.6,8.4-4.5,8.4-5.6c0-0.5-0.5-0.8-1.6-0.9c-1.1,0-2.3,0.2-3.7,0.6c-1.4,0.4-2.5,0.6-3.2,0.8
	c-0.8,0.2-1.5,0.2-2.3,0.2c0-0.9,0.2-1.4,0.6-1.5c0.8-0.2,1.6-0.4,2.5-0.6c2.8-0.7,5.1-1.1,6.8-1.1
	C1030,494.6,1031,495.1,1031.4,496.1z M1005.3,509.3c0.9-0.9,1.8-1.9,2.7-3.1c0.9-1.2,1.5-1.9,1.7-2.3l-2.3-2.6
	c-0.3-0.3-0.6-0.6-0.9-0.9c-0.3-0.3-0.5-0.6-0.7-0.8c-0.2-0.2-0.4-0.4-0.5-0.6l-0.2-0.2l1.6-1.7c0.8,1,1.5,1.8,1.8,2.3
	s0.7,0.9,1,1.3c0.4,0.5,1,1.2,1.8,1.9c0.3-0.4,0.7-1,1.4-2c1.1-1.6,2-2.9,2.7-3.7c0.4,0,0.8,0.2,1,0.4c0.3,0.3,0.4,0.6,0.4,0.8
	c-0.5,1-1.2,2.1-2.1,3.3c-0.3,0.4-0.6,0.8-0.9,1.2c-0.3,0.4-0.5,0.8-0.7,1.2c1.1,0.8,2.5,2.1,4.1,4.1c0.4,0.4,0.6,0.7,0.8,1
	c0,0.1-0.1,0.3-0.3,0.6c-0.3,0.4-0.6,0.7-0.8,0.8c-0.4-0.2-0.7-0.5-1.1-0.9c-0.4-0.4-0.8-0.9-1.2-1.4c-0.4-0.5-0.9-1-1.3-1.6
	c-0.5-0.5-0.9-0.9-1.4-1.3c-0.4,0.5-1,1.2-1.8,2.1c-1.4,1.7-2.3,2.7-2.8,3c-0.4,0.1-0.9-0.1-1.5-0.5
	C1005.5,509.6,1005.4,509.5,1005.3,509.3z M1003.3,505.5c0.6,0,0.9,0.2,0.9,0.7s-0.2,0.8-0.6,1c-0.4,0.2-0.9,0.4-1.4,0.5
	c-0.5,0.1-1,0.1-1.4,0.2c-0.4,0-0.7,0-0.8,0.1c-0.1,0-0.4,0.1-0.8,0.2c-0.4,0.1-0.9,0.3-1.5,0.4s-1.2,0.3-1.9,0.5
	c-2.1,0.6-3.8,0.8-5,0.8c-0.6,0-1.1-0.1-1.3-0.3c-0.2-0.2-0.3-0.5-0.1-0.8c1.4-1.2,2.8-2.8,4.3-4.7c2.2-2.9,3.4-5.1,3.4-6.7
	c0-0.3,0-0.6-0.1-0.9c-0.2-0.6-0.7-0.9-1.6-1.1c-0.8,0-1.5,0.2-2,0.5c-0.5,0.3-1,0.7-1.5,1.1c-0.5,0.4-0.9,0.8-1.4,1.1
	c-0.5,0.3-1.1,0.5-1.7,0.5c0-0.6,0.3-1.2,0.7-1.8c1-1.2,2.3-2,4.1-2.6c0.6-0.2,1.1-0.3,1.5-0.3c0.4,0,0.6,0,0.8,0
	c0.7,0.1,1.3,0.3,1.9,0.8c0.5,0.4,0.8,1.1,0.9,2.1c0,2.6-1.2,5.5-3.7,8.7c-0.7,0.9-1.3,1.7-2,2.4c0.2,0,0.5,0,1,0
	c0.4,0,1-0.1,1.8-0.3c0.8-0.2,1.6-0.5,2.4-0.8c0.9-0.3,1.7-0.6,2.5-0.9C1001.6,505.7,1002.5,505.5,1003.3,505.5z M985.5,509.7
	c0-0.4,0-0.9,0-1.6c0-0.8,0.1-1.6,0.1-2.5c0-0.9,0.1-1.9,0.1-3c0-1,0.1-2,0.1-3c0-0.9,0.1-1.8,0.1-2.5c0-0.7,0-1.3,0.1-1.7
	c0-0.4,0-0.7,0.2-0.8c0.2-0.1,0.4-0.2,0.6-0.2c0.2,0,0.4,0,0.6,0.1c0.2,0,0.3,0.2,0.4,0.4l-0.4,14.3c0,0.3-0.3,0.6-0.8,0.7
	C986.1,510.1,985.7,510,985.5,509.7z M960.7,505.6c0,1.2,0.3,1.9,0.9,2.3c0.5,0.3,1.2,0.4,2.3,0.4c1.1,0,2.1-0.1,2.9-0.2
	c0.8-0.2,1.6-0.5,2.2-0.9c1.4-0.9,2.1-2.3,2.1-4.1c0-1.1-0.3-2-0.9-2.7c-0.6-0.8-1.5-1.1-2.6-1.1c-0.7,0.1-1.5,0.3-2.2,0.4
	c-0.7,0.1-1.4,0.4-2.1,0.9C962,501.4,961.1,503.1,960.7,505.6z M958.8,504.9c0-2.2,0.9-3.9,2.8-5.3c1.5-1.1,3.3-1.7,5.4-1.9
	c0.1,0,0.4,0,0.8,0c0.4,0,1,0.1,1.6,0.4c1.5,0.5,2.6,1.4,3.1,2.7c0.2,0.5,0.3,1,0.3,1.3c0,0.4,0,0.6,0,0.8c0,2.3-0.9,4.1-2.6,5.5
	c-1.6,1.2-3.7,1.8-6.1,1.8c-1.8,0-3.1-0.4-4-1.2C959.2,508.2,958.8,506.8,958.8,504.9z M945,505.8c0,1.5,0.5,2.2,1.6,2.2
	c0.2,0,0.4,0,0.6-0.1c0.8,0,1.7-0.2,2.8-0.7c2.1-0.8,3.4-1.6,3.9-2.2v-3.7c0-0.6-0.5-1-1.6-1c-0.1,0-0.3,0-0.5,0c-0.2,0-0.5,0-1,0.1
	c-0.4,0.1-0.9,0.3-1.5,0.5c-0.6,0.2-1.1,0.5-1.6,0.9c-1.1,0.8-1.9,1.6-2.3,2.7C945.1,505,945,505.4,945,505.8z M956.6,487.9
	c0,1.8-0.1,3.5-0.2,5.2c-0.1,1.7-0.2,3.4-0.3,5c-0.1,1.6-0.1,3.3-0.1,5.2c0,1.8,0.1,3.8,0.4,5.8c0,0.4-0.1,0.7-0.2,0.9
	c-0.2,0.2-0.4,0.3-0.8,0.3c-0.9,0-1.3-0.7-1.3-2.2v-0.9c-2.6,2-4.8,2.9-6.7,2.9c-0.7,0-1.5-0.2-2.2-0.5c-0.7-0.4-1.5-1.1-2.1-2.1
	c-0.1-0.4-0.1-0.9-0.1-1.4c0-0.5,0.1-1,0.3-1.7c0.2-0.7,0.5-1.3,1.1-2c0.5-0.7,1.2-1.3,2-1.9c1.7-1.1,3.5-1.7,5.5-1.7
	c0.9,0,1.7,0.1,2.4,0.4c0-0.3,0-0.9,0.1-1.7c0-0.8,0.1-1.7,0.2-2.6c0.1-2.4,0.2-3.8,0.2-4.3c0-0.4,0.1-0.8,0.2-1.1
	c0.1-0.3,0.2-0.6,0.3-0.8C955.5,488.1,956,487.9,956.6,487.9z M939.8,501.2c0-1.1-0.5-1.6-1.6-1.6c-0.1,0-0.3,0-0.4,0
	c-1.4,0-2.8,0.6-4.3,1.9c-0.7,0.6-1.3,1.3-1.8,2c-0.7,1.1-1.1,2-1.1,2.8c0,1.1,0.6,1.7,1.9,1.9c1.7,0,3.3-0.8,4.8-2.3
	c0.6-0.6,1.2-1.4,1.6-2.1C939.5,502.9,939.8,502,939.8,501.2z M939.9,505.6c-1.4,2.2-3.2,3.5-5.6,4.1c-0.5,0.1-1,0.2-1.5,0.2
	c-0.4,0-0.8,0-1.1,0c-0.3,0-0.6-0.1-1-0.1c-0.4-0.1-0.7-0.2-1-0.4c-0.7-0.4-1-0.9-1-1.6c-0.1-0.3-0.1-0.7-0.1-1.1
	c0-0.4,0.1-1,0.3-1.6c0.2-0.7,0.5-1.4,1-2.2c0.5-0.8,1.1-1.5,1.8-2.2c1.5-1.4,3-2.3,4.7-2.7c0.5-0.1,1-0.2,1.4-0.2s0.8,0,1.1,0.1
	c1.1,0,1.8,0.7,2.2,2.2c0.2,0.9,0.4,2.2,0.4,3.9c0,1.7,0.1,2.9,0.1,3.8c0,0.9,0.2,1.7,0.4,2.5h-1.6c-0.1-0.5-0.1-0.9-0.2-1.3
	s-0.1-0.8-0.1-1.1C940.2,506.8,940.1,506.1,939.9,505.6z M925.1,499.4c0-1-0.1-1.9-0.1-2.7c0-0.8-0.1-1.4-0.1-1.7
	c0-0.4-0.2-1.3-0.5-2.8c0.2-0.2,0.3-0.4,0.5-0.6c0.2-0.2,0.4-0.3,0.7-0.3c0.6,0,1.1,2.7,1.5,8.2c0.2,3.2,0.3,6.3,0.3,9.5
	c0,0.9-0.6,1.3-1.8,1.3l-0.2,0c0-1,0-2.2-0.1-3.7c-0.1-1.5-0.1-2.8-0.1-3.9C925.1,501.4,925.1,500.4,925.1,499.4z M919.6,500.2
	c-0.2-0.1-0.5-0.1-0.9-0.1c-0.4,0-0.9,0.2-1.5,0.5c-0.6,0.3-1.2,0.8-1.8,1.3c-0.6,0.5-1.1,1.1-1.6,1.8c-1.2,1.6-1.8,2.9-1.8,3.8
	c0,0.3,0.1,0.5,0.3,0.7c0.1,0.1,0.3,0.1,0.5,0.1c0.2,0,0.5,0,0.8-0.1c0.4-0.1,0.9-0.2,1.5-0.5c0.6-0.3,1.3-0.6,2-1
	c0.7-0.4,1.3-0.9,1.9-1.4c1.3-1.2,1.9-2.3,1.9-3.5C920.8,501,920.4,500.5,919.6,500.2z M917.9,522l-0.4,0c-0.6,0-1.2,0-1.8,0.1h-1.1
	c-1.1,0-2-0.2-2.6-0.6c-0.3-0.2-0.5-0.6-0.5-1l6.4-0.3c2-0.1,2.9-1.1,2.9-3.2c0-0.1,0-0.2,0-0.4c0-0.2,0-0.6,0-1.2l0.1-8.9
	c0-0.3,0-0.6,0-0.8c-3,2.8-5.9,4.2-8.7,4.2c-0.2,0-0.5,0-0.7,0c-1.2,0-1.9-0.5-1.9-1.6c0-0.8,0.3-1.8,0.7-2.8c0.5-1,1.1-2,1.8-3
	c0.7-1,1.6-1.8,2.5-2.6c1.4-1.2,2.8-1.7,4.1-1.7c1.6,0,2.8,0.8,3.8,2.5c0.3,4.4,0.4,7.5,0.4,9.4c0,1.8,0,3.4-0.1,4.5
	s-0.2,2.3-0.4,3.3c-0.2,1-0.5,1.8-0.8,2.3c-0.3,0.6-0.7,1-1.1,1.3C920.2,521.8,919.2,522,917.9,522z M906.5,504.1
	c0-2.2-0.1-3.8-0.4-4.9c0.1-0.3-0.1-0.4-0.7-0.4c-0.6,0-1.4,0.2-2.4,0.5s-1.8,0.6-2.4,0.9c-1.5,0.7-2.3,1.4-2.5,2.1v7.5h-1.9
	c-0.2-0.6-0.4-2.4-0.4-5.3c0-2.6,0.1-4.5,0.2-5.7c0.1-1.2,0.2-1.9,0.2-2.1c0.5-0.3,0.9-0.5,1.2-0.5c0.5,0,0.7,0.5,0.7,1.6
	c0,0.4,0,0.8-0.1,1.2c0,0.4-0.1,0.7-0.1,0.8c3-2.2,5.3-3.3,7-3.3c1.9,0,2.9,1.5,3.2,4.5c0.1,1.1,0.2,2.5,0.2,4.4l0,2.2
	c0,0.8,0,1.6,0.1,2.4c-0.2,0.1-0.3,0.2-0.4,0.2c-0.1,0-0.2,0-0.4-0.1c-0.2,0-0.4-0.1-0.7-0.1c-0.2-0.7-0.3-1.5-0.3-2.3
	c0-0.8,0-1.5,0-2.1L906.5,504.1z M891.3,493.3c0-0.6,0.4-1,1.1-1c0.5,0,0.9,0.1,1.2,0.3c0.1,0.2,0.1,0.4,0.1,0.6s-0.1,0.4-0.2,0.6
	c-0.1,0.2-0.4,0.3-0.7,0.3c-0.3,0-0.6-0.1-0.9-0.2C891.7,493.8,891.4,493.6,891.3,493.3z M893.9,497.1c0.2,3.5,0.4,7.5,0.6,12
	c-0.1,0.6-0.6,0.9-1.3,0.9c-0.2,0-0.4,0-0.6-0.1c-0.2-0.1-0.3-0.2-0.4-0.3v-12.4H893.9z M886.5,496.5l-2.5-0.1
	c-0.6,0-1.4,0.1-2.3,0.2c0,0.7-0.1,1.7-0.2,2.8c-0.4,4.1-0.6,6.7-0.6,7.9c0,1.2,0,2.1,0.1,2.6l-2.6,0.2l0.9-13.7l-5.9-0.3
	c-0.2,0-0.3-0.1-0.4-0.4c-0.1-0.2-0.1-0.5-0.1-0.7s0.1-0.4,0.3-0.7c0.2-0.2,0.4-0.4,0.6-0.4c1.4,0.1,2.7,0.1,4.1,0.3
	c2.5,0.2,4.7,0.3,6.5,0.3l1.7-0.1c1.4,0,2.7-0.2,4-0.4c0.3,0.1,0.5,0.5,0.6,1.4c0,0.2,0,0.3,0,0.4
	C889.4,496.4,888,496.5,886.5,496.5z"/>
<path class="hCarteltxt" d="M985.3,565.2c0-0.7-0.1-1.3-0.1-1.8s0-0.9,0-1.2c0-0.3-0.1-0.9-0.3-1.9c0.1-0.2,0.2-0.3,0.3-0.4
	c0.1-0.1,0.3-0.2,0.5-0.2c0.4,0,0.8,1.8,1,5.5c0.1,2.1,0.2,4.3,0.2,6.4c0,0.6-0.4,0.9-1.2,0.9l-0.1,0c0-0.6,0-1.5-0.1-2.5
	c0-1-0.1-1.9-0.1-2.6C985.3,566.6,985.3,565.9,985.3,565.2 M982.3,565.2c0-0.7-0.1-1.3-0.1-1.8c0-0.5,0-0.9,0-1.2
	c0-0.3-0.1-0.9-0.3-1.9c0.1-0.2,0.2-0.3,0.3-0.4c0.1-0.1,0.3-0.2,0.5-0.2c0.4,0,0.8,1.8,1,5.5c0.1,2.1,0.2,4.3,0.2,6.4
	c0,0.6-0.4,0.9-1.2,0.9l-0.1,0c0-0.6,0-1.5-0.1-2.5c0-1-0.1-1.9-0.1-2.6C982.3,566.6,982.3,565.9,982.3,565.2z M979,561.2
	c0-0.4,0.3-0.7,0.8-0.7c0.3,0,0.6,0.1,0.8,0.2c0,0.1,0.1,0.3,0.1,0.4c0,0.1,0,0.3-0.2,0.4c-0.1,0.1-0.2,0.2-0.4,0.2
	c-0.2,0-0.4,0-0.6-0.1C979.2,561.5,979.1,561.3,979,561.2z M980.7,563.7c0.2,2.3,0.3,5,0.4,8.1c-0.1,0.4-0.4,0.6-0.9,0.6
	c-0.1,0-0.3,0-0.4-0.1c-0.1-0.1-0.2-0.1-0.3-0.2v-8.4H980.7z M977.6,565.7c-0.5-0.4-1.2-0.6-2-0.6c-0.8,0-1.5,0.1-2.1,0.4
	c-1.2,0.5-2.1,1.2-2.6,2c-0.2,0.4-0.3,0.8-0.3,1.2c0,0.1,0,0.3,0,0.6c0,0.3,0.1,0.8,0.2,1.4c0.1,0.6,0.2,1.2,0.2,1.8
	c-0.3,0-0.5,0-0.6,0.1c-0.2,0.1-0.3,0.1-0.4,0.1c-0.1,0-0.2,0-0.3-0.1c-0.1-0.1-0.2-0.3-0.3-0.6c0-0.1,0-0.3-0.1-0.6
	c0-0.4-0.1-0.8-0.1-1.3c-0.1-0.5-0.1-1-0.2-1.6c-0.1-0.6-0.1-1.2-0.2-1.7c-0.1-1.2-0.2-2.2-0.3-2.7c0-0.3,0.2-0.4,0.7-0.4
	c0.3,0,0.5,0.1,0.6,0.3c0.2,0.2,0.3,0.5,0.4,0.8c0.1,0.3,0.1,0.6,0.2,0.8c0,0.3,0.1,0.5,0.1,0.6c1.6-1.5,3.7-2.2,6.1-2.2
	c0.3,0,0.6,0,0.9,0c0.1,0,0.2,0,0.3,0c0.1,0,0.2,0.1,0.3,0.2c0.1,0.2,0.2,0.4,0.2,0.6C978.2,565.2,978,565.6,977.6,565.7z
	 M966,566.5c0-0.7-0.4-1.1-1.1-1.1c-0.1,0-0.2,0-0.3,0c-0.9,0-1.9,0.4-2.9,1.3c-0.5,0.4-0.9,0.8-1.2,1.3c-0.5,0.7-0.7,1.3-0.7,1.9
	c0,0.7,0.4,1.2,1.3,1.3c1.1,0,2.2-0.5,3.2-1.5c0.4-0.4,0.8-0.9,1.1-1.4C965.8,567.6,966,567,966,566.5z M966.1,569.4
	c-0.9,1.5-2.2,2.4-3.7,2.7c-0.4,0.1-0.7,0.1-1,0.1c-0.3,0-0.5,0-0.7,0c-0.2,0-0.4,0-0.6-0.1c-0.2-0.1-0.5-0.1-0.7-0.2
	c-0.5-0.3-0.7-0.6-0.7-1.1c-0.1-0.2-0.1-0.5-0.1-0.8c0-0.3,0.1-0.7,0.2-1.1c0.1-0.5,0.4-1,0.7-1.5c0.3-0.5,0.7-1,1.2-1.5
	c1-0.9,2-1.6,3.2-1.8c0.3-0.1,0.6-0.1,0.9-0.1c0.3,0,0.5,0,0.8,0.1c0.7,0,1.2,0.5,1.5,1.5c0.2,0.6,0.3,1.5,0.3,2.6
	c0,1.1,0.1,2,0.1,2.6c0,0.6,0.1,1.2,0.2,1.7h-1.1c-0.1-0.3-0.1-0.6-0.1-0.9c0-0.3-0.1-0.5-0.1-0.7
	C966.2,570.2,966.2,569.8,966.1,569.4z M949,565.3c0-0.1,0-0.1,0-0.2s0-0.2,0.1-0.3c0.1-0.1,0.2-0.3,0.3-0.4
	c0.1-0.1,0.2-0.1,0.4-0.1c0.1,0,0.3,0.1,0.3,0.3l3.1,5.8c0.1-0.2,0.3-0.4,0.5-0.8c0.2-0.4,0.5-0.9,0.7-1.4c0.3-0.5,0.6-1,0.9-1.6
	c0.3-0.6,0.6-1.1,0.8-1.5c0.6-1.1,1-1.6,1.1-1.6c0.3,0,0.5,0.1,0.6,0.3c0.1,0.2,0.2,0.3,0.2,0.4c0,0.1,0,0.2,0,0.2
	c-0.7,1.5-1.3,2.9-1.9,4.2c-0.6,1.3-1,2.1-1.2,2.5c-0.2,0.4-0.4,0.7-0.5,0.9c-0.3,0.4-0.5,0.6-0.8,0.6c-0.3,0-0.5-0.2-0.9-0.6
	c-0.3-0.4-0.7-0.9-1.1-1.6C950.9,569.2,950,567.5,949,565.3z M934.7,563.5c-0.3,0.4-0.6,0.7-1,1.1c-0.4,0.4-0.8,0.7-1.2,1.1
	c-0.4,0.4-0.7,0.7-1,1.1c-0.3,0.4-0.5,0.7-0.6,1.1c0.1,0,0.3,0,0.6,0c0.3,0,0.7,0,1.3-0.1c0.6-0.1,1.2-0.1,1.8-0.2V563.5z
	 M935,572.8c-0.3,0-0.4-0.1-0.4-0.2l0.1-3.7h-1.4l-2.2,0h-1.3c-0.2,0-0.3,0-0.5-0.1c-0.2-0.1-0.2-0.2-0.2-0.4
	c0.7-0.8,1.3-1.7,1.9-2.6c2-2.7,3.3-4.1,4.1-4.1c0.8,0,1.2,1.4,1.2,4.3c0,0.4,0,0.8,0,1.2l4.1-0.1c0,0.3,0,0.6-0.1,0.7
	c-0.1,0.2-0.2,0.2-0.2,0.2l-3.5,0.3c-0.2,0.5-0.3,1-0.3,1.6c-0.1,1-0.1,1.8-0.1,2.5L935,572.8z M918.2,568.4c0-1.5-0.1-2.6-0.2-3.3
	c0.1-0.2,0-0.3-0.4-0.3c-0.4,0-1,0.1-1.6,0.3c-0.7,0.2-1.2,0.4-1.6,0.6c-1,0.5-1.6,1-1.7,1.4v5.1h-1.3c-0.2-0.4-0.2-1.6-0.2-3.6
	c0-1.7,0-3,0.1-3.8c0.1-0.8,0.1-1.3,0.2-1.4c0.3-0.2,0.6-0.3,0.8-0.3c0.3,0,0.5,0.4,0.5,1.1c0,0.3,0,0.6,0,0.8s0,0.4,0,0.5
	c2-1.5,3.6-2.2,4.7-2.2c1.3,0,2,1,2.1,3c0.1,0.7,0.1,1.7,0.1,3l0,1.5c0,0.5,0,1.1,0,1.6c-0.1,0.1-0.2,0.1-0.3,0.1c0,0-0.1,0-0.2-0.1
	c-0.1,0-0.3,0-0.5-0.1c-0.1-0.5-0.2-1-0.2-1.5c0-0.5,0-1,0-1.4L918.2,568.4z M901.9,569.4c0,0.8,0.2,1.3,0.6,1.6
	c0.3,0.2,0.8,0.3,1.6,0.3c0.7,0,1.4-0.1,1.9-0.2c0.6-0.1,1.1-0.3,1.5-0.6c0.9-0.6,1.4-1.5,1.4-2.8c0-0.7-0.2-1.4-0.6-1.8
	c-0.4-0.5-1-0.8-1.7-0.8c-0.5,0.1-1,0.2-1.5,0.3c-0.5,0.1-1,0.3-1.4,0.6C902.8,566.6,902.2,567.7,901.9,569.4z M900.6,568.9
	c0-1.5,0.6-2.7,1.9-3.6c1-0.7,2.2-1.1,3.6-1.3c0.1,0,0.2,0,0.5,0s0.6,0.1,1.1,0.2c1,0.4,1.7,1,2.1,1.8c0.1,0.4,0.2,0.6,0.2,0.9
	c0,0.2,0,0.4,0,0.5c0,1.6-0.6,2.8-1.8,3.7c-1.1,0.8-2.5,1.2-4.1,1.2c-1.2,0-2.1-0.3-2.7-0.8C900.9,571.1,900.6,570.2,900.6,568.9z
	 M895.6,570.5c0.5-0.2,1-0.4,1.5-0.6c0.5-0.2,1-0.3,1.4-0.3c0.4,0,0.7,0.1,0.7,0.4c0,0.1,0,0.2,0,0.3s-0.2,0.3-0.5,0.5
	c-0.3,0.2-0.7,0.4-1.1,0.5c-0.4,0.2-0.9,0.3-1.4,0.4c-0.5,0.1-1,0.3-1.5,0.4c-1,0.2-1.8,0.3-2.2,0.3c-0.4,0-0.9-0.1-1.4-0.1
	s-1-0.3-1.4-0.5c-1-0.5-1.5-1.3-1.5-2.3c0-0.1,0-0.2,0-0.4c0-0.2,0.1-0.5,0.3-1c0.2-0.4,0.5-0.8,0.8-1.3c0.4-0.4,0.8-0.8,1.3-1.1
	c1-0.7,2.1-1.2,3.3-1.5c0.4-0.1,0.7-0.1,1-0.1c0.3,0,0.5,0,0.7,0c0.2,0,0.4,0,0.5,0c0.2,0,0.4,0.1,0.5,0.1c0.3,0.2,0.5,0.5,0.5,1
	c0,0.3-0.2,0.6-0.6,0.9c-0.1,0.1-0.2,0.1-0.3,0.2c-0.1-0.3-0.1-0.5-0.2-0.7c-0.1-0.2-0.3-0.3-0.7-0.3c-1.5,0.3-2.7,0.8-3.8,1.4
	c-1.2,0.7-1.8,1.5-1.8,2.2c0,0.1,0,0.2,0,0.3c0,0.8,0.3,1.4,0.9,1.7c0.5,0.2,1.1,0.4,1.8,0.4c0.7,0,1.4-0.1,1.9-0.3
	C894.6,570.9,895.1,570.7,895.6,570.5z M877.1,567.7c1.4,0,2.1,0.4,2.1,1c0,0.5-0.4,1.1-1.1,1.8c-1.1,1-2.7,1.9-4.6,2.5
	c-0.1,0-0.2-0.1-0.3-0.3s-0.2-0.3-0.2-0.4c-0.1-0.1-0.1-0.2-0.1-0.2c1.4-0.5,2.6-1,3.5-1.7c0.6-0.4,0.9-0.8,0.9-1.1
	c0-0.3-0.4-0.4-1.1-0.4c-0.7,0-1.8,0.2-3.2,0.5c-0.6,0-1.2-0.3-1.7-0.7c-0.4-0.4-0.6-0.8-0.6-1.2c0-0.4,0.1-0.8,0.3-1.1
	c0.2-0.3,0.5-0.6,0.9-0.9c0.4-0.3,0.8-0.5,1.3-0.8c1.2-0.6,2.5-0.9,3.8-0.9c0.4,0,0.8,0,1.1,0.1c0.3,0,0.5,0.1,0.5,0.4
	c0.1,0.3,0.1,0.7,0.1,1.3c-0.7-0.3-1.6-0.5-2.5-0.5c-1.1,0-2.1,0.2-2.8,0.7c-0.8,0.5-1.2,1-1.2,1.8c0,0.4,0.3,0.5,0.8,0.5l1.4-0.1
	C875.5,567.8,876.4,567.7,877.1,567.7z M861.8,569.4c0,0.8,0.2,1.3,0.6,1.6c0.3,0.2,0.8,0.3,1.6,0.3c0.7,0,1.4-0.1,1.9-0.2
	c0.6-0.1,1.1-0.3,1.5-0.6c0.9-0.6,1.4-1.5,1.4-2.8c0-0.7-0.2-1.4-0.6-1.8c-0.4-0.5-1-0.8-1.7-0.8c-0.5,0.1-1,0.2-1.5,0.3
	c-0.5,0.1-1,0.3-1.4,0.6C862.7,566.6,862,567.7,861.8,569.4z M860.5,568.9c0-1.5,0.6-2.7,1.9-3.6c1-0.7,2.2-1.1,3.6-1.3
	c0.1,0,0.2,0,0.5,0c0.3,0,0.6,0.1,1.1,0.2c1,0.4,1.7,1,2.1,1.8c0.1,0.4,0.2,0.6,0.2,0.9c0,0.2,0,0.4,0,0.5c0,1.6-0.6,2.8-1.8,3.7
	c-1.1,0.8-2.5,1.2-4.1,1.2c-1.2,0-2.1-0.3-2.7-0.8C860.8,571.1,860.5,570.2,860.5,568.9z M851.2,569.5c0,1,0.4,1.5,1.1,1.5
	c0.1,0,0.2,0,0.4,0c0.5,0,1.1-0.2,1.9-0.4c1.4-0.6,2.3-1,2.6-1.5v-2.5c0-0.4-0.4-0.7-1.1-0.7c-0.1,0-0.2,0-0.3,0
	c-0.1,0-0.4,0-0.7,0.1c-0.3,0.1-0.6,0.2-1,0.3c-0.4,0.2-0.7,0.4-1.1,0.6c-0.8,0.5-1.3,1.1-1.6,1.8
	C851.3,569,851.2,569.3,851.2,569.5z M859,557.5c0,1.2,0,2.4-0.1,3.5c-0.1,1.1-0.1,2.3-0.2,3.3c-0.1,1.1-0.1,2.2-0.1,3.5
	c0,1.2,0.1,2.5,0.3,3.9c0,0.3-0.1,0.5-0.2,0.6c-0.1,0.1-0.3,0.2-0.5,0.2c-0.6,0-0.9-0.5-0.9-1.5v-0.6c-1.8,1.3-3.3,2-4.5,2
	c-0.5,0-1-0.1-1.5-0.4c-0.5-0.2-1-0.7-1.4-1.4c-0.1-0.3-0.1-0.6-0.1-0.9c0-0.3,0.1-0.7,0.2-1.1c0.1-0.4,0.4-0.9,0.7-1.4
	c0.4-0.5,0.8-0.9,1.3-1.3c1.1-0.8,2.4-1.2,3.7-1.2c0.6,0,1.1,0.1,1.6,0.3c0-0.2,0-0.6,0-1.2c0-0.6,0.1-1.2,0.1-1.8
	c0.1-1.6,0.1-2.6,0.2-2.9c0-0.3,0.1-0.5,0.1-0.8c0-0.2,0.1-0.4,0.2-0.5C858.2,557.6,858.6,557.5,859,557.5z M847.7,566.5
	c0-0.7-0.4-1.1-1.1-1.1c-0.1,0-0.2,0-0.3,0c-0.9,0-1.9,0.4-2.9,1.3c-0.5,0.4-0.9,0.8-1.2,1.3c-0.5,0.7-0.7,1.3-0.7,1.9
	c0,0.7,0.4,1.2,1.3,1.3c1.1,0,2.2-0.5,3.2-1.5c0.4-0.4,0.8-0.9,1.1-1.4C847.5,567.6,847.7,567,847.7,566.5z M847.8,569.4
	c-0.9,1.5-2.2,2.4-3.7,2.7c-0.4,0.1-0.7,0.1-1,0.1c-0.3,0-0.5,0-0.7,0c-0.2,0-0.4,0-0.6-0.1c-0.2-0.1-0.5-0.1-0.7-0.2
	c-0.5-0.3-0.7-0.6-0.7-1.1c-0.1-0.2-0.1-0.5-0.1-0.8c0-0.3,0.1-0.7,0.2-1.1c0.1-0.5,0.4-1,0.7-1.5c0.3-0.5,0.7-1,1.2-1.5
	c1-0.9,2-1.6,3.2-1.8c0.3-0.1,0.6-0.1,0.9-0.1s0.5,0,0.8,0.1c0.7,0,1.2,0.5,1.5,1.5c0.2,0.6,0.3,1.5,0.3,2.6c0,1.1,0.1,2,0.1,2.6
	c0,0.6,0.1,1.2,0.2,1.7h-1.1c-0.1-0.3-0.1-0.6-0.1-0.9c0-0.3-0.1-0.5-0.1-0.7C848,570.2,847.9,569.8,847.8,569.4z M827.1,572.2
	c-0.5,0.2-0.9,0.3-1,0.3s-0.3,0-0.3-0.1c-0.1,0-0.1-0.1-0.2-0.3c0-0.4,0-0.9,0-1.5c0-0.6,0.1-1.3,0.1-2c0-0.7,0-1.4,0-2.1
	c0-0.7,0-1.4-0.1-2c0-0.4,0.3-0.6,0.8-0.6c0.1,0,0.2,0.2,0.3,0.7c0.1,0.4,0.1,0.8,0.1,1c0,0.2,0.1,0.4,0.1,0.5c0.3-0.6,1-1,1.9-1.4
	c0.5-0.2,1-0.2,1.4-0.2c0.4,0,0.8,0.1,1.2,0.2c0.3,0.1,0.6,0.3,0.9,0.6c0.2,0.3,0.4,0.7,0.4,1.1c0.3-0.6,1.1-1.2,2.2-1.6
	c1-0.5,2-0.7,2.8-0.7c1.2,0,1.8,0.4,1.7,1.3l0.4,7c0,0.1-0.2,0.1-0.5,0.1c-0.7,0.1-1,0-1-0.2c0-0.2,0-0.5,0-0.7l0.1-3
	c0-1.4-0.1-2.5-0.4-3.3c-0.8,0.1-1.5,0.2-1.9,0.4c-0.4,0.2-0.8,0.5-1.2,0.8c-0.3,0.3-0.6,0.7-0.9,1.2c-0.6,1.1-0.9,2.7-0.9,4.6
	c-0.1,0.3-0.3,0.4-0.7,0.4c-0.3,0-0.5,0-0.7-0.1c-0.2-0.1-0.2-0.2-0.2-0.3c0.2-1.3,0.4-2.4,0.4-3.1c0-0.6-0.1-1.1-0.2-1.7
	c-0.1-0.5-0.3-1.1-0.4-1.8c-1.8,0-3,0.7-3.6,2.1c-0.3,0.6-0.4,1.2-0.5,1.8c0,0.6,0,1,0,1.4C827,571.3,827.1,571.7,827.1,572.2z
	 M824.2,565.7c-0.5-0.4-1.2-0.6-2-0.6c-0.8,0-1.5,0.1-2.1,0.4c-1.2,0.5-2.1,1.2-2.6,2c-0.2,0.4-0.3,0.8-0.3,1.2c0,0.1,0,0.3,0,0.6
	c0,0.3,0.1,0.8,0.2,1.4c0.1,0.6,0.2,1.2,0.2,1.8c-0.3,0-0.5,0-0.6,0.1c-0.2,0.1-0.3,0.1-0.4,0.1c-0.1,0-0.2,0-0.3-0.1
	c-0.1-0.1-0.2-0.3-0.3-0.6c0-0.1,0-0.3-0.1-0.6c0-0.4-0.1-0.8-0.1-1.3c-0.1-0.5-0.1-1-0.2-1.6c-0.1-0.6-0.1-1.2-0.2-1.7
	c-0.1-1.2-0.2-2.2-0.3-2.7c0-0.3,0.2-0.4,0.7-0.4c0.3,0,0.5,0.1,0.6,0.3c0.1,0.2,0.3,0.5,0.4,0.8c0.1,0.3,0.1,0.6,0.2,0.8
	c0,0.3,0.1,0.5,0.1,0.6c1.6-1.5,3.7-2.2,6.1-2.2c0.3,0,0.6,0,0.9,0c0.1,0,0.2,0,0.3,0c0.1,0,0.2,0.1,0.3,0.2
	c0.1,0.2,0.2,0.4,0.2,0.6C824.7,565.2,824.5,565.6,824.2,565.7z M806,569.4c0,0.8,0.2,1.3,0.6,1.6c0.3,0.2,0.8,0.3,1.6,0.3
	c0.7,0,1.4-0.1,1.9-0.2c0.6-0.1,1.1-0.3,1.5-0.6c0.9-0.6,1.4-1.5,1.4-2.8c0-0.7-0.2-1.4-0.6-1.8c-0.4-0.5-1-0.8-1.7-0.8
	c-0.5,0.1-1,0.2-1.5,0.3c-0.5,0.1-1,0.3-1.4,0.6C806.9,566.6,806.3,567.7,806,569.4z M804.7,568.9c0-1.5,0.6-2.7,1.9-3.6
	c1-0.7,2.2-1.1,3.6-1.3c0.1,0,0.2,0,0.5,0c0.3,0,0.6,0.1,1.1,0.2c1,0.4,1.7,1,2.1,1.8c0.1,0.4,0.2,0.6,0.2,0.9c0,0.2,0,0.4,0,0.5
	c0,1.6-0.6,2.8-1.8,3.7c-1.1,0.8-2.5,1.2-4.1,1.2c-1.2,0-2.1-0.3-2.7-0.8C805,571.1,804.7,570.2,804.7,568.9z M803.6,566.2
	c0.1,0,0.1,0.2,0.1,0.5c0,0.3,0,0.6,0,0.7l-6.4,0.8l0.3,4.1l-1.5-0.1c0-1.1-0.1-2.4-0.4-3.8l-2.4,0.9c-0.2,0-0.3-0.1-0.4-0.3
	c-0.2-0.3-0.3-0.6-0.3-0.9l2.8-1c-0.2-2.1-0.4-3.9-0.4-5.2s0.1-2.4,0.3-3.1c0.2-0.7,0.6-1.2,1-1.5c0.4-0.3,0.9-0.4,1.4-0.4
	c0.5,0,1,0.1,1.5,0.3c0.5,0.2,1,0.5,1.4,0.8c0.5,0.3,0.9,0.7,1.2,1.1c0.3,0.4,0.5,0.8,0.5,1.2c0,0.3,0,0.5-0.1,0.6
	c-0.5-0.7-1.1-1.3-1.8-1.9c-0.8-0.6-1.6-1-2.4-1c-0.7,0-1.2,0.5-1.4,1.5c-0.1,0.5-0.2,1.3-0.2,2.2c0,1,0,1.8,0.1,2.6
	c0.1,0.8,0.2,1.6,0.4,2.4c0.8,0,1.6-0.1,2.6-0.2C801.5,566.4,802.8,566.3,803.6,566.2z M790.6,568.4c0-1.5-0.1-2.6-0.2-3.3
	c0.1-0.2,0-0.3-0.4-0.3c-0.4,0-1,0.1-1.6,0.3c-0.7,0.2-1.2,0.4-1.6,0.6c-1,0.5-1.6,1-1.7,1.4v5.1h-1.3c-0.2-0.4-0.2-1.6-0.2-3.6
	c0-1.7,0-3,0.1-3.8c0.1-0.8,0.1-1.3,0.2-1.4c0.3-0.2,0.6-0.3,0.8-0.3c0.3,0,0.5,0.4,0.5,1.1c0,0.3,0,0.6,0,0.8c0,0.3,0,0.4,0,0.5
	c2-1.5,3.6-2.2,4.7-2.2c1.3,0,2,1,2.1,3c0.1,0.7,0.1,1.7,0.1,3l0,1.5c0,0.5,0,1.1,0,1.6c-0.1,0.1-0.2,0.1-0.3,0.1c0,0-0.1,0-0.2-0.1
	c-0.1,0-0.3,0-0.5-0.1c-0.1-0.5-0.2-1-0.2-1.5c0-0.5,0-1,0-1.4L790.6,568.4z M774.3,569.4c0,0.8,0.2,1.3,0.6,1.6
	c0.3,0.2,0.8,0.3,1.6,0.3c0.7,0,1.4-0.1,1.9-0.2c0.6-0.1,1.1-0.3,1.5-0.6c0.9-0.6,1.4-1.5,1.4-2.8c0-0.7-0.2-1.4-0.6-1.8
	c-0.4-0.5-1-0.8-1.7-0.8c-0.5,0.1-1,0.2-1.5,0.3c-0.5,0.1-1,0.3-1.4,0.6C775.2,566.6,774.6,567.7,774.3,569.4z M773,568.9
	c0-1.5,0.6-2.7,1.9-3.6c1-0.7,2.2-1.1,3.6-1.3c0.1,0,0.2,0,0.5,0s0.6,0.1,1.1,0.2c1,0.4,1.7,1,2.1,1.8c0.2,0.4,0.2,0.6,0.2,0.9
	c0,0.2,0,0.4,0,0.5c0,1.6-0.6,2.8-1.8,3.7c-1.1,0.8-2.5,1.2-4.1,1.2c-1.2,0-2.1-0.3-2.7-0.8C773.3,571.1,773,570.2,773,568.9z
	 M768.2,562.1c-0.8-0.8-1.7-1.2-2.7-1.2c-0.9,0-1.8,0.4-2.7,1.1c-1.1,0.9-1.8,2.1-2.2,3.5c-0.2,0.5-0.2,0.9-0.2,1.3
	c0,0.3,0,0.6,0,0.8c0,1.2,0.4,2.2,1.3,2.8c0.8,0.6,1.8,0.9,3,0.9c1.7-0.1,3.3-0.8,4.8-1.9c0.4-0.3,0.9-0.6,1.3-0.9
	c0.2,0,0.4,0,0.5,0.1c0.2,0.1,0.3,0.2,0.3,0.4c-1.2,1.1-2.3,1.8-3.1,2.3c-1.6,0.8-3,1.3-4.3,1.3c-0.1,0-0.2,0-0.2,0
	c-1.4,0-2.6-0.4-3.5-1.3c-1-0.9-1.6-2-1.6-3.4c0-1,0.2-2,0.6-2.9c0.4-0.9,0.9-1.8,1.5-2.5c0.6-0.7,1.4-1.3,2.3-1.7
	c0.9-0.4,1.8-0.6,2.8-0.6c0.9,0,1.4,0.1,1.7,0.4C768.1,560.7,768.2,561.3,768.2,562.1z"/>
<path class="hCarteltxt" d="M1075.2,569.4c0.4,0,0.6,0.2,0.6,0.5s-0.1,0.5-0.4,0.7s-0.6,0.2-0.9,0.3c-0.3,0.1-0.7,0.1-1,0.1
	c-0.3,0-0.5,0-0.6,0c-0.1,0-0.3,0.1-0.5,0.2c-0.3,0.1-0.6,0.2-1,0.3c-0.4,0.1-0.8,0.2-1.3,0.3c-1.4,0.4-2.5,0.6-3.4,0.6
	c-0.4,0-0.7-0.1-0.9-0.2c-0.1-0.1-0.2-0.3-0.1-0.6c0.9-0.8,1.9-1.9,2.9-3.2c1.5-1.9,2.3-3.4,2.3-4.5c0-0.2,0-0.4-0.1-0.6
	c-0.1-0.4-0.5-0.6-1.1-0.7c-0.5,0-1,0.1-1.3,0.3c-0.4,0.2-0.7,0.5-1,0.7c-0.3,0.3-0.6,0.5-0.9,0.7c-0.3,0.2-0.7,0.3-1.2,0.3
	c0-0.4,0.2-0.8,0.5-1.2c0.6-0.8,1.6-1.4,2.7-1.7c0.4-0.1,0.8-0.2,1-0.2s0.4,0,0.6,0c0.5,0.1,0.9,0.2,1.3,0.5s0.6,0.8,0.6,1.4
	c0,1.8-0.8,3.7-2.5,5.8c-0.4,0.6-0.9,1.1-1.3,1.6c0.1,0,0.4,0,0.6,0c0.3,0,0.7-0.1,1.2-0.2c0.5-0.1,1.1-0.3,1.6-0.5
	c0.6-0.2,1.1-0.4,1.7-0.6C1074.1,569.5,1074.7,569.4,1075.2,569.4 M1063.3,572.2c0-0.2,0-0.6,0-1.1c0-0.5,0-1.1,0.1-1.7
	c0-0.6,0-1.3,0.1-2c0-0.7,0-1.4,0.1-2c0-0.6,0-1.2,0-1.7c0-0.5,0-0.9,0-1.1c0-0.3,0-0.4,0.1-0.5c0.1-0.1,0.3-0.1,0.4-0.1
	c0.2,0,0.3,0,0.4,0c0.1,0,0.2,0.1,0.3,0.3l-0.3,9.6c0,0.2-0.2,0.4-0.5,0.5C1063.7,572.4,1063.4,572.4,1063.3,572.2z M1044.7,573.1
	c-0.2,0-0.3-0.2-0.3-0.6v-0.2c0.2-0.5,2.6-4.4,7.4-11.5c0.2-0.4,0.4-0.6,0.4-0.6c0.1,0,0.1,0.1,0.1,0.3c0,0.1-0.1,0.4-0.2,0.9
	c-0.1,0.4-0.4,1.1-0.8,1.9c-0.4,0.8-0.9,1.7-1.4,2.7c-0.6,1-1.1,1.9-1.7,2.9C1046.7,570.9,1045.5,572.4,1044.7,573.1z M1044.2,566.6
	c0,2.9,1.5,4.4,4.4,4.4c1.5,0,2.6-0.4,3.5-1.3c0.9-0.9,1.4-2,1.4-3.4c0-1.3-0.5-2.3-1.6-3c-0.9-0.6-2.1-0.9-3.5-0.9
	c-1.1,0-2.1,0.4-3,1.2C1044.6,564.5,1044.2,565.4,1044.2,566.6z M1043.1,569.3c-0.3-0.7-0.4-1.5-0.4-2.4c0-0.9,0.1-1.7,0.4-2.4
	c0.3-0.7,0.7-1.3,1.2-1.8c1.1-1.1,2.4-1.6,4.1-1.6c1.7,0,3.1,0.4,4.2,1.2c1.2,0.9,1.9,2.2,1.9,3.9c0,2.1-0.5,3.6-1.4,4.6
	c-1,1-2.4,1.5-4.5,1.5C1045.8,572.2,1044,571.3,1043.1,569.3z M1031.9,565.4c-0.3-0.2-0.6-0.3-0.9-0.4c-0.3-0.1-0.5-0.1-0.7-0.1
	c-0.2,0-0.5,0.1-1,0.2c-0.4,0.1-0.8,0.3-1.2,0.4c-0.9,0.4-1.3,0.8-1.3,1.3c1,0.1,1.7,0.1,2.2,0.1c1.4,0,2.3-0.1,2.8-0.4
	c0.3-0.1,0.4-0.3,0.4-0.5C1032.3,565.8,1032.2,565.6,1031.9,565.4z M1028.6,571.2c1.1,0,2.7-0.5,5-1.5c0.1,0,0.2,0,0.3,0.1
	c0.1,0.1,0.1,0.2,0.1,0.3c-0.5,0.8-1.5,1.5-2.9,2c-1.4,0.5-2.7,0.6-3.9,0.2c-1.4-0.4-2.2-1.1-2.5-2.3c0-0.2,0-0.6,0-1
	s0.1-0.9,0.3-1.6c0.2-0.7,0.6-1.3,1.1-1.9c0.5-0.6,1.1-1,1.8-1.4c0.7-0.3,1.4-0.5,2.1-0.5c0.7,0,1.5,0.2,2.4,0.7
	c0.4,0.2,0.8,0.5,1,0.8c0.2,0.3,0.4,0.6,0.4,0.9c0,0.1,0,0.2,0,0.3c0,0.8-0.4,1.2-1.1,1.4c-0.3,0.1-0.7,0.1-1.1,0.1l-2.7-0.1
	c-0.9,0-1.6,0.2-2.1,0.6c-0.3,0.2-0.5,0.5-0.6,1C1026.5,570.6,1027.3,571.2,1028.6,571.2z M1016,569.5c0,1,0.4,1.5,1.1,1.5
	c0.1,0,0.2,0,0.4,0c0.5,0,1.1-0.2,1.9-0.4c1.4-0.6,2.3-1,2.6-1.5v-2.5c0-0.4-0.4-0.7-1.1-0.7c-0.1,0-0.2,0-0.3,0
	c-0.1,0-0.4,0-0.7,0.1c-0.3,0.1-0.6,0.2-1,0.3c-0.4,0.2-0.7,0.4-1.1,0.6c-0.8,0.5-1.3,1.1-1.6,1.8C1016,569,1016,569.3,1016,569.5z
	 M1023.8,557.5c0,1.2,0,2.4-0.1,3.5c-0.1,1.1-0.1,2.3-0.2,3.3c-0.1,1.1-0.1,2.2-0.1,3.5c0,1.2,0.1,2.5,0.3,3.9
	c0,0.3-0.1,0.5-0.2,0.6c-0.1,0.1-0.3,0.2-0.5,0.2c-0.6,0-0.9-0.5-0.9-1.5v-0.6c-1.8,1.3-3.3,2-4.5,2c-0.5,0-1-0.1-1.5-0.4
	c-0.5-0.2-1-0.7-1.4-1.4c-0.1-0.3-0.1-0.6-0.1-0.9c0-0.3,0.1-0.7,0.2-1.1c0.1-0.4,0.4-0.9,0.7-1.4c0.4-0.5,0.8-0.9,1.3-1.3
	c1.1-0.8,2.4-1.2,3.7-1.2c0.6,0,1.1,0.1,1.6,0.3c0-0.2,0-0.6,0-1.2c0-0.6,0.1-1.2,0.1-1.8c0.1-1.6,0.1-2.6,0.1-2.9
	c0-0.3,0.1-0.5,0.1-0.8c0-0.2,0.1-0.4,0.2-0.5C1023,557.6,1023.3,557.5,1023.8,557.5z M1004.1,567.7c1.4,0,2.1,0.4,2.1,1
	c0,0.5-0.4,1.1-1.1,1.8c-1.1,1-2.7,1.9-4.6,2.5c-0.1,0-0.2-0.1-0.3-0.3s-0.2-0.3-0.2-0.4c-0.1-0.1-0.1-0.2-0.1-0.2
	c1.4-0.5,2.6-1,3.5-1.7c0.6-0.4,0.9-0.8,0.9-1.1c0-0.3-0.4-0.4-1.1-0.4c-0.7,0-1.8,0.2-3.2,0.5c-0.6,0-1.2-0.3-1.7-0.7
	c-0.4-0.4-0.6-0.8-0.6-1.2c0-0.4,0.1-0.8,0.3-1.1c0.2-0.3,0.5-0.6,0.9-0.9c0.4-0.3,0.8-0.5,1.3-0.8c1.2-0.6,2.5-0.9,3.8-0.9
	c0.4,0,0.8,0,1.1,0.1c0.3,0,0.5,0.1,0.5,0.4c0.1,0.3,0.1,0.7,0.1,1.3c-0.7-0.3-1.6-0.5-2.5-0.5c-1.1,0-2.1,0.2-2.8,0.7
	c-0.8,0.5-1.2,1-1.2,1.8c0,0.4,0.3,0.5,0.8,0.5l1.4-0.1C1002.4,567.8,1003.4,567.7,1004.1,567.7z M995.2,566.5
	c0-0.7-0.4-1.1-1.1-1.1c-0.1,0-0.2,0-0.3,0c-0.9,0-1.9,0.4-2.9,1.3c-0.5,0.4-0.9,0.8-1.2,1.3c-0.5,0.7-0.7,1.3-0.7,1.9
	c0,0.7,0.4,1.2,1.3,1.3c1.1,0,2.2-0.5,3.2-1.5c0.4-0.4,0.8-0.9,1.1-1.4C995,567.6,995.2,567,995.2,566.5z M995.3,569.4
	c-0.9,1.5-2.2,2.4-3.7,2.7c-0.4,0.1-0.7,0.1-1,0.1c-0.3,0-0.5,0-0.7,0c-0.2,0-0.4,0-0.6-0.1c-0.2-0.1-0.5-0.1-0.7-0.2
	c-0.5-0.3-0.7-0.6-0.7-1.1c-0.1-0.2-0.1-0.5-0.1-0.8c0-0.3,0.1-0.7,0.2-1.1c0.1-0.5,0.4-1,0.7-1.5c0.3-0.5,0.7-1,1.2-1.5
	c1-0.9,2-1.6,3.2-1.8c0.3-0.1,0.6-0.1,0.9-0.1c0.3,0,0.5,0,0.8,0.1c0.7,0,1.2,0.5,1.5,1.5c0.2,0.6,0.3,1.5,0.3,2.6
	c0,1.1,0.1,2,0.1,2.6c0,0.6,0.1,1.2,0.2,1.7h-1.1c-0.1-0.3-0.1-0.6-0.1-0.9c0-0.3-0.1-0.5-0.1-0.7
	C995.4,570.2,995.4,569.8,995.3,569.4z"/>
<path class="hCarteltxt" d="M893.2,593.4c0,0.8,0.2,1.3,0.6,1.6c0.3,0.2,0.8,0.3,1.6,0.3c0.7,0,1.4-0.1,1.9-0.2c0.6-0.1,1.1-0.3,1.5-0.6
	c0.9-0.6,1.4-1.5,1.4-2.8c0-0.7-0.2-1.4-0.6-1.8c-0.4-0.5-1-0.8-1.7-0.8c-0.5,0.1-1,0.2-1.5,0.3c-0.5,0.1-1,0.3-1.4,0.6
	C894.1,590.6,893.5,591.8,893.2,593.4 M891.9,593c0-1.5,0.6-2.7,1.9-3.6c1-0.7,2.2-1.1,3.6-1.3c0.1,0,0.2,0,0.5,0s0.6,0.1,1.1,0.2
	c1,0.4,1.7,1,2.1,1.8c0.1,0.4,0.2,0.6,0.2,0.9c0,0.2,0,0.4,0,0.5c0,1.6-0.6,2.8-1.8,3.7c-1.1,0.8-2.5,1.2-4.1,1.2
	c-1.2,0-2.1-0.3-2.7-0.8C892.2,595.2,891.9,594.2,891.9,593z M882.7,593.6c0,1,0.4,1.5,1.1,1.5c0.1,0,0.2,0,0.4,0
	c0.5,0,1.1-0.1,1.9-0.4c1.4-0.6,2.3-1,2.6-1.5v-2.5c0-0.4-0.4-0.7-1.1-0.7c-0.1,0-0.2,0-0.3,0c-0.1,0-0.4,0-0.7,0.1
	c-0.3,0.1-0.6,0.2-1,0.3s-0.7,0.4-1.1,0.6c-0.8,0.5-1.3,1.1-1.6,1.8C882.8,593,882.7,593.3,882.7,593.6z M890.5,581.5
	c0,1.2,0,2.4-0.1,3.5c-0.1,1.1-0.1,2.3-0.2,3.3c-0.1,1.1-0.1,2.2-0.1,3.5c0,1.2,0.1,2.5,0.3,3.9c0,0.3-0.1,0.5-0.2,0.6
	c-0.1,0.1-0.3,0.2-0.5,0.2c-0.6,0-0.9-0.5-0.9-1.5v-0.6c-1.8,1.3-3.3,2-4.5,2c-0.5,0-1-0.1-1.5-0.4c-0.5-0.2-1-0.7-1.4-1.4
	c-0.1-0.3-0.1-0.6-0.1-0.9c0-0.3,0.1-0.7,0.2-1.1c0.1-0.4,0.4-0.9,0.7-1.4c0.4-0.5,0.8-0.9,1.3-1.3c1.1-0.8,2.4-1.2,3.7-1.2
	c0.6,0,1.1,0.1,1.6,0.3c0-0.2,0-0.6,0-1.2c0-0.6,0.1-1.2,0.1-1.8c0.1-1.6,0.1-2.6,0.2-2.9c0-0.3,0.1-0.5,0.1-0.8
	c0-0.2,0.1-0.4,0.2-0.5C889.7,581.7,890,581.5,890.5,581.5z M878.7,585.2c0-0.4,0.3-0.7,0.8-0.7c0.3,0,0.6,0.1,0.8,0.2
	c0,0.1,0.1,0.3,0.1,0.4c0,0.1,0,0.3-0.1,0.4c-0.1,0.1-0.2,0.2-0.4,0.2c-0.2,0-0.4,0-0.6-0.1C879,585.5,878.8,585.4,878.7,585.2z
	 M880.5,587.7c0.2,2.3,0.3,5,0.4,8.1c-0.1,0.4-0.4,0.6-0.9,0.6c-0.1,0-0.3,0-0.4-0.1c-0.1-0.1-0.2-0.1-0.3-0.2v-8.4H880.5z
	 M869.7,595.9c0.6-0.6,1.2-1.3,1.8-2.1c0.6-0.8,1-1.3,1.1-1.6l-1.6-1.7c-0.2-0.2-0.4-0.4-0.6-0.6c-0.2-0.2-0.4-0.4-0.5-0.6
	c-0.2-0.2-0.3-0.3-0.4-0.4l-0.1-0.1l1.1-1.2c0.6,0.7,1,1.2,1.2,1.6c0.3,0.4,0.5,0.6,0.6,0.8c0.3,0.4,0.7,0.8,1.2,1.3
	c0.2-0.2,0.5-0.7,0.9-1.3c0.8-1.1,1.3-1.9,1.8-2.5c0.3,0,0.5,0.1,0.7,0.3c0.2,0.2,0.3,0.4,0.3,0.6c-0.3,0.7-0.8,1.4-1.4,2.2
	c-0.2,0.3-0.4,0.5-0.6,0.8c-0.2,0.3-0.3,0.5-0.4,0.8c0.8,0.5,1.7,1.4,2.7,2.7c0.2,0.3,0.4,0.5,0.5,0.7c0,0.1-0.1,0.2-0.2,0.4
	c-0.2,0.3-0.4,0.5-0.6,0.6c-0.2-0.1-0.5-0.3-0.7-0.6c-0.3-0.3-0.5-0.6-0.8-1c-0.3-0.3-0.6-0.7-0.9-1c-0.3-0.3-0.6-0.6-1-0.9
	c-0.3,0.3-0.7,0.8-1.2,1.4c-0.9,1.1-1.6,1.8-1.9,2c-0.2,0.1-0.6-0.1-1-0.3C869.9,596.1,869.8,596,869.7,595.9z M864,585.2
	c0.2-0.2,0.4-0.4,0.6-0.4c0.1,0,0.2,0.1,0.3,0.2c0.1,0.1,0.1,0.2,0.1,0.3c0,0.1,0,0.2-0.1,0.3c-0.1,0.1-0.1,0.2-0.2,0.4
	c-0.2,0.2-0.6,0.6-1.3,1.2l-0.6-0.5L864,585.2z M860.8,593.4c0,0.8,0.2,1.3,0.6,1.6c0.3,0.2,0.8,0.3,1.6,0.3c0.7,0,1.4-0.1,1.9-0.2
	c0.6-0.1,1.1-0.3,1.5-0.6c0.9-0.6,1.4-1.5,1.4-2.8c0-0.7-0.2-1.4-0.6-1.8c-0.4-0.5-1-0.8-1.7-0.8c-0.5,0.1-1,0.2-1.5,0.3
	c-0.5,0.1-1,0.3-1.4,0.6C861.7,590.6,861,591.8,860.8,593.4z M859.5,593c0-1.5,0.6-2.7,1.9-3.6c1-0.7,2.2-1.1,3.6-1.3
	c0.1,0,0.2,0,0.5,0c0.3,0,0.6,0.1,1.1,0.2c1,0.4,1.7,1,2.1,1.8c0.2,0.4,0.2,0.6,0.2,0.9c0,0.2,0,0.4,0,0.5c0,1.6-0.6,2.8-1.8,3.7
	c-1.1,0.8-2.5,1.2-4.1,1.2c-1.2,0-2.1-0.3-2.7-0.8C859.8,595.2,859.5,594.2,859.5,593z M856.1,585.2c0-0.4,0.3-0.7,0.8-0.7
	c0.3,0,0.6,0.1,0.8,0.2c0,0.1,0.1,0.3,0.1,0.4c0,0.1,0,0.3-0.1,0.4c-0.1,0.1-0.2,0.2-0.4,0.2c-0.2,0-0.4,0-0.6-0.1
	C856.3,585.5,856.2,585.4,856.1,585.2z M857.8,587.7c0.2,2.3,0.3,5,0.4,8.1c-0.1,0.4-0.4,0.6-0.9,0.6c-0.1,0-0.3,0-0.4-0.1
	c-0.1-0.1-0.2-0.1-0.3-0.2v-8.4H857.8z M851.2,594.7l0-3c0-0.5,0-0.9-0.1-1.2h-2.9l0-1.3h2.8v-4.8c0-0.1,0.1-0.2,0.2-0.3
	c0.2-0.2,0.3-0.3,0.4-0.3s0.2,0,0.3,0c0.1,0,0.2,0.1,0.3,0.3c0.2,0.8,0.3,2.1,0.3,3.7c0,0.4,0,0.8,0.1,1.2c0.4,0,0.8-0.1,1.2-0.1
	c0,0,0.3,0,1,0c0.2,0,0.5,0,0.7,0l-0.1,1.3l-2.7-0.1l0.1,6.4c-0.2,0.1-0.4,0.2-0.6,0.2C851.5,596.8,851.2,596.1,851.2,594.7z
	 M846.1,592.4c0-1.5-0.1-2.6-0.2-3.3c0.1-0.2,0-0.3-0.4-0.3c-0.4,0-1,0.1-1.6,0.3c-0.7,0.2-1.2,0.4-1.6,0.6c-1,0.5-1.6,1-1.7,1.4
	v5.1h-1.3c-0.2-0.4-0.2-1.6-0.2-3.6c0-1.7,0-3,0.1-3.8c0.1-0.8,0.1-1.3,0.2-1.4c0.3-0.2,0.6-0.3,0.8-0.3c0.3,0,0.5,0.4,0.5,1.1
	c0,0.3,0,0.6,0,0.8c0,0.3,0,0.4,0,0.5c2-1.5,3.6-2.2,4.7-2.2c1.3,0,2,1,2.1,3c0.1,0.7,0.1,1.7,0.1,3l0,1.5c0,0.5,0,1.1,0,1.6
	c-0.1,0.1-0.2,0.1-0.3,0.1c0,0-0.1,0-0.2-0.1c-0.1,0-0.3,0-0.5-0.1c-0.1-0.5-0.2-1-0.2-1.5c0-0.5,0-1,0-1.4L846.1,592.4z
	 M836.3,590.5c0-0.7-0.4-1.1-1.1-1.1c-0.1,0-0.2,0-0.3,0c-0.9,0-1.9,0.4-2.9,1.3c-0.5,0.4-0.9,0.8-1.2,1.3c-0.5,0.7-0.7,1.3-0.7,1.9
	c0,0.7,0.4,1.2,1.3,1.3c1.1,0,2.2-0.5,3.2-1.5c0.4-0.4,0.8-0.9,1.1-1.4C836.1,591.6,836.3,591,836.3,590.5z M836.4,593.4
	c-0.9,1.5-2.2,2.4-3.7,2.7c-0.4,0.1-0.7,0.1-1,0.1c-0.3,0-0.5,0-0.7,0c-0.2,0-0.4,0-0.6-0.1c-0.2-0.1-0.5-0.1-0.7-0.2
	c-0.5-0.3-0.7-0.6-0.7-1.1c-0.1-0.2-0.1-0.5-0.1-0.8c0-0.3,0.1-0.7,0.2-1.1c0.1-0.5,0.4-1,0.7-1.5c0.3-0.5,0.7-1,1.2-1.5
	c1-0.9,2-1.6,3.2-1.8c0.3-0.1,0.6-0.1,0.9-0.1c0.3,0,0.5,0,0.8,0.1c0.7,0,1.2,0.5,1.5,1.5c0.2,0.6,0.3,1.5,0.3,2.6
	c0,1.1,0.1,2,0.1,2.6c0,0.6,0.1,1.2,0.2,1.7h-1.1c-0.1-0.3-0.1-0.6-0.1-0.9c0-0.3-0.1-0.5-0.1-0.7
	C836.6,594.2,836.5,593.8,836.4,593.4z M818.9,590.5c0-0.7-0.4-1.1-1.1-1.1c-0.1,0-0.2,0-0.3,0c-0.9,0-1.9,0.4-2.9,1.3
	c-0.5,0.4-0.9,0.8-1.2,1.3c-0.5,0.7-0.7,1.3-0.7,1.9c0,0.7,0.4,1.2,1.3,1.3c1.1,0,2.2-0.5,3.2-1.5c0.4-0.4,0.8-0.9,1.1-1.4
	C818.7,591.6,818.9,591,818.9,590.5z M819,593.4c-0.9,1.5-2.2,2.4-3.7,2.7c-0.4,0.1-0.7,0.1-1,0.1c-0.3,0-0.5,0-0.7,0
	c-0.2,0-0.4,0-0.6-0.1c-0.2-0.1-0.5-0.1-0.7-0.2c-0.5-0.3-0.7-0.6-0.7-1.1c-0.1-0.2-0.1-0.5-0.1-0.8c0-0.3,0.1-0.7,0.2-1.1
	c0.1-0.5,0.4-1,0.7-1.5c0.3-0.5,0.7-1,1.2-1.5c1-0.9,2-1.6,3.2-1.8c0.3-0.1,0.6-0.1,0.9-0.1c0.3,0,0.5,0,0.8,0.1
	c0.7,0,1.2,0.5,1.5,1.5c0.2,0.6,0.3,1.5,0.3,2.6c0,1.1,0.1,2,0.1,2.6c0,0.6,0.1,1.2,0.2,1.7h-1.1c-0.1-0.3-0.1-0.6-0.1-0.9
	c0-0.3-0.1-0.5-0.1-0.7C819.2,594.2,819.1,593.8,819,593.4z M810.3,589.7c-0.5-0.4-1.2-0.6-2-0.6c-0.8,0-1.5,0.1-2.1,0.4
	c-1.2,0.5-2.1,1.2-2.6,2c-0.2,0.4-0.3,0.8-0.3,1.2c0,0.1,0,0.3,0,0.6c0,0.3,0.1,0.8,0.2,1.4c0.1,0.6,0.2,1.2,0.2,1.8
	c-0.3,0-0.5,0-0.6,0.1c-0.2,0.1-0.3,0.1-0.4,0.1c-0.1,0-0.2,0-0.3-0.1c-0.1-0.1-0.2-0.3-0.3-0.6c0-0.1,0-0.3-0.1-0.6
	c0-0.4-0.1-0.8-0.1-1.3c-0.1-0.5-0.1-1-0.2-1.6c-0.1-0.6-0.1-1.2-0.2-1.7c-0.1-1.2-0.2-2.2-0.3-2.7c0-0.3,0.2-0.4,0.7-0.4
	c0.3,0,0.5,0.1,0.6,0.3c0.2,0.2,0.3,0.5,0.4,0.8c0.1,0.3,0.1,0.6,0.2,0.8c0,0.3,0.1,0.5,0.1,0.6c1.6-1.5,3.7-2.2,6.1-2.2
	c0.3,0,0.6,0,0.9,0c0.1,0,0.2,0,0.3,0c0.1,0,0.2,0.1,0.3,0.2c0.1,0.2,0.2,0.4,0.2,0.6C810.8,589.3,810.6,589.6,810.3,589.7z
	 M791.3,594c0-0.2,0-0.5,0-0.8c0-0.4-0.1-0.7-0.1-1.2s0-0.9,0-1.3c0-0.4,0-0.8,0.1-1.2c0.2-0.8,0.5-1.2,1-1.2
	c0.3,0.1,0.6,0.2,0.7,0.4c0.1,0.1,0.2,0.3,0.2,0.6c0,0.2-0.1,0.5-0.2,0.8c-0.4,1.1-0.6,2.1-0.6,2.9c0,0.3,0,0.6,0.1,0.9
	c0.2,0.8,0.9,1.3,2.1,1.3c0.6,0,1.2-0.1,1.7-0.3c1-0.4,1.8-0.8,2.1-1.4c0.1-0.6,0.2-1.1,0.2-1.5s0-0.8,0-1.1c0-0.3-0.1-0.7-0.1-1.1
	c0-0.4-0.1-0.9-0.1-1.3c0.2-0.1,0.3-0.1,0.5-0.1s0.3,0.1,0.5,0.2c0.2,0.2,0.3,0.5,0.4,0.9c0.1,0.5,0.2,1,0.2,1.6
	c0,0.6,0.1,1.2,0.1,1.9c0,0.6,0,1.3,0,1.9c0,0.6,0,1.1,0.1,1.6c-0.2,0.1-0.3,0.2-0.4,0.2c-0.5,0-0.9-0.5-1.1-1.5
	c-0.2,0.1-0.4,0.3-0.8,0.5c-0.8,0.5-1.8,0.8-2.9,0.9c-0.2,0-0.5,0-0.7,0c-0.3,0-0.6,0-1-0.1c-0.4-0.1-0.8-0.3-1.1-0.7
	C791.6,595.3,791.4,594.7,791.3,594z M786.5,594.7l0-3c0-0.5,0-0.9-0.1-1.2h-2.9l0-1.3h2.8v-4.8c0-0.1,0.1-0.2,0.2-0.3
	c0.2-0.2,0.3-0.3,0.4-0.3c0.1,0,0.2,0,0.3,0c0.1,0,0.2,0.1,0.3,0.3c0.2,0.8,0.3,2.1,0.3,3.7c0,0.4,0,0.8,0.1,1.2
	c0.4,0,0.8-0.1,1.2-0.1c0,0,0.3,0,1,0c0.2,0,0.5,0,0.7,0l-0.1,1.3l-2.7-0.1l0.1,6.4c-0.2,0.1-0.4,0.2-0.6,0.2
	C786.8,596.8,786.5,596.1,786.5,594.7z M781.4,592.4c0-1.5-0.1-2.6-0.2-3.3c0.1-0.2,0-0.3-0.4-0.3c-0.4,0-1,0.1-1.6,0.3
	c-0.7,0.2-1.2,0.4-1.6,0.6c-1,0.5-1.6,1-1.7,1.4v5.1h-1.3c-0.2-0.4-0.2-1.6-0.2-3.6c0-1.7,0-3,0.1-3.8c0.1-0.8,0.1-1.3,0.2-1.4
	c0.3-0.2,0.6-0.3,0.8-0.3c0.3,0,0.5,0.4,0.5,1.1c0,0.3,0,0.6,0,0.8c0,0.3,0,0.4,0,0.5c2-1.5,3.6-2.2,4.7-2.2c1.3,0,2,1,2.2,3
	c0.1,0.7,0.1,1.7,0.1,3l0,1.5c0,0.5,0,1.1,0,1.6c-0.1,0.1-0.2,0.1-0.3,0.1c0,0-0.1,0-0.2-0.1c-0.1,0-0.3,0-0.5-0.1
	c-0.1-0.5-0.2-1-0.2-1.5c0-0.5,0-1,0-1.4L781.4,592.4z M771.1,585.2c0-0.4,0.3-0.7,0.8-0.7c0.3,0,0.6,0.1,0.8,0.2
	c0,0.1,0.1,0.3,0.1,0.4c0,0.1,0,0.3-0.1,0.4c-0.1,0.1-0.2,0.2-0.4,0.2c-0.2,0-0.4,0-0.6-0.1C771.4,585.5,771.2,585.4,771.1,585.2z
	 M772.9,587.7c0.2,2.3,0.3,5,0.4,8.1c-0.1,0.4-0.4,0.6-0.9,0.6c-0.1,0-0.3,0-0.4-0.1c-0.1-0.1-0.2-0.1-0.3-0.2v-8.4H772.9z
	 M760.7,590c0,0.6,0.3,0.9,0.8,0.9c0.1,0,0.2,0,0.4,0c0.2,0,0.5,0,1-0.1c0.5,0,1-0.1,1.5-0.2c0.5-0.1,1.1-0.2,1.6-0.4
	c0.5-0.1,1-0.3,1.4-0.6c1-0.5,1.4-1.2,1.4-2c-0.2-0.8-0.9-1.3-2.2-1.6c-0.4-0.1-0.7-0.1-1-0.1c-0.3,0-0.7,0-1.1,0
	c-0.4,0-0.9,0.1-1.4,0.3c-0.5,0.2-1,0.4-1.4,0.7c-0.4,0.3-0.6,0.6-0.6,1c0,0.1,0,0.3-0.1,0.5C760.8,589.2,760.7,589.7,760.7,590z
	 M760,596.5l-0.8,0v-4.4c0.1-0.9,0.1-1.8,0.2-2.5c0-0.7,0.1-1.3,0.2-1.9c0.1-0.5,0.3-1,0.5-1.3c0.2-0.4,0.6-0.6,1-0.8
	c0.8-0.4,2.3-0.6,4.5-0.6c0.9,0,1.7,0.1,2.4,0.3c0.6,0.2,1.1,0.4,1.4,0.5c0.7,0.4,1.1,0.8,1.1,1.5c0,0.6-0.2,1.2-0.5,1.7
	c-0.4,0.5-0.8,0.9-1.4,1.3c-0.6,0.4-1.2,0.7-1.9,0.9c-0.7,0.2-1.4,0.4-2.1,0.6c-1.3,0.2-2.5,0.4-3.7,0.4l-0.1,4.2
	C760.7,596.5,760.5,596.5,760,596.5z"/>
<path class="hMedidas2a" d="M842.1,312c-0.6,0.2-1,0.4-1.2,0.4c-0.2,0-0.3,0-0.4-0.1c-0.1,0-0.2-0.1-0.2-0.3c0-0.5,0-1.1,0.1-1.8
	c0-0.7,0.1-1.5,0.1-2.3c0-0.8,0-1.6,0-2.5c0-0.8,0-1.6-0.1-2.3c0-0.5,0.3-0.7,0.9-0.7c0.1,0,0.3,0.3,0.3,0.8
	c0.1,0.5,0.1,0.9,0.2,1.2c0,0.3,0.1,0.5,0.1,0.6c0.4-0.7,1.1-1.2,2.2-1.6c0.6-0.2,1.1-0.3,1.7-0.3c0.5,0,1,0.1,1.4,0.2
	c0.4,0.1,0.7,0.3,1,0.7c0.3,0.3,0.4,0.8,0.4,1.3c0.4-0.7,1.2-1.3,2.5-1.9c1.2-0.5,2.3-0.8,3.2-0.8c1.4,0,2,0.5,2,1.6l0.5,8
	c0,0.1-0.2,0.1-0.6,0.2c-0.8,0.1-1.2,0-1.2-0.2c0-0.3,0-0.6,0-0.9l0.1-3.5c0-1.6-0.2-2.9-0.5-3.9c-0.9,0.1-1.7,0.2-2.2,0.5
	c-0.5,0.2-1,0.5-1.3,0.9c-0.4,0.4-0.7,0.8-1,1.4c-0.7,1.3-1,3.1-1,5.3c-0.1,0.3-0.4,0.5-0.8,0.5c-0.3,0-0.6-0.1-0.8-0.2
	c-0.2-0.1-0.3-0.2-0.2-0.3c0.3-1.5,0.4-2.7,0.4-3.6c0-0.7-0.1-1.3-0.2-1.9c-0.1-0.6-0.3-1.3-0.5-2.1c-2.1,0-3.5,0.8-4.2,2.5
	c-0.3,0.7-0.5,1.4-0.5,2.1c0,0.6-0.1,1.2-0.1,1.6S842,311.5,842.1,312 M827.9,308.4c0,1.9,1.4,2.9,4.1,2.9c2,0,3.5-0.5,4.5-1.5
	c1-1,1.5-2.5,1.5-4.4c0-0.1,0-0.1,0-0.2c0-1.7-0.4-2.9-1.2-3.8c-0.8-0.9-1.9-1.3-3.4-1.3c-0.2,0-0.3,0-0.4,0c-0.1,0-0.2,0-0.3,0
	c-0.8,0-1.5,0.5-2.3,1.5c-0.7,0.9-1.3,2.2-1.8,3.6C828.1,306.7,827.9,307.7,827.9,308.4z M828.3,311.4c-0.5-0.3-0.9-0.7-1.2-1.2
	c-0.3-0.5-0.5-1-0.5-1.6c0-0.6,0.1-1.3,0.3-2c0.2-0.8,0.4-1.5,0.7-2.2c0.3-0.7,0.6-1.3,1-2c0.4-0.6,0.8-1.2,1.3-1.7
	c1.1-1,2.3-1.6,3.7-1.6c1.8,0,3.2,0.7,4.2,2c0.9,1.2,1.4,2.7,1.4,4.5c0,2.1-0.7,3.8-2,5c-1.3,1.1-3.1,1.7-5.3,1.7
	C830.4,312.4,829.2,312,828.3,311.4z M824.9,301.4c0,0.9-0.7,1.9-2.1,3c-0.3,0.3-0.6,0.5-0.9,0.7c1.8,0,2.8,0.4,3.2,1.2
	c0.1,0.2,0.1,0.4,0.1,0.6c0,0.2-0.1,0.5-0.2,0.8c-0.1,0.3-0.3,0.7-0.7,1.2c-0.3,0.5-0.8,0.9-1.3,1.3c-1,0.9-2.1,1.5-3.2,1.9
	c-0.4,0.1-0.7,0.2-0.9,0.2s-0.4,0-0.6,0s-0.3-0.1-0.5-0.1c-0.2-0.1-0.2-0.2-0.2-0.4c1.1-0.3,2-0.7,2.8-1.2c0.8-0.5,1.5-1,1.9-1.6
	c0.6-0.7,0.8-1.2,0.8-1.7c0-0.4-0.1-0.7-0.4-0.9c-0.3-0.2-0.6-0.2-1.1-0.2c-1.1,0-2.6,0.4-4.5,1.3l-0.8-1c4.4-2,6.5-3.5,6.5-4.3
	c0-0.4-0.4-0.6-1.2-0.7c-0.8,0-1.8,0.1-2.9,0.4c-1.1,0.3-1.9,0.5-2.5,0.6c-0.6,0.1-1.2,0.2-1.8,0.2c0-0.7,0.2-1.1,0.5-1.2
	c0.6-0.1,1.2-0.3,1.9-0.5c2.2-0.6,4-0.8,5.3-0.8C823.8,300.3,824.6,300.6,824.9,301.4z"/>
<path class="hLogoV1" d="M538.9,646c29.5,0,53.4,10.3,53.4,23.1c0,12-21.4,21.9-48.7,23c1.5,0.1,3,0.1,4.6,0.1
	c29.5,0,53.4-11.1,53.4-24.9s-23.9-24.9-53.4-24.9c-14.4,0-27.5,2.7-37.1,7C519.2,647.2,528.7,646,538.9,646z"/>
<path class="hLogoV1" d="M421.3,615.8c11.8,0,23.7,0,35.5,0v5.6H448V655h-17.8v-33.6h-8.9V615.8z"/>
<path class="hLogoV1" d="M462.7,615.8h19.5v33.6h5.9v-33.6h18.9v28.5c0,5.9-5.1,10.7-11.3,10.7H474c-6.2,0-11.3-4.8-11.3-10.7V615.8z"/>
<rect x="430.3" y="661.8" class="hLogoV1" width="5.3" height="22.4"/>
<path class="hLogoV1" d="M437.8,661.8h4.6h0.3h5c3,0,5.6,1.5,7.1,3.8v-3.8h6.4c4.5,0,8.3,3.5,8.3,7.8v14.5h-5v-13.5c0-2.3-2-4.3-4.5-4.3
	h-4.7c0.5,1,0.7,2.1,0.7,3.2v14.5h-5v-13.5c0-2.3-2-4.3-4.5-4.3h-3.8v17.7h-4.9V661.8z"/>
<path class="hLogoV1" d="M551.7,661.8h4.6h0.3h7.7c4.5,0,8.3,3.5,8.3,7.8v14.5h-5v-13.5c0-2.3-2-4.3-4.5-4.3h-6.5v17.7h-4.9V661.8z"/>
<path class="hLogoV1" d="M481.6,661.6h4.3c5.6,0,10.1,4.3,10.1,9.6v19.4h-5.4v-10.9v-8.5c0-2.5-2.1-4.5-4.8-4.5h-4.3
	c-2.6,0-4.8,2-4.8,4.5v3.4H488v5.2h-11.1h-4.6h-0.7v-8.6C471.5,665.9,476.1,661.6,481.6,661.6z"/>
<path class="hLogoV1" d="M498.4,675.3v-4.1c0-5.3,4.6-9.6,10.2-9.6H525v5.1h-16.5c-2.6,0-4.8,2-4.8,4.5v4.1c0,2.5,2.1,4.5,4.8,4.5h11.2
	v-10.5h5.3v10.5v3v2.1h-16.5C502.9,684.9,498.4,680.5,498.4,675.3z"/>
<path class="hLogoV1" d="M547.4,674h-12.2c-4.3,0-4.3,6.1,0,6.1h12.2v4.8h-13.6c-6.5,0-9.3-7.8-4.2-11.6c0,0,1-1.2-0.1-2.2
	c-4.5-2.8-2.4-9.5,3-9.5h15v3.9h-13.2c-2.9,0-2.9,4.2,0,4.2h13.2V674z"/>
<path class="hLogoV1" d="M538,646.8c29.5,0,53.4,10.3,53.4,23.1c0,12-21.4,21.9-48.7,23c1.5,0.1,3,0.1,4.6,0.1
	c29.5,0,53.4-11.1,53.4-24.9s-23.9-24.9-53.4-24.9c-14.4,0-27.5,2.7-37.1,7C518.3,648.1,527.8,646.8,538,646.8z"/>
<path class="hLogoV1" d="M420.5,616.7c11.8,0,23.7,0,35.5,0v5.6h-8.9v33.6h-17.8v-33.6h-8.9V616.7z"/>
<path class="hLogoV1" d="M461.8,616.7h19.5v33.6h5.9v-33.6h18.9v28.5c0,5.9-5.1,10.7-11.3,10.7h-21.8c-6.2,0-11.3-4.8-11.3-10.7V616.7z"
	/>
<rect x="429.5" y="662.7" class="hLogoV1" width="5.3" height="22.4"/>
<path class="hLogoV1" d="M436.9,662.7h4.6h0.3h5c3,0,5.6,1.5,7.1,3.8v-3.8h6.4c4.5,0,8.3,3.5,8.3,7.8V685h-5v-13.5c0-2.3-2-4.3-4.5-4.3
	h-4.7c0.5,1,0.7,2.1,0.7,3.2V685h-5v-13.5c0-2.3-2-4.3-4.5-4.3h-3.8V685h-4.9V662.7z"/>
<path class="hLogoV1" d="M550.8,662.7h4.6h0.3h7.7c4.5,0,8.3,3.5,8.3,7.8V685h-5v-13.5c0-2.3-2-4.3-4.5-4.3h-6.5V685h-4.9V662.7z"/>
<path class="hLogoV1" d="M480.8,662.4h4.3c5.6,0,10.2,4.3,10.2,9.6v19.4h-5.4v-10.9v-8.5c0-2.5-2.1-4.5-4.8-4.5h-4.3
	c-2.6,0-4.8,2-4.8,4.5v3.4h11.1v5.2H476h-4.6h-0.7V672C470.6,666.7,475.2,662.4,480.8,662.4z"/>
<path class="hLogoV1" d="M497.5,676.1V672c0-5.3,4.6-9.6,10.1-9.6h16.5v5.1h-16.5c-2.6,0-4.8,2-4.8,4.5v4.1c0,2.5,2.1,4.5,4.8,4.5h11.2
	v-10.5h5.3v10.5v3v2.1h-16.5C502.1,685.7,497.5,681.4,497.5,676.1z"/>
<path class="hLogoV1" d="M546.5,674.8h-12.2c-4.3,0-4.3,6.1,0,6.1h12.2v4.8h-13.6c-6.5,0-9.3-7.8-4.2-11.6c0,0,1-1.2-0.1-2.2
	c-4.5-2.8-2.4-9.5,3-9.5h15v3.9h-13.2c-2.9,0-2.9,4.2,0,4.2h13.2V674.8z"/>
<path class="hMedidas3b" d="M863.9,215.9c-0.6,0.2-1,0.4-1.2,0.4c-0.2,0-0.3,0-0.4-0.1c-0.1,0-0.2-0.1-0.2-0.3c0-0.5,0-1.1,0.1-1.8
	c0-0.7,0.1-1.5,0.1-2.3c0-0.8,0-1.6,0-2.5c0-0.8,0-1.6-0.1-2.3c0-0.5,0.3-0.7,0.9-0.7c0.1,0,0.3,0.3,0.3,0.8
	c0.1,0.5,0.1,0.9,0.2,1.2c0,0.3,0.1,0.5,0.1,0.6c0.4-0.7,1.1-1.2,2.2-1.6c0.6-0.2,1.1-0.3,1.7-0.3c0.5,0,1,0.1,1.4,0.2
	c0.4,0.1,0.7,0.3,1,0.7c0.3,0.3,0.4,0.7,0.4,1.3c0.4-0.7,1.2-1.3,2.5-1.9c1.2-0.5,2.3-0.8,3.2-0.8c1.4,0,2,0.5,2,1.6l0.5,8
	c0,0.1-0.2,0.1-0.6,0.2c-0.8,0.1-1.2,0-1.2-0.2c0-0.3,0-0.6,0-0.9l0.1-3.5c0-1.6-0.2-2.9-0.5-3.9c-0.9,0.1-1.7,0.2-2.2,0.5
	c-0.5,0.2-1,0.5-1.3,0.9c-0.4,0.4-0.7,0.8-1,1.4c-0.7,1.3-1,3.1-1,5.3c-0.1,0.3-0.4,0.5-0.8,0.5c-0.3,0-0.6-0.1-0.8-0.2
	c-0.2-0.1-0.3-0.2-0.2-0.3c0.3-1.5,0.4-2.7,0.4-3.6c0-0.7-0.1-1.3-0.2-1.9c-0.1-0.6-0.3-1.3-0.5-2.1c-2.1,0-3.5,0.8-4.2,2.5
	c-0.3,0.7-0.5,1.4-0.5,2.1c0,0.6-0.1,1.2-0.1,1.6S863.8,215.4,863.9,215.9 M846.4,210l0.2-1.5c0.1-0.8,0.2-1.8,0.3-3l0.3-2.2
	c0.1-0.2,0.1-0.3,0.3-0.3c0.1,0,0.3,0,0.5,0c0.2,0,0.4,0.1,0.5,0.2c0.1,0.1,0.2,0.2,0.2,0.4c0,0.2,0,0.3-0.1,0.5
	c0,0.2-0.1,0.4-0.1,0.6c1,0,2-0.1,3-0.3c1-0.2,2-0.5,3-0.7c1-0.3,2-0.5,3-0.7c1-0.2,2-0.3,3-0.3c0.1,0,0.3,0,0.4,0.1
	c0.1,0,0.2,0.2,0.3,0.4c-0.1,0.2-0.2,0.3-0.3,0.4c-0.1,0.1-0.4,0.2-0.7,0.3c-0.3,0.1-0.8,0.2-1.4,0.4c-0.6,0.1-1.3,0.3-2.2,0.5
	s-2,0.4-3.3,0.7c-1.3,0.3-2.8,0.6-4.6,1v2.8c0.5,0,1-0.1,1.6-0.2c1.1-0.2,1.9-0.3,2.5-0.3c0.6,0,1.1,0,1.4,0c0.4,0,0.8,0.1,1.3,0.3
	c1,0.4,1.6,1.2,1.8,2.5c0,0.9-0.2,1.7-0.7,2.3c-0.5,0.6-1.1,1.1-1.9,1.5c-1.4,0.7-3,1.1-4.9,1.1c-0.4,0-0.7,0-0.9-0.1
	c-0.2-0.1-0.3-0.3-0.3-0.6c0-0.3,0.1-0.6,0.3-0.8c0.2-0.3,0.5-0.4,0.8-0.4v0.4c1.7,0,2.9-0.1,3.7-0.4c0.7-0.2,1.3-0.6,1.8-1
	c0.4-0.4,0.7-1,0.7-1.6c0-0.6-0.1-1.1-0.4-1.4c-0.3-0.3-0.6-0.5-0.9-0.6c-0.6-0.2-1.2-0.3-2-0.3s-1.3,0.1-1.7,0.2
	c-0.4,0.1-0.7,0.2-1.1,0.4c-1,0.4-1.7,0.5-2.2,0.5h-0.3C846.7,210.5,846.4,210.3,846.4,210z M843.8,216.2c-0.3,0-0.5-0.2-0.5-0.4
	c0-0.3,0.2-0.6,0.5-0.9c0.1-0.1,0.3-0.2,0.3-0.2c0.1,0,0.1,0,0.2,0c0.3,0,0.5,0.1,0.6,0.2c0.1,0.1,0.2,0.3,0.2,0.5s0,0.4-0.1,0.5
	c-0.1,0.1-0.2,0.2-0.3,0.2C844.4,216.2,844.1,216.2,843.8,216.2z M841.7,212.6c0.5,0,0.7,0.2,0.7,0.5c0,0.4-0.2,0.6-0.5,0.8
	c-0.3,0.2-0.7,0.3-1.1,0.4c-0.4,0.1-0.8,0.1-1.1,0.1c-0.3,0-0.6,0-0.7,0c-0.1,0-0.3,0.1-0.6,0.2c-0.3,0.1-0.7,0.2-1.2,0.3
	c-0.4,0.1-0.9,0.3-1.4,0.4c-1.6,0.4-2.9,0.6-3.9,0.6c-0.5,0-0.8-0.1-1-0.2c-0.2-0.2-0.2-0.4-0.1-0.6c1.1-0.9,2.2-2.2,3.4-3.7
	c1.7-2.2,2.6-4,2.6-5.2c0-0.2,0-0.5-0.1-0.7c-0.2-0.4-0.6-0.7-1.2-0.9c-0.6,0-1.1,0.1-1.5,0.4c-0.4,0.3-0.8,0.5-1.1,0.9
	c-0.4,0.3-0.7,0.6-1.1,0.9c-0.4,0.3-0.8,0.4-1.3,0.4c0-0.5,0.2-0.9,0.6-1.4c0.7-0.9,1.8-1.6,3.2-2c0.5-0.2,0.9-0.2,1.2-0.2
	s0.5,0,0.6,0c0.6,0.1,1,0.3,1.4,0.6c0.4,0.3,0.6,0.9,0.7,1.6c0,2-0.9,4.3-2.8,6.7c-0.5,0.7-1,1.3-1.5,1.9c0.2,0,0.4,0,0.7,0
	c0.3,0,0.8-0.1,1.4-0.2c0.6-0.2,1.2-0.4,1.9-0.6c0.7-0.2,1.3-0.5,2-0.7C840.4,212.7,841.1,212.6,841.7,212.6z M827.9,215.9
	c0-0.3,0-0.7,0-1.3c0-0.6,0-1.2,0.1-2c0-0.7,0-1.5,0.1-2.3c0-0.8,0.1-1.6,0.1-2.3c0-0.7,0-1.4,0.1-2c0-0.6,0-1,0-1.3
	c0-0.3,0-0.5,0.2-0.6c0.1-0.1,0.3-0.1,0.5-0.1c0.2,0,0.3,0,0.5,0c0.1,0,0.2,0.1,0.3,0.3l-0.3,11.1c0,0.3-0.2,0.4-0.6,0.5
	C828.4,216.1,828.1,216.1,827.9,215.9z"/>
<path class="hMedidas1txt" d="M1073.9,321.6c-0.6,0.2-1,0.4-1.2,0.4c-0.2,0-0.3,0-0.4-0.1c-0.1,0-0.2-0.1-0.2-0.3c0-0.5,0-1.1,0.1-1.8
	c0-0.7,0.1-1.5,0.1-2.3c0-0.8,0-1.6,0-2.5c0-0.8,0-1.6-0.1-2.3c0-0.5,0.3-0.7,0.9-0.7c0.1,0,0.3,0.3,0.3,0.8
	c0.1,0.5,0.1,0.9,0.2,1.2c0,0.3,0.1,0.5,0.1,0.6c0.4-0.7,1.1-1.2,2.2-1.6c0.6-0.2,1.1-0.3,1.7-0.3c0.5,0,1,0.1,1.4,0.2
	c0.4,0.1,0.7,0.3,1,0.7c0.3,0.3,0.4,0.7,0.4,1.3c0.4-0.7,1.2-1.3,2.5-1.9c1.2-0.5,2.3-0.8,3.2-0.8c1.4,0,2,0.5,2,1.6l0.5,8
	c0,0.1-0.2,0.1-0.6,0.2c-0.8,0.1-1.2,0-1.2-0.2c0-0.3,0-0.6,0-0.9l0.1-3.5c0-1.6-0.2-2.9-0.5-3.9c-0.9,0.1-1.7,0.2-2.2,0.5
	c-0.5,0.2-1,0.5-1.3,0.9c-0.4,0.4-0.7,0.8-1,1.4c-0.7,1.3-1,3.1-1,5.3c-0.1,0.3-0.4,0.5-0.8,0.5c-0.3,0-0.6-0.1-0.8-0.2
	c-0.2-0.1-0.3-0.2-0.2-0.3c0.3-1.5,0.4-2.7,0.4-3.6c0-0.7-0.1-1.3-0.2-1.9c-0.1-0.6-0.3-1.3-0.5-2.1c-2.1,0-3.5,0.8-4.2,2.5
	c-0.3,0.7-0.5,1.4-0.5,2.1c0,0.6-0.1,1.2-0.1,1.6S1073.8,321.1,1073.9,321.6 M1056.5,315.7l0.2-1.5c0.1-0.8,0.2-1.8,0.3-3l0.3-2.2
	c0.1-0.2,0.1-0.3,0.3-0.3c0.1,0,0.3,0,0.5,0c0.2,0,0.4,0.1,0.5,0.2c0.1,0.1,0.2,0.2,0.2,0.4c0,0.2,0,0.3-0.1,0.5
	c0,0.2-0.1,0.4-0.1,0.6c1,0,2-0.1,3-0.3c1-0.2,2-0.5,3-0.7c1-0.3,2-0.5,3-0.7c1-0.2,2-0.3,3-0.3c0.1,0,0.3,0,0.4,0.1
	c0.1,0,0.2,0.2,0.3,0.4c-0.1,0.2-0.2,0.3-0.3,0.4c-0.1,0.1-0.4,0.2-0.7,0.3c-0.3,0.1-0.8,0.2-1.4,0.4c-0.6,0.1-1.3,0.3-2.2,0.5
	s-2,0.4-3.3,0.7c-1.3,0.3-2.8,0.6-4.6,1v2.8c0.5,0,1-0.1,1.6-0.2c1.1-0.2,1.9-0.3,2.5-0.3c0.6,0,1.1,0,1.4,0c0.4,0,0.8,0.1,1.3,0.3
	c1,0.4,1.6,1.2,1.8,2.5c0,0.9-0.2,1.7-0.7,2.3c-0.5,0.6-1.1,1.1-1.9,1.5c-1.4,0.7-3,1.1-4.9,1.1c-0.4,0-0.7,0-0.9-0.1
	c-0.2-0.1-0.3-0.3-0.3-0.6c0-0.3,0.1-0.6,0.3-0.8c0.2-0.3,0.5-0.4,0.8-0.4v0.4c1.7,0,2.9-0.1,3.7-0.4c0.7-0.2,1.3-0.6,1.8-1
	c0.4-0.4,0.7-1,0.7-1.6c0-0.6-0.1-1.1-0.4-1.4c-0.3-0.3-0.6-0.5-0.9-0.6c-0.6-0.2-1.2-0.3-2-0.3s-1.3,0.1-1.7,0.2
	c-0.4,0.1-0.7,0.2-1.1,0.4c-1,0.4-1.7,0.5-2.2,0.5h-0.3C1056.7,316.3,1056.5,316.1,1056.5,315.7z M1053.8,322
	c-0.3,0-0.5-0.2-0.5-0.4c0-0.3,0.2-0.6,0.5-0.9c0.1-0.1,0.3-0.2,0.3-0.2c0.1,0,0.1,0,0.2,0c0.3,0,0.5,0.1,0.6,0.2
	c0.1,0.1,0.2,0.3,0.2,0.5s0,0.4-0.1,0.5c-0.1,0.1-0.2,0.2-0.3,0.2C1054.4,321.9,1054.1,322,1053.8,322z M1045.9,311.6
	c-0.3,0.4-0.7,0.8-1.2,1.3c-0.5,0.4-0.9,0.8-1.3,1.2c-0.4,0.4-0.8,0.8-1.2,1.2c-0.3,0.4-0.6,0.8-0.6,1.3c0.1,0,0.3,0,0.7,0
	c0.3,0,0.8,0,1.5-0.1c0.6-0.1,1.4-0.2,2.1-0.3V311.6z M1046.3,322.3c-0.3,0-0.5-0.1-0.5-0.3l0.1-4.3h-1.6l-2.6,0h-1.6
	c-0.2,0-0.4,0-0.6-0.1c-0.2-0.1-0.3-0.2-0.3-0.5c0.8-1,1.5-2,2.2-3c2.3-3.1,3.8-4.7,4.7-4.7c0.9,0,1.4,1.7,1.4,5c0,0.4,0,0.9,0,1.4
	l4.8-0.1c0,0.4,0,0.6-0.1,0.8c-0.1,0.2-0.2,0.3-0.2,0.3l-4,0.3c-0.2,0.6-0.3,1.2-0.4,1.9c-0.1,1.1-0.1,2.1-0.1,2.9L1046.3,322.3z"/>
<path class="hflecha2" d="M863.4,155.8c6.5,0,11.8,5.3,11.8,11.8c0,6.5-5.3,11.8-11.8,11.8c-6.5,0-11.8-5.3-11.8-11.8
	C851.5,161.1,856.8,155.8,863.4,155.8"/>
<path class="hflecha1a" d="M584.2,181c6.5,0,11.8,5.3,11.8,11.8c0,6.5-5.3,11.8-11.8,11.8s-11.8-5.3-11.8-11.8
	C572.4,186.4,577.7,181,584.2,181"/>
<path class="hflecha1" d="M575.5,182c-11.5-40-83.3-33.9-96.8-62.6"/>
<path class="hflecha2linea" d="M866.6,150.1c14.6-80.5,53.5-17.8,70-74.3"/>
</svg>
