<?xml version="1.0" encoding="utf-8"?>
<!-- Generator: Adobe Illustrator 16.0.0, SVG Export Plug-In . SVG Version: 6.00 Build 0)  -->
<!DOCTYPE svg PUBLIC "-//W3C//DTD SVG 1.1//EN" "http://www.w3.org/Graphics/SVG/1.1/DTD/svg11.dtd">
<svg version="1.1" id="Capa_1" xmlns="http://www.w3.org/2000/svg" xmlns:xlink="http://www.w3.org/1999/xlink" x="0px" y="0px"
	 width="1442px" height="731.4px" viewBox="0 0 1442 731.4" style="enable-background:new 0 0 1442 731.4;" xml:space="preserve">
<style type="text/css">
<![CDATA[
	.impreDigFondo{fill-rule:evenodd;clip-rule:evenodd;fill:#777;opacity:0;}
	@keyframes impreDigColor{
		0%{opacity:0;}
		100%{opacity:1;
	}}
	.impreDigIndicadorLineas{fill:none;stroke:#000000;stroke-width:3;opacity:0;
		stroke-dasharray:350px;
		stroke-dashoffset:0;
		animation: impreDigLineas 1s forwards;
	}
	@keyframes impreDigLineas{
		0%{stroke-dashoffset:350px;opacity:1;}
		100%{stroke-dashoffset:0px;opacity:1;
	}}	
	.impreDigIndicadorNegro{fill-rule:evenodd;clip-rule:evenodd;opacity:0;
		animation: impreDigColor 0.5s forwards 1s;
	}
	.impreDigEtiquetaColor{fill-rule:evenodd;clip-rule:evenodd;opacity:0;
		animation: impreDigColor 0.5s forwards 2.5s;
	}
	.impreDigEtiquetaLinea{fill:none;stroke:#999999;stroke-width:3;opacity:0;
		stroke-dasharray:350px;
		stroke-dashoffset:0;
		animation: impreDigEtiquetaLinea 1s forwards 3s;
	}
	@keyframes impreDigEtiquetaLinea{
		0%{stroke-dashoffset:350px;opacity:1;}
		100%{stroke-dashoffset:0px;opacity:1;
	}}	
	.impreDigEtiquetaColorSombra{fill-rule:evenodd;clip-rule:evenodd;fill:#000000;opacity:0;
		animation: impreDigColor 0.5s forwards 2s;
	}
	.impreDigEtiquetaBlanco{fill-rule:evenodd;clip-rule:evenodd;fill:#FFFFFF;opacity:0;
		animation: impreDigColor 0.5s forwards 2s;
	}
	.impreDigEcoTxt{fill:#000000;opacity:0;
		animation: impreDigColor 0.5s forwards 5s;
	}	
	.impreDigLineaEco{fill:none;stroke:#000000;stroke-width:3;opacity:0;
		stroke-dasharray:250px;
		stroke-dashoffset:0;
		animation: impreDigLineaEco 1s forwards 6s;
	}
	@keyframes impreDigLineaEco{
		0%{stroke-dashoffset:250px;opacity:1;}
		100%{stroke-dashoffset:0px;opacity:1;
	}}	
	.impreDigEcoIndi{fill-rule:evenodd;clip-rule:evenodd;fill:#000000;opacity:0;
		animation: impreDigColor 0.5s forwards 7s;
	}
	.impreDigImagen{fill-rule:evenodd;clip-rule:evenodd;fill:#000000;opacity:0;
		animation: impreDigColor 0.5s forwards 10s;
	}
	.impreDigSombra{fill-rule:evenodd;clip-rule:evenodd;fill:#FFFFFF;opacity:0;
		animation: impreDigColor 0.5s forwards 9s;
	}
	.impreDigTu{fill-rule:evenodd;clip-rule:evenodd;fill:#FF6600;opacity:0;
		animation: impreDigColor 0.5s forwards 10s;
	}
]]>
</style>
<rect y="2" class="impreDigFondo" width="1440" height="729.4"/>
<g>
	<path class="impreDigIndicadorNegro" d="M372.6,274.2c-1.5-0.2-2.2-0.6-2.2-1c0-0.3,0.3-0.7,0.8-1.2c0.5-0.5,1-0.9,1.5-1.4c0-1.6-0.2-3.4-0.7-5.4
		c-0.5-2-0.8-3.5-1-4.6c-0.2-1.1-0.3-2.1-0.3-3c0-0.9,0.1-1.5,0.4-1.7c0.3-0.2,0.7-0.4,1.2-0.4c0.5,0,0.9,0.1,1,0.2
		c0.2,0.1,0.3,0.3,0.3,0.5c0.1,0.2,0.1,0.4,0.1,0.7c0,0.2,0.1,0.5,0.1,0.7c0.1,0.5,0.5,0.8,1.2,0.8c1.8,0,3.6-0.2,5.3-0.5
		c1.8-0.3,3.5-0.6,5.3-0.9c3.5-0.6,6-0.9,7.4-0.9s2.5,0,3.4,0.1c0,0.5,0.1,0.9,0.2,1.3s0.1,0.7,0.1,0.9c0,0.5-0.4,0.6-1.3,0.5
		c-13.9,0.5-20.8,1.5-20.8,3.1c0,1.7,0.1,3.2,0.4,4.4c0.2,1.2,0.4,2,0.5,2.3c0.1,0.3,0.3,0.5,0.4,0.5c1.5,0,3-0.1,4.6-0.4
		c1.6-0.3,3.1-0.6,4.7-0.9c1.6-0.3,3.1-0.6,4.7-0.9c1.6-0.3,3.1-0.4,4.6-0.4c0,0,0,0.1,0,0.3s0,0.4,0,0.7c-0.1,0.6-0.1,1,0,1
		c-1.1,0.6-3.2,1.2-6.2,1.6c-1.3,0.2-2.6,0.4-4,0.5c-1.4,0.2-2.6,0.3-3.7,0.5c-2.6,0.4-4.2,0.9-4.6,1.5l-0.4,7.8
		c-0.3,0.3-0.6,0.4-1,0.4L373,281c-0.1,0-0.3,0-0.4,0V274.2z"/>
	<path class="impreDigIndicadorNegro" d="M417.8,266.2c-1.1-0.8-2.6-1.2-4.3-1.2c-1.6,0-3.2,0.3-4.6,0.9c-2.7,1.1-4.5,2.6-5.5,4.3c-0.4,0.8-0.6,1.6-0.6,2.6
		c0,0.2,0,0.6,0,1.3c0,0.7,0.1,1.7,0.4,2.9c0.3,1.2,0.4,2.5,0.4,3.8c-0.6,0-1,0.1-1.4,0.2c-0.3,0.1-0.6,0.2-0.9,0.2
		s-0.4-0.1-0.6-0.3c-0.2-0.2-0.4-0.6-0.6-1.2c0-0.2-0.1-0.6-0.2-1.4c-0.1-0.7-0.2-1.6-0.3-2.7c-0.1-1.1-0.3-2.2-0.4-3.5
		c-0.1-1.3-0.3-2.5-0.4-3.7c-0.3-2.7-0.5-4.6-0.7-5.9c0-0.6,0.5-1,1.4-1c0.6,0,1,0.2,1.3,0.7s0.6,1,0.8,1.6c0.2,0.6,0.3,1.2,0.4,1.8
		s0.1,1,0.2,1.2c3.5-3.1,7.9-4.7,13.1-4.7c0.6,0,1.2,0,1.8,0c0.2,0,0.4,0,0.6,0c0.2,0,0.5,0.2,0.7,0.5c0.3,0.4,0.4,0.8,0.4,1.4
		C418.9,265.3,418.5,266.1,417.8,266.2z"/>
	<path class="impreDigIndicadorNegro" d="M421.7,273.2c0-3.1,1.4-5.7,4.1-7.6c2.2-1.5,4.7-2.4,7.8-2.8c0.2,0,0.5,0,1.1,0s1.4,0.2,2.4,0.5c2.2,0.7,3.7,2.1,4.5,3.9
		c0.3,0.7,0.5,1.4,0.5,1.9c0,0.5,0,0.9,0,1.1c0,3.3-1.3,5.9-3.8,7.9c-2.3,1.8-5.3,2.6-8.8,2.6c-2.5,0-4.4-0.6-5.7-1.8
		C422.4,277.9,421.7,276,421.7,273.2z M424.5,274.2c0,1.6,0.4,2.8,1.3,3.3c0.7,0.4,1.8,0.6,3.3,0.6c1.6,0,2.9-0.1,4.1-0.4
		c1.2-0.2,2.3-0.7,3.2-1.2c2-1.3,3-3.3,3-5.9c0-1.6-0.4-2.9-1.3-3.9c-0.9-1.1-2.2-1.6-3.7-1.6c-1,0.2-2.1,0.4-3.1,0.6
		c-1.1,0.2-2,0.6-3,1.2C426.4,268.2,425.1,270.6,424.5,274.2z"/>
	<path class="impreDigIndicadorNegro" d="M459.2,272.1c0-3.2-0.2-5.5-0.5-7c0.2-0.4-0.1-0.6-1-0.6c-0.9,0-2.1,0.2-3.5,0.7c-1.4,0.5-2.6,0.9-3.5,1.4
		c-2.2,1-3.3,2-3.6,3v10.8h-2.7c-0.3-0.9-0.5-3.4-0.5-7.6c0-3.7,0.1-6.5,0.2-8.2c0.1-1.8,0.3-2.8,0.3-3c0.7-0.5,1.2-0.7,1.7-0.7
		c0.7,0,1,0.8,1,2.4c0,0.6,0,1.2-0.1,1.8c-0.1,0.6-0.1,1-0.1,1.2c4.3-3.2,7.6-4.7,10-4.7c2.7,0,4.2,2.2,4.6,6.5
		c0.2,1.5,0.2,3.6,0.2,6.3l0,3.1c0,1.2,0,2.3,0.1,3.4c-0.3,0.2-0.5,0.2-0.6,0.2c-0.1,0-0.3-0.1-0.5-0.1c-0.3-0.1-0.6-0.1-1-0.1
		c-0.3-1.1-0.4-2.1-0.4-3.2s0-2.1,0-3L459.2,272.1z"/>
	<path class="impreDigIndicadorNegro" d="M470.1,277l0.1-6.4c0-1-0.1-1.9-0.3-2.6h-6.2l-0.1-2.8h6V255c0.1-0.2,0.2-0.5,0.5-0.7c0.4-0.4,0.7-0.6,0.9-0.6
		c0.3,0,0.5,0,0.7,0.1c0.2,0.1,0.4,0.2,0.6,0.6c0.4,1.8,0.6,4.4,0.6,7.9c0,0.9,0,1.7,0.1,2.6c0.9-0.1,1.7-0.2,2.6-0.2h2.1
		c0.5,0,1,0,1.4-0.1l-0.1,2.9l-5.8-0.2l0.2,13.7c-0.5,0.2-0.9,0.3-1.2,0.3C470.8,281.4,470.1,279.9,470.1,277z"/>
</g>
<path class="impreDigIndicadorNegro" d="M774.8,433.4c14.5,0,26.3,11.8,26.3,26.3c0,14.5-11.8,26.3-26.3,26.3s-26.3-11.8-26.3-26.3
	C748.5,445.2,760.3,433.4,774.8,433.4"/>
<path class="impreDigIndicadorLineas" d="M781.2,460.4c-104.7-111.8-194.1-27.1-291.4-138.7"/>
<polygon class="impreDigIndicadorNegro" points="484.1,319.5 477.8,327.1 480.1,299.6 501.9,316.4 492.1,316 505.5,324.5 489.9,321.8 481.3,335.1 "/>
<path class="impreDigIndicadorLineas" d="M781.2,460.4c-133.7-74.8-193.2,32.9-319.7-43.9"/>
<polygon class="impreDigIndicadorNegro" points="455.3,416.1 451.6,425.2 445.6,398.3 471.4,407.8 462,410.3 477.3,414.4 461.6,416.5 457.5,431.8 "/>
<path class="impreDigIndicadorLineas" d="M781.2,460.4c-152.1-17.9-165.8,104.5-312.1,82"/>
<polygon class="impreDigIndicadorNegro" points="463.3,544.4 463.3,554.2 447.4,531.8 474.9,530.5 467.1,536.5 482.9,534.4 469.1,542.4 471.2,558.1 "/>
<g>
	<path class="impreDigIndicadorNegro" d="M342.3,348.6c2-0.4,3.8-0.6,5.6-0.6c1.8,0,3.3,0.1,4.7,0.2c1.4,0.1,2.7,0.4,4.1,0.8c2.9,0.8,4.7,1.9,5.4,3.3
		c0.2,0.3,0.3,0.6,0.3,1c0,1.2-1,2.4-3.1,3.8c-1.4,0.9-3.3,1.8-5.8,2.8c6.2,0.3,10.4,1.2,12.6,2.7c1.2,0.8,1.8,1.7,1.8,2.7
		c0,1.4-1,2.9-3,4.5c-2.2,1.6-5,3-8.4,4.1c-3.2,1-6.1,1.5-8.8,1.5c-2.1,0-3.9-0.3-5.3-0.9c-0.1-1.7-0.1-3.5-0.2-5.3
		c-0.2-4-0.3-7.4-0.3-10.1s0.1-5.6,0.3-8.6c-0.3,0-0.6,0-0.8-0.1c-0.2-0.1-0.4-0.3-0.4-0.8C340.9,348.9,341.3,348.6,342.3,348.6z
		 M349.6,350.5h-1c-2.2,0-3.4,0.2-3.7,0.7l-0.4,8c2.4,0,5.3-0.6,8.7-1.7c2.2-0.8,3.9-1.6,4.9-2.6c0.5-0.5,0.8-1,0.8-1.5
		c0-0.5-0.2-0.9-0.6-1.3c-0.4-0.3-0.9-0.6-1.5-0.8c-0.6-0.2-1.3-0.4-2-0.5c-0.7-0.1-1.4-0.2-2.1-0.3
		C351.7,350.6,350.6,350.5,349.6,350.5z M345.9,372.4c4.3-0.2,7.8-0.8,10.5-1.5c2.7-0.8,4.7-1.6,5.9-2.6c1.2-0.9,1.8-1.8,1.8-2.6
		c0-1.1-0.8-2-2.4-2.7c-1.7-0.7-4-1-6.9-1c-2.9,0-6.2,0.4-9.9,1.2L345.9,372.4z"/>
	<path class="impreDigIndicadorNegro" d="M385.4,368.4c-2,3.1-4.6,5.1-8,5.8c-0.8,0.2-1.5,0.2-2.1,0.2c-0.6,0-1.1,0-1.6,0c-0.4,0-0.9-0.1-1.4-0.2
		c-0.5-0.1-1-0.3-1.4-0.5c-1-0.6-1.5-1.3-1.5-2.4c-0.1-0.5-0.2-1-0.2-1.6c0-0.6,0.1-1.4,0.4-2.4c0.3-1,0.8-2,1.5-3.2
		c0.7-1.1,1.6-2.2,2.6-3.1c2.1-2,4.4-3.3,6.8-3.9c0.7-0.2,1.4-0.2,2-0.2s1.1,0,1.6,0.1c1.5,0,2.6,1.1,3.1,3.1
		c0.3,1.3,0.6,3.2,0.6,5.6c0.1,2.4,0.1,4.2,0.2,5.5c0.1,1.3,0.2,2.5,0.5,3.5h-2.4c-0.1-0.7-0.2-1.4-0.2-1.9
		c-0.1-0.6-0.1-1.1-0.2-1.6C385.8,370.2,385.6,369.2,385.4,368.4z M385.3,362.2c0-1.5-0.8-2.3-2.3-2.3c-0.2,0-0.4,0-0.6,0
		c-1.9,0-4,0.9-6.1,2.8c-1,0.9-1.9,1.8-2.6,2.9c-1.1,1.5-1.6,2.9-1.6,4.1c0,1.6,0.9,2.5,2.7,2.8c2.4-0.1,4.7-1.1,6.9-3.3
		c0.9-0.9,1.7-1.9,2.3-3C384.8,364.7,385.3,363.4,385.3,362.2z"/>
	<path class="impreDigIndicadorNegro" d="M406.7,370.8c1.1-0.4,2.1-0.8,3.2-1.2s2-0.6,3-0.6c0.9,0,1.4,0.3,1.4,0.9c0,0.1,0,0.3-0.1,0.6c-0.1,0.3-0.4,0.6-1.1,1
		c-0.7,0.4-1.4,0.8-2.4,1.1c-0.9,0.3-2,0.7-3.1,1c-1.1,0.3-2.2,0.5-3.3,0.8c-2.2,0.5-3.8,0.7-4.7,0.7c-0.9,0-1.9-0.1-3-0.3
		c-1.1-0.2-2.1-0.6-3-1c-2.2-1.1-3.2-2.8-3.2-4.9c0-0.2,0-0.5,0-1c0-0.5,0.2-1.2,0.6-2.1c0.4-0.9,1-1.8,1.8-2.7s1.7-1.7,2.8-2.5
		c2.2-1.6,4.6-2.6,7-3.1c0.9-0.2,1.6-0.3,2.1-0.3c0.6,0,1,0,1.4,0c0.4,0,0.8,0,1.2,0.1c0.4,0,0.7,0.1,1,0.3c0.7,0.3,1,1,1,2
		c0,0.6-0.5,1.3-1.4,1.9c-0.2,0.2-0.5,0.3-0.6,0.4c-0.1-0.6-0.3-1.1-0.5-1.6c-0.2-0.4-0.7-0.6-1.4-0.6c-3.1,0.7-5.8,1.7-8.1,3
		c-2.6,1.5-3.8,3.1-3.8,4.8c0,0.2,0,0.4,0,0.6c0,1.7,0.7,2.9,2,3.6c1,0.5,2.3,0.8,3.8,0.8s2.9-0.2,4-0.5
		C404.5,371.7,405.6,371.3,406.7,370.8z"/>
	<path class="impreDigIndicadorNegro" d="M420.3,367.8l0.2,3.5c0,2.1-0.5,3.4-1.5,3.9c-0.2,0.1-0.5,0.1-0.8,0.1c-0.3,0-0.6-0.1-1-0.2l0-14.9c0-2.2-0.1-4.3-0.4-6.5
		c-0.3-2.2-0.4-4.3-0.4-6.5c0-0.9,0.5-1.3,1.4-1.3h0.3c0.2,0,0.3,0,0.4,0c0.4,1.6,0.7,3.6,0.8,6c0.3,5.2,0.6,8.7,0.8,10.4
		c0.5-0.2,1.5-0.9,3-2c1.6-1.1,2.8-2,3.8-2.7s1.9-1.3,2.7-1.9c2-1.3,3.2-2,3.7-2c0.4,0,0.8,0.3,1,0.8c-1.3,1.7-3.5,3.5-6.4,5.6
		c-1.2,0.8-2.4,1.6-3.6,2.5c-1.2,0.8-2.3,1.7-3.2,2.5c1.8,0.5,3.5,1,5.1,1.5c1.6,0.5,3.1,1,4.6,1.4c3.4,1,6.4,1.6,8.8,1.7
		c0,0.7-0.1,1.2-0.2,1.4c-0.2,0.4-0.7,0.6-1.5,0.6h-0.3c-1.6-0.5-3.8-1-6.5-1.5C425.9,369.2,422.3,368.3,420.3,367.8z"/>
</g>
<g>
	<path class="impreDigIndicadorNegro" d="M361.6,483.3h1.1c0.5,0,0.9,0,1.3,0.1c0.4,0.1,0.6,0.4,0.6,0.9c0.2,1.1-0.4,1.6-1.9,1.6c-0.4,0-0.8-0.1-1.1-0.1
		c-0.3,0-0.6,0-0.8,0c-0.2,0-0.3,0.1-0.3,0.2c0.3,0.8,0.6,1.6,0.9,2.6c0.3,1,0.6,1.9,1,2.9c1,2.4,1.9,4.1,2.7,5.1
		c-0.5,0.6-1,1-1.6,1.4c-0.6,0.4-0.9,0.6-1,0.6c0,0-0.1,0-0.1,0l-5.6-11.8l-10.9,2.7l-0.4,1.7c-0.8,3.1-1.6,5.2-2.6,6.4
		c-0.2,0.3-0.5,0.3-1,0.1c-0.9-0.3-1.3-0.6-1.3-0.8c0-0.1,0.3-0.8,0.8-2.3c0.6-1.5,1.1-3,1.7-4.5c0.6-1.5,1.2-3.1,1.8-4.8
		c0.6-1.7,1.2-3.3,1.8-4.8c0.6-1.5,1.1-2.9,1.5-4.1c0.5-1.2,0.8-2.1,1-2.6c0.2-0.5,0.3-1,0.4-1.4c0.1-0.4,0.2-0.8,0.3-1.1
		c0.3-0.6,0.9-0.9,2-0.9c1.1,0.6,2,1.5,2.6,2.5c0.6,1,1.2,2.1,1.6,3.3s0.9,2.4,1.3,3.5c0.4,1.2,1,2.3,1.7,3.3
		c0.2,0.4,0.6,0.6,1.1,0.6C360.8,483.3,361.2,483.3,361.6,483.3z M351.6,474.7c-0.2,1.6-0.7,3.3-1.4,5c-0.7,1.7-1.3,3-1.8,4
		c-0.5,0.9-0.8,1.8-1.2,2.6c1.8,0,4-0.5,6.7-1.6c0.7-0.3,1.3-0.6,1.9-0.8C354.5,478.5,353.1,475.5,351.6,474.7z"/>
	<path class="impreDigIndicadorNegro" d="M385.5,473.4c-0.1,2.4-0.3,4.8-0.4,7.1c-0.1,2.3-0.2,4.8-0.2,7.4s0.2,5.4,0.6,8.3c0,0.6-0.1,1-0.3,1.3s-0.6,0.4-1.1,0.4
		c-1.2,0-1.9-1-1.9-3.1v-1.3c-3.8,2.8-7,4.2-9.6,4.2c-1,0-2.1-0.3-3.2-0.8c-1.1-0.5-2.1-1.5-3-3.1c-0.1-0.6-0.2-1.3-0.2-2
		c0-0.7,0.1-1.5,0.4-2.4c0.3-0.9,0.8-1.9,1.6-2.9c0.8-1,1.7-1.9,2.8-2.7c2.4-1.6,5.1-2.5,7.9-2.5c1.2,0,2.4,0.2,3.5,0.6
		c0-0.5,0-1.3,0.1-2.5c0.1-1.2,0.1-2.5,0.2-3.8c0.2-3.5,0.3-5.5,0.3-6.1c0.1-0.6,0.1-1.2,0.2-1.6c0.1-0.4,0.2-0.8,0.4-1.1
		c0.4-0.7,1.1-1,2.1-1C385.7,468.5,385.7,470.9,385.5,473.4z M369.1,491.7c0,2.1,0.8,3.1,2.3,3.1c0.2,0,0.5,0,0.8-0.1
		c1.1,0,2.4-0.3,4-1c3-1.2,4.9-2.2,5.5-3.1v-5.3c0-0.9-0.8-1.4-2.3-1.4c-0.2,0-0.4,0-0.7,0c-0.3,0-0.8,0.1-1.4,0.2
		c-0.6,0.1-1.4,0.4-2.2,0.7c-0.8,0.3-1.6,0.8-2.4,1.3c-1.6,1.1-2.7,2.4-3.3,3.8C369.2,490.5,369.1,491.1,369.1,491.7z"/>
	<path class="impreDigIndicadorNegro" d="M406.6,497.4c-0.2,0.5-0.9,0.7-1.9,0.7c-1,0-1.5-0.4-1.5-1.1c0-3.1-0.1-5.3-0.2-6.5c-0.2-2.6-0.7-4-1.5-4.1
		c-1.9-0.4-3.5-0.6-4.7-0.6c-1.2,0-2.2,0.4-3,1.1c-0.8,0.7-1.4,1.9-1.8,3.6c-0.4,1.7-0.7,4.1-0.9,7.1h-3.1c0.1-1.5,0.1-2.9,0.1-4.2
		c0-1.3,0-2.8-0.1-4.6c-0.1-1.8-0.1-3.8-0.2-5.9c-0.1-2.4-0.2-4.5-0.2-6.2c0-1.7,0.1-3.2,0.3-4.6c0.3-0.5,0.7-0.8,1.2-0.8
		c0.6,0,1.1,0.2,1.4,0.7c0.3,0.4,0.5,0.8,0.6,1.2l-0.2,6.6c0,2.5,0.1,4.3,0.4,5.5c2.4-1.6,4.9-2.4,7.4-2.4c0.8,0,1.7,0.1,2.6,0.2
		c2,1,3.3,2.1,3.9,3.3c0.3,0.6,0.5,1.3,0.6,2c0.1,0.7,0.1,1.5,0.2,2.4C406.1,493.7,406.3,495.9,406.6,497.4z"/>
	<path class="impreDigIndicadorNegro" d="M416.2,495.1c2.3,0,5.9-1.1,10.6-3.2c0.3,0,0.5,0.1,0.7,0.3c0.2,0.2,0.3,0.4,0.3,0.7c-1.1,1.8-3.1,3.2-6.1,4.2
		c-3,1-5.8,1.2-8.4,0.5c-2.9-0.8-4.7-2.4-5.4-5c-0.1-0.5-0.1-1.2-0.1-2c0-0.8,0.2-2,0.7-3.4c0.4-1.4,1.2-2.7,2.3-4
		c1.1-1.2,2.3-2.2,3.7-2.9c1.4-0.7,3-1.1,4.6-1.1c1.5,0,3.3,0.5,5.2,1.6c0.9,0.5,1.6,1.1,2.2,1.7c0.5,0.6,0.8,1.3,0.8,2
		c0,0.2,0,0.4,0,0.6c-0.1,1.6-0.8,2.6-2.4,3.1c-0.7,0.2-1.4,0.3-2.3,0.3l-5.7-0.2c-1.9,0-3.4,0.4-4.4,1.2c-0.6,0.5-1,1.1-1.2,2
		C411.7,493.9,413.4,495.1,416.2,495.1z M423.3,482.8c-0.6-0.4-1.2-0.7-1.9-0.9c-0.6-0.2-1.2-0.3-1.6-0.3c-0.4,0-1.1,0.1-2.1,0.4
		c-1,0.3-1.8,0.6-2.6,0.9c-1.8,0.9-2.8,1.7-2.8,2.7c2.1,0.2,3.7,0.3,4.8,0.3c2.9,0,4.9-0.3,6-0.8c0.6-0.3,1-0.6,1-1
		C424.2,483.7,423.9,483.2,423.3,482.8z"/>
	<path class="impreDigIndicadorNegro" d="M443.7,487.6c2.9,0,4.4,0.7,4.4,2.2c0,1.1-0.8,2.4-2.4,3.9c-2.4,2.2-5.7,4-9.8,5.3c-0.2,0-0.4-0.2-0.6-0.6
		s-0.4-0.7-0.5-0.9c-0.1-0.2-0.2-0.3-0.3-0.4c3.1-1,5.6-2.2,7.5-3.7c1.3-1,2-1.7,2-2.4s-0.8-0.9-2.4-0.9c-1.6,0-3.9,0.4-6.9,1.1
		c-1.4-0.1-2.6-0.5-3.6-1.5c-0.9-0.8-1.3-1.7-1.3-2.5s0.2-1.6,0.7-2.3c0.5-0.7,1.1-1.4,1.9-2c0.8-0.6,1.7-1.2,2.8-1.7
		c2.6-1.2,5.3-1.9,8.1-1.9c0.8,0,1.6,0.1,2.4,0.2c0.6,0,1,0.3,1.1,0.8c0.1,0.6,0.2,1.5,0.2,2.8c-1.6-0.7-3.3-1.1-5.3-1.1
		c-2.4,0-4.5,0.5-6.1,1.5c-1.6,1-2.5,2.2-2.6,3.7c0,0.7,0.5,1.1,1.6,1.1l2.9-0.3C440.2,487.9,442.2,487.6,443.7,487.6z"/>
	<path class="impreDigIndicadorNegro" d="M450.5,473.8c0-0.9,0.5-1.4,1.6-1.4c0.7,0,1.3,0.2,1.8,0.5c0.1,0.3,0.1,0.6,0.1,0.9c0,0.3-0.1,0.6-0.3,0.8
		c-0.2,0.3-0.5,0.4-1,0.4c-0.4,0-0.9-0.1-1.3-0.3C451,474.4,450.7,474.1,450.5,473.8z M454.2,479.2c0.3,5,0.6,10.7,0.9,17.3
		c-0.2,0.8-0.8,1.2-1.9,1.2c-0.3,0-0.6-0.1-0.9-0.2c-0.3-0.1-0.5-0.3-0.6-0.5v-17.8H454.2z"/>
	<path class="impreDigIndicadorNegro" d="M457.1,482.5c-0.1-0.1-0.1-0.3-0.1-0.5s0.1-0.4,0.2-0.7c0.1-0.3,0.3-0.5,0.6-0.8c0.3-0.2,0.5-0.3,0.8-0.3
		c0.3,0,0.6,0.2,0.7,0.6l6.7,12.4c0.2-0.3,0.6-0.9,1-1.8c0.5-0.9,1-1.8,1.6-2.9c0.6-1.1,1.2-2.2,1.9-3.4c0.7-1.2,1.3-2.3,1.8-3.2
		c1.3-2.3,2-3.4,2.3-3.4c0.6,0,1,0.2,1.2,0.6c0.3,0.4,0.4,0.7,0.4,0.9c0,0.2,0,0.4,0,0.4c-1.5,3.2-2.9,6.2-4.1,9
		c-1.3,2.7-2.1,4.5-2.5,5.3c-0.4,0.8-0.8,1.5-1.1,1.9c-0.6,0.8-1.1,1.2-1.6,1.2c-0.5,0-1.1-0.4-1.8-1.3s-1.5-2-2.4-3.4
		C461.2,490.8,459.3,487.2,457.1,482.5z"/>
	<path class="impreDigIndicadorNegro" d="M478.9,490.3c0-3.1,1.4-5.7,4.1-7.6c2.2-1.5,4.7-2.4,7.8-2.8c0.2,0,0.5,0,1.1,0s1.4,0.2,2.4,0.5c2.2,0.7,3.7,2.1,4.5,3.9
		c0.3,0.7,0.5,1.4,0.5,1.9c0,0.5,0,0.9,0,1.1c0,3.3-1.3,5.9-3.8,7.9c-2.3,1.8-5.3,2.6-8.8,2.6c-2.5,0-4.4-0.6-5.7-1.8
		C479.6,495,478.9,493.1,478.9,490.3z M481.7,491.3c0,1.6,0.4,2.8,1.3,3.3c0.7,0.4,1.8,0.6,3.3,0.6c1.6,0,2.9-0.1,4.1-0.4
		c1.2-0.2,2.3-0.7,3.2-1.2c2-1.3,3-3.3,3-5.9c0-1.6-0.4-2.9-1.3-3.9c-0.9-1.1-2.2-1.6-3.7-1.6c-1,0.2-2.1,0.4-3.1,0.6
		c-1.1,0.2-2,0.6-3,1.2C483.6,485.3,482.3,487.8,481.7,491.3z"/>
</g>
<path class="impreDigEtiquetaColorSombra" d="M765.7,35.6c2.8,1.4,4.7,4.2,4.7,7.5v144c0,4.6-3.7,8.3-8.3,8.3H358.5c-3.8,0-7.1-2.6-8-6.2
	c1.1,0.5,2.3,0.8,3.6,0.8h403.5c4.6,0,8.3-3.7,8.3-8.3v-144C766,37,765.9,36.3,765.7,35.6"/>
<path class="impreDigEtiquetaBlanco" d="M354.1,29.4h403.5c4.6,0,8.3,3.7,8.3,8.3v144c0,4.6-3.7,8.3-8.3,8.3H354.1c-4.6,0-8.3-3.7-8.3-8.3v-144
	C345.8,33.1,349.6,29.4,354.1,29.4"/>
<line class="impreDigEtiquetaLinea" x1="380.8" y1="81.3" x2="722.9" y2="81.3"/>
<g>
	<path class="impreDigEtiquetaColor" d="M414.6,71.7c0,0.5-0.3,0.7-1,0.7c-0.5,0-1.1-0.2-1.9-0.7c-0.3-0.8-0.5-2.6-0.5-5.6s0-5.3,0.1-7.3c0.1-1.9,0.1-3.7,0.2-5.3
		c0.2-3.5,0.3-5.4,0.3-5.6c0.8-0.5,1.5-0.7,2.1-0.7c0.5,0,0.8,0.2,0.8,0.7V71.7z"/>
	<path class="impreDigEtiquetaColor" d="M421.5,71.7c-1.2,0.5-2,0.7-2.3,0.7s-0.7,0-0.8-0.1c-0.1-0.1-0.3-0.3-0.5-0.6c0-0.9,0-2.1,0.1-3.6c0.1-1.4,0.1-3,0.2-4.6
		c0.1-1.6,0.1-3.3,0.1-4.9c0-1.7-0.1-3.2-0.3-4.6c0-0.9,0.6-1.4,1.9-1.4c0.3,0,0.5,0.5,0.7,1.5s0.3,1.8,0.3,2.4
		c0.1,0.6,0.1,1,0.2,1.2c0.7-1.3,2.2-2.4,4.4-3.2c1.2-0.4,2.3-0.6,3.3-0.6c1,0,1.9,0.1,2.7,0.4c0.8,0.2,1.5,0.7,2,1.3
		c0.6,0.6,0.8,1.5,0.8,2.6c0.7-1.4,2.4-2.7,5-3.8c2.4-1.1,4.5-1.6,6.4-1.6c2.7,0,4.1,1,4,3.1l0.9,16c0,0.1-0.4,0.2-1.2,0.3
		c-1.6,0.1-2.4,0-2.4-0.4c0-0.6,0-1.1,0-1.7l0.2-6.9c0-3.2-0.3-5.8-0.9-7.7c-1.9,0.1-3.3,0.5-4.4,0.9c-1,0.5-1.9,1.1-2.7,1.8
		c-0.8,0.7-1.5,1.6-2.1,2.8c-1.3,2.6-2,6.1-2,10.5c-0.2,0.6-0.7,0.9-1.7,0.9c-0.6,0-1.1-0.1-1.5-0.3c-0.4-0.2-0.6-0.4-0.5-0.6
		c0.5-3,0.8-5.4,0.8-7.1c0-1.3-0.1-2.6-0.4-3.9c-0.3-1.2-0.6-2.6-1-4.2c-4.1,0-6.9,1.6-8.3,4.9c-0.6,1.5-1,2.8-1.1,4.1
		c-0.1,1.3-0.1,2.4-0.1,3.3S421.4,70.6,421.5,71.7z"/>
	<path class="impreDigEtiquetaColor" d="M456.3,55.1c3.9-1.3,7.3-2,10.1-2c3.6,0,6,0.9,7.2,2.8c0.5,0.9,0.8,1.9,0.8,2.9c0,1.4-0.5,2.9-1.4,4.4
		c-0.9,1.5-2.1,2.9-3.6,4.1c-3.5,2.8-7.7,4.6-12.7,5.3c0,0.3,0,0.8,0,1.5c0,0.7,0,1.5,0,2.3c0,0.9,0,1.8,0,2.8c0,1,0,1.9,0.1,2.8
		c0.1,2.2,0.2,3.5,0.2,3.8c0,0.3,0.1,0.6,0.1,0.8c0,0.7-0.2,1.3-0.7,1.6c-0.5,0.4-1.1,0.5-1.8,0.5c-0.1,0-0.3,0-0.4,0l-0.7-34.6
		c0.3-0.4,0.6-0.5,1-0.5c0.4,0,0.8,0.1,1,0.3C456,54.2,456.2,54.6,456.3,55.1z M468.9,56.6c-0.9-0.5-2-0.7-3-0.7s-2.1,0.1-3.2,0.3
		c-2.4,0.5-4.2,1.5-5.3,3.1c-0.5,0.7-0.8,1.7-0.8,2.8c0,0.1,0,0.2,0,0.3v7.4c5.9-1.3,10.1-3.2,12.6-5.5c1.4-1.3,2.2-2.7,2.2-4.2
		C471.3,58.6,470.5,57.4,468.9,56.6z"/>
	<path class="impreDigEtiquetaColor" d="M497.8,56.6c-1.2-0.9-2.8-1.3-4.6-1.3c-1.8,0-3.4,0.3-4.9,1c-2.9,1.2-4.8,2.8-5.9,4.6c-0.5,0.9-0.7,1.8-0.7,2.8
		c0,0.2,0,0.7,0,1.4c0,0.8,0.1,1.9,0.4,3.2c0.3,1.3,0.4,2.7,0.4,4.1c-0.6,0-1.1,0.1-1.5,0.2c-0.4,0.1-0.7,0.2-0.9,0.2
		s-0.5-0.1-0.7-0.3c-0.2-0.2-0.4-0.7-0.6-1.3c0-0.2-0.1-0.7-0.2-1.5c-0.1-0.8-0.2-1.8-0.3-2.9c-0.1-1.1-0.3-2.4-0.4-3.8
		c-0.2-1.4-0.3-2.7-0.5-4c-0.3-2.9-0.6-5-0.7-6.3c0-0.7,0.5-1,1.5-1c0.6,0,1.1,0.3,1.4,0.8s0.6,1.1,0.8,1.7c0.2,0.6,0.3,1.3,0.4,1.9
		c0.1,0.6,0.1,1.1,0.2,1.3c3.8-3.4,8.5-5.1,14.1-5.1c0.6,0,1.3,0,2,0c0.2,0,0.4,0,0.6,0s0.5,0.2,0.8,0.5c0.3,0.4,0.5,0.9,0.5,1.5
		C499,55.7,498.6,56.5,497.8,56.6z"/>
	<path class="impreDigEtiquetaColor" d="M509.8,69.3c2.5,0,6.3-1.1,11.4-3.4c0.3,0,0.6,0.1,0.8,0.3c0.2,0.2,0.3,0.5,0.3,0.8c-1.1,2-3.3,3.5-6.6,4.6
		c-3.2,1.1-6.3,1.3-9.1,0.6c-3.2-0.8-5.1-2.6-5.8-5.4c-0.1-0.5-0.1-1.3-0.1-2.2c0-0.9,0.2-2.1,0.7-3.6c0.5-1.5,1.3-2.9,2.4-4.3
		c1.1-1.3,2.5-2.4,4-3.2c1.5-0.8,3.2-1.2,4.9-1.2c1.7,0,3.5,0.6,5.6,1.7c1,0.5,1.7,1.2,2.3,1.9c0.6,0.7,0.9,1.4,0.9,2.1
		c0,0.2,0,0.4,0,0.6c-0.1,1.8-0.9,2.9-2.5,3.3c-0.7,0.2-1.5,0.3-2.5,0.3l-6.2-0.3c-2.1,0-3.6,0.4-4.7,1.3c-0.6,0.5-1.1,1.2-1.3,2.2
		C505,68,506.9,69.3,509.8,69.3z M517.5,56c-0.6-0.5-1.3-0.8-2-1s-1.3-0.3-1.7-0.3c-0.5,0-1.2,0.2-2.2,0.5s-2,0.6-2.8,1
		c-2,0.9-3,1.9-3,2.9c2.3,0.2,4,0.3,5.2,0.3c3.2,0,5.3-0.3,6.5-0.8c0.7-0.3,1-0.6,1-1.1C518.5,57,518.1,56.5,517.5,56z"/>
	<path class="impreDigEtiquetaColor" d="M539.6,61.3c3.2,0,4.7,0.8,4.7,2.4c0,1.2-0.9,2.6-2.6,4.2c-2.6,2.4-6.1,4.3-10.5,5.7c-0.2,0-0.4-0.2-0.7-0.6
		c-0.2-0.4-0.4-0.7-0.6-0.9c-0.1-0.2-0.2-0.4-0.3-0.4c3.3-1.1,6-2.4,8.1-4c1.4-1,2.2-1.9,2.2-2.5c0-0.7-0.8-1-2.5-1
		c-1.7,0-4.2,0.4-7.4,1.2c-1.5-0.1-2.8-0.6-3.9-1.6c-0.9-0.9-1.4-1.8-1.4-2.7s0.3-1.7,0.8-2.5c0.5-0.8,1.2-1.5,2.1-2.1
		c0.9-0.7,1.9-1.3,3-1.8c2.8-1.3,5.7-2,8.7-2c0.9,0,1.7,0.1,2.6,0.3c0.7,0,1.1,0.3,1.2,0.9c0.1,0.6,0.2,1.6,0.2,3
		c-1.7-0.8-3.6-1.2-5.7-1.2c-2.6,0-4.8,0.5-6.5,1.6c-1.8,1-2.7,2.4-2.8,4c0,0.8,0.6,1.2,1.8,1.2l3.1-0.3
		C535.8,61.5,538,61.3,539.6,61.3z"/>
	<path class="impreDigEtiquetaColor" d="M546.9,46.3c0-1,0.6-1.5,1.8-1.5c0.8,0,1.4,0.2,1.9,0.5c0.1,0.3,0.1,0.6,0.1,0.9s-0.1,0.6-0.3,0.9c-0.2,0.3-0.6,0.4-1,0.4
		s-0.9-0.1-1.4-0.3C547.4,47,547.1,46.7,546.9,46.3z M550.9,52.1c0.4,5.4,0.7,11.6,0.9,18.6c-0.2,0.9-0.9,1.3-2.1,1.3
		c-0.3,0-0.6-0.1-1-0.2c-0.3-0.1-0.5-0.3-0.6-0.5V52.1H550.9z"/>
	<path class="impreDigEtiquetaColor" d="M554.7,64.2c0-3.4,1.5-6.1,4.4-8.2c2.3-1.6,5.1-2.6,8.4-3c0.2,0,0.6,0,1.2,0c0.6,0,1.5,0.2,2.5,0.6c2.4,0.8,4,2.2,4.8,4.3
		c0.3,0.8,0.5,1.5,0.5,2c0,0.6,0,1,0,1.2c0,3.6-1.4,6.4-4.1,8.5c-2.5,1.9-5.7,2.8-9.5,2.8c-2.7,0-4.8-0.6-6.2-1.9
		C555.4,69.2,554.7,67.1,554.7,64.2z M557.7,65.2c0,1.8,0.5,3,1.4,3.6c0.7,0.5,1.9,0.7,3.6,0.7c1.7,0,3.2-0.1,4.5-0.4
		c1.3-0.3,2.4-0.7,3.4-1.3c2.2-1.4,3.2-3.5,3.2-6.4c0-1.7-0.5-3.1-1.4-4.2c-1-1.2-2.3-1.8-4-1.8c-1.1,0.2-2.2,0.4-3.4,0.6
		c-1.1,0.2-2.2,0.7-3.2,1.3C559.8,58.8,558.4,61.4,557.7,65.2z M565.3,46.3c0.4-0.5,0.8-0.8,1.3-0.8c0.3,0,0.5,0.1,0.6,0.4
		c0.1,0.3,0.2,0.5,0.2,0.8c0,0.3-0.1,0.5-0.2,0.7c-0.1,0.2-0.3,0.5-0.6,0.8c-0.5,0.5-1.5,1.4-3,2.7l-1.3-1.2L565.3,46.3z"/>
	<path class="impreDigEtiquetaColor" d="M595.2,62.9c0-3.4-0.2-5.9-0.6-7.5c0.2-0.4-0.1-0.6-1-0.6c-1,0-2.2,0.2-3.8,0.7c-1.5,0.5-2.8,1-3.8,1.5
		c-2.3,1.1-3.6,2.2-3.9,3.3v11.7h-2.9c-0.4-1-0.6-3.7-0.6-8.2c0-4,0.1-7,0.2-8.9c0.2-1.9,0.3-3,0.4-3.2c0.7-0.5,1.3-0.7,1.8-0.7
		c0.7,0,1.1,0.8,1.1,2.5c0,0.7,0,1.3-0.1,1.9c-0.1,0.6-0.1,1-0.1,1.3c4.6-3.4,8.2-5.1,10.8-5.1c2.9,0,4.5,2.3,4.9,7
		c0.2,1.6,0.3,3.9,0.3,6.8l0,3.4c0,1.3,0,2.5,0.1,3.7c-0.3,0.2-0.5,0.3-0.7,0.3c-0.1,0-0.3-0.1-0.6-0.1c-0.3-0.1-0.7-0.1-1.1-0.1
		c-0.3-1.1-0.4-2.3-0.5-3.5c0-1.2,0-2.3,0-3.3L595.2,62.9z"/>
	<path class="impreDigEtiquetaColor" d="M638.2,45.9c-0.2,2.6-0.3,5.2-0.4,7.7c-0.1,2.5-0.2,5.2-0.2,8c0,2.8,0.2,5.8,0.6,9c0,0.7-0.1,1.1-0.4,1.4
		c-0.2,0.3-0.7,0.4-1.2,0.4c-1.3,0-2-1.1-2-3.4v-1.4c-4.1,3-7.5,4.6-10.3,4.6c-1.1,0-2.3-0.3-3.4-0.8c-1.2-0.5-2.3-1.6-3.3-3.3
		c-0.1-0.7-0.2-1.4-0.2-2.1c0-0.7,0.1-1.6,0.4-2.6c0.3-1,0.8-2.1,1.7-3.2c0.8-1.1,1.9-2.1,3.1-2.9c2.6-1.8,5.5-2.7,8.6-2.7
		c1.3,0,2.6,0.2,3.8,0.6c0-0.5,0-1.4,0.1-2.7c0.1-1.3,0.2-2.7,0.2-4.1c0.2-3.7,0.3-5.9,0.3-6.6c0.1-0.7,0.1-1.2,0.2-1.7
		c0.1-0.5,0.3-0.9,0.5-1.2c0.4-0.7,1.2-1.1,2.2-1.1C638.5,40.6,638.4,43.2,638.2,45.9z M620.5,65.6c0,2.3,0.8,3.4,2.5,3.4
		c0.3,0,0.5,0,0.9-0.1c1.2,0,2.6-0.3,4.3-1c3.3-1.3,5.3-2.4,6-3.4v-5.7c0-1-0.8-1.5-2.5-1.5c-0.2,0-0.5,0-0.8,0
		c-0.3,0-0.8,0.1-1.5,0.2c-0.7,0.1-1.5,0.4-2.3,0.8c-0.9,0.4-1.7,0.8-2.5,1.4c-1.8,1.2-3,2.6-3.6,4.1
		C620.6,64.4,620.5,65,620.5,65.6z"/>
	<path class="impreDigEtiquetaColor" d="M640.6,46.3c0-1,0.6-1.5,1.8-1.5c0.8,0,1.4,0.2,1.9,0.5c0.1,0.3,0.1,0.6,0.1,0.9s-0.1,0.6-0.3,0.9c-0.2,0.3-0.6,0.4-1,0.4
		s-0.9-0.1-1.4-0.3C641.2,47,640.8,46.7,640.6,46.3z M644.6,52.1c0.4,5.4,0.7,11.6,0.9,18.6c-0.2,0.9-0.9,1.3-2.1,1.3
		c-0.3,0-0.6-0.1-1-0.2c-0.3-0.1-0.5-0.3-0.6-0.5V52.1H644.6z"/>
	<path class="impreDigEtiquetaColor" d="M659.8,90.8l-0.6,0c-0.9,0-1.8,0.1-2.8,0.2h-1.6c-1.7,0-3.1-0.3-4-1c-0.5-0.3-0.8-0.9-0.8-1.5l9.9-0.5
		c3-0.1,4.6-1.7,4.6-4.9c0-0.1,0-0.3,0-0.6c0-0.3,0-0.9,0-1.8l0.2-13.9c0-0.5,0-0.9,0-1.2c-4.6,4.3-9.1,6.5-13.4,6.5
		c-0.4,0-0.7,0-1.1,0c-1.9,0-2.9-0.8-2.9-2.5c0.1-1.3,0.4-2.8,1.2-4.4c0.7-1.6,1.6-3.1,2.8-4.6c1.1-1.5,2.4-2.8,3.9-4
		c2.2-1.8,4.3-2.7,6.4-2.7c2.4,0,4.4,1.3,5.9,3.8c0.5,6.8,0.7,11.7,0.7,14.5c0,2.9,0,5.2-0.1,7.1c-0.1,1.8-0.3,3.5-0.6,5
		c-0.3,1.5-0.7,2.7-1.2,3.6c-0.5,0.9-1.1,1.5-1.7,1.9C663.3,90.5,661.8,90.8,659.8,90.8z M662.4,56.9c-0.3-0.1-0.8-0.2-1.4-0.2
		c-0.6,0-1.4,0.3-2.4,0.8c-1,0.5-1.9,1.2-2.8,2c-0.9,0.8-1.7,1.7-2.5,2.7c-1.9,2.5-2.8,4.4-2.8,5.9c0,0.5,0.1,0.8,0.4,1
		c0.2,0.1,0.5,0.2,0.8,0.2s0.7,0,1.3-0.2c0.6-0.1,1.4-0.4,2.3-0.8c1-0.4,2-1,3.1-1.6c1.1-0.7,2-1.4,2.9-2.2c2-1.8,3-3.6,3-5.4
		C664.2,58.2,663.6,57.4,662.4,56.9z"/>
	<path class="impreDigEtiquetaColor" d="M670,46.3c0-1,0.6-1.5,1.8-1.5c0.8,0,1.4,0.2,1.9,0.5c0.1,0.3,0.1,0.6,0.1,0.9s-0.1,0.6-0.3,0.9c-0.2,0.3-0.6,0.4-1,0.4
		s-0.9-0.1-1.4-0.3C670.5,47,670.2,46.7,670,46.3z M674,52.1c0.4,5.4,0.7,11.6,0.9,18.6c-0.2,0.9-0.9,1.3-2.1,1.3
		c-0.3,0-0.6-0.1-1-0.2c-0.3-0.1-0.5-0.3-0.6-0.5V52.1H674z"/>
	<path class="impreDigEtiquetaColor" d="M683.3,68.2l0.1-6.9c0-1.1-0.1-2-0.3-2.8h-6.7l-0.1-3h6.5V44.5c0.1-0.3,0.3-0.5,0.5-0.8c0.4-0.4,0.7-0.6,1-0.6
		c0.3,0,0.5,0,0.7,0.1c0.2,0.1,0.4,0.3,0.6,0.6c0.5,1.9,0.7,4.7,0.7,8.6c0,0.9,0,1.9,0.1,2.8c0.9-0.1,1.8-0.2,2.8-0.2h2.2
		c0.5,0,1,0,1.5-0.1l-0.1,3.1l-6.3-0.2l0.2,14.8c-0.5,0.2-1,0.3-1.3,0.3C684,73,683.3,71.4,683.3,68.2z"/>
	<path class="impreDigEtiquetaColor" d="M711.5,65.2c-2.2,3.4-5,5.5-8.6,6.3c-0.8,0.2-1.6,0.3-2.3,0.3c-0.7,0-1.2,0-1.7,0c-0.4,0-0.9-0.1-1.5-0.2
		c-0.5-0.1-1-0.3-1.5-0.6c-1.1-0.6-1.6-1.4-1.6-2.5c-0.1-0.5-0.2-1.1-0.2-1.7s0.1-1.5,0.4-2.6c0.3-1.1,0.8-2.2,1.6-3.4
		c0.8-1.2,1.7-2.4,2.8-3.4c2.3-2.2,4.7-3.6,7.4-4.2c0.8-0.2,1.5-0.3,2.1-0.3s1.2,0,1.7,0.1c1.7,0,2.8,1.1,3.4,3.4
		c0.4,1.4,0.6,3.4,0.7,6c0.1,2.6,0.1,4.5,0.2,5.9c0.1,1.4,0.3,2.7,0.5,3.8h-2.5c-0.1-0.8-0.2-1.5-0.3-2.1c-0.1-0.6-0.1-1.2-0.2-1.7
		C711.9,67.1,711.7,66.1,711.5,65.2z M711.3,58.5c0-1.7-0.8-2.5-2.5-2.5c-0.2,0-0.4,0-0.6,0c-2.1,0-4.3,1-6.6,3
		c-1.1,0.9-2,2-2.8,3.1c-1.1,1.6-1.7,3.1-1.7,4.4c0,1.7,1,2.7,2.9,3c2.6-0.1,5-1.2,7.4-3.5c1-1,1.8-2.1,2.5-3.3
		C710.9,61.1,711.3,59.7,711.3,58.5z"/>
	<path class="impreDigEtiquetaColor" d="M717.8,55.7c-0.1-1.5-0.1-2.9-0.2-4.2c-0.1-1.2-0.1-2.1-0.1-2.7c0-0.6-0.3-2-0.7-4.3c0.3-0.3,0.5-0.7,0.8-1
		c0.2-0.3,0.6-0.5,1.1-0.5c1,0,1.8,4.2,2.3,12.7c0.3,4.9,0.4,9.8,0.4,14.7c0,1.3-0.9,2-2.8,2l-0.3,0c0-1.5,0-3.4-0.1-5.7
		s-0.2-4.3-0.2-6.1C717.9,58.8,717.8,57.2,717.8,55.7z"/>
</g>
<g>
	<path class="impreDigEtiquetaColor" d="M433.7,120.2c-1.3-0.2-1.9-0.5-1.9-0.9c0-0.3,0.2-0.6,0.6-1c0.4-0.4,0.9-0.8,1.3-1.2c0-1.4-0.2-2.9-0.6-4.5
		c-0.4-1.7-0.7-3-0.9-3.9c-0.2-0.9-0.3-1.8-0.3-2.5c0-0.8,0.1-1.2,0.4-1.5s0.6-0.3,1-0.3c0.4,0,0.7,0.1,0.9,0.2
		c0.1,0.1,0.2,0.3,0.3,0.5c0,0.2,0.1,0.4,0.1,0.6c0,0.2,0.1,0.4,0.1,0.6c0.1,0.4,0.5,0.6,1,0.6c1.5,0,3-0.2,4.5-0.4
		c1.5-0.2,3-0.5,4.5-0.7c3-0.5,5.1-0.7,6.3-0.7c1.2,0,2.2,0,2.9,0.1c0,0.4,0.1,0.8,0.1,1.1c0.1,0.3,0.1,0.6,0.1,0.8
		c0,0.4-0.4,0.5-1.1,0.4c-11.8,0.4-17.7,1.3-17.7,2.6c0,1.5,0.1,2.7,0.3,3.8c0.2,1,0.4,1.7,0.5,2s0.2,0.4,0.4,0.4
		c1.3,0,2.6-0.1,3.9-0.3c1.3-0.2,2.6-0.5,4-0.7c1.3-0.3,2.6-0.5,4-0.7c1.3-0.2,2.6-0.3,3.9-0.3c0,0,0,0.1,0,0.3s0,0.4,0,0.6
		c-0.1,0.5-0.1,0.8,0,0.8c-1,0.5-2.7,1-5.3,1.3c-1.1,0.2-2.2,0.3-3.4,0.4c-1.1,0.1-2.2,0.3-3.2,0.4c-2.2,0.3-3.5,0.7-3.9,1.2
		l-0.4,6.6c-0.2,0.2-0.5,0.4-0.8,0.4L434,126c-0.1,0-0.2,0-0.3,0V120.2z"/>
	<path class="impreDigEtiquetaColor" d="M455.2,121.3c0-0.4,0-0.9-0.1-1.5c-0.1-0.6-0.1-1.3-0.2-2.1c0-0.8-0.1-1.5-0.1-2.3c0-0.8,0.1-1.5,0.2-2.2
		c0.3-1.5,0.9-2.2,1.8-2.2c0.6,0.2,1.1,0.4,1.3,0.7s0.3,0.6,0.3,1c0,0.4-0.1,0.9-0.3,1.5c-0.7,2-1.1,3.7-1.1,5.3
		c0,0.5,0,1.1,0.1,1.7c0.4,1.5,1.6,2.3,3.7,2.3c1.1,0,2.1-0.2,3.1-0.6c1.9-0.7,3.2-1.5,3.8-2.5c0.2-1,0.3-1.9,0.3-2.7s0-1.5-0.1-2.1
		c-0.1-0.6-0.1-1.3-0.2-2c-0.1-0.7-0.1-1.5-0.2-2.4c0.3-0.1,0.6-0.2,0.9-0.2c0.3,0,0.6,0.1,0.9,0.4c0.3,0.3,0.6,0.8,0.8,1.7
		c0.2,0.8,0.4,1.8,0.4,2.9c0.1,1.1,0.1,2.2,0.1,3.4c0,1.2,0,2.3,0,3.4c0,1.1,0,2,0.1,2.8c-0.3,0.2-0.5,0.4-0.8,0.4
		c-0.9,0-1.6-0.9-2-2.7c-0.3,0.2-0.8,0.6-1.5,0.9c-1.5,0.8-3.2,1.4-5.3,1.6c-0.4,0-0.8,0.1-1.3,0.1s-1.1-0.1-1.8-0.3s-1.4-0.6-2-1.2
		C455.8,123.6,455.4,122.6,455.2,121.3z"/>
	<path class="impreDigEtiquetaColor" d="M473.5,112.7c0-1.2-0.1-2.3-0.1-3.3c0-1-0.1-1.7-0.1-2.1c0-0.5-0.2-1.6-0.6-3.4c0.2-0.3,0.4-0.5,0.6-0.8
		c0.2-0.2,0.5-0.4,0.8-0.4c0.8,0,1.4,3.3,1.8,10c0.2,3.8,0.3,7.7,0.3,11.5c0,1-0.7,1.6-2.2,1.6l-0.3,0c0-1.2,0-2.7-0.1-4.5
		c-0.1-1.8-0.1-3.4-0.2-4.8C473.6,115.2,473.6,113.9,473.5,112.7z"/>
	<path class="impreDigEtiquetaColor" d="M480.2,118.5c-1.1,0-1.7-0.3-1.7-0.9c0-0.3,0.1-0.5,0.4-0.6c0.3-0.1,0.7-0.2,1.4-0.3c0.6-0.1,1.5-0.2,2.4-0.4
		c1-0.2,2-0.3,3.1-0.4c0.4,0,0.8,0.1,1.1,0.2c0.4,0.2,0.7,0.5,0.7,0.8c0,0.1-0.1,0.3-0.2,0.4c-0.1,0.2-0.4,0.3-0.8,0.5L480.2,118.5z
		"/>
	<path class="impreDigEtiquetaColor" d="M502.8,122.3c0.9-0.4,1.8-0.7,2.7-1c0.9-0.3,1.7-0.5,2.5-0.5c0.8,0,1.2,0.2,1.2,0.7c0,0.1,0,0.3-0.1,0.5s-0.4,0.5-0.9,0.8
		c-0.6,0.3-1.2,0.6-2,0.9c-0.8,0.3-1.7,0.6-2.6,0.8c-0.9,0.2-1.9,0.5-2.8,0.6c-1.9,0.4-3.2,0.6-4,0.6c-0.8,0-1.6-0.1-2.5-0.3
		s-1.8-0.5-2.5-0.9c-1.8-0.9-2.7-2.3-2.7-4.2c0-0.1,0-0.4,0-0.8s0.2-1,0.5-1.7c0.3-0.8,0.8-1.5,1.5-2.3c0.7-0.8,1.5-1.4,2.4-2.1
		c1.9-1.4,3.9-2.2,5.9-2.6c0.7-0.2,1.3-0.2,1.8-0.2c0.5,0,0.9,0,1.2,0c0.3,0,0.6,0,1,0.1c0.3,0,0.6,0.1,0.9,0.3
		c0.6,0.3,0.9,0.9,0.9,1.7c0,0.5-0.4,1.1-1.1,1.6c-0.2,0.1-0.4,0.3-0.5,0.4c-0.1-0.5-0.3-1-0.4-1.3c-0.2-0.4-0.6-0.5-1.2-0.5
		c-2.7,0.6-4.9,1.4-6.9,2.5c-2.2,1.3-3.2,2.6-3.2,4.1c0,0.2,0,0.3,0,0.5c0,1.4,0.6,2.5,1.7,3.1c0.8,0.5,1.9,0.7,3.2,0.7
		c1.3,0,2.5-0.2,3.4-0.5S501.8,122.6,502.8,122.3z"/>
	<path class="impreDigEtiquetaColor" d="M511.8,119.4c0-2.7,1.1-4.8,3.4-6.4c1.8-1.3,4-2.1,6.6-2.3c0.1,0,0.4,0,0.9,0c0.5,0,1.2,0.1,2,0.4c1.8,0.6,3.1,1.7,3.8,3.3
		c0.3,0.6,0.4,1.2,0.4,1.6c0,0.4,0,0.7,0,0.9c0,2.8-1.1,5-3.2,6.7c-2,1.5-4.5,2.2-7.4,2.2c-2.1,0-3.8-0.5-4.8-1.5
		C512.4,123.4,511.8,121.7,511.8,119.4z M514.2,120.2c0,1.4,0.4,2.3,1.1,2.8c0.6,0.4,1.5,0.5,2.8,0.5c1.3,0,2.5-0.1,3.5-0.3
		c1-0.2,1.9-0.6,2.7-1c1.7-1.1,2.5-2.8,2.5-5c0-1.4-0.4-2.5-1.1-3.3c-0.8-0.9-1.8-1.4-3.1-1.4c-0.9,0.2-1.8,0.3-2.7,0.5
		c-0.9,0.2-1.7,0.5-2.5,1C515.8,115.2,514.7,117.2,514.2,120.2z"/>
	<path class="impreDigEtiquetaColor" d="M531,112.7c0-1.2-0.1-2.3-0.1-3.3c0-1-0.1-1.7-0.1-2.1c0-0.5-0.2-1.6-0.6-3.4c0.2-0.3,0.4-0.5,0.6-0.8
		c0.2-0.2,0.5-0.4,0.8-0.4c0.8,0,1.4,3.3,1.8,10c0.2,3.8,0.3,7.7,0.3,11.5c0,1-0.7,1.6-2.2,1.6l-0.3,0c0-1.2,0-2.7-0.1-4.5
		c-0.1-1.8-0.1-3.4-0.2-4.8C531.1,115.2,531.1,113.9,531,112.7z"/>
	<path class="impreDigEtiquetaColor" d="M536.7,119.4c0-2.7,1.1-4.8,3.4-6.4c1.8-1.3,4-2.1,6.6-2.3c0.1,0,0.4,0,0.9,0c0.5,0,1.2,0.1,2,0.4c1.8,0.6,3.1,1.7,3.8,3.3
		c0.3,0.6,0.4,1.2,0.4,1.6c0,0.4,0,0.7,0,0.9c0,2.8-1.1,5-3.2,6.7c-2,1.5-4.5,2.2-7.4,2.2c-2.1,0-3.8-0.5-4.8-1.5
		C537.3,123.4,536.7,121.7,536.7,119.4z M539,120.2c0,1.4,0.4,2.3,1.1,2.8c0.6,0.4,1.5,0.5,2.8,0.5c1.3,0,2.5-0.1,3.5-0.3
		c1-0.2,1.9-0.6,2.7-1c1.7-1.1,2.5-2.8,2.5-5c0-1.4-0.4-2.5-1.1-3.3c-0.8-0.9-1.8-1.4-3.1-1.4c-0.9,0.2-1.8,0.3-2.7,0.5
		c-0.9,0.2-1.7,0.5-2.5,1C540.7,115.2,539.6,117.2,539,120.2z"/>
	<path class="impreDigEtiquetaColor" d="M571.9,113.5c-0.9-0.7-2.2-1-3.6-1c-1.4,0-2.7,0.3-3.9,0.8c-2.3,0.9-3.8,2.2-4.6,3.6c-0.4,0.7-0.5,1.4-0.5,2.2
		c0,0.1,0,0.5,0,1.1c0,0.6,0.1,1.5,0.3,2.5c0.2,1,0.3,2.1,0.3,3.2c-0.5,0-0.9,0.1-1.1,0.2c-0.3,0.1-0.5,0.1-0.7,0.1
		s-0.4-0.1-0.5-0.3c-0.1-0.2-0.3-0.5-0.5-1c0-0.1-0.1-0.5-0.1-1.1c-0.1-0.6-0.2-1.4-0.3-2.3c-0.1-0.9-0.2-1.9-0.3-3
		c-0.1-1.1-0.2-2.1-0.4-3.2c-0.2-2.3-0.4-3.9-0.6-5c0-0.5,0.4-0.8,1.2-0.8c0.5,0,0.8,0.2,1.1,0.6c0.3,0.4,0.5,0.8,0.6,1.4
		c0.2,0.5,0.3,1,0.3,1.5c0.1,0.5,0.1,0.8,0.2,1c3-2.7,6.7-4,11.1-4c0.5,0,1,0,1.6,0c0.1,0,0.3,0,0.5,0c0.2,0,0.4,0.1,0.6,0.4
		c0.2,0.3,0.4,0.7,0.4,1.1C572.8,112.7,572.5,113.4,571.9,113.5z"/>
</g>
<g>
	<path class="impreDigEtiquetaColor" d="M512.5,163.7c0-0.4,0-1.1,0.1-2s0.1-1.9,0.1-3.1s0.1-2.4,0.1-3.6c0-1.3,0.1-2.5,0.1-3.6s0.1-2.2,0.1-3.1c0-0.9,0-1.6,0.1-2
		c0-0.5,0-0.8,0.3-0.9c0.2-0.1,0.5-0.2,0.8-0.2c0.3,0,0.5,0,0.7,0.1c0.2,0,0.4,0.2,0.5,0.5l-0.5,17.4c0,0.4-0.4,0.7-0.9,0.9
		C513.2,164.1,512.8,164,512.5,163.7z"/>
	<path class="impreDigEtiquetaColor" d="M529.4,164.7c-0.5,0-0.7-0.1-0.8-0.4l0.1-6.7h-2.5l-4.1,0h-2.4c-0.3,0-0.6,0-0.9-0.1s-0.4-0.3-0.4-0.7
		c1.2-1.5,2.4-3.1,3.5-4.6c3.6-4.9,6-7.3,7.4-7.3c1.5,0,2.2,2.6,2.2,7.8c0,0.7,0,1.4,0,2.2l7.5-0.1c0,0.6-0.1,1-0.2,1.3
		c-0.1,0.3-0.3,0.4-0.4,0.4l-6.2,0.5c-0.3,0.9-0.5,1.9-0.6,3c-0.1,1.8-0.2,3.3-0.2,4.5L529.4,164.7z M528.7,147.9
		c-0.5,0.7-1.1,1.3-1.8,2c-0.7,0.6-1.4,1.3-2.1,1.9c-0.7,0.6-1.3,1.3-1.8,1.9c-0.5,0.7-0.9,1.3-1,2c0.2,0,0.5,0,1,0
		c0.5,0,1.3-0.1,2.3-0.2c1-0.1,2.1-0.3,3.3-0.4V147.9z"/>
	<path class="impreDigEtiquetaColor" d="M552.9,164.7c-0.5,0-0.7-0.1-0.8-0.4l0.1-6.7h-2.5l-4.1,0h-2.4c-0.3,0-0.6,0-0.9-0.1s-0.4-0.3-0.4-0.7
		c1.2-1.5,2.4-3.1,3.5-4.6c3.6-4.9,6-7.3,7.4-7.3c1.5,0,2.2,2.6,2.2,7.8c0,0.7,0,1.4,0,2.2l7.5-0.1c0,0.6-0.1,1-0.2,1.3
		c-0.1,0.3-0.3,0.4-0.4,0.4l-6.2,0.5c-0.3,0.9-0.5,1.9-0.6,3c-0.1,1.8-0.2,3.3-0.2,4.5L552.9,164.7z M552.3,147.9
		c-0.5,0.7-1.1,1.3-1.8,2c-0.7,0.6-1.4,1.3-2.1,1.9c-0.7,0.6-1.3,1.3-1.8,1.9c-0.5,0.7-0.9,1.3-1,2c0.2,0,0.5,0,1,0
		c0.5,0,1.3-0.1,2.3-0.2c1-0.1,2.1-0.3,3.3-0.4V147.9z"/>
	<path class="impreDigEtiquetaColor" d="M567,162.7c-0.8-0.5-1.5-1.2-1.9-1.9s-0.7-1.6-0.7-2.5c0-0.9,0.1-2,0.4-3.2s0.6-2.4,1-3.4c0.4-1.1,0.9-2.1,1.5-3.1
		c0.6-1,1.3-1.9,2-2.6c1.7-1.6,3.6-2.5,5.7-2.5c2.9,0,5.1,1.1,6.6,3.2c1.4,1.9,2.1,4.3,2.1,7.1c0,3.4-1.1,6-3.2,7.8
		c-2.1,1.8-4.9,2.7-8.3,2.7C570.3,164.3,568.5,163.7,567,162.7z M566.3,158c0,3,2.2,4.6,6.5,4.6c3.1,0,5.4-0.8,7-2.4
		c1.6-1.6,2.3-3.9,2.3-6.8c0-0.1,0-0.2,0-0.3c0-2.6-0.6-4.6-1.9-5.9c-1.3-1.4-3-2.1-5.3-2.1c-0.2,0-0.5,0-0.7,0c-0.2,0-0.4,0-0.5,0
		c-1.2,0-2.4,0.8-3.5,2.4c-1.1,1.5-2,3.4-2.8,5.7C566.7,155.3,566.3,156.9,566.3,158z"/>
	<path class="impreDigEtiquetaColor" d="M615.4,143.4c-0.1,2.1-0.2,4.1-0.3,6c-0.1,2-0.2,4.1-0.2,6.3c0,2.2,0.2,4.6,0.5,7c0,0.5-0.1,0.9-0.3,1.1s-0.5,0.3-1,0.3
		c-1.1,0-1.6-0.9-1.6-2.6v-1.1c-3.2,2.4-5.9,3.6-8.1,3.6c-0.9,0-1.8-0.2-2.7-0.6c-0.9-0.4-1.8-1.3-2.6-2.6c-0.1-0.5-0.2-1.1-0.2-1.7
		c0-0.6,0.1-1.2,0.3-2s0.7-1.6,1.3-2.5c0.7-0.9,1.5-1.6,2.4-2.3c2.1-1.4,4.3-2.1,6.7-2.1c1,0,2,0.2,3,0.5c0-0.4,0-1.1,0.1-2.1
		c0.1-1,0.1-2.1,0.2-3.2c0.1-2.9,0.2-4.7,0.3-5.2c0-0.5,0.1-1,0.2-1.4c0.1-0.4,0.2-0.7,0.4-1c0.3-0.6,0.9-0.8,1.8-0.8
		C615.6,139.2,615.5,141.4,615.4,143.4z M601.5,158.9c0,1.8,0.6,2.7,1.9,2.7c0.2,0,0.4,0,0.7-0.1c0.9,0,2.1-0.3,3.4-0.8
		c2.6-1,4.1-1.9,4.7-2.6v-4.5c0-0.8-0.6-1.2-1.9-1.2c-0.2,0-0.4,0-0.6,0s-0.7,0.1-1.2,0.2c-0.5,0.1-1.1,0.3-1.8,0.6
		c-0.7,0.3-1.3,0.7-2,1.1c-1.4,0.9-2.3,2-2.8,3.2C601.6,157.9,601.5,158.4,601.5,158.9z"/>
	<path class="impreDigEtiquetaColor" d="M620.6,150.7c3.1-1.1,5.7-1.6,7.9-1.6c2.8,0,4.7,0.7,5.7,2.2c0.4,0.7,0.6,1.5,0.6,2.3c0,1.1-0.4,2.3-1.1,3.5
		c-0.7,1.2-1.6,2.3-2.8,3.2c-2.7,2.2-6,3.6-9.9,4.2c0,0.2,0,0.6,0,1.2c0,0.6,0,1.2,0,1.8c0,0.7,0,1.4,0,2.2c0,0.8,0,1.5,0.1,2.2
		c0.1,1.7,0.1,2.7,0.2,3c0,0.2,0.1,0.4,0.1,0.6c0,0.6-0.2,1-0.5,1.3c-0.4,0.3-0.8,0.4-1.4,0.4c-0.1,0-0.2,0-0.3,0l-0.5-27.1
		c0.2-0.3,0.5-0.4,0.8-0.4c0.3,0,0.6,0.1,0.8,0.3C620.4,150,620.5,150.2,620.6,150.7z M630.4,151.8c-0.7-0.4-1.5-0.6-2.4-0.6
		c-0.8,0-1.7,0.1-2.5,0.2c-1.9,0.4-3.3,1.2-4.2,2.4c-0.4,0.6-0.6,1.3-0.6,2.2c0,0.1,0,0.2,0,0.3v5.8c4.6-1,7.9-2.5,9.9-4.3
		c1.1-1.1,1.7-2.1,1.7-3.3C632.3,153.4,631.7,152.5,630.4,151.8z"/>
	<path class="impreDigEtiquetaColor" d="M636.5,143.7c0-0.8,0.5-1.2,1.4-1.2c0.6,0,1.1,0.1,1.5,0.4c0.1,0.2,0.1,0.5,0.1,0.7s-0.1,0.5-0.3,0.7
		c-0.2,0.2-0.5,0.3-0.8,0.3c-0.4,0-0.7-0.1-1.1-0.3C636.9,144.3,636.7,144,636.5,143.7z M639.6,148.3c0.3,4.2,0.5,9.1,0.7,14.6
		c-0.1,0.7-0.7,1-1.6,1c-0.2,0-0.5-0.1-0.8-0.2s-0.4-0.2-0.5-0.4v-15.1H639.6z"/>
</g>
<path class="impreDigEcoIndi" d="M756.9,297.3c8.7,0,15.8,7.1,15.8,15.8c0,8.7-7.1,15.8-15.8,15.8c-8.7,0-15.8-7.1-15.8-15.8
	C741.1,304.4,748.2,297.3,756.9,297.3"/>
<g>
	<path class="impreDigEcoTxt" d="M615.7,266.9c2.3,0,3.7,0.1,4.5,0.4v1.7c-0.6,0.1-1.4,0.1-2.5,0.2c-1.1,0-2.2,0-3.4,0.1
		c-3.3,0.1-5.6,0.2-6.8,0.5c-0.4,1.8-0.6,3-0.5,3.7c0,0.7,0,1.2,0.1,1.5c0.1,0.9,0.1,1.9,0.1,3.1c1.5,0,3.3-0.1,5.3-0.4
		c2-0.3,3.5-0.5,4.6-0.6c1.1-0.1,2.2-0.2,3.3-0.2v1.9l-12.9,1.6l0.2,5.5c2.2,0,4.5-0.1,6.8-0.3c2.3-0.2,4.1-0.4,5.3-0.5
		c1.2-0.1,2.5-0.2,3.8-0.2c0,0.5-0.1,0.9-0.4,1.3c-0.5,0.7-1,0.9-1.5,0.6c-4,0.4-7.5,0.8-10.6,1c-3.1,0.2-5.2,0.4-6.3,0.5l0.1-21.5
		c0.6,0.2,1.7,0.3,3.2,0.3L615.7,266.9z"/>
	<path class="impreDigEcoTxt" d="M638.8,284.8c0.9-0.4,1.8-0.7,2.7-1c0.9-0.3,1.7-0.5,2.5-0.5c0.8,0,1.2,0.2,1.2,0.7c0,0.1,0,0.3-0.1,0.5
		s-0.4,0.5-0.9,0.8c-0.6,0.3-1.2,0.6-2,0.9c-0.8,0.3-1.7,0.6-2.6,0.8c-0.9,0.2-1.9,0.5-2.8,0.6c-1.9,0.4-3.2,0.6-4,0.6
		c-0.8,0-1.6-0.1-2.5-0.3s-1.8-0.5-2.5-0.9c-1.8-0.9-2.7-2.3-2.7-4.2c0-0.1,0-0.4,0-0.8s0.2-1,0.5-1.7c0.3-0.8,0.8-1.5,1.5-2.3
		c0.7-0.8,1.5-1.4,2.4-2.1c1.9-1.4,3.9-2.2,5.9-2.6c0.7-0.2,1.3-0.2,1.8-0.2c0.5,0,0.9,0,1.2,0c0.3,0,0.6,0,1,0.1
		c0.3,0,0.6,0.1,0.9,0.3c0.6,0.3,0.9,0.9,0.9,1.7c0,0.5-0.4,1.1-1.1,1.6c-0.2,0.1-0.4,0.3-0.5,0.4c-0.1-0.5-0.3-1-0.4-1.3
		c-0.2-0.4-0.6-0.5-1.2-0.5c-2.7,0.6-4.9,1.4-6.9,2.5c-2.2,1.3-3.2,2.6-3.2,4.1c0,0.2,0,0.3,0,0.5c0,1.4,0.6,2.5,1.7,3.1
		c0.8,0.5,1.9,0.7,3.2,0.7c1.3,0,2.5-0.2,3.4-0.5S637.9,285.2,638.8,284.8z"/>
	<path class="impreDigEcoTxt" d="M647.9,282c0-2.7,1.1-4.8,3.4-6.4c1.8-1.3,4-2.1,6.6-2.3c0.1,0,0.4,0,0.9,0c0.5,0,1.2,0.1,2,0.4
		c1.8,0.6,3.1,1.7,3.8,3.3c0.3,0.6,0.4,1.2,0.4,1.6c0,0.4,0,0.7,0,0.9c0,2.8-1.1,5-3.2,6.7c-2,1.5-4.5,2.2-7.4,2.2
		c-2.1,0-3.8-0.5-4.8-1.5C648.5,285.9,647.9,284.3,647.9,282z M650.2,282.8c0,1.4,0.4,2.3,1.1,2.8c0.6,0.4,1.5,0.5,2.8,0.5
		c1.3,0,2.5-0.1,3.5-0.3c1-0.2,1.9-0.6,2.7-1c1.7-1.1,2.5-2.8,2.5-5c0-1.4-0.4-2.5-1.1-3.3c-0.8-0.9-1.8-1.4-3.1-1.4
		c-0.9,0.2-1.8,0.3-2.7,0.5c-0.9,0.2-1.7,0.5-2.5,1C651.9,277.7,650.8,279.8,650.2,282.8z"/>
	<path class="impreDigEcoTxt" d="M668.3,281.1c-1.1,0-1.7-0.3-1.7-0.9c0-0.3,0.1-0.5,0.4-0.6c0.3-0.1,0.7-0.2,1.4-0.3c0.6-0.1,1.5-0.2,2.4-0.4
		c1-0.2,2-0.3,3.1-0.4c0.4,0,0.8,0.1,1.1,0.2c0.4,0.2,0.7,0.5,0.7,0.8c0,0.1-0.1,0.3-0.2,0.4c-0.1,0.2-0.4,0.3-0.8,0.5L668.3,281.1z
		"/>
	<path class="impreDigEcoTxt" d="M688.8,279.7c2.5,0,3.7,0.6,3.7,1.9c0,0.9-0.7,2-2.1,3.3c-2,1.9-4.8,3.4-8.3,4.5c-0.2,0-0.3-0.2-0.5-0.5
		c-0.2-0.3-0.3-0.6-0.4-0.7c-0.1-0.2-0.2-0.3-0.2-0.3c2.6-0.9,4.7-1.9,6.4-3.1c1.1-0.8,1.7-1.5,1.7-2c0-0.5-0.7-0.8-2-0.8
		c-1.3,0-3.3,0.3-5.8,0.9c-1.2,0-2.2-0.5-3-1.2c-0.7-0.7-1.1-1.4-1.1-2.1s0.2-1.4,0.6-2c0.4-0.6,0.9-1.2,1.6-1.7
		c0.7-0.5,1.5-1,2.4-1.4c2.2-1.1,4.5-1.6,6.9-1.6c0.7,0,1.4,0.1,2,0.2c0.5,0,0.9,0.2,0.9,0.7c0.1,0.5,0.1,1.2,0.1,2.3
		c-1.3-0.6-2.8-0.9-4.5-0.9c-2.1,0-3.8,0.4-5.1,1.2c-1.4,0.8-2.1,1.9-2.2,3.2c0,0.6,0.5,0.9,1.4,0.9l2.5-0.3
		C685.8,279.9,687.5,279.7,688.8,279.7z"/>
	<path class="impreDigEcoTxt" d="M695.4,282c0-2.7,1.1-4.8,3.4-6.4c1.8-1.3,4-2.1,6.6-2.3c0.1,0,0.4,0,0.9,0c0.5,0,1.2,0.1,2,0.4
		c1.8,0.6,3.1,1.7,3.8,3.3c0.3,0.6,0.4,1.2,0.4,1.6c0,0.4,0,0.7,0,0.9c0,2.8-1.1,5-3.2,6.7c-2,1.5-4.5,2.2-7.4,2.2
		c-2.1,0-3.8-0.5-4.8-1.5C696,285.9,695.4,284.3,695.4,282z M697.8,282.8c0,1.4,0.4,2.3,1.1,2.8c0.6,0.4,1.5,0.5,2.8,0.5
		c1.3,0,2.5-0.1,3.5-0.3c1-0.2,1.9-0.6,2.7-1c1.7-1.1,2.5-2.8,2.5-5c0-1.4-0.4-2.5-1.1-3.3c-0.8-0.9-1.8-1.4-3.1-1.4
		c-0.9,0.2-1.8,0.3-2.7,0.5c-0.9,0.2-1.7,0.5-2.5,1C699.4,277.7,698.3,279.8,697.8,282.8z"/>
	<path class="impreDigEcoTxt" d="M714.7,275.3c0-1.2-0.1-2.3-0.1-3.3c0-1-0.1-1.7-0.1-2.1c0-0.5-0.2-1.6-0.6-3.4c0.2-0.3,0.4-0.5,0.6-0.8
		c0.2-0.2,0.5-0.4,0.8-0.4c0.8,0,1.4,3.3,1.8,10c0.2,3.8,0.3,7.7,0.3,11.5c0,1-0.7,1.6-2.2,1.6l-0.3,0c0-1.2,0-2.7-0.1-4.5
		c-0.1-1.8-0.1-3.4-0.2-4.8C714.7,277.8,714.7,276.5,714.7,275.3z"/>
	<path class="impreDigEcoTxt" d="M719.8,275.3c0-0.1-0.1-0.2-0.1-0.4c0-0.1,0.1-0.3,0.2-0.6c0.1-0.2,0.3-0.5,0.5-0.6c0.2-0.2,0.5-0.3,0.7-0.3
		c0.3,0,0.5,0.2,0.6,0.5l5.7,10.5c0.2-0.3,0.5-0.8,0.9-1.5c0.4-0.7,0.8-1.6,1.3-2.5c0.5-0.9,1-1.9,1.6-2.9c0.6-1,1.1-1.9,1.5-2.8
		c1.1-1.9,1.7-2.9,1.9-2.9c0.5,0,0.8,0.2,1,0.5c0.2,0.3,0.3,0.6,0.3,0.8s0,0.3,0,0.4c-1.3,2.7-2.4,5.3-3.5,7.6
		c-1.1,2.3-1.8,3.8-2.1,4.5c-0.3,0.7-0.7,1.2-0.9,1.6c-0.5,0.7-0.9,1-1.4,1s-1-0.4-1.6-1.1s-1.2-1.7-2-2.9
		C723.2,282.4,721.6,279.3,719.8,275.3z"/>
	<path class="impreDigEcoTxt" d="M744.3,286c2,0,5-0.9,8.9-2.7c0.2,0,0.5,0.1,0.6,0.3c0.2,0.2,0.2,0.4,0.2,0.6c-0.9,1.5-2.6,2.7-5.2,3.6
		c-2.5,0.9-4.9,1-7.1,0.4c-2.5-0.7-4-2.1-4.6-4.2c0-0.4-0.1-1-0.1-1.7c0-0.7,0.2-1.7,0.6-2.9s1-2.3,1.9-3.4c0.9-1.1,2-1.9,3.2-2.5
		c1.2-0.6,2.5-0.9,3.9-0.9c1.3,0,2.8,0.5,4.4,1.4c0.8,0.4,1.4,0.9,1.8,1.5c0.4,0.5,0.7,1.1,0.7,1.7c0,0.2,0,0.3,0,0.5
		c0,1.4-0.7,2.2-2,2.6c-0.6,0.2-1.2,0.2-2,0.2l-4.9-0.2c-1.6,0-2.9,0.3-3.7,1c-0.5,0.4-0.8,1-1,1.7C740.5,285,742,286,744.3,286z
		 M750.3,275.6c-0.5-0.4-1-0.6-1.6-0.8c-0.5-0.2-1-0.2-1.4-0.2s-0.9,0.1-1.8,0.4c-0.8,0.2-1.5,0.5-2.2,0.8c-1.6,0.7-2.3,1.5-2.3,2.3
		c1.8,0.2,3.2,0.2,4.1,0.2c2.5,0,4.2-0.2,5.1-0.6c0.5-0.2,0.8-0.5,0.8-0.8C751.1,276.3,750.8,275.9,750.3,275.6z"/>
	<path class="impreDigEcoTxt" d="M769.3,281c0-2.7-0.1-4.6-0.4-5.9c0.2-0.3-0.1-0.5-0.8-0.5c-0.8,0-1.8,0.2-3,0.6c-1.2,0.4-2.2,0.8-3,1.1
		c-1.8,0.9-2.8,1.7-3,2.6v9.2h-2.3c-0.3-0.8-0.4-2.9-0.4-6.4c0-3.2,0.1-5.5,0.2-7c0.1-1.5,0.2-2.3,0.3-2.5c0.6-0.4,1.1-0.6,1.4-0.6
		c0.6,0,0.8,0.7,0.8,2c0,0.5,0,1-0.1,1.5c-0.1,0.5-0.1,0.8-0.1,1c3.6-2.7,6.5-4,8.5-4c2.3,0,3.6,1.8,3.9,5.5
		c0.1,1.3,0.2,3.1,0.2,5.3l0,2.7c0,1,0,1.9,0.1,2.9c-0.2,0.1-0.4,0.2-0.5,0.2c-0.1,0-0.2-0.1-0.4-0.1s-0.5-0.1-0.9-0.1
		c-0.2-0.9-0.3-1.8-0.4-2.8c0-0.9,0-1.8,0-2.6L769.3,281z"/>
	<path class="impreDigEcoTxt" d="M778.5,285.1l0.1-5.4c0-0.9-0.1-1.6-0.2-2.2h-5.2l-0.1-2.3h5.1v-8.7c0.1-0.2,0.2-0.4,0.4-0.6
		c0.3-0.3,0.6-0.5,0.8-0.5s0.4,0,0.6,0.1c0.2,0,0.3,0.2,0.5,0.5c0.4,1.5,0.5,3.7,0.5,6.7c0,0.7,0,1.5,0.1,2.2
		c0.7-0.1,1.4-0.1,2.2-0.1h1.8c0.4,0,0.8,0,1.2-0.1l-0.1,2.4l-4.9-0.1l0.2,11.6c-0.4,0.2-0.8,0.3-1,0.3
		C779.1,288.9,778.5,287.6,778.5,285.1z"/>
	<path class="impreDigEcoTxt" d="M794.3,286c2,0,5-0.9,8.9-2.7c0.2,0,0.5,0.1,0.6,0.3c0.2,0.2,0.2,0.4,0.2,0.6c-0.9,1.5-2.6,2.7-5.2,3.6
		c-2.5,0.9-4.9,1-7.1,0.4c-2.5-0.7-4-2.1-4.6-4.2c0-0.4-0.1-1-0.1-1.7c0-0.7,0.2-1.7,0.6-2.9s1-2.3,1.9-3.4c0.9-1.1,2-1.9,3.2-2.5
		c1.2-0.6,2.5-0.9,3.9-0.9c1.3,0,2.8,0.5,4.4,1.4c0.8,0.4,1.4,0.9,1.8,1.5c0.4,0.5,0.7,1.1,0.7,1.7c0,0.2,0,0.3,0,0.5
		c0,1.4-0.7,2.2-2,2.6c-0.6,0.2-1.2,0.2-2,0.2l-4.9-0.2c-1.6,0-2.9,0.3-3.7,1c-0.5,0.4-0.8,1-1,1.7C790.5,285,791.9,286,794.3,286z
		 M800.3,275.6c-0.5-0.4-1-0.6-1.6-0.8c-0.5-0.2-1-0.2-1.4-0.2s-0.9,0.1-1.8,0.4c-0.8,0.2-1.5,0.5-2.2,0.8c-1.6,0.7-2.3,1.5-2.3,2.3
		c1.8,0.2,3.2,0.2,4.1,0.2c2.5,0,4.2-0.2,5.1-0.6c0.5-0.2,0.8-0.5,0.8-0.8C801,276.3,800.8,275.9,800.3,275.6z"/>
</g>
<path class="impreDigLineaEco" d="M756.9,313.1c88.7,94.7,106.4-107.2,188.7-12.8"/>
<polygon class="impreDigEcoIndi" points="950.5,302.2 955.9,295.8 953.9,319.1 935.4,304.8 943.7,305.2 932.4,298 945.6,300.3 952.9,289 "/>
<path class="impreDigSombra" d="M1038.9,218.3c29.5,0,53.4,10.3,53.4,23.1c0,12-21.4,21.9-48.7,23c1.5,0.1,3,0.1,4.6,0.1
	c29.5,0,53.4-11.1,53.4-24.9s-23.9-24.9-53.4-24.9c-14.4,0-27.5,2.7-37.1,7C1019.2,219.5,1028.7,218.3,1038.9,218.3"/>
<path class="impreDigSombra" d="M921.3,188.1c11.8,0,23.7,0,35.5,0v5.6H948v33.6h-17.8v-33.6h-8.9V188.1z"/>
<path class="impreDigSombra" d="M962.7,188.1h19.5v33.6h5.9v-33.6h18.9v28.5c0,5.9-5.1,10.7-11.3,10.7H974c-6.2,0-11.3-4.8-11.3-10.7V188.1z"/>
<rect x="930.3" y="234.1" class="impreDigSombra" width="5.3" height="22.4"/>
<path class="impreDigSombra" d="M937.8,234.1h4.6h0.3h5c3,0,5.6,1.5,7.1,3.7v-3.7h6.4c4.5,0,8.3,3.5,8.3,7.8v14.5h-5V243c0-2.3-2-4.3-4.5-4.3
	h-4.7c0.5,1,0.7,2.1,0.7,3.2v14.5h-5V243c0-2.3-2-4.3-4.5-4.3h-3.8v17.7h-4.9V234.1z"/>
<path class="impreDigSombra" d="M1051.7,234.1h4.6h0.3h7.7c4.5,0,8.3,3.5,8.3,7.8v14.5h-5V243c0-2.3-2-4.3-4.5-4.3h-6.5v17.7h-4.9V234.1z"/>
<path class="impreDigSombra" d="M981.6,233.9h4.3c5.6,0,10.2,4.3,10.2,9.6v19.4h-5.4V252v-8.5c0-2.5-2.1-4.5-4.8-4.5h-4.3c-2.6,0-4.8,2-4.8,4.5
	v3.4H988v5.2h-11.1h-4.6h-0.7v-8.6C971.5,238.2,976.1,233.9,981.6,233.9"/>
<path class="impreDigSombra" d="M998.4,247.6v-4.1c0-5.3,4.6-9.6,10.2-9.6h16.5v5.1h-16.5c-2.6,0-4.8,2-4.8,4.5v4.1c0,2.5,2.1,4.5,4.8,4.5h11.2
	v-10.5h5.3v10.5v3v2.1h-16.5C1002.9,257.2,998.4,252.8,998.4,247.6"/>
<path class="impreDigSombra" d="M1047.4,246.2h-12.2c-4.3,0-4.3,6.1,0,6.1h12.2v4.8h-13.6c-6.5,0-9.3-7.8-4.2-11.6c0,0,1-1.2-0.1-2.2
	c-4.5-2.8-2.4-9.5,3-9.5h15v3.9h-13.2c-2.9,0-2.9,4.2,0,4.2h13.2V246.2z"/>
<path class="impreDigTu" d="M1038,219.1c29.5,0,53.4,10.3,53.4,23.1c0,12-21.4,21.9-48.7,23c1.5,0.1,3,0.1,4.6,0.1
	c29.5,0,53.4-11.1,53.4-24.9s-23.9-24.9-53.4-24.9c-14.4,0-27.5,2.7-37.1,7C1018.3,220.4,1027.8,219.1,1038,219.1"/>
<path class="impreDigTu" d="M920.5,189c11.8,0,23.7,0,35.5,0v5.6h-8.9v33.6h-17.8v-33.6h-8.9V189z"/>
<path class="impreDigTu" d="M961.8,189h19.5v33.6h5.9V189h18.9v28.5c0,5.9-5.1,10.7-11.3,10.7h-21.8c-6.2,0-11.3-4.8-11.3-10.7V189z"/>
<rect x="929.5" y="235" class="impreDigImagen" width="5.3" height="22.4"/>
<path class="impreDigImagen" d="M936.9,235h4.6h0.3h5c3,0,5.6,1.5,7.1,3.7V235h6.4c4.5,0,8.3,3.5,8.3,7.8v14.5h-5v-13.5c0-2.3-2-4.3-4.5-4.3
	h-4.7c0.5,1,0.7,2.1,0.7,3.2v14.5h-5v-13.5c0-2.3-2-4.3-4.5-4.3h-3.8v17.7h-4.9V235z"/>
<path class="impreDigImagen" d="M1050.8,235h4.6h0.3h7.7c4.5,0,8.3,3.5,8.3,7.8v14.5h-5v-13.5c0-2.3-2-4.3-4.5-4.3h-6.5v17.7h-4.9V235z"/>
<path class="impreDigImagen" d="M980.8,234.7h4.3c5.6,0,10.2,4.3,10.2,9.6v19.4h-5.4v-10.9v-8.5c0-2.5-2.1-4.5-4.8-4.5h-4.3
	c-2.6,0-4.8,2-4.8,4.5v3.4h11.1v5.2H976h-4.6h-0.7v-8.6C970.6,239,975.2,234.7,980.8,234.7"/>
<path class="impreDigImagen" d="M997.5,248.4v-4.1c0-5.3,4.6-9.6,10.2-9.6h16.5v5.1h-16.5c-2.6,0-4.8,2-4.8,4.5v4.1c0,2.5,2.1,4.5,4.8,4.5h11.2
	v-10.5h5.3V253v3v2.1h-16.5C1002.1,258,997.5,253.7,997.5,248.4"/>
<path class="impreDigImagen" d="M1046.5,247.1h-12.2c-4.3,0-4.3,6.1,0,6.1h12.2v4.8h-13.6c-6.5,0-9.3-7.8-4.2-11.6c0,0,1-1.2-0.1-2.2
	c-4.5-2.8-2.4-9.5,3-9.5h15v3.9h-13.2c-2.9,0-2.9,4.2,0,4.2h13.2V247.1z"/>
</svg>
